Track 0: 
MetaMessage('time_signature', numerator=3, denominator=4, clocks_per_click=24, notated_32nd_notes_per_beat=8, time=0)
MetaMessage('set_tempo', tempo=310880, time=0)
MetaMessage('set_tempo', tempo=310880, time=135936)
MetaMessage('set_tempo', tempo=312500, time=25)
MetaMessage('set_tempo', tempo=314130, time=26)
MetaMessage('set_tempo', tempo=315780, time=25)
MetaMessage('set_tempo', tempo=317460, time=26)
MetaMessage('set_tempo', tempo=319140, time=26)
MetaMessage('set_tempo', tempo=320850, time=25)
MetaMessage('set_tempo', tempo=322580, time=19)
MetaMessage('set_tempo', tempo=324320, time=26)
MetaMessage('set_tempo', tempo=326080, time=26)
MetaMessage('set_tempo', tempo=327860, time=25)
MetaMessage('set_tempo', tempo=329670, time=26)
MetaMessage('set_tempo', tempo=331490, time=25)
MetaMessage('set_tempo', tempo=333330, time=26)
MetaMessage('set_tempo', tempo=335190, time=19)
MetaMessage('set_tempo', tempo=337070, time=26)
MetaMessage('set_tempo', tempo=338980, time=25)
MetaMessage('set_tempo', tempo=340900, time=26)
MetaMessage('set_tempo', tempo=342850, time=26)
MetaMessage('set_tempo', tempo=344820, time=25)
MetaMessage('set_tempo', tempo=346820, time=26)
MetaMessage('set_tempo', tempo=348830, time=19)
MetaMessage('set_tempo', tempo=350870, time=26)
MetaMessage('set_tempo', tempo=352940, time=25)
MetaMessage('set_tempo', tempo=355020, time=26)
MetaMessage('set_tempo', tempo=357140, time=25)
MetaMessage('set_tempo', tempo=359280, time=26)
MetaMessage('set_tempo', tempo=361440, time=19)
MetaMessage('set_tempo', tempo=363630, time=26)
MetaMessage('set_tempo', tempo=365850, time=25)
MetaMessage('set_tempo', tempo=368090, time=26)
MetaMessage('set_tempo', tempo=370370, time=26)
MetaMessage('set_tempo', tempo=372670, time=25)
MetaMessage('set_tempo', tempo=375000, time=26)
MetaMessage('set_tempo', tempo=377350, time=19)
MetaMessage('set_tempo', tempo=379740, time=26)
MetaMessage('set_tempo', tempo=382160, time=25)
MetaMessage('set_tempo', tempo=384610, time=26)
MetaMessage('set_tempo', tempo=387090, time=25)
MetaMessage('set_tempo', tempo=389610, time=26)
MetaMessage('set_tempo', tempo=392150, time=26)
MetaMessage('set_tempo', tempo=394730, time=19)
MetaMessage('set_tempo', tempo=397350, time=25)
MetaMessage('set_tempo', tempo=400000, time=26)
MetaMessage('set_tempo', tempo=402680, time=26)
MetaMessage('set_tempo', tempo=405400, time=25)
MetaMessage('set_tempo', tempo=408160, time=26)
MetaMessage('set_tempo', tempo=410950, time=19)
MetaMessage('end_of_track', time=3450)
Track 1: SITAR
MetaMessage('track_name', name='SITAR', time=0)
program_change channel=0 program=104 time=384
control_change channel=0 control=7 value=115 time=0
pitchwheel channel=0 pitch=-2816 time=9984
note_on channel=0 note=72 velocity=126 time=0
pitchwheel channel=0 pitch=-2688 time=18
pitchwheel channel=0 pitch=-2560 time=20
pitchwheel channel=0 pitch=-2432 time=18
pitchwheel channel=0 pitch=-2304 time=20
pitchwheel channel=0 pitch=-2176 time=20
pitchwheel channel=0 pitch=-2048 time=18
pitchwheel channel=0 pitch=-1920 time=20
pitchwheel channel=0 pitch=-1792 time=18
pitchwheel channel=0 pitch=-1664 time=20
pitchwheel channel=0 pitch=-1536 time=20
pitchwheel channel=0 pitch=-1408 time=18
pitchwheel channel=0 pitch=-1280 time=20
pitchwheel channel=0 pitch=-1152 time=18
pitchwheel channel=0 pitch=-1024 time=20
pitchwheel channel=0 pitch=-896 time=20
pitchwheel channel=0 pitch=-768 time=18
pitchwheel channel=0 pitch=-640 time=20
pitchwheel channel=0 pitch=-512 time=18
pitchwheel channel=0 pitch=-384 time=20
pitchwheel channel=0 pitch=-256 time=20
pitchwheel channel=0 pitch=-128 time=18
pitchwheel channel=0 pitch=0 time=14
note_off channel=0 note=72 velocity=0 time=736
note_on channel=0 note=74 velocity=126 time=0
note_off channel=0 note=74 velocity=0 time=384
note_on channel=0 note=72 velocity=126 time=0
note_off channel=0 note=72 velocity=0 time=384
note_on channel=0 note=70 velocity=126 time=0
note_off channel=0 note=70 velocity=0 time=188
pitchwheel channel=0 pitch=-3200 time=196
note_on channel=0 note=69 velocity=126 time=0
pitchwheel channel=0 pitch=-3072 time=18
pitchwheel channel=0 pitch=-2944 time=14
pitchwheel channel=0 pitch=-2816 time=18
pitchwheel channel=0 pitch=-2688 time=14
pitchwheel channel=0 pitch=-2560 time=12
pitchwheel channel=0 pitch=-2432 time=20
pitchwheel channel=0 pitch=-2304 time=12
pitchwheel channel=0 pitch=-2176 time=12
pitchwheel channel=0 pitch=-2048 time=20
pitchwheel channel=0 pitch=-1920 time=12
pitchwheel channel=0 pitch=-1792 time=14
pitchwheel channel=0 pitch=-1664 time=18
pitchwheel channel=0 pitch=-1536 time=14
pitchwheel channel=0 pitch=-1408 time=18
pitchwheel channel=0 pitch=-1280 time=14
pitchwheel channel=0 pitch=-1152 time=12
pitchwheel channel=0 pitch=-1024 time=20
pitchwheel channel=0 pitch=-896 time=12
pitchwheel channel=0 pitch=-768 time=14
pitchwheel channel=0 pitch=-640 time=18
pitchwheel channel=0 pitch=-512 time=14
pitchwheel channel=0 pitch=-384 time=12
pitchwheel channel=0 pitch=-256 time=20
pitchwheel channel=0 pitch=-128 time=12
pitchwheel channel=0 pitch=0 time=12
note_off channel=0 note=69 velocity=0 time=776
note_on channel=0 note=67 velocity=126 time=0
note_off channel=0 note=67 velocity=0 time=384
note_on channel=0 note=70 velocity=126 time=0
note_off channel=0 note=70 velocity=0 time=384
note_on channel=0 note=69 velocity=126 time=0
note_off channel=0 note=69 velocity=0 time=188
note_on channel=0 note=65 velocity=126 time=196
pitchwheel channel=0 pitch=-2944 time=6
pitchwheel channel=0 pitch=-2816 time=18
pitchwheel channel=0 pitch=-2688 time=20
pitchwheel channel=0 pitch=-2560 time=12
pitchwheel channel=0 pitch=-2432 time=20
pitchwheel channel=0 pitch=-2304 time=20
pitchwheel channel=0 pitch=-2176 time=12
pitchwheel channel=0 pitch=-2048 time=20
pitchwheel channel=0 pitch=-1920 time=18
pitchwheel channel=0 pitch=-1792 time=14
pitchwheel channel=0 pitch=-1664 time=18
pitchwheel channel=0 pitch=-1536 time=14
pitchwheel channel=0 pitch=-1408 time=18
pitchwheel channel=0 pitch=-1280 time=20
pitchwheel channel=0 pitch=-1152 time=12
pitchwheel channel=0 pitch=-1024 time=20
pitchwheel channel=0 pitch=-896 time=18
pitchwheel channel=0 pitch=-768 time=14
pitchwheel channel=0 pitch=-640 time=18
pitchwheel channel=0 pitch=-512 time=20
pitchwheel channel=0 pitch=-384 time=12
pitchwheel channel=0 pitch=-256 time=20
pitchwheel channel=0 pitch=-128 time=12
pitchwheel channel=0 pitch=0 time=20
note_off channel=0 note=65 velocity=0 time=756
note_on channel=0 note=63 velocity=126 time=0
note_off channel=0 note=63 velocity=0 time=384
note_on channel=0 note=70 velocity=126 time=0
note_off channel=0 note=70 velocity=0 time=384
note_on channel=0 note=62 velocity=126 time=0
note_off channel=0 note=62 velocity=0 time=188
pitchwheel channel=0 pitch=-2688 time=196
note_on channel=0 note=60 velocity=127 time=0
pitchwheel channel=0 pitch=-2560 time=18
pitchwheel channel=0 pitch=-2432 time=20
pitchwheel channel=0 pitch=-2304 time=18
pitchwheel channel=0 pitch=-2176 time=20
pitchwheel channel=0 pitch=-2048 time=20
pitchwheel channel=0 pitch=-1920 time=18
pitchwheel channel=0 pitch=-1792 time=20
pitchwheel channel=0 pitch=-1664 time=18
pitchwheel channel=0 pitch=-1536 time=20
pitchwheel channel=0 pitch=-1408 time=20
pitchwheel channel=0 pitch=-1280 time=18
pitchwheel channel=0 pitch=-1152 time=20
pitchwheel channel=0 pitch=-1024 time=18
pitchwheel channel=0 pitch=-896 time=20
pitchwheel channel=0 pitch=-768 time=20
pitchwheel channel=0 pitch=-640 time=18
pitchwheel channel=0 pitch=-512 time=20
pitchwheel channel=0 pitch=-384 time=18
pitchwheel channel=0 pitch=-256 time=20
pitchwheel channel=0 pitch=-128 time=20
pitchwheel channel=0 pitch=0 time=18
note_off channel=0 note=60 velocity=0 time=1518
note_on channel=0 note=63 velocity=105 time=8438
note_off channel=0 note=63 velocity=0 time=394
note_on channel=0 note=70 velocity=126 time=0
note_off channel=0 note=70 velocity=0 time=384
note_on channel=0 note=62 velocity=126 time=0
note_off channel=0 note=62 velocity=0 time=188
pitchwheel channel=0 pitch=-3200 time=196
note_on channel=0 note=60 velocity=126 time=0
pitchwheel channel=0 pitch=-3072 time=18
pitchwheel channel=0 pitch=-2944 time=14
pitchwheel channel=0 pitch=-2816 time=18
pitchwheel channel=0 pitch=-2688 time=14
pitchwheel channel=0 pitch=-2560 time=12
pitchwheel channel=0 pitch=-2432 time=20
pitchwheel channel=0 pitch=-2304 time=12
pitchwheel channel=0 pitch=-2176 time=12
pitchwheel channel=0 pitch=-2048 time=20
pitchwheel channel=0 pitch=-1920 time=12
pitchwheel channel=0 pitch=-1792 time=14
pitchwheel channel=0 pitch=-1664 time=18
pitchwheel channel=0 pitch=-1536 time=14
pitchwheel channel=0 pitch=-1408 time=18
pitchwheel channel=0 pitch=-1280 time=14
pitchwheel channel=0 pitch=-1152 time=12
pitchwheel channel=0 pitch=-1024 time=20
pitchwheel channel=0 pitch=-896 time=12
pitchwheel channel=0 pitch=-768 time=14
pitchwheel channel=0 pitch=-640 time=18
pitchwheel channel=0 pitch=-512 time=14
pitchwheel channel=0 pitch=-384 time=12
pitchwheel channel=0 pitch=-256 time=20
pitchwheel channel=0 pitch=-128 time=12
pitchwheel channel=0 pitch=0 time=12
note_off channel=0 note=60 velocity=0 time=200
note_on channel=0 note=63 velocity=105 time=35126
note_off channel=0 note=63 velocity=0 time=394
note_on channel=0 note=70 velocity=126 time=0
note_off channel=0 note=70 velocity=0 time=384
note_on channel=0 note=62 velocity=126 time=0
note_off channel=0 note=62 velocity=0 time=188
pitchwheel channel=0 pitch=-3200 time=196
note_on channel=0 note=60 velocity=126 time=0
pitchwheel channel=0 pitch=-3072 time=18
pitchwheel channel=0 pitch=-2944 time=14
pitchwheel channel=0 pitch=-2816 time=18
pitchwheel channel=0 pitch=-2688 time=14
pitchwheel channel=0 pitch=-2560 time=12
pitchwheel channel=0 pitch=-2432 time=20
pitchwheel channel=0 pitch=-2304 time=12
pitchwheel channel=0 pitch=-2176 time=12
pitchwheel channel=0 pitch=-2048 time=20
pitchwheel channel=0 pitch=-1920 time=12
pitchwheel channel=0 pitch=-1792 time=14
pitchwheel channel=0 pitch=-1664 time=18
pitchwheel channel=0 pitch=-1536 time=14
pitchwheel channel=0 pitch=-1408 time=18
pitchwheel channel=0 pitch=-1280 time=14
pitchwheel channel=0 pitch=-1152 time=12
pitchwheel channel=0 pitch=-1024 time=20
pitchwheel channel=0 pitch=-896 time=12
pitchwheel channel=0 pitch=-768 time=14
pitchwheel channel=0 pitch=-640 time=18
pitchwheel channel=0 pitch=-512 time=14
pitchwheel channel=0 pitch=-384 time=12
pitchwheel channel=0 pitch=-256 time=20
pitchwheel channel=0 pitch=-128 time=12
pitchwheel channel=0 pitch=0 time=12
note_off channel=0 note=60 velocity=0 time=200
pitchwheel channel=0 pitch=-2816 time=8640
note_on channel=0 note=72 velocity=126 time=0
pitchwheel channel=0 pitch=-2688 time=18
pitchwheel channel=0 pitch=-2560 time=20
pitchwheel channel=0 pitch=-2432 time=18
pitchwheel channel=0 pitch=-2304 time=20
pitchwheel channel=0 pitch=-2176 time=20
pitchwheel channel=0 pitch=-2048 time=18
pitchwheel channel=0 pitch=-1920 time=20
pitchwheel channel=0 pitch=-1792 time=18
pitchwheel channel=0 pitch=-1664 time=20
pitchwheel channel=0 pitch=-1536 time=20
pitchwheel channel=0 pitch=-1408 time=18
pitchwheel channel=0 pitch=-1280 time=20
pitchwheel channel=0 pitch=-1152 time=18
pitchwheel channel=0 pitch=-1024 time=20
pitchwheel channel=0 pitch=-896 time=20
pitchwheel channel=0 pitch=-768 time=18
pitchwheel channel=0 pitch=-640 time=20
pitchwheel channel=0 pitch=-512 time=18
pitchwheel channel=0 pitch=-384 time=20
pitchwheel channel=0 pitch=-256 time=20
pitchwheel channel=0 pitch=-128 time=18
pitchwheel channel=0 pitch=0 time=14
note_off channel=0 note=72 velocity=0 time=736
note_on channel=0 note=74 velocity=126 time=0
note_off channel=0 note=74 velocity=0 time=384
note_on channel=0 note=72 velocity=126 time=0
note_off channel=0 note=72 velocity=0 time=384
note_on channel=0 note=70 velocity=126 time=0
note_off channel=0 note=70 velocity=0 time=188
pitchwheel channel=0 pitch=-3200 time=196
note_on channel=0 note=69 velocity=126 time=0
pitchwheel channel=0 pitch=-3072 time=18
pitchwheel channel=0 pitch=-2944 time=14
pitchwheel channel=0 pitch=-2816 time=18
pitchwheel channel=0 pitch=-2688 time=14
pitchwheel channel=0 pitch=-2560 time=12
pitchwheel channel=0 pitch=-2432 time=20
pitchwheel channel=0 pitch=-2304 time=12
pitchwheel channel=0 pitch=-2176 time=12
pitchwheel channel=0 pitch=-2048 time=20
pitchwheel channel=0 pitch=-1920 time=12
pitchwheel channel=0 pitch=-1792 time=14
pitchwheel channel=0 pitch=-1664 time=18
pitchwheel channel=0 pitch=-1536 time=14
pitchwheel channel=0 pitch=-1408 time=18
pitchwheel channel=0 pitch=-1280 time=14
pitchwheel channel=0 pitch=-1152 time=12
pitchwheel channel=0 pitch=-1024 time=20
pitchwheel channel=0 pitch=-896 time=12
pitchwheel channel=0 pitch=-768 time=14
pitchwheel channel=0 pitch=-640 time=18
pitchwheel channel=0 pitch=-512 time=14
pitchwheel channel=0 pitch=-384 time=12
pitchwheel channel=0 pitch=-256 time=20
pitchwheel channel=0 pitch=-128 time=12
pitchwheel channel=0 pitch=0 time=12
note_off channel=0 note=69 velocity=0 time=776
note_on channel=0 note=67 velocity=126 time=0
note_off channel=0 note=67 velocity=0 time=384
note_on channel=0 note=70 velocity=126 time=0
note_off channel=0 note=70 velocity=0 time=384
note_on channel=0 note=69 velocity=126 time=0
note_off channel=0 note=69 velocity=0 time=188
note_on channel=0 note=65 velocity=126 time=196
pitchwheel channel=0 pitch=-2944 time=6
pitchwheel channel=0 pitch=-2816 time=18
pitchwheel channel=0 pitch=-2688 time=20
pitchwheel channel=0 pitch=-2560 time=12
pitchwheel channel=0 pitch=-2432 time=20
pitchwheel channel=0 pitch=-2304 time=20
pitchwheel channel=0 pitch=-2176 time=12
pitchwheel channel=0 pitch=-2048 time=20
pitchwheel channel=0 pitch=-1920 time=18
pitchwheel channel=0 pitch=-1792 time=14
pitchwheel channel=0 pitch=-1664 time=18
pitchwheel channel=0 pitch=-1536 time=14
pitchwheel channel=0 pitch=-1408 time=18
pitchwheel channel=0 pitch=-1280 time=20
pitchwheel channel=0 pitch=-1152 time=12
pitchwheel channel=0 pitch=-1024 time=20
pitchwheel channel=0 pitch=-896 time=18
pitchwheel channel=0 pitch=-768 time=14
pitchwheel channel=0 pitch=-640 time=18
pitchwheel channel=0 pitch=-512 time=20
pitchwheel channel=0 pitch=-384 time=12
pitchwheel channel=0 pitch=-256 time=20
pitchwheel channel=0 pitch=-128 time=12
pitchwheel channel=0 pitch=0 time=20
note_off channel=0 note=65 velocity=0 time=756
note_on channel=0 note=63 velocity=126 time=0
note_off channel=0 note=63 velocity=0 time=384
note_on channel=0 note=70 velocity=126 time=0
note_off channel=0 note=70 velocity=0 time=384
note_on channel=0 note=62 velocity=126 time=0
note_off channel=0 note=62 velocity=0 time=188
pitchwheel channel=0 pitch=-2688 time=196
note_on channel=0 note=60 velocity=127 time=0
pitchwheel channel=0 pitch=-2560 time=18
pitchwheel channel=0 pitch=-2432 time=20
pitchwheel channel=0 pitch=-2304 time=18
pitchwheel channel=0 pitch=-2176 time=20
pitchwheel channel=0 pitch=-2048 time=20
pitchwheel channel=0 pitch=-1920 time=18
pitchwheel channel=0 pitch=-1792 time=20
pitchwheel channel=0 pitch=-1664 time=18
pitchwheel channel=0 pitch=-1536 time=20
pitchwheel channel=0 pitch=-1408 time=20
pitchwheel channel=0 pitch=-1280 time=18
pitchwheel channel=0 pitch=-1152 time=20
pitchwheel channel=0 pitch=-1024 time=18
pitchwheel channel=0 pitch=-896 time=20
pitchwheel channel=0 pitch=-768 time=20
pitchwheel channel=0 pitch=-640 time=18
pitchwheel channel=0 pitch=-512 time=20
pitchwheel channel=0 pitch=-384 time=18
pitchwheel channel=0 pitch=-256 time=20
pitchwheel channel=0 pitch=-128 time=20
pitchwheel channel=0 pitch=0 time=18
note_off channel=0 note=60 velocity=0 time=1518
pitchwheel channel=0 pitch=-2816 time=384
note_on channel=0 note=72 velocity=126 time=0
pitchwheel channel=0 pitch=-2688 time=18
pitchwheel channel=0 pitch=-2560 time=20
pitchwheel channel=0 pitch=-2432 time=18
pitchwheel channel=0 pitch=-2304 time=20
pitchwheel channel=0 pitch=-2176 time=20
pitchwheel channel=0 pitch=-2048 time=18
pitchwheel channel=0 pitch=-1920 time=20
pitchwheel channel=0 pitch=-1792 time=18
pitchwheel channel=0 pitch=-1664 time=20
pitchwheel channel=0 pitch=-1536 time=20
pitchwheel channel=0 pitch=-1408 time=18
pitchwheel channel=0 pitch=-1280 time=20
pitchwheel channel=0 pitch=-1152 time=18
pitchwheel channel=0 pitch=-1024 time=20
pitchwheel channel=0 pitch=-896 time=20
pitchwheel channel=0 pitch=-768 time=18
pitchwheel channel=0 pitch=-640 time=20
pitchwheel channel=0 pitch=-512 time=18
pitchwheel channel=0 pitch=-384 time=20
pitchwheel channel=0 pitch=-256 time=20
pitchwheel channel=0 pitch=-128 time=18
pitchwheel channel=0 pitch=0 time=14
note_off channel=0 note=72 velocity=0 time=736
note_on channel=0 note=74 velocity=126 time=0
note_off channel=0 note=74 velocity=0 time=384
note_on channel=0 note=72 velocity=126 time=0
note_off channel=0 note=72 velocity=0 time=384
note_on channel=0 note=70 velocity=126 time=0
note_off channel=0 note=70 velocity=0 time=188
pitchwheel channel=0 pitch=-3200 time=196
note_on channel=0 note=69 velocity=126 time=0
pitchwheel channel=0 pitch=-3072 time=18
pitchwheel channel=0 pitch=-2944 time=14
pitchwheel channel=0 pitch=-2816 time=18
pitchwheel channel=0 pitch=-2688 time=14
pitchwheel channel=0 pitch=-2560 time=12
pitchwheel channel=0 pitch=-2432 time=20
pitchwheel channel=0 pitch=-2304 time=12
pitchwheel channel=0 pitch=-2176 time=12
pitchwheel channel=0 pitch=-2048 time=20
pitchwheel channel=0 pitch=-1920 time=12
pitchwheel channel=0 pitch=-1792 time=14
pitchwheel channel=0 pitch=-1664 time=18
pitchwheel channel=0 pitch=-1536 time=14
pitchwheel channel=0 pitch=-1408 time=18
pitchwheel channel=0 pitch=-1280 time=14
pitchwheel channel=0 pitch=-1152 time=12
pitchwheel channel=0 pitch=-1024 time=20
pitchwheel channel=0 pitch=-896 time=12
pitchwheel channel=0 pitch=-768 time=14
pitchwheel channel=0 pitch=-640 time=18
pitchwheel channel=0 pitch=-512 time=14
pitchwheel channel=0 pitch=-384 time=12
pitchwheel channel=0 pitch=-256 time=20
pitchwheel channel=0 pitch=-128 time=12
pitchwheel channel=0 pitch=0 time=12
note_off channel=0 note=69 velocity=0 time=776
note_on channel=0 note=67 velocity=126 time=0
note_off channel=0 note=67 velocity=0 time=384
note_on channel=0 note=70 velocity=126 time=0
note_off channel=0 note=70 velocity=0 time=384
note_on channel=0 note=69 velocity=126 time=0
note_off channel=0 note=69 velocity=0 time=188
note_on channel=0 note=65 velocity=126 time=196
pitchwheel channel=0 pitch=-2944 time=6
pitchwheel channel=0 pitch=-2816 time=18
pitchwheel channel=0 pitch=-2688 time=20
pitchwheel channel=0 pitch=-2560 time=12
pitchwheel channel=0 pitch=-2432 time=20
pitchwheel channel=0 pitch=-2304 time=20
pitchwheel channel=0 pitch=-2176 time=12
pitchwheel channel=0 pitch=-2048 time=20
pitchwheel channel=0 pitch=-1920 time=18
pitchwheel channel=0 pitch=-1792 time=14
pitchwheel channel=0 pitch=-1664 time=18
pitchwheel channel=0 pitch=-1536 time=14
pitchwheel channel=0 pitch=-1408 time=18
pitchwheel channel=0 pitch=-1280 time=20
pitchwheel channel=0 pitch=-1152 time=12
pitchwheel channel=0 pitch=-1024 time=20
pitchwheel channel=0 pitch=-896 time=18
pitchwheel channel=0 pitch=-768 time=14
pitchwheel channel=0 pitch=-640 time=18
pitchwheel channel=0 pitch=-512 time=20
pitchwheel channel=0 pitch=-384 time=12
pitchwheel channel=0 pitch=-256 time=20
pitchwheel channel=0 pitch=-128 time=12
pitchwheel channel=0 pitch=0 time=20
note_off channel=0 note=65 velocity=0 time=756
note_on channel=0 note=63 velocity=126 time=0
note_off channel=0 note=63 velocity=0 time=384
note_on channel=0 note=70 velocity=126 time=0
note_off channel=0 note=70 velocity=0 time=384
note_on channel=0 note=62 velocity=126 time=0
note_off channel=0 note=62 velocity=0 time=188
pitchwheel channel=0 pitch=-2688 time=196
note_on channel=0 note=60 velocity=127 time=0
pitchwheel channel=0 pitch=-2560 time=18
pitchwheel channel=0 pitch=-2432 time=20
pitchwheel channel=0 pitch=-2304 time=18
pitchwheel channel=0 pitch=-2176 time=20
pitchwheel channel=0 pitch=-2048 time=20
pitchwheel channel=0 pitch=-1920 time=18
pitchwheel channel=0 pitch=-1792 time=20
pitchwheel channel=0 pitch=-1664 time=18
pitchwheel channel=0 pitch=-1536 time=20
pitchwheel channel=0 pitch=-1408 time=20
pitchwheel channel=0 pitch=-1280 time=18
pitchwheel channel=0 pitch=-1152 time=20
pitchwheel channel=0 pitch=-1024 time=18
pitchwheel channel=0 pitch=-896 time=20
pitchwheel channel=0 pitch=-768 time=20
pitchwheel channel=0 pitch=-640 time=18
pitchwheel channel=0 pitch=-512 time=20
pitchwheel channel=0 pitch=-384 time=18
pitchwheel channel=0 pitch=-256 time=20
pitchwheel channel=0 pitch=-128 time=20
pitchwheel channel=0 pitch=0 time=18
note_off channel=0 note=60 velocity=0 time=1518
note_on channel=0 note=63 velocity=105 time=26870
note_off channel=0 note=63 velocity=0 time=394
note_on channel=0 note=70 velocity=126 time=0
note_off channel=0 note=70 velocity=0 time=384
note_on channel=0 note=62 velocity=126 time=0
note_off channel=0 note=62 velocity=0 time=188
pitchwheel channel=0 pitch=-3200 time=196
note_on channel=0 note=60 velocity=126 time=0
pitchwheel channel=0 pitch=-3072 time=18
pitchwheel channel=0 pitch=-2944 time=14
pitchwheel channel=0 pitch=-2816 time=18
pitchwheel channel=0 pitch=-2688 time=14
pitchwheel channel=0 pitch=-2560 time=12
pitchwheel channel=0 pitch=-2432 time=20
pitchwheel channel=0 pitch=-2304 time=12
pitchwheel channel=0 pitch=-2176 time=12
pitchwheel channel=0 pitch=-2048 time=20
pitchwheel channel=0 pitch=-1920 time=12
pitchwheel channel=0 pitch=-1792 time=14
pitchwheel channel=0 pitch=-1664 time=18
pitchwheel channel=0 pitch=-1536 time=14
pitchwheel channel=0 pitch=-1408 time=18
pitchwheel channel=0 pitch=-1280 time=14
pitchwheel channel=0 pitch=-1152 time=12
pitchwheel channel=0 pitch=-1024 time=20
pitchwheel channel=0 pitch=-896 time=12
pitchwheel channel=0 pitch=-768 time=14
pitchwheel channel=0 pitch=-640 time=18
pitchwheel channel=0 pitch=-512 time=14
pitchwheel channel=0 pitch=-384 time=12
pitchwheel channel=0 pitch=-256 time=20
pitchwheel channel=0 pitch=-128 time=12
pitchwheel channel=0 pitch=0 time=12
note_off channel=0 note=60 velocity=0 time=200
pitchwheel channel=0 pitch=-2816 time=8640
note_on channel=0 note=72 velocity=126 time=0
pitchwheel channel=0 pitch=-2688 time=18
pitchwheel channel=0 pitch=-2560 time=20
pitchwheel channel=0 pitch=-2432 time=18
pitchwheel channel=0 pitch=-2304 time=20
pitchwheel channel=0 pitch=-2176 time=20
pitchwheel channel=0 pitch=-2048 time=18
pitchwheel channel=0 pitch=-1920 time=20
pitchwheel channel=0 pitch=-1792 time=18
pitchwheel channel=0 pitch=-1664 time=20
pitchwheel channel=0 pitch=-1536 time=20
pitchwheel channel=0 pitch=-1408 time=18
pitchwheel channel=0 pitch=-1280 time=20
pitchwheel channel=0 pitch=-1152 time=18
pitchwheel channel=0 pitch=-1024 time=20
pitchwheel channel=0 pitch=-896 time=20
pitchwheel channel=0 pitch=-768 time=18
pitchwheel channel=0 pitch=-640 time=20
pitchwheel channel=0 pitch=-512 time=18
pitchwheel channel=0 pitch=-384 time=20
pitchwheel channel=0 pitch=-256 time=20
pitchwheel channel=0 pitch=-128 time=18
pitchwheel channel=0 pitch=0 time=14
note_off channel=0 note=72 velocity=0 time=736
note_on channel=0 note=74 velocity=126 time=0
note_off channel=0 note=74 velocity=0 time=384
note_on channel=0 note=72 velocity=126 time=0
note_off channel=0 note=72 velocity=0 time=384
note_on channel=0 note=70 velocity=126 time=0
note_off channel=0 note=70 velocity=0 time=188
pitchwheel channel=0 pitch=-3200 time=196
note_on channel=0 note=69 velocity=126 time=0
pitchwheel channel=0 pitch=-3072 time=18
pitchwheel channel=0 pitch=-2944 time=14
pitchwheel channel=0 pitch=-2816 time=18
pitchwheel channel=0 pitch=-2688 time=14
pitchwheel channel=0 pitch=-2560 time=12
pitchwheel channel=0 pitch=-2432 time=20
pitchwheel channel=0 pitch=-2304 time=12
pitchwheel channel=0 pitch=-2176 time=12
pitchwheel channel=0 pitch=-2048 time=20
pitchwheel channel=0 pitch=-1920 time=12
pitchwheel channel=0 pitch=-1792 time=14
pitchwheel channel=0 pitch=-1664 time=18
pitchwheel channel=0 pitch=-1536 time=14
pitchwheel channel=0 pitch=-1408 time=18
pitchwheel channel=0 pitch=-1280 time=14
pitchwheel channel=0 pitch=-1152 time=12
pitchwheel channel=0 pitch=-1024 time=20
pitchwheel channel=0 pitch=-896 time=12
pitchwheel channel=0 pitch=-768 time=14
pitchwheel channel=0 pitch=-640 time=18
pitchwheel channel=0 pitch=-512 time=14
pitchwheel channel=0 pitch=-384 time=12
pitchwheel channel=0 pitch=-256 time=20
pitchwheel channel=0 pitch=-128 time=12
pitchwheel channel=0 pitch=0 time=12
note_off channel=0 note=69 velocity=0 time=776
note_on channel=0 note=67 velocity=126 time=0
note_off channel=0 note=67 velocity=0 time=384
note_on channel=0 note=70 velocity=126 time=0
note_off channel=0 note=70 velocity=0 time=384
note_on channel=0 note=69 velocity=126 time=0
note_off channel=0 note=69 velocity=0 time=188
note_on channel=0 note=65 velocity=126 time=196
pitchwheel channel=0 pitch=-2944 time=6
pitchwheel channel=0 pitch=-2816 time=18
pitchwheel channel=0 pitch=-2688 time=20
pitchwheel channel=0 pitch=-2560 time=12
pitchwheel channel=0 pitch=-2432 time=20
pitchwheel channel=0 pitch=-2304 time=20
pitchwheel channel=0 pitch=-2176 time=12
pitchwheel channel=0 pitch=-2048 time=20
pitchwheel channel=0 pitch=-1920 time=18
pitchwheel channel=0 pitch=-1792 time=14
pitchwheel channel=0 pitch=-1664 time=18
pitchwheel channel=0 pitch=-1536 time=14
pitchwheel channel=0 pitch=-1408 time=18
pitchwheel channel=0 pitch=-1280 time=20
pitchwheel channel=0 pitch=-1152 time=12
pitchwheel channel=0 pitch=-1024 time=20
pitchwheel channel=0 pitch=-896 time=18
pitchwheel channel=0 pitch=-768 time=14
pitchwheel channel=0 pitch=-640 time=18
pitchwheel channel=0 pitch=-512 time=20
pitchwheel channel=0 pitch=-384 time=12
pitchwheel channel=0 pitch=-256 time=20
pitchwheel channel=0 pitch=-128 time=12
pitchwheel channel=0 pitch=0 time=20
note_off channel=0 note=65 velocity=0 time=756
note_on channel=0 note=63 velocity=126 time=0
note_off channel=0 note=63 velocity=0 time=384
note_on channel=0 note=70 velocity=126 time=0
note_off channel=0 note=70 velocity=0 time=384
note_on channel=0 note=62 velocity=126 time=0
note_off channel=0 note=62 velocity=0 time=188
pitchwheel channel=0 pitch=-2688 time=196
note_on channel=0 note=60 velocity=127 time=0
pitchwheel channel=0 pitch=-2560 time=18
pitchwheel channel=0 pitch=-2432 time=20
pitchwheel channel=0 pitch=-2304 time=18
pitchwheel channel=0 pitch=-2176 time=20
pitchwheel channel=0 pitch=-2048 time=20
pitchwheel channel=0 pitch=-1920 time=18
pitchwheel channel=0 pitch=-1792 time=20
pitchwheel channel=0 pitch=-1664 time=18
pitchwheel channel=0 pitch=-1536 time=20
pitchwheel channel=0 pitch=-1408 time=20
pitchwheel channel=0 pitch=-1280 time=18
pitchwheel channel=0 pitch=-1152 time=20
pitchwheel channel=0 pitch=-1024 time=18
pitchwheel channel=0 pitch=-896 time=20
pitchwheel channel=0 pitch=-768 time=20
pitchwheel channel=0 pitch=-640 time=18
pitchwheel channel=0 pitch=-512 time=20
pitchwheel channel=0 pitch=-384 time=18
pitchwheel channel=0 pitch=-256 time=20
pitchwheel channel=0 pitch=-128 time=20
pitchwheel channel=0 pitch=0 time=18
note_off channel=0 note=60 velocity=0 time=1898
MetaMessage('end_of_track', time=1156)
Track 2: STEEL GTR
MetaMessage('track_name', name='STEEL GTR', time=0)
program_change channel=1 program=25 time=384
control_change channel=1 control=7 value=65 time=0
note_on channel=1 note=41 velocity=126 time=768
note_on channel=1 note=65 velocity=126 time=384
note_on channel=1 note=60 velocity=126 time=0
note_on channel=1 note=57 velocity=126 time=0
note_off channel=1 note=57 velocity=0 time=188
note_off channel=1 note=60 velocity=0 time=0
note_off channel=1 note=65 velocity=0 time=0
note_on channel=1 note=60 velocity=126 time=4
note_on channel=1 note=65 velocity=126 time=0
note_on channel=1 note=57 velocity=126 time=0
note_off channel=1 note=60 velocity=0 time=188
note_on channel=1 note=60 velocity=126 time=4
note_off channel=1 note=60 velocity=0 time=384
note_off channel=1 note=57 velocity=0 time=0
note_off channel=1 note=65 velocity=0 time=0
note_off channel=1 note=41 velocity=0 time=0
note_on channel=1 note=48 velocity=126 time=0
note_on channel=1 note=65 velocity=126 time=384
note_on channel=1 note=60 velocity=126 time=0
note_on channel=1 note=57 velocity=126 time=0
note_off channel=1 note=57 velocity=0 time=380
note_off channel=1 note=60 velocity=0 time=0
note_off channel=1 note=65 velocity=0 time=0
note_on channel=1 note=60 velocity=126 time=4
note_on channel=1 note=57 velocity=126 time=0
note_on channel=1 note=65 velocity=126 time=0
note_off channel=1 note=65 velocity=0 time=384
note_off channel=1 note=57 velocity=0 time=0
note_off channel=1 note=60 velocity=0 time=0
note_off channel=1 note=48 velocity=0 time=0
note_on channel=1 note=41 velocity=126 time=0
note_on channel=1 note=65 velocity=126 time=384
note_on channel=1 note=60 velocity=126 time=0
note_on channel=1 note=57 velocity=126 time=0
note_off channel=1 note=57 velocity=0 time=188
note_off channel=1 note=60 velocity=0 time=0
note_off channel=1 note=65 velocity=0 time=0
note_on channel=1 note=60 velocity=126 time=4
note_on channel=1 note=65 velocity=126 time=0
note_on channel=1 note=57 velocity=126 time=0
note_off channel=1 note=60 velocity=0 time=188
note_on channel=1 note=60 velocity=126 time=4
note_off channel=1 note=60 velocity=0 time=384
note_off channel=1 note=57 velocity=0 time=0
note_off channel=1 note=65 velocity=0 time=0
note_off channel=1 note=41 velocity=0 time=0
note_on channel=1 note=48 velocity=126 time=0
note_on channel=1 note=65 velocity=126 time=384
note_on channel=1 note=60 velocity=126 time=0
note_on channel=1 note=57 velocity=126 time=0
note_off channel=1 note=57 velocity=0 time=380
note_off channel=1 note=60 velocity=0 time=0
note_off channel=1 note=65 velocity=0 time=0
note_on channel=1 note=60 velocity=126 time=4
note_on channel=1 note=57 velocity=126 time=0
note_on channel=1 note=65 velocity=126 time=0
note_off channel=1 note=65 velocity=0 time=384
note_off channel=1 note=57 velocity=0 time=0
note_off channel=1 note=60 velocity=0 time=0
note_off channel=1 note=48 velocity=0 time=0
note_on channel=1 note=41 velocity=126 time=0
note_on channel=1 note=65 velocity=126 time=384
note_on channel=1 note=60 velocity=126 time=0
note_on channel=1 note=57 velocity=126 time=0
note_off channel=1 note=57 velocity=0 time=188
note_off channel=1 note=60 velocity=0 time=0
note_off channel=1 note=65 velocity=0 time=0
note_on channel=1 note=60 velocity=126 time=4
note_on channel=1 note=65 velocity=126 time=0
note_on channel=1 note=57 velocity=126 time=0
note_off channel=1 note=60 velocity=0 time=188
note_on channel=1 note=60 velocity=126 time=4
note_off channel=1 note=60 velocity=0 time=384
note_off channel=1 note=57 velocity=0 time=0
note_off channel=1 note=65 velocity=0 time=0
note_off channel=1 note=41 velocity=0 time=0
note_on channel=1 note=48 velocity=126 time=0
note_on channel=1 note=65 velocity=126 time=384
note_on channel=1 note=60 velocity=126 time=0
note_on channel=1 note=57 velocity=126 time=0
note_off channel=1 note=57 velocity=0 time=380
note_off channel=1 note=60 velocity=0 time=0
note_off channel=1 note=65 velocity=0 time=0
note_on channel=1 note=60 velocity=126 time=4
note_on channel=1 note=57 velocity=126 time=0
note_on channel=1 note=65 velocity=126 time=0
note_off channel=1 note=65 velocity=0 time=384
note_off channel=1 note=57 velocity=0 time=0
note_off channel=1 note=60 velocity=0 time=0
note_off channel=1 note=48 velocity=0 time=0
note_on channel=1 note=41 velocity=126 time=0
note_on channel=1 note=65 velocity=126 time=384
note_on channel=1 note=60 velocity=126 time=0
note_on channel=1 note=57 velocity=126 time=0
note_off channel=1 note=57 velocity=0 time=188
note_off channel=1 note=60 velocity=0 time=0
note_off channel=1 note=65 velocity=0 time=0
note_on channel=1 note=60 velocity=126 time=4
note_on channel=1 note=65 velocity=126 time=0
note_on channel=1 note=57 velocity=126 time=0
note_off channel=1 note=60 velocity=0 time=188
note_on channel=1 note=60 velocity=126 time=4
note_off channel=1 note=60 velocity=0 time=384
note_off channel=1 note=57 velocity=0 time=0
note_off channel=1 note=65 velocity=0 time=0
note_off channel=1 note=41 velocity=0 time=0
note_on channel=1 note=48 velocity=126 time=0
note_on channel=1 note=65 velocity=126 time=384
note_on channel=1 note=60 velocity=126 time=0
note_on channel=1 note=57 velocity=126 time=0
note_off channel=1 note=57 velocity=0 time=380
note_off channel=1 note=60 velocity=0 time=0
note_off channel=1 note=65 velocity=0 time=0
note_on channel=1 note=60 velocity=126 time=4
note_on channel=1 note=57 velocity=126 time=0
note_on channel=1 note=65 velocity=126 time=0
note_off channel=1 note=65 velocity=0 time=384
note_off channel=1 note=57 velocity=0 time=0
note_off channel=1 note=60 velocity=0 time=0
note_off channel=1 note=48 velocity=0 time=0
note_on channel=1 note=41 velocity=126 time=0
note_on channel=1 note=65 velocity=126 time=384
note_on channel=1 note=60 velocity=126 time=0
note_on channel=1 note=57 velocity=126 time=0
note_off channel=1 note=57 velocity=0 time=188
note_off channel=1 note=60 velocity=0 time=0
note_off channel=1 note=65 velocity=0 time=0
note_on channel=1 note=60 velocity=126 time=4
note_on channel=1 note=65 velocity=126 time=0
note_on channel=1 note=57 velocity=126 time=0
note_off channel=1 note=60 velocity=0 time=188
note_on channel=1 note=60 velocity=126 time=4
note_off channel=1 note=60 velocity=0 time=384
note_off channel=1 note=57 velocity=0 time=0
note_off channel=1 note=65 velocity=0 time=0
note_off channel=1 note=41 velocity=0 time=0
note_on channel=1 note=48 velocity=126 time=0
note_on channel=1 note=65 velocity=126 time=384
note_on channel=1 note=60 velocity=126 time=0
note_on channel=1 note=57 velocity=126 time=0
note_off channel=1 note=57 velocity=0 time=380
note_off channel=1 note=60 velocity=0 time=0
note_off channel=1 note=65 velocity=0 time=0
note_on channel=1 note=60 velocity=126 time=4
note_on channel=1 note=57 velocity=126 time=0
note_on channel=1 note=65 velocity=126 time=0
note_off channel=1 note=65 velocity=0 time=384
note_off channel=1 note=57 velocity=0 time=0
note_off channel=1 note=60 velocity=0 time=0
note_off channel=1 note=48 velocity=0 time=0
note_on channel=1 note=41 velocity=126 time=0
note_on channel=1 note=65 velocity=126 time=384
note_on channel=1 note=60 velocity=126 time=0
note_on channel=1 note=57 velocity=126 time=0
note_off channel=1 note=57 velocity=0 time=188
note_off channel=1 note=60 velocity=0 time=0
note_off channel=1 note=65 velocity=0 time=0
note_on channel=1 note=60 velocity=126 time=4
note_on channel=1 note=65 velocity=126 time=0
note_on channel=1 note=57 velocity=126 time=0
note_off channel=1 note=60 velocity=0 time=188
note_on channel=1 note=60 velocity=126 time=4
note_off channel=1 note=60 velocity=0 time=384
note_off channel=1 note=57 velocity=0 time=0
note_off channel=1 note=65 velocity=0 time=0
note_off channel=1 note=41 velocity=0 time=0
note_on channel=1 note=48 velocity=126 time=0
note_on channel=1 note=65 velocity=126 time=384
note_on channel=1 note=60 velocity=126 time=0
note_on channel=1 note=57 velocity=126 time=0
note_off channel=1 note=57 velocity=0 time=380
note_off channel=1 note=60 velocity=0 time=0
note_off channel=1 note=65 velocity=0 time=0
note_on channel=1 note=60 velocity=126 time=4
note_on channel=1 note=57 velocity=126 time=0
note_on channel=1 note=65 velocity=126 time=0
note_off channel=1 note=65 velocity=0 time=384
note_off channel=1 note=57 velocity=0 time=0
note_off channel=1 note=60 velocity=0 time=0
note_off channel=1 note=48 velocity=0 time=0
note_on channel=1 note=41 velocity=126 time=0
note_on channel=1 note=65 velocity=126 time=384
note_on channel=1 note=60 velocity=126 time=0
note_on channel=1 note=57 velocity=126 time=0
note_off channel=1 note=57 velocity=0 time=188
note_off channel=1 note=60 velocity=0 time=0
note_off channel=1 note=65 velocity=0 time=0
note_on channel=1 note=60 velocity=126 time=4
note_on channel=1 note=65 velocity=126 time=0
note_on channel=1 note=57 velocity=126 time=0
note_off channel=1 note=60 velocity=0 time=188
note_on channel=1 note=60 velocity=126 time=4
note_off channel=1 note=60 velocity=0 time=384
note_off channel=1 note=57 velocity=0 time=0
note_off channel=1 note=65 velocity=0 time=0
note_off channel=1 note=41 velocity=0 time=0
note_on channel=1 note=48 velocity=126 time=0
note_on channel=1 note=65 velocity=126 time=384
note_on channel=1 note=60 velocity=126 time=0
note_on channel=1 note=57 velocity=126 time=0
note_off channel=1 note=57 velocity=0 time=380
note_off channel=1 note=60 velocity=0 time=0
note_off channel=1 note=65 velocity=0 time=0
note_on channel=1 note=60 velocity=126 time=4
note_on channel=1 note=57 velocity=126 time=0
note_on channel=1 note=65 velocity=126 time=0
note_off channel=1 note=65 velocity=0 time=384
note_off channel=1 note=57 velocity=0 time=0
note_off channel=1 note=60 velocity=0 time=0
note_off channel=1 note=48 velocity=0 time=0
note_on channel=1 note=41 velocity=126 time=0
note_on channel=1 note=65 velocity=126 time=384
note_on channel=1 note=60 velocity=126 time=0
note_on channel=1 note=57 velocity=126 time=0
note_off channel=1 note=57 velocity=0 time=188
note_off channel=1 note=60 velocity=0 time=0
note_off channel=1 note=65 velocity=0 time=0
note_on channel=1 note=60 velocity=126 time=4
note_on channel=1 note=65 velocity=126 time=0
note_on channel=1 note=57 velocity=126 time=0
note_off channel=1 note=60 velocity=0 time=188
note_on channel=1 note=60 velocity=126 time=4
note_off channel=1 note=60 velocity=0 time=384
note_off channel=1 note=57 velocity=0 time=0
note_off channel=1 note=65 velocity=0 time=0
note_off channel=1 note=41 velocity=0 time=0
note_on channel=1 note=48 velocity=126 time=0
note_on channel=1 note=65 velocity=126 time=384
note_on channel=1 note=60 velocity=126 time=0
note_on channel=1 note=57 velocity=126 time=0
note_off channel=1 note=57 velocity=0 time=380
note_off channel=1 note=60 velocity=0 time=0
note_off channel=1 note=65 velocity=0 time=0
note_on channel=1 note=60 velocity=126 time=4
note_on channel=1 note=57 velocity=126 time=0
note_on channel=1 note=65 velocity=126 time=0
note_off channel=1 note=65 velocity=0 time=384
note_off channel=1 note=57 velocity=0 time=0
note_off channel=1 note=60 velocity=0 time=0
note_off channel=1 note=48 velocity=0 time=0
note_on channel=1 note=41 velocity=126 time=0
note_on channel=1 note=65 velocity=126 time=384
note_on channel=1 note=60 velocity=126 time=0
note_on channel=1 note=57 velocity=126 time=0
note_off channel=1 note=57 velocity=0 time=188
note_off channel=1 note=60 velocity=0 time=0
note_off channel=1 note=65 velocity=0 time=0
note_on channel=1 note=60 velocity=126 time=4
note_on channel=1 note=65 velocity=126 time=0
note_on channel=1 note=57 velocity=126 time=0
note_off channel=1 note=60 velocity=0 time=188
note_on channel=1 note=60 velocity=126 time=4
note_off channel=1 note=60 velocity=0 time=384
note_off channel=1 note=57 velocity=0 time=0
note_off channel=1 note=65 velocity=0 time=0
note_off channel=1 note=41 velocity=0 time=0
note_on channel=1 note=48 velocity=126 time=0
note_on channel=1 note=65 velocity=126 time=384
note_on channel=1 note=60 velocity=126 time=0
note_on channel=1 note=57 velocity=126 time=0
note_off channel=1 note=57 velocity=0 time=380
note_off channel=1 note=60 velocity=0 time=0
note_off channel=1 note=65 velocity=0 time=0
note_on channel=1 note=60 velocity=126 time=4
note_on channel=1 note=57 velocity=126 time=0
note_on channel=1 note=65 velocity=126 time=0
note_off channel=1 note=65 velocity=0 time=384
note_off channel=1 note=57 velocity=0 time=0
note_off channel=1 note=60 velocity=0 time=0
note_off channel=1 note=48 velocity=0 time=0
note_on channel=1 note=41 velocity=126 time=0
note_on channel=1 note=65 velocity=126 time=384
note_on channel=1 note=60 velocity=126 time=0
note_on channel=1 note=57 velocity=126 time=0
note_off channel=1 note=57 velocity=0 time=188
note_off channel=1 note=60 velocity=0 time=0
note_off channel=1 note=65 velocity=0 time=0
note_on channel=1 note=60 velocity=126 time=4
note_on channel=1 note=65 velocity=126 time=0
note_on channel=1 note=57 velocity=126 time=0
note_off channel=1 note=60 velocity=0 time=188
note_on channel=1 note=60 velocity=126 time=4
note_off channel=1 note=60 velocity=0 time=384
note_off channel=1 note=57 velocity=0 time=0
note_off channel=1 note=65 velocity=0 time=0
note_off channel=1 note=41 velocity=0 time=0
note_on channel=1 note=48 velocity=126 time=0
note_on channel=1 note=65 velocity=126 time=384
note_on channel=1 note=60 velocity=126 time=0
note_on channel=1 note=57 velocity=126 time=0
note_off channel=1 note=57 velocity=0 time=380
note_off channel=1 note=60 velocity=0 time=0
note_off channel=1 note=65 velocity=0 time=0
note_on channel=1 note=60 velocity=126 time=4
note_on channel=1 note=57 velocity=126 time=0
note_on channel=1 note=65 velocity=126 time=0
note_off channel=1 note=65 velocity=0 time=384
note_off channel=1 note=57 velocity=0 time=0
note_off channel=1 note=60 velocity=0 time=0
note_off channel=1 note=48 velocity=0 time=0
note_on channel=1 note=41 velocity=126 time=0
note_on channel=1 note=65 velocity=126 time=384
note_on channel=1 note=60 velocity=126 time=0
note_on channel=1 note=57 velocity=126 time=0
note_off channel=1 note=57 velocity=0 time=188
note_off channel=1 note=60 velocity=0 time=0
note_off channel=1 note=65 velocity=0 time=0
note_on channel=1 note=60 velocity=126 time=4
note_on channel=1 note=65 velocity=126 time=0
note_on channel=1 note=57 velocity=126 time=0
note_off channel=1 note=60 velocity=0 time=188
note_on channel=1 note=60 velocity=126 time=4
note_off channel=1 note=60 velocity=0 time=384
note_off channel=1 note=57 velocity=0 time=0
note_off channel=1 note=65 velocity=0 time=0
note_off channel=1 note=41 velocity=0 time=0
note_on channel=1 note=48 velocity=126 time=0
note_on channel=1 note=65 velocity=126 time=384
note_on channel=1 note=60 velocity=126 time=0
note_on channel=1 note=57 velocity=126 time=0
note_off channel=1 note=57 velocity=0 time=380
note_off channel=1 note=60 velocity=0 time=0
note_off channel=1 note=65 velocity=0 time=0
note_on channel=1 note=60 velocity=126 time=4
note_on channel=1 note=57 velocity=126 time=0
note_on channel=1 note=65 velocity=126 time=0
note_off channel=1 note=65 velocity=0 time=384
note_off channel=1 note=57 velocity=0 time=0
note_off channel=1 note=60 velocity=0 time=0
note_off channel=1 note=48 velocity=0 time=0
note_on channel=1 note=41 velocity=126 time=0
note_on channel=1 note=65 velocity=126 time=384
note_on channel=1 note=60 velocity=126 time=0
note_on channel=1 note=57 velocity=126 time=0
note_off channel=1 note=57 velocity=0 time=188
note_off channel=1 note=60 velocity=0 time=0
note_off channel=1 note=65 velocity=0 time=0
note_on channel=1 note=60 velocity=126 time=4
note_on channel=1 note=65 velocity=126 time=0
note_on channel=1 note=57 velocity=126 time=0
note_off channel=1 note=60 velocity=0 time=188
note_on channel=1 note=60 velocity=126 time=4
note_off channel=1 note=60 velocity=0 time=384
note_off channel=1 note=57 velocity=0 time=0
note_off channel=1 note=65 velocity=0 time=0
note_off channel=1 note=41 velocity=0 time=0
note_on channel=1 note=48 velocity=126 time=0
note_on channel=1 note=65 velocity=126 time=384
note_on channel=1 note=60 velocity=126 time=0
note_on channel=1 note=57 velocity=126 time=0
note_off channel=1 note=57 velocity=0 time=380
note_off channel=1 note=60 velocity=0 time=0
note_off channel=1 note=65 velocity=0 time=0
note_on channel=1 note=60 velocity=126 time=4
note_on channel=1 note=57 velocity=126 time=0
note_on channel=1 note=65 velocity=126 time=0
note_off channel=1 note=65 velocity=0 time=384
note_off channel=1 note=57 velocity=0 time=0
note_off channel=1 note=60 velocity=0 time=0
note_off channel=1 note=48 velocity=0 time=0
note_on channel=1 note=41 velocity=126 time=0
note_on channel=1 note=65 velocity=126 time=384
note_on channel=1 note=60 velocity=126 time=0
note_on channel=1 note=57 velocity=126 time=0
note_off channel=1 note=57 velocity=0 time=188
note_off channel=1 note=60 velocity=0 time=0
note_off channel=1 note=65 velocity=0 time=0
note_on channel=1 note=60 velocity=126 time=4
note_on channel=1 note=65 velocity=126 time=0
note_on channel=1 note=57 velocity=126 time=0
note_off channel=1 note=60 velocity=0 time=188
note_on channel=1 note=60 velocity=126 time=4
note_off channel=1 note=60 velocity=0 time=384
note_off channel=1 note=57 velocity=0 time=0
note_off channel=1 note=65 velocity=0 time=0
note_off channel=1 note=41 velocity=0 time=0
note_on channel=1 note=48 velocity=126 time=0
note_on channel=1 note=65 velocity=126 time=384
note_on channel=1 note=60 velocity=126 time=0
note_on channel=1 note=57 velocity=126 time=0
note_off channel=1 note=57 velocity=0 time=380
note_off channel=1 note=60 velocity=0 time=0
note_off channel=1 note=65 velocity=0 time=0
note_on channel=1 note=60 velocity=126 time=4
note_on channel=1 note=57 velocity=126 time=0
note_on channel=1 note=65 velocity=126 time=0
note_off channel=1 note=65 velocity=0 time=384
note_off channel=1 note=57 velocity=0 time=0
note_off channel=1 note=60 velocity=0 time=0
note_off channel=1 note=48 velocity=0 time=0
note_on channel=1 note=41 velocity=126 time=0
note_on channel=1 note=65 velocity=126 time=384
note_on channel=1 note=60 velocity=126 time=0
note_on channel=1 note=57 velocity=126 time=0
note_off channel=1 note=57 velocity=0 time=188
note_off channel=1 note=60 velocity=0 time=0
note_off channel=1 note=65 velocity=0 time=0
note_on channel=1 note=60 velocity=126 time=4
note_on channel=1 note=65 velocity=126 time=0
note_on channel=1 note=57 velocity=126 time=0
note_off channel=1 note=60 velocity=0 time=188
note_on channel=1 note=60 velocity=126 time=4
note_off channel=1 note=60 velocity=0 time=384
note_off channel=1 note=57 velocity=0 time=0
note_off channel=1 note=65 velocity=0 time=0
note_off channel=1 note=41 velocity=0 time=0
note_on channel=1 note=48 velocity=126 time=0
note_on channel=1 note=65 velocity=126 time=384
note_on channel=1 note=60 velocity=126 time=0
note_on channel=1 note=57 velocity=126 time=0
note_off channel=1 note=57 velocity=0 time=380
note_off channel=1 note=60 velocity=0 time=0
note_off channel=1 note=65 velocity=0 time=0
note_on channel=1 note=60 velocity=126 time=4
note_on channel=1 note=57 velocity=126 time=0
note_on channel=1 note=65 velocity=126 time=0
note_off channel=1 note=65 velocity=0 time=384
note_off channel=1 note=57 velocity=0 time=0
note_off channel=1 note=60 velocity=0 time=0
note_off channel=1 note=48 velocity=0 time=0
note_on channel=1 note=41 velocity=126 time=0
note_on channel=1 note=65 velocity=126 time=384
note_on channel=1 note=60 velocity=126 time=0
note_on channel=1 note=57 velocity=126 time=0
note_off channel=1 note=57 velocity=0 time=188
note_off channel=1 note=60 velocity=0 time=0
note_off channel=1 note=65 velocity=0 time=0
note_on channel=1 note=60 velocity=126 time=4
note_on channel=1 note=65 velocity=126 time=0
note_on channel=1 note=57 velocity=126 time=0
note_off channel=1 note=60 velocity=0 time=188
note_on channel=1 note=60 velocity=126 time=4
note_off channel=1 note=60 velocity=0 time=384
note_off channel=1 note=57 velocity=0 time=0
note_off channel=1 note=65 velocity=0 time=0
note_off channel=1 note=41 velocity=0 time=0
note_on channel=1 note=48 velocity=126 time=0
note_on channel=1 note=65 velocity=126 time=384
note_on channel=1 note=60 velocity=126 time=0
note_on channel=1 note=57 velocity=126 time=0
note_off channel=1 note=57 velocity=0 time=380
note_off channel=1 note=60 velocity=0 time=0
note_off channel=1 note=65 velocity=0 time=0
note_on channel=1 note=60 velocity=126 time=4
note_on channel=1 note=57 velocity=126 time=0
note_on channel=1 note=65 velocity=126 time=0
note_off channel=1 note=65 velocity=0 time=384
note_off channel=1 note=57 velocity=0 time=0
note_off channel=1 note=60 velocity=0 time=0
note_off channel=1 note=48 velocity=0 time=0
note_on channel=1 note=41 velocity=126 time=0
note_on channel=1 note=65 velocity=126 time=384
note_on channel=1 note=60 velocity=126 time=0
note_on channel=1 note=57 velocity=126 time=0
note_off channel=1 note=57 velocity=0 time=188
note_off channel=1 note=60 velocity=0 time=0
note_off channel=1 note=65 velocity=0 time=0
note_on channel=1 note=60 velocity=126 time=4
note_on channel=1 note=65 velocity=126 time=0
note_on channel=1 note=57 velocity=126 time=0
note_off channel=1 note=60 velocity=0 time=188
note_on channel=1 note=60 velocity=126 time=4
note_off channel=1 note=60 velocity=0 time=384
note_off channel=1 note=57 velocity=0 time=0
note_off channel=1 note=65 velocity=0 time=0
note_off channel=1 note=41 velocity=0 time=0
note_on channel=1 note=48 velocity=126 time=0
note_on channel=1 note=65 velocity=126 time=384
note_on channel=1 note=60 velocity=126 time=0
note_on channel=1 note=57 velocity=126 time=0
note_off channel=1 note=57 velocity=0 time=380
note_off channel=1 note=60 velocity=0 time=0
note_off channel=1 note=65 velocity=0 time=0
note_on channel=1 note=60 velocity=126 time=4
note_on channel=1 note=57 velocity=126 time=0
note_on channel=1 note=65 velocity=126 time=0
note_off channel=1 note=65 velocity=0 time=384
note_off channel=1 note=57 velocity=0 time=0
note_off channel=1 note=60 velocity=0 time=0
note_off channel=1 note=48 velocity=0 time=0
note_on channel=1 note=41 velocity=126 time=0
note_off channel=1 note=41 velocity=0 time=384
note_on channel=1 note=65 velocity=126 time=0
note_on channel=1 note=60 velocity=126 time=0
note_on channel=1 note=56 velocity=126 time=0
note_off channel=1 note=56 velocity=0 time=188
note_off channel=1 note=60 velocity=0 time=0
note_off channel=1 note=65 velocity=0 time=0
note_on channel=1 note=65 velocity=126 time=4
note_on channel=1 note=56 velocity=126 time=0
note_on channel=1 note=60 velocity=126 time=0
note_off channel=1 note=60 velocity=0 time=188
note_off channel=1 note=56 velocity=0 time=0
note_off channel=1 note=65 velocity=0 time=4
note_on channel=1 note=60 velocity=126 time=0
note_on channel=1 note=56 velocity=126 time=0
note_on channel=1 note=65 velocity=110 time=0
note_off channel=1 note=65 velocity=0 time=380
note_off channel=1 note=56 velocity=0 time=4
note_off channel=1 note=60 velocity=0 time=0
note_on channel=1 note=41 velocity=126 time=0
note_off channel=1 note=41 velocity=0 time=384
note_on channel=1 note=65 velocity=126 time=0
note_on channel=1 note=60 velocity=126 time=0
note_on channel=1 note=56 velocity=126 time=0
note_off channel=1 note=56 velocity=0 time=188
note_off channel=1 note=60 velocity=0 time=0
note_off channel=1 note=65 velocity=0 time=0
note_on channel=1 note=60 velocity=126 time=4
note_on channel=1 note=56 velocity=126 time=0
note_on channel=1 note=65 velocity=126 time=0
note_off channel=1 note=65 velocity=0 time=188
note_off channel=1 note=56 velocity=0 time=0
note_off channel=1 note=60 velocity=0 time=0
note_on channel=1 note=56 velocity=126 time=4
note_on channel=1 note=60 velocity=126 time=0
note_on channel=1 note=65 velocity=126 time=0
note_off channel=1 note=65 velocity=0 time=384
note_off channel=1 note=60 velocity=0 time=0
note_off channel=1 note=56 velocity=0 time=0
note_on channel=1 note=41 velocity=126 time=0
note_off channel=1 note=41 velocity=0 time=384
note_on channel=1 note=56 velocity=126 time=0
note_on channel=1 note=65 velocity=126 time=0
note_on channel=1 note=60 velocity=126 time=0
note_off channel=1 note=60 velocity=0 time=188
note_off channel=1 note=65 velocity=0 time=0
note_off channel=1 note=56 velocity=0 time=0
note_on channel=1 note=65 velocity=126 time=4
note_on channel=1 note=56 velocity=126 time=0
note_on channel=1 note=60 velocity=126 time=0
note_off channel=1 note=60 velocity=0 time=188
note_off channel=1 note=56 velocity=0 time=0
note_off channel=1 note=65 velocity=0 time=0
note_on channel=1 note=65 velocity=126 time=4
note_on channel=1 note=56 velocity=126 time=0
note_on channel=1 note=60 velocity=126 time=0
note_off channel=1 note=60 velocity=0 time=384
note_off channel=1 note=56 velocity=0 time=0
note_off channel=1 note=65 velocity=0 time=0
note_on channel=1 note=41 velocity=126 time=0
note_off channel=1 note=41 velocity=0 time=384
note_on channel=1 note=60 velocity=126 time=0
note_on channel=1 note=65 velocity=126 time=0
note_on channel=1 note=56 velocity=126 time=0
note_off channel=1 note=56 velocity=0 time=188
note_off channel=1 note=65 velocity=0 time=0
note_off channel=1 note=60 velocity=0 time=0
note_on channel=1 note=60 velocity=126 time=4
note_on channel=1 note=56 velocity=126 time=0
note_on channel=1 note=65 velocity=126 time=0
note_off channel=1 note=65 velocity=0 time=188
note_off channel=1 note=56 velocity=0 time=0
note_off channel=1 note=60 velocity=0 time=0
note_on channel=1 note=56 velocity=126 time=4
note_on channel=1 note=60 velocity=126 time=0
note_on channel=1 note=65 velocity=126 time=0
note_off channel=1 note=60 velocity=0 time=380
note_off channel=1 note=56 velocity=0 time=0
note_off channel=1 note=65 velocity=0 time=4
note_on channel=1 note=46 velocity=126 time=0
note_off channel=1 note=46 velocity=0 time=384
note_on channel=1 note=62 velocity=126 time=0
note_on channel=1 note=58 velocity=126 time=0
note_on channel=1 note=65 velocity=126 time=0
note_off channel=1 note=65 velocity=0 time=188
note_off channel=1 note=58 velocity=0 time=0
note_off channel=1 note=62 velocity=0 time=0
note_on channel=1 note=58 velocity=126 time=4
note_on channel=1 note=62 velocity=126 time=0
note_on channel=1 note=65 velocity=126 time=0
note_off channel=1 note=65 velocity=0 time=188
note_off channel=1 note=62 velocity=0 time=0
note_off channel=1 note=58 velocity=0 time=0
note_on channel=1 note=65 velocity=126 time=4
note_on channel=1 note=62 velocity=126 time=0
note_on channel=1 note=58 velocity=126 time=0
note_off channel=1 note=58 velocity=0 time=384
note_off channel=1 note=62 velocity=0 time=0
note_off channel=1 note=65 velocity=0 time=0
note_on channel=1 note=41 velocity=126 time=0
note_off channel=1 note=41 velocity=0 time=384
note_on channel=1 note=65 velocity=126 time=0
note_on channel=1 note=58 velocity=126 time=0
note_on channel=1 note=62 velocity=126 time=0
note_off channel=1 note=62 velocity=0 time=188
note_off channel=1 note=58 velocity=0 time=0
note_off channel=1 note=65 velocity=0 time=0
note_on channel=1 note=65 velocity=126 time=4
note_on channel=1 note=62 velocity=126 time=0
note_on channel=1 note=58 velocity=126 time=0
note_off channel=1 note=58 velocity=0 time=188
note_off channel=1 note=62 velocity=0 time=0
note_off channel=1 note=65 velocity=0 time=0
note_on channel=1 note=65 velocity=126 time=4
note_on channel=1 note=58 velocity=126 time=0
note_on channel=1 note=62 velocity=126 time=0
note_off channel=1 note=62 velocity=0 time=384
note_off channel=1 note=58 velocity=0 time=0
note_off channel=1 note=65 velocity=0 time=0
note_on channel=1 note=46 velocity=126 time=0
note_off channel=1 note=46 velocity=0 time=384
note_on channel=1 note=62 velocity=126 time=0
note_on channel=1 note=65 velocity=126 time=0
note_on channel=1 note=58 velocity=126 time=0
note_off channel=1 note=58 velocity=0 time=188
note_off channel=1 note=65 velocity=0 time=0
note_off channel=1 note=62 velocity=0 time=0
note_on channel=1 note=58 velocity=126 time=4
note_on channel=1 note=62 velocity=126 time=0
note_on channel=1 note=65 velocity=126 time=0
note_off channel=1 note=65 velocity=0 time=188
note_off channel=1 note=62 velocity=0 time=0
note_off channel=1 note=58 velocity=0 time=0
note_on channel=1 note=58 velocity=126 time=4
note_on channel=1 note=62 velocity=126 time=0
note_on channel=1 note=65 velocity=126 time=0
note_off channel=1 note=65 velocity=0 time=384
note_off channel=1 note=62 velocity=0 time=0
note_off channel=1 note=58 velocity=0 time=0
note_on channel=1 note=41 velocity=126 time=0
note_off channel=1 note=41 velocity=0 time=384
note_on channel=1 note=65 velocity=126 time=0
note_on channel=1 note=58 velocity=126 time=0
note_on channel=1 note=62 velocity=126 time=0
note_off channel=1 note=62 velocity=0 time=188
note_off channel=1 note=58 velocity=0 time=0
note_off channel=1 note=65 velocity=0 time=0
note_on channel=1 note=65 velocity=126 time=4
note_on channel=1 note=62 velocity=126 time=0
note_on channel=1 note=58 velocity=126 time=0
note_off channel=1 note=58 velocity=0 time=188
note_off channel=1 note=62 velocity=0 time=0
note_off channel=1 note=65 velocity=0 time=0
note_on channel=1 note=65 velocity=126 time=4
note_on channel=1 note=62 velocity=126 time=0
note_on channel=1 note=58 velocity=126 time=0
note_off channel=1 note=58 velocity=0 time=384
note_off channel=1 note=62 velocity=0 time=0
note_off channel=1 note=65 velocity=0 time=0
note_on channel=1 note=41 velocity=126 time=0
note_off channel=1 note=41 velocity=0 time=384
note_on channel=1 note=60 velocity=126 time=0
note_on channel=1 note=56 velocity=126 time=0
note_on channel=1 note=65 velocity=126 time=0
note_off channel=1 note=65 velocity=0 time=188
note_off channel=1 note=56 velocity=0 time=0
note_off channel=1 note=60 velocity=0 time=0
note_on channel=1 note=65 velocity=126 time=4
note_on channel=1 note=60 velocity=126 time=0
note_on channel=1 note=56 velocity=126 time=0
note_off channel=1 note=56 velocity=0 time=188
note_off channel=1 note=60 velocity=0 time=0
note_off channel=1 note=65 velocity=0 time=0
note_on channel=1 note=65 velocity=126 time=4
note_on channel=1 note=60 velocity=126 time=0
note_on channel=1 note=56 velocity=126 time=0
note_off channel=1 note=56 velocity=0 time=384
note_off channel=1 note=60 velocity=0 time=0
note_off channel=1 note=65 velocity=0 time=0
note_on channel=1 note=41 velocity=126 time=0
note_off channel=1 note=41 velocity=0 time=384
note_on channel=1 note=65 velocity=126 time=0
note_on channel=1 note=60 velocity=126 time=0
note_on channel=1 note=56 velocity=126 time=0
note_off channel=1 note=56 velocity=0 time=188
note_off channel=1 note=60 velocity=0 time=0
note_off channel=1 note=65 velocity=0 time=0
note_on channel=1 note=60 velocity=126 time=4
note_on channel=1 note=56 velocity=126 time=0
note_on channel=1 note=65 velocity=126 time=0
note_off channel=1 note=65 velocity=0 time=188
note_off channel=1 note=56 velocity=0 time=0
note_off channel=1 note=60 velocity=0 time=0
note_on channel=1 note=60 velocity=126 time=4
note_on channel=1 note=56 velocity=126 time=0
note_on channel=1 note=65 velocity=126 time=0
note_off channel=1 note=65 velocity=0 time=384
note_off channel=1 note=56 velocity=0 time=0
note_off channel=1 note=60 velocity=0 time=0
note_on channel=1 note=41 velocity=126 time=0
note_off channel=1 note=41 velocity=0 time=384
note_on channel=1 note=65 velocity=126 time=0
note_on channel=1 note=56 velocity=126 time=0
note_on channel=1 note=60 velocity=126 time=0
note_off channel=1 note=60 velocity=0 time=188
note_off channel=1 note=56 velocity=0 time=0
note_off channel=1 note=65 velocity=0 time=0
note_on channel=1 note=60 velocity=126 time=4
note_on channel=1 note=56 velocity=126 time=0
note_on channel=1 note=65 velocity=126 time=0
note_off channel=1 note=65 velocity=0 time=188
note_off channel=1 note=56 velocity=0 time=0
note_off channel=1 note=60 velocity=0 time=0
note_on channel=1 note=65 velocity=126 time=4
note_on channel=1 note=56 velocity=126 time=0
note_on channel=1 note=60 velocity=126 time=0
note_off channel=1 note=60 velocity=0 time=384
note_off channel=1 note=56 velocity=0 time=0
note_off channel=1 note=65 velocity=0 time=0
note_on channel=1 note=41 velocity=126 time=0
note_off channel=1 note=41 velocity=0 time=384
note_on channel=1 note=60 velocity=126 time=0
note_on channel=1 note=56 velocity=126 time=0
note_on channel=1 note=65 velocity=126 time=0
note_off channel=1 note=65 velocity=0 time=188
note_off channel=1 note=56 velocity=0 time=0
note_off channel=1 note=60 velocity=0 time=0
note_on channel=1 note=60 velocity=126 time=4
note_on channel=1 note=65 velocity=126 time=0
note_on channel=1 note=56 velocity=126 time=0
note_off channel=1 note=56 velocity=0 time=188
note_off channel=1 note=65 velocity=0 time=0
note_off channel=1 note=60 velocity=0 time=0
note_on channel=1 note=65 velocity=126 time=4
note_on channel=1 note=60 velocity=126 time=0
note_on channel=1 note=56 velocity=126 time=0
note_off channel=1 note=56 velocity=0 time=380
note_off channel=1 note=60 velocity=0 time=0
note_off channel=1 note=65 velocity=0 time=0
note_on channel=1 note=43 velocity=126 time=4
note_off channel=1 note=43 velocity=0 time=384
note_on channel=1 note=62 velocity=126 time=0
note_on channel=1 note=67 velocity=126 time=0
note_on channel=1 note=58 velocity=126 time=0
note_off channel=1 note=58 velocity=0 time=188
note_off channel=1 note=67 velocity=0 time=0
note_off channel=1 note=62 velocity=0 time=0
note_on channel=1 note=58 velocity=126 time=4
note_on channel=1 note=62 velocity=126 time=0
note_on channel=1 note=67 velocity=126 time=0
note_off channel=1 note=62 velocity=0 time=188
note_off channel=1 note=67 velocity=0 time=4
note_off channel=1 note=58 velocity=0 time=0
note_on channel=1 note=58 velocity=99 time=0
note_on channel=1 note=67 velocity=87 time=0
note_on channel=1 note=62 velocity=126 time=0
note_off channel=1 note=67 velocity=0 time=380
note_off channel=1 note=58 velocity=0 time=0
note_off channel=1 note=62 velocity=0 time=4
note_on channel=1 note=43 velocity=126 time=0
note_off channel=1 note=43 velocity=0 time=384
note_on channel=1 note=62 velocity=126 time=0
note_on channel=1 note=67 velocity=126 time=0
note_on channel=1 note=58 velocity=126 time=0
note_off channel=1 note=58 velocity=0 time=188
note_off channel=1 note=67 velocity=0 time=0
note_off channel=1 note=62 velocity=0 time=0
note_on channel=1 note=67 velocity=126 time=4
note_on channel=1 note=58 velocity=126 time=0
note_on channel=1 note=62 velocity=126 time=0
note_off channel=1 note=62 velocity=0 time=188
note_off channel=1 note=58 velocity=0 time=0
note_off channel=1 note=67 velocity=0 time=0
note_on channel=1 note=58 velocity=126 time=4
note_on channel=1 note=67 velocity=126 time=0
note_on channel=1 note=62 velocity=126 time=0
note_off channel=1 note=62 velocity=0 time=384
note_off channel=1 note=67 velocity=0 time=0
note_off channel=1 note=58 velocity=0 time=0
note_on channel=1 note=48 velocity=126 time=0
note_off channel=1 note=48 velocity=0 time=384
note_on channel=1 note=60 velocity=126 time=0
note_on channel=1 note=64 velocity=126 time=0
note_on channel=1 note=67 velocity=126 time=0
note_off channel=1 note=67 velocity=0 time=188
note_off channel=1 note=64 velocity=0 time=0
note_off channel=1 note=60 velocity=0 time=0
note_on channel=1 note=64 velocity=126 time=4
note_on channel=1 note=60 velocity=126 time=0
note_on channel=1 note=67 velocity=126 time=0
note_off channel=1 note=67 velocity=0 time=188
note_off channel=1 note=60 velocity=0 time=0
note_off channel=1 note=64 velocity=0 time=0
note_on channel=1 note=64 velocity=126 time=4
note_on channel=1 note=67 velocity=126 time=0
note_on channel=1 note=60 velocity=126 time=0
note_off channel=1 note=60 velocity=0 time=384
note_off channel=1 note=67 velocity=0 time=0
note_off channel=1 note=64 velocity=0 time=0
note_on channel=1 note=48 velocity=126 time=0
note_off channel=1 note=48 velocity=0 time=384
note_on channel=1 note=67 velocity=126 time=0
note_on channel=1 note=64 velocity=126 time=0
note_on channel=1 note=60 velocity=126 time=0
note_off channel=1 note=60 velocity=0 time=188
note_off channel=1 note=64 velocity=0 time=0
note_off channel=1 note=67 velocity=0 time=0
note_on channel=1 note=64 velocity=126 time=4
note_on channel=1 note=60 velocity=126 time=0
note_on channel=1 note=67 velocity=126 time=0
note_off channel=1 note=67 velocity=0 time=188
note_off channel=1 note=60 velocity=0 time=0
note_off channel=1 note=64 velocity=0 time=0
note_on channel=1 note=60 velocity=126 time=4
note_on channel=1 note=67 velocity=126 time=0
note_on channel=1 note=64 velocity=126 time=0
note_off channel=1 note=64 velocity=0 time=384
note_off channel=1 note=67 velocity=0 time=0
note_off channel=1 note=60 velocity=0 time=0
note_on channel=1 note=41 velocity=126 time=0
note_on channel=1 note=65 velocity=126 time=384
note_on channel=1 note=60 velocity=126 time=0
note_on channel=1 note=57 velocity=126 time=0
note_off channel=1 note=57 velocity=0 time=188
note_off channel=1 note=60 velocity=0 time=0
note_off channel=1 note=65 velocity=0 time=0
note_on channel=1 note=60 velocity=126 time=4
note_on channel=1 note=65 velocity=126 time=0
note_on channel=1 note=57 velocity=126 time=0
note_off channel=1 note=60 velocity=0 time=188
note_on channel=1 note=60 velocity=126 time=4
note_off channel=1 note=60 velocity=0 time=384
note_off channel=1 note=57 velocity=0 time=0
note_off channel=1 note=65 velocity=0 time=0
note_off channel=1 note=41 velocity=0 time=0
note_on channel=1 note=48 velocity=126 time=0
note_on channel=1 note=65 velocity=126 time=384
note_on channel=1 note=60 velocity=126 time=0
note_on channel=1 note=57 velocity=126 time=0
note_off channel=1 note=57 velocity=0 time=380
note_off channel=1 note=60 velocity=0 time=0
note_off channel=1 note=65 velocity=0 time=0
note_on channel=1 note=60 velocity=126 time=4
note_on channel=1 note=57 velocity=126 time=0
note_on channel=1 note=65 velocity=126 time=0
note_off channel=1 note=65 velocity=0 time=384
note_off channel=1 note=57 velocity=0 time=0
note_off channel=1 note=60 velocity=0 time=0
note_off channel=1 note=48 velocity=0 time=0
note_on channel=1 note=41 velocity=126 time=0
note_on channel=1 note=65 velocity=126 time=384
note_on channel=1 note=60 velocity=126 time=0
note_on channel=1 note=57 velocity=126 time=0
note_off channel=1 note=57 velocity=0 time=188
note_off channel=1 note=60 velocity=0 time=0
note_off channel=1 note=65 velocity=0 time=0
note_on channel=1 note=60 velocity=126 time=4
note_on channel=1 note=65 velocity=126 time=0
note_on channel=1 note=57 velocity=126 time=0
note_off channel=1 note=60 velocity=0 time=188
note_on channel=1 note=60 velocity=126 time=4
note_off channel=1 note=60 velocity=0 time=384
note_off channel=1 note=57 velocity=0 time=0
note_off channel=1 note=65 velocity=0 time=0
note_off channel=1 note=41 velocity=0 time=0
note_on channel=1 note=48 velocity=126 time=0
note_on channel=1 note=65 velocity=126 time=384
note_on channel=1 note=60 velocity=126 time=0
note_on channel=1 note=57 velocity=126 time=0
note_off channel=1 note=57 velocity=0 time=380
note_off channel=1 note=60 velocity=0 time=0
note_off channel=1 note=65 velocity=0 time=0
note_on channel=1 note=60 velocity=126 time=4
note_on channel=1 note=57 velocity=126 time=0
note_on channel=1 note=65 velocity=126 time=0
note_off channel=1 note=65 velocity=0 time=384
note_off channel=1 note=57 velocity=0 time=0
note_off channel=1 note=60 velocity=0 time=0
note_off channel=1 note=48 velocity=0 time=0
note_on channel=1 note=41 velocity=126 time=0
note_on channel=1 note=65 velocity=126 time=384
note_on channel=1 note=60 velocity=126 time=0
note_on channel=1 note=57 velocity=126 time=0
note_off channel=1 note=57 velocity=0 time=188
note_off channel=1 note=60 velocity=0 time=0
note_off channel=1 note=65 velocity=0 time=0
note_on channel=1 note=60 velocity=126 time=4
note_on channel=1 note=65 velocity=126 time=0
note_on channel=1 note=57 velocity=126 time=0
note_off channel=1 note=60 velocity=0 time=188
note_on channel=1 note=60 velocity=126 time=4
note_off channel=1 note=60 velocity=0 time=384
note_off channel=1 note=57 velocity=0 time=0
note_off channel=1 note=65 velocity=0 time=0
note_off channel=1 note=41 velocity=0 time=0
note_on channel=1 note=48 velocity=126 time=0
note_on channel=1 note=65 velocity=126 time=384
note_on channel=1 note=60 velocity=126 time=0
note_on channel=1 note=57 velocity=126 time=0
note_off channel=1 note=57 velocity=0 time=380
note_off channel=1 note=60 velocity=0 time=0
note_off channel=1 note=65 velocity=0 time=0
note_on channel=1 note=60 velocity=126 time=4
note_on channel=1 note=57 velocity=126 time=0
note_on channel=1 note=65 velocity=126 time=0
note_off channel=1 note=65 velocity=0 time=384
note_off channel=1 note=57 velocity=0 time=0
note_off channel=1 note=60 velocity=0 time=0
note_off channel=1 note=48 velocity=0 time=0
note_on channel=1 note=41 velocity=126 time=0
note_on channel=1 note=65 velocity=126 time=384
note_on channel=1 note=60 velocity=126 time=0
note_on channel=1 note=57 velocity=126 time=0
note_off channel=1 note=57 velocity=0 time=188
note_off channel=1 note=60 velocity=0 time=0
note_off channel=1 note=65 velocity=0 time=0
note_on channel=1 note=60 velocity=126 time=4
note_on channel=1 note=65 velocity=126 time=0
note_on channel=1 note=57 velocity=126 time=0
note_off channel=1 note=60 velocity=0 time=188
note_on channel=1 note=60 velocity=126 time=4
note_off channel=1 note=60 velocity=0 time=384
note_off channel=1 note=57 velocity=0 time=0
note_off channel=1 note=65 velocity=0 time=0
note_off channel=1 note=41 velocity=0 time=0
note_on channel=1 note=48 velocity=126 time=0
note_on channel=1 note=65 velocity=126 time=384
note_on channel=1 note=60 velocity=126 time=0
note_on channel=1 note=57 velocity=126 time=0
note_off channel=1 note=57 velocity=0 time=380
note_off channel=1 note=60 velocity=0 time=0
note_off channel=1 note=65 velocity=0 time=0
note_on channel=1 note=60 velocity=126 time=4
note_on channel=1 note=57 velocity=126 time=0
note_on channel=1 note=65 velocity=126 time=0
note_off channel=1 note=65 velocity=0 time=384
note_off channel=1 note=57 velocity=0 time=0
note_off channel=1 note=60 velocity=0 time=0
note_off channel=1 note=48 velocity=0 time=0
note_on channel=1 note=41 velocity=126 time=0
note_on channel=1 note=65 velocity=126 time=384
note_on channel=1 note=60 velocity=126 time=0
note_on channel=1 note=57 velocity=126 time=0
note_off channel=1 note=57 velocity=0 time=188
note_off channel=1 note=60 velocity=0 time=0
note_off channel=1 note=65 velocity=0 time=0
note_on channel=1 note=60 velocity=126 time=4
note_on channel=1 note=65 velocity=126 time=0
note_on channel=1 note=57 velocity=126 time=0
note_off channel=1 note=60 velocity=0 time=188
note_on channel=1 note=60 velocity=126 time=4
note_off channel=1 note=60 velocity=0 time=384
note_off channel=1 note=57 velocity=0 time=0
note_off channel=1 note=65 velocity=0 time=0
note_off channel=1 note=41 velocity=0 time=0
note_on channel=1 note=48 velocity=126 time=0
note_on channel=1 note=65 velocity=126 time=384
note_on channel=1 note=60 velocity=126 time=0
note_on channel=1 note=57 velocity=126 time=0
note_off channel=1 note=57 velocity=0 time=380
note_off channel=1 note=60 velocity=0 time=0
note_off channel=1 note=65 velocity=0 time=0
note_on channel=1 note=60 velocity=126 time=4
note_on channel=1 note=57 velocity=126 time=0
note_on channel=1 note=65 velocity=126 time=0
note_off channel=1 note=65 velocity=0 time=384
note_off channel=1 note=57 velocity=0 time=0
note_off channel=1 note=60 velocity=0 time=0
note_off channel=1 note=48 velocity=0 time=0
note_on channel=1 note=41 velocity=126 time=0
note_on channel=1 note=65 velocity=126 time=384
note_on channel=1 note=60 velocity=126 time=0
note_on channel=1 note=57 velocity=126 time=0
note_off channel=1 note=57 velocity=0 time=188
note_off channel=1 note=60 velocity=0 time=0
note_off channel=1 note=65 velocity=0 time=0
note_on channel=1 note=60 velocity=126 time=4
note_on channel=1 note=65 velocity=126 time=0
note_on channel=1 note=57 velocity=126 time=0
note_off channel=1 note=60 velocity=0 time=188
note_on channel=1 note=60 velocity=126 time=4
note_off channel=1 note=60 velocity=0 time=384
note_off channel=1 note=57 velocity=0 time=0
note_off channel=1 note=65 velocity=0 time=0
note_off channel=1 note=41 velocity=0 time=0
note_on channel=1 note=48 velocity=126 time=0
note_on channel=1 note=65 velocity=126 time=384
note_on channel=1 note=60 velocity=126 time=0
note_on channel=1 note=57 velocity=126 time=0
note_off channel=1 note=57 velocity=0 time=380
note_off channel=1 note=60 velocity=0 time=0
note_off channel=1 note=65 velocity=0 time=0
note_on channel=1 note=60 velocity=126 time=4
note_on channel=1 note=57 velocity=126 time=0
note_on channel=1 note=65 velocity=126 time=0
note_off channel=1 note=65 velocity=0 time=384
note_off channel=1 note=57 velocity=0 time=0
note_off channel=1 note=60 velocity=0 time=0
note_off channel=1 note=48 velocity=0 time=0
note_on channel=1 note=41 velocity=126 time=0
note_on channel=1 note=65 velocity=126 time=384
note_on channel=1 note=60 velocity=126 time=0
note_on channel=1 note=57 velocity=126 time=0
note_off channel=1 note=57 velocity=0 time=188
note_off channel=1 note=60 velocity=0 time=0
note_off channel=1 note=65 velocity=0 time=0
note_on channel=1 note=60 velocity=126 time=4
note_on channel=1 note=65 velocity=126 time=0
note_on channel=1 note=57 velocity=126 time=0
note_off channel=1 note=60 velocity=0 time=188
note_on channel=1 note=60 velocity=126 time=4
note_off channel=1 note=60 velocity=0 time=384
note_off channel=1 note=57 velocity=0 time=0
note_off channel=1 note=65 velocity=0 time=0
note_off channel=1 note=41 velocity=0 time=0
note_on channel=1 note=48 velocity=126 time=0
note_on channel=1 note=65 velocity=126 time=384
note_on channel=1 note=60 velocity=126 time=0
note_on channel=1 note=57 velocity=126 time=0
note_off channel=1 note=57 velocity=0 time=380
note_off channel=1 note=60 velocity=0 time=0
note_off channel=1 note=65 velocity=0 time=0
note_on channel=1 note=60 velocity=126 time=4
note_on channel=1 note=57 velocity=126 time=0
note_on channel=1 note=65 velocity=126 time=0
note_off channel=1 note=65 velocity=0 time=384
note_off channel=1 note=57 velocity=0 time=0
note_off channel=1 note=60 velocity=0 time=0
note_off channel=1 note=48 velocity=0 time=0
note_on channel=1 note=41 velocity=126 time=0
note_on channel=1 note=65 velocity=126 time=384
note_on channel=1 note=60 velocity=126 time=0
note_on channel=1 note=57 velocity=126 time=0
note_off channel=1 note=57 velocity=0 time=188
note_off channel=1 note=60 velocity=0 time=0
note_off channel=1 note=65 velocity=0 time=0
note_on channel=1 note=60 velocity=126 time=4
note_on channel=1 note=65 velocity=126 time=0
note_on channel=1 note=57 velocity=126 time=0
note_off channel=1 note=60 velocity=0 time=188
note_on channel=1 note=60 velocity=126 time=4
note_off channel=1 note=60 velocity=0 time=384
note_off channel=1 note=57 velocity=0 time=0
note_off channel=1 note=65 velocity=0 time=0
note_off channel=1 note=41 velocity=0 time=0
note_on channel=1 note=48 velocity=126 time=0
note_on channel=1 note=65 velocity=126 time=384
note_on channel=1 note=60 velocity=126 time=0
note_on channel=1 note=57 velocity=126 time=0
note_off channel=1 note=57 velocity=0 time=380
note_off channel=1 note=60 velocity=0 time=0
note_off channel=1 note=65 velocity=0 time=0
note_on channel=1 note=60 velocity=126 time=4
note_on channel=1 note=57 velocity=126 time=0
note_on channel=1 note=65 velocity=126 time=0
note_off channel=1 note=65 velocity=0 time=384
note_off channel=1 note=57 velocity=0 time=0
note_off channel=1 note=60 velocity=0 time=0
note_off channel=1 note=48 velocity=0 time=0
note_on channel=1 note=41 velocity=126 time=0
note_on channel=1 note=65 velocity=126 time=384
note_on channel=1 note=60 velocity=126 time=0
note_on channel=1 note=57 velocity=126 time=0
note_off channel=1 note=57 velocity=0 time=188
note_off channel=1 note=60 velocity=0 time=0
note_off channel=1 note=65 velocity=0 time=0
note_on channel=1 note=60 velocity=126 time=4
note_on channel=1 note=65 velocity=126 time=0
note_on channel=1 note=57 velocity=126 time=0
note_off channel=1 note=60 velocity=0 time=188
note_on channel=1 note=60 velocity=126 time=4
note_off channel=1 note=60 velocity=0 time=384
note_off channel=1 note=57 velocity=0 time=0
note_off channel=1 note=65 velocity=0 time=0
note_off channel=1 note=41 velocity=0 time=0
note_on channel=1 note=48 velocity=126 time=0
note_on channel=1 note=65 velocity=126 time=384
note_on channel=1 note=60 velocity=126 time=0
note_on channel=1 note=57 velocity=126 time=0
note_off channel=1 note=57 velocity=0 time=380
note_off channel=1 note=60 velocity=0 time=0
note_off channel=1 note=65 velocity=0 time=0
note_on channel=1 note=60 velocity=126 time=4
note_on channel=1 note=57 velocity=126 time=0
note_on channel=1 note=65 velocity=126 time=0
note_off channel=1 note=65 velocity=0 time=384
note_off channel=1 note=57 velocity=0 time=0
note_off channel=1 note=60 velocity=0 time=0
note_off channel=1 note=48 velocity=0 time=0
note_on channel=1 note=41 velocity=126 time=0
note_on channel=1 note=65 velocity=126 time=384
note_on channel=1 note=60 velocity=126 time=0
note_on channel=1 note=57 velocity=126 time=0
note_off channel=1 note=57 velocity=0 time=188
note_off channel=1 note=60 velocity=0 time=0
note_off channel=1 note=65 velocity=0 time=0
note_on channel=1 note=60 velocity=126 time=4
note_on channel=1 note=65 velocity=126 time=0
note_on channel=1 note=57 velocity=126 time=0
note_off channel=1 note=60 velocity=0 time=188
note_on channel=1 note=60 velocity=126 time=4
note_off channel=1 note=60 velocity=0 time=384
note_off channel=1 note=57 velocity=0 time=0
note_off channel=1 note=65 velocity=0 time=0
note_off channel=1 note=41 velocity=0 time=0
note_on channel=1 note=48 velocity=126 time=0
note_on channel=1 note=65 velocity=126 time=384
note_on channel=1 note=60 velocity=126 time=0
note_on channel=1 note=57 velocity=126 time=0
note_off channel=1 note=57 velocity=0 time=380
note_off channel=1 note=60 velocity=0 time=0
note_off channel=1 note=65 velocity=0 time=0
note_on channel=1 note=60 velocity=126 time=4
note_on channel=1 note=57 velocity=126 time=0
note_on channel=1 note=65 velocity=126 time=0
note_off channel=1 note=65 velocity=0 time=384
note_off channel=1 note=57 velocity=0 time=0
note_off channel=1 note=60 velocity=0 time=0
note_off channel=1 note=48 velocity=0 time=0
note_on channel=1 note=41 velocity=126 time=0
note_on channel=1 note=65 velocity=126 time=384
note_on channel=1 note=60 velocity=126 time=0
note_on channel=1 note=57 velocity=126 time=0
note_off channel=1 note=57 velocity=0 time=188
note_off channel=1 note=60 velocity=0 time=0
note_off channel=1 note=65 velocity=0 time=0
note_on channel=1 note=60 velocity=126 time=4
note_on channel=1 note=65 velocity=126 time=0
note_on channel=1 note=57 velocity=126 time=0
note_off channel=1 note=60 velocity=0 time=188
note_on channel=1 note=60 velocity=126 time=4
note_off channel=1 note=60 velocity=0 time=384
note_off channel=1 note=57 velocity=0 time=0
note_off channel=1 note=65 velocity=0 time=0
note_off channel=1 note=41 velocity=0 time=0
note_on channel=1 note=48 velocity=126 time=0
note_on channel=1 note=65 velocity=126 time=384
note_on channel=1 note=60 velocity=126 time=0
note_on channel=1 note=57 velocity=126 time=0
note_off channel=1 note=57 velocity=0 time=380
note_off channel=1 note=60 velocity=0 time=0
note_off channel=1 note=65 velocity=0 time=0
note_on channel=1 note=60 velocity=126 time=4
note_on channel=1 note=57 velocity=126 time=0
note_on channel=1 note=65 velocity=126 time=0
note_off channel=1 note=65 velocity=0 time=384
note_off channel=1 note=57 velocity=0 time=0
note_off channel=1 note=60 velocity=0 time=0
note_off channel=1 note=48 velocity=0 time=0
note_on channel=1 note=41 velocity=126 time=0
note_on channel=1 note=65 velocity=126 time=384
note_on channel=1 note=60 velocity=126 time=0
note_on channel=1 note=57 velocity=126 time=0
note_off channel=1 note=57 velocity=0 time=188
note_off channel=1 note=60 velocity=0 time=0
note_off channel=1 note=65 velocity=0 time=0
note_on channel=1 note=60 velocity=126 time=4
note_on channel=1 note=65 velocity=126 time=0
note_on channel=1 note=57 velocity=126 time=0
note_off channel=1 note=60 velocity=0 time=188
note_on channel=1 note=60 velocity=126 time=4
note_off channel=1 note=60 velocity=0 time=384
note_off channel=1 note=57 velocity=0 time=0
note_off channel=1 note=65 velocity=0 time=0
note_off channel=1 note=41 velocity=0 time=0
note_on channel=1 note=48 velocity=126 time=0
note_on channel=1 note=65 velocity=126 time=384
note_on channel=1 note=60 velocity=126 time=0
note_on channel=1 note=57 velocity=126 time=0
note_off channel=1 note=57 velocity=0 time=380
note_off channel=1 note=60 velocity=0 time=0
note_off channel=1 note=65 velocity=0 time=0
note_on channel=1 note=60 velocity=126 time=4
note_on channel=1 note=57 velocity=126 time=0
note_on channel=1 note=65 velocity=126 time=0
note_off channel=1 note=65 velocity=0 time=384
note_off channel=1 note=57 velocity=0 time=0
note_off channel=1 note=60 velocity=0 time=0
note_off channel=1 note=48 velocity=0 time=0
note_on channel=1 note=41 velocity=126 time=0
note_on channel=1 note=65 velocity=126 time=384
note_on channel=1 note=60 velocity=126 time=0
note_on channel=1 note=57 velocity=126 time=0
note_off channel=1 note=57 velocity=0 time=188
note_off channel=1 note=60 velocity=0 time=0
note_off channel=1 note=65 velocity=0 time=0
note_on channel=1 note=60 velocity=126 time=4
note_on channel=1 note=65 velocity=126 time=0
note_on channel=1 note=57 velocity=126 time=0
note_off channel=1 note=60 velocity=0 time=188
note_on channel=1 note=60 velocity=126 time=4
note_off channel=1 note=60 velocity=0 time=384
note_off channel=1 note=57 velocity=0 time=0
note_off channel=1 note=65 velocity=0 time=0
note_off channel=1 note=41 velocity=0 time=0
note_on channel=1 note=48 velocity=126 time=0
note_on channel=1 note=65 velocity=126 time=384
note_on channel=1 note=60 velocity=126 time=0
note_on channel=1 note=57 velocity=126 time=0
note_off channel=1 note=57 velocity=0 time=380
note_off channel=1 note=60 velocity=0 time=0
note_off channel=1 note=65 velocity=0 time=0
note_on channel=1 note=60 velocity=126 time=4
note_on channel=1 note=57 velocity=126 time=0
note_on channel=1 note=65 velocity=126 time=0
note_off channel=1 note=65 velocity=0 time=384
note_off channel=1 note=57 velocity=0 time=0
note_off channel=1 note=60 velocity=0 time=0
note_off channel=1 note=48 velocity=0 time=0
note_on channel=1 note=41 velocity=126 time=0
note_on channel=1 note=65 velocity=126 time=384
note_on channel=1 note=60 velocity=126 time=0
note_on channel=1 note=57 velocity=126 time=0
note_off channel=1 note=57 velocity=0 time=188
note_off channel=1 note=60 velocity=0 time=0
note_off channel=1 note=65 velocity=0 time=0
note_on channel=1 note=60 velocity=126 time=4
note_on channel=1 note=65 velocity=126 time=0
note_on channel=1 note=57 velocity=126 time=0
note_off channel=1 note=60 velocity=0 time=188
note_on channel=1 note=60 velocity=126 time=4
note_off channel=1 note=60 velocity=0 time=384
note_off channel=1 note=57 velocity=0 time=0
note_off channel=1 note=65 velocity=0 time=0
note_off channel=1 note=41 velocity=0 time=0
note_on channel=1 note=48 velocity=126 time=0
note_on channel=1 note=65 velocity=126 time=384
note_on channel=1 note=60 velocity=126 time=0
note_on channel=1 note=57 velocity=126 time=0
note_off channel=1 note=57 velocity=0 time=380
note_off channel=1 note=60 velocity=0 time=0
note_off channel=1 note=65 velocity=0 time=0
note_on channel=1 note=60 velocity=126 time=4
note_on channel=1 note=57 velocity=126 time=0
note_on channel=1 note=65 velocity=126 time=0
note_off channel=1 note=65 velocity=0 time=384
note_off channel=1 note=57 velocity=0 time=0
note_off channel=1 note=60 velocity=0 time=0
note_off channel=1 note=48 velocity=0 time=0
note_on channel=1 note=41 velocity=126 time=0
note_on channel=1 note=65 velocity=126 time=384
note_on channel=1 note=60 velocity=126 time=0
note_on channel=1 note=57 velocity=126 time=0
note_off channel=1 note=57 velocity=0 time=188
note_off channel=1 note=60 velocity=0 time=0
note_off channel=1 note=65 velocity=0 time=0
note_on channel=1 note=60 velocity=126 time=4
note_on channel=1 note=65 velocity=126 time=0
note_on channel=1 note=57 velocity=126 time=0
note_off channel=1 note=60 velocity=0 time=188
note_on channel=1 note=60 velocity=126 time=4
note_off channel=1 note=60 velocity=0 time=384
note_off channel=1 note=57 velocity=0 time=0
note_off channel=1 note=65 velocity=0 time=0
note_off channel=1 note=41 velocity=0 time=0
note_on channel=1 note=48 velocity=126 time=0
note_on channel=1 note=65 velocity=126 time=384
note_on channel=1 note=60 velocity=126 time=0
note_on channel=1 note=57 velocity=126 time=0
note_off channel=1 note=57 velocity=0 time=380
note_off channel=1 note=60 velocity=0 time=0
note_off channel=1 note=65 velocity=0 time=0
note_on channel=1 note=60 velocity=126 time=4
note_on channel=1 note=57 velocity=126 time=0
note_on channel=1 note=65 velocity=126 time=0
note_off channel=1 note=65 velocity=0 time=384
note_off channel=1 note=57 velocity=0 time=0
note_off channel=1 note=60 velocity=0 time=0
note_off channel=1 note=48 velocity=0 time=0
note_on channel=1 note=41 velocity=126 time=0
note_on channel=1 note=65 velocity=126 time=384
note_on channel=1 note=60 velocity=126 time=0
note_on channel=1 note=57 velocity=126 time=0
note_off channel=1 note=57 velocity=0 time=188
note_off channel=1 note=60 velocity=0 time=0
note_off channel=1 note=65 velocity=0 time=0
note_on channel=1 note=60 velocity=126 time=4
note_on channel=1 note=65 velocity=126 time=0
note_on channel=1 note=57 velocity=126 time=0
note_off channel=1 note=60 velocity=0 time=188
note_on channel=1 note=60 velocity=126 time=4
note_off channel=1 note=60 velocity=0 time=384
note_off channel=1 note=57 velocity=0 time=0
note_off channel=1 note=65 velocity=0 time=0
note_off channel=1 note=41 velocity=0 time=0
note_on channel=1 note=48 velocity=126 time=0
note_on channel=1 note=65 velocity=126 time=384
note_on channel=1 note=60 velocity=126 time=0
note_on channel=1 note=57 velocity=126 time=0
note_off channel=1 note=57 velocity=0 time=380
note_off channel=1 note=60 velocity=0 time=0
note_off channel=1 note=65 velocity=0 time=0
note_on channel=1 note=60 velocity=126 time=4
note_on channel=1 note=57 velocity=126 time=0
note_on channel=1 note=65 velocity=126 time=0
note_off channel=1 note=65 velocity=0 time=384
note_off channel=1 note=57 velocity=0 time=0
note_off channel=1 note=60 velocity=0 time=0
note_off channel=1 note=48 velocity=0 time=0
note_on channel=1 note=41 velocity=126 time=0
note_off channel=1 note=41 velocity=0 time=384
note_on channel=1 note=65 velocity=126 time=0
note_on channel=1 note=60 velocity=126 time=0
note_on channel=1 note=56 velocity=126 time=0
note_off channel=1 note=56 velocity=0 time=188
note_off channel=1 note=60 velocity=0 time=0
note_off channel=1 note=65 velocity=0 time=0
note_on channel=1 note=65 velocity=126 time=4
note_on channel=1 note=56 velocity=126 time=0
note_on channel=1 note=60 velocity=126 time=0
note_off channel=1 note=60 velocity=0 time=188
note_off channel=1 note=56 velocity=0 time=0
note_off channel=1 note=65 velocity=0 time=4
note_on channel=1 note=60 velocity=126 time=0
note_on channel=1 note=56 velocity=126 time=0
note_on channel=1 note=65 velocity=110 time=0
note_off channel=1 note=65 velocity=0 time=380
note_off channel=1 note=56 velocity=0 time=4
note_off channel=1 note=60 velocity=0 time=0
note_on channel=1 note=41 velocity=126 time=0
note_off channel=1 note=41 velocity=0 time=384
note_on channel=1 note=65 velocity=126 time=0
note_on channel=1 note=60 velocity=126 time=0
note_on channel=1 note=56 velocity=126 time=0
note_off channel=1 note=56 velocity=0 time=188
note_off channel=1 note=60 velocity=0 time=0
note_off channel=1 note=65 velocity=0 time=0
note_on channel=1 note=65 velocity=126 time=4
note_on channel=1 note=60 velocity=126 time=0
note_on channel=1 note=56 velocity=126 time=0
note_off channel=1 note=56 velocity=0 time=188
note_off channel=1 note=60 velocity=0 time=0
note_off channel=1 note=65 velocity=0 time=0
note_on channel=1 note=65 velocity=126 time=4
note_on channel=1 note=56 velocity=126 time=0
note_on channel=1 note=60 velocity=126 time=0
note_off channel=1 note=60 velocity=0 time=384
note_off channel=1 note=56 velocity=0 time=0
note_off channel=1 note=65 velocity=0 time=0
note_on channel=1 note=41 velocity=126 time=0
note_off channel=1 note=41 velocity=0 time=384
note_on channel=1 note=60 velocity=126 time=0
note_on channel=1 note=56 velocity=126 time=0
note_on channel=1 note=65 velocity=126 time=0
note_off channel=1 note=65 velocity=0 time=188
note_off channel=1 note=56 velocity=0 time=0
note_off channel=1 note=60 velocity=0 time=0
note_on channel=1 note=65 velocity=126 time=4
note_on channel=1 note=60 velocity=126 time=0
note_on channel=1 note=56 velocity=126 time=0
note_off channel=1 note=56 velocity=0 time=188
note_off channel=1 note=60 velocity=0 time=0
note_off channel=1 note=65 velocity=0 time=0
note_on channel=1 note=65 velocity=126 time=4
note_on channel=1 note=60 velocity=126 time=0
note_on channel=1 note=56 velocity=126 time=0
note_off channel=1 note=56 velocity=0 time=384
note_off channel=1 note=60 velocity=0 time=0
note_off channel=1 note=65 velocity=0 time=0
note_on channel=1 note=41 velocity=126 time=0
note_off channel=1 note=41 velocity=0 time=384
note_on channel=1 note=60 velocity=126 time=0
note_on channel=1 note=56 velocity=126 time=0
note_on channel=1 note=65 velocity=126 time=0
note_off channel=1 note=65 velocity=0 time=188
note_off channel=1 note=56 velocity=0 time=0
note_off channel=1 note=60 velocity=0 time=0
note_on channel=1 note=60 velocity=126 time=4
note_on channel=1 note=65 velocity=126 time=0
note_on channel=1 note=56 velocity=126 time=0
note_off channel=1 note=56 velocity=0 time=188
note_off channel=1 note=65 velocity=0 time=0
note_off channel=1 note=60 velocity=0 time=0
note_on channel=1 note=65 velocity=126 time=4
note_on channel=1 note=56 velocity=126 time=0
note_on channel=1 note=60 velocity=126 time=0
note_off channel=1 note=60 velocity=0 time=380
note_off channel=1 note=56 velocity=0 time=0
note_off channel=1 note=65 velocity=0 time=4
note_on channel=1 note=46 velocity=126 time=0
note_off channel=1 note=46 velocity=0 time=384
note_on channel=1 note=65 velocity=126 time=0
note_on channel=1 note=62 velocity=126 time=0
note_on channel=1 note=58 velocity=126 time=0
note_off channel=1 note=58 velocity=0 time=188
note_off channel=1 note=62 velocity=0 time=0
note_off channel=1 note=65 velocity=0 time=0
note_on channel=1 note=65 velocity=126 time=4
note_on channel=1 note=58 velocity=126 time=0
note_on channel=1 note=62 velocity=126 time=0
note_off channel=1 note=62 velocity=0 time=188
note_off channel=1 note=58 velocity=0 time=0
note_off channel=1 note=65 velocity=0 time=0
note_on channel=1 note=65 velocity=126 time=4
note_on channel=1 note=58 velocity=126 time=0
note_on channel=1 note=62 velocity=126 time=0
note_off channel=1 note=62 velocity=0 time=384
note_off channel=1 note=58 velocity=0 time=0
note_off channel=1 note=65 velocity=0 time=0
note_on channel=1 note=41 velocity=126 time=0
note_off channel=1 note=41 velocity=0 time=384
note_on channel=1 note=62 velocity=126 time=0
note_on channel=1 note=65 velocity=126 time=0
note_on channel=1 note=58 velocity=126 time=0
note_off channel=1 note=58 velocity=0 time=188
note_off channel=1 note=65 velocity=0 time=0
note_off channel=1 note=62 velocity=0 time=0
note_on channel=1 note=65 velocity=126 time=4
note_on channel=1 note=62 velocity=126 time=0
note_on channel=1 note=58 velocity=126 time=0
note_off channel=1 note=58 velocity=0 time=188
note_off channel=1 note=62 velocity=0 time=0
note_off channel=1 note=65 velocity=0 time=0
note_on channel=1 note=65 velocity=126 time=4
note_on channel=1 note=58 velocity=126 time=0
note_on channel=1 note=62 velocity=126 time=0
note_off channel=1 note=62 velocity=0 time=384
note_off channel=1 note=58 velocity=0 time=0
note_off channel=1 note=65 velocity=0 time=0
note_on channel=1 note=46 velocity=126 time=0
note_off channel=1 note=46 velocity=0 time=384
note_on channel=1 note=62 velocity=126 time=0
note_on channel=1 note=65 velocity=126 time=0
note_on channel=1 note=58 velocity=126 time=0
note_off channel=1 note=58 velocity=0 time=188
note_off channel=1 note=65 velocity=0 time=0
note_off channel=1 note=62 velocity=0 time=0
note_on channel=1 note=58 velocity=126 time=4
note_on channel=1 note=62 velocity=126 time=0
note_on channel=1 note=65 velocity=126 time=0
note_off channel=1 note=65 velocity=0 time=188
note_off channel=1 note=62 velocity=0 time=0
note_off channel=1 note=58 velocity=0 time=0
note_on channel=1 note=65 velocity=126 time=4
note_on channel=1 note=58 velocity=126 time=0
note_on channel=1 note=62 velocity=126 time=0
note_off channel=1 note=62 velocity=0 time=384
note_off channel=1 note=58 velocity=0 time=0
note_off channel=1 note=65 velocity=0 time=0
note_on channel=1 note=41 velocity=126 time=0
note_off channel=1 note=41 velocity=0 time=384
note_on channel=1 note=62 velocity=126 time=0
note_on channel=1 note=65 velocity=126 time=0
note_on channel=1 note=58 velocity=126 time=0
note_off channel=1 note=58 velocity=0 time=188
note_off channel=1 note=65 velocity=0 time=0
note_off channel=1 note=62 velocity=0 time=0
note_on channel=1 note=58 velocity=126 time=4
note_on channel=1 note=65 velocity=126 time=0
note_on channel=1 note=62 velocity=126 time=0
note_off channel=1 note=62 velocity=0 time=188
note_off channel=1 note=65 velocity=0 time=0
note_off channel=1 note=58 velocity=0 time=0
note_on channel=1 note=65 velocity=126 time=4
note_on channel=1 note=58 velocity=126 time=0
note_on channel=1 note=62 velocity=126 time=0
note_off channel=1 note=62 velocity=0 time=384
note_off channel=1 note=58 velocity=0 time=0
note_off channel=1 note=65 velocity=0 time=0
note_on channel=1 note=41 velocity=126 time=0
note_off channel=1 note=41 velocity=0 time=384
note_on channel=1 note=65 velocity=126 time=0
note_on channel=1 note=60 velocity=126 time=0
note_on channel=1 note=56 velocity=126 time=0
note_off channel=1 note=56 velocity=0 time=188
note_off channel=1 note=60 velocity=0 time=0
note_off channel=1 note=65 velocity=0 time=0
note_on channel=1 note=65 velocity=126 time=4
note_on channel=1 note=60 velocity=126 time=0
note_on channel=1 note=56 velocity=126 time=0
note_off channel=1 note=56 velocity=0 time=188
note_off channel=1 note=60 velocity=0 time=0
note_off channel=1 note=65 velocity=0 time=0
note_on channel=1 note=65 velocity=126 time=4
note_on channel=1 note=60 velocity=126 time=0
note_on channel=1 note=56 velocity=126 time=0
note_off channel=1 note=56 velocity=0 time=384
note_off channel=1 note=60 velocity=0 time=0
note_off channel=1 note=65 velocity=0 time=0
note_on channel=1 note=41 velocity=126 time=0
note_off channel=1 note=41 velocity=0 time=384
note_on channel=1 note=65 velocity=126 time=0
note_on channel=1 note=60 velocity=126 time=0
note_on channel=1 note=56 velocity=126 time=0
note_off channel=1 note=56 velocity=0 time=188
note_off channel=1 note=60 velocity=0 time=0
note_off channel=1 note=65 velocity=0 time=0
note_on channel=1 note=60 velocity=126 time=4
note_on channel=1 note=56 velocity=126 time=0
note_on channel=1 note=65 velocity=126 time=0
note_off channel=1 note=65 velocity=0 time=188
note_off channel=1 note=56 velocity=0 time=0
note_off channel=1 note=60 velocity=0 time=0
note_on channel=1 note=65 velocity=126 time=4
note_on channel=1 note=60 velocity=126 time=0
note_on channel=1 note=56 velocity=126 time=0
note_off channel=1 note=56 velocity=0 time=384
note_off channel=1 note=60 velocity=0 time=0
note_off channel=1 note=65 velocity=0 time=0
note_on channel=1 note=41 velocity=126 time=0
note_off channel=1 note=41 velocity=0 time=384
note_on channel=1 note=60 velocity=126 time=0
note_on channel=1 note=65 velocity=126 time=0
note_on channel=1 note=56 velocity=126 time=0
note_off channel=1 note=56 velocity=0 time=188
note_off channel=1 note=65 velocity=0 time=0
note_off channel=1 note=60 velocity=0 time=0
note_on channel=1 note=65 velocity=126 time=4
note_on channel=1 note=60 velocity=126 time=0
note_on channel=1 note=56 velocity=126 time=0
note_off channel=1 note=56 velocity=0 time=188
note_off channel=1 note=60 velocity=0 time=0
note_off channel=1 note=65 velocity=0 time=0
note_on channel=1 note=65 velocity=126 time=4
note_on channel=1 note=60 velocity=126 time=0
note_on channel=1 note=56 velocity=126 time=0
note_off channel=1 note=56 velocity=0 time=384
note_off channel=1 note=60 velocity=0 time=0
note_off channel=1 note=65 velocity=0 time=0
note_on channel=1 note=41 velocity=126 time=0
note_off channel=1 note=41 velocity=0 time=384
note_on channel=1 note=65 velocity=126 time=0
note_on channel=1 note=60 velocity=126 time=0
note_on channel=1 note=56 velocity=126 time=0
note_off channel=1 note=56 velocity=0 time=188
note_off channel=1 note=60 velocity=0 time=0
note_off channel=1 note=65 velocity=0 time=0
note_on channel=1 note=60 velocity=126 time=4
note_on channel=1 note=65 velocity=126 time=0
note_on channel=1 note=56 velocity=126 time=0
note_off channel=1 note=56 velocity=0 time=188
note_off channel=1 note=65 velocity=0 time=0
note_off channel=1 note=60 velocity=0 time=0
note_on channel=1 note=65 velocity=126 time=4
note_on channel=1 note=60 velocity=126 time=0
note_on channel=1 note=56 velocity=126 time=0
note_off channel=1 note=56 velocity=0 time=380
note_off channel=1 note=60 velocity=0 time=0
note_off channel=1 note=65 velocity=0 time=0
note_on channel=1 note=43 velocity=126 time=4
note_off channel=1 note=43 velocity=0 time=384
note_on channel=1 note=62 velocity=126 time=0
note_on channel=1 note=67 velocity=126 time=0
note_on channel=1 note=58 velocity=126 time=0
note_off channel=1 note=58 velocity=0 time=188
note_off channel=1 note=67 velocity=0 time=0
note_off channel=1 note=62 velocity=0 time=0
note_on channel=1 note=58 velocity=126 time=4
note_on channel=1 note=62 velocity=126 time=0
note_on channel=1 note=67 velocity=126 time=0
note_off channel=1 note=62 velocity=0 time=188
note_off channel=1 note=67 velocity=0 time=4
note_off channel=1 note=58 velocity=0 time=0
note_on channel=1 note=62 velocity=126 time=0
note_on channel=1 note=58 velocity=99 time=0
note_on channel=1 note=67 velocity=87 time=0
note_off channel=1 note=67 velocity=0 time=380
note_off channel=1 note=58 velocity=0 time=0
note_off channel=1 note=62 velocity=0 time=4
note_on channel=1 note=43 velocity=126 time=0
note_off channel=1 note=43 velocity=0 time=384
note_on channel=1 note=62 velocity=126 time=0
note_on channel=1 note=67 velocity=126 time=0
note_on channel=1 note=58 velocity=126 time=0
note_off channel=1 note=58 velocity=0 time=188
note_off channel=1 note=67 velocity=0 time=0
note_off channel=1 note=62 velocity=0 time=0
note_on channel=1 note=62 velocity=126 time=4
note_on channel=1 note=58 velocity=126 time=0
note_on channel=1 note=67 velocity=126 time=0
note_off channel=1 note=67 velocity=0 time=188
note_off channel=1 note=58 velocity=0 time=0
note_off channel=1 note=62 velocity=0 time=0
note_on channel=1 note=58 velocity=126 time=4
note_on channel=1 note=62 velocity=126 time=0
note_on channel=1 note=67 velocity=126 time=0
note_off channel=1 note=67 velocity=0 time=384
note_off channel=1 note=62 velocity=0 time=0
note_off channel=1 note=58 velocity=0 time=0
note_on channel=1 note=48 velocity=126 time=0
note_off channel=1 note=48 velocity=0 time=384
note_on channel=1 note=64 velocity=126 time=0
note_on channel=1 note=67 velocity=126 time=0
note_on channel=1 note=60 velocity=126 time=0
note_off channel=1 note=60 velocity=0 time=188
note_off channel=1 note=67 velocity=0 time=0
note_off channel=1 note=64 velocity=0 time=0
note_on channel=1 note=64 velocity=126 time=4
note_on channel=1 note=60 velocity=126 time=0
note_on channel=1 note=67 velocity=126 time=0
note_off channel=1 note=67 velocity=0 time=188
note_off channel=1 note=60 velocity=0 time=0
note_off channel=1 note=64 velocity=0 time=0
note_on channel=1 note=64 velocity=126 time=4
note_on channel=1 note=60 velocity=126 time=0
note_on channel=1 note=67 velocity=126 time=0
note_off channel=1 note=67 velocity=0 time=384
note_off channel=1 note=60 velocity=0 time=0
note_off channel=1 note=64 velocity=0 time=0
note_on channel=1 note=48 velocity=126 time=0
note_off channel=1 note=48 velocity=0 time=384
note_on channel=1 note=64 velocity=126 time=0
note_on channel=1 note=67 velocity=126 time=0
note_on channel=1 note=60 velocity=126 time=0
note_off channel=1 note=60 velocity=0 time=188
note_off channel=1 note=67 velocity=0 time=0
note_off channel=1 note=64 velocity=0 time=0
note_on channel=1 note=64 velocity=126 time=4
note_on channel=1 note=60 velocity=126 time=0
note_on channel=1 note=67 velocity=126 time=0
note_off channel=1 note=67 velocity=0 time=188
note_off channel=1 note=60 velocity=0 time=0
note_off channel=1 note=64 velocity=0 time=0
note_on channel=1 note=64 velocity=126 time=4
note_on channel=1 note=60 velocity=126 time=0
note_on channel=1 note=67 velocity=126 time=0
note_off channel=1 note=67 velocity=0 time=384
note_off channel=1 note=60 velocity=0 time=0
note_off channel=1 note=64 velocity=0 time=0
note_on channel=1 note=41 velocity=126 time=0
note_on channel=1 note=65 velocity=126 time=384
note_on channel=1 note=60 velocity=126 time=0
note_on channel=1 note=57 velocity=126 time=0
note_off channel=1 note=57 velocity=0 time=188
note_off channel=1 note=60 velocity=0 time=0
note_off channel=1 note=65 velocity=0 time=0
note_on channel=1 note=60 velocity=126 time=4
note_on channel=1 note=65 velocity=126 time=0
note_on channel=1 note=57 velocity=126 time=0
note_off channel=1 note=60 velocity=0 time=188
note_on channel=1 note=60 velocity=126 time=4
note_off channel=1 note=60 velocity=0 time=384
note_off channel=1 note=57 velocity=0 time=0
note_off channel=1 note=65 velocity=0 time=0
note_off channel=1 note=41 velocity=0 time=0
note_on channel=1 note=48 velocity=126 time=0
note_on channel=1 note=65 velocity=126 time=384
note_on channel=1 note=60 velocity=126 time=0
note_on channel=1 note=57 velocity=126 time=0
note_off channel=1 note=57 velocity=0 time=380
note_off channel=1 note=60 velocity=0 time=0
note_off channel=1 note=65 velocity=0 time=0
note_on channel=1 note=60 velocity=126 time=4
note_on channel=1 note=57 velocity=126 time=0
note_on channel=1 note=65 velocity=126 time=0
note_off channel=1 note=65 velocity=0 time=384
note_off channel=1 note=57 velocity=0 time=0
note_off channel=1 note=60 velocity=0 time=0
note_off channel=1 note=48 velocity=0 time=0
note_on channel=1 note=41 velocity=126 time=0
note_on channel=1 note=65 velocity=126 time=384
note_on channel=1 note=60 velocity=126 time=0
note_on channel=1 note=57 velocity=126 time=0
note_off channel=1 note=57 velocity=0 time=188
note_off channel=1 note=60 velocity=0 time=0
note_off channel=1 note=65 velocity=0 time=0
note_on channel=1 note=60 velocity=126 time=4
note_on channel=1 note=65 velocity=126 time=0
note_on channel=1 note=57 velocity=126 time=0
note_off channel=1 note=60 velocity=0 time=188
note_on channel=1 note=60 velocity=126 time=4
note_off channel=1 note=60 velocity=0 time=384
note_off channel=1 note=57 velocity=0 time=0
note_off channel=1 note=65 velocity=0 time=0
note_off channel=1 note=41 velocity=0 time=0
note_on channel=1 note=48 velocity=126 time=0
note_on channel=1 note=65 velocity=126 time=384
note_on channel=1 note=60 velocity=126 time=0
note_on channel=1 note=57 velocity=126 time=0
note_off channel=1 note=57 velocity=0 time=380
note_off channel=1 note=60 velocity=0 time=0
note_off channel=1 note=65 velocity=0 time=0
note_on channel=1 note=60 velocity=126 time=4
note_on channel=1 note=57 velocity=126 time=0
note_on channel=1 note=65 velocity=126 time=0
note_off channel=1 note=65 velocity=0 time=384
note_off channel=1 note=57 velocity=0 time=0
note_off channel=1 note=60 velocity=0 time=0
note_off channel=1 note=48 velocity=0 time=0
note_on channel=1 note=41 velocity=126 time=0
note_on channel=1 note=65 velocity=126 time=384
note_on channel=1 note=60 velocity=126 time=0
note_on channel=1 note=57 velocity=126 time=0
note_off channel=1 note=57 velocity=0 time=188
note_off channel=1 note=60 velocity=0 time=0
note_off channel=1 note=65 velocity=0 time=0
note_on channel=1 note=60 velocity=126 time=4
note_on channel=1 note=65 velocity=126 time=0
note_on channel=1 note=57 velocity=126 time=0
note_off channel=1 note=60 velocity=0 time=188
note_on channel=1 note=60 velocity=126 time=4
note_off channel=1 note=60 velocity=0 time=384
note_off channel=1 note=57 velocity=0 time=0
note_off channel=1 note=65 velocity=0 time=0
note_off channel=1 note=41 velocity=0 time=0
note_on channel=1 note=48 velocity=126 time=0
note_on channel=1 note=65 velocity=126 time=384
note_on channel=1 note=60 velocity=126 time=0
note_on channel=1 note=57 velocity=126 time=0
note_off channel=1 note=57 velocity=0 time=380
note_off channel=1 note=60 velocity=0 time=0
note_off channel=1 note=65 velocity=0 time=0
note_on channel=1 note=60 velocity=126 time=4
note_on channel=1 note=57 velocity=126 time=0
note_on channel=1 note=65 velocity=126 time=0
note_off channel=1 note=65 velocity=0 time=384
note_off channel=1 note=57 velocity=0 time=0
note_off channel=1 note=60 velocity=0 time=0
note_off channel=1 note=48 velocity=0 time=0
note_on channel=1 note=41 velocity=126 time=0
note_on channel=1 note=65 velocity=126 time=384
note_on channel=1 note=60 velocity=126 time=0
note_on channel=1 note=57 velocity=126 time=0
note_off channel=1 note=57 velocity=0 time=188
note_off channel=1 note=60 velocity=0 time=0
note_off channel=1 note=65 velocity=0 time=0
note_on channel=1 note=60 velocity=126 time=4
note_on channel=1 note=65 velocity=126 time=0
note_on channel=1 note=57 velocity=126 time=0
note_off channel=1 note=60 velocity=0 time=188
note_on channel=1 note=60 velocity=126 time=4
note_off channel=1 note=60 velocity=0 time=384
note_off channel=1 note=57 velocity=0 time=0
note_off channel=1 note=65 velocity=0 time=0
note_off channel=1 note=41 velocity=0 time=0
note_on channel=1 note=48 velocity=126 time=0
note_on channel=1 note=65 velocity=126 time=384
note_on channel=1 note=60 velocity=126 time=0
note_on channel=1 note=57 velocity=126 time=0
note_off channel=1 note=57 velocity=0 time=380
note_off channel=1 note=60 velocity=0 time=0
note_off channel=1 note=65 velocity=0 time=0
note_on channel=1 note=60 velocity=126 time=4
note_on channel=1 note=57 velocity=126 time=0
note_on channel=1 note=65 velocity=126 time=0
note_off channel=1 note=65 velocity=0 time=384
note_off channel=1 note=57 velocity=0 time=0
note_off channel=1 note=60 velocity=0 time=0
note_off channel=1 note=48 velocity=0 time=0
note_on channel=1 note=41 velocity=126 time=0
note_on channel=1 note=65 velocity=126 time=384
note_on channel=1 note=60 velocity=126 time=0
note_on channel=1 note=57 velocity=126 time=0
note_off channel=1 note=57 velocity=0 time=188
note_off channel=1 note=60 velocity=0 time=0
note_off channel=1 note=65 velocity=0 time=0
note_on channel=1 note=60 velocity=126 time=4
note_on channel=1 note=65 velocity=126 time=0
note_on channel=1 note=57 velocity=126 time=0
note_off channel=1 note=60 velocity=0 time=188
note_on channel=1 note=60 velocity=126 time=4
note_off channel=1 note=60 velocity=0 time=384
note_off channel=1 note=57 velocity=0 time=0
note_off channel=1 note=65 velocity=0 time=0
note_off channel=1 note=41 velocity=0 time=0
note_on channel=1 note=48 velocity=126 time=0
note_on channel=1 note=65 velocity=126 time=384
note_on channel=1 note=60 velocity=126 time=0
note_on channel=1 note=57 velocity=126 time=0
note_off channel=1 note=57 velocity=0 time=380
note_off channel=1 note=60 velocity=0 time=0
note_off channel=1 note=65 velocity=0 time=0
note_on channel=1 note=60 velocity=126 time=4
note_on channel=1 note=57 velocity=126 time=0
note_on channel=1 note=65 velocity=126 time=0
note_off channel=1 note=65 velocity=0 time=384
note_off channel=1 note=57 velocity=0 time=0
note_off channel=1 note=60 velocity=0 time=0
note_off channel=1 note=48 velocity=0 time=0
note_on channel=1 note=41 velocity=126 time=0
note_on channel=1 note=65 velocity=126 time=384
note_on channel=1 note=60 velocity=126 time=0
note_on channel=1 note=57 velocity=126 time=0
note_off channel=1 note=57 velocity=0 time=188
note_off channel=1 note=60 velocity=0 time=0
note_off channel=1 note=65 velocity=0 time=0
note_on channel=1 note=60 velocity=126 time=4
note_on channel=1 note=65 velocity=126 time=0
note_on channel=1 note=57 velocity=126 time=0
note_off channel=1 note=60 velocity=0 time=188
note_on channel=1 note=60 velocity=126 time=4
note_off channel=1 note=60 velocity=0 time=384
note_off channel=1 note=57 velocity=0 time=0
note_off channel=1 note=65 velocity=0 time=0
note_off channel=1 note=41 velocity=0 time=0
note_on channel=1 note=48 velocity=126 time=0
note_on channel=1 note=65 velocity=126 time=384
note_on channel=1 note=60 velocity=126 time=0
note_on channel=1 note=57 velocity=126 time=0
note_off channel=1 note=57 velocity=0 time=380
note_off channel=1 note=60 velocity=0 time=0
note_off channel=1 note=65 velocity=0 time=0
note_on channel=1 note=60 velocity=126 time=4
note_on channel=1 note=57 velocity=126 time=0
note_on channel=1 note=65 velocity=126 time=0
note_off channel=1 note=65 velocity=0 time=384
note_off channel=1 note=57 velocity=0 time=0
note_off channel=1 note=60 velocity=0 time=0
note_off channel=1 note=48 velocity=0 time=0
note_on channel=1 note=41 velocity=126 time=0
note_on channel=1 note=65 velocity=126 time=384
note_on channel=1 note=60 velocity=126 time=0
note_on channel=1 note=57 velocity=126 time=0
note_off channel=1 note=57 velocity=0 time=188
note_off channel=1 note=60 velocity=0 time=0
note_off channel=1 note=65 velocity=0 time=0
note_on channel=1 note=60 velocity=126 time=4
note_on channel=1 note=65 velocity=126 time=0
note_on channel=1 note=57 velocity=126 time=0
note_off channel=1 note=60 velocity=0 time=188
note_on channel=1 note=60 velocity=126 time=4
note_off channel=1 note=60 velocity=0 time=384
note_off channel=1 note=57 velocity=0 time=0
note_off channel=1 note=65 velocity=0 time=0
note_off channel=1 note=41 velocity=0 time=0
note_on channel=1 note=48 velocity=126 time=0
note_on channel=1 note=65 velocity=126 time=384
note_on channel=1 note=60 velocity=126 time=0
note_on channel=1 note=57 velocity=126 time=0
note_off channel=1 note=57 velocity=0 time=380
note_off channel=1 note=60 velocity=0 time=0
note_off channel=1 note=65 velocity=0 time=0
note_on channel=1 note=60 velocity=126 time=4
note_on channel=1 note=57 velocity=126 time=0
note_on channel=1 note=65 velocity=126 time=0
note_off channel=1 note=65 velocity=0 time=384
note_off channel=1 note=57 velocity=0 time=0
note_off channel=1 note=60 velocity=0 time=0
note_off channel=1 note=48 velocity=0 time=0
note_on channel=1 note=41 velocity=126 time=0
note_on channel=1 note=65 velocity=126 time=384
note_on channel=1 note=60 velocity=126 time=0
note_on channel=1 note=57 velocity=126 time=0
note_off channel=1 note=57 velocity=0 time=188
note_off channel=1 note=60 velocity=0 time=0
note_off channel=1 note=65 velocity=0 time=0
note_on channel=1 note=60 velocity=126 time=4
note_on channel=1 note=65 velocity=126 time=0
note_on channel=1 note=57 velocity=126 time=0
note_off channel=1 note=60 velocity=0 time=188
note_on channel=1 note=60 velocity=126 time=4
note_off channel=1 note=60 velocity=0 time=384
note_off channel=1 note=57 velocity=0 time=0
note_off channel=1 note=65 velocity=0 time=0
note_off channel=1 note=41 velocity=0 time=0
note_on channel=1 note=48 velocity=126 time=0
note_on channel=1 note=65 velocity=126 time=384
note_on channel=1 note=60 velocity=126 time=0
note_on channel=1 note=57 velocity=126 time=0
note_off channel=1 note=57 velocity=0 time=380
note_off channel=1 note=60 velocity=0 time=0
note_off channel=1 note=65 velocity=0 time=0
note_on channel=1 note=60 velocity=126 time=4
note_on channel=1 note=57 velocity=126 time=0
note_on channel=1 note=65 velocity=126 time=0
note_off channel=1 note=65 velocity=0 time=384
note_off channel=1 note=57 velocity=0 time=0
note_off channel=1 note=60 velocity=0 time=0
note_off channel=1 note=48 velocity=0 time=0
note_on channel=1 note=41 velocity=126 time=0
note_on channel=1 note=65 velocity=126 time=384
note_on channel=1 note=60 velocity=126 time=0
note_on channel=1 note=57 velocity=126 time=0
note_off channel=1 note=57 velocity=0 time=188
note_off channel=1 note=60 velocity=0 time=0
note_off channel=1 note=65 velocity=0 time=0
note_on channel=1 note=60 velocity=126 time=4
note_on channel=1 note=65 velocity=126 time=0
note_on channel=1 note=57 velocity=126 time=0
note_off channel=1 note=60 velocity=0 time=188
note_on channel=1 note=60 velocity=126 time=4
note_off channel=1 note=60 velocity=0 time=384
note_off channel=1 note=57 velocity=0 time=0
note_off channel=1 note=65 velocity=0 time=0
note_off channel=1 note=41 velocity=0 time=0
note_on channel=1 note=48 velocity=126 time=0
note_on channel=1 note=65 velocity=126 time=384
note_on channel=1 note=60 velocity=126 time=0
note_on channel=1 note=57 velocity=126 time=0
note_off channel=1 note=57 velocity=0 time=380
note_off channel=1 note=60 velocity=0 time=0
note_off channel=1 note=65 velocity=0 time=0
note_on channel=1 note=60 velocity=126 time=4
note_on channel=1 note=57 velocity=126 time=0
note_on channel=1 note=65 velocity=126 time=0
note_off channel=1 note=65 velocity=0 time=384
note_off channel=1 note=57 velocity=0 time=0
note_off channel=1 note=60 velocity=0 time=0
note_off channel=1 note=48 velocity=0 time=0
note_on channel=1 note=41 velocity=126 time=0
note_on channel=1 note=65 velocity=126 time=384
note_on channel=1 note=60 velocity=126 time=0
note_on channel=1 note=57 velocity=126 time=0
note_off channel=1 note=57 velocity=0 time=188
note_off channel=1 note=60 velocity=0 time=0
note_off channel=1 note=65 velocity=0 time=0
note_on channel=1 note=60 velocity=126 time=4
note_on channel=1 note=65 velocity=126 time=0
note_on channel=1 note=57 velocity=126 time=0
note_off channel=1 note=60 velocity=0 time=188
note_on channel=1 note=60 velocity=126 time=4
note_off channel=1 note=60 velocity=0 time=384
note_off channel=1 note=57 velocity=0 time=0
note_off channel=1 note=65 velocity=0 time=0
note_off channel=1 note=41 velocity=0 time=0
note_on channel=1 note=48 velocity=126 time=0
note_on channel=1 note=65 velocity=126 time=384
note_on channel=1 note=60 velocity=126 time=0
note_on channel=1 note=57 velocity=126 time=0
note_off channel=1 note=57 velocity=0 time=380
note_off channel=1 note=60 velocity=0 time=0
note_off channel=1 note=65 velocity=0 time=0
note_on channel=1 note=60 velocity=126 time=4
note_on channel=1 note=57 velocity=126 time=0
note_on channel=1 note=65 velocity=126 time=0
note_off channel=1 note=65 velocity=0 time=384
note_off channel=1 note=57 velocity=0 time=0
note_off channel=1 note=60 velocity=0 time=0
note_off channel=1 note=48 velocity=0 time=0
note_on channel=1 note=41 velocity=126 time=0
note_on channel=1 note=65 velocity=126 time=384
note_on channel=1 note=60 velocity=126 time=0
note_on channel=1 note=57 velocity=126 time=0
note_off channel=1 note=57 velocity=0 time=188
note_off channel=1 note=60 velocity=0 time=0
note_off channel=1 note=65 velocity=0 time=0
note_on channel=1 note=60 velocity=126 time=4
note_on channel=1 note=65 velocity=126 time=0
note_on channel=1 note=57 velocity=126 time=0
note_off channel=1 note=60 velocity=0 time=188
note_on channel=1 note=60 velocity=126 time=4
note_off channel=1 note=60 velocity=0 time=384
note_off channel=1 note=57 velocity=0 time=0
note_off channel=1 note=65 velocity=0 time=0
note_off channel=1 note=41 velocity=0 time=0
note_on channel=1 note=48 velocity=126 time=0
note_on channel=1 note=65 velocity=126 time=384
note_on channel=1 note=60 velocity=126 time=0
note_on channel=1 note=57 velocity=126 time=0
note_off channel=1 note=57 velocity=0 time=380
note_off channel=1 note=60 velocity=0 time=0
note_off channel=1 note=65 velocity=0 time=0
note_on channel=1 note=60 velocity=126 time=4
note_on channel=1 note=57 velocity=126 time=0
note_on channel=1 note=65 velocity=126 time=0
note_off channel=1 note=65 velocity=0 time=384
note_off channel=1 note=57 velocity=0 time=0
note_off channel=1 note=60 velocity=0 time=0
note_off channel=1 note=48 velocity=0 time=0
note_on channel=1 note=41 velocity=126 time=0
note_on channel=1 note=65 velocity=90 time=0
note_on channel=1 note=60 velocity=94 time=0
note_on channel=1 note=57 velocity=87 time=0
note_off channel=1 note=57 velocity=0 time=2300
note_off channel=1 note=60 velocity=0 time=0
note_off channel=1 note=65 velocity=0 time=0
note_off channel=1 note=41 velocity=0 time=0
MetaMessage('end_of_track', time=1156)
Track 3: STEEL GTR
MetaMessage('track_name', name='STEEL GTR', time=0)
program_change channel=2 program=25 time=384
control_change channel=2 control=7 value=110 time=0
pitchwheel channel=2 pitch=-2432 time=768
note_on channel=2 note=60 velocity=126 time=0
pitchwheel channel=2 pitch=-2304 time=24
pitchwheel channel=2 pitch=-2176 time=20
pitchwheel channel=2 pitch=-2048 time=20
pitchwheel channel=2 pitch=-1920 time=18
pitchwheel channel=2 pitch=-1792 time=20
pitchwheel channel=2 pitch=-1664 time=18
pitchwheel channel=2 pitch=-1536 time=26
pitchwheel channel=2 pitch=-1408 time=20
pitchwheel channel=2 pitch=-1280 time=18
pitchwheel channel=2 pitch=-1152 time=20
pitchwheel channel=2 pitch=-1024 time=20
pitchwheel channel=2 pitch=-896 time=18
pitchwheel channel=2 pitch=-768 time=26
pitchwheel channel=2 pitch=-640 time=20
pitchwheel channel=2 pitch=-512 time=18
pitchwheel channel=2 pitch=-384 time=20
pitchwheel channel=2 pitch=-256 time=18
pitchwheel channel=2 pitch=-128 time=20
pitchwheel channel=2 pitch=0 time=20
note_off channel=2 note=60 velocity=0 time=768
note_on channel=2 note=62 velocity=126 time=0
note_off channel=2 note=62 velocity=0 time=384
note_on channel=2 note=60 velocity=126 time=0
note_off channel=2 note=60 velocity=0 time=384
note_on channel=2 note=58 velocity=126 time=0
note_off channel=2 note=58 velocity=0 time=384
pitchwheel channel=2 pitch=-2304 time=0
note_on channel=2 note=57 velocity=126 time=0
pitchwheel channel=2 pitch=-2176 time=24
pitchwheel channel=2 pitch=-2048 time=20
pitchwheel channel=2 pitch=-1920 time=20
pitchwheel channel=2 pitch=-1792 time=24
pitchwheel channel=2 pitch=-1664 time=20
pitchwheel channel=2 pitch=-1536 time=20
pitchwheel channel=2 pitch=-1408 time=24
pitchwheel channel=2 pitch=-1280 time=20
pitchwheel channel=2 pitch=-1152 time=20
pitchwheel channel=2 pitch=-1024 time=24
pitchwheel channel=2 pitch=-896 time=20
pitchwheel channel=2 pitch=-768 time=20
pitchwheel channel=2 pitch=-640 time=24
pitchwheel channel=2 pitch=-512 time=20
pitchwheel channel=2 pitch=-384 time=20
pitchwheel channel=2 pitch=-256 time=24
pitchwheel channel=2 pitch=-128 time=20
pitchwheel channel=2 pitch=0 time=20
note_off channel=2 note=57 velocity=0 time=768
note_on channel=2 note=55 velocity=126 time=0
note_off channel=2 note=55 velocity=0 time=384
note_on channel=2 note=58 velocity=126 time=0
note_off channel=2 note=58 velocity=0 time=384
note_on channel=2 note=57 velocity=126 time=0
note_off channel=2 note=57 velocity=0 time=380
pitchwheel channel=2 pitch=-2304 time=4
note_on channel=2 note=53 velocity=126 time=0
pitchwheel channel=2 pitch=-2176 time=24
pitchwheel channel=2 pitch=-2048 time=20
pitchwheel channel=2 pitch=-1920 time=20
pitchwheel channel=2 pitch=-1792 time=24
pitchwheel channel=2 pitch=-1664 time=20
pitchwheel channel=2 pitch=-1536 time=20
pitchwheel channel=2 pitch=-1408 time=24
pitchwheel channel=2 pitch=-1280 time=20
pitchwheel channel=2 pitch=-1152 time=20
pitchwheel channel=2 pitch=-1024 time=24
pitchwheel channel=2 pitch=-896 time=20
pitchwheel channel=2 pitch=-768 time=20
pitchwheel channel=2 pitch=-640 time=24
pitchwheel channel=2 pitch=-512 time=20
pitchwheel channel=2 pitch=-384 time=20
pitchwheel channel=2 pitch=-256 time=24
pitchwheel channel=2 pitch=-128 time=20
pitchwheel channel=2 pitch=0 time=20
note_off channel=2 note=53 velocity=0 time=768
note_on channel=2 note=51 velocity=126 time=0
note_off channel=2 note=51 velocity=0 time=384
note_on channel=2 note=58 velocity=126 time=0
note_off channel=2 note=58 velocity=0 time=384
note_on channel=2 note=50 velocity=126 time=0
note_off channel=2 note=50 velocity=0 time=384
pitchwheel channel=2 pitch=-2432 time=0
note_on channel=2 note=48 velocity=126 time=0
pitchwheel channel=2 pitch=-2304 time=24
pitchwheel channel=2 pitch=-2176 time=20
pitchwheel channel=2 pitch=-2048 time=20
pitchwheel channel=2 pitch=-1920 time=18
pitchwheel channel=2 pitch=-1792 time=26
pitchwheel channel=2 pitch=-1664 time=20
pitchwheel channel=2 pitch=-1536 time=18
pitchwheel channel=2 pitch=-1408 time=20
pitchwheel channel=2 pitch=-1280 time=18
pitchwheel channel=2 pitch=-1152 time=26
pitchwheel channel=2 pitch=-1024 time=20
pitchwheel channel=2 pitch=-896 time=18
pitchwheel channel=2 pitch=-768 time=20
pitchwheel channel=2 pitch=-640 time=20
pitchwheel channel=2 pitch=-512 time=24
pitchwheel channel=2 pitch=-384 time=20
pitchwheel channel=2 pitch=-256 time=20
pitchwheel channel=2 pitch=-128 time=18
pitchwheel channel=2 pitch=0 time=20
note_off channel=2 note=48 velocity=0 time=1900
pitchwheel channel=2 pitch=-3840 time=14
note_on channel=2 note=60 velocity=126 time=0
pitchwheel channel=2 pitch=-3712 time=12
pitchwheel channel=2 pitch=-3584 time=12
pitchwheel channel=2 pitch=-3456 time=14
pitchwheel channel=2 pitch=-3328 time=12
pitchwheel channel=2 pitch=-3200 time=14
pitchwheel channel=2 pitch=-3072 time=12
pitchwheel channel=2 pitch=-2944 time=12
pitchwheel channel=2 pitch=-2816 time=14
pitchwheel channel=2 pitch=-2688 time=12
pitchwheel channel=2 pitch=-2560 time=14
pitchwheel channel=2 pitch=-2432 time=12
pitchwheel channel=2 pitch=-2304 time=12
pitchwheel channel=2 pitch=-2176 time=14
pitchwheel channel=2 pitch=-2048 time=12
pitchwheel channel=2 pitch=-1920 time=14
pitchwheel channel=2 pitch=-1792 time=12
pitchwheel channel=2 pitch=-1664 time=12
pitchwheel channel=2 pitch=-1536 time=14
pitchwheel channel=2 pitch=-1408 time=12
pitchwheel channel=2 pitch=-1280 time=14
pitchwheel channel=2 pitch=-1152 time=12
pitchwheel channel=2 pitch=-1024 time=12
pitchwheel channel=2 pitch=-896 time=14
pitchwheel channel=2 pitch=-768 time=12
pitchwheel channel=2 pitch=-640 time=14
pitchwheel channel=2 pitch=-512 time=12
pitchwheel channel=2 pitch=-384 time=12
pitchwheel channel=2 pitch=-256 time=14
pitchwheel channel=2 pitch=-128 time=12
pitchwheel channel=2 pitch=0 time=14
note_off channel=2 note=60 velocity=0 time=768
note_on channel=2 note=62 velocity=126 time=0
note_off channel=2 note=62 velocity=0 time=384
note_on channel=2 note=60 velocity=126 time=0
note_off channel=2 note=60 velocity=0 time=384
note_on channel=2 note=58 velocity=126 time=0
note_off channel=2 note=58 velocity=0 time=384
pitchwheel channel=2 pitch=-2432 time=0
note_on channel=2 note=57 velocity=126 time=0
pitchwheel channel=2 pitch=-2304 time=24
pitchwheel channel=2 pitch=-2176 time=20
pitchwheel channel=2 pitch=-2048 time=20
pitchwheel channel=2 pitch=-1920 time=18
pitchwheel channel=2 pitch=-1792 time=20
pitchwheel channel=2 pitch=-1664 time=18
pitchwheel channel=2 pitch=-1536 time=26
pitchwheel channel=2 pitch=-1408 time=20
pitchwheel channel=2 pitch=-1280 time=18
pitchwheel channel=2 pitch=-1152 time=20
pitchwheel channel=2 pitch=-1024 time=20
pitchwheel channel=2 pitch=-896 time=18
pitchwheel channel=2 pitch=-768 time=26
pitchwheel channel=2 pitch=-640 time=20
pitchwheel channel=2 pitch=-512 time=18
pitchwheel channel=2 pitch=-384 time=20
pitchwheel channel=2 pitch=-256 time=18
pitchwheel channel=2 pitch=-128 time=20
pitchwheel channel=2 pitch=0 time=20
note_off channel=2 note=57 velocity=0 time=768
note_on channel=2 note=55 velocity=126 time=0
note_off channel=2 note=55 velocity=0 time=384
note_on channel=2 note=58 velocity=126 time=0
note_off channel=2 note=58 velocity=0 time=384
note_on channel=2 note=57 velocity=126 time=0
note_off channel=2 note=57 velocity=0 time=380
pitchwheel channel=2 pitch=-2432 time=4
note_on channel=2 note=53 velocity=126 time=0
pitchwheel channel=2 pitch=-2304 time=24
pitchwheel channel=2 pitch=-2176 time=20
pitchwheel channel=2 pitch=-2048 time=20
pitchwheel channel=2 pitch=-1920 time=18
pitchwheel channel=2 pitch=-1792 time=20
pitchwheel channel=2 pitch=-1664 time=18
pitchwheel channel=2 pitch=-1536 time=26
pitchwheel channel=2 pitch=-1408 time=20
pitchwheel channel=2 pitch=-1280 time=18
pitchwheel channel=2 pitch=-1152 time=20
pitchwheel channel=2 pitch=-1024 time=20
pitchwheel channel=2 pitch=-896 time=18
pitchwheel channel=2 pitch=-768 time=26
pitchwheel channel=2 pitch=-640 time=20
pitchwheel channel=2 pitch=-512 time=18
pitchwheel channel=2 pitch=-384 time=20
pitchwheel channel=2 pitch=-256 time=18
pitchwheel channel=2 pitch=-128 time=20
pitchwheel channel=2 pitch=0 time=20
note_off channel=2 note=53 velocity=0 time=768
note_on channel=2 note=51 velocity=126 time=0
note_off channel=2 note=51 velocity=0 time=384
note_on channel=2 note=58 velocity=126 time=0
note_off channel=2 note=58 velocity=0 time=384
note_on channel=2 note=50 velocity=126 time=0
note_off channel=2 note=50 velocity=0 time=384
pitchwheel channel=2 pitch=-2432 time=0
note_on channel=2 note=48 velocity=126 time=0
pitchwheel channel=2 pitch=-2304 time=24
pitchwheel channel=2 pitch=-2176 time=20
pitchwheel channel=2 pitch=-2048 time=20
pitchwheel channel=2 pitch=-1920 time=18
pitchwheel channel=2 pitch=-1792 time=20
pitchwheel channel=2 pitch=-1664 time=18
pitchwheel channel=2 pitch=-1536 time=26
pitchwheel channel=2 pitch=-1408 time=20
pitchwheel channel=2 pitch=-1280 time=18
pitchwheel channel=2 pitch=-1152 time=20
pitchwheel channel=2 pitch=-1024 time=20
pitchwheel channel=2 pitch=-896 time=18
pitchwheel channel=2 pitch=-768 time=26
pitchwheel channel=2 pitch=-640 time=20
pitchwheel channel=2 pitch=-512 time=18
pitchwheel channel=2 pitch=-384 time=20
pitchwheel channel=2 pitch=-256 time=18
pitchwheel channel=2 pitch=-128 time=20
pitchwheel channel=2 pitch=0 time=20
note_off channel=2 note=48 velocity=0 time=1906
pitchwheel channel=2 pitch=-3840 time=55310
note_on channel=2 note=60 velocity=126 time=0
pitchwheel channel=2 pitch=-3712 time=12
pitchwheel channel=2 pitch=-3584 time=12
pitchwheel channel=2 pitch=-3456 time=14
pitchwheel channel=2 pitch=-3328 time=12
pitchwheel channel=2 pitch=-3200 time=14
pitchwheel channel=2 pitch=-3072 time=12
pitchwheel channel=2 pitch=-2944 time=12
pitchwheel channel=2 pitch=-2816 time=14
pitchwheel channel=2 pitch=-2688 time=12
pitchwheel channel=2 pitch=-2560 time=14
pitchwheel channel=2 pitch=-2432 time=12
pitchwheel channel=2 pitch=-2304 time=12
pitchwheel channel=2 pitch=-2176 time=14
pitchwheel channel=2 pitch=-2048 time=12
pitchwheel channel=2 pitch=-1920 time=14
pitchwheel channel=2 pitch=-1792 time=12
pitchwheel channel=2 pitch=-1664 time=12
pitchwheel channel=2 pitch=-1536 time=14
pitchwheel channel=2 pitch=-1408 time=12
pitchwheel channel=2 pitch=-1280 time=14
pitchwheel channel=2 pitch=-1152 time=12
pitchwheel channel=2 pitch=-1024 time=12
pitchwheel channel=2 pitch=-896 time=14
pitchwheel channel=2 pitch=-768 time=12
pitchwheel channel=2 pitch=-640 time=14
pitchwheel channel=2 pitch=-512 time=12
pitchwheel channel=2 pitch=-384 time=12
pitchwheel channel=2 pitch=-256 time=14
pitchwheel channel=2 pitch=-128 time=12
pitchwheel channel=2 pitch=0 time=14
note_off channel=2 note=60 velocity=0 time=768
note_on channel=2 note=62 velocity=126 time=0
note_off channel=2 note=62 velocity=0 time=384
note_on channel=2 note=60 velocity=126 time=0
note_off channel=2 note=60 velocity=0 time=384
note_on channel=2 note=58 velocity=126 time=0
note_off channel=2 note=58 velocity=0 time=384
pitchwheel channel=2 pitch=-2432 time=0
note_on channel=2 note=57 velocity=126 time=0
pitchwheel channel=2 pitch=-2304 time=24
pitchwheel channel=2 pitch=-2176 time=20
pitchwheel channel=2 pitch=-2048 time=20
pitchwheel channel=2 pitch=-1920 time=18
pitchwheel channel=2 pitch=-1792 time=20
pitchwheel channel=2 pitch=-1664 time=18
pitchwheel channel=2 pitch=-1536 time=26
pitchwheel channel=2 pitch=-1408 time=20
pitchwheel channel=2 pitch=-1280 time=18
pitchwheel channel=2 pitch=-1152 time=20
pitchwheel channel=2 pitch=-1024 time=20
pitchwheel channel=2 pitch=-896 time=18
pitchwheel channel=2 pitch=-768 time=26
pitchwheel channel=2 pitch=-640 time=20
pitchwheel channel=2 pitch=-512 time=18
pitchwheel channel=2 pitch=-384 time=20
pitchwheel channel=2 pitch=-256 time=18
pitchwheel channel=2 pitch=-128 time=20
pitchwheel channel=2 pitch=0 time=20
note_off channel=2 note=57 velocity=0 time=768
note_on channel=2 note=55 velocity=126 time=0
note_off channel=2 note=55 velocity=0 time=384
note_on channel=2 note=58 velocity=126 time=0
note_off channel=2 note=58 velocity=0 time=384
note_on channel=2 note=57 velocity=126 time=0
note_off channel=2 note=57 velocity=0 time=380
pitchwheel channel=2 pitch=-2432 time=4
note_on channel=2 note=53 velocity=126 time=0
pitchwheel channel=2 pitch=-2304 time=24
pitchwheel channel=2 pitch=-2176 time=20
pitchwheel channel=2 pitch=-2048 time=20
pitchwheel channel=2 pitch=-1920 time=18
pitchwheel channel=2 pitch=-1792 time=20
pitchwheel channel=2 pitch=-1664 time=18
pitchwheel channel=2 pitch=-1536 time=26
pitchwheel channel=2 pitch=-1408 time=20
pitchwheel channel=2 pitch=-1280 time=18
pitchwheel channel=2 pitch=-1152 time=20
pitchwheel channel=2 pitch=-1024 time=20
pitchwheel channel=2 pitch=-896 time=18
pitchwheel channel=2 pitch=-768 time=26
pitchwheel channel=2 pitch=-640 time=20
pitchwheel channel=2 pitch=-512 time=18
pitchwheel channel=2 pitch=-384 time=20
pitchwheel channel=2 pitch=-256 time=18
pitchwheel channel=2 pitch=-128 time=20
pitchwheel channel=2 pitch=0 time=20
note_off channel=2 note=53 velocity=0 time=768
note_on channel=2 note=51 velocity=126 time=0
note_off channel=2 note=51 velocity=0 time=384
note_on channel=2 note=58 velocity=126 time=0
note_off channel=2 note=58 velocity=0 time=384
note_on channel=2 note=50 velocity=126 time=0
note_off channel=2 note=50 velocity=0 time=384
pitchwheel channel=2 pitch=-2432 time=0
note_on channel=2 note=48 velocity=126 time=0
pitchwheel channel=2 pitch=-2304 time=24
pitchwheel channel=2 pitch=-2176 time=20
pitchwheel channel=2 pitch=-2048 time=20
pitchwheel channel=2 pitch=-1920 time=18
pitchwheel channel=2 pitch=-1792 time=20
pitchwheel channel=2 pitch=-1664 time=18
pitchwheel channel=2 pitch=-1536 time=26
pitchwheel channel=2 pitch=-1408 time=20
pitchwheel channel=2 pitch=-1280 time=18
pitchwheel channel=2 pitch=-1152 time=20
pitchwheel channel=2 pitch=-1024 time=20
pitchwheel channel=2 pitch=-896 time=18
pitchwheel channel=2 pitch=-768 time=26
pitchwheel channel=2 pitch=-640 time=20
pitchwheel channel=2 pitch=-512 time=18
pitchwheel channel=2 pitch=-384 time=20
pitchwheel channel=2 pitch=-256 time=18
pitchwheel channel=2 pitch=-128 time=20
pitchwheel channel=2 pitch=0 time=20
note_off channel=2 note=48 velocity=0 time=1906
pitchwheel channel=2 pitch=-3840 time=14
note_on channel=2 note=60 velocity=126 time=0
pitchwheel channel=2 pitch=-3712 time=12
pitchwheel channel=2 pitch=-3584 time=12
pitchwheel channel=2 pitch=-3456 time=14
pitchwheel channel=2 pitch=-3328 time=12
pitchwheel channel=2 pitch=-3200 time=14
pitchwheel channel=2 pitch=-3072 time=12
pitchwheel channel=2 pitch=-2944 time=12
pitchwheel channel=2 pitch=-2816 time=14
pitchwheel channel=2 pitch=-2688 time=12
pitchwheel channel=2 pitch=-2560 time=14
pitchwheel channel=2 pitch=-2432 time=12
pitchwheel channel=2 pitch=-2304 time=12
pitchwheel channel=2 pitch=-2176 time=14
pitchwheel channel=2 pitch=-2048 time=12
pitchwheel channel=2 pitch=-1920 time=14
pitchwheel channel=2 pitch=-1792 time=12
pitchwheel channel=2 pitch=-1664 time=12
pitchwheel channel=2 pitch=-1536 time=14
pitchwheel channel=2 pitch=-1408 time=12
pitchwheel channel=2 pitch=-1280 time=14
pitchwheel channel=2 pitch=-1152 time=12
pitchwheel channel=2 pitch=-1024 time=12
pitchwheel channel=2 pitch=-896 time=14
pitchwheel channel=2 pitch=-768 time=12
pitchwheel channel=2 pitch=-640 time=14
pitchwheel channel=2 pitch=-512 time=12
pitchwheel channel=2 pitch=-384 time=12
pitchwheel channel=2 pitch=-256 time=14
pitchwheel channel=2 pitch=-128 time=12
pitchwheel channel=2 pitch=0 time=14
note_off channel=2 note=60 velocity=0 time=768
note_on channel=2 note=62 velocity=126 time=0
note_off channel=2 note=62 velocity=0 time=384
note_on channel=2 note=60 velocity=126 time=0
note_off channel=2 note=60 velocity=0 time=384
note_on channel=2 note=58 velocity=126 time=0
note_off channel=2 note=58 velocity=0 time=384
pitchwheel channel=2 pitch=-2432 time=0
note_on channel=2 note=57 velocity=126 time=0
pitchwheel channel=2 pitch=-2304 time=24
pitchwheel channel=2 pitch=-2176 time=20
pitchwheel channel=2 pitch=-2048 time=20
pitchwheel channel=2 pitch=-1920 time=18
pitchwheel channel=2 pitch=-1792 time=20
pitchwheel channel=2 pitch=-1664 time=18
pitchwheel channel=2 pitch=-1536 time=26
pitchwheel channel=2 pitch=-1408 time=20
pitchwheel channel=2 pitch=-1280 time=18
pitchwheel channel=2 pitch=-1152 time=20
pitchwheel channel=2 pitch=-1024 time=20
pitchwheel channel=2 pitch=-896 time=18
pitchwheel channel=2 pitch=-768 time=26
pitchwheel channel=2 pitch=-640 time=20
pitchwheel channel=2 pitch=-512 time=18
pitchwheel channel=2 pitch=-384 time=20
pitchwheel channel=2 pitch=-256 time=18
pitchwheel channel=2 pitch=-128 time=20
pitchwheel channel=2 pitch=0 time=20
note_off channel=2 note=57 velocity=0 time=768
note_on channel=2 note=55 velocity=126 time=0
note_off channel=2 note=55 velocity=0 time=384
note_on channel=2 note=58 velocity=126 time=0
note_off channel=2 note=58 velocity=0 time=384
note_on channel=2 note=57 velocity=126 time=0
note_off channel=2 note=57 velocity=0 time=380
pitchwheel channel=2 pitch=-2432 time=4
note_on channel=2 note=53 velocity=126 time=0
pitchwheel channel=2 pitch=-2304 time=24
pitchwheel channel=2 pitch=-2176 time=20
pitchwheel channel=2 pitch=-2048 time=20
pitchwheel channel=2 pitch=-1920 time=18
pitchwheel channel=2 pitch=-1792 time=20
pitchwheel channel=2 pitch=-1664 time=18
pitchwheel channel=2 pitch=-1536 time=26
pitchwheel channel=2 pitch=-1408 time=20
pitchwheel channel=2 pitch=-1280 time=18
pitchwheel channel=2 pitch=-1152 time=20
pitchwheel channel=2 pitch=-1024 time=20
pitchwheel channel=2 pitch=-896 time=18
pitchwheel channel=2 pitch=-768 time=26
pitchwheel channel=2 pitch=-640 time=20
pitchwheel channel=2 pitch=-512 time=18
pitchwheel channel=2 pitch=-384 time=20
pitchwheel channel=2 pitch=-256 time=18
pitchwheel channel=2 pitch=-128 time=20
pitchwheel channel=2 pitch=0 time=20
note_off channel=2 note=53 velocity=0 time=768
note_on channel=2 note=51 velocity=126 time=0
note_off channel=2 note=51 velocity=0 time=384
note_on channel=2 note=58 velocity=126 time=0
note_off channel=2 note=58 velocity=0 time=384
note_on channel=2 note=50 velocity=126 time=0
note_off channel=2 note=50 velocity=0 time=384
pitchwheel channel=2 pitch=-2432 time=0
note_on channel=2 note=48 velocity=126 time=0
pitchwheel channel=2 pitch=-2304 time=24
pitchwheel channel=2 pitch=-2176 time=20
pitchwheel channel=2 pitch=-2048 time=20
pitchwheel channel=2 pitch=-1920 time=18
pitchwheel channel=2 pitch=-1792 time=20
pitchwheel channel=2 pitch=-1664 time=18
pitchwheel channel=2 pitch=-1536 time=26
pitchwheel channel=2 pitch=-1408 time=20
pitchwheel channel=2 pitch=-1280 time=18
pitchwheel channel=2 pitch=-1152 time=20
pitchwheel channel=2 pitch=-1024 time=20
pitchwheel channel=2 pitch=-896 time=18
pitchwheel channel=2 pitch=-768 time=26
pitchwheel channel=2 pitch=-640 time=20
pitchwheel channel=2 pitch=-512 time=18
pitchwheel channel=2 pitch=-384 time=20
pitchwheel channel=2 pitch=-256 time=18
pitchwheel channel=2 pitch=-128 time=20
pitchwheel channel=2 pitch=0 time=20
note_off channel=2 note=48 velocity=0 time=1906
pitchwheel channel=2 pitch=-3840 time=36878
note_on channel=2 note=60 velocity=126 time=0
pitchwheel channel=2 pitch=-3712 time=12
pitchwheel channel=2 pitch=-3584 time=12
pitchwheel channel=2 pitch=-3456 time=14
pitchwheel channel=2 pitch=-3328 time=12
pitchwheel channel=2 pitch=-3200 time=14
pitchwheel channel=2 pitch=-3072 time=12
pitchwheel channel=2 pitch=-2944 time=12
pitchwheel channel=2 pitch=-2816 time=14
pitchwheel channel=2 pitch=-2688 time=12
pitchwheel channel=2 pitch=-2560 time=14
pitchwheel channel=2 pitch=-2432 time=12
pitchwheel channel=2 pitch=-2304 time=12
pitchwheel channel=2 pitch=-2176 time=14
pitchwheel channel=2 pitch=-2048 time=12
pitchwheel channel=2 pitch=-1920 time=14
pitchwheel channel=2 pitch=-1792 time=12
pitchwheel channel=2 pitch=-1664 time=12
pitchwheel channel=2 pitch=-1536 time=14
pitchwheel channel=2 pitch=-1408 time=12
pitchwheel channel=2 pitch=-1280 time=14
pitchwheel channel=2 pitch=-1152 time=12
pitchwheel channel=2 pitch=-1024 time=12
pitchwheel channel=2 pitch=-896 time=14
pitchwheel channel=2 pitch=-768 time=12
pitchwheel channel=2 pitch=-640 time=14
pitchwheel channel=2 pitch=-512 time=12
pitchwheel channel=2 pitch=-384 time=12
pitchwheel channel=2 pitch=-256 time=14
pitchwheel channel=2 pitch=-128 time=12
pitchwheel channel=2 pitch=0 time=14
note_off channel=2 note=60 velocity=0 time=768
note_on channel=2 note=62 velocity=126 time=0
note_off channel=2 note=62 velocity=0 time=384
note_on channel=2 note=60 velocity=126 time=0
note_off channel=2 note=60 velocity=0 time=384
note_on channel=2 note=58 velocity=126 time=0
note_off channel=2 note=58 velocity=0 time=384
pitchwheel channel=2 pitch=-2432 time=0
note_on channel=2 note=57 velocity=126 time=0
pitchwheel channel=2 pitch=-2304 time=24
pitchwheel channel=2 pitch=-2176 time=20
pitchwheel channel=2 pitch=-2048 time=20
pitchwheel channel=2 pitch=-1920 time=18
pitchwheel channel=2 pitch=-1792 time=20
pitchwheel channel=2 pitch=-1664 time=18
pitchwheel channel=2 pitch=-1536 time=26
pitchwheel channel=2 pitch=-1408 time=20
pitchwheel channel=2 pitch=-1280 time=18
pitchwheel channel=2 pitch=-1152 time=20
pitchwheel channel=2 pitch=-1024 time=20
pitchwheel channel=2 pitch=-896 time=18
pitchwheel channel=2 pitch=-768 time=26
pitchwheel channel=2 pitch=-640 time=20
pitchwheel channel=2 pitch=-512 time=18
pitchwheel channel=2 pitch=-384 time=20
pitchwheel channel=2 pitch=-256 time=18
pitchwheel channel=2 pitch=-128 time=20
pitchwheel channel=2 pitch=0 time=20
note_off channel=2 note=57 velocity=0 time=768
note_on channel=2 note=55 velocity=126 time=0
note_off channel=2 note=55 velocity=0 time=384
note_on channel=2 note=58 velocity=126 time=0
note_off channel=2 note=58 velocity=0 time=384
note_on channel=2 note=57 velocity=126 time=0
note_off channel=2 note=57 velocity=0 time=380
pitchwheel channel=2 pitch=-2432 time=4
note_on channel=2 note=53 velocity=126 time=0
pitchwheel channel=2 pitch=-2304 time=24
pitchwheel channel=2 pitch=-2176 time=20
pitchwheel channel=2 pitch=-2048 time=20
pitchwheel channel=2 pitch=-1920 time=18
pitchwheel channel=2 pitch=-1792 time=20
pitchwheel channel=2 pitch=-1664 time=18
pitchwheel channel=2 pitch=-1536 time=26
pitchwheel channel=2 pitch=-1408 time=20
pitchwheel channel=2 pitch=-1280 time=18
pitchwheel channel=2 pitch=-1152 time=20
pitchwheel channel=2 pitch=-1024 time=20
pitchwheel channel=2 pitch=-896 time=18
pitchwheel channel=2 pitch=-768 time=26
pitchwheel channel=2 pitch=-640 time=20
pitchwheel channel=2 pitch=-512 time=18
pitchwheel channel=2 pitch=-384 time=20
pitchwheel channel=2 pitch=-256 time=18
pitchwheel channel=2 pitch=-128 time=20
pitchwheel channel=2 pitch=0 time=20
note_off channel=2 note=53 velocity=0 time=768
note_on channel=2 note=51 velocity=126 time=0
note_off channel=2 note=51 velocity=0 time=384
note_on channel=2 note=58 velocity=126 time=0
note_off channel=2 note=58 velocity=0 time=384
note_on channel=2 note=50 velocity=126 time=0
note_off channel=2 note=50 velocity=0 time=384
pitchwheel channel=2 pitch=-2432 time=0
note_on channel=2 note=48 velocity=126 time=0
pitchwheel channel=2 pitch=-2304 time=24
pitchwheel channel=2 pitch=-2176 time=20
pitchwheel channel=2 pitch=-2048 time=20
pitchwheel channel=2 pitch=-1920 time=18
pitchwheel channel=2 pitch=-1792 time=20
pitchwheel channel=2 pitch=-1664 time=18
pitchwheel channel=2 pitch=-1536 time=26
pitchwheel channel=2 pitch=-1408 time=20
pitchwheel channel=2 pitch=-1280 time=18
pitchwheel channel=2 pitch=-1152 time=20
pitchwheel channel=2 pitch=-1024 time=20
pitchwheel channel=2 pitch=-896 time=18
pitchwheel channel=2 pitch=-768 time=26
pitchwheel channel=2 pitch=-640 time=20
pitchwheel channel=2 pitch=-512 time=18
pitchwheel channel=2 pitch=-384 time=20
pitchwheel channel=2 pitch=-256 time=18
pitchwheel channel=2 pitch=-128 time=20
pitchwheel channel=2 pitch=0 time=20
note_off channel=2 note=48 velocity=0 time=1906
MetaMessage('end_of_track', time=1166)
Track 4: FINGERDBAS
MetaMessage('track_name', name='FINGERDBAS', time=0)
program_change channel=3 program=33 time=384
control_change channel=3 control=7 value=99 time=0
note_on channel=3 note=36 velocity=126 time=9856
note_off channel=3 note=36 velocity=0 time=124
note_on channel=3 note=41 velocity=126 time=4
note_off channel=3 note=41 velocity=0 time=1152
note_on channel=3 note=36 velocity=126 time=0
note_off channel=3 note=36 velocity=0 time=1024
note_on channel=3 note=36 velocity=126 time=0
note_off channel=3 note=36 velocity=0 time=124
note_on channel=3 note=41 velocity=126 time=4
note_off channel=3 note=41 velocity=0 time=1152
note_on channel=3 note=36 velocity=126 time=0
note_off channel=3 note=36 velocity=0 time=1024
note_on channel=3 note=36 velocity=126 time=0
note_off channel=3 note=36 velocity=0 time=124
note_on channel=3 note=41 velocity=126 time=4
note_off channel=3 note=41 velocity=0 time=1152
note_on channel=3 note=36 velocity=126 time=0
note_off channel=3 note=36 velocity=0 time=1024
note_on channel=3 note=36 velocity=126 time=0
note_off channel=3 note=36 velocity=0 time=124
note_on channel=3 note=41 velocity=126 time=4
note_off channel=3 note=41 velocity=0 time=1024
note_on channel=3 note=36 velocity=126 time=128
note_off channel=3 note=36 velocity=0 time=1024
note_on channel=3 note=36 velocity=127 time=0
note_off channel=3 note=36 velocity=0 time=124
note_on channel=3 note=41 velocity=126 time=4
note_off channel=3 note=41 velocity=0 time=1152
note_on channel=3 note=36 velocity=126 time=0
note_off channel=3 note=36 velocity=0 time=1024
note_on channel=3 note=36 velocity=126 time=0
note_off channel=3 note=36 velocity=0 time=124
note_on channel=3 note=41 velocity=126 time=4
note_off channel=3 note=41 velocity=0 time=1152
note_on channel=3 note=36 velocity=126 time=0
note_off channel=3 note=36 velocity=0 time=1024
note_on channel=3 note=36 velocity=126 time=0
note_off channel=3 note=36 velocity=0 time=124
note_on channel=3 note=41 velocity=126 time=4
note_off channel=3 note=41 velocity=0 time=1152
note_on channel=3 note=36 velocity=126 time=0
note_off channel=3 note=36 velocity=0 time=384
note_on channel=3 note=39 velocity=126 time=0
note_off channel=3 note=39 velocity=0 time=384
note_on channel=3 note=41 velocity=126 time=0
note_off channel=3 note=41 velocity=0 time=384
note_on channel=3 note=29 velocity=126 time=0
note_off channel=3 note=29 velocity=0 time=1152
note_on channel=3 note=36 velocity=126 time=0
note_off channel=3 note=36 velocity=0 time=1024
note_on channel=3 note=36 velocity=112 time=0
note_off channel=3 note=36 velocity=0 time=124
note_on channel=3 note=41 velocity=126 time=4
note_off channel=3 note=41 velocity=0 time=1152
note_on channel=3 note=36 velocity=126 time=0
note_off channel=3 note=36 velocity=0 time=1024
note_on channel=3 note=36 velocity=126 time=0
note_off channel=3 note=36 velocity=0 time=124
note_on channel=3 note=41 velocity=126 time=4
note_off channel=3 note=41 velocity=0 time=1152
note_on channel=3 note=36 velocity=126 time=0
note_off channel=3 note=36 velocity=0 time=1024
note_on channel=3 note=36 velocity=126 time=0
note_off channel=3 note=36 velocity=0 time=124
note_on channel=3 note=41 velocity=126 time=4
note_off channel=3 note=41 velocity=0 time=1152
note_on channel=3 note=36 velocity=126 time=0
note_off channel=3 note=36 velocity=0 time=384
note_on channel=3 note=39 velocity=126 time=0
note_off channel=3 note=39 velocity=0 time=384
note_on channel=3 note=41 velocity=126 time=0
note_off channel=3 note=41 velocity=0 time=384
note_on channel=3 note=29 velocity=126 time=0
note_off channel=3 note=29 velocity=0 time=1152
note_on channel=3 note=36 velocity=126 time=0
note_off channel=3 note=36 velocity=0 time=1024
note_on channel=3 note=36 velocity=112 time=0
note_off channel=3 note=36 velocity=0 time=124
note_on channel=3 note=29 velocity=126 time=4
note_off channel=3 note=29 velocity=0 time=896
note_on channel=3 note=29 velocity=126 time=128
note_off channel=3 note=29 velocity=0 time=124
note_on channel=3 note=29 velocity=126 time=4
note_off channel=3 note=29 velocity=0 time=1024
note_on channel=3 note=29 velocity=126 time=128
note_off channel=3 note=29 velocity=0 time=896
note_on channel=3 note=29 velocity=126 time=128
note_off channel=3 note=29 velocity=0 time=124
note_on channel=3 note=29 velocity=126 time=4
note_off channel=3 note=29 velocity=0 time=1024
note_on channel=3 note=34 velocity=126 time=128
note_off channel=3 note=34 velocity=0 time=1152
note_on channel=3 note=29 velocity=126 time=0
note_off channel=3 note=29 velocity=0 time=1152
note_on channel=3 note=34 velocity=126 time=0
note_off channel=3 note=34 velocity=0 time=1152
note_on channel=3 note=29 velocity=126 time=0
note_off channel=3 note=29 velocity=0 time=1148
note_on channel=3 note=29 velocity=126 time=4
note_off channel=3 note=29 velocity=0 time=1024
note_on channel=3 note=29 velocity=126 time=0
note_off channel=3 note=29 velocity=0 time=124
note_on channel=3 note=29 velocity=126 time=4
note_off channel=3 note=29 velocity=0 time=1148
note_on channel=3 note=29 velocity=126 time=4
note_off channel=3 note=29 velocity=0 time=1024
note_on channel=3 note=29 velocity=126 time=0
note_off channel=3 note=29 velocity=0 time=124
note_on channel=3 note=29 velocity=126 time=4
note_off channel=3 note=29 velocity=0 time=896
note_on channel=3 note=31 velocity=126 time=256
note_off channel=3 note=31 velocity=0 time=896
note_on channel=3 note=31 velocity=126 time=128
note_off channel=3 note=31 velocity=0 time=124
note_on channel=3 note=31 velocity=126 time=4
note_off channel=3 note=31 velocity=0 time=1024
note_on channel=3 note=36 velocity=126 time=128
note_off channel=3 note=36 velocity=0 time=1024
note_on channel=3 note=36 velocity=89 time=0
note_off channel=3 note=36 velocity=0 time=124
note_on channel=3 note=36 velocity=99 time=4
note_off channel=3 note=36 velocity=0 time=1148
note_on channel=3 note=41 velocity=126 time=4
note_off channel=3 note=41 velocity=0 time=1152
note_on channel=3 note=36 velocity=126 time=0
note_off channel=3 note=36 velocity=0 time=1024
note_on channel=3 note=36 velocity=126 time=0
note_off channel=3 note=36 velocity=0 time=124
note_on channel=3 note=41 velocity=126 time=4
note_off channel=3 note=41 velocity=0 time=1152
note_on channel=3 note=36 velocity=126 time=0
note_off channel=3 note=36 velocity=0 time=1024
note_on channel=3 note=36 velocity=126 time=0
note_off channel=3 note=36 velocity=0 time=124
note_on channel=3 note=41 velocity=126 time=4
note_off channel=3 note=41 velocity=0 time=1152
note_on channel=3 note=36 velocity=126 time=0
note_off channel=3 note=36 velocity=0 time=384
note_on channel=3 note=39 velocity=126 time=0
note_off channel=3 note=39 velocity=0 time=384
note_on channel=3 note=41 velocity=126 time=0
note_off channel=3 note=41 velocity=0 time=384
note_on channel=3 note=29 velocity=126 time=0
note_off channel=3 note=29 velocity=0 time=1152
note_on channel=3 note=36 velocity=126 time=0
note_off channel=3 note=36 velocity=0 time=1024
note_on channel=3 note=36 velocity=112 time=0
note_off channel=3 note=36 velocity=0 time=124
note_on channel=3 note=41 velocity=126 time=4
note_off channel=3 note=41 velocity=0 time=1152
note_on channel=3 note=36 velocity=126 time=0
note_off channel=3 note=36 velocity=0 time=1024
note_on channel=3 note=36 velocity=126 time=0
note_off channel=3 note=36 velocity=0 time=124
note_on channel=3 note=41 velocity=126 time=4
note_off channel=3 note=41 velocity=0 time=1152
note_on channel=3 note=36 velocity=126 time=0
note_off channel=3 note=36 velocity=0 time=1024
note_on channel=3 note=36 velocity=126 time=0
note_off channel=3 note=36 velocity=0 time=124
note_on channel=3 note=41 velocity=126 time=4
note_off channel=3 note=41 velocity=0 time=1152
note_on channel=3 note=36 velocity=126 time=0
note_off channel=3 note=36 velocity=0 time=384
note_on channel=3 note=39 velocity=126 time=0
note_off channel=3 note=39 velocity=0 time=384
note_on channel=3 note=41 velocity=126 time=0
note_off channel=3 note=41 velocity=0 time=384
note_on channel=3 note=29 velocity=126 time=0
note_off channel=3 note=29 velocity=0 time=1152
note_on channel=3 note=36 velocity=126 time=0
note_off channel=3 note=36 velocity=0 time=1024
note_on channel=3 note=36 velocity=112 time=0
note_off channel=3 note=36 velocity=0 time=124
note_on channel=3 note=41 velocity=126 time=4
note_off channel=3 note=41 velocity=0 time=1152
note_on channel=3 note=36 velocity=126 time=0
note_off channel=3 note=36 velocity=0 time=1024
note_on channel=3 note=36 velocity=126 time=0
note_off channel=3 note=36 velocity=0 time=124
note_on channel=3 note=41 velocity=126 time=4
note_off channel=3 note=41 velocity=0 time=1152
note_on channel=3 note=36 velocity=126 time=0
note_off channel=3 note=36 velocity=0 time=1024
note_on channel=3 note=36 velocity=126 time=0
note_off channel=3 note=36 velocity=0 time=124
note_on channel=3 note=41 velocity=126 time=4
note_off channel=3 note=41 velocity=0 time=1152
note_on channel=3 note=36 velocity=126 time=0
note_off channel=3 note=36 velocity=0 time=1024
note_on channel=3 note=36 velocity=126 time=0
note_off channel=3 note=36 velocity=0 time=124
note_on channel=3 note=41 velocity=126 time=4
note_off channel=3 note=41 velocity=0 time=1024
note_on channel=3 note=36 velocity=126 time=128
note_off channel=3 note=36 velocity=0 time=1024
note_on channel=3 note=36 velocity=127 time=0
note_off channel=3 note=36 velocity=0 time=124
note_on channel=3 note=41 velocity=126 time=4
note_off channel=3 note=41 velocity=0 time=1152
note_on channel=3 note=36 velocity=126 time=0
note_off channel=3 note=36 velocity=0 time=1024
note_on channel=3 note=36 velocity=126 time=0
note_off channel=3 note=36 velocity=0 time=124
note_on channel=3 note=41 velocity=126 time=4
note_off channel=3 note=41 velocity=0 time=1152
note_on channel=3 note=36 velocity=126 time=0
note_off channel=3 note=36 velocity=0 time=1024
note_on channel=3 note=36 velocity=126 time=0
note_off channel=3 note=36 velocity=0 time=124
note_on channel=3 note=41 velocity=126 time=4
note_off channel=3 note=41 velocity=0 time=1152
note_on channel=3 note=36 velocity=126 time=0
note_off channel=3 note=36 velocity=0 time=1024
note_on channel=3 note=36 velocity=126 time=0
note_off channel=3 note=36 velocity=0 time=124
note_on channel=3 note=41 velocity=126 time=4
note_off channel=3 note=41 velocity=0 time=1024
note_on channel=3 note=36 velocity=126 time=128
note_off channel=3 note=36 velocity=0 time=1024
note_on channel=3 note=36 velocity=127 time=0
note_off channel=3 note=36 velocity=0 time=124
note_on channel=3 note=29 velocity=126 time=4
note_off channel=3 note=29 velocity=0 time=896
note_on channel=3 note=29 velocity=126 time=128
note_off channel=3 note=29 velocity=0 time=124
note_on channel=3 note=29 velocity=126 time=4
note_off channel=3 note=29 velocity=0 time=1024
note_on channel=3 note=29 velocity=126 time=128
note_off channel=3 note=29 velocity=0 time=896
note_on channel=3 note=29 velocity=126 time=128
note_off channel=3 note=29 velocity=0 time=124
note_on channel=3 note=29 velocity=126 time=4
note_off channel=3 note=29 velocity=0 time=1024
note_on channel=3 note=34 velocity=126 time=128
note_off channel=3 note=34 velocity=0 time=1152
note_on channel=3 note=29 velocity=126 time=0
note_off channel=3 note=29 velocity=0 time=1152
note_on channel=3 note=34 velocity=126 time=0
note_off channel=3 note=34 velocity=0 time=1152
note_on channel=3 note=29 velocity=126 time=0
note_off channel=3 note=29 velocity=0 time=1148
note_on channel=3 note=29 velocity=126 time=4
note_off channel=3 note=29 velocity=0 time=1024
note_on channel=3 note=29 velocity=126 time=0
note_off channel=3 note=29 velocity=0 time=124
note_on channel=3 note=29 velocity=126 time=4
note_off channel=3 note=29 velocity=0 time=1148
note_on channel=3 note=29 velocity=126 time=4
note_off channel=3 note=29 velocity=0 time=1024
note_on channel=3 note=29 velocity=126 time=0
note_off channel=3 note=29 velocity=0 time=124
note_on channel=3 note=29 velocity=126 time=4
note_off channel=3 note=29 velocity=0 time=896
note_on channel=3 note=31 velocity=126 time=256
note_off channel=3 note=31 velocity=0 time=896
note_on channel=3 note=31 velocity=126 time=128
note_off channel=3 note=31 velocity=0 time=124
note_on channel=3 note=31 velocity=126 time=4
note_off channel=3 note=31 velocity=0 time=1024
note_on channel=3 note=36 velocity=126 time=128
note_off channel=3 note=36 velocity=0 time=1024
note_on channel=3 note=36 velocity=89 time=0
note_off channel=3 note=36 velocity=0 time=124
note_on channel=3 note=36 velocity=99 time=4
note_off channel=3 note=36 velocity=0 time=1148
note_on channel=3 note=41 velocity=126 time=4
note_off channel=3 note=41 velocity=0 time=1152
note_on channel=3 note=36 velocity=126 time=0
note_off channel=3 note=36 velocity=0 time=1024
note_on channel=3 note=36 velocity=126 time=0
note_off channel=3 note=36 velocity=0 time=124
note_on channel=3 note=41 velocity=126 time=4
note_off channel=3 note=41 velocity=0 time=1152
note_on channel=3 note=36 velocity=126 time=0
note_off channel=3 note=36 velocity=0 time=1024
note_on channel=3 note=36 velocity=126 time=0
note_off channel=3 note=36 velocity=0 time=124
note_on channel=3 note=41 velocity=126 time=4
note_off channel=3 note=41 velocity=0 time=1152
note_on channel=3 note=36 velocity=126 time=0
note_off channel=3 note=36 velocity=0 time=384
note_on channel=3 note=39 velocity=126 time=0
note_off channel=3 note=39 velocity=0 time=384
note_on channel=3 note=41 velocity=126 time=0
note_off channel=3 note=41 velocity=0 time=384
note_on channel=3 note=29 velocity=126 time=0
note_off channel=3 note=29 velocity=0 time=1152
note_on channel=3 note=36 velocity=126 time=0
note_off channel=3 note=36 velocity=0 time=1024
note_on channel=3 note=36 velocity=112 time=0
note_off channel=3 note=36 velocity=0 time=124
note_on channel=3 note=41 velocity=126 time=4
note_off channel=3 note=41 velocity=0 time=1152
note_on channel=3 note=36 velocity=126 time=0
note_off channel=3 note=36 velocity=0 time=1024
note_on channel=3 note=36 velocity=126 time=0
note_off channel=3 note=36 velocity=0 time=124
note_on channel=3 note=41 velocity=126 time=4
note_off channel=3 note=41 velocity=0 time=1152
note_on channel=3 note=36 velocity=126 time=0
note_off channel=3 note=36 velocity=0 time=1024
note_on channel=3 note=36 velocity=126 time=0
note_off channel=3 note=36 velocity=0 time=124
note_on channel=3 note=41 velocity=126 time=4
note_off channel=3 note=41 velocity=0 time=1152
note_on channel=3 note=36 velocity=126 time=0
note_off channel=3 note=36 velocity=0 time=384
note_on channel=3 note=39 velocity=126 time=0
note_off channel=3 note=39 velocity=0 time=384
note_on channel=3 note=41 velocity=126 time=0
note_off channel=3 note=41 velocity=0 time=384
note_on channel=3 note=29 velocity=126 time=0
note_off channel=3 note=29 velocity=0 time=1152
note_on channel=3 note=36 velocity=126 time=0
note_off channel=3 note=36 velocity=0 time=1024
note_on channel=3 note=36 velocity=112 time=0
note_off channel=3 note=36 velocity=0 time=124
note_on channel=3 note=41 velocity=126 time=4
note_off channel=3 note=41 velocity=0 time=1152
note_on channel=3 note=36 velocity=126 time=0
note_off channel=3 note=36 velocity=0 time=1024
note_on channel=3 note=36 velocity=126 time=0
note_off channel=3 note=36 velocity=0 time=124
note_on channel=3 note=41 velocity=126 time=4
note_off channel=3 note=41 velocity=0 time=1152
note_on channel=3 note=36 velocity=126 time=0
note_off channel=3 note=36 velocity=0 time=1024
note_on channel=3 note=36 velocity=126 time=0
note_off channel=3 note=36 velocity=0 time=124
note_on channel=3 note=41 velocity=126 time=4
note_off channel=3 note=41 velocity=0 time=1152
note_on channel=3 note=36 velocity=126 time=0
note_off channel=3 note=36 velocity=0 time=1024
note_on channel=3 note=36 velocity=126 time=0
note_off channel=3 note=36 velocity=0 time=124
note_on channel=3 note=29 velocity=126 time=4
note_off channel=3 note=29 velocity=0 time=2300
MetaMessage('end_of_track', time=1156)
Track 5: MUTED GTR
MetaMessage('track_name', name='MUTED GTR', time=0)
program_change channel=4 program=28 time=384
control_change channel=4 control=7 value=60 time=0
note_on channel=4 note=48 velocity=126 time=9856
note_off channel=4 note=48 velocity=0 time=124
note_on channel=4 note=53 velocity=126 time=4
note_off channel=4 note=53 velocity=0 time=1152
note_on channel=4 note=48 velocity=126 time=0
note_off channel=4 note=48 velocity=0 time=1024
note_on channel=4 note=48 velocity=126 time=0
note_off channel=4 note=48 velocity=0 time=124
note_on channel=4 note=53 velocity=126 time=4
note_off channel=4 note=53 velocity=0 time=1152
note_on channel=4 note=48 velocity=126 time=0
note_off channel=4 note=48 velocity=0 time=1024
note_on channel=4 note=48 velocity=126 time=0
note_off channel=4 note=48 velocity=0 time=124
note_on channel=4 note=53 velocity=126 time=4
note_off channel=4 note=53 velocity=0 time=1152
note_on channel=4 note=48 velocity=126 time=0
note_off channel=4 note=48 velocity=0 time=1024
note_on channel=4 note=48 velocity=126 time=0
note_off channel=4 note=48 velocity=0 time=124
note_on channel=4 note=53 velocity=126 time=4
note_off channel=4 note=53 velocity=0 time=1024
note_on channel=4 note=48 velocity=126 time=128
note_off channel=4 note=48 velocity=0 time=1024
note_on channel=4 note=48 velocity=127 time=0
note_off channel=4 note=48 velocity=0 time=124
note_on channel=4 note=53 velocity=126 time=4
note_off channel=4 note=53 velocity=0 time=1152
note_on channel=4 note=48 velocity=126 time=0
note_off channel=4 note=48 velocity=0 time=1024
note_on channel=4 note=48 velocity=126 time=0
note_off channel=4 note=48 velocity=0 time=124
note_on channel=4 note=53 velocity=126 time=4
note_off channel=4 note=53 velocity=0 time=1152
note_on channel=4 note=48 velocity=126 time=0
note_off channel=4 note=48 velocity=0 time=1024
note_on channel=4 note=48 velocity=126 time=0
note_off channel=4 note=48 velocity=0 time=124
note_on channel=4 note=53 velocity=126 time=4
note_off channel=4 note=53 velocity=0 time=1152
note_on channel=4 note=48 velocity=126 time=0
note_off channel=4 note=48 velocity=0 time=384
note_on channel=4 note=51 velocity=126 time=0
note_off channel=4 note=51 velocity=0 time=384
note_on channel=4 note=53 velocity=126 time=0
note_off channel=4 note=53 velocity=0 time=384
note_on channel=4 note=41 velocity=126 time=0
note_off channel=4 note=41 velocity=0 time=1152
note_on channel=4 note=48 velocity=126 time=0
note_off channel=4 note=48 velocity=0 time=1024
note_on channel=4 note=48 velocity=112 time=0
note_off channel=4 note=48 velocity=0 time=124
note_on channel=4 note=53 velocity=126 time=4
note_off channel=4 note=53 velocity=0 time=1152
note_on channel=4 note=48 velocity=126 time=0
note_off channel=4 note=48 velocity=0 time=1024
note_on channel=4 note=48 velocity=126 time=0
note_off channel=4 note=48 velocity=0 time=124
note_on channel=4 note=53 velocity=126 time=4
note_off channel=4 note=53 velocity=0 time=1152
note_on channel=4 note=48 velocity=126 time=0
note_off channel=4 note=48 velocity=0 time=1024
note_on channel=4 note=48 velocity=126 time=0
note_off channel=4 note=48 velocity=0 time=124
note_on channel=4 note=53 velocity=126 time=4
note_off channel=4 note=53 velocity=0 time=1152
note_on channel=4 note=48 velocity=126 time=0
note_off channel=4 note=48 velocity=0 time=384
note_on channel=4 note=51 velocity=126 time=0
note_off channel=4 note=51 velocity=0 time=384
note_on channel=4 note=53 velocity=126 time=0
note_off channel=4 note=53 velocity=0 time=384
note_on channel=4 note=41 velocity=126 time=0
note_off channel=4 note=41 velocity=0 time=1152
note_on channel=4 note=48 velocity=126 time=0
note_off channel=4 note=48 velocity=0 time=1024
note_on channel=4 note=48 velocity=112 time=0
note_off channel=4 note=48 velocity=0 time=124
note_on channel=4 note=41 velocity=126 time=4
note_off channel=4 note=41 velocity=0 time=896
note_on channel=4 note=41 velocity=126 time=128
note_off channel=4 note=41 velocity=0 time=124
note_on channel=4 note=41 velocity=126 time=4
note_off channel=4 note=41 velocity=0 time=1024
note_on channel=4 note=41 velocity=126 time=128
note_off channel=4 note=41 velocity=0 time=896
note_on channel=4 note=41 velocity=126 time=128
note_off channel=4 note=41 velocity=0 time=124
note_on channel=4 note=41 velocity=126 time=4
note_off channel=4 note=41 velocity=0 time=1024
note_on channel=4 note=46 velocity=126 time=128
note_off channel=4 note=46 velocity=0 time=1152
note_on channel=4 note=41 velocity=126 time=0
note_off channel=4 note=41 velocity=0 time=1152
note_on channel=4 note=46 velocity=126 time=0
note_off channel=4 note=46 velocity=0 time=1152
note_on channel=4 note=41 velocity=126 time=0
note_off channel=4 note=41 velocity=0 time=1148
note_on channel=4 note=41 velocity=126 time=4
note_off channel=4 note=41 velocity=0 time=1024
note_on channel=4 note=41 velocity=126 time=0
note_off channel=4 note=41 velocity=0 time=124
note_on channel=4 note=41 velocity=126 time=4
note_off channel=4 note=41 velocity=0 time=1148
note_on channel=4 note=41 velocity=126 time=4
note_off channel=4 note=41 velocity=0 time=1024
note_on channel=4 note=41 velocity=126 time=0
note_off channel=4 note=41 velocity=0 time=124
note_on channel=4 note=41 velocity=126 time=4
note_off channel=4 note=41 velocity=0 time=896
note_on channel=4 note=43 velocity=126 time=256
note_off channel=4 note=43 velocity=0 time=896
note_on channel=4 note=43 velocity=126 time=128
note_off channel=4 note=43 velocity=0 time=124
note_on channel=4 note=43 velocity=126 time=4
note_off channel=4 note=43 velocity=0 time=1024
note_on channel=4 note=48 velocity=126 time=128
note_off channel=4 note=48 velocity=0 time=1024
note_on channel=4 note=48 velocity=89 time=0
note_off channel=4 note=48 velocity=0 time=124
note_on channel=4 note=48 velocity=99 time=4
note_off channel=4 note=48 velocity=0 time=1148
note_on channel=4 note=53 velocity=126 time=4
note_off channel=4 note=53 velocity=0 time=1152
note_on channel=4 note=48 velocity=126 time=0
note_off channel=4 note=48 velocity=0 time=1024
note_on channel=4 note=48 velocity=126 time=0
note_off channel=4 note=48 velocity=0 time=124
note_on channel=4 note=53 velocity=126 time=4
note_off channel=4 note=53 velocity=0 time=1152
note_on channel=4 note=48 velocity=126 time=0
note_off channel=4 note=48 velocity=0 time=1024
note_on channel=4 note=48 velocity=126 time=0
note_off channel=4 note=48 velocity=0 time=124
note_on channel=4 note=53 velocity=126 time=4
note_off channel=4 note=53 velocity=0 time=1152
note_on channel=4 note=48 velocity=126 time=0
note_off channel=4 note=48 velocity=0 time=384
note_on channel=4 note=51 velocity=126 time=0
note_off channel=4 note=51 velocity=0 time=384
note_on channel=4 note=53 velocity=126 time=0
note_off channel=4 note=53 velocity=0 time=384
note_on channel=4 note=41 velocity=126 time=0
note_off channel=4 note=41 velocity=0 time=1152
note_on channel=4 note=48 velocity=126 time=0
note_off channel=4 note=48 velocity=0 time=1024
note_on channel=4 note=48 velocity=112 time=0
note_off channel=4 note=48 velocity=0 time=124
note_on channel=4 note=53 velocity=126 time=4
note_off channel=4 note=53 velocity=0 time=1152
note_on channel=4 note=48 velocity=126 time=0
note_off channel=4 note=48 velocity=0 time=1024
note_on channel=4 note=48 velocity=126 time=0
note_off channel=4 note=48 velocity=0 time=124
note_on channel=4 note=53 velocity=126 time=4
note_off channel=4 note=53 velocity=0 time=1152
note_on channel=4 note=48 velocity=126 time=0
note_off channel=4 note=48 velocity=0 time=1024
note_on channel=4 note=48 velocity=126 time=0
note_off channel=4 note=48 velocity=0 time=124
note_on channel=4 note=53 velocity=126 time=4
note_off channel=4 note=53 velocity=0 time=1152
note_on channel=4 note=48 velocity=126 time=0
note_off channel=4 note=48 velocity=0 time=384
note_on channel=4 note=51 velocity=126 time=0
note_off channel=4 note=51 velocity=0 time=384
note_on channel=4 note=53 velocity=126 time=0
note_off channel=4 note=53 velocity=0 time=384
note_on channel=4 note=41 velocity=126 time=0
note_off channel=4 note=41 velocity=0 time=1152
note_on channel=4 note=48 velocity=126 time=0
note_off channel=4 note=48 velocity=0 time=1024
note_on channel=4 note=48 velocity=112 time=0
note_off channel=4 note=48 velocity=0 time=124
note_on channel=4 note=53 velocity=126 time=4
note_off channel=4 note=53 velocity=0 time=1152
note_on channel=4 note=48 velocity=126 time=0
note_off channel=4 note=48 velocity=0 time=1024
note_on channel=4 note=48 velocity=126 time=0
note_off channel=4 note=48 velocity=0 time=124
note_on channel=4 note=53 velocity=126 time=4
note_off channel=4 note=53 velocity=0 time=1152
note_on channel=4 note=48 velocity=126 time=0
note_off channel=4 note=48 velocity=0 time=1024
note_on channel=4 note=48 velocity=126 time=0
note_off channel=4 note=48 velocity=0 time=124
note_on channel=4 note=53 velocity=126 time=4
note_off channel=4 note=53 velocity=0 time=1152
note_on channel=4 note=48 velocity=126 time=0
note_off channel=4 note=48 velocity=0 time=1024
note_on channel=4 note=48 velocity=126 time=0
note_off channel=4 note=48 velocity=0 time=124
note_on channel=4 note=53 velocity=126 time=4
note_off channel=4 note=53 velocity=0 time=1024
note_on channel=4 note=48 velocity=126 time=128
note_off channel=4 note=48 velocity=0 time=1024
note_on channel=4 note=48 velocity=127 time=0
note_off channel=4 note=48 velocity=0 time=124
note_on channel=4 note=53 velocity=126 time=4
note_off channel=4 note=53 velocity=0 time=1152
note_on channel=4 note=48 velocity=126 time=0
note_off channel=4 note=48 velocity=0 time=1024
note_on channel=4 note=48 velocity=126 time=0
note_off channel=4 note=48 velocity=0 time=124
note_on channel=4 note=53 velocity=126 time=4
note_off channel=4 note=53 velocity=0 time=1152
note_on channel=4 note=48 velocity=126 time=0
note_off channel=4 note=48 velocity=0 time=1024
note_on channel=4 note=48 velocity=126 time=0
note_off channel=4 note=48 velocity=0 time=124
note_on channel=4 note=53 velocity=126 time=4
note_off channel=4 note=53 velocity=0 time=1152
note_on channel=4 note=48 velocity=126 time=0
note_off channel=4 note=48 velocity=0 time=1024
note_on channel=4 note=48 velocity=126 time=0
note_off channel=4 note=48 velocity=0 time=124
note_on channel=4 note=53 velocity=126 time=4
note_off channel=4 note=53 velocity=0 time=1024
note_on channel=4 note=48 velocity=126 time=128
note_off channel=4 note=48 velocity=0 time=1024
note_on channel=4 note=48 velocity=127 time=0
note_off channel=4 note=48 velocity=0 time=124
note_on channel=4 note=41 velocity=126 time=4
note_off channel=4 note=41 velocity=0 time=896
note_on channel=4 note=41 velocity=126 time=128
note_off channel=4 note=41 velocity=0 time=124
note_on channel=4 note=41 velocity=126 time=4
note_off channel=4 note=41 velocity=0 time=1024
note_on channel=4 note=41 velocity=126 time=128
note_off channel=4 note=41 velocity=0 time=896
note_on channel=4 note=41 velocity=126 time=128
note_off channel=4 note=41 velocity=0 time=124
note_on channel=4 note=41 velocity=126 time=4
note_off channel=4 note=41 velocity=0 time=1024
note_on channel=4 note=46 velocity=126 time=128
note_off channel=4 note=46 velocity=0 time=1152
note_on channel=4 note=41 velocity=126 time=0
note_off channel=4 note=41 velocity=0 time=1152
note_on channel=4 note=46 velocity=126 time=0
note_off channel=4 note=46 velocity=0 time=1152
note_on channel=4 note=41 velocity=126 time=0
note_off channel=4 note=41 velocity=0 time=1148
note_on channel=4 note=41 velocity=126 time=4
note_off channel=4 note=41 velocity=0 time=1024
note_on channel=4 note=41 velocity=126 time=0
note_off channel=4 note=41 velocity=0 time=124
note_on channel=4 note=41 velocity=126 time=4
note_off channel=4 note=41 velocity=0 time=1148
note_on channel=4 note=41 velocity=126 time=4
note_off channel=4 note=41 velocity=0 time=1024
note_on channel=4 note=41 velocity=126 time=0
note_off channel=4 note=41 velocity=0 time=124
note_on channel=4 note=41 velocity=126 time=4
note_off channel=4 note=41 velocity=0 time=896
note_on channel=4 note=43 velocity=126 time=256
note_off channel=4 note=43 velocity=0 time=896
note_on channel=4 note=43 velocity=126 time=128
note_off channel=4 note=43 velocity=0 time=124
note_on channel=4 note=43 velocity=126 time=4
note_off channel=4 note=43 velocity=0 time=1024
note_on channel=4 note=48 velocity=126 time=128
note_off channel=4 note=48 velocity=0 time=1024
note_on channel=4 note=48 velocity=89 time=0
note_off channel=4 note=48 velocity=0 time=124
note_on channel=4 note=48 velocity=99 time=4
note_off channel=4 note=48 velocity=0 time=1148
note_on channel=4 note=53 velocity=126 time=4
note_off channel=4 note=53 velocity=0 time=1152
note_on channel=4 note=48 velocity=126 time=0
note_off channel=4 note=48 velocity=0 time=1024
note_on channel=4 note=48 velocity=126 time=0
note_off channel=4 note=48 velocity=0 time=124
note_on channel=4 note=53 velocity=126 time=4
note_off channel=4 note=53 velocity=0 time=1152
note_on channel=4 note=48 velocity=126 time=0
note_off channel=4 note=48 velocity=0 time=1024
note_on channel=4 note=48 velocity=126 time=0
note_off channel=4 note=48 velocity=0 time=124
note_on channel=4 note=53 velocity=126 time=4
note_off channel=4 note=53 velocity=0 time=1152
note_on channel=4 note=48 velocity=126 time=0
note_off channel=4 note=48 velocity=0 time=384
note_on channel=4 note=51 velocity=126 time=0
note_off channel=4 note=51 velocity=0 time=384
note_on channel=4 note=53 velocity=126 time=0
note_off channel=4 note=53 velocity=0 time=384
note_on channel=4 note=41 velocity=126 time=0
note_off channel=4 note=41 velocity=0 time=1152
note_on channel=4 note=48 velocity=126 time=0
note_off channel=4 note=48 velocity=0 time=1024
note_on channel=4 note=48 velocity=112 time=0
note_off channel=4 note=48 velocity=0 time=124
note_on channel=4 note=53 velocity=126 time=4
note_off channel=4 note=53 velocity=0 time=1152
note_on channel=4 note=48 velocity=126 time=0
note_off channel=4 note=48 velocity=0 time=1024
note_on channel=4 note=48 velocity=126 time=0
note_off channel=4 note=48 velocity=0 time=124
note_on channel=4 note=53 velocity=126 time=4
note_off channel=4 note=53 velocity=0 time=1152
note_on channel=4 note=48 velocity=126 time=0
note_off channel=4 note=48 velocity=0 time=1024
note_on channel=4 note=48 velocity=126 time=0
note_off channel=4 note=48 velocity=0 time=124
note_on channel=4 note=53 velocity=126 time=4
note_off channel=4 note=53 velocity=0 time=1152
note_on channel=4 note=48 velocity=126 time=0
note_off channel=4 note=48 velocity=0 time=384
note_on channel=4 note=51 velocity=126 time=0
note_off channel=4 note=51 velocity=0 time=384
note_on channel=4 note=53 velocity=126 time=0
note_off channel=4 note=53 velocity=0 time=384
note_on channel=4 note=41 velocity=126 time=0
note_off channel=4 note=41 velocity=0 time=1152
note_on channel=4 note=48 velocity=126 time=0
note_off channel=4 note=48 velocity=0 time=1024
note_on channel=4 note=48 velocity=112 time=0
note_off channel=4 note=48 velocity=0 time=124
note_on channel=4 note=53 velocity=126 time=4
note_off channel=4 note=53 velocity=0 time=1152
note_on channel=4 note=48 velocity=126 time=0
note_off channel=4 note=48 velocity=0 time=1024
note_on channel=4 note=48 velocity=126 time=0
note_off channel=4 note=48 velocity=0 time=124
note_on channel=4 note=53 velocity=126 time=4
note_off channel=4 note=53 velocity=0 time=1152
note_on channel=4 note=48 velocity=126 time=0
note_off channel=4 note=48 velocity=0 time=1024
note_on channel=4 note=48 velocity=126 time=0
note_off channel=4 note=48 velocity=0 time=124
note_on channel=4 note=53 velocity=126 time=4
note_off channel=4 note=53 velocity=0 time=1152
note_on channel=4 note=48 velocity=126 time=0
note_off channel=4 note=48 velocity=0 time=1024
note_on channel=4 note=48 velocity=126 time=0
note_off channel=4 note=48 velocity=0 time=124
note_on channel=4 note=53 velocity=126 time=4
note_off channel=4 note=53 velocity=0 time=1024
MetaMessage('end_of_track', time=2432)
Track 6: STEEL GTR
MetaMessage('track_name', name='STEEL GTR', time=0)
program_change channel=5 program=25 time=384
control_change channel=5 control=7 value=80 time=0
note_on channel=5 note=65 velocity=126 time=768
note_on channel=5 note=60 velocity=126 time=0
note_on channel=5 note=57 velocity=126 time=0
note_off channel=5 note=57 velocity=0 time=1920
note_off channel=5 note=60 velocity=0 time=0
note_off channel=5 note=65 velocity=0 time=0
note_on channel=5 note=65 velocity=126 time=384
note_on channel=5 note=57 velocity=126 time=0
note_on channel=5 note=60 velocity=126 time=0
note_off channel=5 note=60 velocity=0 time=1920
note_off channel=5 note=57 velocity=0 time=0
note_off channel=5 note=65 velocity=0 time=0
note_on channel=5 note=60 velocity=126 time=384
note_on channel=5 note=57 velocity=126 time=0
note_on channel=5 note=65 velocity=126 time=0
note_off channel=5 note=65 velocity=0 time=1920
note_off channel=5 note=57 velocity=0 time=0
note_off channel=5 note=60 velocity=0 time=0
note_on channel=5 note=65 velocity=126 time=384
note_on channel=5 note=57 velocity=126 time=0
note_on channel=5 note=60 velocity=126 time=0
note_off channel=5 note=60 velocity=0 time=1920
note_off channel=5 note=57 velocity=0 time=0
note_off channel=5 note=65 velocity=0 time=0
note_on channel=5 note=65 velocity=126 time=384
note_on channel=5 note=60 velocity=126 time=0
note_on channel=5 note=57 velocity=126 time=0
note_off channel=5 note=57 velocity=0 time=1920
note_off channel=5 note=60 velocity=0 time=0
note_off channel=5 note=65 velocity=0 time=0
note_on channel=5 note=65 velocity=126 time=384
note_on channel=5 note=60 velocity=126 time=0
note_on channel=5 note=57 velocity=126 time=0
note_off channel=5 note=57 velocity=0 time=1920
note_off channel=5 note=60 velocity=0 time=0
note_off channel=5 note=65 velocity=0 time=0
note_on channel=5 note=65 velocity=126 time=384
note_on channel=5 note=57 velocity=126 time=0
note_on channel=5 note=60 velocity=126 time=0
note_off channel=5 note=60 velocity=0 time=1920
note_off channel=5 note=57 velocity=0 time=0
note_off channel=5 note=65 velocity=0 time=0
note_on channel=5 note=65 velocity=126 time=384
note_on channel=5 note=60 velocity=126 time=0
note_on channel=5 note=57 velocity=126 time=0
note_off channel=5 note=57 velocity=0 time=1920
note_off channel=5 note=60 velocity=0 time=0
note_off channel=5 note=65 velocity=0 time=0
note_on channel=5 note=65 velocity=126 time=384
note_on channel=5 note=60 velocity=126 time=0
note_on channel=5 note=57 velocity=126 time=0
note_off channel=5 note=57 velocity=0 time=1920
note_off channel=5 note=60 velocity=0 time=0
note_off channel=5 note=65 velocity=0 time=0
note_on channel=5 note=65 velocity=126 time=384
note_on channel=5 note=60 velocity=126 time=0
note_on channel=5 note=57 velocity=126 time=0
note_off channel=5 note=57 velocity=0 time=1920
note_off channel=5 note=60 velocity=0 time=0
note_off channel=5 note=65 velocity=0 time=0
note_on channel=5 note=65 velocity=126 time=384
note_on channel=5 note=60 velocity=126 time=0
note_on channel=5 note=57 velocity=126 time=0
note_off channel=5 note=57 velocity=0 time=1920
note_off channel=5 note=60 velocity=0 time=0
note_off channel=5 note=65 velocity=0 time=0
note_on channel=5 note=60 velocity=126 time=384
note_on channel=5 note=57 velocity=126 time=0
note_on channel=5 note=65 velocity=126 time=0
note_off channel=5 note=65 velocity=0 time=1920
note_off channel=5 note=57 velocity=0 time=0
note_off channel=5 note=60 velocity=0 time=0
note_on channel=5 note=57 velocity=126 time=384
note_on channel=5 note=60 velocity=126 time=0
note_on channel=5 note=65 velocity=126 time=0
note_off channel=5 note=65 velocity=0 time=1920
note_off channel=5 note=60 velocity=0 time=0
note_off channel=5 note=57 velocity=0 time=0
note_on channel=5 note=60 velocity=126 time=384
note_on channel=5 note=57 velocity=126 time=0
note_on channel=5 note=65 velocity=126 time=0
note_off channel=5 note=65 velocity=0 time=1920
note_off channel=5 note=60 velocity=0 time=0
note_off channel=5 note=57 velocity=0 time=384
note_on channel=5 note=60 velocity=126 time=0
note_on channel=5 note=65 velocity=126 time=0
note_on channel=5 note=57 velocity=126 time=0
note_off channel=5 note=57 velocity=0 time=1920
note_off channel=5 note=65 velocity=0 time=0
note_off channel=5 note=60 velocity=0 time=0
note_on channel=5 note=65 velocity=126 time=384
note_on channel=5 note=60 velocity=126 time=0
note_on channel=5 note=57 velocity=126 time=0
note_off channel=5 note=57 velocity=0 time=1920
note_off channel=5 note=60 velocity=0 time=0
note_off channel=5 note=65 velocity=0 time=0
note_on channel=5 note=60 velocity=126 time=384
note_on channel=5 note=65 velocity=126 time=0
note_on channel=5 note=56 velocity=126 time=0
note_off channel=5 note=56 velocity=0 time=2304
note_off channel=5 note=65 velocity=0 time=0
note_off channel=5 note=60 velocity=0 time=0
note_on channel=5 note=65 velocity=126 time=0
note_on channel=5 note=60 velocity=126 time=0
note_on channel=5 note=56 velocity=126 time=0
note_off channel=5 note=56 velocity=0 time=1920
note_off channel=5 note=60 velocity=0 time=0
note_off channel=5 note=65 velocity=0 time=0
note_on channel=5 note=65 velocity=126 time=384
note_on channel=5 note=58 velocity=126 time=0
note_on channel=5 note=62 velocity=126 time=0
note_off channel=5 note=58 velocity=0 time=1920
note_off channel=5 note=62 velocity=0 time=384
note_off channel=5 note=65 velocity=0 time=0
note_on channel=5 note=58 velocity=126 time=0
note_on channel=5 note=65 velocity=126 time=0
note_on channel=5 note=62 velocity=126 time=0
note_off channel=5 note=62 velocity=0 time=1920
note_off channel=5 note=65 velocity=0 time=0
note_off channel=5 note=58 velocity=0 time=0
note_on channel=5 note=60 velocity=126 time=384
note_on channel=5 note=56 velocity=126 time=0
note_on channel=5 note=65 velocity=126 time=0
note_off channel=5 note=65 velocity=0 time=2304
note_off channel=5 note=56 velocity=0 time=0
note_off channel=5 note=60 velocity=0 time=0
note_on channel=5 note=60 velocity=126 time=0
note_on channel=5 note=65 velocity=126 time=0
note_on channel=5 note=56 velocity=126 time=0
note_off channel=5 note=56 velocity=0 time=1920
note_off channel=5 note=65 velocity=0 time=0
note_off channel=5 note=60 velocity=0 time=0
note_on channel=5 note=67 velocity=126 time=384
note_on channel=5 note=58 velocity=126 time=0
note_on channel=5 note=62 velocity=126 time=0
note_off channel=5 note=62 velocity=0 time=1920
note_off channel=5 note=58 velocity=0 time=0
note_off channel=5 note=67 velocity=0 time=0
note_on channel=5 note=60 velocity=126 time=384
note_on channel=5 note=64 velocity=126 time=0
note_on channel=5 note=67 velocity=126 time=0
note_off channel=5 note=67 velocity=0 time=1920
note_off channel=5 note=64 velocity=0 time=0
note_off channel=5 note=60 velocity=0 time=0
note_on channel=5 note=65 velocity=126 time=384
note_on channel=5 note=60 velocity=126 time=0
note_on channel=5 note=57 velocity=126 time=0
note_off channel=5 note=57 velocity=0 time=1152
note_off channel=5 note=60 velocity=0 time=768
note_off channel=5 note=65 velocity=0 time=0
note_on channel=5 note=65 velocity=126 time=384
note_on channel=5 note=60 velocity=126 time=0
note_on channel=5 note=57 velocity=126 time=0
note_off channel=5 note=57 velocity=0 time=1920
note_off channel=5 note=60 velocity=0 time=0
note_off channel=5 note=65 velocity=0 time=0
note_on channel=5 note=65 velocity=126 time=384
note_on channel=5 note=60 velocity=126 time=0
note_on channel=5 note=57 velocity=126 time=0
note_off channel=5 note=57 velocity=0 time=1920
note_off channel=5 note=60 velocity=0 time=0
note_off channel=5 note=65 velocity=0 time=0
note_on channel=5 note=60 velocity=126 time=384
note_on channel=5 note=65 velocity=126 time=0
note_on channel=5 note=57 velocity=126 time=0
note_off channel=5 note=57 velocity=0 time=1920
note_off channel=5 note=65 velocity=0 time=0
note_off channel=5 note=60 velocity=0 time=0
note_on channel=5 note=65 velocity=126 time=384
note_on channel=5 note=60 velocity=126 time=0
note_on channel=5 note=57 velocity=126 time=0
note_off channel=5 note=57 velocity=0 time=1920
note_off channel=5 note=60 velocity=0 time=0
note_off channel=5 note=65 velocity=0 time=0
note_on channel=5 note=57 velocity=126 time=384
note_on channel=5 note=60 velocity=126 time=0
note_on channel=5 note=65 velocity=126 time=0
note_off channel=5 note=65 velocity=0 time=1920
note_off channel=5 note=60 velocity=0 time=0
note_off channel=5 note=57 velocity=0 time=0
note_on channel=5 note=65 velocity=126 time=384
note_on channel=5 note=60 velocity=126 time=0
note_on channel=5 note=57 velocity=126 time=0
note_off channel=5 note=57 velocity=0 time=1920
note_off channel=5 note=60 velocity=0 time=0
note_off channel=5 note=65 velocity=0 time=0
note_on channel=5 note=65 velocity=126 time=384
note_on channel=5 note=57 velocity=126 time=0
note_on channel=5 note=60 velocity=126 time=0
note_off channel=5 note=60 velocity=0 time=1920
note_off channel=5 note=57 velocity=0 time=0
note_off channel=5 note=65 velocity=0 time=0
note_on channel=5 note=65 velocity=126 time=384
note_on channel=5 note=60 velocity=126 time=0
note_on channel=5 note=57 velocity=126 time=0
note_off channel=5 note=57 velocity=0 time=1920
note_off channel=5 note=60 velocity=0 time=0
note_off channel=5 note=65 velocity=0 time=0
note_on channel=5 note=65 velocity=126 time=384
note_on channel=5 note=60 velocity=126 time=0
note_on channel=5 note=57 velocity=126 time=0
note_off channel=5 note=57 velocity=0 time=1920
note_off channel=5 note=60 velocity=0 time=0
note_off channel=5 note=65 velocity=0 time=0
note_on channel=5 note=65 velocity=126 time=384
note_on channel=5 note=57 velocity=126 time=0
note_on channel=5 note=60 velocity=126 time=0
note_off channel=5 note=60 velocity=0 time=1920
note_off channel=5 note=57 velocity=0 time=0
note_off channel=5 note=65 velocity=0 time=0
note_on channel=5 note=65 velocity=126 time=384
note_on channel=5 note=60 velocity=126 time=0
note_on channel=5 note=57 velocity=126 time=0
note_off channel=5 note=57 velocity=0 time=1920
note_off channel=5 note=60 velocity=0 time=0
note_off channel=5 note=65 velocity=0 time=0
note_on channel=5 note=65 velocity=126 time=384
note_on channel=5 note=60 velocity=126 time=0
note_on channel=5 note=57 velocity=126 time=0
note_off channel=5 note=57 velocity=0 time=1920
note_off channel=5 note=60 velocity=0 time=0
note_off channel=5 note=65 velocity=0 time=0
note_on channel=5 note=65 velocity=126 time=384
note_on channel=5 note=60 velocity=126 time=0
note_on channel=5 note=57 velocity=126 time=0
note_off channel=5 note=57 velocity=0 time=1920
note_off channel=5 note=60 velocity=0 time=0
note_off channel=5 note=65 velocity=0 time=0
note_on channel=5 note=65 velocity=126 time=384
note_on channel=5 note=57 velocity=126 time=0
note_on channel=5 note=60 velocity=126 time=0
note_off channel=5 note=60 velocity=0 time=1920
note_off channel=5 note=57 velocity=0 time=0
note_off channel=5 note=65 velocity=0 time=0
note_on channel=5 note=65 velocity=126 time=384
note_on channel=5 note=60 velocity=126 time=0
note_on channel=5 note=57 velocity=126 time=0
note_off channel=5 note=57 velocity=0 time=1920
note_off channel=5 note=60 velocity=0 time=0
note_off channel=5 note=65 velocity=0 time=0
note_on channel=5 note=60 velocity=126 time=384
note_on channel=5 note=65 velocity=126 time=0
note_on channel=5 note=56 velocity=126 time=0
note_off channel=5 note=56 velocity=0 time=2304
note_off channel=5 note=65 velocity=0 time=0
note_off channel=5 note=60 velocity=0 time=0
note_on channel=5 note=65 velocity=126 time=0
note_on channel=5 note=60 velocity=126 time=0
note_on channel=5 note=56 velocity=126 time=0
note_off channel=5 note=56 velocity=0 time=1920
note_off channel=5 note=60 velocity=0 time=0
note_off channel=5 note=65 velocity=0 time=0
note_on channel=5 note=65 velocity=126 time=384
note_on channel=5 note=58 velocity=126 time=0
note_on channel=5 note=62 velocity=126 time=0
note_off channel=5 note=58 velocity=0 time=1920
note_off channel=5 note=62 velocity=0 time=384
note_off channel=5 note=65 velocity=0 time=0
note_on channel=5 note=58 velocity=126 time=0
note_on channel=5 note=65 velocity=126 time=0
note_on channel=5 note=62 velocity=126 time=0
note_off channel=5 note=62 velocity=0 time=1920
note_off channel=5 note=65 velocity=0 time=0
note_off channel=5 note=58 velocity=0 time=0
note_on channel=5 note=60 velocity=126 time=384
note_on channel=5 note=56 velocity=126 time=0
note_on channel=5 note=65 velocity=126 time=0
note_off channel=5 note=65 velocity=0 time=2304
note_off channel=5 note=56 velocity=0 time=0
note_off channel=5 note=60 velocity=0 time=0
note_on channel=5 note=60 velocity=126 time=0
note_on channel=5 note=65 velocity=126 time=0
note_on channel=5 note=56 velocity=126 time=0
note_off channel=5 note=56 velocity=0 time=1920
note_off channel=5 note=65 velocity=0 time=0
note_off channel=5 note=60 velocity=0 time=0
note_on channel=5 note=67 velocity=126 time=384
note_on channel=5 note=58 velocity=126 time=0
note_on channel=5 note=62 velocity=126 time=0
note_off channel=5 note=62 velocity=0 time=1920
note_off channel=5 note=58 velocity=0 time=0
note_off channel=5 note=67 velocity=0 time=0
note_on channel=5 note=60 velocity=126 time=384
note_on channel=5 note=64 velocity=126 time=0
note_on channel=5 note=67 velocity=126 time=0
note_off channel=5 note=67 velocity=0 time=1920
note_off channel=5 note=64 velocity=0 time=0
note_off channel=5 note=60 velocity=0 time=0
note_on channel=5 note=65 velocity=126 time=384
note_on channel=5 note=60 velocity=126 time=0
note_on channel=5 note=57 velocity=126 time=0
note_off channel=5 note=57 velocity=0 time=1152
note_off channel=5 note=60 velocity=0 time=768
note_off channel=5 note=65 velocity=0 time=0
note_on channel=5 note=65 velocity=126 time=384
note_on channel=5 note=60 velocity=126 time=0
note_on channel=5 note=57 velocity=126 time=0
note_off channel=5 note=57 velocity=0 time=1920
note_off channel=5 note=60 velocity=0 time=0
note_off channel=5 note=65 velocity=0 time=0
note_on channel=5 note=65 velocity=126 time=384
note_on channel=5 note=60 velocity=126 time=0
note_on channel=5 note=57 velocity=126 time=0
note_off channel=5 note=57 velocity=0 time=1920
note_off channel=5 note=60 velocity=0 time=0
note_off channel=5 note=65 velocity=0 time=0
note_on channel=5 note=60 velocity=126 time=384
note_on channel=5 note=65 velocity=126 time=0
note_on channel=5 note=57 velocity=126 time=0
note_off channel=5 note=57 velocity=0 time=1920
note_off channel=5 note=65 velocity=0 time=0
note_off channel=5 note=60 velocity=0 time=0
note_on channel=5 note=65 velocity=126 time=384
note_on channel=5 note=60 velocity=126 time=0
note_on channel=5 note=57 velocity=126 time=0
note_off channel=5 note=57 velocity=0 time=1920
note_off channel=5 note=60 velocity=0 time=0
note_off channel=5 note=65 velocity=0 time=0
note_on channel=5 note=57 velocity=126 time=384
note_on channel=5 note=60 velocity=126 time=0
note_on channel=5 note=65 velocity=126 time=0
note_off channel=5 note=65 velocity=0 time=1920
note_off channel=5 note=60 velocity=0 time=0
note_off channel=5 note=57 velocity=0 time=0
note_on channel=5 note=65 velocity=126 time=384
note_on channel=5 note=60 velocity=126 time=0
note_on channel=5 note=57 velocity=126 time=0
note_off channel=5 note=57 velocity=0 time=1920
note_off channel=5 note=60 velocity=0 time=0
note_off channel=5 note=65 velocity=0 time=0
note_on channel=5 note=65 velocity=126 time=384
note_on channel=5 note=57 velocity=126 time=0
note_on channel=5 note=60 velocity=126 time=0
note_off channel=5 note=60 velocity=0 time=1920
note_off channel=5 note=57 velocity=0 time=0
note_off channel=5 note=65 velocity=0 time=0
note_on channel=5 note=65 velocity=126 time=384
note_on channel=5 note=60 velocity=126 time=0
note_on channel=5 note=57 velocity=126 time=0
note_off channel=5 note=57 velocity=0 time=1920
note_off channel=5 note=60 velocity=0 time=0
note_off channel=5 note=65 velocity=0 time=0
note_on channel=5 note=65 velocity=126 time=384
note_on channel=5 note=60 velocity=126 time=0
note_on channel=5 note=57 velocity=126 time=0
note_off channel=5 note=57 velocity=0 time=1920
note_off channel=5 note=60 velocity=0 time=0
note_off channel=5 note=65 velocity=0 time=0
note_on channel=5 note=65 velocity=126 time=384
note_on channel=5 note=57 velocity=126 time=0
note_on channel=5 note=60 velocity=126 time=0
note_off channel=5 note=60 velocity=0 time=1920
note_off channel=5 note=57 velocity=0 time=0
note_off channel=5 note=65 velocity=0 time=0
note_on channel=5 note=65 velocity=126 time=384
note_on channel=5 note=60 velocity=126 time=0
note_on channel=5 note=57 velocity=126 time=0
note_off channel=5 note=57 velocity=0 time=2300
note_off channel=5 note=60 velocity=0 time=0
note_off channel=5 note=65 velocity=0 time=0
MetaMessage('end_of_track', time=1156)
Track 7: BARITONSAX
MetaMessage('track_name', name='BARITONSAX', time=0)
program_change channel=6 program=67 time=384
control_change channel=6 control=7 value=85 time=0
note_on channel=6 note=48 velocity=99 time=19192
note_off channel=6 note=48 velocity=0 time=1148
note_on channel=6 note=50 velocity=126 time=4
note_off channel=6 note=50 velocity=0 time=380
note_on channel=6 note=48 velocity=126 time=4
note_off channel=6 note=48 velocity=0 time=380
note_on channel=6 note=46 velocity=126 time=4
note_off channel=6 note=46 velocity=0 time=380
note_on channel=6 note=45 velocity=126 time=4
note_off channel=6 note=45 velocity=0 time=1152
note_on channel=6 note=43 velocity=126 time=0
note_off channel=6 note=43 velocity=0 time=380
note_on channel=6 note=46 velocity=126 time=4
note_off channel=6 note=46 velocity=0 time=380
note_on channel=6 note=45 velocity=126 time=4
note_off channel=6 note=45 velocity=0 time=380
note_on channel=6 note=41 velocity=126 time=4
note_off channel=6 note=41 velocity=0 time=1152
note_on channel=6 note=39 velocity=126 time=0
note_off channel=6 note=39 velocity=0 time=380
note_on channel=6 note=46 velocity=126 time=4
note_off channel=6 note=46 velocity=0 time=384
note_on channel=6 note=38 velocity=126 time=0
note_off channel=6 note=38 velocity=0 time=380
note_on channel=6 note=36 velocity=126 time=4
note_off channel=6 note=36 velocity=0 time=1920
note_on channel=6 note=48 velocity=99 time=384
note_off channel=6 note=48 velocity=0 time=996
note_on channel=6 note=50 velocity=126 time=156
note_off channel=6 note=50 velocity=0 time=380
note_on channel=6 note=48 velocity=126 time=4
note_off channel=6 note=48 velocity=0 time=380
note_on channel=6 note=46 velocity=126 time=4
note_off channel=6 note=46 velocity=0 time=380
note_on channel=6 note=45 velocity=126 time=4
note_off channel=6 note=45 velocity=0 time=1152
note_on channel=6 note=43 velocity=126 time=0
note_off channel=6 note=43 velocity=0 time=380
note_on channel=6 note=46 velocity=126 time=4
note_off channel=6 note=46 velocity=0 time=380
note_on channel=6 note=45 velocity=126 time=4
note_off channel=6 note=45 velocity=0 time=380
note_on channel=6 note=41 velocity=126 time=4
note_off channel=6 note=41 velocity=0 time=1152
note_on channel=6 note=39 velocity=126 time=0
note_off channel=6 note=39 velocity=0 time=380
note_on channel=6 note=46 velocity=126 time=4
note_off channel=6 note=46 velocity=0 time=384
note_on channel=6 note=38 velocity=126 time=0
note_off channel=6 note=38 velocity=0 time=380
note_on channel=6 note=36 velocity=126 time=4
note_off channel=6 note=36 velocity=0 time=1920
note_on channel=6 note=48 velocity=99 time=18816
note_off channel=6 note=48 velocity=0 time=1148
note_on channel=6 note=50 velocity=126 time=4
note_off channel=6 note=50 velocity=0 time=380
note_on channel=6 note=48 velocity=126 time=4
note_off channel=6 note=48 velocity=0 time=380
note_on channel=6 note=46 velocity=126 time=4
note_off channel=6 note=46 velocity=0 time=380
note_on channel=6 note=45 velocity=126 time=4
note_off channel=6 note=45 velocity=0 time=1152
note_on channel=6 note=43 velocity=126 time=0
note_off channel=6 note=43 velocity=0 time=380
note_on channel=6 note=46 velocity=126 time=4
note_off channel=6 note=46 velocity=0 time=380
note_on channel=6 note=45 velocity=126 time=4
note_off channel=6 note=45 velocity=0 time=380
note_on channel=6 note=41 velocity=126 time=4
note_off channel=6 note=41 velocity=0 time=1152
note_on channel=6 note=39 velocity=126 time=0
note_off channel=6 note=39 velocity=0 time=380
note_on channel=6 note=45 velocity=126 time=4
note_off channel=6 note=45 velocity=0 time=384
note_on channel=6 note=38 velocity=126 time=0
note_off channel=6 note=38 velocity=0 time=380
note_on channel=6 note=36 velocity=126 time=4
note_off channel=6 note=36 velocity=0 time=1920
note_on channel=6 note=48 velocity=99 time=384
note_off channel=6 note=48 velocity=0 time=1148
note_on channel=6 note=50 velocity=126 time=4
note_off channel=6 note=50 velocity=0 time=380
note_on channel=6 note=48 velocity=126 time=4
note_off channel=6 note=48 velocity=0 time=380
note_on channel=6 note=46 velocity=126 time=4
note_off channel=6 note=46 velocity=0 time=380
note_on channel=6 note=45 velocity=126 time=4
note_off channel=6 note=45 velocity=0 time=1152
note_on channel=6 note=43 velocity=126 time=0
note_off channel=6 note=43 velocity=0 time=380
note_on channel=6 note=46 velocity=126 time=4
note_off channel=6 note=46 velocity=0 time=380
note_on channel=6 note=45 velocity=126 time=4
note_off channel=6 note=45 velocity=0 time=380
note_on channel=6 note=41 velocity=126 time=4
note_off channel=6 note=41 velocity=0 time=1152
note_on channel=6 note=39 velocity=126 time=0
note_off channel=6 note=39 velocity=0 time=380
note_on channel=6 note=46 velocity=126 time=4
note_off channel=6 note=46 velocity=0 time=384
note_on channel=6 note=38 velocity=126 time=0
note_off channel=6 note=38 velocity=0 time=380
note_on channel=6 note=36 velocity=126 time=4
note_off channel=6 note=36 velocity=0 time=2304
note_on channel=6 note=48 velocity=99 time=36864
note_off channel=6 note=48 velocity=0 time=1148
note_on channel=6 note=50 velocity=126 time=4
note_off channel=6 note=50 velocity=0 time=380
note_on channel=6 note=48 velocity=126 time=4
note_off channel=6 note=48 velocity=0 time=380
note_on channel=6 note=46 velocity=126 time=4
note_off channel=6 note=46 velocity=0 time=380
note_on channel=6 note=45 velocity=126 time=4
note_off channel=6 note=45 velocity=0 time=1152
note_on channel=6 note=43 velocity=126 time=0
note_off channel=6 note=43 velocity=0 time=380
note_on channel=6 note=46 velocity=126 time=4
note_off channel=6 note=46 velocity=0 time=380
note_on channel=6 note=45 velocity=126 time=4
note_off channel=6 note=45 velocity=0 time=380
note_on channel=6 note=41 velocity=126 time=4
note_off channel=6 note=41 velocity=0 time=1152
note_on channel=6 note=39 velocity=126 time=0
note_off channel=6 note=39 velocity=0 time=380
note_on channel=6 note=46 velocity=126 time=4
note_off channel=6 note=46 velocity=0 time=384
note_on channel=6 note=38 velocity=126 time=0
note_off channel=6 note=38 velocity=0 time=380
note_on channel=6 note=36 velocity=126 time=4
note_off channel=6 note=36 velocity=0 time=1920
note_on channel=6 note=48 velocity=99 time=384
note_off channel=6 note=48 velocity=0 time=1148
note_on channel=6 note=50 velocity=126 time=4
note_off channel=6 note=50 velocity=0 time=380
note_on channel=6 note=48 velocity=126 time=4
note_off channel=6 note=48 velocity=0 time=380
note_on channel=6 note=46 velocity=126 time=4
note_off channel=6 note=46 velocity=0 time=380
note_on channel=6 note=45 velocity=126 time=4
note_off channel=6 note=45 velocity=0 time=1152
note_on channel=6 note=43 velocity=126 time=0
note_off channel=6 note=43 velocity=0 time=380
note_on channel=6 note=46 velocity=126 time=4
note_off channel=6 note=46 velocity=0 time=380
note_on channel=6 note=45 velocity=126 time=4
note_off channel=6 note=45 velocity=0 time=380
note_on channel=6 note=41 velocity=126 time=4
note_off channel=6 note=41 velocity=0 time=1152
note_on channel=6 note=39 velocity=126 time=0
note_off channel=6 note=39 velocity=0 time=380
note_on channel=6 note=46 velocity=126 time=4
note_off channel=6 note=46 velocity=0 time=384
note_on channel=6 note=38 velocity=126 time=0
note_off channel=6 note=38 velocity=0 time=380
note_on channel=6 note=36 velocity=126 time=4
note_off channel=6 note=36 velocity=0 time=1920
MetaMessage('end_of_track', time=10760)
Track 8: STEEL GTR
MetaMessage('track_name', name='STEEL GTR', time=0)
program_change channel=7 program=25 time=384
control_change channel=7 control=7 value=100 time=0
note_on channel=7 note=53 velocity=126 time=42240
note_off channel=7 note=53 velocity=0 time=128
note_on channel=7 note=55 velocity=126 time=0
note_off channel=7 note=55 velocity=0 time=128
note_on channel=7 note=53 velocity=126 time=0
note_off channel=7 note=53 velocity=0 time=128
note_on channel=7 note=52 velocity=126 time=0
note_off channel=7 note=52 velocity=0 time=192
note_on channel=7 note=53 velocity=126 time=0
note_off channel=7 note=53 velocity=0 time=188
note_on channel=7 note=58 velocity=126 time=4
note_off channel=7 note=58 velocity=0 time=380
note_on channel=7 note=58 velocity=126 time=4
note_off channel=7 note=58 velocity=0 time=128
note_on channel=7 note=60 velocity=126 time=0
note_off channel=7 note=60 velocity=0 time=128
note_on channel=7 note=58 velocity=126 time=0
note_off channel=7 note=58 velocity=0 time=128
note_on channel=7 note=57 velocity=126 time=0
note_off channel=7 note=57 velocity=0 time=192
note_on channel=7 note=58 velocity=126 time=0
note_off channel=7 note=58 velocity=0 time=188
note_on channel=7 note=62 velocity=126 time=4
note_off channel=7 note=62 velocity=0 time=380
note_on channel=7 note=65 velocity=126 time=4
note_off channel=7 note=65 velocity=0 time=128
note_on channel=7 note=67 velocity=126 time=0
note_off channel=7 note=67 velocity=0 time=128
note_on channel=7 note=65 velocity=126 time=0
note_off channel=7 note=65 velocity=0 time=128
note_on channel=7 note=64 velocity=126 time=0
note_off channel=7 note=64 velocity=0 time=192
note_on channel=7 note=65 velocity=126 time=0
note_off channel=7 note=65 velocity=0 time=192
note_on channel=7 note=70 velocity=126 time=0
note_off channel=7 note=70 velocity=0 time=380
note_on channel=7 note=70 velocity=126 time=4
note_off channel=7 note=70 velocity=0 time=128
note_on channel=7 note=72 velocity=126 time=0
note_off channel=7 note=72 velocity=0 time=128
note_on channel=7 note=70 velocity=126 time=0
note_off channel=7 note=70 velocity=0 time=128
note_on channel=7 note=69 velocity=126 time=0
note_off channel=7 note=69 velocity=0 time=192
note_on channel=7 note=70 velocity=126 time=0
note_off channel=7 note=70 velocity=0 time=192
note_on channel=7 note=74 velocity=126 time=0
note_off channel=7 note=74 velocity=0 time=384
note_on channel=7 note=53 velocity=126 time=50688
note_off channel=7 note=53 velocity=0 time=128
note_on channel=7 note=55 velocity=126 time=0
note_off channel=7 note=55 velocity=0 time=128
note_on channel=7 note=53 velocity=126 time=0
note_off channel=7 note=53 velocity=0 time=128
note_on channel=7 note=52 velocity=126 time=0
note_off channel=7 note=52 velocity=0 time=192
note_on channel=7 note=53 velocity=126 time=0
note_off channel=7 note=53 velocity=0 time=188
note_on channel=7 note=58 velocity=126 time=4
note_off channel=7 note=58 velocity=0 time=380
note_on channel=7 note=58 velocity=126 time=4
note_off channel=7 note=58 velocity=0 time=128
note_on channel=7 note=60 velocity=126 time=0
note_off channel=7 note=60 velocity=0 time=128
note_on channel=7 note=58 velocity=126 time=0
note_off channel=7 note=58 velocity=0 time=128
note_on channel=7 note=57 velocity=126 time=0
note_off channel=7 note=57 velocity=0 time=192
note_on channel=7 note=58 velocity=126 time=0
note_off channel=7 note=58 velocity=0 time=188
note_on channel=7 note=62 velocity=126 time=4
note_off channel=7 note=62 velocity=0 time=380
note_on channel=7 note=65 velocity=126 time=4
note_off channel=7 note=65 velocity=0 time=128
note_on channel=7 note=67 velocity=126 time=0
note_off channel=7 note=67 velocity=0 time=128
note_on channel=7 note=65 velocity=126 time=0
note_off channel=7 note=65 velocity=0 time=128
note_on channel=7 note=64 velocity=126 time=0
note_off channel=7 note=64 velocity=0 time=192
note_on channel=7 note=65 velocity=126 time=0
note_off channel=7 note=65 velocity=0 time=192
note_on channel=7 note=70 velocity=126 time=0
note_off channel=7 note=70 velocity=0 time=380
note_on channel=7 note=70 velocity=126 time=4
note_off channel=7 note=70 velocity=0 time=128
note_on channel=7 note=72 velocity=126 time=0
note_off channel=7 note=72 velocity=0 time=128
note_on channel=7 note=70 velocity=126 time=0
note_off channel=7 note=70 velocity=0 time=128
note_on channel=7 note=69 velocity=126 time=0
note_off channel=7 note=69 velocity=0 time=192
note_on channel=7 note=70 velocity=126 time=0
note_off channel=7 note=70 velocity=0 time=192
note_on channel=7 note=74 velocity=126 time=0
note_off channel=7 note=74 velocity=0 time=384
MetaMessage('end_of_track', time=38016)
Track 9: DRUMS
MetaMessage('track_name', name='DRUMS', time=0)
control_change channel=9 control=7 value=127 time=384
note_on channel=9 note=36 velocity=90 time=19200
note_on channel=9 note=38 velocity=55 time=1152
note_on channel=9 note=54 velocity=105 time=0
note_off channel=9 note=36 velocity=0 time=384
note_on channel=9 note=36 velocity=90 time=768
note_off channel=9 note=54 velocity=0 time=192
note_off channel=9 note=38 velocity=0 time=192
note_on channel=9 note=54 velocity=105 time=768
note_on channel=9 note=38 velocity=55 time=0
note_off channel=9 note=36 velocity=0 time=384
note_on channel=9 note=36 velocity=90 time=768
note_off channel=9 note=54 velocity=0 time=192
note_off channel=9 note=38 velocity=0 time=192
note_on channel=9 note=54 velocity=105 time=768
note_on channel=9 note=38 velocity=55 time=0
note_off channel=9 note=36 velocity=0 time=384
note_off channel=9 note=38 velocity=0 time=768
note_on channel=9 note=36 velocity=90 time=0
note_off channel=9 note=54 velocity=0 time=192
note_on channel=9 note=54 velocity=105 time=960
note_on channel=9 note=38 velocity=55 time=0
note_off channel=9 note=36 velocity=0 time=384
note_off channel=9 note=38 velocity=0 time=768
note_off channel=9 note=54 velocity=0 time=0
note_on channel=9 note=36 velocity=90 time=0
note_on channel=9 note=54 velocity=105 time=1152
note_on channel=9 note=38 velocity=55 time=0
note_off channel=9 note=36 velocity=0 time=384
note_off channel=9 note=38 velocity=0 time=768
note_on channel=9 note=36 velocity=90 time=0
note_off channel=9 note=54 velocity=0 time=192
note_on channel=9 note=54 velocity=105 time=960
note_on channel=9 note=38 velocity=55 time=0
note_off channel=9 note=36 velocity=0 time=384
note_off channel=9 note=38 velocity=0 time=768
note_off channel=9 note=54 velocity=0 time=0
note_on channel=9 note=36 velocity=90 time=0
note_on channel=9 note=54 velocity=105 time=1152
note_on channel=9 note=38 velocity=55 time=0
note_off channel=9 note=36 velocity=0 time=384
note_off channel=9 note=54 velocity=0 time=768
note_on channel=9 note=36 velocity=90 time=0
note_off channel=9 note=38 velocity=0 time=384
note_on channel=9 note=54 velocity=105 time=768
note_on channel=9 note=38 velocity=55 time=0
note_off channel=9 note=36 velocity=0 time=384
note_off channel=9 note=38 velocity=0 time=768
note_on channel=9 note=36 velocity=90 time=0
note_off channel=9 note=54 velocity=0 time=192
note_on channel=9 note=54 velocity=105 time=192
note_off channel=9 note=54 velocity=0 time=188
note_on channel=9 note=54 velocity=105 time=196
note_on channel=9 note=38 velocity=55 time=384
note_off channel=9 note=54 velocity=0 time=192
note_off channel=9 note=36 velocity=0 time=192
note_on channel=9 note=54 velocity=105 time=0
note_off channel=9 note=54 velocity=0 time=188
note_on channel=9 note=54 velocity=105 time=196
note_off channel=9 note=54 velocity=0 time=384
note_off channel=9 note=38 velocity=0 time=0
note_on channel=9 note=36 velocity=90 time=0
note_on channel=9 note=54 velocity=105 time=384
note_off channel=9 note=54 velocity=0 time=188
note_on channel=9 note=54 velocity=105 time=196
note_off channel=9 note=54 velocity=0 time=384
note_on channel=9 note=38 velocity=55 time=0
note_on channel=9 note=54 velocity=105 time=384
note_off channel=9 note=54 velocity=0 time=188
note_off channel=9 note=36 velocity=0 time=196
note_on channel=9 note=54 velocity=105 time=0
note_off channel=9 note=54 velocity=0 time=384
note_off channel=9 note=38 velocity=0 time=0
note_on channel=9 note=36 velocity=90 time=0
note_on channel=9 note=54 velocity=105 time=384
note_off channel=9 note=54 velocity=0 time=188
note_on channel=9 note=54 velocity=105 time=196
note_off channel=9 note=54 velocity=0 time=384
note_on channel=9 note=38 velocity=55 time=0
note_on channel=9 note=54 velocity=105 time=384
note_off channel=9 note=54 velocity=0 time=188
note_off channel=9 note=36 velocity=0 time=196
note_on channel=9 note=54 velocity=105 time=0
note_off channel=9 note=54 velocity=0 time=384
note_off channel=9 note=38 velocity=0 time=0
note_on channel=9 note=36 velocity=90 time=0
note_on channel=9 note=54 velocity=105 time=384
note_off channel=9 note=54 velocity=0 time=188
note_on channel=9 note=54 velocity=105 time=196
note_off channel=9 note=54 velocity=0 time=188
note_on channel=9 note=38 velocity=55 time=196
note_off channel=9 note=36 velocity=0 time=384
note_on channel=9 note=54 velocity=105 time=0
note_off channel=9 note=54 velocity=0 time=188
note_on channel=9 note=54 velocity=105 time=196
note_off channel=9 note=54 velocity=0 time=188
note_off channel=9 note=38 velocity=0 time=196
note_on channel=9 note=36 velocity=90 time=0
note_on channel=9 note=54 velocity=105 time=384
note_off channel=9 note=54 velocity=0 time=188
note_on channel=9 note=54 velocity=105 time=196
note_off channel=9 note=54 velocity=0 time=188
note_on channel=9 note=38 velocity=55 time=196
note_off channel=9 note=36 velocity=0 time=384
note_on channel=9 note=54 velocity=105 time=0
note_off channel=9 note=54 velocity=0 time=188
note_on channel=9 note=54 velocity=105 time=196
note_off channel=9 note=54 velocity=0 time=188
note_off channel=9 note=38 velocity=0 time=196
note_on channel=9 note=36 velocity=90 time=0
note_on channel=9 note=54 velocity=105 time=384
note_off channel=9 note=54 velocity=0 time=188
note_on channel=9 note=54 velocity=105 time=196
note_off channel=9 note=54 velocity=0 time=188
note_on channel=9 note=38 velocity=55 time=196
note_off channel=9 note=36 velocity=0 time=384
note_on channel=9 note=54 velocity=105 time=0
note_off channel=9 note=54 velocity=0 time=188
note_on channel=9 note=54 velocity=105 time=196
note_off channel=9 note=54 velocity=0 time=188
note_off channel=9 note=38 velocity=0 time=196
note_on channel=9 note=36 velocity=90 time=0
note_on channel=9 note=54 velocity=105 time=384
note_off channel=9 note=54 velocity=0 time=188
note_on channel=9 note=54 velocity=105 time=196
note_off channel=9 note=54 velocity=0 time=188
note_on channel=9 note=38 velocity=55 time=196
note_on channel=9 note=54 velocity=105 time=384
note_off channel=9 note=54 velocity=0 time=188
note_off channel=9 note=36 velocity=0 time=196
note_on channel=9 note=54 velocity=105 time=0
note_off channel=9 note=54 velocity=0 time=188
note_off channel=9 note=38 velocity=0 time=196
note_on channel=9 note=36 velocity=90 time=0
note_on channel=9 note=54 velocity=105 time=384
note_off channel=9 note=54 velocity=0 time=188
note_on channel=9 note=54 velocity=105 time=196
note_off channel=9 note=54 velocity=0 time=188
note_on channel=9 note=38 velocity=55 time=196
note_on channel=9 note=54 velocity=105 time=384
note_off channel=9 note=54 velocity=0 time=188
note_off channel=9 note=36 velocity=0 time=196
note_on channel=9 note=54 velocity=105 time=0
note_off channel=9 note=54 velocity=0 time=188
note_off channel=9 note=38 velocity=0 time=196
note_on channel=9 note=36 velocity=90 time=0
note_on channel=9 note=38 velocity=55 time=1152
note_on channel=9 note=54 velocity=105 time=0
note_off channel=9 note=36 velocity=0 time=768
note_on channel=9 note=36 velocity=90 time=384
note_off channel=9 note=54 velocity=0 time=192
note_off channel=9 note=38 velocity=0 time=192
note_on channel=9 note=54 velocity=105 time=768
note_on channel=9 note=38 velocity=55 time=0
note_off channel=9 note=36 velocity=0 time=768
note_off channel=9 note=38 velocity=0 time=384
note_off channel=9 note=54 velocity=0 time=0
note_on channel=9 note=36 velocity=90 time=0
note_on channel=9 note=54 velocity=105 time=1152
note_on channel=9 note=38 velocity=55 time=0
note_off channel=9 note=36 velocity=0 time=768
note_off channel=9 note=38 velocity=0 time=384
note_on channel=9 note=36 velocity=90 time=0
note_off channel=9 note=54 velocity=0 time=192
note_on channel=9 note=38 velocity=55 time=960
note_on channel=9 note=54 velocity=105 time=0
note_off channel=9 note=36 velocity=0 time=384
note_off channel=9 note=54 velocity=0 time=768
note_off channel=9 note=38 velocity=0 time=0
note_on channel=9 note=36 velocity=90 time=0
note_on channel=9 note=54 velocity=105 time=1152
note_on channel=9 note=38 velocity=55 time=0
note_off channel=9 note=36 velocity=0 time=384
note_on channel=9 note=36 velocity=90 time=768
note_off channel=9 note=54 velocity=0 time=192
note_off channel=9 note=38 velocity=0 time=192
note_on channel=9 note=54 velocity=105 time=768
note_on channel=9 note=38 velocity=55 time=0
note_off channel=9 note=36 velocity=0 time=768
note_off channel=9 note=54 velocity=0 time=384
note_on channel=9 note=36 velocity=90 time=0
note_off channel=9 note=38 velocity=0 time=384
note_on channel=9 note=38 velocity=55 time=768
note_on channel=9 note=54 velocity=105 time=0
note_off channel=9 note=36 velocity=0 time=768
note_on channel=9 note=36 velocity=90 time=384
note_off channel=9 note=54 velocity=0 time=192
note_off channel=9 note=38 velocity=0 time=192
note_on channel=9 note=54 velocity=105 time=768
note_on channel=9 note=38 velocity=55 time=0
note_off channel=9 note=36 velocity=0 time=384
note_off channel=9 note=38 velocity=0 time=768
note_off channel=9 note=54 velocity=0 time=0
note_on channel=9 note=36 velocity=90 time=0
note_on channel=9 note=54 velocity=105 time=1152
note_on channel=9 note=38 velocity=55 time=0
note_off channel=9 note=36 velocity=0 time=384
note_off channel=9 note=54 velocity=0 time=768
note_on channel=9 note=36 velocity=90 time=0
note_off channel=9 note=38 velocity=0 time=384
note_on channel=9 note=38 velocity=55 time=768
note_on channel=9 note=54 velocity=105 time=0
note_off channel=9 note=36 velocity=0 time=384
note_off channel=9 note=54 velocity=0 time=768
note_off channel=9 note=38 velocity=0 time=0
note_on channel=9 note=36 velocity=90 time=0
note_on channel=9 note=38 velocity=55 time=1152
note_on channel=9 note=54 velocity=105 time=0
note_off channel=9 note=36 velocity=0 time=384
note_off channel=9 note=54 velocity=0 time=768
note_off channel=9 note=38 velocity=0 time=0
note_on channel=9 note=36 velocity=90 time=0
note_on channel=9 note=38 velocity=55 time=1152
note_on channel=9 note=54 velocity=105 time=0
note_off channel=9 note=36 velocity=0 time=384
note_off channel=9 note=38 velocity=0 time=768
note_on channel=9 note=36 velocity=90 time=0
note_off channel=9 note=54 velocity=0 time=192
note_on channel=9 note=38 velocity=55 time=960
note_on channel=9 note=54 velocity=105 time=0
note_off channel=9 note=36 velocity=0 time=384
note_off channel=9 note=54 velocity=0 time=768
note_off channel=9 note=38 velocity=0 time=0
note_on channel=9 note=36 velocity=90 time=0
note_on channel=9 note=54 velocity=105 time=1152
note_on channel=9 note=38 velocity=55 time=0
note_off channel=9 note=36 velocity=0 time=384
note_off channel=9 note=38 velocity=0 time=768
note_off channel=9 note=54 velocity=0 time=0
note_on channel=9 note=36 velocity=90 time=0
note_on channel=9 note=38 velocity=55 time=1152
note_on channel=9 note=54 velocity=105 time=0
note_off channel=9 note=36 velocity=0 time=768
note_off channel=9 note=38 velocity=0 time=384
note_on channel=9 note=36 velocity=90 time=0
note_off channel=9 note=54 velocity=0 time=192
note_on channel=9 note=38 velocity=55 time=960
note_on channel=9 note=54 velocity=105 time=0
note_off channel=9 note=36 velocity=0 time=384
note_off channel=9 note=54 velocity=0 time=768
note_off channel=9 note=38 velocity=0 time=0
note_on channel=9 note=36 velocity=90 time=0
note_on channel=9 note=54 velocity=105 time=384
note_off channel=9 note=54 velocity=0 time=188
note_on channel=9 note=54 velocity=105 time=196
note_on channel=9 note=38 velocity=55 time=384
note_off channel=9 note=54 velocity=0 time=192
note_off channel=9 note=36 velocity=0 time=192
note_on channel=9 note=54 velocity=105 time=0
note_off channel=9 note=54 velocity=0 time=188
note_on channel=9 note=54 velocity=105 time=196
note_off channel=9 note=54 velocity=0 time=384
note_off channel=9 note=38 velocity=0 time=0
note_on channel=9 note=36 velocity=90 time=0
note_on channel=9 note=54 velocity=105 time=384
note_off channel=9 note=54 velocity=0 time=188
note_on channel=9 note=54 velocity=105 time=196
note_off channel=9 note=54 velocity=0 time=384
note_on channel=9 note=38 velocity=55 time=0
note_off channel=9 note=36 velocity=0 time=384
note_on channel=9 note=54 velocity=105 time=0
note_off channel=9 note=54 velocity=0 time=188
note_on channel=9 note=54 velocity=105 time=196
note_off channel=9 note=54 velocity=0 time=188
note_off channel=9 note=38 velocity=0 time=196
note_on channel=9 note=36 velocity=90 time=0
note_on channel=9 note=54 velocity=105 time=384
note_off channel=9 note=54 velocity=0 time=188
note_on channel=9 note=54 velocity=105 time=196
note_off channel=9 note=54 velocity=0 time=188
note_on channel=9 note=38 velocity=55 time=196
note_off channel=9 note=36 velocity=0 time=384
note_on channel=9 note=54 velocity=105 time=0
note_off channel=9 note=54 velocity=0 time=188
note_on channel=9 note=54 velocity=105 time=196
note_off channel=9 note=54 velocity=0 time=188
note_on channel=9 note=36 velocity=90 time=196
note_off channel=9 note=38 velocity=0 time=384
note_on channel=9 note=54 velocity=105 time=0
note_off channel=9 note=54 velocity=0 time=188
note_on channel=9 note=54 velocity=105 time=196
note_off channel=9 note=54 velocity=0 time=188
note_on channel=9 note=38 velocity=55 time=196
note_off channel=9 note=36 velocity=0 time=384
note_on channel=9 note=54 velocity=105 time=0
note_off channel=9 note=54 velocity=0 time=188
note_on channel=9 note=54 velocity=105 time=196
note_off channel=9 note=54 velocity=0 time=188
note_off channel=9 note=38 velocity=0 time=196
note_on channel=9 note=36 velocity=90 time=0
note_on channel=9 note=54 velocity=105 time=384
note_off channel=9 note=54 velocity=0 time=188
note_on channel=9 note=54 velocity=105 time=196
note_off channel=9 note=54 velocity=0 time=188
note_on channel=9 note=38 velocity=55 time=196
note_off channel=9 note=36 velocity=0 time=384
note_on channel=9 note=54 velocity=105 time=0
note_off channel=9 note=54 velocity=0 time=188
note_on channel=9 note=54 velocity=105 time=196
note_off channel=9 note=54 velocity=0 time=188
note_off channel=9 note=38 velocity=0 time=196
note_on channel=9 note=36 velocity=90 time=0
note_on channel=9 note=54 velocity=105 time=384
note_off channel=9 note=54 velocity=0 time=188
note_on channel=9 note=54 velocity=105 time=196
note_off channel=9 note=54 velocity=0 time=188
note_on channel=9 note=38 velocity=55 time=196
note_off channel=9 note=36 velocity=0 time=384
note_on channel=9 note=54 velocity=105 time=0
note_off channel=9 note=54 velocity=0 time=188
note_on channel=9 note=54 velocity=105 time=196
note_off channel=9 note=54 velocity=0 time=188
note_off channel=9 note=38 velocity=0 time=196
note_on channel=9 note=36 velocity=90 time=0
note_on channel=9 note=54 velocity=105 time=384
note_off channel=9 note=54 velocity=0 time=188
note_on channel=9 note=54 velocity=105 time=196
note_off channel=9 note=54 velocity=0 time=188
note_on channel=9 note=38 velocity=55 time=196
note_off channel=9 note=36 velocity=0 time=384
note_on channel=9 note=54 velocity=105 time=0
note_off channel=9 note=54 velocity=0 time=188
note_on channel=9 note=54 velocity=105 time=196
note_off channel=9 note=54 velocity=0 time=188
note_off channel=9 note=38 velocity=0 time=196
note_on channel=9 note=36 velocity=90 time=0
note_on channel=9 note=54 velocity=105 time=384
note_off channel=9 note=54 velocity=0 time=188
note_on channel=9 note=54 velocity=105 time=196
note_off channel=9 note=54 velocity=0 time=188
note_on channel=9 note=38 velocity=55 time=196
note_on channel=9 note=54 velocity=105 time=384
note_off channel=9 note=54 velocity=0 time=188
note_off channel=9 note=36 velocity=0 time=196
note_on channel=9 note=54 velocity=105 time=0
note_off channel=9 note=54 velocity=0 time=188
note_off channel=9 note=38 velocity=0 time=196
note_on channel=9 note=36 velocity=90 time=0
note_on channel=9 note=54 velocity=105 time=1152
note_on channel=9 note=38 velocity=55 time=0
note_off channel=9 note=36 velocity=0 time=384
note_on channel=9 note=36 velocity=90 time=768
note_off channel=9 note=54 velocity=0 time=192
note_off channel=9 note=38 velocity=0 time=192
note_on channel=9 note=54 velocity=105 time=768
note_on channel=9 note=38 velocity=55 time=0
note_off channel=9 note=36 velocity=0 time=384
note_off channel=9 note=38 velocity=0 time=768
note_off channel=9 note=54 velocity=0 time=0
note_on channel=9 note=36 velocity=90 time=0
note_on channel=9 note=54 velocity=105 time=1152
note_on channel=9 note=38 velocity=55 time=0
note_off channel=9 note=36 velocity=0 time=384
note_off channel=9 note=54 velocity=0 time=768
note_on channel=9 note=36 velocity=90 time=0
note_off channel=9 note=38 velocity=0 time=384
note_on channel=9 note=54 velocity=105 time=768
note_on channel=9 note=38 velocity=55 time=0
note_off channel=9 note=36 velocity=0 time=384
note_off channel=9 note=38 velocity=0 time=768
note_off channel=9 note=54 velocity=0 time=0
note_on channel=9 note=36 velocity=90 time=0
note_on channel=9 note=54 velocity=105 time=1152
note_on channel=9 note=38 velocity=55 time=0
note_off channel=9 note=36 velocity=0 time=768
note_off channel=9 note=38 velocity=0 time=384
note_off channel=9 note=54 velocity=0 time=0
note_on channel=9 note=36 velocity=90 time=0
note_on channel=9 note=54 velocity=105 time=1152
note_on channel=9 note=38 velocity=55 time=0
note_off channel=9 note=36 velocity=0 time=384
note_off channel=9 note=38 velocity=0 time=768
note_off channel=9 note=54 velocity=0 time=0
note_on channel=9 note=36 velocity=90 time=0
note_on channel=9 note=54 velocity=105 time=1152
note_on channel=9 note=38 velocity=55 time=0
note_off channel=9 note=36 velocity=0 time=768
note_off channel=9 note=38 velocity=0 time=384
note_on channel=9 note=36 velocity=90 time=0
note_off channel=9 note=54 velocity=0 time=192
note_on channel=9 note=54 velocity=105 time=960
note_on channel=9 note=38 velocity=55 time=0
note_off channel=9 note=36 velocity=0 time=384
note_off channel=9 note=38 velocity=0 time=768
note_off channel=9 note=54 velocity=0 time=0
note_on channel=9 note=36 velocity=90 time=0
note_on channel=9 note=54 velocity=105 time=1152
note_on channel=9 note=38 velocity=55 time=0
note_off channel=9 note=36 velocity=0 time=384
note_off channel=9 note=38 velocity=0 time=768
note_off channel=9 note=54 velocity=0 time=0
note_on channel=9 note=36 velocity=90 time=0
note_on channel=9 note=38 velocity=55 time=1152
note_on channel=9 note=54 velocity=105 time=0
note_off channel=9 note=36 velocity=0 time=384
note_off channel=9 note=54 velocity=0 time=768
note_on channel=9 note=36 velocity=90 time=0
note_off channel=9 note=38 velocity=0 time=384
note_on channel=9 note=38 velocity=55 time=768
note_on channel=9 note=54 velocity=105 time=0
note_off channel=9 note=36 velocity=0 time=384
note_off channel=9 note=54 velocity=0 time=768
note_off channel=9 note=38 velocity=0 time=0
note_on channel=9 note=36 velocity=90 time=0
note_off channel=9 note=36 velocity=0 time=1152
MetaMessage('end_of_track', time=2304)
Track 10: CHARANG
MetaMessage('track_name', name='CHARANG', time=0)
program_change channel=10 program=84 time=384
control_change channel=10 control=7 value=127 time=0
note_on channel=10 note=60 velocity=126 time=19200
note_off channel=10 note=60 velocity=0 time=1152
note_on channel=10 note=62 velocity=126 time=0
note_off channel=10 note=62 velocity=0 time=384
note_on channel=10 note=60 velocity=126 time=0
note_off channel=10 note=60 velocity=0 time=384
note_on channel=10 note=58 velocity=126 time=0
note_off channel=10 note=58 velocity=0 time=384
note_on channel=10 note=57 velocity=126 time=0
note_off channel=10 note=57 velocity=0 time=1152
note_on channel=10 note=55 velocity=126 time=0
note_off channel=10 note=55 velocity=0 time=384
note_on channel=10 note=58 velocity=126 time=0
note_off channel=10 note=58 velocity=0 time=384
note_on channel=10 note=57 velocity=126 time=0
note_off channel=10 note=57 velocity=0 time=380
note_on channel=10 note=53 velocity=126 time=4
note_off channel=10 note=53 velocity=0 time=1152
note_on channel=10 note=51 velocity=126 time=0
note_off channel=10 note=51 velocity=0 time=384
note_on channel=10 note=58 velocity=126 time=0
note_off channel=10 note=58 velocity=0 time=384
note_on channel=10 note=50 velocity=126 time=0
note_off channel=10 note=50 velocity=0 time=384
note_on channel=10 note=48 velocity=126 time=0
note_off channel=10 note=48 velocity=0 time=2290
note_on channel=10 note=60 velocity=126 time=14
note_off channel=10 note=60 velocity=0 time=1152
note_on channel=10 note=62 velocity=126 time=0
note_off channel=10 note=62 velocity=0 time=384
note_on channel=10 note=60 velocity=126 time=0
note_off channel=10 note=60 velocity=0 time=384
note_on channel=10 note=58 velocity=126 time=0
note_off channel=10 note=58 velocity=0 time=384
note_on channel=10 note=57 velocity=126 time=0
note_off channel=10 note=57 velocity=0 time=1152
note_on channel=10 note=55 velocity=126 time=0
note_off channel=10 note=55 velocity=0 time=384
note_on channel=10 note=58 velocity=126 time=0
note_off channel=10 note=58 velocity=0 time=384
note_on channel=10 note=57 velocity=126 time=0
note_off channel=10 note=57 velocity=0 time=380
note_on channel=10 note=53 velocity=126 time=4
note_off channel=10 note=53 velocity=0 time=1152
note_on channel=10 note=51 velocity=126 time=0
note_off channel=10 note=51 velocity=0 time=384
note_on channel=10 note=58 velocity=126 time=0
note_off channel=10 note=58 velocity=0 time=384
note_on channel=10 note=50 velocity=126 time=0
note_off channel=10 note=50 velocity=0 time=384
note_on channel=10 note=48 velocity=126 time=0
note_off channel=10 note=48 velocity=0 time=2290
note_on channel=10 note=60 velocity=127 time=14
note_off channel=10 note=60 velocity=0 time=348
note_on channel=10 note=60 velocity=126 time=36
note_off channel=10 note=60 velocity=0 time=384
note_on channel=10 note=60 velocity=126 time=0
note_off channel=10 note=60 velocity=0 time=384
note_on channel=10 note=60 velocity=126 time=0
note_off channel=10 note=60 velocity=0 time=384
note_on channel=10 note=58 velocity=126 time=0
note_off channel=10 note=58 velocity=0 time=384
note_on channel=10 note=56 velocity=126 time=0
note_off channel=10 note=56 velocity=0 time=384
note_on channel=10 note=60 velocity=126 time=0
note_off channel=10 note=60 velocity=0 time=384
note_on channel=10 note=60 velocity=126 time=0
note_off channel=10 note=60 velocity=0 time=384
note_on channel=10 note=60 velocity=126 time=0
note_off channel=10 note=60 velocity=0 time=384
note_on channel=10 note=60 velocity=126 time=0
note_off channel=10 note=60 velocity=0 time=384
note_on channel=10 note=58 velocity=126 time=0
note_off channel=10 note=58 velocity=0 time=384
note_on channel=10 note=56 velocity=126 time=0
note_off channel=10 note=56 velocity=0 time=384
note_on channel=10 note=58 velocity=126 time=0
note_off channel=10 note=58 velocity=0 time=4416
note_on channel=10 note=60 velocity=126 time=192
note_off channel=10 note=60 velocity=0 time=384
note_on channel=10 note=60 velocity=126 time=0
note_off channel=10 note=60 velocity=0 time=384
note_on channel=10 note=60 velocity=126 time=0
note_off channel=10 note=60 velocity=0 time=384
note_on channel=10 note=60 velocity=126 time=0
note_off channel=10 note=60 velocity=0 time=384
note_on channel=10 note=58 velocity=126 time=0
note_off channel=10 note=58 velocity=0 time=384
note_on channel=10 note=56 velocity=126 time=0
note_off channel=10 note=56 velocity=0 time=384
note_on channel=10 note=60 velocity=126 time=0
note_off channel=10 note=60 velocity=0 time=384
note_on channel=10 note=60 velocity=126 time=0
note_off channel=10 note=60 velocity=0 time=384
note_on channel=10 note=60 velocity=126 time=0
note_off channel=10 note=60 velocity=0 time=384
note_on channel=10 note=60 velocity=126 time=0
note_off channel=10 note=60 velocity=0 time=384
note_on channel=10 note=58 velocity=126 time=0
note_off channel=10 note=58 velocity=0 time=384
note_on channel=10 note=56 velocity=126 time=0
note_off channel=10 note=56 velocity=0 time=384
note_on channel=10 note=58 velocity=126 time=0
note_off channel=10 note=58 velocity=0 time=1920
note_on channel=10 note=61 velocity=126 time=192
note_off channel=10 note=61 velocity=0 time=190
note_on channel=10 note=60 velocity=126 time=2
note_off channel=10 note=60 velocity=0 time=1920
pitchwheel channel=10 pitch=-2432 time=384
note_on channel=10 note=60 velocity=126 time=0
pitchwheel channel=10 pitch=-2304 time=24
pitchwheel channel=10 pitch=-2176 time=20
pitchwheel channel=10 pitch=-2048 time=20
pitchwheel channel=10 pitch=-1920 time=18
pitchwheel channel=10 pitch=-1792 time=20
pitchwheel channel=10 pitch=-1664 time=18
pitchwheel channel=10 pitch=-1536 time=26
pitchwheel channel=10 pitch=-1408 time=20
pitchwheel channel=10 pitch=-1280 time=18
pitchwheel channel=10 pitch=-1152 time=20
pitchwheel channel=10 pitch=-1024 time=20
pitchwheel channel=10 pitch=-896 time=18
pitchwheel channel=10 pitch=-768 time=26
pitchwheel channel=10 pitch=-640 time=20
pitchwheel channel=10 pitch=-512 time=18
pitchwheel channel=10 pitch=-384 time=20
pitchwheel channel=10 pitch=-256 time=18
pitchwheel channel=10 pitch=-128 time=20
pitchwheel channel=10 pitch=0 time=20
note_off channel=10 note=60 velocity=0 time=768
note_on channel=10 note=62 velocity=126 time=0
note_off channel=10 note=62 velocity=0 time=384
note_on channel=10 note=60 velocity=126 time=0
note_off channel=10 note=60 velocity=0 time=384
note_on channel=10 note=58 velocity=126 time=0
note_off channel=10 note=58 velocity=0 time=384
pitchwheel channel=10 pitch=-2304 time=0
note_on channel=10 note=57 velocity=126 time=0
pitchwheel channel=10 pitch=-2176 time=24
pitchwheel channel=10 pitch=-2048 time=20
pitchwheel channel=10 pitch=-1920 time=20
pitchwheel channel=10 pitch=-1792 time=24
pitchwheel channel=10 pitch=-1664 time=20
pitchwheel channel=10 pitch=-1536 time=20
pitchwheel channel=10 pitch=-1408 time=24
pitchwheel channel=10 pitch=-1280 time=20
pitchwheel channel=10 pitch=-1152 time=20
pitchwheel channel=10 pitch=-1024 time=24
pitchwheel channel=10 pitch=-896 time=20
pitchwheel channel=10 pitch=-768 time=20
pitchwheel channel=10 pitch=-640 time=24
pitchwheel channel=10 pitch=-512 time=20
pitchwheel channel=10 pitch=-384 time=20
pitchwheel channel=10 pitch=-256 time=24
pitchwheel channel=10 pitch=-128 time=20
pitchwheel channel=10 pitch=0 time=20
note_off channel=10 note=57 velocity=0 time=768
note_on channel=10 note=55 velocity=126 time=0
note_off channel=10 note=55 velocity=0 time=384
note_on channel=10 note=58 velocity=126 time=0
note_off channel=10 note=58 velocity=0 time=384
note_on channel=10 note=57 velocity=126 time=0
note_off channel=10 note=57 velocity=0 time=380
pitchwheel channel=10 pitch=-2304 time=4
note_on channel=10 note=53 velocity=126 time=0
pitchwheel channel=10 pitch=-2176 time=24
pitchwheel channel=10 pitch=-2048 time=20
pitchwheel channel=10 pitch=-1920 time=20
pitchwheel channel=10 pitch=-1792 time=24
pitchwheel channel=10 pitch=-1664 time=20
pitchwheel channel=10 pitch=-1536 time=20
pitchwheel channel=10 pitch=-1408 time=24
pitchwheel channel=10 pitch=-1280 time=20
pitchwheel channel=10 pitch=-1152 time=20
pitchwheel channel=10 pitch=-1024 time=24
pitchwheel channel=10 pitch=-896 time=20
pitchwheel channel=10 pitch=-768 time=20
pitchwheel channel=10 pitch=-640 time=24
pitchwheel channel=10 pitch=-512 time=20
pitchwheel channel=10 pitch=-384 time=20
pitchwheel channel=10 pitch=-256 time=24
pitchwheel channel=10 pitch=-128 time=20
pitchwheel channel=10 pitch=0 time=20
note_off channel=10 note=53 velocity=0 time=768
note_on channel=10 note=51 velocity=126 time=0
note_off channel=10 note=51 velocity=0 time=384
note_on channel=10 note=58 velocity=126 time=0
note_off channel=10 note=58 velocity=0 time=384
note_on channel=10 note=50 velocity=126 time=0
note_off channel=10 note=50 velocity=0 time=384
pitchwheel channel=10 pitch=-2432 time=0
note_on channel=10 note=48 velocity=126 time=0
pitchwheel channel=10 pitch=-2304 time=24
pitchwheel channel=10 pitch=-2176 time=20
pitchwheel channel=10 pitch=-2048 time=20
pitchwheel channel=10 pitch=-1920 time=18
pitchwheel channel=10 pitch=-1792 time=26
pitchwheel channel=10 pitch=-1664 time=20
pitchwheel channel=10 pitch=-1536 time=18
pitchwheel channel=10 pitch=-1408 time=20
pitchwheel channel=10 pitch=-1280 time=18
pitchwheel channel=10 pitch=-1152 time=26
pitchwheel channel=10 pitch=-1024 time=20
pitchwheel channel=10 pitch=-896 time=18
pitchwheel channel=10 pitch=-768 time=20
pitchwheel channel=10 pitch=-640 time=20
pitchwheel channel=10 pitch=-512 time=24
pitchwheel channel=10 pitch=-384 time=20
pitchwheel channel=10 pitch=-256 time=20
pitchwheel channel=10 pitch=-128 time=18
pitchwheel channel=10 pitch=0 time=20
note_off channel=10 note=48 velocity=0 time=1900
pitchwheel channel=10 pitch=-3840 time=14
note_on channel=10 note=60 velocity=126 time=0
pitchwheel channel=10 pitch=-3712 time=12
pitchwheel channel=10 pitch=-3584 time=12
pitchwheel channel=10 pitch=-3456 time=14
pitchwheel channel=10 pitch=-3328 time=12
pitchwheel channel=10 pitch=-3200 time=14
pitchwheel channel=10 pitch=-3072 time=12
pitchwheel channel=10 pitch=-2944 time=12
pitchwheel channel=10 pitch=-2816 time=14
pitchwheel channel=10 pitch=-2688 time=12
pitchwheel channel=10 pitch=-2560 time=14
pitchwheel channel=10 pitch=-2432 time=12
pitchwheel channel=10 pitch=-2304 time=12
pitchwheel channel=10 pitch=-2176 time=14
pitchwheel channel=10 pitch=-2048 time=12
pitchwheel channel=10 pitch=-1920 time=14
pitchwheel channel=10 pitch=-1792 time=12
pitchwheel channel=10 pitch=-1664 time=12
pitchwheel channel=10 pitch=-1536 time=14
pitchwheel channel=10 pitch=-1408 time=12
pitchwheel channel=10 pitch=-1280 time=14
pitchwheel channel=10 pitch=-1152 time=12
pitchwheel channel=10 pitch=-1024 time=12
pitchwheel channel=10 pitch=-896 time=14
pitchwheel channel=10 pitch=-768 time=12
pitchwheel channel=10 pitch=-640 time=14
pitchwheel channel=10 pitch=-512 time=12
pitchwheel channel=10 pitch=-384 time=12
pitchwheel channel=10 pitch=-256 time=14
pitchwheel channel=10 pitch=-128 time=12
pitchwheel channel=10 pitch=0 time=14
note_off channel=10 note=60 velocity=0 time=768
note_on channel=10 note=62 velocity=126 time=0
note_off channel=10 note=62 velocity=0 time=384
note_on channel=10 note=60 velocity=126 time=0
note_off channel=10 note=60 velocity=0 time=384
note_on channel=10 note=58 velocity=126 time=0
note_off channel=10 note=58 velocity=0 time=384
pitchwheel channel=10 pitch=-2432 time=0
note_on channel=10 note=57 velocity=126 time=0
pitchwheel channel=10 pitch=-2304 time=24
pitchwheel channel=10 pitch=-2176 time=20
pitchwheel channel=10 pitch=-2048 time=20
pitchwheel channel=10 pitch=-1920 time=18
pitchwheel channel=10 pitch=-1792 time=20
pitchwheel channel=10 pitch=-1664 time=18
pitchwheel channel=10 pitch=-1536 time=26
pitchwheel channel=10 pitch=-1408 time=20
pitchwheel channel=10 pitch=-1280 time=18
pitchwheel channel=10 pitch=-1152 time=20
pitchwheel channel=10 pitch=-1024 time=20
pitchwheel channel=10 pitch=-896 time=18
pitchwheel channel=10 pitch=-768 time=26
pitchwheel channel=10 pitch=-640 time=20
pitchwheel channel=10 pitch=-512 time=18
pitchwheel channel=10 pitch=-384 time=20
pitchwheel channel=10 pitch=-256 time=18
pitchwheel channel=10 pitch=-128 time=20
pitchwheel channel=10 pitch=0 time=20
note_off channel=10 note=57 velocity=0 time=768
note_on channel=10 note=55 velocity=126 time=0
note_off channel=10 note=55 velocity=0 time=384
note_on channel=10 note=58 velocity=126 time=0
note_off channel=10 note=58 velocity=0 time=384
note_on channel=10 note=57 velocity=126 time=0
note_off channel=10 note=57 velocity=0 time=380
pitchwheel channel=10 pitch=-2432 time=4
note_on channel=10 note=53 velocity=126 time=0
pitchwheel channel=10 pitch=-2304 time=24
pitchwheel channel=10 pitch=-2176 time=20
pitchwheel channel=10 pitch=-2048 time=20
pitchwheel channel=10 pitch=-1920 time=18
pitchwheel channel=10 pitch=-1792 time=20
pitchwheel channel=10 pitch=-1664 time=18
pitchwheel channel=10 pitch=-1536 time=26
pitchwheel channel=10 pitch=-1408 time=20
pitchwheel channel=10 pitch=-1280 time=18
pitchwheel channel=10 pitch=-1152 time=20
pitchwheel channel=10 pitch=-1024 time=20
pitchwheel channel=10 pitch=-896 time=18
pitchwheel channel=10 pitch=-768 time=26
pitchwheel channel=10 pitch=-640 time=20
pitchwheel channel=10 pitch=-512 time=18
pitchwheel channel=10 pitch=-384 time=20
pitchwheel channel=10 pitch=-256 time=18
pitchwheel channel=10 pitch=-128 time=20
pitchwheel channel=10 pitch=0 time=20
note_off channel=10 note=53 velocity=0 time=768
note_on channel=10 note=51 velocity=126 time=0
note_off channel=10 note=51 velocity=0 time=384
note_on channel=10 note=58 velocity=126 time=0
note_off channel=10 note=58 velocity=0 time=384
note_on channel=10 note=50 velocity=126 time=0
note_off channel=10 note=50 velocity=0 time=384
pitchwheel channel=10 pitch=-2432 time=0
note_on channel=10 note=48 velocity=126 time=0
pitchwheel channel=10 pitch=-2304 time=24
pitchwheel channel=10 pitch=-2176 time=20
pitchwheel channel=10 pitch=-2048 time=20
pitchwheel channel=10 pitch=-1920 time=18
pitchwheel channel=10 pitch=-1792 time=20
pitchwheel channel=10 pitch=-1664 time=18
pitchwheel channel=10 pitch=-1536 time=26
pitchwheel channel=10 pitch=-1408 time=20
pitchwheel channel=10 pitch=-1280 time=18
pitchwheel channel=10 pitch=-1152 time=20
pitchwheel channel=10 pitch=-1024 time=20
pitchwheel channel=10 pitch=-896 time=18
pitchwheel channel=10 pitch=-768 time=26
pitchwheel channel=10 pitch=-640 time=20
pitchwheel channel=10 pitch=-512 time=18
pitchwheel channel=10 pitch=-384 time=20
pitchwheel channel=10 pitch=-256 time=18
pitchwheel channel=10 pitch=-128 time=20
pitchwheel channel=10 pitch=0 time=20
note_off channel=10 note=48 velocity=0 time=1906
note_on channel=10 note=60 velocity=127 time=18446
note_off channel=10 note=60 velocity=0 time=348
note_on channel=10 note=60 velocity=126 time=36
note_off channel=10 note=60 velocity=0 time=384
note_on channel=10 note=60 velocity=126 time=0
note_off channel=10 note=60 velocity=0 time=384
note_on channel=10 note=60 velocity=126 time=0
note_off channel=10 note=60 velocity=0 time=384
note_on channel=10 note=58 velocity=126 time=0
note_off channel=10 note=58 velocity=0 time=384
note_on channel=10 note=56 velocity=126 time=0
note_off channel=10 note=56 velocity=0 time=384
note_on channel=10 note=60 velocity=126 time=0
note_off channel=10 note=60 velocity=0 time=384
note_on channel=10 note=60 velocity=126 time=0
note_off channel=10 note=60 velocity=0 time=384
note_on channel=10 note=60 velocity=126 time=0
note_off channel=10 note=60 velocity=0 time=384
note_on channel=10 note=60 velocity=126 time=0
note_off channel=10 note=60 velocity=0 time=384
note_on channel=10 note=58 velocity=126 time=0
note_off channel=10 note=58 velocity=0 time=384
note_on channel=10 note=56 velocity=126 time=0
note_off channel=10 note=56 velocity=0 time=384
note_on channel=10 note=58 velocity=126 time=0
note_off channel=10 note=58 velocity=0 time=4416
note_on channel=10 note=60 velocity=126 time=192
note_off channel=10 note=60 velocity=0 time=384
note_on channel=10 note=60 velocity=126 time=0
note_off channel=10 note=60 velocity=0 time=384
note_on channel=10 note=60 velocity=126 time=0
note_off channel=10 note=60 velocity=0 time=384
note_on channel=10 note=60 velocity=126 time=0
note_off channel=10 note=60 velocity=0 time=384
note_on channel=10 note=58 velocity=126 time=0
note_off channel=10 note=58 velocity=0 time=384
note_on channel=10 note=56 velocity=126 time=0
note_off channel=10 note=56 velocity=0 time=384
note_on channel=10 note=60 velocity=126 time=0
note_off channel=10 note=60 velocity=0 time=384
note_on channel=10 note=60 velocity=126 time=0
note_off channel=10 note=60 velocity=0 time=384
note_on channel=10 note=60 velocity=126 time=0
note_off channel=10 note=60 velocity=0 time=384
note_on channel=10 note=60 velocity=126 time=0
note_off channel=10 note=60 velocity=0 time=384
note_on channel=10 note=58 velocity=126 time=0
note_off channel=10 note=58 velocity=0 time=384
note_on channel=10 note=56 velocity=126 time=0
note_off channel=10 note=56 velocity=0 time=384
note_on channel=10 note=58 velocity=126 time=0
note_off channel=10 note=58 velocity=0 time=1920
note_on channel=10 note=61 velocity=126 time=192
note_off channel=10 note=61 velocity=0 time=190
note_on channel=10 note=60 velocity=126 time=2
note_off channel=10 note=60 velocity=0 time=1920
pitchwheel channel=10 pitch=-2432 time=384
note_on channel=10 note=60 velocity=126 time=0
pitchwheel channel=10 pitch=-2304 time=24
pitchwheel channel=10 pitch=-2176 time=20
pitchwheel channel=10 pitch=-2048 time=20
pitchwheel channel=10 pitch=-1920 time=18
pitchwheel channel=10 pitch=-1792 time=20
pitchwheel channel=10 pitch=-1664 time=18
pitchwheel channel=10 pitch=-1536 time=26
pitchwheel channel=10 pitch=-1408 time=20
pitchwheel channel=10 pitch=-1280 time=18
pitchwheel channel=10 pitch=-1152 time=20
pitchwheel channel=10 pitch=-1024 time=20
pitchwheel channel=10 pitch=-896 time=18
pitchwheel channel=10 pitch=-768 time=26
pitchwheel channel=10 pitch=-640 time=20
pitchwheel channel=10 pitch=-512 time=18
pitchwheel channel=10 pitch=-384 time=20
pitchwheel channel=10 pitch=-256 time=18
pitchwheel channel=10 pitch=-128 time=20
pitchwheel channel=10 pitch=0 time=20
note_off channel=10 note=60 velocity=0 time=768
note_on channel=10 note=62 velocity=126 time=0
note_off channel=10 note=62 velocity=0 time=384
note_on channel=10 note=60 velocity=126 time=0
note_off channel=10 note=60 velocity=0 time=384
note_on channel=10 note=58 velocity=126 time=0
note_off channel=10 note=58 velocity=0 time=384
pitchwheel channel=10 pitch=-2304 time=0
note_on channel=10 note=57 velocity=126 time=0
pitchwheel channel=10 pitch=-2176 time=24
pitchwheel channel=10 pitch=-2048 time=20
pitchwheel channel=10 pitch=-1920 time=20
pitchwheel channel=10 pitch=-1792 time=24
pitchwheel channel=10 pitch=-1664 time=20
pitchwheel channel=10 pitch=-1536 time=20
pitchwheel channel=10 pitch=-1408 time=24
pitchwheel channel=10 pitch=-1280 time=20
pitchwheel channel=10 pitch=-1152 time=20
pitchwheel channel=10 pitch=-1024 time=24
pitchwheel channel=10 pitch=-896 time=20
pitchwheel channel=10 pitch=-768 time=20
pitchwheel channel=10 pitch=-640 time=24
pitchwheel channel=10 pitch=-512 time=20
pitchwheel channel=10 pitch=-384 time=20
pitchwheel channel=10 pitch=-256 time=24
pitchwheel channel=10 pitch=-128 time=20
pitchwheel channel=10 pitch=0 time=20
note_off channel=10 note=57 velocity=0 time=768
note_on channel=10 note=55 velocity=126 time=0
note_off channel=10 note=55 velocity=0 time=384
note_on channel=10 note=58 velocity=126 time=0
note_off channel=10 note=58 velocity=0 time=384
note_on channel=10 note=57 velocity=126 time=0
note_off channel=10 note=57 velocity=0 time=380
pitchwheel channel=10 pitch=-2304 time=4
note_on channel=10 note=53 velocity=126 time=0
pitchwheel channel=10 pitch=-2176 time=24
pitchwheel channel=10 pitch=-2048 time=20
pitchwheel channel=10 pitch=-1920 time=20
pitchwheel channel=10 pitch=-1792 time=24
pitchwheel channel=10 pitch=-1664 time=20
pitchwheel channel=10 pitch=-1536 time=20
pitchwheel channel=10 pitch=-1408 time=24
pitchwheel channel=10 pitch=-1280 time=20
pitchwheel channel=10 pitch=-1152 time=20
pitchwheel channel=10 pitch=-1024 time=24
pitchwheel channel=10 pitch=-896 time=20
pitchwheel channel=10 pitch=-768 time=20
pitchwheel channel=10 pitch=-640 time=24
pitchwheel channel=10 pitch=-512 time=20
pitchwheel channel=10 pitch=-384 time=20
pitchwheel channel=10 pitch=-256 time=24
pitchwheel channel=10 pitch=-128 time=20
pitchwheel channel=10 pitch=0 time=20
note_off channel=10 note=53 velocity=0 time=768
note_on channel=10 note=51 velocity=126 time=0
note_off channel=10 note=51 velocity=0 time=384
note_on channel=10 note=58 velocity=126 time=0
note_off channel=10 note=58 velocity=0 time=384
note_on channel=10 note=50 velocity=126 time=0
note_off channel=10 note=50 velocity=0 time=384
pitchwheel channel=10 pitch=-2432 time=0
note_on channel=10 note=48 velocity=126 time=0
pitchwheel channel=10 pitch=-2304 time=24
pitchwheel channel=10 pitch=-2176 time=20
pitchwheel channel=10 pitch=-2048 time=20
pitchwheel channel=10 pitch=-1920 time=18
pitchwheel channel=10 pitch=-1792 time=26
pitchwheel channel=10 pitch=-1664 time=20
pitchwheel channel=10 pitch=-1536 time=18
pitchwheel channel=10 pitch=-1408 time=20
pitchwheel channel=10 pitch=-1280 time=18
pitchwheel channel=10 pitch=-1152 time=26
pitchwheel channel=10 pitch=-1024 time=20
pitchwheel channel=10 pitch=-896 time=18
pitchwheel channel=10 pitch=-768 time=20
pitchwheel channel=10 pitch=-640 time=20
pitchwheel channel=10 pitch=-512 time=24
pitchwheel channel=10 pitch=-384 time=20
pitchwheel channel=10 pitch=-256 time=20
pitchwheel channel=10 pitch=-128 time=18
pitchwheel channel=10 pitch=0 time=20
note_off channel=10 note=48 velocity=0 time=1900
pitchwheel channel=10 pitch=-3840 time=14
note_on channel=10 note=60 velocity=126 time=0
pitchwheel channel=10 pitch=-3712 time=12
pitchwheel channel=10 pitch=-3584 time=12
pitchwheel channel=10 pitch=-3456 time=14
pitchwheel channel=10 pitch=-3328 time=12
pitchwheel channel=10 pitch=-3200 time=14
pitchwheel channel=10 pitch=-3072 time=12
pitchwheel channel=10 pitch=-2944 time=12
pitchwheel channel=10 pitch=-2816 time=14
pitchwheel channel=10 pitch=-2688 time=12
pitchwheel channel=10 pitch=-2560 time=14
pitchwheel channel=10 pitch=-2432 time=12
pitchwheel channel=10 pitch=-2304 time=12
pitchwheel channel=10 pitch=-2176 time=14
pitchwheel channel=10 pitch=-2048 time=12
pitchwheel channel=10 pitch=-1920 time=14
pitchwheel channel=10 pitch=-1792 time=12
pitchwheel channel=10 pitch=-1664 time=12
pitchwheel channel=10 pitch=-1536 time=14
pitchwheel channel=10 pitch=-1408 time=12
pitchwheel channel=10 pitch=-1280 time=14
pitchwheel channel=10 pitch=-1152 time=12
pitchwheel channel=10 pitch=-1024 time=12
pitchwheel channel=10 pitch=-896 time=14
pitchwheel channel=10 pitch=-768 time=12
pitchwheel channel=10 pitch=-640 time=14
pitchwheel channel=10 pitch=-512 time=12
pitchwheel channel=10 pitch=-384 time=12
pitchwheel channel=10 pitch=-256 time=14
pitchwheel channel=10 pitch=-128 time=12
pitchwheel channel=10 pitch=0 time=14
note_off channel=10 note=60 velocity=0 time=768
note_on channel=10 note=62 velocity=126 time=0
note_off channel=10 note=62 velocity=0 time=384
note_on channel=10 note=60 velocity=126 time=0
note_off channel=10 note=60 velocity=0 time=384
note_on channel=10 note=58 velocity=126 time=0
note_off channel=10 note=58 velocity=0 time=384
pitchwheel channel=10 pitch=-2432 time=0
note_on channel=10 note=57 velocity=126 time=0
pitchwheel channel=10 pitch=-2304 time=24
pitchwheel channel=10 pitch=-2176 time=20
pitchwheel channel=10 pitch=-2048 time=20
pitchwheel channel=10 pitch=-1920 time=18
pitchwheel channel=10 pitch=-1792 time=20
pitchwheel channel=10 pitch=-1664 time=18
pitchwheel channel=10 pitch=-1536 time=26
pitchwheel channel=10 pitch=-1408 time=20
pitchwheel channel=10 pitch=-1280 time=18
pitchwheel channel=10 pitch=-1152 time=20
pitchwheel channel=10 pitch=-1024 time=20
pitchwheel channel=10 pitch=-896 time=18
pitchwheel channel=10 pitch=-768 time=26
pitchwheel channel=10 pitch=-640 time=20
pitchwheel channel=10 pitch=-512 time=18
pitchwheel channel=10 pitch=-384 time=20
pitchwheel channel=10 pitch=-256 time=18
pitchwheel channel=10 pitch=-128 time=20
pitchwheel channel=10 pitch=0 time=20
note_off channel=10 note=57 velocity=0 time=768
note_on channel=10 note=55 velocity=126 time=0
note_off channel=10 note=55 velocity=0 time=384
note_on channel=10 note=58 velocity=126 time=0
note_off channel=10 note=58 velocity=0 time=384
note_on channel=10 note=57 velocity=126 time=0
note_off channel=10 note=57 velocity=0 time=380
pitchwheel channel=10 pitch=-2432 time=4
note_on channel=10 note=53 velocity=126 time=0
pitchwheel channel=10 pitch=-2304 time=24
pitchwheel channel=10 pitch=-2176 time=20
pitchwheel channel=10 pitch=-2048 time=20
pitchwheel channel=10 pitch=-1920 time=18
pitchwheel channel=10 pitch=-1792 time=20
pitchwheel channel=10 pitch=-1664 time=18
pitchwheel channel=10 pitch=-1536 time=26
pitchwheel channel=10 pitch=-1408 time=20
pitchwheel channel=10 pitch=-1280 time=18
pitchwheel channel=10 pitch=-1152 time=20
pitchwheel channel=10 pitch=-1024 time=20
pitchwheel channel=10 pitch=-896 time=18
pitchwheel channel=10 pitch=-768 time=26
pitchwheel channel=10 pitch=-640 time=20
pitchwheel channel=10 pitch=-512 time=18
pitchwheel channel=10 pitch=-384 time=20
pitchwheel channel=10 pitch=-256 time=18
pitchwheel channel=10 pitch=-128 time=20
pitchwheel channel=10 pitch=0 time=20
note_off channel=10 note=53 velocity=0 time=768
note_on channel=10 note=51 velocity=126 time=0
note_off channel=10 note=51 velocity=0 time=384
note_on channel=10 note=58 velocity=126 time=0
note_off channel=10 note=58 velocity=0 time=384
note_on channel=10 note=50 velocity=126 time=0
note_off channel=10 note=50 velocity=0 time=384
pitchwheel channel=10 pitch=-2432 time=0
note_on channel=10 note=48 velocity=126 time=0
pitchwheel channel=10 pitch=-2304 time=24
pitchwheel channel=10 pitch=-2176 time=20
pitchwheel channel=10 pitch=-2048 time=20
pitchwheel channel=10 pitch=-1920 time=18
pitchwheel channel=10 pitch=-1792 time=20
pitchwheel channel=10 pitch=-1664 time=18
pitchwheel channel=10 pitch=-1536 time=26
pitchwheel channel=10 pitch=-1408 time=20
pitchwheel channel=10 pitch=-1280 time=18
pitchwheel channel=10 pitch=-1152 time=20
pitchwheel channel=10 pitch=-1024 time=20
pitchwheel channel=10 pitch=-896 time=18
pitchwheel channel=10 pitch=-768 time=26
pitchwheel channel=10 pitch=-640 time=20
pitchwheel channel=10 pitch=-512 time=18
pitchwheel channel=10 pitch=-384 time=20
pitchwheel channel=10 pitch=-256 time=18
pitchwheel channel=10 pitch=-128 time=20
pitchwheel channel=10 pitch=0 time=20
note_off channel=10 note=48 velocity=0 time=1906
MetaMessage('end_of_track', time=10382)
Track 11: TUBA
MetaMessage('track_name', name='TUBA', time=0)
program_change channel=11 program=58 time=384
control_change channel=11 control=7 value=127 time=0
note_on channel=11 note=34 velocity=103 time=42232
note_off channel=11 note=34 velocity=0 time=892
note_on channel=11 note=41 velocity=125 time=260
note_off channel=11 note=41 velocity=0 time=768
note_on channel=11 note=34 velocity=125 time=384
note_off channel=11 note=34 velocity=0 time=768
note_on channel=11 note=41 velocity=126 time=384
note_off channel=11 note=41 velocity=0 time=768
note_on channel=11 note=34 velocity=103 time=51072
note_off channel=11 note=34 velocity=0 time=892
note_on channel=11 note=41 velocity=125 time=260
note_off channel=11 note=41 velocity=0 time=768
note_on channel=11 note=34 velocity=125 time=384
note_off channel=11 note=34 velocity=0 time=768
note_on channel=11 note=41 velocity=126 time=384
note_off channel=11 note=41 velocity=0 time=768
MetaMessage('end_of_track', time=38408)
Track 12: GS/RESET
MetaMessage('track_name', name='GS/RESET', time=0)
sysex data=(65,16,66,18,64,0,127,0,65) time=0
MetaMessage('end_of_track', time=6144)
