Track 0: 
MetaMessage('time_signature', numerator=4, denominator=4, clocks_per_click=96, notated_32nd_notes_per_beat=8, time=0)
MetaMessage('sequencer_specific', data=(0, 0, 65), time=0)
MetaMessage('text', text='* ENGL', time=0)
control_change channel=0 control=0 value=0 time=0
control_change channel=9 control=0 value=0 time=0
control_change channel=1 control=0 value=0 time=0
control_change channel=2 control=0 value=0 time=0
control_change channel=3 control=0 value=0 time=0
control_change channel=4 control=0 value=0 time=0
control_change channel=5 control=0 value=0 time=0
control_change channel=6 control=0 value=0 time=0
control_change channel=7 control=0 value=0 time=0
control_change channel=8 control=0 value=0 time=0
control_change channel=10 control=0 value=0 time=0
control_change channel=11 control=0 value=0 time=0
control_change channel=12 control=0 value=0 time=0
control_change channel=13 control=0 value=0 time=0
control_change channel=14 control=0 value=0 time=0
MetaMessage('set_tempo', tempo=722891, time=0)
MetaMessage('text', text='* STAIRWAY TO HEAVEN', time=0)
program_change channel=0 program=74 time=0
program_change channel=9 program=0 time=0
program_change channel=1 program=35 time=0
program_change channel=2 program=4 time=0
program_change channel=3 program=94 time=0
program_change channel=4 program=25 time=0
program_change channel=5 program=25 time=0
program_change channel=6 program=120 time=0
program_change channel=7 program=28 time=0
program_change channel=8 program=29 time=0
program_change channel=10 program=29 time=0
program_change channel=11 program=74 time=0
program_change channel=12 program=74 time=0
program_change channel=13 program=74 time=0
program_change channel=14 program=74 time=0
MetaMessage('text', text='* LED ZEPPELIN', time=0)
control_change channel=0 control=10 value=65 time=0
control_change channel=9 control=10 value=66 time=0
control_change channel=1 control=10 value=62 time=0
control_change channel=2 control=10 value=34 time=0
control_change channel=3 control=10 value=84 time=0
control_change channel=4 control=10 value=58 time=0
control_change channel=5 control=10 value=70 time=0
control_change channel=6 control=10 value=63 time=0
control_change channel=7 control=10 value=50 time=0
control_change channel=8 control=10 value=127 time=0
control_change channel=10 control=10 value=1 time=0
control_change channel=11 control=10 value=110 time=0
control_change channel=12 control=10 value=85 time=0
control_change channel=13 control=10 value=60 time=0
control_change channel=14 control=10 value=20 time=0
MetaMessage('text', text='* karaoked by Uwe Trempelmann', time=0)
control_change channel=0 control=91 value=125 time=0
control_change channel=9 control=91 value=95 time=0
MetaMessage('key_signature', key='C', time=0)
MetaMessage('key_signature', key='C', time=0)
control_change channel=3 control=91 value=125 time=0
control_change channel=4 control=91 value=125 time=0
control_change channel=5 control=91 value=125 time=0
MetaMessage('key_signature', key='C', time=0)
control_change channel=7 control=91 value=125 time=0
control_change channel=8 control=91 value=125 time=0
control_change channel=10 control=91 value=125 time=0
control_change channel=11 control=91 value=120 time=0
control_change channel=12 control=91 value=120 time=0
control_change channel=13 control=91 value=120 time=0
control_change channel=14 control=91 value=120 time=0
control_change channel=0 control=93 value=125 time=0
MetaMessage('key_signature', key='C', time=0)
control_change channel=1 control=7 value=120 time=0
control_change channel=2 control=7 value=115 time=0
control_change channel=3 control=93 value=125 time=0
control_change channel=4 control=93 value=100 time=0
control_change channel=5 control=93 value=125 time=0
control_change channel=6 control=7 value=100 time=0
control_change channel=7 control=93 value=125 time=0
control_change channel=8 control=93 value=125 time=0
control_change channel=10 control=93 value=125 time=0
MetaMessage('key_signature', key='C', time=0)
MetaMessage('key_signature', key='C', time=0)
MetaMessage('key_signature', key='C', time=0)
MetaMessage('key_signature', key='C', time=0)
MetaMessage('key_signature', key='C', time=0)
control_change channel=9 control=7 value=125 time=0
MetaMessage('key_signature', key='C', time=0)
MetaMessage('key_signature', key='C', time=0)
MetaMessage('key_signature', key='C', time=0)
MetaMessage('key_signature', key='C', time=0)
MetaMessage('key_signature', key='C', time=0)
MetaMessage('key_signature', key='C', time=0)
control_change channel=11 control=7 value=90 time=0
control_change channel=12 control=7 value=80 time=0
control_change channel=13 control=7 value=80 time=0
control_change channel=14 control=7 value=75 time=0
control_change channel=0 control=7 value=120 time=0
control_change channel=3 control=7 value=90 time=0
control_change channel=4 control=7 value=96 time=0
control_change channel=5 control=7 value=96 time=0
control_change channel=7 control=7 value=75 time=0
control_change channel=8 control=7 value=110 time=0
control_change channel=10 control=7 value=110 time=0
note_on channel=4 note=57 velocity=89 time=1540
note_on channel=4 note=60 velocity=86 time=184
note_on channel=4 note=64 velocity=83 time=196
note_on channel=4 note=69 velocity=85 time=188
note_off channel=4 note=57 velocity=0 time=180
note_off channel=4 note=69 velocity=0 time=8
note_on channel=4 note=71 velocity=81 time=0
note_on channel=4 note=56 velocity=93 time=4
note_off channel=4 note=64 velocity=0 time=100
note_on channel=4 note=64 velocity=93 time=92
note_off channel=4 note=60 velocity=0 time=8
note_on channel=4 note=60 velocity=83 time=180
note_off channel=4 note=71 velocity=0 time=48
note_on channel=4 note=71 velocity=86 time=148
note_off channel=4 note=56 velocity=0 time=168
note_off channel=4 note=71 velocity=0 time=20
note_on channel=4 note=55 velocity=86 time=0
note_on channel=4 note=72 velocity=82 time=4
note_off channel=4 note=60 velocity=0 time=80
note_off channel=4 note=64 velocity=0 time=20
note_on channel=4 note=64 velocity=83 time=92
note_on channel=4 note=60 velocity=78 time=188
note_off channel=4 note=72 velocity=0 time=80
note_on channel=4 note=72 velocity=89 time=116
note_on channel=6 note=60 velocity=92 time=76
note_off channel=4 note=72 velocity=0 time=16
note_off channel=6 note=60 velocity=0 time=28
note_on channel=4 note=54 velocity=83 time=76
note_on channel=4 note=66 velocity=90 time=0
note_off channel=4 note=55 velocity=0 time=28
note_off channel=4 note=64 velocity=0 time=40
note_off channel=4 note=60 velocity=0 time=8
note_on channel=4 note=62 velocity=93 time=116
note_on channel=4 note=57 velocity=89 time=192
note_off channel=4 note=66 velocity=0 time=132
note_on channel=4 note=66 velocity=92 time=60
note_off channel=4 note=54 velocity=0 time=152
note_on channel=4 note=53 velocity=87 time=32
note_off channel=4 note=66 velocity=0 time=8
note_on channel=4 note=64 velocity=93 time=0
note_off channel=4 note=62 velocity=0 time=16
note_off channel=4 note=57 velocity=0 time=16
note_on channel=4 note=60 velocity=89 time=156
note_on channel=4 note=57 velocity=89 time=192
note_off channel=4 note=64 velocity=0 time=128
note_off channel=4 note=60 velocity=0 time=32
note_on channel=4 note=64 velocity=32 time=28
note_on channel=4 note=60 velocity=86 time=8
note_off channel=4 note=64 velocity=0 time=316
note_on channel=4 note=64 velocity=87 time=64
note_off channel=4 note=60 velocity=0 time=52
note_on channel=6 note=57 velocity=85 time=64
note_off channel=6 note=57 velocity=0 time=52
note_on channel=4 note=60 velocity=87 time=20
note_off channel=4 note=57 velocity=0 time=16
note_on channel=4 note=57 velocity=89 time=176
note_off channel=4 note=60 velocity=0 time=88
note_off channel=4 note=57 velocity=0 time=12
note_off channel=4 note=64 velocity=0 time=64
note_off channel=4 note=53 velocity=0 time=24
note_on channel=4 note=47 velocity=86 time=8
note_on channel=4 note=55 velocity=89 time=0
note_on channel=4 note=59 velocity=86 time=0
note_on channel=11 note=55 velocity=77 time=4
note_on channel=4 note=57 velocity=85 time=188
note_on channel=4 note=60 velocity=85 time=0
note_on channel=4 note=45 velocity=80 time=4
note_on channel=11 note=57 velocity=66 time=0
note_off channel=4 note=55 velocity=0 time=4
note_off channel=4 note=59 velocity=0 time=4
note_off channel=11 note=55 velocity=0 time=0
note_off channel=4 note=47 velocity=0 time=12
note_off channel=4 note=57 velocity=0 time=24
note_off channel=4 note=60 velocity=0 time=0
note_off channel=4 note=45 velocity=0 time=0
note_off channel=11 note=57 velocity=0 time=40
note_on channel=4 note=60 velocity=93 time=104
note_on channel=4 note=57 velocity=93 time=0
note_on channel=4 note=45 velocity=93 time=4
note_on channel=11 note=57 velocity=77 time=16
note_off channel=4 note=45 velocity=0 time=464
note_on channel=4 note=45 velocity=82 time=92
note_on channel=6 note=57 velocity=85 time=116
note_off channel=4 note=45 velocity=0 time=48
note_off channel=6 note=57 velocity=0 time=4
note_on channel=4 note=53 velocity=99 time=24
note_off channel=4 note=57 velocity=0 time=4
note_off channel=4 note=60 velocity=0 time=16
note_off channel=4 note=53 velocity=0 time=164
note_on channel=4 note=52 velocity=89 time=4
note_off channel=11 note=57 velocity=0 time=120
note_on channel=4 note=45 velocity=81 time=72
note_on channel=13 note=72 velocity=57 time=0
note_on channel=11 note=57 velocity=63 time=4
note_on channel=14 note=76 velocity=63 time=0
note_on channel=12 note=64 velocity=72 time=4
note_off channel=4 note=52 velocity=0 time=12
note_on channel=4 note=60 velocity=78 time=176
note_on channel=4 note=64 velocity=85 time=192
note_on channel=4 note=69 velocity=78 time=188
note_on channel=6 note=60 velocity=86 time=136
note_off channel=6 note=60 velocity=0 time=32
note_on channel=11 note=56 velocity=62 time=12
note_off channel=4 note=69 velocity=0 time=12
note_off channel=11 note=57 velocity=0 time=0
note_on channel=4 note=71 velocity=89 time=0
note_on channel=4 note=56 velocity=86 time=4
note_off channel=4 note=64 velocity=0 time=100
note_on channel=4 note=64 velocity=86 time=96
note_off channel=4 note=60 velocity=0 time=48
note_on channel=4 note=60 velocity=92 time=144
note_off channel=4 note=71 velocity=0 time=64
note_on channel=4 note=71 velocity=95 time=128
note_off channel=13 note=72 velocity=0 time=180
note_off channel=4 note=45 velocity=0 time=4
note_on channel=4 note=55 velocity=87 time=4
note_on channel=14 note=72 velocity=61 time=0
note_off channel=4 note=56 velocity=0 time=4
note_on channel=13 note=69 velocity=64 time=0
note_on channel=4 note=72 velocity=85 time=0
note_off channel=4 note=71 velocity=0 time=4
note_off channel=11 note=56 velocity=0 time=4
note_off channel=14 note=76 velocity=0 time=0
note_on channel=11 note=55 velocity=62 time=0
note_off channel=4 note=60 velocity=0 time=72
note_off channel=4 note=64 velocity=0 time=12
note_on channel=4 note=64 velocity=81 time=100
note_on channel=4 note=60 velocity=82 time=192
note_off channel=4 note=72 velocity=0 time=88
note_on channel=4 note=72 velocity=87 time=104
note_off channel=4 note=72 velocity=0 time=104
note_on channel=6 note=60 velocity=86 time=24
note_off channel=6 note=60 velocity=0 time=32
note_off channel=4 note=55 velocity=0 time=16
note_off channel=12 note=64 velocity=0 time=0
note_on channel=12 note=62 velocity=60 time=0
note_on channel=4 note=54 velocity=99 time=8
note_on channel=11 note=54 velocity=78 time=0
note_on channel=4 note=66 velocity=90 time=8
note_off channel=11 note=55 velocity=0 time=16
note_off channel=4 note=64 velocity=0 time=40
note_off channel=4 note=60 velocity=0 time=4
note_on channel=4 note=62 velocity=92 time=132
note_on channel=4 note=57 velocity=89 time=192
note_off channel=4 note=66 velocity=0 time=80
note_on channel=4 note=66 velocity=92 time=112
note_off channel=4 note=62 velocity=0 time=104
note_off channel=14 note=72 velocity=0 time=24
note_off channel=13 note=69 velocity=0 time=12
note_off channel=4 note=66 velocity=0 time=48
note_on channel=4 note=53 velocity=92 time=0
note_on channel=4 note=64 velocity=95 time=0
note_off channel=4 note=54 velocity=0 time=4
note_on channel=12 note=60 velocity=62 time=0
note_on channel=14 note=72 velocity=64 time=0
note_on channel=11 note=53 velocity=76 time=12
note_on channel=13 note=69 velocity=57 time=0
note_off channel=4 note=57 velocity=0 time=4
note_off channel=12 note=62 velocity=0 time=0
note_off channel=11 note=54 velocity=0 time=16
note_on channel=4 note=60 velocity=86 time=156
note_on channel=4 note=57 velocity=82 time=192
note_off channel=4 note=60 velocity=0 time=32
note_on channel=4 note=60 velocity=82 time=164
note_off channel=4 note=64 velocity=0 time=292
note_on channel=4 note=64 velocity=90 time=88
note_off channel=4 note=60 velocity=0 time=72
note_on channel=4 note=60 velocity=89 time=116
note_off channel=4 note=57 velocity=0 time=8
note_on channel=4 note=57 velocity=86 time=184
note_off channel=12 note=60 velocity=0 time=32
note_off channel=14 note=72 velocity=0 time=4
note_off channel=4 note=60 velocity=0 time=40
note_off channel=4 note=53 velocity=0 time=4
note_off channel=4 note=57 velocity=0 time=8
note_off channel=13 note=69 velocity=0 time=64
note_off channel=4 note=64 velocity=0 time=4
note_on channel=13 note=71 velocity=70 time=16
note_on channel=14 note=74 velocity=77 time=12
note_on channel=4 note=47 velocity=87 time=8
note_off channel=11 note=53 velocity=0 time=0
note_on channel=12 note=67 velocity=77 time=0
note_on channel=11 note=57 velocity=75 time=0
note_on channel=4 note=55 velocity=85 time=4
note_on channel=4 note=59 velocity=85 time=0
note_on channel=13 note=72 velocity=68 time=188
note_off channel=14 note=74 velocity=0 time=0
note_on channel=14 note=76 velocity=60 time=0
note_on channel=4 note=45 velocity=86 time=4
note_on channel=12 note=69 velocity=71 time=0
note_on channel=4 note=57 velocity=81 time=0
note_on channel=4 note=60 velocity=90 time=0
note_off channel=4 note=59 velocity=0 time=4
note_off channel=12 note=67 velocity=0 time=0
note_off channel=13 note=71 velocity=0 time=12
note_off channel=4 note=47 velocity=0 time=4
note_off channel=4 note=55 velocity=0 time=0
note_off channel=4 note=60 velocity=0 time=8
note_off channel=11 note=57 velocity=0 time=0
note_off channel=14 note=76 velocity=0 time=0
note_off channel=4 note=57 velocity=0 time=12
note_off channel=13 note=72 velocity=0 time=0
note_off channel=12 note=69 velocity=0 time=12
note_off channel=4 note=45 velocity=0 time=44
note_on channel=13 note=72 velocity=66 time=88
note_on channel=14 note=76 velocity=75 time=0
note_on channel=4 note=45 velocity=95 time=8
note_on channel=4 note=57 velocity=90 time=0
note_on channel=4 note=60 velocity=92 time=0
note_on channel=11 note=57 velocity=74 time=4
note_on channel=12 note=69 velocity=70 time=0
note_off channel=4 note=45 velocity=0 time=464
note_off channel=4 note=60 velocity=0 time=148
note_off channel=4 note=57 velocity=0 time=20
note_on channel=4 note=45 velocity=95 time=128
note_off channel=14 note=76 velocity=0 time=0
note_off channel=13 note=72 velocity=0 time=4
note_off channel=12 note=69 velocity=0 time=8
note_on channel=4 note=47 velocity=80 time=180
note_off channel=4 note=45 velocity=0 time=12
note_off channel=11 note=57 velocity=0 time=168
note_on channel=14 note=76 velocity=76 time=0
note_on channel=4 note=48 velocity=97 time=12
note_off channel=4 note=47 velocity=0 time=4
note_on channel=11 note=60 velocity=57 time=4
note_on channel=13 note=72 velocity=70 time=0
note_on channel=12 note=67 velocity=72 time=8
note_on channel=4 note=52 velocity=90 time=180
note_on channel=4 note=55 velocity=92 time=192
note_on channel=4 note=64 velocity=87 time=188
note_off channel=4 note=52 velocity=0 time=24
note_off channel=4 note=55 velocity=0 time=48
note_on channel=13 note=74 velocity=61 time=96
note_on channel=12 note=69 velocity=65 time=4
note_off channel=13 note=72 velocity=0 time=0
note_off channel=14 note=76 velocity=0 time=4
note_off channel=12 note=67 velocity=0 time=4
note_on channel=11 note=62 velocity=72 time=4
note_on channel=14 note=78 velocity=75 time=0
note_on channel=4 note=66 velocity=92 time=8
note_on channel=4 note=50 velocity=95 time=8
note_off channel=11 note=60 velocity=0 time=0
note_off channel=4 note=64 velocity=0 time=8
note_off channel=4 note=48 velocity=0 time=4
note_on channel=4 note=62 velocity=90 time=176
note_on channel=4 note=57 velocity=90 time=192
note_off channel=4 note=62 velocity=0 time=64
note_off channel=4 note=66 velocity=0 time=8
note_on channel=4 note=66 velocity=89 time=116
note_on channel=14 note=81 velocity=68 time=168
note_on channel=13 note=77 velocity=58 time=4
note_off channel=4 note=50 velocity=0 time=8
note_off channel=13 note=74 velocity=0 time=0
note_off channel=14 note=78 velocity=0 time=0
note_off channel=4 note=57 velocity=0 time=4
note_on channel=12 note=72 velocity=50 time=0
note_off channel=12 note=69 velocity=0 time=4
note_on channel=4 note=64 velocity=83 time=4
note_on channel=11 note=65 velocity=77 time=0
note_on channel=4 note=53 velocity=92 time=4
note_off channel=11 note=62 velocity=0 time=8
note_off channel=4 note=66 velocity=0 time=4
note_on channel=4 note=60 velocity=86 time=176
note_off channel=4 note=64 velocity=0 time=8
note_on channel=14 note=79 velocity=76 time=168
note_off channel=13 note=77 velocity=0 time=8
note_on channel=13 note=74 velocity=66 time=0
note_on channel=4 note=57 velocity=92 time=8
note_off channel=12 note=72 velocity=0 time=0
note_on channel=12 note=69 velocity=70 time=0
note_off channel=14 note=81 velocity=0 time=4
note_off channel=4 note=60 velocity=0 time=92
note_off channel=14 note=79 velocity=0 time=56
note_on channel=14 note=77 velocity=82 time=0
note_on channel=4 note=64 velocity=97 time=40
note_off channel=12 note=69 velocity=0 time=60
note_off channel=4 note=64 velocity=0 time=56
note_on channel=14 note=76 velocity=67 time=52
note_on channel=11 note=57 velocity=71 time=8
note_on channel=12 note=69 velocity=72 time=0
note_off channel=14 note=77 velocity=0 time=0
note_on channel=13 note=72 velocity=67 time=4
note_off channel=4 note=57 velocity=0 time=4
note_off channel=13 note=74 velocity=0 time=0
note_off channel=11 note=65 velocity=0 time=4
note_on channel=4 note=59 velocity=92 time=8
note_off channel=4 note=53 velocity=0 time=4
note_on channel=4 note=45 velocity=90 time=0
note_off channel=4 note=59 velocity=0 time=104
note_on channel=4 note=60 velocity=81 time=4
note_on channel=4 note=57 velocity=92 time=84
note_off channel=4 note=45 velocity=0 time=88
note_on channel=4 note=45 velocity=89 time=104
note_on channel=13 note=74 velocity=61 time=160
note_on channel=12 note=67 velocity=69 time=16
note_off channel=13 note=72 velocity=0 time=0
note_off channel=14 note=76 velocity=0 time=0
note_on channel=14 note=79 velocity=65 time=0
note_off channel=12 note=69 velocity=0 time=12
note_on channel=4 note=47 velocity=81 time=4
note_on channel=11 note=59 velocity=77 time=8
note_off channel=4 note=45 velocity=0 time=4
note_off channel=11 note=57 velocity=0 time=8
note_off channel=4 note=57 velocity=0 time=28
note_off channel=14 note=79 velocity=0 time=0
note_off channel=4 note=60 velocity=0 time=4
note_off channel=12 note=67 velocity=0 time=92
note_on channel=14 note=79 velocity=69 time=32
note_off channel=4 note=47 velocity=0 time=8
note_off channel=11 note=59 velocity=0 time=0
note_off channel=13 note=74 velocity=0 time=0
note_on channel=13 note=76 velocity=71 time=0
note_on channel=4 note=60 velocity=92 time=8
note_on channel=11 note=60 velocity=72 time=0
note_on channel=12 note=67 velocity=65 time=0
note_on channel=4 note=48 velocity=90 time=0
note_on channel=4 note=55 velocity=87 time=192
note_on channel=4 note=52 velocity=86 time=188
note_off channel=4 note=60 velocity=0 time=104
note_on channel=4 note=60 velocity=92 time=84
note_off channel=14 note=79 velocity=0 time=116
note_off channel=12 note=67 velocity=0 time=28
note_on channel=12 note=67 velocity=64 time=40
note_on channel=14 note=79 velocity=64 time=0
note_off channel=4 note=48 velocity=0 time=4
note_off channel=4 note=60 velocity=0 time=4
note_on channel=11 note=59 velocity=68 time=0
note_off channel=13 note=76 velocity=0 time=0
note_on channel=4 note=43 velocity=87 time=0
note_on channel=4 note=67 velocity=99 time=0
note_on channel=13 note=74 velocity=71 time=8
note_off channel=4 note=55 velocity=0 time=16
note_off channel=11 note=60 velocity=0 time=4
note_on channel=4 note=59 velocity=97 time=164
note_on channel=4 note=55 velocity=86 time=196
note_off channel=4 note=67 velocity=0 time=88
note_on channel=4 note=67 velocity=95 time=100
note_off channel=14 note=79 velocity=0 time=28
note_off channel=4 note=59 velocity=0 time=40
note_off channel=4 note=67 velocity=0 time=24
note_on channel=14 note=79 velocity=69 time=76
note_on channel=12 note=71 velocity=72 time=16
note_off channel=11 note=59 velocity=0 time=4
note_off channel=13 note=74 velocity=0 time=0
note_on channel=11 note=62 velocity=58 time=0
note_on channel=13 note=79 velocity=72 time=0
note_on channel=4 note=67 velocity=92 time=4
note_on channel=4 note=50 velocity=92 time=4
note_off channel=12 note=67 velocity=0 time=0
note_off channel=4 note=43 velocity=0 time=4
note_on channel=4 note=62 velocity=87 time=16
note_on channel=4 note=57 velocity=80 time=12
note_on channel=4 note=66 velocity=73 time=64
note_off channel=4 note=67 velocity=0 time=4
note_off channel=4 note=66 velocity=0 time=48
note_off channel=14 note=79 velocity=0 time=32
note_on channel=14 note=81 velocity=64 time=8
note_on channel=4 note=66 velocity=103 time=4
note_on channel=12 note=69 velocity=74 time=4
note_off channel=13 note=79 velocity=0 time=0
note_on channel=13 note=78 velocity=81 time=0
note_off channel=12 note=71 velocity=0 time=4
note_off channel=14 note=81 velocity=0 time=28
note_off channel=13 note=78 velocity=0 time=16
note_off channel=4 note=50 velocity=0 time=16
note_off channel=12 note=69 velocity=0 time=0
note_off channel=11 note=62 velocity=0 time=16
note_off channel=4 note=62 velocity=0 time=24
note_off channel=4 note=66 velocity=0 time=0
note_off channel=4 note=57 velocity=0 time=16
note_on channel=13 note=78 velocity=62 time=60
note_on channel=14 note=81 velocity=71 time=4
note_on channel=4 note=66 velocity=103 time=4
note_on channel=12 note=69 velocity=70 time=0
note_on channel=4 note=62 velocity=87 time=4
note_on channel=4 note=50 velocity=103 time=0
note_on channel=4 note=57 velocity=86 time=0
note_on channel=11 note=62 velocity=76 time=16
note_off channel=4 note=50 velocity=0 time=368
note_off channel=4 note=57 velocity=0 time=300
note_off channel=4 note=62 velocity=0 time=20
note_off channel=13 note=78 velocity=0 time=8
note_off channel=4 note=66 velocity=0 time=4
note_off channel=14 note=81 velocity=0 time=20
note_off channel=12 note=69 velocity=0 time=4
note_on channel=4 note=45 velocity=90 time=24
note_off channel=4 note=52 velocity=0 time=20
note_off channel=11 note=62 velocity=0 time=4
note_off channel=4 note=55 velocity=0 time=12
note_on channel=4 note=47 velocity=89 time=156
note_off channel=4 note=45 velocity=0 time=16
note_on channel=6 note=59 velocity=78 time=60
note_off channel=6 note=59 velocity=0 time=52
note_on channel=11 note=60 velocity=66 time=52
note_on channel=12 note=67 velocity=76 time=4
note_on channel=13 note=76 velocity=71 time=4
note_on channel=4 note=48 velocity=89 time=4
note_off channel=4 note=47 velocity=0 time=4
note_on channel=14 note=76 velocity=67 time=0
note_on channel=13 note=72 velocity=67 time=20
note_on channel=4 note=52 velocity=90 time=168
note_off channel=14 note=76 velocity=0 time=180
note_on channel=14 note=81 velocity=70 time=8
note_on channel=4 note=55 velocity=92 time=4
note_off channel=13 note=72 velocity=0 time=0
note_on channel=13 note=76 velocity=73 time=0
note_off channel=12 note=67 velocity=0 time=4
note_on channel=12 note=72 velocity=71 time=0
note_on channel=4 note=64 velocity=87 time=184
note_off channel=14 note=81 velocity=0 time=0
note_on channel=12 note=71 velocity=74 time=8
note_on channel=14 note=79 velocity=65 time=4
note_off channel=4 note=52 velocity=0 time=12
note_off channel=12 note=72 velocity=0 time=0
note_off channel=4 note=55 velocity=0 time=48
note_off channel=14 note=79 velocity=0 time=8
note_off channel=13 note=76 velocity=0 time=16
note_off channel=12 note=71 velocity=0 time=24
note_off channel=11 note=60 velocity=0 time=56
note_on channel=12 note=71 velocity=76 time=8
note_on channel=11 note=62 velocity=61 time=4
note_on channel=14 note=79 velocity=78 time=0
note_on channel=4 note=66 velocity=92 time=4
note_off channel=13 note=76 velocity=0 time=4
note_on channel=4 note=50 velocity=97 time=4
note_on channel=13 note=74 velocity=86 time=0
note_off channel=4 note=48 velocity=0 time=4
note_off channel=4 note=64 velocity=0 time=4
note_off channel=14 note=79 velocity=0 time=168
note_on channel=4 note=62 velocity=90 time=12
note_on channel=14 note=78 velocity=75 time=4
note_on channel=12 note=69 velocity=76 time=4
note_off channel=12 note=71 velocity=0 time=8
note_off channel=12 note=69 velocity=0 time=92
note_on channel=12 note=69 velocity=41 time=36
note_on channel=14 note=76 velocity=48 time=36
note_off channel=14 note=78 velocity=0 time=4
note_on channel=4 note=57 velocity=90 time=8
note_off channel=12 note=69 velocity=0 time=4
note_on channel=13 note=69 velocity=68 time=0
note_on channel=12 note=67 velocity=70 time=0
note_off channel=13 note=74 velocity=0 time=4
note_off channel=4 note=62 velocity=0 time=56
note_off channel=4 note=66 velocity=0 time=8
note_on channel=4 note=66 velocity=89 time=116
note_on channel=14 note=81 velocity=69 time=4
note_off channel=14 note=76 velocity=0 time=16
note_off channel=12 note=67 velocity=0 time=24
note_on channel=6 note=59 velocity=78 time=36
note_on channel=12 note=67 velocity=52 time=4
note_off channel=14 note=81 velocity=0 time=40
note_off channel=6 note=59 velocity=0 time=8
note_off channel=12 note=67 velocity=0 time=24
note_off channel=4 note=50 velocity=0 time=16
note_off channel=4 note=57 velocity=0 time=12
note_on channel=4 note=64 velocity=83 time=8
note_on channel=11 note=65 velocity=71 time=0
note_off channel=13 note=69 velocity=0 time=0
note_on channel=14 note=81 velocity=70 time=0
note_on channel=13 note=77 velocity=78 time=0
note_on channel=4 note=53 velocity=90 time=4
note_on channel=12 note=72 velocity=64 time=4
note_off channel=11 note=62 velocity=0 time=4
note_off channel=4 note=66 velocity=0 time=4
note_on channel=4 note=60 velocity=86 time=176
note_off channel=4 note=64 velocity=0 time=8
note_on channel=12 note=74 velocity=75 time=176
note_on channel=4 note=57 velocity=92 time=8
note_off channel=12 note=72 velocity=0 time=12
note_on channel=14 note=84 velocity=78 time=16
note_off channel=14 note=81 velocity=0 time=12
note_off channel=4 note=60 velocity=0 time=56
note_on channel=13 note=79 velocity=71 time=88
note_on channel=4 note=64 velocity=97 time=8
note_off channel=11 note=65 velocity=0 time=4
note_off channel=13 note=77 velocity=0 time=0
note_on channel=11 note=67 velocity=80 time=0
note_off channel=14 note=84 velocity=0 time=8
note_on channel=14 note=83 velocity=65 time=0
note_off channel=4 note=64 velocity=0 time=104
note_off channel=14 note=83 velocity=0 time=4
note_off channel=4 note=53 velocity=0 time=52
note_off channel=4 note=57 velocity=0 time=12
note_on channel=4 note=45 velocity=89 time=4
note_off channel=13 note=79 velocity=0 time=0
note_on channel=14 note=84 velocity=76 time=0
note_on channel=13 note=81 velocity=71 time=0
note_on channel=4 note=59 velocity=92 time=8
note_on channel=11 note=69 velocity=80 time=4
note_off channel=12 note=74 velocity=0 time=0
note_on channel=12 note=76 velocity=66 time=0
note_off channel=11 note=67 velocity=0 time=12
note_off channel=4 note=59 velocity=0 time=92
note_on channel=4 note=60 velocity=81 time=4
note_on channel=4 note=57 velocity=92 time=84
note_off channel=4 note=45 velocity=0 time=96
note_on channel=4 note=45 velocity=90 time=88
note_off channel=14 note=84 velocity=0 time=188
note_on channel=14 note=86 velocity=71 time=0
note_on channel=4 note=47 velocity=90 time=8
note_off channel=4 note=45 velocity=0 time=20
note_off channel=4 note=57 velocity=0 time=32
note_off channel=4 note=60 velocity=0 time=4
note_off channel=12 note=76 velocity=0 time=124
note_off channel=13 note=81 velocity=0 time=4
note_on channel=13 note=79 velocity=74 time=0
note_off channel=4 note=47 velocity=0 time=4
note_on channel=12 note=72 velocity=64 time=0
note_on channel=4 note=48 velocity=90 time=4
note_off channel=14 note=86 velocity=0 time=4
note_on channel=14 note=88 velocity=63 time=0
note_off channel=11 note=69 velocity=0 time=8
note_on channel=11 note=60 velocity=75 time=0
note_on channel=4 note=52 velocity=82 time=184
note_on channel=4 note=55 velocity=92 time=192
note_on channel=4 note=60 velocity=87 time=192
note_off channel=12 note=72 velocity=0 time=164
note_on channel=12 note=69 velocity=72 time=0
note_off channel=11 note=60 velocity=0 time=12
note_on channel=11 note=62 velocity=75 time=0
note_off channel=14 note=88 velocity=0 time=8
note_on channel=4 note=50 velocity=95 time=8
note_on channel=14 note=86 velocity=62 time=0
note_off channel=4 note=48 velocity=0 time=4
note_on channel=13 note=78 velocity=71 time=4
note_off channel=13 note=79 velocity=0 time=8
note_off channel=4 note=55 velocity=0 time=108
note_off channel=4 note=52 velocity=0 time=8
note_on channel=4 note=57 velocity=87 time=60
note_off channel=4 note=60 velocity=0 time=36
note_on channel=4 note=62 velocity=93 time=156
note_on channel=4 note=66 velocity=92 time=192
note_off channel=4 note=66 velocity=0 time=128
note_off channel=4 note=62 velocity=0 time=16
note_off channel=12 note=69 velocity=0 time=0
note_off channel=4 note=57 velocity=0 time=8
note_off channel=14 note=86 velocity=0 time=20
note_on channel=4 note=53 velocity=82 time=20
note_on channel=11 note=53 velocity=76 time=0
note_off channel=13 note=78 velocity=0 time=0
note_on channel=4 note=57 velocity=78 time=0
note_on channel=12 note=64 velocity=73 time=4
note_on channel=4 note=60 velocity=71 time=8
note_off channel=11 note=62 velocity=0 time=0
note_on channel=13 note=72 velocity=60 time=0
note_on channel=14 note=79 velocity=71 time=0
note_on channel=4 note=64 velocity=82 time=4
note_off channel=4 note=50 velocity=0 time=16
note_off channel=4 note=57 velocity=0 time=84
note_off channel=4 note=53 velocity=0 time=8
note_off channel=4 note=60 velocity=0 time=8
note_off channel=4 note=64 velocity=0 time=20
note_off channel=14 note=79 velocity=0 time=20
note_on channel=4 note=57 velocity=70 time=4
note_on channel=14 note=81 velocity=71 time=0
note_on channel=4 note=53 velocity=80 time=12
note_on channel=12 note=65 velocity=75 time=0
note_on channel=4 note=64 velocity=59 time=4
note_off channel=12 note=64 velocity=0 time=0
note_on channel=4 note=60 velocity=62 time=0
note_off channel=14 note=81 velocity=0 time=32
note_off channel=4 note=53 velocity=0 time=16
note_off channel=12 note=65 velocity=0 time=16
note_off channel=4 note=57 velocity=0 time=12
note_off channel=4 note=60 velocity=0 time=20
note_off channel=4 note=64 velocity=0 time=28
note_on channel=4 note=53 velocity=97 time=40
note_on channel=4 note=57 velocity=89 time=16
note_on channel=12 note=65 velocity=74 time=12
note_on channel=14 note=81 velocity=66 time=0
note_on channel=4 note=60 velocity=77 time=16
note_on channel=4 note=64 velocity=89 time=8
note_off channel=11 note=53 velocity=0 time=372
note_off channel=4 note=57 velocity=0 time=324
MetaMessage('lyrics', text='\r', time=0)
MetaMessage('lyrics', text="There's", time=48)
control_change channel=0 control=11 value=96 time=0
note_off channel=12 note=65 velocity=0 time=0
note_on channel=0 note=69 velocity=113 time=0
note_off channel=4 note=60 velocity=0 time=16
note_off channel=14 note=81 velocity=0 time=0
note_off channel=4 note=53 velocity=0 time=16
note_off channel=4 note=64 velocity=0 time=4
note_off channel=13 note=72 velocity=0 time=0
MetaMessage('lyrics', text=' a', time=156)
note_on channel=0 note=71 velocity=109 time=0
note_off channel=0 note=69 velocity=0 time=4
MetaMessage('lyrics', text=' La', time=188)
note_on channel=0 note=72 velocity=95 time=0
note_on channel=11 note=57 velocity=76 time=0
note_on channel=4 note=57 velocity=89 time=4
note_off channel=0 note=71 velocity=0 time=8
note_on channel=4 note=60 velocity=86 time=176
MetaMessage('lyrics', text='dy', time=192)
note_on channel=0 note=71 velocity=99 time=0
note_off channel=0 note=72 velocity=0 time=4
note_on channel=4 note=64 velocity=83 time=0
MetaMessage('lyrics', text=" who's", time=96)
note_on channel=0 note=69 velocity=95 time=0
note_off channel=0 note=71 velocity=0 time=16
note_on channel=4 note=69 velocity=85 time=76
note_off channel=0 note=69 velocity=0 time=4
MetaMessage('lyrics', text=' sure', time=96)
note_on channel=0 note=71 velocity=101 time=0
note_off channel=4 note=57 velocity=0 time=80
note_off channel=4 note=69 velocity=0 time=8
note_on channel=4 note=71 velocity=81 time=0
note_on channel=4 note=56 velocity=93 time=4
note_on channel=11 note=56 velocity=68 time=20
note_off channel=11 note=57 velocity=0 time=4
note_off channel=4 note=64 velocity=0 time=76
note_on channel=4 note=64 velocity=93 time=92
note_off channel=4 note=60 velocity=0 time=8
note_on channel=4 note=60 velocity=83 time=180
note_off channel=4 note=71 velocity=0 time=48
note_off channel=0 note=71 velocity=0 time=136
MetaMessage('lyrics', text=' all', time=12)
note_on channel=0 note=69 velocity=70 time=0
note_on channel=4 note=71 velocity=86 time=0
MetaMessage('lyrics', text=' that', time=96)
note_on channel=0 note=71 velocity=93 time=0
note_off channel=0 note=69 velocity=0 time=16
note_off channel=4 note=56 velocity=0 time=56
note_on channel=11 note=55 velocity=72 time=12
note_off channel=11 note=56 velocity=0 time=4
note_off channel=4 note=71 velocity=0 time=4
note_on channel=4 note=55 velocity=86 time=0
note_on channel=4 note=72 velocity=82 time=4
MetaMessage('lyrics', text='\r', time=0)
MetaMessage('lyrics', text='glit', time=4)
note_on channel=0 note=72 velocity=101 time=0
note_off channel=0 note=71 velocity=0 time=12
note_off channel=4 note=60 velocity=0 time=64
MetaMessage('lyrics', text='ters', time=16)
note_on channel=0 note=74 velocity=97 time=0
note_off channel=0 note=72 velocity=0 time=4
note_off channel=4 note=64 velocity=0 time=0
note_on channel=4 note=64 velocity=83 time=92
note_on channel=4 note=60 velocity=78 time=188
note_off channel=4 note=72 velocity=0 time=80
note_on channel=4 note=72 velocity=89 time=116
MetaMessage('lyrics', text=' is', time=4)
note_on channel=0 note=72 velocity=71 time=0
note_off channel=0 note=74 velocity=0 time=48
note_off channel=4 note=72 velocity=0 time=40
note_off channel=0 note=72 velocity=0 time=96
MetaMessage('lyrics', text=' go', time=8)
note_on channel=0 note=71 velocity=101 time=0
note_on channel=4 note=54 velocity=83 time=0
note_on channel=4 note=66 velocity=90 time=0
note_off channel=11 note=55 velocity=0 time=16
note_on channel=11 note=54 velocity=77 time=0
note_off channel=4 note=55 velocity=0 time=12
note_off channel=4 note=64 velocity=0 time=40
note_off channel=4 note=60 velocity=0 time=8
MetaMessage('lyrics', text='ld', time=20)
note_off channel=0 note=71 velocity=0 time=0
note_on channel=0 note=69 velocity=107 time=0
note_on channel=4 note=62 velocity=93 time=96
note_on channel=4 note=57 velocity=89 time=192
MetaMessage('lyrics', text='\r', time=0)
MetaMessage('lyrics', text='And', time=4)
note_on channel=0 note=72 velocity=99 time=0
note_off channel=0 note=69 velocity=0 time=8
note_off channel=4 note=66 velocity=0 time=120
MetaMessage('lyrics', text=" she's", time=60)
note_on channel=0 note=74 velocity=105 time=0
note_on channel=4 note=66 velocity=92 time=0
note_off channel=0 note=72 velocity=0 time=4
note_off channel=4 note=54 velocity=0 time=148
note_on channel=4 note=53 velocity=87 time=32
note_off channel=11 note=54 velocity=0 time=0
note_on channel=11 note=53 velocity=66 time=0
note_off channel=0 note=74 velocity=0 time=4
note_off channel=4 note=66 velocity=0 time=4
note_on channel=4 note=64 velocity=93 time=0
MetaMessage('lyrics', text=' buy', time=4)
note_on channel=0 note=76 velocity=99 time=0
note_off channel=4 note=62 velocity=0 time=12
note_off channel=4 note=57 velocity=0 time=16
note_on channel=4 note=60 velocity=89 time=156
note_off channel=0 note=76 velocity=0 time=96
MetaMessage('lyrics', text='ing', time=4)
note_on channel=0 note=74 velocity=105 time=0
note_on channel=4 note=57 velocity=89 time=92
note_off channel=4 note=64 velocity=0 time=128
note_off channel=4 note=60 velocity=0 time=32
note_on channel=4 note=64 velocity=32 time=28
MetaMessage('lyrics', text=' a', time=4)
note_on channel=0 note=72 velocity=101 time=0
note_off channel=0 note=74 velocity=0 time=4
note_on channel=4 note=60 velocity=86 time=0
MetaMessage('lyrics', text=' stair', time=188)
note_on channel=0 note=71 velocity=90 time=0
note_off channel=0 note=72 velocity=0 time=4
note_off channel=4 note=64 velocity=0 time=124
MetaMessage('lyrics', text='way', time=64)
note_on channel=0 note=69 velocity=92 time=0
note_on channel=4 note=64 velocity=87 time=0
note_off channel=0 note=71 velocity=0 time=12
note_off channel=4 note=60 velocity=0 time=40
note_on channel=6 note=57 velocity=85 time=64
note_off channel=6 note=57 velocity=0 time=52
note_on channel=4 note=60 velocity=87 time=20
note_off channel=4 note=57 velocity=0 time=16
note_off channel=0 note=69 velocity=0 time=160
note_on channel=4 note=57 velocity=89 time=16
note_off channel=11 note=53 velocity=0 time=8
note_off channel=4 note=60 velocity=0 time=80
note_off channel=4 note=57 velocity=0 time=12
MetaMessage('lyrics', text=' to', time=4)
note_on channel=0 note=67 velocity=81 time=0
note_off channel=0 note=67 velocity=0 time=32
note_off channel=4 note=64 velocity=0 time=28
note_off channel=4 note=53 velocity=0 time=24
note_on channel=11 note=55 velocity=80 time=4
note_on channel=4 note=47 velocity=86 time=4
note_on channel=4 note=55 velocity=89 time=0
note_on channel=4 note=59 velocity=86 time=0
MetaMessage('lyrics', text=' hea', time=4)
note_on channel=0 note=67 velocity=103 time=0
note_on channel=4 note=57 velocity=85 time=188
note_on channel=4 note=60 velocity=85 time=0
MetaMessage('lyrics', text='ven', time=4)
note_off channel=0 note=67 velocity=0 time=0
note_on channel=4 note=45 velocity=80 time=0
note_on channel=11 note=57 velocity=71 time=0
note_on channel=0 note=69 velocity=101 time=0
note_off channel=4 note=55 velocity=0 time=4
note_off channel=11 note=55 velocity=0 time=0
note_off channel=4 note=59 velocity=0 time=4
note_off channel=4 note=47 velocity=0 time=12
note_off channel=4 note=57 velocity=0 time=24
note_off channel=4 note=60 velocity=0 time=0
note_off channel=4 note=45 velocity=0 time=0
note_off channel=11 note=57 velocity=0 time=20
note_on channel=4 note=60 velocity=93 time=124
note_on channel=11 note=57 velocity=68 time=0
note_on channel=4 note=57 velocity=93 time=0
note_on channel=4 note=45 velocity=93 time=4
note_off channel=0 note=69 velocity=0 time=528
note_off channel=4 note=45 velocity=0 time=208
MetaMessage('lyrics', text='\r', time=0)
MetaMessage('lyrics', text='And', time=32)
note_on channel=0 note=69 velocity=109 time=0
note_off channel=4 note=57 velocity=0 time=0
note_off channel=4 note=60 velocity=0 time=16
note_off channel=11 note=57 velocity=0 time=0
MetaMessage('lyrics', text=' when', time=172)
note_on channel=0 note=71 velocity=111 time=0
note_off channel=0 note=69 velocity=0 time=4
note_on channel=14 note=76 velocity=64 time=152
note_on channel=4 note=57 velocity=81 time=32
MetaMessage('lyrics', text=' she', time=4)
note_on channel=0 note=72 velocity=105 time=0
note_on channel=11 note=57 velocity=77 time=0
note_on channel=12 note=64 velocity=70 time=0
note_on channel=11 note=57 velocity=76 time=8
note_on channel=13 note=72 velocity=61 time=4
note_off channel=0 note=71 velocity=0 time=8
note_on channel=4 note=60 velocity=78 time=172
note_on channel=4 note=64 velocity=85 time=192
MetaMessage('lyrics', text=' gets', time=4)
note_on channel=0 note=71 velocity=99 time=0
note_off channel=0 note=72 velocity=0 time=4
note_off channel=0 note=71 velocity=0 time=156
note_on channel=4 note=69 velocity=78 time=24
MetaMessage('lyrics', text=' there', time=8)
note_on channel=0 note=69 velocity=90 time=0
note_off channel=0 note=69 velocity=0 time=88
MetaMessage('lyrics', text=' she knows', time=4)
note_on channel=0 note=71 velocity=107 time=0
note_on channel=6 note=60 velocity=86 time=36
note_off channel=6 note=60 velocity=0 time=32
note_on channel=11 note=56 velocity=70 time=0
note_off channel=11 note=57 velocity=0 time=16
note_off channel=11 note=57 velocity=0 time=0
note_off channel=4 note=57 velocity=0 time=8
note_off channel=4 note=69 velocity=0 time=0
note_on channel=4 note=71 velocity=89 time=0
note_on channel=4 note=56 velocity=86 time=4
note_off channel=4 note=64 velocity=0 time=100
note_on channel=4 note=64 velocity=86 time=96
note_off channel=4 note=60 velocity=0 time=48
note_on channel=4 note=60 velocity=92 time=144
note_off channel=4 note=71 velocity=0 time=64
note_off channel=0 note=71 velocity=0 time=100
MetaMessage('lyrics', text='\r', time=0)
MetaMessage('lyrics', text='if', time=20)
note_on channel=0 note=69 velocity=76 time=0
note_on channel=4 note=71 velocity=95 time=8
note_off channel=0 note=69 velocity=0 time=80
MetaMessage('lyrics', text=' the', time=8)
note_on channel=0 note=71 velocity=105 time=0
note_off channel=14 note=76 velocity=0 time=84
note_on channel=14 note=72 velocity=64 time=8
note_off channel=11 note=56 velocity=0 time=4
MetaMessage('lyrics', text=' stores', time=4)
note_on channel=0 note=72 velocity=99 time=0
note_on channel=4 note=55 velocity=87 time=0
note_on channel=11 note=55 velocity=67 time=0
note_off channel=4 note=56 velocity=0 time=4
note_on channel=4 note=72 velocity=85 time=0
note_off channel=4 note=71 velocity=0 time=4
note_off channel=0 note=71 velocity=0 time=8
note_on channel=13 note=69 velocity=67 time=0
note_off channel=13 note=72 velocity=0 time=4
note_off channel=4 note=60 velocity=0 time=64
note_off channel=4 note=64 velocity=0 time=12
note_on channel=4 note=64 velocity=81 time=100
note_off channel=0 note=72 velocity=0 time=80
MetaMessage('lyrics', text=' are', time=12)
note_on channel=0 note=74 velocity=92 time=0
note_on channel=4 note=60 velocity=82 time=100
note_off channel=4 note=72 velocity=0 time=88
MetaMessage('lyrics', text=' all', time=100)
note_on channel=0 note=72 velocity=99 time=0
note_off channel=0 note=74 velocity=0 time=4
note_on channel=4 note=72 velocity=87 time=0
note_off channel=4 note=72 velocity=0 time=104
note_off channel=4 note=55 velocity=0 time=72
note_on channel=11 note=54 velocity=72 time=0
note_off channel=11 note=55 velocity=0 time=4
note_on channel=4 note=54 velocity=99 time=4
MetaMessage('lyrics', text=' clo', time=4)
note_on channel=0 note=71 velocity=97 time=0
note_off channel=12 note=64 velocity=0 time=0
note_on channel=12 note=62 velocity=71 time=0
note_on channel=4 note=66 velocity=90 time=4
note_off channel=0 note=72 velocity=0 time=8
note_off channel=4 note=64 velocity=0 time=48
note_off channel=4 note=60 velocity=0 time=4
note_off channel=0 note=71 velocity=0 time=28
MetaMessage('lyrics', text='sed', time=8)
note_on channel=0 note=69 velocity=99 time=0
note_on channel=4 note=62 velocity=92 time=96
note_off channel=0 note=69 velocity=0 time=184
note_on channel=4 note=57 velocity=89 time=8
note_off channel=4 note=66 velocity=0 time=80
MetaMessage('lyrics', text='\r', time=0)
MetaMessage('lyrics', text='With', time=112)
note_on channel=0 note=72 velocity=86 time=0
note_on channel=4 note=66 velocity=92 time=0
MetaMessage('lyrics', text=' a', time=96)
note_off channel=0 note=72 velocity=0 time=0
note_on channel=0 note=74 velocity=109 time=0
note_off channel=4 note=62 velocity=0 time=8
note_off channel=14 note=72 velocity=0 time=0
note_off channel=13 note=69 velocity=0 time=20
note_off channel=11 note=54 velocity=0 time=52
note_on channel=11 note=53 velocity=64 time=4
note_off channel=4 note=66 velocity=0 time=8
note_on channel=13 note=69 velocity=57 time=0
note_on channel=14 note=72 velocity=64 time=0
note_on channel=4 note=53 velocity=92 time=0
note_on channel=4 note=64 velocity=95 time=0
MetaMessage('lyrics', text=' word', time=4)
note_on channel=0 note=76 velocity=103 time=0
note_off channel=4 note=54 velocity=0 time=0
note_off channel=12 note=62 velocity=0 time=0
note_on channel=12 note=60 velocity=56 time=0
note_off channel=0 note=74 velocity=0 time=16
note_off channel=4 note=57 velocity=0 time=0
note_on channel=4 note=60 velocity=86 time=172
MetaMessage('lyrics', text=' she', time=104)
note_on channel=0 note=74 velocity=103 time=0
note_off channel=0 note=76 velocity=0 time=24
note_on channel=4 note=57 velocity=82 time=64
note_off channel=4 note=60 velocity=0 time=32
note_off channel=0 note=74 velocity=0 time=148
MetaMessage('lyrics', text=' can', time=16)
note_on channel=0 note=72 velocity=90 time=0
note_on channel=4 note=60 velocity=82 time=0
note_off channel=0 note=72 velocity=0 time=104
MetaMessage('lyrics', text=' get', time=88)
note_on channel=0 note=71 velocity=103 time=0
note_off channel=4 note=64 velocity=0 time=100
note_on channel=4 note=64 velocity=90 time=88
note_off channel=4 note=60 velocity=0 time=72
note_off channel=0 note=71 velocity=0 time=44
note_on channel=4 note=60 velocity=89 time=72
MetaMessage('lyrics', text=' what', time=8)
note_on channel=0 note=69 velocity=101 time=0
note_off channel=4 note=57 velocity=0 time=0
note_off channel=0 note=69 velocity=0 time=184
note_on channel=4 note=57 velocity=86 time=0
MetaMessage('lyrics', text=' she', time=8)
note_on channel=0 note=67 velocity=90 time=0
note_off channel=14 note=72 velocity=0 time=4
note_off channel=11 note=53 velocity=0 time=20
note_off channel=0 note=67 velocity=0 time=40
note_off channel=4 note=60 velocity=0 time=4
note_off channel=4 note=53 velocity=0 time=4
note_off channel=4 note=57 velocity=0 time=8
note_off channel=12 note=60 velocity=0 time=64
note_off channel=4 note=64 velocity=0 time=4
note_off channel=13 note=69 velocity=0 time=12
note_on channel=12 note=67 velocity=78 time=16
note_on channel=13 note=71 velocity=76 time=0
note_on channel=14 note=74 velocity=77 time=0
note_on channel=4 note=47 velocity=87 time=8
note_on channel=4 note=55 velocity=85 time=4
note_on channel=4 note=59 velocity=85 time=0
MetaMessage('lyrics', text=' came', time=4)
note_on channel=0 note=67 velocity=105 time=0
note_on channel=11 note=55 velocity=75 time=0
note_on channel=14 note=76 velocity=69 time=176
note_off channel=0 note=67 velocity=0 time=12
note_on channel=4 note=45 velocity=86 time=0
note_on channel=11 note=57 velocity=64 time=0
note_off channel=14 note=74 velocity=0 time=0
note_on channel=4 note=57 velocity=81 time=0
note_on channel=4 note=60 velocity=90 time=0
MetaMessage('lyrics', text=' for', time=4)
note_on channel=0 note=69 velocity=95 time=0
note_off channel=4 note=59 velocity=0 time=0
note_off channel=11 note=55 velocity=0 time=0
note_off channel=12 note=67 velocity=0 time=0
note_on channel=12 note=69 velocity=70 time=0
note_on channel=13 note=72 velocity=68 time=4
note_off channel=4 note=47 velocity=0 time=12
note_off channel=13 note=71 velocity=0 time=0
note_off channel=4 note=55 velocity=0 time=0
note_off channel=4 note=60 velocity=0 time=8
note_off channel=4 note=57 velocity=0 time=12
note_off channel=12 note=69 velocity=0 time=0
note_off channel=14 note=76 velocity=0 time=0
note_off channel=0 note=69 velocity=0 time=12
note_off channel=13 note=72 velocity=0 time=8
note_off channel=11 note=57 velocity=0 time=24
note_off channel=4 note=45 velocity=0 time=12
note_on channel=13 note=72 velocity=67 time=92
note_on channel=14 note=76 velocity=60 time=0
note_on channel=4 note=45 velocity=95 time=4
note_on channel=4 note=57 velocity=90 time=0
note_on channel=4 note=60 velocity=92 time=0
MetaMessage('lyrics', text='.', time=4)
note_on channel=0 note=69 velocity=81 time=0
note_on channel=12 note=69 velocity=70 time=12
note_on channel=11 note=57 velocity=69 time=4
note_off channel=4 note=45 velocity=0 time=448
note_off channel=4 note=60 velocity=0 time=148
note_off channel=4 note=57 velocity=0 time=20
note_off channel=0 note=69 velocity=0 time=80
note_off channel=11 note=57 velocity=0 time=16
note_off channel=12 note=69 velocity=0 time=24
note_on channel=4 note=45 velocity=95 time=8
note_off channel=14 note=76 velocity=0 time=8
note_off channel=13 note=72 velocity=0 time=36
note_on channel=4 note=47 velocity=80 time=148
note_off channel=4 note=45 velocity=0 time=12
note_on channel=4 note=48 velocity=97 time=180
note_off channel=4 note=47 velocity=0 time=4
note_on channel=11 note=60 velocity=69 time=4
note_on channel=4 note=52 velocity=90 time=188
MetaMessage('lyrics', text='\r', time=0)
MetaMessage('lyrics', text='ooh', time=184)
note_on channel=0 note=72 velocity=81 time=0
note_on channel=4 note=55 velocity=92 time=8
note_off channel=0 note=72 velocity=0 time=180
MetaMessage('lyrics', text=' ooh', time=8)
note_on channel=0 note=76 velocity=113 time=0
note_on channel=4 note=64 velocity=87 time=0
note_off channel=4 note=52 velocity=0 time=24
note_off channel=4 note=55 velocity=0 time=48
note_on channel=11 note=62 velocity=74 time=100
note_off channel=0 note=76 velocity=0 time=4
note_off channel=11 note=60 velocity=0 time=8
note_on channel=4 note=66 velocity=92 time=8
note_on channel=4 note=50 velocity=95 time=8
MetaMessage('lyrics', text=' ooh', time=8)
note_on channel=0 note=74 velocity=107 time=0
note_off channel=4 note=64 velocity=0 time=0
note_off channel=4 note=48 velocity=0 time=4
note_on channel=4 note=62 velocity=90 time=176
note_on channel=4 note=57 velocity=90 time=192
note_off channel=4 note=62 velocity=0 time=64
note_off channel=4 note=66 velocity=0 time=8
note_on channel=4 note=66 velocity=89 time=116
note_off channel=0 note=74 velocity=0 time=40
note_off channel=11 note=62 velocity=0 time=56
note_off channel=4 note=50 velocity=0 time=84
note_off channel=4 note=57 velocity=0 time=4
note_on channel=4 note=64 velocity=83 time=8
MetaMessage('lyrics', text=' ooh', time=4)
note_on channel=0 note=74 velocity=111 time=0
note_on channel=4 note=53 velocity=92 time=0
note_on channel=11 note=62 velocity=76 time=4
note_off channel=4 note=66 velocity=0 time=8
note_on channel=4 note=60 velocity=86 time=176
note_off channel=4 note=64 velocity=0 time=8
note_off channel=11 note=62 velocity=0 time=176
note_on channel=11 note=60 velocity=78 time=4
note_on channel=4 note=57 velocity=92 time=4
note_off channel=4 note=60 velocity=0 time=96
note_on channel=11 note=59 velocity=72 time=84
MetaMessage('lyrics', text=' ooh', time=12)
note_off channel=0 note=74 velocity=0 time=0
note_on channel=4 note=64 velocity=97 time=0
note_on channel=0 note=72 velocity=67 time=0
note_off channel=11 note=60 velocity=0 time=16
note_off channel=0 note=72 velocity=0 time=60
MetaMessage('lyrics', text=' ooh', time=20)
note_on channel=0 note=71 velocity=70 time=0
note_off channel=4 note=64 velocity=0 time=20
note_off channel=11 note=59 velocity=0 time=56
note_off channel=4 note=57 velocity=0 time=12
note_off channel=0 note=71 velocity=0 time=4
MetaMessage('lyrics', text=' ooh', time=4)
note_on channel=0 note=72 velocity=111 time=0
note_on channel=4 note=59 velocity=92 time=4
note_on channel=11 note=60 velocity=76 time=0
note_off channel=4 note=53 velocity=0 time=4
note_on channel=4 note=45 velocity=90 time=0
note_off channel=4 note=59 velocity=0 time=104
note_on channel=4 note=60 velocity=81 time=4
MetaMessage('lyrics', text=' ooh', time=80)
note_on channel=0 note=69 velocity=82 time=0
note_on channel=4 note=57 velocity=92 time=4
note_off channel=0 note=72 velocity=0 time=12
note_off channel=4 note=45 velocity=0 time=76
note_off channel=0 note=69 velocity=0 time=28
MetaMessage('lyrics', text='\r', time=0)
MetaMessage('lyrics', text='and', time=72)
note_on channel=0 note=69 velocity=90 time=0
note_on channel=4 note=45 velocity=89 time=4
note_on channel=11 note=62 velocity=74 time=184
MetaMessage('lyrics', text=" she's", time=8)
note_on channel=0 note=71 velocity=93 time=0
note_on channel=4 note=47 velocity=81 time=0
note_off channel=11 note=60 velocity=0 time=4
note_off channel=4 note=45 velocity=0 time=8
note_off channel=4 note=57 velocity=0 time=36
note_off channel=4 note=60 velocity=0 time=4
note_off channel=0 note=69 velocity=0 time=56
note_off channel=4 note=47 velocity=0 time=76
MetaMessage('lyrics', text=' bu', time=8)
note_on channel=0 note=72 velocity=82 time=0
note_on channel=4 note=60 velocity=92 time=0
note_off channel=11 note=62 velocity=0 time=0
note_on channel=4 note=48 velocity=90 time=0
note_on channel=11 note=64 velocity=74 time=0
note_off channel=0 note=71 velocity=0 time=28
MetaMessage('lyrics', text='y', time=164)
note_on channel=0 note=74 velocity=95 time=0
note_on channel=4 note=55 velocity=87 time=0
note_off channel=0 note=72 velocity=0 time=12
note_off channel=0 note=74 velocity=0 time=148
MetaMessage('lyrics', text='ing', time=28)
note_on channel=0 note=76 velocity=92 time=0
note_on channel=4 note=52 velocity=86 time=0
note_off channel=4 note=60 velocity=0 time=104
note_on channel=4 note=60 velocity=92 time=84
MetaMessage('lyrics', text=' a', time=4)
note_on channel=0 note=74 velocity=77 time=0
note_off channel=0 note=76 velocity=0 time=20
note_off channel=0 note=74 velocity=0 time=112
note_off channel=11 note=64 velocity=0 time=32
note_on channel=11 note=62 velocity=74 time=8
note_off channel=4 note=48 velocity=0 time=12
note_off channel=4 note=60 velocity=0 time=4
note_on channel=4 note=43 velocity=87 time=0
note_on channel=4 note=67 velocity=99 time=0
MetaMessage('lyrics', text=' sta', time=4)
note_on channel=0 note=74 velocity=97 time=0
note_off channel=4 note=55 velocity=0 time=20
note_off channel=0 note=74 velocity=0 time=48
MetaMessage('lyrics', text='ir', time=24)
note_on channel=0 note=72 velocity=97 time=0
note_on channel=4 note=59 velocity=97 time=96
MetaMessage('lyrics', text='way', time=192)
note_off channel=0 note=72 velocity=0 time=0
note_on channel=0 note=71 velocity=101 time=0
note_on channel=4 note=55 velocity=86 time=4
note_off channel=4 note=67 velocity=0 time=88
note_on channel=4 note=67 velocity=95 time=100
note_off channel=0 note=71 velocity=0 time=56
note_off channel=4 note=59 velocity=0 time=12
note_off channel=4 note=67 velocity=0 time=24
MetaMessage('lyrics', text=' to', time=4)
note_on channel=0 note=67 velocity=87 time=0
note_off channel=0 note=67 velocity=0 time=72
note_on channel=11 note=55 velocity=80 time=16
MetaMessage('lyrics', text=' hea', time=8)
note_on channel=0 note=67 velocity=75 time=0
note_on channel=4 note=67 velocity=92 time=0
note_on channel=4 note=50 velocity=92 time=4
note_off channel=11 note=62 velocity=0 time=0
note_off channel=4 note=43 velocity=0 time=4
note_on channel=4 note=62 velocity=87 time=16
note_on channel=4 note=57 velocity=80 time=12
note_on channel=4 note=66 velocity=73 time=64
note_off channel=4 note=67 velocity=0 time=4
note_off channel=4 note=66 velocity=0 time=48
MetaMessage('lyrics', text='ven', time=40)
note_on channel=0 note=69 velocity=107 time=0
note_off channel=11 note=55 velocity=0 time=0
note_on channel=4 note=66 velocity=103 time=4
note_on channel=11 note=57 velocity=72 time=4
note_off channel=4 note=50 velocity=0 time=64
note_off channel=11 note=57 velocity=0 time=0
note_off channel=0 note=67 velocity=0 time=24
note_off channel=4 note=62 velocity=0 time=16
note_off channel=4 note=66 velocity=0 time=0
note_off channel=4 note=57 velocity=0 time=16
note_on channel=4 note=66 velocity=103 time=68
note_on channel=4 note=62 velocity=87 time=4
note_on channel=11 note=57 velocity=75 time=0
note_on channel=4 note=50 velocity=103 time=0
note_on channel=4 note=57 velocity=86 time=0
note_off channel=4 note=50 velocity=0 time=384
note_off channel=4 note=57 velocity=0 time=48
note_off channel=4 note=62 velocity=0 time=24
note_off channel=4 note=66 velocity=0 time=148
note_off channel=0 note=69 velocity=0 time=4
note_off channel=11 note=57 velocity=0 time=144
MetaMessage('lyrics', text='\r', time=0)
MetaMessage('lyrics', text="There's", time=12)
note_on channel=0 note=69 velocity=92 time=0
note_on channel=4 note=45 velocity=90 time=0
note_off channel=4 note=52 velocity=0 time=20
note_off channel=4 note=55 velocity=0 time=16
note_off channel=0 note=69 velocity=0 time=140
MetaMessage('lyrics', text=' a', time=16)
note_on channel=0 note=71 velocity=101 time=0
note_on channel=4 note=47 velocity=89 time=0
note_off channel=4 note=45 velocity=0 time=16
note_on channel=6 note=59 velocity=78 time=60
note_off channel=6 note=59 velocity=0 time=52
note_on channel=11 note=60 velocity=78 time=52
MetaMessage('lyrics', text=' sign', time=12)
note_on channel=0 note=72 velocity=93 time=0
note_on channel=4 note=48 velocity=89 time=0
note_off channel=4 note=47 velocity=0 time=4
note_on channel=12 note=67 velocity=71 time=4
note_off channel=0 note=71 velocity=0 time=8
note_on channel=4 note=52 velocity=90 time=176
MetaMessage('lyrics', text=' on', time=192)
note_off channel=0 note=72 velocity=0 time=0
note_on channel=4 note=55 velocity=92 time=0
note_on channel=12 note=72 velocity=81 time=0
note_on channel=0 note=71 velocity=97 time=0
note_off channel=12 note=67 velocity=0 time=4
note_off channel=0 note=71 velocity=0 time=172
note_on channel=12 note=71 velocity=74 time=4
note_on channel=4 note=64 velocity=87 time=8
note_off channel=12 note=72 velocity=0 time=0
MetaMessage('lyrics', text=' the', time=4)
note_on channel=0 note=69 velocity=71 time=0
note_off channel=4 note=52 velocity=0 time=20
note_off channel=0 note=69 velocity=0 time=48
note_off channel=4 note=55 velocity=0 time=0
note_off channel=12 note=71 velocity=0 time=0
MetaMessage('lyrics', text=' wa', time=28)
note_on channel=0 note=71 velocity=103 time=0
note_off channel=0 note=71 velocity=0 time=68
note_on channel=11 note=62 velocity=71 time=16
MetaMessage('lyrics', text='ll', time=8)
note_on channel=0 note=69 velocity=109 time=0
note_on channel=4 note=66 velocity=92 time=0
note_off channel=11 note=60 velocity=0 time=0
note_on channel=12 note=71 velocity=76 time=0
note_on channel=4 note=50 velocity=97 time=8
note_off channel=4 note=48 velocity=0 time=4
note_off channel=4 note=64 velocity=0 time=4
note_on channel=12 note=69 velocity=70 time=168
note_off channel=12 note=71 velocity=0 time=4
note_on channel=4 note=62 velocity=90 time=8
note_off channel=0 note=69 velocity=0 time=168
note_on channel=12 note=67 velocity=66 time=12
note_off channel=12 note=69 velocity=0 time=8
note_on channel=4 note=57 velocity=90 time=4
note_off channel=4 note=62 velocity=0 time=64
note_off channel=4 note=66 velocity=0 time=8
note_on channel=12 note=66 velocity=74 time=104
note_on channel=4 note=66 velocity=89 time=12
note_off channel=12 note=67 velocity=0 time=0
MetaMessage('lyrics', text='\r', time=0)
MetaMessage('lyrics', text='But', time=4)
note_on channel=0 note=69 velocity=77 time=0
MetaMessage('lyrics', text=' she', time=100)
note_on channel=0 note=71 velocity=101 time=0
note_off channel=0 note=69 velocity=0 time=4
note_off channel=4 note=50 velocity=0 time=64
note_off channel=0 note=71 velocity=0 time=8
note_off channel=4 note=57 velocity=0 time=4
note_off channel=11 note=62 velocity=0 time=4
note_off channel=12 note=66 velocity=0 time=0
note_on channel=4 note=64 velocity=83 time=4
note_on channel=11 note=65 velocity=81 time=0
note_on channel=4 note=53 velocity=90 time=4
note_on channel=12 note=69 velocity=80 time=0
MetaMessage('lyrics', text=' wants', time=4)
note_on channel=0 note=72 velocity=91 time=0
note_off channel=4 note=66 velocity=0 time=8
note_on channel=4 note=60 velocity=86 time=176
note_off channel=4 note=64 velocity=0 time=8
note_off channel=0 note=72 velocity=0 time=76
note_on channel=4 note=57 velocity=92 time=108
note_on channel=12 note=71 velocity=75 time=0
MetaMessage('lyrics', text=' to', time=4)
note_on channel=0 note=74 velocity=109 time=0
note_off channel=12 note=69 velocity=0 time=4
note_off channel=4 note=60 velocity=0 time=88
MetaMessage('lyrics', text=' be', time=4)
note_on channel=0 note=72 velocity=99 time=0
note_off channel=0 note=74 velocity=0 time=20
note_off channel=0 note=72 velocity=0 time=64
note_on channel=4 note=64 velocity=97 time=8
MetaMessage('lyrics', text=' su', time=96)
note_on channel=0 note=71 velocity=86 time=0
note_off channel=4 note=64 velocity=0 time=20
note_off channel=0 note=71 velocity=0 time=48
note_off channel=4 note=53 velocity=0 time=8
note_off channel=4 note=57 velocity=0 time=12
note_on channel=4 note=45 velocity=89 time=4
MetaMessage('lyrics', text='re', time=8)
note_on channel=0 note=69 velocity=101 time=0
note_on channel=4 note=59 velocity=92 time=0
note_on channel=11 note=57 velocity=71 time=4
note_off channel=12 note=71 velocity=0 time=0
note_on channel=12 note=72 velocity=67 time=0
note_off channel=11 note=65 velocity=0 time=8
note_off channel=4 note=59 velocity=0 time=96
note_on channel=4 note=60 velocity=81 time=4
note_on channel=4 note=57 velocity=92 time=84
note_off channel=0 note=69 velocity=0 time=64
note_off channel=4 note=45 velocity=0 time=32
note_on channel=4 note=45 velocity=90 time=88
MetaMessage('lyrics', text='\r', time=0)
MetaMessage('lyrics', text='Cause', time=8)
note_on channel=0 note=72 velocity=95 time=0
note_off channel=12 note=72 velocity=0 time=168
MetaMessage('lyrics', text=' you', time=20)
note_on channel=0 note=74 velocity=111 time=0
note_on channel=4 note=47 velocity=90 time=0
note_on channel=11 note=59 velocity=80 time=0
note_off channel=0 note=72 velocity=0 time=4
note_off channel=11 note=57 velocity=0 time=0
note_off channel=4 note=45 velocity=0 time=16
note_off channel=4 note=57 velocity=0 time=32
note_off channel=4 note=60 velocity=0 time=4
note_off channel=11 note=59 velocity=0 time=116
note_on channel=11 note=60 velocity=74 time=8
note_on channel=14 note=79 velocity=69 time=0
note_on channel=13 note=76 velocity=71 time=4
note_off channel=4 note=47 velocity=0 time=4
note_on channel=4 note=48 velocity=90 time=4
MetaMessage('lyrics', text=' know', time=4)
note_on channel=0 note=76 velocity=107 time=0
note_on channel=12 note=67 velocity=70 time=4
note_off channel=0 note=74 velocity=0 time=4
note_on channel=4 note=52 velocity=82 time=184
note_off channel=0 note=76 velocity=0 time=56
MetaMessage('lyrics', text=' some', time=40)
note_on channel=0 note=74 velocity=109 time=0
note_on channel=4 note=55 velocity=92 time=96
note_off channel=0 note=74 velocity=0 time=176
MetaMessage('lyrics', text='times', time=12)
note_on channel=0 note=72 velocity=83 time=0
note_on channel=4 note=60 velocity=87 time=4
note_off channel=0 note=72 velocity=0 time=116
note_off channel=13 note=76 velocity=0 time=56
note_off channel=12 note=67 velocity=0 time=4
note_on channel=12 note=69 velocity=73 time=0
MetaMessage('lyrics', text=' words', time=16)
note_on channel=0 note=71 velocity=101 time=0
note_on channel=4 note=50 velocity=95 time=0
note_off channel=11 note=60 velocity=0 time=0
note_on channel=13 note=74 velocity=68 time=0
note_off channel=14 note=79 velocity=0 time=0
note_on channel=11 note=62 velocity=70 time=0
note_on channel=14 note=78 velocity=73 time=0
note_off channel=4 note=48 velocity=0 time=4
note_off channel=4 note=55 velocity=0 time=120
note_off channel=4 note=52 velocity=0 time=8
note_on channel=4 note=57 velocity=87 time=60
note_off channel=4 note=60 velocity=0 time=36
note_off channel=0 note=71 velocity=0 time=20
MetaMessage('lyrics', text=' have', time=40)
note_on channel=0 note=69 velocity=109 time=0
note_on channel=4 note=62 velocity=93 time=96
note_off channel=0 note=69 velocity=0 time=180
MetaMessage('lyrics', text='\r', time=0)
MetaMessage('lyrics', text='two', time=12)
note_on channel=0 note=67 velocity=97 time=0
note_on channel=4 note=66 velocity=92 time=0
note_off channel=0 note=67 velocity=0 time=76
note_off channel=12 note=69 velocity=0 time=40
note_off channel=4 note=66 velocity=0 time=12
note_off channel=4 note=62 velocity=0 time=16
note_off channel=4 note=57 velocity=0 time=8
note_on channel=12 note=71 velocity=81 time=32
note_off channel=14 note=78 velocity=0 time=0
note_on channel=14 note=79 velocity=69 time=4
MetaMessage('lyrics', text=' me', time=4)
note_on channel=0 note=67 velocity=103 time=0
note_on channel=4 note=53 velocity=82 time=0
note_on channel=11 note=53 velocity=73 time=0
note_on channel=4 note=57 velocity=78 time=0
note_on channel=4 note=60 velocity=71 time=12
note_on channel=4 note=64 velocity=82 time=4
note_off channel=13 note=74 velocity=0 time=0
note_on channel=13 note=76 velocity=63 time=0
note_off channel=11 note=62 velocity=0 time=4
note_off channel=4 note=50 velocity=0 time=12
note_off channel=4 note=57 velocity=0 time=84
note_off channel=4 note=53 velocity=0 time=8
note_off channel=4 note=60 velocity=0 time=8
note_off channel=4 note=64 velocity=0 time=20
note_off channel=0 note=67 velocity=0 time=24
note_off channel=14 note=79 velocity=0 time=8
note_on channel=14 note=81 velocity=64 time=0
note_on channel=4 note=53 velocity=80 time=4
MetaMessage('lyrics', text='an', time=4)
note_on channel=0 note=69 velocity=95 time=0
note_on channel=4 note=64 velocity=86 time=0
note_on channel=12 note=72 velocity=66 time=0
note_on channel=4 note=60 velocity=75 time=0
note_on channel=4 note=57 velocity=81 time=0
note_off channel=12 note=71 velocity=0 time=4
note_off channel=14 note=81 velocity=0 time=28
note_off channel=4 note=53 velocity=0 time=16
note_off channel=12 note=72 velocity=0 time=4
note_off channel=0 note=69 velocity=0 time=8
note_off channel=4 note=60 velocity=0 time=52
note_off channel=4 note=57 velocity=0 time=0
note_off channel=4 note=64 velocity=0 time=12
note_on channel=4 note=53 velocity=97 time=40
note_on channel=4 note=57 velocity=89 time=16
MetaMessage('lyrics', text='ing', time=12)
note_on channel=0 note=69 velocity=86 time=0
note_on channel=4 note=60 velocity=77 time=0
note_on channel=12 note=72 velocity=77 time=8
note_on channel=14 note=81 velocity=62 time=0
note_on channel=4 note=64 velocity=89 time=8
note_off channel=0 note=69 velocity=0 time=628
note_off channel=4 note=57 velocity=0 time=76
MetaMessage('lyrics', text='\r', time=0)
MetaMessage('lyrics', text='In', time=44)
note_on channel=0 note=69 velocity=109 time=0
note_off channel=14 note=81 velocity=0 time=4
note_off channel=4 note=60 velocity=0 time=4
note_off channel=11 note=53 velocity=0 time=12
note_off channel=4 note=53 velocity=0 time=16
note_off channel=4 note=64 velocity=0 time=0
note_off channel=13 note=76 velocity=0 time=16
note_off channel=0 note=69 velocity=0 time=136
MetaMessage('lyrics', text=' a', time=8)
note_on channel=0 note=71 velocity=107 time=0
note_off channel=12 note=72 velocity=0 time=36
note_on channel=14 note=76 velocity=70 time=132
note_off channel=0 note=71 velocity=0 time=4
note_on channel=12 note=64 velocity=75 time=4
note_on channel=11 note=57 velocity=76 time=16
MetaMessage('lyrics', text=' tree', time=4)
note_on channel=0 note=72 velocity=111 time=0
note_on channel=4 note=57 velocity=89 time=0
note_on channel=13 note=72 velocity=69 time=12
note_on channel=4 note=60 velocity=86 time=172
note_off channel=0 note=72 velocity=0 time=192
MetaMessage('lyrics', text=' by', time=4)
note_on channel=0 note=74 velocity=109 time=0
note_on channel=4 note=64 velocity=83 time=0
note_on channel=4 note=69 velocity=85 time=188
MetaMessage('lyrics', text=' the', time=4)
note_on channel=0 note=72 velocity=87 time=0
note_off channel=0 note=74 velocity=0 time=16
note_off channel=0 note=72 velocity=0 time=68
MetaMessage('lyrics', text=' bro', time=8)
note_on channel=0 note=71 velocity=86 time=0
note_off channel=4 note=57 velocity=0 time=84
note_on channel=11 note=56 velocity=68 time=0
note_off channel=11 note=57 velocity=0 time=4
note_off channel=4 note=69 velocity=0 time=4
note_on channel=4 note=71 velocity=81 time=0
MetaMessage('lyrics', text='ok', time=4)
note_on channel=0 note=69 velocity=109 time=0
note_on channel=4 note=56 velocity=93 time=0
note_off channel=0 note=71 velocity=0 time=16
note_off channel=4 note=64 velocity=0 time=84
note_on channel=4 note=64 velocity=93 time=92
note_off channel=4 note=60 velocity=0 time=8
note_on channel=4 note=60 velocity=83 time=180
note_off channel=4 note=71 velocity=0 time=48
note_off channel=0 note=69 velocity=0 time=16
MetaMessage('lyrics', text=" there's", time=132)
note_on channel=0 note=69 velocity=69 time=0
note_on channel=4 note=71 velocity=86 time=0
MetaMessage('lyrics', text=' a', time=100)
note_on channel=0 note=71 velocity=107 time=0
note_off channel=0 note=69 velocity=0 time=4
note_off channel=11 note=56 velocity=0 time=60
note_off channel=14 note=76 velocity=0 time=0
note_on channel=14 note=72 velocity=62 time=0
note_off channel=4 note=56 velocity=0 time=4
note_off channel=13 note=72 velocity=0 time=8
note_on channel=11 note=55 velocity=68 time=4
note_on channel=13 note=69 velocity=58 time=4
note_off channel=4 note=71 velocity=0 time=4
note_on channel=4 note=55 velocity=86 time=0
note_on channel=4 note=72 velocity=82 time=4
MetaMessage('lyrics', text=' song', time=4)
note_on channel=0 note=72 velocity=103 time=0
note_off channel=0 note=71 velocity=0 time=16
note_off channel=4 note=60 velocity=0 time=60
note_off channel=4 note=64 velocity=0 time=20
note_on channel=4 note=64 velocity=83 time=92
note_off channel=0 note=72 velocity=0 time=56
MetaMessage('lyrics', text='bird', time=40)
note_on channel=0 note=74 velocity=97 time=0
note_on channel=4 note=60 velocity=78 time=92
note_off channel=4 note=72 velocity=0 time=80
MetaMessage('lyrics', text='\r', time=0)
MetaMessage('lyrics', text='who', time=116)
note_on channel=0 note=72 velocity=97 time=0
note_on channel=4 note=72 velocity=89 time=0
note_off channel=0 note=74 velocity=0 time=12
note_off channel=4 note=72 velocity=0 time=80
note_on channel=12 note=62 velocity=65 time=80
note_off channel=12 note=64 velocity=0 time=8
MetaMessage('lyrics', text=' si', time=16)
note_on channel=0 note=71 velocity=97 time=0
note_on channel=4 note=54 velocity=83 time=0
note_off channel=11 note=55 velocity=0 time=0
note_on channel=4 note=66 velocity=90 time=0
note_on channel=11 note=54 velocity=68 time=0
note_off channel=0 note=72 velocity=0 time=16
note_off channel=4 note=55 velocity=0 time=12
note_off channel=4 note=64 velocity=0 time=40
note_off channel=4 note=60 velocity=0 time=8
note_off channel=0 note=71 velocity=0 time=4
MetaMessage('lyrics', text='ngs', time=12)
note_on channel=0 note=69 velocity=103 time=0
note_on channel=4 note=62 velocity=93 time=100
note_off channel=0 note=69 velocity=0 time=136
note_on channel=4 note=57 velocity=89 time=56
MetaMessage('lyrics', text=' some', time=8)
note_on channel=0 note=72 velocity=105 time=0
note_off channel=4 note=66 velocity=0 time=124
note_off channel=0 note=72 velocity=0 time=60
note_on channel=4 note=66 velocity=92 time=0
MetaMessage('lyrics', text='times', time=4)
note_on channel=0 note=74 velocity=101 time=0
note_off channel=14 note=72 velocity=0 time=48
note_off channel=13 note=69 velocity=0 time=48
note_off channel=4 note=54 velocity=0 time=52
note_on channel=4 note=53 velocity=87 time=32
note_on channel=12 note=60 velocity=55 time=0
note_on channel=14 note=72 velocity=63 time=4
MetaMessage('lyrics', text='\r', time=0)
MetaMessage('lyrics', text='All', time=4)
note_off channel=0 note=74 velocity=0 time=0
note_off channel=4 note=66 velocity=0 time=0
note_on channel=11 note=53 velocity=74 time=0
note_on channel=13 note=69 velocity=66 time=0
note_on channel=0 note=76 velocity=105 time=0
note_on channel=4 note=64 velocity=93 time=0
note_off channel=11 note=54 velocity=0 time=8
note_off channel=4 note=62 velocity=0 time=8
note_off channel=12 note=62 velocity=0 time=0
note_off channel=4 note=57 velocity=0 time=16
note_on channel=4 note=60 velocity=89 time=156
MetaMessage('lyrics', text=' of', time=100)
note_on channel=0 note=74 velocity=113 time=0
note_off channel=0 note=76 velocity=0 time=16
note_on channel=4 note=57 velocity=89 time=76
MetaMessage('lyrics', text=' our', time=104)
note_on channel=0 note=72 velocity=105 time=0
note_off channel=0 note=74 velocity=0 time=20
note_off channel=4 note=64 velocity=0 time=4
note_off channel=4 note=60 velocity=0 time=32
note_on channel=4 note=64 velocity=32 time=28
note_on channel=4 note=60 velocity=86 time=8
note_off channel=0 note=72 velocity=0 time=168
MetaMessage('lyrics', text=' tho', time=20)
note_on channel=0 note=71 velocity=103 time=0
MetaMessage('lyrics', text='ughts', time=100)
note_on channel=0 note=69 velocity=101 time=0
note_off channel=0 note=71 velocity=0 time=28
note_off channel=4 note=64 velocity=0 time=0
note_on channel=4 note=64 velocity=87 time=64
note_off channel=4 note=60 velocity=0 time=52
note_off channel=0 note=69 velocity=0 time=48
note_on channel=4 note=60 velocity=87 time=88
MetaMessage('lyrics', text=' are', time=4)
note_on channel=0 note=69 velocity=87 time=0
note_off channel=4 note=57 velocity=0 time=12
note_off channel=11 note=53 velocity=0 time=36
note_on channel=4 note=57 velocity=89 time=140
MetaMessage('lyrics', text=' mis', time=4)
note_on channel=0 note=67 velocity=92 time=0
note_off channel=0 note=69 velocity=0 time=4
note_off channel=12 note=60 velocity=0 time=32
note_off channel=4 note=60 velocity=0 time=48
note_off channel=4 note=57 velocity=0 time=12
note_off channel=0 note=67 velocity=0 time=24
note_off channel=14 note=72 velocity=0 time=12
note_off channel=4 note=64 velocity=0 time=28
note_on channel=14 note=74 velocity=75 time=4
note_on channel=12 note=67 velocity=77 time=8
note_off channel=13 note=69 velocity=0 time=8
note_on channel=13 note=71 velocity=78 time=0
note_off channel=4 note=53 velocity=0 time=4
note_on channel=11 note=55 velocity=75 time=0
note_on channel=4 note=47 velocity=86 time=8
note_on channel=4 note=55 velocity=89 time=0
note_on channel=4 note=59 velocity=86 time=0
MetaMessage('lyrics', text='g', time=4)
note_on channel=0 note=67 velocity=95 time=0
note_on channel=12 note=69 velocity=73 time=168
note_off channel=14 note=74 velocity=0 time=0
note_off channel=11 note=55 velocity=0 time=8
note_off channel=12 note=67 velocity=0 time=0
note_on channel=14 note=76 velocity=70 time=0
note_on channel=4 note=57 velocity=85 time=12
note_on channel=11 note=57 velocity=73 time=0
note_on channel=4 note=60 velocity=85 time=0
MetaMessage('lyrics', text='i', time=4)
note_on channel=0 note=69 velocity=87 time=0
note_on channel=4 note=45 velocity=80 time=0
note_off channel=13 note=71 velocity=0 time=0
note_on channel=13 note=72 velocity=63 time=0
note_off channel=4 note=55 velocity=0 time=4
note_off channel=4 note=59 velocity=0 time=4
note_off channel=0 note=67 velocity=0 time=4
note_off channel=12 note=69 velocity=0 time=4
note_off channel=14 note=76 velocity=0 time=0
note_off channel=4 note=47 velocity=0 time=4
note_off channel=13 note=72 velocity=0 time=12
note_off channel=4 note=57 velocity=0 time=12
note_off channel=4 note=60 velocity=0 time=0
note_off channel=4 note=45 velocity=0 time=0
note_off channel=0 note=69 velocity=0 time=24
note_off channel=11 note=57 velocity=0 time=4
note_on channel=14 note=76 velocity=69 time=108
note_on channel=4 note=60 velocity=93 time=8
note_on channel=4 note=57 velocity=93 time=0
MetaMessage('lyrics', text='ven', time=4)
note_on channel=0 note=69 velocity=86 time=0
note_on channel=4 note=45 velocity=93 time=0
note_on channel=12 note=69 velocity=66 time=0
note_on channel=13 note=72 velocity=74 time=0
note_on channel=11 note=57 velocity=69 time=4
note_off channel=4 note=45 velocity=0 time=476
note_on channel=4 note=45 velocity=82 time=92
note_on channel=6 note=60 velocity=93 time=72
note_off channel=6 note=60 velocity=0 time=40
note_off channel=0 note=69 velocity=0 time=16
note_off channel=4 note=45 velocity=0 time=36
note_off channel=12 note=69 velocity=0 time=0
note_on channel=4 note=53 velocity=99 time=28
note_off channel=4 note=57 velocity=0 time=4
note_off channel=13 note=72 velocity=0 time=12
note_off channel=4 note=60 velocity=0 time=4
note_off channel=14 note=76 velocity=0 time=0
note_off channel=11 note=57 velocity=0 time=4
note_off channel=4 note=53 velocity=0 time=160
note_on channel=4 note=52 velocity=89 time=4
note_on channel=14 note=76 velocity=59 time=180
note_on channel=12 note=64 velocity=68 time=8
note_on channel=4 note=45 velocity=81 time=4
note_on channel=11 note=57 velocity=76 time=0
note_on channel=13 note=72 velocity=64 time=0
note_on channel=4 note=45 velocity=89 time=8
note_off channel=4 note=52 velocity=0 time=12
note_off channel=4 note=45 velocity=0 time=52
note_on channel=4 note=45 velocity=92 time=36
note_on channel=4 note=57 velocity=78 time=92
note_on channel=4 note=60 velocity=87 time=196
note_on channel=4 note=69 velocity=80 time=192
note_on channel=11 note=56 velocity=75 time=180
note_off channel=4 note=69 velocity=0 time=8
note_off channel=11 note=57 velocity=0 time=0
note_on channel=4 note=56 velocity=92 time=4
note_on channel=4 note=71 velocity=83 time=0
note_on channel=4 note=64 velocity=75 time=92
note_off channel=4 note=60 velocity=0 time=36
note_on channel=4 note=60 velocity=64 time=64
note_off channel=4 note=64 velocity=0 time=24
note_off channel=4 note=71 velocity=0 time=68
note_on channel=4 note=64 velocity=74 time=4
note_off channel=4 note=64 velocity=0 time=92
note_on channel=4 note=71 velocity=78 time=0
note_on channel=4 note=64 velocity=80 time=96
note_off channel=4 note=60 velocity=0 time=16
note_on channel=4 note=60 velocity=74 time=80
note_off channel=4 note=56 velocity=0 time=24
note_on channel=6 note=60 velocity=89 time=60
note_on channel=4 note=56 velocity=93 time=20
note_off channel=6 note=60 velocity=0 time=40
note_off channel=4 note=45 velocity=0 time=4
note_off channel=14 note=76 velocity=0 time=4
note_on channel=14 note=72 velocity=54 time=8
note_off channel=13 note=72 velocity=0 time=8
note_off channel=11 note=56 velocity=0 time=4
note_on channel=11 note=55 velocity=72 time=4
note_on channel=13 note=69 velocity=59 time=0
note_off channel=4 note=45 velocity=0 time=8
note_on channel=4 note=55 velocity=73 time=16
note_off channel=4 note=56 velocity=0 time=20
note_off channel=4 note=60 velocity=0 time=0
note_off channel=4 note=64 velocity=0 time=56
note_off channel=4 note=71 velocity=0 time=12
note_on channel=4 note=60 velocity=85 time=0
note_on channel=4 note=64 velocity=85 time=96
note_on channel=4 note=72 velocity=80 time=92
note_off channel=4 note=64 velocity=0 time=4
note_on channel=4 note=64 velocity=66 time=92
note_off channel=4 note=60 velocity=0 time=36
note_on channel=4 note=60 velocity=71 time=60
note_off channel=4 note=55 velocity=0 time=84
note_on channel=4 note=55 velocity=68 time=8
note_off channel=12 note=64 velocity=0 time=148
note_on channel=12 note=62 velocity=66 time=8
note_off channel=4 note=55 velocity=0 time=32
note_on channel=4 note=54 velocity=93 time=12
note_on channel=11 note=54 velocity=67 time=0
note_off channel=11 note=55 velocity=0 time=4
note_off channel=4 note=57 velocity=0 time=12
note_off channel=4 note=60 velocity=0 time=16
note_off channel=4 note=64 velocity=0 time=64
note_on channel=4 note=57 velocity=80 time=0
note_off channel=4 note=72 velocity=0 time=4
note_on channel=4 note=62 velocity=74 time=88
note_on channel=4 note=66 velocity=82 time=96
note_off channel=4 note=62 velocity=0 time=20
note_on channel=4 note=62 velocity=74 time=76
note_off channel=4 note=57 velocity=0 time=48
note_on channel=4 note=57 velocity=71 time=48
note_off channel=4 note=54 velocity=0 time=36
note_on channel=4 note=54 velocity=93 time=72
note_on channel=6 note=60 velocity=74 time=56
note_off channel=4 note=57 velocity=0 time=4
note_off channel=14 note=72 velocity=0 time=36
note_on channel=4 note=57 velocity=72 time=4
note_off channel=6 note=60 velocity=0 time=4
note_off channel=13 note=69 velocity=0 time=28
note_on channel=12 note=60 velocity=50 time=52
note_on channel=14 note=72 velocity=60 time=0
note_on channel=11 note=53 velocity=64 time=4
note_on channel=4 note=53 velocity=85 time=4
note_off channel=4 note=54 velocity=0 time=8
note_off channel=11 note=54 velocity=0 time=0
note_off channel=12 note=62 velocity=0 time=0
note_on channel=13 note=69 velocity=57 time=0
note_off channel=4 note=57 velocity=0 time=16
note_on channel=4 note=57 velocity=75 time=60
note_off channel=4 note=66 velocity=0 time=16
note_on channel=4 note=60 velocity=68 time=72
note_off channel=4 note=62 velocity=0 time=12
note_on channel=4 note=64 velocity=87 time=84
note_off channel=4 note=60 velocity=0 time=136
note_on channel=4 note=60 velocity=78 time=56
note_off channel=4 note=57 velocity=0 time=24
note_on channel=4 note=57 velocity=82 time=68
note_off channel=4 note=53 velocity=0 time=88
note_on channel=4 note=53 velocity=85 time=124
note_off channel=4 note=60 velocity=0 time=36
note_off channel=4 note=57 velocity=0 time=24
note_on channel=4 note=57 velocity=71 time=32
note_on channel=4 note=60 velocity=66 time=96
note_off channel=4 note=64 velocity=0 time=24
note_on channel=4 note=64 velocity=86 time=72
note_off channel=4 note=60 velocity=0 time=44
note_on channel=4 note=60 velocity=80 time=52
note_off channel=4 note=57 velocity=0 time=28
note_on channel=4 note=57 velocity=77 time=60
note_off channel=4 note=53 velocity=0 time=24
note_on channel=4 note=53 velocity=89 time=84
note_off channel=12 note=60 velocity=0 time=0
note_off channel=4 note=60 velocity=0 time=96
note_off channel=4 note=57 velocity=0 time=4
note_off channel=4 note=64 velocity=0 time=20
note_off channel=13 note=69 velocity=0 time=56
note_off channel=14 note=72 velocity=0 time=0
note_on channel=14 note=74 velocity=72 time=0
note_on channel=4 note=55 velocity=85 time=12
note_on channel=11 note=55 velocity=74 time=0
note_on channel=12 note=67 velocity=70 time=0
note_on channel=13 note=71 velocity=70 time=0
note_on channel=4 note=59 velocity=75 time=4
note_off channel=11 note=53 velocity=0 time=0
note_off channel=4 note=53 velocity=0 time=4
note_on channel=4 note=47 velocity=86 time=0
note_off channel=4 note=55 velocity=0 time=132
note_off channel=4 note=59 velocity=0 time=4
note_on channel=14 note=76 velocity=66 time=36
note_off channel=12 note=67 velocity=0 time=12
note_on channel=13 note=72 velocity=70 time=0
note_off channel=14 note=74 velocity=0 time=0
note_on channel=12 note=69 velocity=74 time=0
note_on channel=4 note=45 velocity=83 time=8
note_off channel=13 note=71 velocity=0 time=0
note_on channel=4 note=60 velocity=78 time=4
note_on channel=4 note=57 velocity=78 time=0
note_off channel=4 note=47 velocity=0 time=12
note_off channel=11 note=55 velocity=0 time=8
note_on channel=11 note=57 velocity=74 time=0
note_off channel=14 note=76 velocity=0 time=4
note_off channel=12 note=69 velocity=0 time=8
note_off channel=13 note=72 velocity=0 time=0
note_off channel=4 note=45 velocity=0 time=8
note_off channel=11 note=57 velocity=0 time=20
note_off channel=4 note=57 velocity=0 time=36
note_off channel=4 note=60 velocity=0 time=4
note_on channel=4 note=45 velocity=93 time=84
note_on channel=14 note=76 velocity=64 time=0
note_on channel=4 note=57 velocity=82 time=4
note_on channel=4 note=60 velocity=85 time=0
note_on channel=13 note=72 velocity=68 time=8
note_on channel=12 note=69 velocity=64 time=8
note_on channel=11 note=57 velocity=72 time=12
note_off channel=4 note=57 velocity=0 time=604
note_off channel=4 note=60 velocity=0 time=0
note_off channel=12 note=69 velocity=0 time=64
note_on channel=4 note=47 velocity=95 time=56
note_off channel=4 note=45 velocity=0 time=8
note_off channel=14 note=76 velocity=0 time=0
note_on channel=4 note=55 velocity=95 time=4
note_on channel=4 note=62 velocity=92 time=12
note_off channel=13 note=72 velocity=0 time=8
note_off channel=11 note=57 velocity=0 time=16
note_off channel=4 note=47 velocity=0 time=312
note_on channel=5 note=64 velocity=82 time=28
note_on channel=5 note=69 velocity=89 time=0
note_on channel=5 note=79 velocity=97 time=0
note_on channel=5 note=72 velocity=93 time=0
note_on channel=2 note=57 velocity=82 time=4
note_on channel=4 note=52 velocity=82 time=0
note_on channel=2 note=33 velocity=97 time=0
note_on channel=4 note=57 velocity=89 time=0
note_on channel=2 note=60 velocity=85 time=0
note_on channel=4 note=67 velocity=97 time=0
note_on channel=2 note=67 velocity=92 time=0
note_on channel=4 note=60 velocity=93 time=0
note_on channel=2 note=64 velocity=93 time=0
note_off channel=4 note=55 velocity=0 time=16
note_off channel=4 note=62 velocity=0 time=8
note_on channel=6 note=60 velocity=72 time=60
note_off channel=6 note=60 velocity=0 time=36
note_off channel=5 note=72 velocity=0 time=8
note_off channel=4 note=60 velocity=0 time=4
note_off channel=5 note=64 velocity=0 time=0
note_off channel=4 note=52 velocity=0 time=8
note_off channel=5 note=69 velocity=0 time=0
note_off channel=5 note=79 velocity=0 time=0
note_off channel=4 note=57 velocity=0 time=4
note_off channel=4 note=67 velocity=0 time=0
note_off channel=2 note=64 velocity=0 time=28
note_on channel=5 note=69 velocity=46 time=16
note_on channel=5 note=79 velocity=63 time=0
note_off channel=2 note=67 velocity=0 time=4
note_on channel=4 note=57 velocity=46 time=0
note_on channel=4 note=67 velocity=63 time=0
note_off channel=5 note=69 velocity=0 time=16
note_off channel=5 note=79 velocity=0 time=0
note_off channel=4 note=57 velocity=0 time=4
note_off channel=4 note=67 velocity=0 time=4
note_off channel=2 note=57 velocity=0 time=8
note_off channel=2 note=60 velocity=0 time=0
note_on channel=5 note=69 velocity=62 time=52
note_on channel=2 note=67 velocity=67 time=4
note_on channel=4 note=57 velocity=62 time=4
note_on channel=5 note=79 velocity=72 time=0
note_on channel=5 note=72 velocity=45 time=0
note_on channel=4 note=67 velocity=72 time=4
note_on channel=4 note=60 velocity=45 time=0
note_off channel=5 note=72 velocity=0 time=12
note_off channel=4 note=60 velocity=0 time=4
note_off channel=5 note=79 velocity=0 time=0
note_off channel=2 note=67 velocity=0 time=4
note_off channel=4 note=67 velocity=0 time=0
note_off channel=5 note=69 velocity=0 time=0
note_off channel=4 note=57 velocity=0 time=8
note_on channel=5 note=64 velocity=90 time=56
note_on channel=5 note=69 velocity=97 time=4
note_on channel=2 note=60 velocity=90 time=4
note_on channel=4 note=52 velocity=90 time=0
note_on channel=5 note=72 velocity=97 time=0
note_on channel=2 note=57 velocity=90 time=0
note_on channel=5 note=79 velocity=101 time=0
note_on channel=2 note=67 velocity=95 time=0
note_on channel=2 note=64 velocity=89 time=0
note_on channel=4 note=57 velocity=97 time=4
note_on channel=4 note=60 velocity=97 time=0
note_on channel=4 note=67 velocity=101 time=0
note_on channel=6 note=60 velocity=72 time=92
note_off channel=2 note=67 velocity=0 time=4
note_off channel=2 note=64 velocity=0 time=8
note_off channel=2 note=60 velocity=0 time=20
note_off channel=2 note=57 velocity=0 time=0
note_off channel=5 note=64 velocity=0 time=4
note_off channel=5 note=69 velocity=0 time=0
note_off channel=5 note=72 velocity=0 time=0
note_off channel=6 note=60 velocity=0 time=4
note_off channel=4 note=52 velocity=0 time=4
note_off channel=5 note=79 velocity=0 time=0
note_off channel=4 note=57 velocity=0 time=0
note_off channel=4 note=60 velocity=0 time=0
note_off channel=4 note=67 velocity=0 time=8
note_on channel=5 note=64 velocity=87 time=44
note_on channel=5 note=72 velocity=95 time=0
note_on channel=5 note=79 velocity=105 time=0
note_on channel=5 note=69 velocity=92 time=0
note_on channel=2 note=67 velocity=95 time=4
note_on channel=4 note=52 velocity=87 time=0
note_on channel=2 note=60 velocity=90 time=0
note_on channel=4 note=60 velocity=95 time=0
note_on channel=2 note=64 velocity=93 time=0
note_on channel=4 note=67 velocity=105 time=0
note_on channel=2 note=57 velocity=90 time=0
note_on channel=4 note=57 velocity=92 time=0
note_off channel=5 note=69 velocity=0 time=216
note_off channel=2 note=57 velocity=0 time=4
note_off channel=2 note=67 velocity=0 time=4
note_off channel=4 note=57 velocity=0 time=0
note_off channel=5 note=72 velocity=0 time=0
note_off channel=2 note=64 velocity=0 time=0
note_off channel=5 note=64 velocity=0 time=4
note_off channel=4 note=60 velocity=0 time=4
note_off channel=5 note=79 velocity=0 time=0
note_off channel=4 note=52 velocity=0 time=4
note_off channel=2 note=60 velocity=0 time=4
note_off channel=4 note=67 velocity=0 time=0
note_on channel=5 note=64 velocity=85 time=132
note_on channel=5 note=72 velocity=93 time=0
note_on channel=5 note=69 velocity=89 time=0
note_on channel=2 note=60 velocity=90 time=4
note_on channel=5 note=76 velocity=93 time=0
note_on channel=2 note=57 velocity=86 time=0
note_on channel=2 note=64 velocity=101 time=0
note_on channel=4 note=52 velocity=85 time=4
note_on channel=4 note=60 velocity=93 time=0
note_on channel=4 note=57 velocity=89 time=0
note_on channel=4 note=64 velocity=93 time=4
note_off channel=2 note=64 velocity=0 time=224
note_off channel=2 note=60 velocity=0 time=12
note_off channel=5 note=72 velocity=0 time=0
note_off channel=5 note=76 velocity=0 time=0
note_off channel=2 note=57 velocity=0 time=4
note_off channel=4 note=60 velocity=0 time=0
note_off channel=4 note=64 velocity=0 time=0
note_off channel=5 note=69 velocity=0 time=4
note_off channel=5 note=64 velocity=0 time=4
note_off channel=4 note=57 velocity=0 time=4
note_off channel=4 note=52 velocity=0 time=4
note_on channel=5 note=69 velocity=97 time=116
note_on channel=2 note=57 velocity=92 time=4
note_on channel=5 note=74 velocity=102 time=0
note_on channel=5 note=76 velocity=99 time=0
note_on channel=2 note=67 velocity=101 time=4
note_on channel=4 note=57 velocity=97 time=0
note_on channel=2 note=62 velocity=95 time=0
note_off channel=2 note=33 velocity=0 time=4
note_on channel=4 note=62 velocity=102 time=0
note_on channel=2 note=38 velocity=105 time=0
note_on channel=4 note=64 velocity=99 time=0
MetaMessage('lyrics', text='\r', time=0)
MetaMessage('lyrics', text='Ooh', time=188)
control_change channel=0 control=11 value=105 time=0
note_on channel=0 note=72 velocity=119 time=0
note_off channel=2 note=67 velocity=0 time=44
note_off channel=2 note=57 velocity=0 time=8
note_off channel=2 note=62 velocity=0 time=0
note_off channel=5 note=74 velocity=0 time=16
note_off channel=5 note=76 velocity=0 time=0
note_off channel=4 note=64 velocity=0 time=4
note_off channel=4 note=62 velocity=0 time=4
note_off channel=5 note=69 velocity=0 time=12
note_off channel=4 note=57 velocity=0 time=8
note_on channel=5 note=74 velocity=87 time=88
note_on channel=5 note=78 velocity=111 time=0
note_on channel=2 note=57 velocity=87 time=8
note_on channel=4 note=62 velocity=87 time=0
note_on channel=5 note=69 velocity=90 time=0
note_on channel=2 note=62 velocity=90 time=0
note_on channel=4 note=66 velocity=111 time=0
note_on channel=2 note=66 velocity=119 time=0
note_on channel=2 note=50 velocity=77 time=4
note_on channel=4 note=57 velocity=90 time=0
note_on channel=2 note=57 velocity=90 time=192
note_off channel=2 note=50 velocity=0 time=48
note_on channel=5 note=62 velocity=89 time=132
note_on channel=4 note=50 velocity=89 time=8
note_on channel=2 note=50 velocity=78 time=4
note_off channel=5 note=74 velocity=0 time=156
note_off channel=4 note=62 velocity=0 time=4
note_off channel=5 note=78 velocity=0 time=20
note_off channel=5 note=69 velocity=0 time=0
note_on channel=5 note=74 velocity=93 time=0
note_off channel=4 note=66 velocity=0 time=8
note_off channel=4 note=57 velocity=0 time=0
note_on channel=4 note=62 velocity=93 time=0
note_off channel=0 note=72 velocity=0 time=68
note_off channel=2 note=50 velocity=0 time=28
note_off channel=5 note=74 velocity=0 time=60
note_off channel=4 note=62 velocity=0 time=8
note_on channel=2 note=50 velocity=72 time=20
note_on channel=5 note=74 velocity=97 time=0
MetaMessage('lyrics', text=' ma', time=8)
note_on channel=0 note=72 velocity=117 time=0
note_on channel=4 note=62 velocity=97 time=0
note_off channel=2 note=57 velocity=0 time=32
note_on channel=5 note=78 velocity=82 time=56
MetaMessage('lyrics', text='kes', time=8)
note_on channel=0 note=71 velocity=115 time=0
note_on channel=4 note=66 velocity=82 time=0
note_off channel=0 note=72 velocity=0 time=8
note_off channel=5 note=74 velocity=0 time=36
note_off channel=4 note=62 velocity=0 time=8
note_on channel=5 note=74 velocity=99 time=36
note_on channel=2 note=57 velocity=95 time=8
note_on channel=4 note=62 velocity=99 time=0
note_off channel=2 note=66 velocity=0 time=24
note_off channel=2 note=62 velocity=0 time=8
note_off channel=2 note=57 velocity=0 time=0
note_off channel=5 note=78 velocity=0 time=24
note_off channel=4 note=66 velocity=0 time=8
note_on channel=5 note=71 velocity=68 time=120
note_on channel=5 note=67 velocity=59 time=0
note_off channel=0 note=71 velocity=0 time=4
MetaMessage('lyrics', text=' me', time=4)
note_on channel=0 note=72 velocity=107 time=0
note_on channel=2 note=45 velocity=86 time=0
note_on channel=4 note=59 velocity=68 time=0
note_on channel=4 note=55 velocity=59 time=0
note_off channel=5 note=71 velocity=0 time=16
note_off channel=5 note=67 velocity=0 time=0
note_off channel=4 note=59 velocity=0 time=4
note_off channel=4 note=55 velocity=0 time=0
note_off channel=5 note=74 velocity=0 time=8
note_off channel=4 note=62 velocity=0 time=8
note_off channel=0 note=72 velocity=0 time=32
note_on channel=5 note=67 velocity=95 time=20
note_on channel=5 note=71 velocity=93 time=0
note_on channel=4 note=55 velocity=95 time=8
note_on channel=4 note=59 velocity=93 time=0
note_off channel=5 note=71 velocity=0 time=44
note_off channel=4 note=59 velocity=0 time=8
note_off channel=5 note=67 velocity=0 time=0
note_off channel=4 note=55 velocity=0 time=4
MetaMessage('lyrics', text=' won', time=36)
note_on channel=0 note=71 velocity=121 time=0
note_on channel=2 note=33 velocity=105 time=0
note_off channel=2 note=38 velocity=0 time=4
note_on channel=5 note=69 velocity=89 time=0
note_on channel=2 note=60 velocity=89 time=0
note_on channel=5 note=64 velocity=86 time=0
note_on channel=2 note=57 velocity=81 time=0
note_on channel=5 note=79 velocity=99 time=0
note_on channel=2 note=67 velocity=93 time=0
note_on channel=5 note=72 velocity=95 time=0
note_on channel=2 note=64 velocity=92 time=4
note_on channel=4 note=57 velocity=89 time=0
note_on channel=4 note=52 velocity=86 time=0
note_on channel=4 note=67 velocity=99 time=0
note_on channel=4 note=60 velocity=95 time=0
note_off channel=5 note=62 velocity=0 time=80
note_off channel=4 note=50 velocity=0 time=8
note_on channel=6 note=60 velocity=61 time=8
note_off channel=5 note=79 velocity=0 time=4
note_off channel=4 note=67 velocity=0 time=8
note_off channel=5 note=72 velocity=0 time=8
note_off channel=4 note=60 velocity=0 time=8
note_off channel=5 note=64 velocity=0 time=4
note_off channel=5 note=69 velocity=0 time=0
note_off channel=6 note=60 velocity=0 time=4
note_off channel=4 note=57 velocity=0 time=4
note_off channel=4 note=52 velocity=0 time=0
note_off channel=2 note=64 velocity=0 time=28
note_off channel=2 note=67 velocity=0 time=12
note_on channel=5 note=79 velocity=55 time=8
MetaMessage('lyrics', text='der', time=4)
note_off channel=0 note=71 velocity=0 time=0
note_on channel=5 note=69 velocity=45 time=0
note_on channel=0 note=69 velocity=117 time=0
note_on channel=4 note=67 velocity=55 time=4
note_on channel=4 note=57 velocity=45 time=0
note_off channel=5 note=79 velocity=0 time=16
note_off channel=5 note=69 velocity=0 time=0
note_off channel=4 note=67 velocity=0 time=4
note_off channel=4 note=57 velocity=0 time=0
note_off channel=2 note=57 velocity=0 time=16
note_off channel=2 note=60 velocity=0 time=8
note_on channel=5 note=72 velocity=77 time=40
note_on channel=5 note=79 velocity=87 time=0
note_on channel=5 note=64 velocity=73 time=0
note_on channel=5 note=69 velocity=80 time=0
note_on channel=2 note=67 velocity=71 time=8
note_on channel=4 note=60 velocity=77 time=0
note_on channel=4 note=67 velocity=87 time=0
note_on channel=4 note=52 velocity=73 time=0
note_on channel=4 note=57 velocity=80 time=0
note_off channel=5 note=79 velocity=0 time=32
note_off channel=2 note=67 velocity=0 time=4
note_off channel=4 note=67 velocity=0 time=0
note_off channel=5 note=72 velocity=0 time=0
note_off channel=5 note=64 velocity=0 time=0
note_off channel=5 note=69 velocity=0 time=0
note_off channel=4 note=60 velocity=0 time=4
note_off channel=4 note=57 velocity=0 time=0
note_off channel=4 note=52 velocity=0 time=4
note_on channel=5 note=79 velocity=97 time=44
note_on channel=5 note=72 velocity=89 time=0
note_on channel=5 note=64 velocity=77 time=0
note_on channel=5 note=69 velocity=87 time=0
note_on channel=2 note=67 velocity=86 time=8
note_on channel=4 note=67 velocity=97 time=0
note_on channel=2 note=57 velocity=86 time=0
note_on channel=4 note=60 velocity=89 time=0
note_on channel=4 note=52 velocity=77 time=0
note_on channel=4 note=57 velocity=87 time=0
note_on channel=2 note=60 velocity=90 time=4
note_on channel=2 note=64 velocity=82 time=0
note_off channel=2 note=64 velocity=0 time=96
note_off channel=5 note=72 velocity=0 time=0
note_off channel=5 note=64 velocity=0 time=0
note_off channel=5 note=69 velocity=0 time=0
note_off channel=2 note=67 velocity=0 time=4
note_off channel=4 note=52 velocity=0 time=0
note_off channel=5 note=79 velocity=0 time=0
note_off channel=4 note=60 velocity=0 time=4
note_off channel=4 note=57 velocity=0 time=0
note_off channel=2 note=60 velocity=0 time=4
note_off channel=4 note=67 velocity=0 time=0
note_off channel=2 note=57 velocity=0 time=4
note_on channel=5 note=72 velocity=90 time=68
note_on channel=5 note=79 velocity=99 time=0
note_on channel=5 note=69 velocity=89 time=0
note_on channel=5 note=64 velocity=82 time=0
note_on channel=4 note=60 velocity=90 time=8
note_on channel=4 note=67 velocity=99 time=0
note_on channel=4 note=57 velocity=89 time=0
note_on channel=4 note=52 velocity=82 time=0
note_on channel=2 note=67 velocity=93 time=4
note_on channel=2 note=60 velocity=89 time=0
note_on channel=2 note=64 velocity=89 time=0
note_on channel=2 note=57 velocity=82 time=0
note_off channel=5 note=64 velocity=0 time=72
note_off channel=5 note=69 velocity=0 time=4
note_off channel=4 note=57 velocity=0 time=4
note_off channel=5 note=79 velocity=0 time=0
note_off channel=4 note=52 velocity=0 time=0
note_off channel=4 note=67 velocity=0 time=4
note_off channel=5 note=72 velocity=0 time=0
note_off channel=4 note=60 velocity=0 time=8
note_off channel=2 note=67 velocity=0 time=72
note_on channel=5 note=79 velocity=103 time=16
note_on channel=5 note=64 velocity=87 time=0
note_on channel=5 note=72 velocity=92 time=0
note_on channel=5 note=69 velocity=90 time=0
note_off channel=2 note=64 velocity=0 time=8
note_on channel=4 note=67 velocity=103 time=0
note_on channel=4 note=52 velocity=87 time=0
note_on channel=4 note=60 velocity=92 time=0
note_on channel=4 note=57 velocity=90 time=0
note_off channel=2 note=57 velocity=0 time=16
note_off channel=2 note=60 velocity=0 time=4
note_off channel=0 note=69 velocity=0 time=8
note_off channel=5 note=72 velocity=0 time=76
note_off channel=4 note=60 velocity=0 time=8
note_off channel=5 note=79 velocity=0 time=0
note_off channel=4 note=67 velocity=0 time=4
note_off channel=5 note=64 velocity=0 time=0
note_off channel=5 note=69 velocity=0 time=0
note_off channel=4 note=57 velocity=0 time=4
note_off channel=4 note=52 velocity=0 time=4
note_on channel=5 note=72 velocity=89 time=60
note_on channel=5 note=76 velocity=93 time=0
note_on channel=5 note=69 velocity=97 time=0
note_on channel=5 note=64 velocity=92 time=0
note_on channel=2 note=57 velocity=90 time=4
note_on channel=2 note=60 velocity=89 time=0
note_on channel=2 note=64 velocity=99 time=4
note_on channel=4 note=60 velocity=89 time=0
note_on channel=4 note=64 velocity=93 time=0
note_on channel=4 note=57 velocity=97 time=0
note_on channel=4 note=52 velocity=92 time=0
note_off channel=2 note=45 velocity=0 time=80
note_off channel=2 note=57 velocity=0 time=20
note_off channel=2 note=50 velocity=0 time=28
note_off channel=2 note=64 velocity=0 time=44
note_off channel=2 note=57 velocity=0 time=24
note_off channel=2 note=60 velocity=0 time=0
note_on channel=2 note=45 velocity=97 time=0
note_on channel=2 note=43 velocity=93 time=0
note_off channel=2 note=43 velocity=0 time=8
note_off channel=5 note=72 velocity=0 time=8
note_off channel=4 note=60 velocity=0 time=8
note_off channel=5 note=76 velocity=0 time=0
note_off channel=5 note=64 velocity=0 time=0
note_off channel=2 note=33 velocity=0 time=4
note_off channel=4 note=64 velocity=0 time=4
note_off channel=5 note=69 velocity=0 time=0
note_off channel=4 note=52 velocity=0 time=0
note_off channel=4 note=57 velocity=0 time=4
note_on channel=6 note=60 velocity=75 time=68
note_off channel=6 note=60 velocity=0 time=20
note_on channel=5 note=76 velocity=97 time=56
note_on channel=5 note=62 velocity=95 time=0
note_on channel=2 note=64 velocity=81 time=8
note_on channel=4 note=64 velocity=97 time=0
note_on channel=5 note=79 velocity=93 time=0
note_on channel=2 note=71 velocity=87 time=0
note_on channel=4 note=50 velocity=95 time=0
note_on channel=5 note=83 velocity=90 time=0
note_on channel=2 note=67 velocity=87 time=0
note_on channel=4 note=67 velocity=93 time=4
note_on channel=4 note=71 velocity=90 time=0
note_off channel=2 note=45 velocity=0 time=176
note_on channel=2 note=50 velocity=101 time=12
note_off channel=2 note=67 velocity=0 time=20
note_off channel=5 note=76 velocity=0 time=0
note_off channel=5 note=79 velocity=0 time=0
note_off channel=5 note=83 velocity=0 time=0
note_off channel=2 note=71 velocity=0 time=4
note_off channel=4 note=71 velocity=0 time=0
note_off channel=4 note=64 velocity=0 time=4
note_off channel=4 note=67 velocity=0 time=0
note_off channel=2 note=64 velocity=0 time=8
note_on channel=6 note=60 velocity=61 time=40
note_off channel=6 note=60 velocity=0 time=28
note_on channel=5 note=74 velocity=97 time=80
note_on channel=5 note=78 velocity=111 time=0
note_on channel=5 note=81 velocity=93 time=0
note_on channel=2 note=66 velocity=109 time=4
note_on channel=2 note=62 velocity=90 time=0
note_on channel=2 note=69 velocity=90 time=4
note_on channel=4 note=62 velocity=97 time=0
note_on channel=4 note=66 velocity=111 time=0
note_on channel=4 note=69 velocity=93 time=0
note_off channel=5 note=81 velocity=0 time=228
note_off channel=4 note=69 velocity=0 time=4
note_off channel=5 note=78 velocity=0 time=4
note_off channel=2 note=69 velocity=0 time=4
note_off channel=2 note=66 velocity=0 time=4
note_off channel=4 note=66 velocity=0 time=0
note_off channel=5 note=74 velocity=0 time=0
note_off channel=2 note=62 velocity=0 time=0
note_off channel=4 note=62 velocity=0 time=4
note_on channel=6 note=60 velocity=63 time=36
note_off channel=6 note=60 velocity=0 time=24
note_off channel=2 note=50 velocity=0 time=64
note_on channel=5 note=76 velocity=95 time=4
note_on channel=5 note=76 velocity=93 time=0
note_on channel=5 note=79 velocity=93 time=0
note_on channel=2 note=45 velocity=95 time=4
note_on channel=2 note=60 velocity=90 time=4
note_on channel=4 note=64 velocity=95 time=0
note_on channel=2 note=67 velocity=93 time=0
note_on channel=4 note=64 velocity=93 time=0
note_on channel=2 note=64 velocity=93 time=0
note_on channel=4 note=67 velocity=93 time=0
note_on channel=2 note=38 velocity=101 time=92
note_off channel=2 note=45 velocity=0 time=12
note_off channel=2 note=60 velocity=0 time=124
note_off channel=2 note=64 velocity=0 time=0
note_off channel=2 note=67 velocity=0 time=4
note_off channel=5 note=79 velocity=0 time=16
note_off channel=5 note=76 velocity=0 time=4
note_off channel=4 note=67 velocity=0 time=4
note_off channel=5 note=76 velocity=0 time=0
note_off channel=4 note=64 velocity=0 time=4
note_off channel=4 note=64 velocity=0 time=0
note_on channel=6 note=60 velocity=66 time=32
note_off channel=6 note=60 velocity=0 time=28
note_on channel=5 note=74 velocity=90 time=56
note_on channel=5 note=78 velocity=95 time=0
note_on channel=5 note=81 velocity=76 time=0
note_on channel=2 note=69 velocity=93 time=4
note_on channel=2 note=62 velocity=93 time=0
note_on channel=2 note=66 velocity=111 time=4
note_on channel=4 note=62 velocity=90 time=0
note_on channel=4 note=66 velocity=95 time=0
note_on channel=4 note=69 velocity=76 time=0
note_off channel=5 note=62 velocity=0 time=356
note_off channel=4 note=50 velocity=0 time=4
note_on channel=5 note=57 velocity=90 time=20
note_on channel=2 note=45 velocity=107 time=4
note_on channel=5 note=62 velocity=82 time=0
note_on channel=4 note=45 velocity=90 time=4
note_on channel=4 note=50 velocity=82 time=0
note_off channel=2 note=38 velocity=0 time=20
note_off channel=2 note=69 velocity=0 time=20
note_off channel=2 note=62 velocity=0 time=0
note_off channel=2 note=66 velocity=0 time=0
note_off channel=5 note=81 velocity=0 time=72
note_off channel=4 note=69 velocity=0 time=8
note_off channel=5 note=78 velocity=0 time=0
note_off channel=5 note=74 velocity=0 time=4
note_off channel=4 note=62 velocity=0 time=4
note_off channel=5 note=57 velocity=0 time=0
note_off channel=4 note=66 velocity=0 time=0
note_off channel=4 note=45 velocity=0 time=4
note_off channel=5 note=62 velocity=0 time=4
note_off channel=4 note=50 velocity=0 time=8
MetaMessage('lyrics', text='\r', time=0)
MetaMessage('lyrics', text='Ooh', time=44)
note_on channel=0 note=72 velocity=121 time=0
note_on channel=5 note=64 velocity=82 time=0
note_on channel=5 note=69 velocity=89 time=0
note_on channel=5 note=79 velocity=97 time=0
note_on channel=5 note=72 velocity=93 time=0
note_on channel=2 note=33 velocity=103 time=4
note_on channel=4 note=52 velocity=82 time=0
note_on channel=2 note=57 velocity=82 time=0
note_on channel=4 note=57 velocity=89 time=0
note_on channel=2 note=60 velocity=85 time=0
note_on channel=4 note=67 velocity=97 time=0
note_on channel=2 note=67 velocity=92 time=0
note_on channel=4 note=60 velocity=93 time=0
note_on channel=2 note=64 velocity=93 time=0
note_off channel=2 note=45 velocity=0 time=12
note_on channel=6 note=60 velocity=72 time=72
note_off channel=6 note=60 velocity=0 time=36
note_off channel=5 note=72 velocity=0 time=8
note_off channel=4 note=60 velocity=0 time=4
note_off channel=5 note=64 velocity=0 time=0
note_off channel=4 note=52 velocity=0 time=8
note_off channel=5 note=69 velocity=0 time=0
note_off channel=5 note=79 velocity=0 time=0
note_off channel=4 note=57 velocity=0 time=4
note_off channel=4 note=67 velocity=0 time=0
note_off channel=2 note=64 velocity=0 time=28
note_on channel=5 note=69 velocity=46 time=16
note_on channel=5 note=79 velocity=63 time=0
note_off channel=2 note=67 velocity=0 time=4
note_on channel=4 note=57 velocity=46 time=0
note_on channel=4 note=67 velocity=63 time=0
note_off channel=5 note=69 velocity=0 time=16
note_off channel=5 note=79 velocity=0 time=0
note_off channel=4 note=57 velocity=0 time=4
note_off channel=4 note=67 velocity=0 time=4
note_off channel=2 note=57 velocity=0 time=8
note_off channel=2 note=60 velocity=0 time=0
note_on channel=5 note=69 velocity=62 time=52
note_on channel=2 note=67 velocity=67 time=4
note_on channel=4 note=57 velocity=62 time=4
note_on channel=5 note=79 velocity=72 time=0
note_on channel=5 note=72 velocity=45 time=0
note_on channel=4 note=67 velocity=72 time=4
note_on channel=4 note=60 velocity=45 time=0
note_off channel=5 note=72 velocity=0 time=12
note_off channel=4 note=60 velocity=0 time=4
note_off channel=5 note=79 velocity=0 time=0
note_off channel=2 note=67 velocity=0 time=4
note_off channel=4 note=67 velocity=0 time=0
note_off channel=5 note=69 velocity=0 time=0
note_off channel=4 note=57 velocity=0 time=8
note_on channel=5 note=64 velocity=90 time=56
note_on channel=5 note=69 velocity=97 time=4
note_on channel=2 note=60 velocity=90 time=4
note_on channel=4 note=52 velocity=90 time=0
note_on channel=5 note=72 velocity=97 time=0
note_on channel=2 note=57 velocity=90 time=0
note_on channel=5 note=79 velocity=101 time=0
note_on channel=2 note=67 velocity=95 time=0
note_on channel=2 note=64 velocity=89 time=0
note_on channel=4 note=57 velocity=97 time=4
note_on channel=4 note=60 velocity=97 time=0
note_on channel=4 note=67 velocity=101 time=0
note_on channel=6 note=60 velocity=72 time=92
note_off channel=2 note=67 velocity=0 time=4
note_off channel=2 note=64 velocity=0 time=8
note_off channel=2 note=60 velocity=0 time=20
note_off channel=2 note=57 velocity=0 time=0
note_off channel=5 note=64 velocity=0 time=4
note_off channel=5 note=69 velocity=0 time=0
note_off channel=5 note=72 velocity=0 time=0
note_off channel=6 note=60 velocity=0 time=4
note_off channel=4 note=52 velocity=0 time=4
note_off channel=5 note=79 velocity=0 time=0
note_off channel=4 note=57 velocity=0 time=0
note_off channel=4 note=60 velocity=0 time=0
note_off channel=4 note=67 velocity=0 time=8
note_on channel=5 note=64 velocity=87 time=44
note_on channel=5 note=72 velocity=95 time=0
note_on channel=5 note=79 velocity=105 time=0
note_on channel=5 note=69 velocity=92 time=0
note_on channel=2 note=67 velocity=95 time=4
note_on channel=4 note=52 velocity=87 time=0
note_on channel=2 note=60 velocity=90 time=0
note_on channel=4 note=60 velocity=95 time=0
note_on channel=2 note=64 velocity=93 time=0
note_on channel=4 note=67 velocity=105 time=0
note_on channel=2 note=57 velocity=90 time=0
note_on channel=4 note=57 velocity=92 time=0
note_off channel=2 note=33 velocity=0 time=100
note_on channel=2 note=33 velocity=111 time=88
note_off channel=5 note=69 velocity=0 time=28
note_off channel=2 note=57 velocity=0 time=4
note_off channel=2 note=67 velocity=0 time=4
note_off channel=4 note=57 velocity=0 time=0
note_off channel=5 note=72 velocity=0 time=0
note_off channel=2 note=64 velocity=0 time=0
note_off channel=5 note=64 velocity=0 time=4
note_off channel=4 note=60 velocity=0 time=4
note_off channel=5 note=79 velocity=0 time=0
note_off channel=4 note=52 velocity=0 time=4
note_off channel=2 note=60 velocity=0 time=4
note_off channel=4 note=67 velocity=0 time=0
note_on channel=5 note=64 velocity=85 time=132
note_on channel=5 note=72 velocity=93 time=0
note_on channel=5 note=69 velocity=89 time=0
note_on channel=2 note=60 velocity=90 time=4
note_on channel=5 note=76 velocity=93 time=0
note_on channel=2 note=57 velocity=86 time=0
note_on channel=2 note=64 velocity=101 time=0
note_on channel=4 note=52 velocity=85 time=4
note_on channel=4 note=60 velocity=93 time=0
note_on channel=4 note=57 velocity=89 time=0
note_on channel=4 note=64 velocity=93 time=4
note_off channel=2 note=64 velocity=0 time=224
note_off channel=2 note=60 velocity=0 time=12
note_off channel=5 note=72 velocity=0 time=0
note_off channel=5 note=76 velocity=0 time=0
note_off channel=2 note=57 velocity=0 time=4
note_off channel=4 note=60 velocity=0 time=0
note_off channel=4 note=64 velocity=0 time=0
note_off channel=5 note=69 velocity=0 time=4
note_off channel=5 note=64 velocity=0 time=4
note_off channel=4 note=57 velocity=0 time=4
note_off channel=4 note=52 velocity=0 time=4
note_on channel=5 note=69 velocity=97 time=116
note_on channel=2 note=57 velocity=92 time=4
note_on channel=5 note=74 velocity=102 time=0
note_on channel=5 note=76 velocity=99 time=0
note_on channel=2 note=67 velocity=101 time=4
note_on channel=4 note=57 velocity=97 time=0
note_on channel=2 note=62 velocity=95 time=0
note_on channel=2 note=38 velocity=107 time=4
note_on channel=4 note=62 velocity=102 time=0
note_on channel=4 note=64 velocity=99 time=0
note_off channel=2 note=33 velocity=0 time=16
note_off channel=2 note=67 velocity=0 time=216
note_off channel=2 note=57 velocity=0 time=8
note_off channel=2 note=62 velocity=0 time=0
note_off channel=5 note=74 velocity=0 time=16
note_off channel=5 note=76 velocity=0 time=0
note_off channel=4 note=64 velocity=0 time=4
note_off channel=4 note=62 velocity=0 time=4
note_off channel=5 note=69 velocity=0 time=12
note_off channel=4 note=57 velocity=0 time=8
note_off channel=0 note=72 velocity=0 time=68
note_on channel=5 note=74 velocity=87 time=20
note_on channel=5 note=78 velocity=111 time=0
note_on channel=2 note=57 velocity=87 time=8
note_on channel=4 note=62 velocity=87 time=0
note_on channel=5 note=69 velocity=90 time=0
note_on channel=2 note=62 velocity=90 time=0
note_on channel=4 note=66 velocity=111 time=0
note_on channel=2 note=66 velocity=119 time=0
note_on channel=2 note=57 velocity=86 time=4
note_on channel=4 note=57 velocity=90 time=0
MetaMessage('lyrics', text=' ma', time=192)
note_on channel=0 note=71 velocity=115 time=0
note_on channel=2 note=50 velocity=74 time=0
note_off channel=2 note=50 velocity=0 time=132
note_off channel=0 note=71 velocity=0 time=44
note_on channel=5 note=62 velocity=89 time=4
MetaMessage('lyrics', text='kes', time=4)
note_on channel=0 note=72 velocity=103 time=0
note_on channel=4 note=50 velocity=89 time=4
note_on channel=2 note=50 velocity=81 time=4
MetaMessage('lyrics', text=' me', time=92)
note_on channel=0 note=71 velocity=111 time=0
note_off channel=0 note=72 velocity=0 time=20
note_off channel=5 note=74 velocity=0 time=44
note_off channel=4 note=62 velocity=0 time=4
note_off channel=5 note=78 velocity=0 time=20
note_off channel=5 note=69 velocity=0 time=0
note_on channel=5 note=74 velocity=93 time=0
note_off channel=4 note=66 velocity=0 time=8
note_off channel=4 note=57 velocity=0 time=0
note_on channel=4 note=62 velocity=93 time=0
note_off channel=0 note=71 velocity=0 time=76
MetaMessage('lyrics', text=' won', time=20)
note_on channel=0 note=69 velocity=111 time=0
note_off channel=5 note=74 velocity=0 time=60
note_off channel=4 note=62 velocity=0 time=8
note_off channel=2 note=57 velocity=0 time=8
note_off channel=0 note=69 velocity=0 time=12
note_on channel=5 note=74 velocity=97 time=0
note_on channel=2 note=55 velocity=85 time=8
note_on channel=4 note=62 velocity=97 time=0
note_on channel=5 note=78 velocity=82 time=88
MetaMessage('lyrics', text='der', time=4)
note_on channel=0 note=69 velocity=117 time=0
note_on channel=2 note=57 velocity=89 time=4
note_on channel=4 note=66 velocity=82 time=0
note_off channel=5 note=74 velocity=0 time=4
note_off channel=4 note=62 velocity=0 time=8
note_off channel=2 note=55 velocity=0 time=36
note_on channel=5 note=74 velocity=99 time=40
note_on channel=4 note=62 velocity=99 time=8
note_off channel=5 note=78 velocity=0 time=16
note_off channel=4 note=66 velocity=0 time=4
note_off channel=2 note=66 velocity=0 time=4
note_off channel=2 note=62 velocity=0 time=8
note_off channel=2 note=57 velocity=0 time=0
note_off channel=5 note=74 velocity=0 time=144
note_off channel=4 note=62 velocity=0 time=4
note_on channel=5 note=71 velocity=68 time=4
note_on channel=5 note=67 velocity=59 time=0
note_on channel=4 note=59 velocity=68 time=8
note_on channel=4 note=55 velocity=59 time=0
note_off channel=5 note=71 velocity=0 time=16
note_off channel=5 note=67 velocity=0 time=0
note_off channel=4 note=59 velocity=0 time=4
note_off channel=4 note=55 velocity=0 time=0
note_off channel=2 note=38 velocity=0 time=32
note_on channel=5 note=67 velocity=95 time=36
note_on channel=5 note=71 velocity=93 time=0
note_on channel=4 note=55 velocity=95 time=8
note_on channel=4 note=59 velocity=93 time=0
note_off channel=0 note=69 velocity=0 time=20
note_off channel=5 note=71 velocity=0 time=24
note_off channel=4 note=59 velocity=0 time=8
note_off channel=5 note=67 velocity=0 time=0
note_off channel=4 note=55 velocity=0 time=4
note_on channel=2 note=33 velocity=101 time=36
note_on channel=0 note=69 velocity=113 time=4
note_on channel=2 note=60 velocity=89 time=0
note_on channel=5 note=69 velocity=89 time=0
note_on channel=2 note=57 velocity=81 time=0
note_on channel=5 note=64 velocity=86 time=0
note_on channel=2 note=67 velocity=93 time=0
note_on channel=5 note=79 velocity=99 time=0
note_on channel=5 note=72 velocity=95 time=0
note_on channel=2 note=64 velocity=92 time=4
note_on channel=4 note=57 velocity=89 time=0
note_on channel=4 note=52 velocity=86 time=0
note_on channel=4 note=67 velocity=99 time=0
note_on channel=4 note=60 velocity=95 time=0
note_off channel=5 note=62 velocity=0 time=80
note_off channel=4 note=50 velocity=0 time=8
note_on channel=6 note=60 velocity=61 time=8
note_off channel=5 note=79 velocity=0 time=4
note_off channel=4 note=67 velocity=0 time=8
note_off channel=5 note=72 velocity=0 time=8
note_off channel=4 note=60 velocity=0 time=8
note_off channel=5 note=64 velocity=0 time=4
note_off channel=5 note=69 velocity=0 time=0
note_off channel=6 note=60 velocity=0 time=4
note_off channel=4 note=57 velocity=0 time=4
note_off channel=4 note=52 velocity=0 time=0
note_off channel=2 note=50 velocity=0 time=12
note_off channel=2 note=64 velocity=0 time=16
note_off channel=2 note=33 velocity=0 time=8
note_off channel=2 note=67 velocity=0 time=4
note_on channel=5 note=79 velocity=55 time=8
note_on channel=2 note=33 velocity=99 time=4
note_on channel=5 note=69 velocity=45 time=0
note_on channel=4 note=67 velocity=55 time=4
note_on channel=4 note=57 velocity=45 time=0
note_off channel=5 note=79 velocity=0 time=16
note_off channel=5 note=69 velocity=0 time=0
note_off channel=4 note=67 velocity=0 time=4
note_off channel=4 note=57 velocity=0 time=0
note_off channel=2 note=57 velocity=0 time=16
note_off channel=0 note=69 velocity=0 time=4
note_off channel=2 note=60 velocity=0 time=4
note_on channel=5 note=72 velocity=77 time=40
note_on channel=5 note=79 velocity=87 time=0
note_on channel=5 note=64 velocity=73 time=0
note_on channel=5 note=69 velocity=80 time=0
note_on channel=0 note=67 velocity=83 time=4
note_on channel=2 note=67 velocity=71 time=4
note_on channel=4 note=60 velocity=77 time=0
note_on channel=4 note=67 velocity=87 time=0
note_on channel=4 note=52 velocity=73 time=0
note_on channel=4 note=57 velocity=80 time=0
note_off channel=0 note=67 velocity=0 time=28
note_off channel=2 note=33 velocity=0 time=4
note_off channel=5 note=79 velocity=0 time=0
note_off channel=2 note=67 velocity=0 time=4
note_off channel=4 note=67 velocity=0 time=0
note_off channel=5 note=72 velocity=0 time=0
note_off channel=5 note=64 velocity=0 time=0
note_off channel=5 note=69 velocity=0 time=0
note_off channel=4 note=60 velocity=0 time=4
note_off channel=4 note=57 velocity=0 time=0
note_off channel=4 note=52 velocity=0 time=4
note_on channel=5 note=79 velocity=97 time=44
note_on channel=5 note=72 velocity=89 time=0
note_on channel=5 note=64 velocity=77 time=0
note_on channel=5 note=69 velocity=87 time=0
note_on channel=0 note=69 velocity=115 time=8
note_on channel=2 note=67 velocity=86 time=0
note_on channel=4 note=67 velocity=97 time=0
note_on channel=2 note=57 velocity=86 time=0
note_on channel=4 note=60 velocity=89 time=0
note_on channel=4 note=52 velocity=77 time=0
note_on channel=4 note=57 velocity=87 time=0
note_on channel=2 note=60 velocity=90 time=4
note_on channel=2 note=64 velocity=82 time=0
note_off channel=2 note=57 velocity=0 time=4
note_off channel=2 note=64 velocity=0 time=92
note_off channel=5 note=72 velocity=0 time=0
note_off channel=5 note=64 velocity=0 time=0
note_off channel=5 note=69 velocity=0 time=0
note_off channel=2 note=67 velocity=0 time=4
note_off channel=4 note=52 velocity=0 time=0
note_off channel=5 note=79 velocity=0 time=0
note_off channel=4 note=60 velocity=0 time=4
note_off channel=4 note=57 velocity=0 time=0
note_off channel=2 note=60 velocity=0 time=4
note_off channel=4 note=67 velocity=0 time=0
note_off channel=2 note=57 velocity=0 time=4
note_on channel=5 note=72 velocity=90 time=68
note_on channel=5 note=76 velocity=99 time=0
note_on channel=5 note=69 velocity=89 time=0
note_on channel=5 note=64 velocity=82 time=0
note_off channel=0 note=69 velocity=0 time=4
note_on channel=2 note=33 velocity=99 time=0
note_on channel=0 note=67 velocity=97 time=0
note_on channel=4 note=60 velocity=90 time=4
note_on channel=4 note=64 velocity=99 time=0
note_on channel=4 note=57 velocity=89 time=0
note_on channel=4 note=52 velocity=82 time=0
note_on channel=2 note=67 velocity=93 time=4
note_on channel=2 note=60 velocity=89 time=0
note_on channel=2 note=64 velocity=89 time=0
note_on channel=2 note=57 velocity=82 time=0
note_off channel=0 note=67 velocity=0 time=64
note_off channel=5 note=64 velocity=0 time=8
note_off channel=5 note=69 velocity=0 time=4
note_off channel=4 note=57 velocity=0 time=4
note_off channel=5 note=76 velocity=0 time=0
note_off channel=4 note=52 velocity=0 time=0
note_off channel=4 note=64 velocity=0 time=4
note_off channel=5 note=72 velocity=0 time=0
note_on channel=0 note=69 velocity=109 time=8
note_off channel=4 note=60 velocity=0 time=0
note_off channel=2 note=33 velocity=0 time=28
note_off channel=2 note=67 velocity=0 time=44
note_on channel=2 note=33 velocity=105 time=20
note_off channel=2 note=64 velocity=0 time=4
note_off channel=2 note=57 velocity=0 time=16
note_off channel=2 note=60 velocity=0 time=4
note_off channel=0 note=69 velocity=0 time=64
note_on channel=0 note=67 velocity=105 time=12
note_off channel=0 note=67 velocity=0 time=36
note_on channel=5 note=72 velocity=89 time=52
note_on channel=5 note=76 velocity=93 time=0
note_on channel=5 note=69 velocity=97 time=0
note_on channel=5 note=64 velocity=92 time=0
note_on channel=2 note=57 velocity=90 time=4
note_on channel=2 note=60 velocity=89 time=0
note_on channel=0 note=69 velocity=121 time=4
note_on channel=2 note=64 velocity=99 time=0
note_on channel=4 note=60 velocity=89 time=0
note_on channel=4 note=64 velocity=93 time=0
note_on channel=4 note=57 velocity=97 time=0
note_on channel=4 note=52 velocity=92 time=0
note_off channel=2 note=33 velocity=0 time=76
note_off channel=2 note=64 velocity=0 time=96
note_on channel=2 note=33 velocity=103 time=20
note_off channel=2 note=57 velocity=0 time=4
note_off channel=2 note=60 velocity=0 time=0
note_off channel=5 note=72 velocity=0 time=16
note_off channel=4 note=60 velocity=0 time=8
note_off channel=5 note=76 velocity=0 time=0
note_off channel=5 note=64 velocity=0 time=0
note_off channel=4 note=64 velocity=0 time=8
note_off channel=5 note=69 velocity=0 time=0
note_off channel=4 note=52 velocity=0 time=0
note_off channel=4 note=57 velocity=0 time=4
note_on channel=6 note=60 velocity=75 time=68
note_off channel=6 note=60 velocity=0 time=20
note_on channel=5 note=76 velocity=97 time=56
note_on channel=5 note=62 velocity=95 time=0
note_on channel=2 note=64 velocity=81 time=8
note_on channel=4 note=64 velocity=97 time=0
note_on channel=5 note=79 velocity=93 time=0
note_on channel=2 note=71 velocity=87 time=0
note_on channel=4 note=50 velocity=95 time=0
note_on channel=5 note=83 velocity=90 time=0
note_on channel=2 note=67 velocity=87 time=0
note_on channel=4 note=67 velocity=93 time=4
note_on channel=4 note=71 velocity=90 time=0
note_on channel=2 note=45 velocity=107 time=92
note_off channel=2 note=33 velocity=0 time=12
note_off channel=0 note=69 velocity=0 time=44
note_off channel=2 note=45 velocity=0 time=20
note_on channel=2 note=50 velocity=103 time=16
note_off channel=2 note=67 velocity=0 time=24
note_off channel=5 note=76 velocity=0 time=0
note_off channel=5 note=79 velocity=0 time=0
note_off channel=5 note=83 velocity=0 time=0
note_off channel=2 note=71 velocity=0 time=4
note_off channel=4 note=71 velocity=0 time=0
note_off channel=4 note=64 velocity=0 time=4
note_off channel=4 note=67 velocity=0 time=0
note_off channel=2 note=64 velocity=0 time=8
note_on channel=6 note=60 velocity=61 time=40
note_off channel=6 note=60 velocity=0 time=28
note_on channel=5 note=74 velocity=97 time=80
note_on channel=5 note=78 velocity=111 time=0
note_on channel=5 note=81 velocity=93 time=0
note_on channel=2 note=66 velocity=109 time=4
note_on channel=2 note=62 velocity=90 time=0
note_on channel=2 note=69 velocity=90 time=4
note_on channel=4 note=62 velocity=97 time=0
note_on channel=4 note=66 velocity=111 time=0
note_on channel=4 note=69 velocity=93 time=0
note_off channel=5 note=81 velocity=0 time=228
note_off channel=4 note=69 velocity=0 time=4
note_off channel=5 note=78 velocity=0 time=4
note_off channel=2 note=69 velocity=0 time=4
note_off channel=2 note=66 velocity=0 time=4
note_off channel=4 note=66 velocity=0 time=0
note_off channel=5 note=74 velocity=0 time=0
note_off channel=2 note=62 velocity=0 time=0
note_off channel=4 note=62 velocity=0 time=4
note_on channel=6 note=60 velocity=63 time=36
note_off channel=6 note=60 velocity=0 time=24
note_on channel=5 note=76 velocity=95 time=68
note_on channel=5 note=76 velocity=93 time=0
note_on channel=5 note=79 velocity=93 time=0
note_on channel=2 note=60 velocity=90 time=8
note_on channel=4 note=64 velocity=95 time=0
note_on channel=2 note=67 velocity=93 time=0
note_on channel=4 note=64 velocity=93 time=0
note_on channel=2 note=64 velocity=93 time=0
note_on channel=4 note=67 velocity=93 time=0
note_off channel=2 note=50 velocity=0 time=44
note_on channel=2 note=45 velocity=95 time=52
note_on channel=2 note=38 velocity=97 time=96
note_off channel=2 note=45 velocity=0 time=4
note_off channel=2 note=60 velocity=0 time=32
note_off channel=2 note=64 velocity=0 time=0
note_off channel=2 note=67 velocity=0 time=4
note_off channel=5 note=79 velocity=0 time=16
note_off channel=5 note=76 velocity=0 time=4
note_off channel=4 note=67 velocity=0 time=4
note_off channel=5 note=76 velocity=0 time=0
note_off channel=4 note=64 velocity=0 time=4
note_off channel=4 note=64 velocity=0 time=0
note_on channel=6 note=60 velocity=66 time=32
note_off channel=6 note=60 velocity=0 time=28
note_on channel=5 note=74 velocity=90 time=56
note_on channel=5 note=78 velocity=95 time=0
note_on channel=5 note=81 velocity=76 time=0
note_on channel=2 note=69 velocity=93 time=4
note_on channel=2 note=62 velocity=93 time=0
note_on channel=2 note=66 velocity=111 time=4
note_on channel=4 note=62 velocity=90 time=0
note_on channel=4 note=66 velocity=95 time=0
note_on channel=4 note=69 velocity=76 time=0
MetaMessage('lyrics', text='\r', time=0)
MetaMessage('lyrics', text="There's", time=188)
control_change channel=0 control=11 value=95 time=0
note_on channel=0 note=69 velocity=113 time=0
note_off channel=5 note=62 velocity=0 time=168
note_off channel=4 note=50 velocity=0 time=4
MetaMessage('lyrics', text=' a', time=20)
note_on channel=0 note=71 velocity=113 time=0
note_on channel=5 note=57 velocity=90 time=0
note_off channel=0 note=69 velocity=0 time=8
note_on channel=4 note=45 velocity=90 time=0
note_off channel=2 note=69 velocity=0 time=40
note_off channel=2 note=62 velocity=0 time=0
note_off channel=2 note=66 velocity=0 time=0
note_off channel=5 note=81 velocity=0 time=72
note_off channel=4 note=69 velocity=0 time=8
note_off channel=5 note=78 velocity=0 time=0
note_off channel=5 note=74 velocity=0 time=4
note_off channel=4 note=62 velocity=0 time=4
note_off channel=5 note=57 velocity=0 time=0
note_off channel=4 note=66 velocity=0 time=0
note_off channel=2 note=38 velocity=0 time=4
note_off channel=4 note=45 velocity=0 time=0
MetaMessage('lyrics', text=' feel', time=56)
note_on channel=0 note=72 velocity=109 time=0
note_on channel=5 note=60 velocity=93 time=0
note_on channel=2 note=64 velocity=89 time=4
note_on channel=4 note=48 velocity=93 time=0
note_on channel=2 note=60 velocity=89 time=0
note_on channel=2 note=67 velocity=82 time=0
note_off channel=0 note=71 velocity=0 time=8
note_on channel=2 note=48 velocity=93 time=16
note_on channel=6 note=60 velocity=72 time=60
note_off channel=6 note=60 velocity=0 time=36
note_on channel=5 note=64 velocity=89 time=60
note_on channel=4 note=52 velocity=89 time=8
note_on channel=5 note=67 velocity=82 time=184
note_on channel=4 note=55 velocity=82 time=8
MetaMessage('lyrics', text='ing', time=4)
note_on channel=0 note=71 velocity=105 time=0
note_off channel=0 note=72 velocity=0 time=28
note_off channel=0 note=71 velocity=0 time=64
note_on channel=6 note=60 velocity=72 time=0
MetaMessage('lyrics', text=' i', time=4)
note_on channel=0 note=69 velocity=107 time=0
note_off channel=6 note=60 velocity=0 time=36
note_off channel=0 note=69 velocity=0 time=8
note_on channel=5 note=72 velocity=87 time=36
note_on channel=4 note=60 velocity=87 time=8
note_off channel=2 note=64 velocity=0 time=76
note_off channel=2 note=67 velocity=0 time=8
note_off channel=2 note=60 velocity=0 time=4
MetaMessage('lyrics', text=' get', time=12)
note_on channel=0 note=71 velocity=113 time=0
note_off channel=5 note=60 velocity=0 time=72
note_off channel=4 note=48 velocity=0 time=8
note_on channel=2 note=47 velocity=95 time=4
note_on channel=5 note=59 velocity=93 time=0
note_on channel=4 note=47 velocity=93 time=8
note_off channel=2 note=48 velocity=0 time=4
note_on channel=2 note=59 velocity=80 time=0
note_on channel=2 note=62 velocity=86 time=0
note_on channel=2 note=67 velocity=89 time=0
note_off channel=5 note=64 velocity=0 time=84
note_off channel=4 note=52 velocity=0 time=4
note_on channel=5 note=62 velocity=76 time=96
note_on channel=4 note=50 velocity=76 time=8
note_off channel=5 note=67 velocity=0 time=8
note_off channel=4 note=55 velocity=0 time=8
note_on channel=5 note=67 velocity=92 time=164
note_on channel=4 note=55 velocity=92 time=8
note_off channel=0 note=71 velocity=0 time=56
MetaMessage('lyrics', text=' when', time=44)
note_on channel=0 note=69 velocity=83 time=0
note_off channel=0 note=69 velocity=0 time=64
note_off channel=5 note=72 velocity=0 time=20
note_on channel=5 note=74 velocity=77 time=0
note_off channel=4 note=60 velocity=0 time=8
note_on channel=4 note=62 velocity=77 time=0
MetaMessage('lyrics', text=' i', time=4)
note_on channel=0 note=71 velocity=119 time=0
note_off channel=5 note=74 velocity=0 time=100
note_off channel=0 note=71 velocity=0 time=4
note_off channel=2 note=67 velocity=0 time=4
note_off channel=4 note=62 velocity=0 time=0
note_off channel=2 note=62 velocity=0 time=4
note_off channel=2 note=59 velocity=0 time=4
note_off channel=5 note=62 velocity=0 time=40
note_off channel=5 note=67 velocity=0 time=0
note_off channel=4 note=50 velocity=0 time=8
note_on channel=5 note=71 velocity=82 time=0
note_off channel=4 note=55 velocity=0 time=0
note_on channel=4 note=59 velocity=82 time=8
note_on channel=2 note=45 velocity=105 time=8
note_on channel=5 note=72 velocity=95 time=0
note_off channel=5 note=71 velocity=0 time=4
note_off channel=2 note=47 velocity=0 time=4
note_on channel=4 note=60 velocity=95 time=0
note_off channel=4 note=59 velocity=0 time=4
MetaMessage('lyrics', text=' look', time=4)
note_on channel=0 note=72 velocity=117 time=0
note_on channel=2 note=64 velocity=93 time=0
note_on channel=2 note=60 velocity=92 time=0
note_off channel=5 note=59 velocity=0 time=16
note_off channel=4 note=47 velocity=0 time=8
note_on channel=5 note=69 velocity=92 time=152
note_on channel=4 note=57 velocity=92 time=8
note_off channel=5 note=72 velocity=0 time=8
note_off channel=4 note=60 velocity=0 time=4
note_off channel=0 note=72 velocity=0 time=112
note_on channel=5 note=57 velocity=99 time=64
MetaMessage('lyrics', text='\r', time=0)
MetaMessage('lyrics', text='to', time=8)
note_on channel=0 note=74 velocity=111 time=0
note_on channel=4 note=45 velocity=99 time=0
note_off channel=0 note=74 velocity=0 time=116
note_on channel=5 note=64 velocity=71 time=64
MetaMessage('lyrics', text=' the', time=8)
note_on channel=0 note=72 velocity=111 time=0
note_on channel=4 note=52 velocity=71 time=0
note_off channel=0 note=72 velocity=0 time=72
MetaMessage('lyrics', text=' we', time=24)
note_on channel=0 note=71 velocity=109 time=0
note_off channel=5 note=69 velocity=0 time=20
note_off channel=4 note=57 velocity=0 time=4
note_off channel=0 note=71 velocity=0 time=64
note_on channel=5 note=69 velocity=89 time=0
MetaMessage('lyrics', text='st', time=8)
note_on channel=0 note=69 velocity=105 time=0
note_on channel=4 note=57 velocity=89 time=0
note_on channel=5 note=72 velocity=86 time=184
note_on channel=4 note=60 velocity=86 time=8
note_off channel=0 note=69 velocity=0 time=40
note_off channel=2 note=45 velocity=0 time=56
note_off channel=5 note=57 velocity=0 time=0
note_off channel=4 note=45 velocity=0 time=8
note_on channel=5 note=57 velocity=90 time=84
MetaMessage('lyrics', text='\r', time=0)
MetaMessage('lyrics', text='And', time=8)
note_on channel=0 note=72 velocity=111 time=0
note_on channel=4 note=45 velocity=90 time=0
note_off channel=2 note=64 velocity=0 time=92
note_on channel=2 note=47 velocity=101 time=88
note_on channel=5 note=59 velocity=97 time=4
MetaMessage('lyrics', text=' my', time=8)
note_on channel=0 note=74 velocity=117 time=0
note_on channel=4 note=47 velocity=97 time=0
note_on channel=2 note=67 velocity=101 time=4
note_off channel=5 note=57 velocity=0 time=0
note_off channel=0 note=72 velocity=0 time=8
note_off channel=4 note=45 velocity=0 time=0
note_off channel=2 note=67 velocity=0 time=72
note_off channel=2 note=60 velocity=0 time=4
note_off channel=5 note=64 velocity=0 time=84
note_off channel=2 note=47 velocity=0 time=8
note_off channel=4 note=52 velocity=0 time=0
note_off channel=5 note=59 velocity=0 time=0
note_on channel=5 note=60 velocity=101 time=0
note_off channel=4 note=47 velocity=0 time=4
note_on channel=2 note=48 velocity=99 time=4
note_on channel=4 note=48 velocity=101 time=0
MetaMessage('lyrics', text=' spi', time=4)
note_on channel=0 note=76 velocity=111 time=0
note_on channel=2 note=67 velocity=90 time=0
note_on channel=2 note=64 velocity=86 time=0
note_off channel=0 note=74 velocity=0 time=4
note_on channel=2 note=60 velocity=89 time=0
note_off channel=5 note=69 velocity=0 time=44
note_off channel=4 note=57 velocity=0 time=4
note_on channel=6 note=60 velocity=61 time=48
note_off channel=6 note=60 velocity=0 time=36
note_on channel=5 note=64 velocity=80 time=48
note_on channel=4 note=52 velocity=80 time=8
note_off channel=5 note=72 velocity=0 time=16
note_off channel=4 note=60 velocity=0 time=4
note_on channel=5 note=67 velocity=92 time=164
note_on channel=4 note=55 velocity=92 time=8
MetaMessage('lyrics', text='rit', time=4)
note_on channel=0 note=74 velocity=103 time=0
note_off channel=0 note=76 velocity=0 time=20
note_off channel=0 note=74 velocity=0 time=144
note_on channel=5 note=72 velocity=85 time=16
MetaMessage('lyrics', text=' is', time=8)
note_on channel=0 note=72 velocity=99 time=0
note_on channel=4 note=60 velocity=85 time=0
note_off channel=2 note=60 velocity=0 time=64
note_off channel=2 note=64 velocity=0 time=4
note_off channel=2 note=67 velocity=0 time=16
note_on channel=5 note=59 velocity=93 time=96
note_on channel=2 note=47 velocity=92 time=8
note_on channel=4 note=47 velocity=93 time=0
MetaMessage('lyrics', text=' cry', time=4)
note_on channel=0 note=71 velocity=103 time=0
note_on channel=2 note=62 velocity=83 time=0
note_on channel=2 note=59 velocity=81 time=0
note_off channel=2 note=48 velocity=0 time=4
note_off channel=5 note=60 velocity=0 time=0
note_on channel=2 note=67 velocity=101 time=0
note_off channel=4 note=48 velocity=0 time=4
note_off channel=0 note=72 velocity=0 time=12
note_off channel=5 note=64 velocity=0 time=64
note_off channel=4 note=52 velocity=0 time=4
note_on channel=5 note=62 velocity=83 time=96
note_off channel=0 note=71 velocity=0 time=4
MetaMessage('lyrics', text='ing', time=4)
note_on channel=0 note=69 velocity=101 time=0
note_on channel=4 note=50 velocity=83 time=0
note_off channel=5 note=67 velocity=0 time=20
note_off channel=4 note=55 velocity=0 time=8
note_on channel=5 note=67 velocity=89 time=156
MetaMessage('lyrics', text=' for', time=8)
note_on channel=0 note=67 velocity=101 time=0
note_on channel=4 note=55 velocity=89 time=0
note_off channel=5 note=72 velocity=0 time=4
note_off channel=4 note=60 velocity=0 time=8
note_off channel=0 note=69 velocity=0 time=8
note_off channel=2 note=59 velocity=0 time=60
note_off channel=2 note=67 velocity=0 time=0
note_off channel=2 note=62 velocity=0 time=8
note_off channel=0 note=67 velocity=0 time=8
note_on channel=6 note=60 velocity=75 time=12
note_off channel=6 note=60 velocity=0 time=20
note_off channel=5 note=62 velocity=0 time=20
note_off channel=4 note=50 velocity=0 time=8
note_off channel=5 note=67 velocity=0 time=0
note_off channel=2 note=47 velocity=0 time=8
note_off channel=4 note=55 velocity=0 time=0
note_on channel=5 note=65 velocity=77 time=16
note_on channel=5 note=71 velocity=93 time=0
note_on channel=5 note=60 velocity=87 time=0
note_on channel=4 note=53 velocity=77 time=4
note_on channel=5 note=76 velocity=85 time=0
note_on channel=5 note=69 velocity=82 time=0
note_on channel=2 note=41 velocity=95 time=4
note_on channel=4 note=59 velocity=93 time=0
note_on channel=4 note=48 velocity=87 time=0
MetaMessage('lyrics', text=' lea', time=4)
note_on channel=0 note=67 velocity=103 time=0
note_on channel=2 note=60 velocity=85 time=0
note_on channel=4 note=64 velocity=85 time=0
note_on channel=5 note=53 velocity=103 time=0
note_on channel=4 note=57 velocity=82 time=0
note_on channel=2 note=65 velocity=97 time=4
note_on channel=4 note=41 velocity=103 time=0
note_on channel=2 note=57 velocity=72 time=0
note_off channel=5 note=59 velocity=0 time=8
note_off channel=4 note=47 velocity=0 time=8
note_off channel=2 note=41 velocity=0 time=76
note_off channel=2 note=65 velocity=0 time=44
note_off channel=2 note=57 velocity=0 time=4
note_off channel=2 note=60 velocity=0 time=12
note_off channel=5 note=53 velocity=0 time=40
note_off channel=4 note=41 velocity=0 time=4
note_on channel=6 note=60 velocity=61 time=68
note_off channel=6 note=60 velocity=0 time=28
note_off channel=5 note=69 velocity=0 time=20
note_off channel=5 note=71 velocity=0 time=0
note_off channel=5 note=76 velocity=0 time=0
note_off channel=4 note=57 velocity=0 time=8
note_off channel=4 note=59 velocity=0 time=0
note_off channel=4 note=64 velocity=0 time=0
note_off channel=5 note=60 velocity=0 time=4
note_off channel=5 note=65 velocity=0 time=0
note_off channel=4 note=48 velocity=0 time=8
note_off channel=4 note=53 velocity=0 time=0
note_off channel=0 note=67 velocity=0 time=36
note_on channel=5 note=76 velocity=90 time=0
note_on channel=5 note=69 velocity=90 time=0
note_on channel=5 note=72 velocity=90 time=0
note_on channel=2 note=45 velocity=97 time=4
note_on channel=4 note=64 velocity=90 time=0
note_on channel=5 note=57 velocity=111 time=0
note_on channel=4 note=57 velocity=90 time=0
note_on channel=5 note=64 velocity=90 time=0
note_on channel=4 note=60 velocity=90 time=4
MetaMessage('lyrics', text='ving', time=4)
note_on channel=0 note=69 velocity=105 time=0
note_on channel=4 note=45 velocity=111 time=0
note_on channel=4 note=52 velocity=90 time=0
note_on channel=2 note=60 velocity=89 time=4
note_on channel=2 note=57 velocity=82 time=0
note_on channel=2 note=64 velocity=101 time=0
note_on channel=6 note=60 velocity=63 time=280
note_off channel=6 note=60 velocity=0 time=24
note_on channel=6 note=60 velocity=66 time=368
note_off channel=6 note=60 velocity=0 time=28
note_off channel=0 note=69 velocity=0 time=64
note_off channel=5 note=57 velocity=0 time=64
note_off channel=4 note=45 velocity=0 time=4
note_off channel=5 note=76 velocity=0 time=104
note_off channel=5 note=69 velocity=0 time=0
note_off channel=5 note=72 velocity=0 time=0
note_off channel=4 note=64 velocity=0 time=8
note_on channel=5 note=57 velocity=99 time=0
note_off channel=4 note=57 velocity=0 time=0
note_off channel=4 note=60 velocity=0 time=0
note_on channel=4 note=45 velocity=99 time=4
note_off channel=5 note=64 velocity=0 time=0
MetaMessage('lyrics', text='\r', time=0)
MetaMessage('lyrics', text='In', time=4)
note_on channel=0 note=69 velocity=113 time=0
note_off channel=4 note=52 velocity=0 time=4
note_off channel=2 note=64 velocity=0 time=12
note_off channel=2 note=45 velocity=0 time=12
note_off channel=2 note=57 velocity=0 time=4
note_off channel=2 note=60 velocity=0 time=8
note_on channel=2 note=47 velocity=97 time=128
note_on channel=5 note=59 velocity=99 time=16
note_on channel=4 note=47 velocity=99 time=4
MetaMessage('lyrics', text=' my', time=8)
note_on channel=0 note=71 velocity=113 time=0
note_off channel=5 note=57 velocity=0 time=0
note_off channel=0 note=69 velocity=0 time=4
note_off channel=4 note=45 velocity=0 time=0
note_off channel=0 note=71 velocity=0 time=136
note_off channel=2 note=47 velocity=0 time=36
note_on channel=2 note=48 velocity=99 time=0
note_on channel=5 note=60 velocity=109 time=4
note_on channel=4 note=48 velocity=109 time=8
note_off channel=5 note=59 velocity=0 time=0
MetaMessage('lyrics', text=' thoughts', time=8)
note_on channel=0 note=72 velocity=113 time=0
note_on channel=2 note=64 velocity=82 time=0
note_off channel=4 note=47 velocity=0 time=0
note_on channel=2 note=60 velocity=82 time=0
note_on channel=2 note=67 velocity=97 time=0
note_on channel=6 note=60 velocity=72 time=84
note_off channel=6 note=60 velocity=0 time=36
note_on channel=5 note=64 velocity=89 time=60
note_on channel=4 note=52 velocity=89 time=8
note_on channel=5 note=67 velocity=82 time=184
MetaMessage('lyrics', text=' i', time=8)
note_on channel=0 note=74 velocity=111 time=0
note_on channel=4 note=55 velocity=82 time=0
note_off channel=0 note=72 velocity=0 time=4
note_on channel=6 note=60 velocity=72 time=92
note_off channel=6 note=60 velocity=0 time=40
note_on channel=5 note=72 velocity=87 time=44
note_on channel=4 note=60 velocity=87 time=8
MetaMessage('lyrics', text=' have', time=4)
note_on channel=0 note=72 velocity=101 time=0
note_off channel=0 note=74 velocity=0 time=16
note_off channel=2 note=64 velocity=0 time=60
note_off channel=2 note=60 velocity=0 time=0
note_off channel=2 note=67 velocity=0 time=20
note_on channel=2 note=62 velocity=89 time=76
note_off channel=2 note=48 velocity=0 time=4
note_on channel=2 note=47 velocity=99 time=0
note_on channel=2 note=59 velocity=87 time=0
note_on channel=2 note=67 velocity=95 time=4
note_on channel=5 note=59 velocity=103 time=8
MetaMessage('lyrics', text=' se', time=4)
note_on channel=0 note=71 velocity=93 time=0
note_off channel=0 note=72 velocity=0 time=4
note_on channel=4 note=47 velocity=103 time=0
note_off channel=5 note=60 velocity=0 time=24
note_off channel=4 note=48 velocity=0 time=8
note_off channel=5 note=64 velocity=0 time=48
note_off channel=4 note=52 velocity=0 time=4
MetaMessage('lyrics', text='en', time=4)
note_on channel=0 note=69 velocity=111 time=0
note_off channel=0 note=71 velocity=0 time=16
note_on channel=5 note=62 velocity=76 time=76
note_on channel=4 note=50 velocity=76 time=8
note_off channel=5 note=67 velocity=0 time=8
note_off channel=4 note=55 velocity=0 time=8
note_on channel=5 note=67 velocity=92 time=164
note_on channel=4 note=55 velocity=92 time=8
note_off channel=0 note=69 velocity=0 time=96
MetaMessage('lyrics', text=' rings', time=12)
note_on channel=0 note=69 velocity=92 time=0
note_off channel=5 note=72 velocity=0 time=76
note_on channel=5 note=74 velocity=77 time=0
note_off channel=4 note=60 velocity=0 time=8
note_on channel=4 note=62 velocity=77 time=0
MetaMessage('lyrics', text=' of', time=16)
note_on channel=0 note=71 velocity=113 time=0
note_off channel=0 note=69 velocity=0 time=24
note_off channel=2 note=62 velocity=0 time=24
note_off channel=2 note=59 velocity=0 time=0
note_off channel=2 note=67 velocity=0 time=28
note_off channel=5 note=74 velocity=0 time=12
note_off channel=4 note=62 velocity=0 time=8
note_off channel=5 note=62 velocity=0 time=48
note_off channel=5 note=67 velocity=0 time=0
note_off channel=4 note=50 velocity=0 time=8
note_on channel=5 note=71 velocity=82 time=0
note_off channel=4 note=55 velocity=0 time=0
note_off channel=0 note=71 velocity=0 time=8
note_on channel=4 note=59 velocity=82 time=0
note_on channel=2 note=45 velocity=99 time=8
note_on channel=5 note=72 velocity=95 time=0
note_on channel=2 note=57 velocity=77 time=0
note_on channel=2 note=60 velocity=81 time=0
note_off channel=2 note=47 velocity=0 time=4
note_off channel=5 note=71 velocity=0 time=0
note_on channel=2 note=64 velocity=92 time=4
note_on channel=4 note=60 velocity=95 time=0
MetaMessage('lyrics', text=' smoke', time=4)
note_on channel=0 note=72 velocity=105 time=0
note_off channel=4 note=59 velocity=0 time=0
note_on channel=5 note=57 velocity=97 time=0
note_on channel=4 note=45 velocity=97 time=4
note_off channel=5 note=59 velocity=0 time=0
note_off channel=4 note=47 velocity=0 time=8
note_on channel=5 note=69 velocity=92 time=168
note_on channel=4 note=57 velocity=92 time=8
note_off channel=5 note=72 velocity=0 time=8
note_off channel=4 note=60 velocity=0 time=4
note_off channel=5 note=57 velocity=0 time=32
note_off channel=4 note=45 velocity=0 time=8
note_off channel=0 note=72 velocity=0 time=116
note_on channel=5 note=57 velocity=103 time=20
MetaMessage('lyrics', text='\r', time=0)
MetaMessage('lyrics', text='through', time=8)
note_on channel=0 note=74 velocity=101 time=0
note_on channel=4 note=45 velocity=103 time=0
note_off channel=0 note=74 velocity=0 time=180
note_on channel=5 note=64 velocity=71 time=0
MetaMessage('lyrics', text=' the', time=8)
note_on channel=0 note=72 velocity=92 time=0
note_on channel=4 note=52 velocity=71 time=0
note_off channel=2 note=64 velocity=0 time=84
MetaMessage('lyrics', text=' tre', time=12)
note_on channel=0 note=71 velocity=101 time=0
note_off channel=0 note=72 velocity=0 time=4
note_off channel=5 note=69 velocity=0 time=16
note_off channel=4 note=57 velocity=0 time=4
note_off channel=0 note=71 velocity=0 time=52
note_on channel=5 note=69 velocity=89 time=12
MetaMessage('lyrics', text='es', time=8)
note_on channel=0 note=69 velocity=107 time=0
note_on channel=2 note=64 velocity=89 time=0
note_on channel=4 note=57 velocity=89 time=0
note_on channel=2 note=69 velocity=90 time=96
note_on channel=5 note=72 velocity=86 time=88
note_on channel=4 note=60 velocity=86 time=8
note_off channel=0 note=69 velocity=0 time=24
note_off channel=5 note=57 velocity=0 time=60
note_off channel=4 note=45 velocity=0 time=4
note_off channel=2 note=69 velocity=0 time=20
note_on channel=5 note=57 velocity=99 time=76
MetaMessage('lyrics', text='\r', time=0)
MetaMessage('lyrics', text='And', time=8)
note_on channel=0 note=72 velocity=99 time=0
note_on channel=2 note=69 velocity=99 time=0
note_on channel=4 note=45 velocity=99 time=0
note_on channel=2 note=47 velocity=97 time=184
note_on channel=5 note=59 velocity=87 time=0
note_off channel=2 note=45 velocity=0 time=4
MetaMessage('lyrics', text=' the', time=4)
note_on channel=0 note=74 velocity=113 time=0
note_on channel=4 note=47 velocity=87 time=0
note_on channel=2 note=59 velocity=77 time=4
note_on channel=2 note=62 velocity=74 time=0
note_on channel=2 note=67 velocity=103 time=0
note_off channel=2 note=57 velocity=0 time=4
note_off channel=5 note=57 velocity=0 time=0
note_off channel=2 note=60 velocity=0 time=0
note_off channel=0 note=72 velocity=0 time=4
note_off channel=4 note=45 velocity=0 time=0
note_off channel=2 note=69 velocity=0 time=16
note_off channel=2 note=64 velocity=0 time=8
note_off channel=2 note=59 velocity=0 time=56
note_off channel=2 note=62 velocity=0 time=8
note_off channel=2 note=67 velocity=0 time=48
note_off channel=5 note=64 velocity=0 time=28
note_on channel=2 note=48 velocity=92 time=4
note_off channel=2 note=47 velocity=0 time=4
note_off channel=4 note=52 velocity=0 time=0
note_on channel=5 note=60 velocity=105 time=0
note_off channel=5 note=59 velocity=0 time=4
note_on channel=2 note=64 velocity=89 time=4
note_on channel=4 note=48 velocity=105 time=0
note_on channel=2 note=60 velocity=81 time=0
MetaMessage('lyrics', text=' voi', time=4)
note_on channel=0 note=76 velocity=109 time=0
note_off channel=4 note=47 velocity=0 time=0
note_off channel=0 note=74 velocity=0 time=20
note_off channel=5 note=69 velocity=0 time=28
note_off channel=4 note=57 velocity=0 time=4
note_on channel=6 note=60 velocity=61 time=48
note_off channel=6 note=60 velocity=0 time=36
note_on channel=5 note=64 velocity=80 time=48
note_on channel=4 note=52 velocity=80 time=8
note_off channel=5 note=72 velocity=0 time=16
note_off channel=4 note=60 velocity=0 time=4
note_on channel=5 note=67 velocity=92 time=164
note_on channel=2 note=67 velocity=97 time=8
note_on channel=4 note=55 velocity=92 time=0
MetaMessage('lyrics', text='ces', time=4)
note_on channel=0 note=74 velocity=107 time=0
note_off channel=0 note=76 velocity=0 time=16
note_off channel=0 note=74 velocity=0 time=160
note_on channel=5 note=72 velocity=85 time=4
MetaMessage('lyrics', text=' of', time=8)
note_on channel=0 note=72 velocity=105 time=0
note_on channel=4 note=60 velocity=85 time=0
note_off channel=2 note=67 velocity=0 time=72
note_off channel=2 note=60 velocity=0 time=12
note_off channel=2 note=64 velocity=0 time=4
note_on channel=2 note=47 velocity=97 time=92
note_on channel=5 note=59 velocity=101 time=0
note_off channel=2 note=48 velocity=0 time=4
note_on channel=4 note=47 velocity=101 time=4
MetaMessage('lyrics', text=' those', time=4)
note_on channel=0 note=71 velocity=107 time=0
note_on channel=2 note=62 velocity=82 time=0
note_off channel=5 note=60 velocity=0 time=0
note_on channel=2 note=59 velocity=80 time=0
note_on channel=2 note=67 velocity=97 time=4
note_off channel=4 note=48 velocity=0 time=0
note_off channel=0 note=72 velocity=0 time=12
note_off channel=5 note=64 velocity=0 time=68
note_off channel=4 note=52 velocity=0 time=4
note_on channel=5 note=62 velocity=83 time=96
note_off channel=0 note=71 velocity=0 time=4
MetaMessage('lyrics', text=' who', time=4)
note_on channel=0 note=69 velocity=103 time=0
note_on channel=4 note=50 velocity=83 time=0
note_off channel=5 note=67 velocity=0 time=20
note_off channel=4 note=55 velocity=0 time=8
note_on channel=5 note=67 velocity=89 time=156
MetaMessage('lyrics', text=' stand', time=8)
note_on channel=0 note=67 velocity=105 time=0
note_on channel=4 note=55 velocity=89 time=0
note_off channel=5 note=72 velocity=0 time=4
note_off channel=0 note=69 velocity=0 time=8
note_off channel=4 note=60 velocity=0 time=0
note_off channel=0 note=67 velocity=0 time=60
note_off channel=2 note=59 velocity=0 time=12
note_off channel=2 note=67 velocity=0 time=0
note_off channel=2 note=62 velocity=0 time=4
note_on channel=6 note=60 velocity=75 time=20
note_off channel=6 note=60 velocity=0 time=20
note_off channel=5 note=62 velocity=0 time=20
note_off channel=4 note=50 velocity=0 time=8
note_off channel=5 note=67 velocity=0 time=0
note_off channel=4 note=55 velocity=0 time=8
note_off channel=5 note=59 velocity=0 time=12
note_off channel=4 note=47 velocity=0 time=4
note_on channel=5 note=65 velocity=77 time=0
note_on channel=5 note=53 velocity=101 time=0
note_on channel=5 note=71 velocity=93 time=0
note_on channel=5 note=60 velocity=87 time=0
note_on channel=4 note=53 velocity=77 time=4
note_on channel=5 note=76 velocity=85 time=0
note_on channel=5 note=69 velocity=82 time=0
note_on channel=2 note=41 velocity=89 time=4
note_on channel=4 note=41 velocity=101 time=0
note_on channel=4 note=59 velocity=93 time=0
note_on channel=4 note=48 velocity=87 time=0
MetaMessage('lyrics', text=' loo', time=4)
note_on channel=0 note=67 velocity=117 time=0
note_on channel=4 note=64 velocity=85 time=0
note_on channel=4 note=57 velocity=82 time=0
note_off channel=2 note=47 velocity=0 time=4
note_on channel=2 note=65 velocity=103 time=0
note_on channel=2 note=60 velocity=103 time=0
note_on channel=2 note=57 velocity=87 time=0
note_off channel=2 note=41 velocity=0 time=56
note_off channel=2 note=65 velocity=0 time=76
note_off channel=2 note=60 velocity=0 time=36
note_off channel=2 note=57 velocity=0 time=4
note_on channel=6 note=60 velocity=61 time=92
note_off channel=5 note=53 velocity=0 time=20
note_off channel=4 note=41 velocity=0 time=4
note_off channel=6 note=60 velocity=0 time=4
note_off channel=5 note=69 velocity=0 time=20
note_off channel=5 note=71 velocity=0 time=0
note_off channel=5 note=76 velocity=0 time=0
note_off channel=4 note=57 velocity=0 time=8
note_off channel=4 note=59 velocity=0 time=0
note_off channel=4 note=64 velocity=0 time=0
note_off channel=5 note=60 velocity=0 time=4
note_off channel=5 note=65 velocity=0 time=0
note_off channel=4 note=48 velocity=0 time=8
note_off channel=4 note=53 velocity=0 time=0
note_on channel=5 note=76 velocity=90 time=36
note_on channel=5 note=69 velocity=90 time=0
note_on channel=5 note=72 velocity=90 time=0
note_on channel=4 note=64 velocity=90 time=4
note_on channel=5 note=57 velocity=107 time=0
note_on channel=4 note=57 velocity=90 time=0
note_on channel=5 note=64 velocity=90 time=0
note_on channel=4 note=60 velocity=90 time=4
MetaMessage('lyrics', text='king', time=4)
note_on channel=0 note=69 velocity=119 time=0
note_on channel=2 note=45 velocity=95 time=0
note_on channel=4 note=45 velocity=107 time=0
note_on channel=2 note=60 velocity=86 time=0
note_on channel=4 note=52 velocity=90 time=0
note_off channel=0 note=67 velocity=0 time=4
note_on channel=2 note=57 velocity=83 time=0
note_on channel=2 note=45 velocity=107 time=0
note_on channel=2 note=64 velocity=93 time=0
note_on channel=6 note=60 velocity=63 time=280
note_off channel=6 note=60 velocity=0 time=24
note_off channel=0 note=69 velocity=0 time=272
note_off channel=2 note=45 velocity=0 time=68
note_on channel=6 note=60 velocity=66 time=28
note_off channel=6 note=60 velocity=0 time=28
note_off channel=5 note=57 velocity=0 time=116
note_off channel=4 note=45 velocity=0 time=8
note_off channel=5 note=76 velocity=0 time=112
note_off channel=5 note=69 velocity=0 time=0
note_off channel=5 note=72 velocity=0 time=0
note_off channel=4 note=64 velocity=0 time=8
note_on channel=5 note=57 velocity=101 time=0
note_off channel=4 note=57 velocity=0 time=0
note_off channel=4 note=60 velocity=0 time=0
note_off channel=5 note=64 velocity=0 time=4
note_on channel=4 note=45 velocity=101 time=4
note_off channel=4 note=52 velocity=0 time=4
note_off channel=2 note=64 velocity=0 time=4
note_off channel=2 note=57 velocity=0 time=12
note_off channel=2 note=60 velocity=0 time=4
note_off channel=2 note=45 velocity=0 time=28
note_on channel=5 note=59 velocity=89 time=132
note_off channel=5 note=57 velocity=0 time=4
note_on channel=2 note=59 velocity=82 time=4
note_on channel=4 note=47 velocity=89 time=0
note_on channel=2 note=62 velocity=89 time=0
note_on channel=2 note=67 velocity=95 time=4
note_off channel=4 note=45 velocity=0 time=0
note_on channel=2 note=47 velocity=101 time=4
note_off channel=2 note=67 velocity=0 time=112
note_off channel=2 note=59 velocity=0 time=16
note_off channel=2 note=62 velocity=0 time=0
note_off channel=5 note=59 velocity=0 time=48
note_on channel=5 note=60 velocity=105 time=0
note_off channel=4 note=47 velocity=0 time=8
note_on channel=4 note=48 velocity=105 time=0
note_on channel=2 note=67 velocity=89 time=4
note_on channel=2 note=60 velocity=81 time=0
note_on channel=2 note=64 velocity=97 time=4
note_on channel=2 note=48 velocity=95 time=0
note_off channel=2 note=47 velocity=0 time=16
note_on channel=5 note=64 velocity=89 time=164
note_on channel=4 note=52 velocity=89 time=8
note_on channel=5 note=67 velocity=82 time=184
note_on channel=4 note=55 velocity=82 time=8
note_on channel=5 note=72 velocity=87 time=180
note_on channel=4 note=60 velocity=87 time=8
note_off channel=2 note=64 velocity=0 time=68
note_off channel=2 note=60 velocity=0 time=4
note_off channel=2 note=67 velocity=0 time=24
note_off channel=2 note=48 velocity=0 time=88
note_on channel=5 note=59 velocity=107 time=4
note_on channel=2 note=62 velocity=87 time=4
note_on channel=2 note=47 velocity=90 time=4
note_on channel=4 note=47 velocity=107 time=0
note_on channel=2 note=59 velocity=81 time=0
note_on channel=2 note=67 velocity=92 time=0
note_off channel=5 note=60 velocity=0 time=28
note_off channel=4 note=48 velocity=0 time=8
note_off channel=5 note=64 velocity=0 time=48
note_off channel=4 note=52 velocity=0 time=4
note_on channel=5 note=62 velocity=76 time=96
note_on channel=4 note=50 velocity=76 time=8
note_off channel=5 note=67 velocity=0 time=8
note_off channel=4 note=55 velocity=0 time=8
note_on channel=5 note=67 velocity=92 time=164
note_on channel=4 note=55 velocity=92 time=8
note_off channel=2 note=47 velocity=0 time=136
note_off channel=5 note=72 velocity=0 time=48
note_on channel=5 note=74 velocity=77 time=0
note_off channel=4 note=60 velocity=0 time=8
note_on channel=4 note=62 velocity=77 time=0
note_on channel=2 note=45 velocity=97 time=4
note_off channel=5 note=74 velocity=0 time=100
note_off channel=4 note=62 velocity=0 time=8
note_off channel=5 note=59 velocity=0 time=24
note_off channel=4 note=47 velocity=0 time=4
note_off channel=5 note=62 velocity=0 time=20
note_off channel=5 note=67 velocity=0 time=0
note_off channel=4 note=50 velocity=0 time=8
note_off channel=4 note=55 velocity=0 time=0
note_off channel=2 note=59 velocity=0 time=20
note_off channel=2 note=45 velocity=0 time=8
note_on channel=5 note=64 velocity=82 time=0
note_on channel=5 note=69 velocity=89 time=0
note_on channel=5 note=79 velocity=97 time=0
note_on channel=5 note=72 velocity=93 time=0
note_on channel=2 note=57 velocity=82 time=4
note_on channel=4 note=52 velocity=82 time=0
note_on channel=2 note=33 velocity=97 time=0
note_on channel=4 note=57 velocity=89 time=0
note_on channel=2 note=60 velocity=85 time=0
note_on channel=4 note=67 velocity=97 time=0
note_on channel=2 note=67 velocity=92 time=0
note_on channel=4 note=60 velocity=93 time=0
note_on channel=2 note=64 velocity=93 time=0
note_off channel=2 note=62 velocity=0 time=8
note_off channel=2 note=67 velocity=0 time=8
note_on channel=6 note=60 velocity=72 time=68
note_off channel=6 note=60 velocity=0 time=36
note_off channel=5 note=72 velocity=0 time=8
note_off channel=4 note=60 velocity=0 time=4
note_off channel=5 note=64 velocity=0 time=0
note_off channel=4 note=52 velocity=0 time=8
note_off channel=5 note=69 velocity=0 time=0
note_off channel=5 note=79 velocity=0 time=0
note_off channel=4 note=57 velocity=0 time=4
note_off channel=4 note=67 velocity=0 time=0
note_off channel=2 note=64 velocity=0 time=28
note_on channel=5 note=69 velocity=46 time=16
note_on channel=5 note=79 velocity=63 time=0
note_off channel=2 note=67 velocity=0 time=4
note_on channel=4 note=57 velocity=46 time=0
note_on channel=4 note=67 velocity=63 time=0
note_off channel=5 note=69 velocity=0 time=16
note_off channel=5 note=79 velocity=0 time=0
note_off channel=4 note=57 velocity=0 time=4
note_off channel=4 note=67 velocity=0 time=4
note_off channel=2 note=57 velocity=0 time=8
note_off channel=2 note=60 velocity=0 time=0
note_on channel=5 note=69 velocity=62 time=52
note_on channel=2 note=67 velocity=67 time=4
note_on channel=4 note=57 velocity=62 time=4
note_on channel=5 note=79 velocity=72 time=0
note_on channel=5 note=72 velocity=45 time=0
note_on channel=4 note=67 velocity=72 time=4
note_on channel=4 note=60 velocity=45 time=0
note_off channel=5 note=72 velocity=0 time=12
note_off channel=4 note=60 velocity=0 time=4
note_off channel=5 note=79 velocity=0 time=0
note_off channel=2 note=67 velocity=0 time=4
note_off channel=4 note=67 velocity=0 time=0
note_off channel=5 note=69 velocity=0 time=0
note_off channel=4 note=57 velocity=0 time=8
note_on channel=5 note=64 velocity=90 time=56
note_on channel=5 note=69 velocity=97 time=4
note_on channel=2 note=60 velocity=90 time=4
note_on channel=4 note=52 velocity=90 time=0
note_on channel=5 note=72 velocity=97 time=0
note_on channel=2 note=57 velocity=90 time=0
note_on channel=5 note=79 velocity=101 time=0
note_on channel=2 note=67 velocity=95 time=0
note_on channel=2 note=64 velocity=89 time=0
note_on channel=4 note=57 velocity=97 time=4
note_on channel=4 note=60 velocity=97 time=0
note_on channel=4 note=67 velocity=101 time=0
note_on channel=6 note=60 velocity=72 time=92
note_off channel=2 note=67 velocity=0 time=4
note_off channel=2 note=64 velocity=0 time=8
note_off channel=2 note=60 velocity=0 time=20
note_off channel=2 note=57 velocity=0 time=0
note_off channel=5 note=64 velocity=0 time=4
note_off channel=5 note=69 velocity=0 time=0
note_off channel=5 note=72 velocity=0 time=0
note_off channel=6 note=60 velocity=0 time=4
note_off channel=4 note=52 velocity=0 time=4
note_off channel=5 note=79 velocity=0 time=0
note_off channel=4 note=57 velocity=0 time=0
note_off channel=4 note=60 velocity=0 time=0
note_off channel=4 note=67 velocity=0 time=8
note_on channel=5 note=64 velocity=87 time=44
note_on channel=5 note=72 velocity=95 time=0
note_on channel=5 note=79 velocity=105 time=0
note_on channel=5 note=69 velocity=92 time=0
note_on channel=2 note=67 velocity=95 time=4
note_on channel=4 note=52 velocity=87 time=0
note_on channel=2 note=60 velocity=90 time=0
note_on channel=4 note=60 velocity=95 time=0
note_on channel=2 note=64 velocity=93 time=0
note_on channel=4 note=67 velocity=105 time=0
note_on channel=2 note=57 velocity=90 time=0
note_on channel=4 note=57 velocity=92 time=0
note_off channel=5 note=69 velocity=0 time=216
note_off channel=2 note=57 velocity=0 time=4
note_off channel=2 note=67 velocity=0 time=4
note_off channel=4 note=57 velocity=0 time=0
note_off channel=5 note=72 velocity=0 time=0
note_off channel=2 note=64 velocity=0 time=0
note_off channel=5 note=64 velocity=0 time=4
note_off channel=4 note=60 velocity=0 time=4
note_off channel=5 note=79 velocity=0 time=0
note_off channel=4 note=52 velocity=0 time=4
note_off channel=2 note=60 velocity=0 time=4
note_off channel=4 note=67 velocity=0 time=0
note_on channel=5 note=64 velocity=85 time=132
note_on channel=5 note=72 velocity=93 time=0
note_on channel=5 note=69 velocity=89 time=0
note_on channel=2 note=60 velocity=90 time=4
note_on channel=5 note=76 velocity=93 time=0
note_on channel=2 note=57 velocity=86 time=0
note_on channel=2 note=64 velocity=101 time=0
note_on channel=4 note=52 velocity=85 time=4
note_on channel=4 note=60 velocity=93 time=0
note_on channel=4 note=57 velocity=89 time=0
note_on channel=4 note=64 velocity=93 time=4
note_off channel=2 note=64 velocity=0 time=224
note_off channel=2 note=60 velocity=0 time=12
note_off channel=5 note=72 velocity=0 time=0
note_off channel=5 note=76 velocity=0 time=0
note_off channel=2 note=57 velocity=0 time=4
note_off channel=4 note=60 velocity=0 time=0
note_off channel=4 note=64 velocity=0 time=0
note_off channel=5 note=69 velocity=0 time=4
note_off channel=5 note=64 velocity=0 time=4
note_off channel=4 note=57 velocity=0 time=4
note_off channel=4 note=52 velocity=0 time=4
note_on channel=5 note=69 velocity=97 time=116
note_on channel=2 note=57 velocity=92 time=4
note_on channel=5 note=74 velocity=102 time=0
note_on channel=5 note=76 velocity=99 time=0
note_on channel=2 note=67 velocity=101 time=4
note_on channel=4 note=57 velocity=97 time=0
note_on channel=2 note=62 velocity=95 time=0
note_off channel=2 note=33 velocity=0 time=4
note_on channel=4 note=62 velocity=102 time=0
note_on channel=2 note=38 velocity=105 time=0
note_on channel=4 note=64 velocity=99 time=0
MetaMessage('lyrics', text='\r', time=0)
MetaMessage('lyrics', text='Ooh', time=188)
control_change channel=0 control=11 value=110 time=0
note_on channel=0 note=72 velocity=119 time=0
note_off channel=2 note=67 velocity=0 time=44
note_off channel=2 note=57 velocity=0 time=8
note_off channel=2 note=62 velocity=0 time=0
note_off channel=5 note=74 velocity=0 time=16
note_off channel=5 note=76 velocity=0 time=0
note_off channel=4 note=64 velocity=0 time=4
note_off channel=4 note=62 velocity=0 time=4
note_off channel=5 note=69 velocity=0 time=12
note_off channel=4 note=57 velocity=0 time=8
note_on channel=5 note=74 velocity=87 time=88
note_on channel=5 note=78 velocity=111 time=0
note_on channel=2 note=57 velocity=87 time=8
note_on channel=4 note=62 velocity=87 time=0
note_on channel=5 note=69 velocity=90 time=0
note_on channel=2 note=62 velocity=90 time=0
note_on channel=4 note=66 velocity=111 time=0
note_on channel=2 note=66 velocity=119 time=0
note_on channel=2 note=50 velocity=77 time=4
note_on channel=4 note=57 velocity=90 time=0
note_on channel=2 note=57 velocity=90 time=192
note_off channel=2 note=50 velocity=0 time=48
note_on channel=5 note=62 velocity=89 time=132
note_on channel=4 note=50 velocity=89 time=8
note_on channel=2 note=50 velocity=78 time=4
note_off channel=5 note=74 velocity=0 time=156
note_off channel=4 note=62 velocity=0 time=4
note_off channel=5 note=78 velocity=0 time=20
note_off channel=5 note=69 velocity=0 time=0
note_on channel=5 note=74 velocity=93 time=0
note_off channel=4 note=66 velocity=0 time=8
note_off channel=4 note=57 velocity=0 time=0
note_on channel=4 note=62 velocity=93 time=0
note_off channel=0 note=72 velocity=0 time=68
note_off channel=2 note=50 velocity=0 time=28
note_off channel=5 note=74 velocity=0 time=60
note_off channel=4 note=62 velocity=0 time=8
note_on channel=2 note=50 velocity=72 time=20
note_on channel=5 note=74 velocity=97 time=0
MetaMessage('lyrics', text=' ma', time=8)
note_on channel=0 note=72 velocity=117 time=0
note_on channel=4 note=62 velocity=97 time=0
note_off channel=2 note=57 velocity=0 time=32
note_on channel=5 note=78 velocity=82 time=56
MetaMessage('lyrics', text='kes', time=8)
note_on channel=0 note=71 velocity=115 time=0
note_on channel=4 note=66 velocity=82 time=0
note_off channel=0 note=72 velocity=0 time=8
note_off channel=5 note=74 velocity=0 time=36
note_off channel=4 note=62 velocity=0 time=8
note_on channel=5 note=74 velocity=99 time=36
note_on channel=2 note=57 velocity=95 time=8
note_on channel=4 note=62 velocity=99 time=0
note_off channel=2 note=66 velocity=0 time=24
note_off channel=2 note=62 velocity=0 time=8
note_off channel=2 note=57 velocity=0 time=0
note_off channel=5 note=78 velocity=0 time=24
note_off channel=4 note=66 velocity=0 time=8
note_on channel=5 note=71 velocity=68 time=120
note_on channel=5 note=67 velocity=59 time=0
note_off channel=0 note=71 velocity=0 time=4
MetaMessage('lyrics', text=' me', time=4)
note_on channel=0 note=72 velocity=107 time=0
note_on channel=2 note=45 velocity=86 time=0
note_on channel=4 note=59 velocity=68 time=0
note_on channel=4 note=55 velocity=59 time=0
note_off channel=5 note=71 velocity=0 time=16
note_off channel=5 note=67 velocity=0 time=0
note_off channel=4 note=59 velocity=0 time=4
note_off channel=4 note=55 velocity=0 time=0
note_off channel=5 note=74 velocity=0 time=8
note_off channel=4 note=62 velocity=0 time=8
note_off channel=0 note=72 velocity=0 time=32
note_on channel=5 note=67 velocity=95 time=20
note_on channel=5 note=71 velocity=93 time=0
note_on channel=4 note=55 velocity=95 time=8
note_on channel=4 note=59 velocity=93 time=0
note_off channel=5 note=71 velocity=0 time=44
note_off channel=4 note=59 velocity=0 time=8
note_off channel=5 note=67 velocity=0 time=0
note_off channel=4 note=55 velocity=0 time=4
MetaMessage('lyrics', text=' won', time=36)
note_on channel=0 note=71 velocity=121 time=0
note_on channel=2 note=33 velocity=105 time=0
note_off channel=2 note=38 velocity=0 time=4
note_on channel=5 note=69 velocity=89 time=0
note_on channel=2 note=60 velocity=89 time=0
note_on channel=5 note=64 velocity=86 time=0
note_on channel=2 note=57 velocity=81 time=0
note_on channel=5 note=79 velocity=99 time=0
note_on channel=2 note=67 velocity=93 time=0
note_on channel=5 note=72 velocity=95 time=0
note_on channel=2 note=64 velocity=92 time=4
note_on channel=4 note=57 velocity=89 time=0
note_on channel=4 note=52 velocity=86 time=0
note_on channel=4 note=67 velocity=99 time=0
note_on channel=4 note=60 velocity=95 time=0
note_off channel=5 note=62 velocity=0 time=80
note_off channel=4 note=50 velocity=0 time=8
note_on channel=6 note=60 velocity=61 time=8
note_off channel=5 note=79 velocity=0 time=4
note_off channel=4 note=67 velocity=0 time=8
note_off channel=5 note=72 velocity=0 time=8
note_off channel=4 note=60 velocity=0 time=8
note_off channel=5 note=64 velocity=0 time=4
note_off channel=5 note=69 velocity=0 time=0
note_off channel=6 note=60 velocity=0 time=4
note_off channel=4 note=57 velocity=0 time=4
note_off channel=4 note=52 velocity=0 time=0
note_off channel=2 note=64 velocity=0 time=28
note_off channel=2 note=67 velocity=0 time=12
note_on channel=5 note=79 velocity=55 time=8
MetaMessage('lyrics', text='der', time=4)
note_off channel=0 note=71 velocity=0 time=0
note_on channel=5 note=69 velocity=45 time=0
note_on channel=0 note=69 velocity=117 time=0
note_on channel=4 note=67 velocity=55 time=4
note_on channel=4 note=57 velocity=45 time=0
note_off channel=5 note=79 velocity=0 time=16
note_off channel=5 note=69 velocity=0 time=0
note_off channel=4 note=67 velocity=0 time=4
note_off channel=4 note=57 velocity=0 time=0
note_off channel=2 note=57 velocity=0 time=16
note_off channel=2 note=60 velocity=0 time=8
note_on channel=5 note=72 velocity=77 time=40
note_on channel=5 note=79 velocity=87 time=0
note_on channel=5 note=64 velocity=73 time=0
note_on channel=5 note=69 velocity=80 time=0
note_on channel=2 note=67 velocity=71 time=8
note_on channel=4 note=60 velocity=77 time=0
note_on channel=4 note=67 velocity=87 time=0
note_on channel=4 note=52 velocity=73 time=0
note_on channel=4 note=57 velocity=80 time=0
note_off channel=5 note=79 velocity=0 time=32
note_off channel=2 note=67 velocity=0 time=4
note_off channel=4 note=67 velocity=0 time=0
note_off channel=5 note=72 velocity=0 time=0
note_off channel=5 note=64 velocity=0 time=0
note_off channel=5 note=69 velocity=0 time=0
note_off channel=4 note=60 velocity=0 time=4
note_off channel=4 note=57 velocity=0 time=0
note_off channel=4 note=52 velocity=0 time=4
note_on channel=5 note=79 velocity=97 time=44
note_on channel=5 note=72 velocity=89 time=0
note_on channel=5 note=64 velocity=77 time=0
note_on channel=5 note=69 velocity=87 time=0
note_on channel=2 note=67 velocity=86 time=8
note_on channel=4 note=67 velocity=97 time=0
note_on channel=2 note=57 velocity=86 time=0
note_on channel=4 note=60 velocity=89 time=0
note_on channel=4 note=52 velocity=77 time=0
note_on channel=4 note=57 velocity=87 time=0
note_on channel=2 note=60 velocity=90 time=4
note_on channel=2 note=64 velocity=82 time=0
note_off channel=2 note=64 velocity=0 time=96
note_off channel=5 note=72 velocity=0 time=0
note_off channel=5 note=64 velocity=0 time=0
note_off channel=5 note=69 velocity=0 time=0
note_off channel=2 note=67 velocity=0 time=4
note_off channel=4 note=52 velocity=0 time=0
note_off channel=5 note=79 velocity=0 time=0
note_off channel=4 note=60 velocity=0 time=4
note_off channel=4 note=57 velocity=0 time=0
note_off channel=2 note=60 velocity=0 time=4
note_off channel=4 note=67 velocity=0 time=0
note_off channel=2 note=57 velocity=0 time=4
note_on channel=5 note=72 velocity=90 time=68
note_on channel=5 note=79 velocity=99 time=0
note_on channel=5 note=69 velocity=89 time=0
note_on channel=5 note=64 velocity=82 time=0
note_on channel=4 note=60 velocity=90 time=8
note_on channel=4 note=67 velocity=99 time=0
note_on channel=4 note=57 velocity=89 time=0
note_on channel=4 note=52 velocity=82 time=0
note_on channel=2 note=67 velocity=93 time=4
note_on channel=2 note=60 velocity=89 time=0
note_on channel=2 note=64 velocity=89 time=0
note_on channel=2 note=57 velocity=82 time=0
note_off channel=5 note=64 velocity=0 time=72
note_off channel=5 note=69 velocity=0 time=4
note_off channel=4 note=57 velocity=0 time=4
note_off channel=5 note=79 velocity=0 time=0
note_off channel=4 note=52 velocity=0 time=0
note_off channel=4 note=67 velocity=0 time=4
note_off channel=5 note=72 velocity=0 time=0
note_off channel=4 note=60 velocity=0 time=8
note_off channel=2 note=67 velocity=0 time=72
note_on channel=5 note=79 velocity=103 time=16
note_on channel=5 note=64 velocity=87 time=0
note_on channel=5 note=72 velocity=92 time=0
note_on channel=5 note=69 velocity=90 time=0
note_off channel=2 note=64 velocity=0 time=8
note_on channel=4 note=67 velocity=103 time=0
note_on channel=4 note=52 velocity=87 time=0
note_on channel=4 note=60 velocity=92 time=0
note_on channel=4 note=57 velocity=90 time=0
note_off channel=2 note=57 velocity=0 time=16
note_off channel=2 note=60 velocity=0 time=4
note_off channel=0 note=69 velocity=0 time=8
note_off channel=5 note=72 velocity=0 time=76
note_off channel=4 note=60 velocity=0 time=8
note_off channel=5 note=79 velocity=0 time=0
note_off channel=4 note=67 velocity=0 time=4
note_off channel=5 note=64 velocity=0 time=0
note_off channel=5 note=69 velocity=0 time=0
note_off channel=4 note=57 velocity=0 time=4
note_off channel=4 note=52 velocity=0 time=4
note_on channel=5 note=72 velocity=89 time=60
note_on channel=5 note=76 velocity=93 time=0
note_on channel=5 note=69 velocity=97 time=0
note_on channel=5 note=64 velocity=92 time=0
note_on channel=2 note=57 velocity=90 time=4
note_on channel=2 note=60 velocity=89 time=0
note_on channel=2 note=64 velocity=99 time=4
note_on channel=4 note=60 velocity=89 time=0
note_on channel=4 note=64 velocity=93 time=0
note_on channel=4 note=57 velocity=97 time=0
note_on channel=4 note=52 velocity=92 time=0
note_off channel=2 note=45 velocity=0 time=80
note_off channel=2 note=57 velocity=0 time=20
note_off channel=2 note=50 velocity=0 time=28
note_off channel=2 note=64 velocity=0 time=44
note_off channel=2 note=57 velocity=0 time=24
note_off channel=2 note=60 velocity=0 time=0
note_on channel=2 note=45 velocity=97 time=0
note_on channel=2 note=43 velocity=93 time=0
note_off channel=2 note=43 velocity=0 time=8
note_off channel=5 note=72 velocity=0 time=8
note_off channel=4 note=60 velocity=0 time=8
note_off channel=5 note=76 velocity=0 time=0
note_off channel=5 note=64 velocity=0 time=0
note_off channel=2 note=33 velocity=0 time=4
note_off channel=4 note=64 velocity=0 time=4
note_off channel=5 note=69 velocity=0 time=0
note_off channel=4 note=52 velocity=0 time=0
note_off channel=4 note=57 velocity=0 time=4
note_on channel=6 note=60 velocity=75 time=68
note_off channel=6 note=60 velocity=0 time=20
note_on channel=5 note=76 velocity=97 time=56
note_on channel=5 note=62 velocity=95 time=0
note_on channel=2 note=64 velocity=81 time=8
note_on channel=4 note=64 velocity=97 time=0
note_on channel=5 note=79 velocity=93 time=0
note_on channel=2 note=71 velocity=87 time=0
note_on channel=4 note=50 velocity=95 time=0
note_on channel=5 note=83 velocity=90 time=0
note_on channel=2 note=67 velocity=87 time=0
note_on channel=4 note=67 velocity=93 time=4
note_on channel=4 note=71 velocity=90 time=0
note_off channel=2 note=45 velocity=0 time=176
note_on channel=2 note=50 velocity=101 time=12
note_off channel=2 note=67 velocity=0 time=20
note_off channel=5 note=76 velocity=0 time=0
note_off channel=5 note=79 velocity=0 time=0
note_off channel=5 note=83 velocity=0 time=0
note_off channel=2 note=71 velocity=0 time=4
note_off channel=4 note=71 velocity=0 time=0
note_off channel=4 note=64 velocity=0 time=4
note_off channel=4 note=67 velocity=0 time=0
note_off channel=2 note=64 velocity=0 time=8
note_on channel=6 note=60 velocity=61 time=40
note_off channel=6 note=60 velocity=0 time=28
note_on channel=5 note=74 velocity=97 time=80
note_on channel=5 note=78 velocity=111 time=0
note_on channel=5 note=81 velocity=93 time=0
note_on channel=2 note=66 velocity=109 time=4
note_on channel=2 note=62 velocity=90 time=0
note_on channel=2 note=69 velocity=90 time=4
note_on channel=4 note=62 velocity=97 time=0
note_on channel=4 note=66 velocity=111 time=0
note_on channel=4 note=69 velocity=93 time=0
note_off channel=5 note=81 velocity=0 time=228
note_off channel=4 note=69 velocity=0 time=4
note_off channel=5 note=78 velocity=0 time=4
note_off channel=2 note=69 velocity=0 time=4
note_off channel=2 note=66 velocity=0 time=4
note_off channel=4 note=66 velocity=0 time=0
note_off channel=5 note=74 velocity=0 time=0
note_off channel=2 note=62 velocity=0 time=0
note_off channel=4 note=62 velocity=0 time=4
note_on channel=6 note=60 velocity=63 time=36
note_off channel=6 note=60 velocity=0 time=24
note_off channel=2 note=50 velocity=0 time=64
note_on channel=5 note=76 velocity=95 time=4
note_on channel=5 note=76 velocity=93 time=0
note_on channel=5 note=79 velocity=93 time=0
note_on channel=2 note=45 velocity=95 time=4
note_on channel=2 note=60 velocity=90 time=4
note_on channel=4 note=64 velocity=95 time=0
note_on channel=2 note=67 velocity=93 time=0
note_on channel=4 note=64 velocity=93 time=0
note_on channel=2 note=64 velocity=93 time=0
note_on channel=4 note=67 velocity=93 time=0
note_on channel=2 note=38 velocity=101 time=92
note_off channel=2 note=45 velocity=0 time=12
note_off channel=2 note=60 velocity=0 time=124
note_off channel=2 note=64 velocity=0 time=0
note_off channel=2 note=67 velocity=0 time=4
note_off channel=5 note=79 velocity=0 time=16
note_off channel=5 note=76 velocity=0 time=4
note_off channel=4 note=67 velocity=0 time=4
note_off channel=5 note=76 velocity=0 time=0
note_off channel=4 note=64 velocity=0 time=4
note_off channel=4 note=64 velocity=0 time=0
note_on channel=6 note=60 velocity=66 time=32
note_off channel=6 note=60 velocity=0 time=28
note_on channel=5 note=74 velocity=90 time=56
note_on channel=5 note=78 velocity=95 time=0
note_on channel=5 note=81 velocity=76 time=0
note_on channel=2 note=69 velocity=93 time=4
note_on channel=2 note=62 velocity=93 time=0
note_on channel=2 note=66 velocity=111 time=4
note_on channel=4 note=62 velocity=90 time=0
note_on channel=4 note=66 velocity=95 time=0
note_on channel=4 note=69 velocity=76 time=0
note_off channel=5 note=62 velocity=0 time=356
note_off channel=4 note=50 velocity=0 time=4
note_on channel=5 note=57 velocity=90 time=20
note_on channel=2 note=45 velocity=107 time=4
note_on channel=5 note=62 velocity=82 time=0
note_on channel=4 note=45 velocity=90 time=4
note_on channel=4 note=50 velocity=82 time=0
note_off channel=2 note=38 velocity=0 time=20
note_off channel=2 note=69 velocity=0 time=20
note_off channel=2 note=62 velocity=0 time=0
note_off channel=2 note=66 velocity=0 time=0
note_off channel=5 note=81 velocity=0 time=72
note_off channel=4 note=69 velocity=0 time=8
note_off channel=5 note=78 velocity=0 time=0
note_off channel=5 note=74 velocity=0 time=4
note_off channel=4 note=62 velocity=0 time=4
note_off channel=5 note=57 velocity=0 time=0
note_off channel=4 note=66 velocity=0 time=0
note_off channel=4 note=45 velocity=0 time=4
note_off channel=5 note=62 velocity=0 time=4
note_off channel=4 note=50 velocity=0 time=8
MetaMessage('lyrics', text='\r', time=0)
MetaMessage('lyrics', text='Ooh', time=44)
note_on channel=0 note=72 velocity=121 time=0
note_on channel=5 note=64 velocity=82 time=0
note_on channel=5 note=69 velocity=89 time=0
note_on channel=5 note=79 velocity=97 time=0
note_on channel=5 note=72 velocity=93 time=0
note_on channel=2 note=33 velocity=103 time=4
note_on channel=4 note=52 velocity=82 time=0
note_on channel=2 note=57 velocity=82 time=0
note_on channel=4 note=57 velocity=89 time=0
note_on channel=2 note=60 velocity=85 time=0
note_on channel=4 note=67 velocity=97 time=0
note_on channel=2 note=67 velocity=92 time=0
note_on channel=4 note=60 velocity=93 time=0
note_on channel=2 note=64 velocity=93 time=0
note_off channel=2 note=45 velocity=0 time=12
note_on channel=6 note=60 velocity=72 time=72
note_off channel=6 note=60 velocity=0 time=36
note_off channel=5 note=72 velocity=0 time=8
note_off channel=4 note=60 velocity=0 time=4
note_off channel=5 note=64 velocity=0 time=0
note_off channel=4 note=52 velocity=0 time=8
note_off channel=5 note=69 velocity=0 time=0
note_off channel=5 note=79 velocity=0 time=0
note_off channel=4 note=57 velocity=0 time=4
note_off channel=4 note=67 velocity=0 time=0
note_off channel=2 note=64 velocity=0 time=28
note_on channel=5 note=69 velocity=46 time=16
note_on channel=5 note=79 velocity=63 time=0
note_off channel=2 note=67 velocity=0 time=4
note_on channel=4 note=57 velocity=46 time=0
note_on channel=4 note=67 velocity=63 time=0
note_off channel=5 note=69 velocity=0 time=16
note_off channel=5 note=79 velocity=0 time=0
note_off channel=4 note=57 velocity=0 time=4
note_off channel=4 note=67 velocity=0 time=4
note_off channel=2 note=57 velocity=0 time=8
note_off channel=2 note=60 velocity=0 time=0
note_on channel=5 note=69 velocity=62 time=52
note_on channel=2 note=67 velocity=67 time=4
note_on channel=4 note=57 velocity=62 time=4
note_on channel=5 note=79 velocity=72 time=0
note_on channel=5 note=72 velocity=45 time=0
note_on channel=4 note=67 velocity=72 time=4
note_on channel=4 note=60 velocity=45 time=0
note_off channel=5 note=72 velocity=0 time=12
note_off channel=4 note=60 velocity=0 time=4
note_off channel=5 note=79 velocity=0 time=0
note_off channel=2 note=67 velocity=0 time=4
note_off channel=4 note=67 velocity=0 time=0
note_off channel=5 note=69 velocity=0 time=0
note_off channel=4 note=57 velocity=0 time=8
note_on channel=5 note=64 velocity=90 time=56
note_on channel=5 note=69 velocity=97 time=4
note_on channel=2 note=60 velocity=90 time=4
note_on channel=4 note=52 velocity=90 time=0
note_on channel=5 note=72 velocity=97 time=0
note_on channel=2 note=57 velocity=90 time=0
note_on channel=5 note=79 velocity=101 time=0
note_on channel=2 note=67 velocity=95 time=0
note_on channel=2 note=64 velocity=89 time=0
note_on channel=4 note=57 velocity=97 time=4
note_on channel=4 note=60 velocity=97 time=0
note_on channel=4 note=67 velocity=101 time=0
note_on channel=6 note=60 velocity=72 time=92
note_off channel=2 note=67 velocity=0 time=4
note_off channel=2 note=64 velocity=0 time=8
note_off channel=2 note=60 velocity=0 time=20
note_off channel=2 note=57 velocity=0 time=0
note_off channel=5 note=64 velocity=0 time=4
note_off channel=5 note=69 velocity=0 time=0
note_off channel=5 note=72 velocity=0 time=0
note_off channel=6 note=60 velocity=0 time=4
note_off channel=4 note=52 velocity=0 time=4
note_off channel=5 note=79 velocity=0 time=0
note_off channel=4 note=57 velocity=0 time=0
note_off channel=4 note=60 velocity=0 time=0
note_off channel=4 note=67 velocity=0 time=8
note_on channel=5 note=64 velocity=87 time=44
note_on channel=5 note=72 velocity=95 time=0
note_on channel=5 note=79 velocity=105 time=0
note_on channel=5 note=69 velocity=92 time=0
note_on channel=2 note=67 velocity=95 time=4
note_on channel=4 note=52 velocity=87 time=0
note_on channel=2 note=60 velocity=90 time=0
note_on channel=4 note=60 velocity=95 time=0
note_on channel=2 note=64 velocity=93 time=0
note_on channel=4 note=67 velocity=105 time=0
note_on channel=2 note=57 velocity=90 time=0
note_on channel=4 note=57 velocity=92 time=0
note_off channel=2 note=33 velocity=0 time=100
note_on channel=2 note=33 velocity=111 time=88
note_off channel=5 note=69 velocity=0 time=28
note_off channel=2 note=57 velocity=0 time=4
note_off channel=2 note=67 velocity=0 time=4
note_off channel=4 note=57 velocity=0 time=0
note_off channel=5 note=72 velocity=0 time=0
note_off channel=2 note=64 velocity=0 time=0
note_off channel=5 note=64 velocity=0 time=4
note_off channel=4 note=60 velocity=0 time=4
note_off channel=5 note=79 velocity=0 time=0
note_off channel=4 note=52 velocity=0 time=4
note_off channel=2 note=60 velocity=0 time=4
note_off channel=4 note=67 velocity=0 time=0
note_on channel=5 note=64 velocity=85 time=132
note_on channel=5 note=72 velocity=93 time=0
note_on channel=5 note=69 velocity=89 time=0
note_on channel=2 note=60 velocity=90 time=4
note_on channel=5 note=76 velocity=93 time=0
note_on channel=2 note=57 velocity=86 time=0
note_on channel=2 note=64 velocity=101 time=0
note_on channel=4 note=52 velocity=85 time=4
note_on channel=4 note=60 velocity=93 time=0
note_on channel=4 note=57 velocity=89 time=0
note_on channel=4 note=64 velocity=93 time=4
note_off channel=2 note=64 velocity=0 time=224
note_off channel=2 note=60 velocity=0 time=12
note_off channel=5 note=72 velocity=0 time=0
note_off channel=5 note=76 velocity=0 time=0
note_off channel=2 note=57 velocity=0 time=4
note_off channel=4 note=60 velocity=0 time=0
note_off channel=4 note=64 velocity=0 time=0
note_off channel=5 note=69 velocity=0 time=4
note_off channel=5 note=64 velocity=0 time=4
note_off channel=4 note=57 velocity=0 time=4
note_off channel=4 note=52 velocity=0 time=4
note_on channel=5 note=69 velocity=97 time=116
note_on channel=2 note=57 velocity=92 time=4
note_on channel=5 note=74 velocity=102 time=0
note_on channel=5 note=76 velocity=99 time=0
note_on channel=2 note=67 velocity=101 time=4
note_on channel=4 note=57 velocity=97 time=0
note_on channel=2 note=62 velocity=95 time=0
note_on channel=2 note=38 velocity=107 time=4
note_on channel=4 note=62 velocity=102 time=0
note_on channel=4 note=64 velocity=99 time=0
note_off channel=2 note=33 velocity=0 time=16
note_off channel=2 note=67 velocity=0 time=216
note_off channel=2 note=57 velocity=0 time=8
note_off channel=2 note=62 velocity=0 time=0
note_off channel=5 note=74 velocity=0 time=16
note_off channel=5 note=76 velocity=0 time=0
note_off channel=4 note=64 velocity=0 time=4
note_off channel=4 note=62 velocity=0 time=4
note_off channel=5 note=69 velocity=0 time=12
note_off channel=4 note=57 velocity=0 time=8
note_off channel=0 note=72 velocity=0 time=68
note_on channel=5 note=74 velocity=87 time=20
note_on channel=5 note=78 velocity=111 time=0
note_on channel=2 note=57 velocity=87 time=8
note_on channel=4 note=62 velocity=87 time=0
note_on channel=5 note=69 velocity=90 time=0
note_on channel=2 note=62 velocity=90 time=0
note_on channel=4 note=66 velocity=111 time=0
note_on channel=2 note=66 velocity=119 time=0
note_on channel=2 note=57 velocity=86 time=4
note_on channel=4 note=57 velocity=90 time=0
MetaMessage('lyrics', text=' ma', time=192)
note_on channel=0 note=71 velocity=115 time=0
note_on channel=2 note=50 velocity=74 time=0
note_off channel=2 note=50 velocity=0 time=132
note_off channel=0 note=71 velocity=0 time=44
note_on channel=5 note=62 velocity=89 time=4
MetaMessage('lyrics', text='kes', time=4)
note_on channel=0 note=72 velocity=103 time=0
note_on channel=4 note=50 velocity=89 time=4
note_on channel=2 note=50 velocity=81 time=4
MetaMessage('lyrics', text=' me', time=92)
note_on channel=0 note=71 velocity=111 time=0
note_off channel=0 note=72 velocity=0 time=20
note_off channel=5 note=74 velocity=0 time=44
note_off channel=4 note=62 velocity=0 time=4
note_off channel=5 note=78 velocity=0 time=20
note_off channel=5 note=69 velocity=0 time=0
note_on channel=5 note=74 velocity=93 time=0
note_off channel=4 note=66 velocity=0 time=8
note_off channel=4 note=57 velocity=0 time=0
note_on channel=4 note=62 velocity=93 time=0
note_off channel=0 note=71 velocity=0 time=76
MetaMessage('lyrics', text=' won', time=20)
note_on channel=0 note=69 velocity=111 time=0
note_off channel=5 note=74 velocity=0 time=60
note_off channel=4 note=62 velocity=0 time=8
note_off channel=2 note=57 velocity=0 time=8
note_off channel=0 note=69 velocity=0 time=12
note_on channel=5 note=74 velocity=97 time=0
note_on channel=2 note=55 velocity=85 time=8
note_on channel=4 note=62 velocity=97 time=0
note_on channel=5 note=78 velocity=82 time=88
MetaMessage('lyrics', text='der', time=4)
note_on channel=0 note=69 velocity=117 time=0
note_on channel=2 note=57 velocity=89 time=4
note_on channel=4 note=66 velocity=82 time=0
note_off channel=5 note=74 velocity=0 time=4
note_off channel=4 note=62 velocity=0 time=8
note_off channel=2 note=55 velocity=0 time=36
note_on channel=5 note=74 velocity=99 time=40
note_on channel=4 note=62 velocity=99 time=8
note_off channel=5 note=78 velocity=0 time=16
note_off channel=4 note=66 velocity=0 time=4
note_off channel=2 note=66 velocity=0 time=4
note_off channel=2 note=62 velocity=0 time=8
note_off channel=2 note=57 velocity=0 time=0
note_off channel=5 note=74 velocity=0 time=144
note_off channel=4 note=62 velocity=0 time=4
note_on channel=5 note=71 velocity=68 time=4
note_on channel=5 note=67 velocity=59 time=0
note_on channel=4 note=59 velocity=68 time=8
note_on channel=4 note=55 velocity=59 time=0
note_off channel=5 note=71 velocity=0 time=16
note_off channel=5 note=67 velocity=0 time=0
note_off channel=4 note=59 velocity=0 time=4
note_off channel=4 note=55 velocity=0 time=0
note_off channel=2 note=38 velocity=0 time=32
note_on channel=5 note=67 velocity=95 time=36
note_on channel=5 note=71 velocity=93 time=0
note_on channel=4 note=55 velocity=95 time=8
note_on channel=4 note=59 velocity=93 time=0
note_off channel=0 note=69 velocity=0 time=20
note_off channel=5 note=71 velocity=0 time=24
note_off channel=4 note=59 velocity=0 time=8
note_off channel=5 note=67 velocity=0 time=0
note_off channel=4 note=55 velocity=0 time=4
note_on channel=2 note=33 velocity=101 time=36
note_on channel=0 note=69 velocity=113 time=4
note_on channel=2 note=60 velocity=89 time=0
note_on channel=5 note=69 velocity=89 time=0
note_on channel=2 note=57 velocity=81 time=0
note_on channel=5 note=64 velocity=86 time=0
note_on channel=2 note=67 velocity=93 time=0
note_on channel=5 note=79 velocity=99 time=0
note_on channel=5 note=72 velocity=95 time=0
note_on channel=2 note=64 velocity=92 time=4
note_on channel=4 note=57 velocity=89 time=0
note_on channel=4 note=52 velocity=86 time=0
note_on channel=4 note=67 velocity=99 time=0
note_on channel=4 note=60 velocity=95 time=0
note_off channel=5 note=62 velocity=0 time=80
note_off channel=4 note=50 velocity=0 time=8
note_on channel=6 note=60 velocity=61 time=8
note_off channel=5 note=79 velocity=0 time=4
note_off channel=4 note=67 velocity=0 time=8
note_off channel=5 note=72 velocity=0 time=8
note_off channel=4 note=60 velocity=0 time=8
note_off channel=5 note=64 velocity=0 time=4
note_off channel=5 note=69 velocity=0 time=0
note_off channel=6 note=60 velocity=0 time=4
note_off channel=4 note=57 velocity=0 time=4
note_off channel=4 note=52 velocity=0 time=0
note_off channel=2 note=50 velocity=0 time=12
note_off channel=2 note=64 velocity=0 time=16
note_off channel=2 note=33 velocity=0 time=8
note_off channel=2 note=67 velocity=0 time=4
note_on channel=5 note=79 velocity=55 time=8
note_on channel=2 note=33 velocity=99 time=4
note_on channel=5 note=69 velocity=45 time=0
note_on channel=4 note=67 velocity=55 time=4
note_on channel=4 note=57 velocity=45 time=0
note_off channel=5 note=79 velocity=0 time=16
note_off channel=5 note=69 velocity=0 time=0
note_off channel=4 note=67 velocity=0 time=4
note_off channel=4 note=57 velocity=0 time=0
note_off channel=2 note=57 velocity=0 time=16
note_off channel=0 note=69 velocity=0 time=4
note_off channel=2 note=60 velocity=0 time=4
note_on channel=5 note=72 velocity=77 time=40
note_on channel=5 note=79 velocity=87 time=0
note_on channel=5 note=64 velocity=73 time=0
note_on channel=5 note=69 velocity=80 time=0
note_on channel=0 note=67 velocity=83 time=4
note_on channel=2 note=67 velocity=71 time=4
note_on channel=4 note=60 velocity=77 time=0
note_on channel=4 note=67 velocity=87 time=0
note_on channel=4 note=52 velocity=73 time=0
note_on channel=4 note=57 velocity=80 time=0
note_off channel=0 note=67 velocity=0 time=28
note_off channel=2 note=33 velocity=0 time=4
note_off channel=5 note=79 velocity=0 time=0
note_off channel=2 note=67 velocity=0 time=4
note_off channel=4 note=67 velocity=0 time=0
note_off channel=5 note=72 velocity=0 time=0
note_off channel=5 note=64 velocity=0 time=0
note_off channel=5 note=69 velocity=0 time=0
note_off channel=4 note=60 velocity=0 time=4
note_off channel=4 note=57 velocity=0 time=0
note_off channel=4 note=52 velocity=0 time=4
note_on channel=5 note=79 velocity=97 time=44
note_on channel=5 note=72 velocity=89 time=0
note_on channel=5 note=64 velocity=77 time=0
note_on channel=5 note=69 velocity=87 time=0
note_on channel=0 note=69 velocity=115 time=8
note_on channel=2 note=67 velocity=86 time=0
note_on channel=4 note=67 velocity=97 time=0
note_on channel=2 note=57 velocity=86 time=0
note_on channel=4 note=60 velocity=89 time=0
note_on channel=4 note=52 velocity=77 time=0
note_on channel=4 note=57 velocity=87 time=0
note_on channel=2 note=60 velocity=90 time=4
note_on channel=2 note=64 velocity=82 time=0
note_off channel=2 note=57 velocity=0 time=4
note_off channel=2 note=64 velocity=0 time=92
note_off channel=5 note=72 velocity=0 time=0
note_off channel=5 note=64 velocity=0 time=0
note_off channel=5 note=69 velocity=0 time=0
note_off channel=2 note=67 velocity=0 time=4
note_off channel=4 note=52 velocity=0 time=0
note_off channel=5 note=79 velocity=0 time=0
note_off channel=4 note=60 velocity=0 time=4
note_off channel=4 note=57 velocity=0 time=0
note_off channel=2 note=60 velocity=0 time=4
note_off channel=4 note=67 velocity=0 time=0
note_off channel=2 note=57 velocity=0 time=4
note_on channel=5 note=72 velocity=90 time=68
note_on channel=5 note=76 velocity=99 time=0
note_on channel=5 note=69 velocity=89 time=0
note_on channel=5 note=64 velocity=82 time=0
note_off channel=0 note=69 velocity=0 time=4
note_on channel=2 note=33 velocity=99 time=0
note_on channel=0 note=67 velocity=97 time=0
note_on channel=4 note=60 velocity=90 time=4
note_on channel=4 note=64 velocity=99 time=0
note_on channel=4 note=57 velocity=89 time=0
note_on channel=4 note=52 velocity=82 time=0
note_on channel=2 note=67 velocity=93 time=4
note_on channel=2 note=60 velocity=89 time=0
note_on channel=2 note=64 velocity=89 time=0
note_on channel=2 note=57 velocity=82 time=0
note_off channel=0 note=67 velocity=0 time=64
note_off channel=5 note=64 velocity=0 time=8
note_off channel=5 note=69 velocity=0 time=4
note_off channel=4 note=57 velocity=0 time=4
note_off channel=5 note=76 velocity=0 time=0
note_off channel=4 note=52 velocity=0 time=0
note_off channel=4 note=64 velocity=0 time=4
note_off channel=5 note=72 velocity=0 time=0
note_on channel=0 note=69 velocity=109 time=8
note_off channel=4 note=60 velocity=0 time=0
note_off channel=2 note=33 velocity=0 time=28
note_off channel=2 note=67 velocity=0 time=44
note_on channel=2 note=33 velocity=105 time=20
note_off channel=2 note=64 velocity=0 time=4
note_off channel=2 note=57 velocity=0 time=16
note_off channel=2 note=60 velocity=0 time=4
note_off channel=0 note=69 velocity=0 time=64
note_on channel=0 note=67 velocity=105 time=12
note_off channel=0 note=67 velocity=0 time=36
note_on channel=5 note=72 velocity=89 time=52
note_on channel=5 note=76 velocity=93 time=0
note_on channel=5 note=69 velocity=97 time=0
note_on channel=5 note=64 velocity=92 time=0
note_on channel=2 note=57 velocity=90 time=4
note_on channel=2 note=60 velocity=89 time=0
note_on channel=0 note=69 velocity=121 time=4
note_on channel=2 note=64 velocity=99 time=0
note_on channel=4 note=60 velocity=89 time=0
note_on channel=4 note=64 velocity=93 time=0
note_on channel=4 note=57 velocity=97 time=0
note_on channel=4 note=52 velocity=92 time=0
note_off channel=2 note=33 velocity=0 time=76
note_off channel=2 note=64 velocity=0 time=96
note_on channel=2 note=33 velocity=103 time=20
note_off channel=2 note=57 velocity=0 time=4
note_off channel=2 note=60 velocity=0 time=0
note_off channel=5 note=72 velocity=0 time=16
note_off channel=4 note=60 velocity=0 time=8
note_off channel=5 note=76 velocity=0 time=0
note_off channel=5 note=64 velocity=0 time=0
note_off channel=4 note=64 velocity=0 time=8
note_off channel=5 note=69 velocity=0 time=0
note_off channel=4 note=52 velocity=0 time=0
note_off channel=4 note=57 velocity=0 time=4
note_on channel=6 note=60 velocity=75 time=68
note_off channel=6 note=60 velocity=0 time=20
note_on channel=5 note=76 velocity=97 time=56
note_on channel=5 note=62 velocity=95 time=0
note_on channel=2 note=64 velocity=81 time=8
note_on channel=4 note=64 velocity=97 time=0
note_on channel=5 note=79 velocity=93 time=0
note_on channel=2 note=71 velocity=87 time=0
note_on channel=4 note=50 velocity=95 time=0
note_on channel=5 note=83 velocity=90 time=0
note_on channel=2 note=67 velocity=87 time=0
note_on channel=4 note=67 velocity=93 time=4
note_on channel=4 note=71 velocity=90 time=0
note_on channel=2 note=45 velocity=107 time=92
note_off channel=2 note=33 velocity=0 time=12
note_off channel=0 note=69 velocity=0 time=44
note_off channel=2 note=45 velocity=0 time=20
note_on channel=2 note=50 velocity=103 time=16
note_off channel=2 note=67 velocity=0 time=24
note_off channel=5 note=76 velocity=0 time=0
note_off channel=5 note=79 velocity=0 time=0
note_off channel=5 note=83 velocity=0 time=0
note_off channel=2 note=71 velocity=0 time=4
note_off channel=4 note=71 velocity=0 time=0
note_off channel=4 note=64 velocity=0 time=4
note_off channel=4 note=67 velocity=0 time=0
note_off channel=2 note=64 velocity=0 time=8
note_on channel=6 note=60 velocity=61 time=40
note_off channel=6 note=60 velocity=0 time=28
note_on channel=5 note=74 velocity=97 time=80
note_on channel=5 note=78 velocity=111 time=0
note_on channel=5 note=81 velocity=93 time=0
note_on channel=2 note=66 velocity=109 time=4
note_on channel=2 note=62 velocity=90 time=0
note_on channel=2 note=69 velocity=90 time=4
note_on channel=4 note=62 velocity=97 time=0
note_on channel=4 note=66 velocity=111 time=0
note_on channel=4 note=69 velocity=93 time=0
note_off channel=5 note=81 velocity=0 time=228
note_off channel=4 note=69 velocity=0 time=4
note_off channel=5 note=78 velocity=0 time=4
note_off channel=2 note=69 velocity=0 time=4
note_off channel=2 note=66 velocity=0 time=4
note_off channel=4 note=66 velocity=0 time=0
note_off channel=5 note=74 velocity=0 time=0
note_off channel=2 note=62 velocity=0 time=0
note_off channel=4 note=62 velocity=0 time=4
note_on channel=6 note=60 velocity=63 time=36
note_off channel=6 note=60 velocity=0 time=24
note_on channel=5 note=76 velocity=95 time=68
note_on channel=5 note=76 velocity=93 time=0
note_on channel=5 note=79 velocity=93 time=0
note_on channel=2 note=60 velocity=90 time=8
note_on channel=4 note=64 velocity=95 time=0
note_on channel=2 note=67 velocity=93 time=0
note_on channel=4 note=64 velocity=93 time=0
note_on channel=2 note=64 velocity=93 time=0
note_on channel=4 note=67 velocity=93 time=0
note_off channel=2 note=50 velocity=0 time=44
note_on channel=2 note=45 velocity=95 time=52
note_on channel=2 note=38 velocity=97 time=96
note_off channel=2 note=45 velocity=0 time=4
note_off channel=2 note=60 velocity=0 time=32
note_off channel=2 note=64 velocity=0 time=0
note_off channel=2 note=67 velocity=0 time=4
note_off channel=5 note=79 velocity=0 time=16
note_off channel=5 note=76 velocity=0 time=4
note_off channel=4 note=67 velocity=0 time=4
note_off channel=5 note=76 velocity=0 time=0
note_off channel=4 note=64 velocity=0 time=4
note_off channel=4 note=64 velocity=0 time=0
note_on channel=6 note=60 velocity=66 time=32
note_off channel=6 note=60 velocity=0 time=28
note_on channel=5 note=74 velocity=90 time=56
note_on channel=5 note=78 velocity=95 time=0
note_on channel=5 note=81 velocity=76 time=0
note_on channel=2 note=69 velocity=93 time=4
note_on channel=2 note=62 velocity=93 time=0
note_on channel=2 note=66 velocity=111 time=4
note_on channel=4 note=62 velocity=90 time=0
note_on channel=4 note=66 velocity=95 time=0
note_on channel=4 note=69 velocity=76 time=0
MetaMessage('lyrics', text='\r', time=0)
MetaMessage('lyrics', text='And', time=188)
control_change channel=0 control=11 value=100 time=0
note_on channel=0 note=69 velocity=113 time=0
note_off channel=5 note=62 velocity=0 time=168
note_off channel=4 note=50 velocity=0 time=4
MetaMessage('lyrics', text=" it's", time=20)
note_on channel=0 note=71 velocity=113 time=0
note_on channel=5 note=57 velocity=90 time=0
note_off channel=0 note=69 velocity=0 time=8
note_on channel=4 note=45 velocity=90 time=0
note_off channel=2 note=69 velocity=0 time=40
note_off channel=2 note=62 velocity=0 time=0
note_off channel=2 note=66 velocity=0 time=0
note_off channel=5 note=81 velocity=0 time=72
note_off channel=4 note=69 velocity=0 time=8
note_off channel=5 note=78 velocity=0 time=0
note_off channel=5 note=74 velocity=0 time=4
note_off channel=4 note=62 velocity=0 time=4
note_off channel=5 note=57 velocity=0 time=0
note_off channel=4 note=66 velocity=0 time=0
note_off channel=2 note=38 velocity=0 time=4
note_off channel=4 note=45 velocity=0 time=0
MetaMessage('lyrics', text=' whisp', time=56)
note_on channel=0 note=72 velocity=109 time=0
note_on channel=5 note=60 velocity=93 time=0
note_on channel=2 note=64 velocity=89 time=4
note_on channel=4 note=48 velocity=93 time=0
note_on channel=2 note=60 velocity=89 time=0
note_on channel=2 note=67 velocity=82 time=0
note_off channel=0 note=71 velocity=0 time=8
note_on channel=2 note=48 velocity=93 time=16
note_on channel=6 note=60 velocity=72 time=60
note_off channel=6 note=60 velocity=0 time=36
note_on channel=5 note=64 velocity=89 time=60
note_on channel=4 note=52 velocity=89 time=8
note_on channel=5 note=67 velocity=82 time=184
note_on channel=4 note=55 velocity=82 time=8
MetaMessage('lyrics', text='ered', time=4)
note_on channel=0 note=71 velocity=105 time=0
note_off channel=0 note=72 velocity=0 time=28
note_off channel=0 note=71 velocity=0 time=64
note_on channel=6 note=60 velocity=72 time=0
MetaMessage('lyrics', text=' that', time=4)
note_on channel=0 note=69 velocity=107 time=0
note_off channel=6 note=60 velocity=0 time=36
note_off channel=0 note=69 velocity=0 time=8
note_on channel=5 note=72 velocity=87 time=36
note_on channel=4 note=60 velocity=87 time=8
note_off channel=2 note=64 velocity=0 time=76
note_off channel=2 note=67 velocity=0 time=8
note_off channel=2 note=60 velocity=0 time=4
MetaMessage('lyrics', text=' soon', time=12)
note_on channel=0 note=71 velocity=113 time=0
note_off channel=5 note=60 velocity=0 time=72
note_off channel=4 note=48 velocity=0 time=8
note_on channel=2 note=47 velocity=95 time=4
note_on channel=5 note=59 velocity=93 time=0
note_on channel=4 note=47 velocity=93 time=8
note_off channel=2 note=48 velocity=0 time=4
note_on channel=2 note=59 velocity=80 time=0
note_on channel=2 note=62 velocity=86 time=0
note_on channel=2 note=67 velocity=89 time=0
note_off channel=5 note=64 velocity=0 time=84
note_off channel=4 note=52 velocity=0 time=4
note_on channel=5 note=62 velocity=76 time=96
note_on channel=4 note=50 velocity=76 time=8
note_off channel=5 note=67 velocity=0 time=8
note_off channel=4 note=55 velocity=0 time=8
note_on channel=5 note=67 velocity=92 time=164
note_on channel=4 note=55 velocity=92 time=8
note_off channel=0 note=71 velocity=0 time=56
MetaMessage('lyrics', text=' if', time=44)
note_on channel=0 note=69 velocity=83 time=0
note_off channel=0 note=69 velocity=0 time=64
note_off channel=5 note=72 velocity=0 time=20
note_on channel=5 note=74 velocity=77 time=0
note_off channel=4 note=60 velocity=0 time=8
note_on channel=4 note=62 velocity=77 time=0
MetaMessage('lyrics', text=' we', time=4)
note_on channel=0 note=71 velocity=119 time=0
note_off channel=5 note=74 velocity=0 time=100
note_off channel=0 note=71 velocity=0 time=4
note_off channel=2 note=67 velocity=0 time=4
note_off channel=4 note=62 velocity=0 time=0
note_off channel=2 note=62 velocity=0 time=4
note_off channel=2 note=59 velocity=0 time=4
note_off channel=5 note=62 velocity=0 time=40
note_off channel=5 note=67 velocity=0 time=0
note_off channel=4 note=50 velocity=0 time=8
note_on channel=5 note=71 velocity=82 time=0
note_off channel=4 note=55 velocity=0 time=0
note_on channel=4 note=59 velocity=82 time=8
note_on channel=2 note=45 velocity=105 time=8
note_on channel=5 note=72 velocity=95 time=0
note_off channel=5 note=71 velocity=0 time=4
note_off channel=2 note=47 velocity=0 time=4
note_on channel=4 note=60 velocity=95 time=0
note_off channel=4 note=59 velocity=0 time=4
MetaMessage('lyrics', text=' all', time=4)
note_on channel=0 note=72 velocity=117 time=0
note_on channel=2 note=64 velocity=93 time=0
note_on channel=2 note=60 velocity=92 time=0
note_off channel=5 note=59 velocity=0 time=16
note_off channel=4 note=47 velocity=0 time=8
note_on channel=5 note=69 velocity=92 time=152
note_on channel=4 note=57 velocity=92 time=8
note_off channel=5 note=72 velocity=0 time=8
note_off channel=4 note=60 velocity=0 time=4
note_off channel=0 note=72 velocity=0 time=112
note_on channel=5 note=57 velocity=99 time=64
MetaMessage('lyrics', text='\r', time=0)
MetaMessage('lyrics', text='call', time=8)
note_on channel=0 note=74 velocity=111 time=0
note_on channel=4 note=45 velocity=99 time=0
note_off channel=0 note=74 velocity=0 time=116
note_on channel=5 note=64 velocity=71 time=64
MetaMessage('lyrics', text=' the', time=8)
note_on channel=0 note=72 velocity=111 time=0
note_on channel=4 note=52 velocity=71 time=0
note_off channel=0 note=72 velocity=0 time=72
MetaMessage('lyrics', text=' tu', time=24)
note_on channel=0 note=71 velocity=109 time=0
note_off channel=5 note=69 velocity=0 time=20
note_off channel=4 note=57 velocity=0 time=4
note_off channel=0 note=71 velocity=0 time=64
note_on channel=5 note=69 velocity=89 time=0
MetaMessage('lyrics', text='ne', time=8)
note_on channel=0 note=69 velocity=105 time=0
note_on channel=4 note=57 velocity=89 time=0
note_on channel=5 note=72 velocity=86 time=184
note_on channel=4 note=60 velocity=86 time=8
note_off channel=0 note=69 velocity=0 time=40
note_off channel=2 note=45 velocity=0 time=56
note_off channel=5 note=57 velocity=0 time=0
note_off channel=4 note=45 velocity=0 time=8
note_on channel=5 note=57 velocity=90 time=84
MetaMessage('lyrics', text='\r', time=0)
MetaMessage('lyrics', text='Then', time=8)
note_on channel=0 note=72 velocity=111 time=0
note_on channel=4 note=45 velocity=90 time=0
note_off channel=2 note=64 velocity=0 time=92
note_on channel=2 note=47 velocity=101 time=88
note_on channel=5 note=59 velocity=97 time=4
MetaMessage('lyrics', text=' the', time=8)
note_on channel=0 note=74 velocity=117 time=0
note_on channel=4 note=47 velocity=97 time=0
note_on channel=2 note=67 velocity=101 time=4
note_off channel=5 note=57 velocity=0 time=0
note_off channel=0 note=72 velocity=0 time=8
note_off channel=4 note=45 velocity=0 time=0
note_off channel=2 note=67 velocity=0 time=72
note_off channel=2 note=60 velocity=0 time=4
note_off channel=5 note=64 velocity=0 time=84
note_off channel=2 note=47 velocity=0 time=8
note_off channel=4 note=52 velocity=0 time=0
note_off channel=5 note=59 velocity=0 time=0
note_on channel=5 note=60 velocity=101 time=0
note_off channel=4 note=47 velocity=0 time=4
note_on channel=2 note=48 velocity=99 time=4
note_on channel=4 note=48 velocity=101 time=0
MetaMessage('lyrics', text=' pip', time=4)
note_on channel=0 note=76 velocity=111 time=0
note_on channel=2 note=67 velocity=90 time=0
note_on channel=2 note=64 velocity=86 time=0
note_off channel=0 note=74 velocity=0 time=4
note_on channel=2 note=60 velocity=89 time=0
note_off channel=5 note=69 velocity=0 time=44
note_off channel=4 note=57 velocity=0 time=4
note_on channel=6 note=60 velocity=61 time=48
note_off channel=6 note=60 velocity=0 time=36
note_on channel=5 note=64 velocity=80 time=48
note_on channel=4 note=52 velocity=80 time=8
note_off channel=5 note=72 velocity=0 time=16
note_off channel=4 note=60 velocity=0 time=4
note_on channel=5 note=67 velocity=92 time=164
note_on channel=4 note=55 velocity=92 time=8
MetaMessage('lyrics', text='er', time=4)
note_on channel=0 note=74 velocity=103 time=0
note_off channel=0 note=76 velocity=0 time=20
note_off channel=0 note=74 velocity=0 time=144
note_on channel=5 note=72 velocity=85 time=16
MetaMessage('lyrics', text=' will', time=8)
note_on channel=0 note=72 velocity=99 time=0
note_on channel=4 note=60 velocity=85 time=0
note_off channel=2 note=60 velocity=0 time=64
note_off channel=2 note=64 velocity=0 time=4
note_off channel=2 note=67 velocity=0 time=16
note_on channel=5 note=59 velocity=93 time=96
note_on channel=2 note=47 velocity=92 time=8
note_on channel=4 note=47 velocity=93 time=0
MetaMessage('lyrics', text=' lead', time=4)
note_on channel=0 note=71 velocity=103 time=0
note_on channel=2 note=62 velocity=83 time=0
note_on channel=2 note=59 velocity=81 time=0
note_off channel=2 note=48 velocity=0 time=4
note_off channel=5 note=60 velocity=0 time=0
note_on channel=2 note=67 velocity=101 time=0
note_off channel=4 note=48 velocity=0 time=4
note_off channel=0 note=72 velocity=0 time=12
note_off channel=5 note=64 velocity=0 time=64
note_off channel=4 note=52 velocity=0 time=4
note_on channel=5 note=62 velocity=83 time=96
note_off channel=0 note=71 velocity=0 time=4
MetaMessage('lyrics', text=' us', time=4)
note_on channel=0 note=69 velocity=101 time=0
note_on channel=4 note=50 velocity=83 time=0
note_off channel=5 note=67 velocity=0 time=20
note_off channel=4 note=55 velocity=0 time=8
note_on channel=5 note=67 velocity=89 time=156
MetaMessage('lyrics', text=' to', time=8)
note_on channel=0 note=67 velocity=101 time=0
note_on channel=4 note=55 velocity=89 time=0
note_off channel=5 note=72 velocity=0 time=4
note_off channel=4 note=60 velocity=0 time=8
note_off channel=0 note=69 velocity=0 time=8
note_off channel=2 note=59 velocity=0 time=60
note_off channel=2 note=67 velocity=0 time=0
note_off channel=2 note=62 velocity=0 time=8
note_off channel=0 note=67 velocity=0 time=8
note_on channel=6 note=60 velocity=75 time=12
note_off channel=6 note=60 velocity=0 time=20
note_off channel=5 note=62 velocity=0 time=20
note_off channel=4 note=50 velocity=0 time=8
note_off channel=5 note=67 velocity=0 time=0
note_off channel=2 note=47 velocity=0 time=8
note_off channel=4 note=55 velocity=0 time=0
note_on channel=5 note=65 velocity=77 time=16
note_on channel=5 note=71 velocity=93 time=0
note_on channel=5 note=60 velocity=87 time=0
note_on channel=4 note=53 velocity=77 time=4
note_on channel=5 note=76 velocity=85 time=0
note_on channel=5 note=69 velocity=82 time=0
note_on channel=2 note=41 velocity=95 time=4
note_on channel=4 note=59 velocity=93 time=0
note_on channel=4 note=48 velocity=87 time=0
MetaMessage('lyrics', text=' rea', time=4)
note_on channel=0 note=67 velocity=103 time=0
note_on channel=2 note=60 velocity=85 time=0
note_on channel=4 note=64 velocity=85 time=0
note_on channel=5 note=53 velocity=103 time=0
note_on channel=4 note=57 velocity=82 time=0
note_on channel=2 note=65 velocity=97 time=4
note_on channel=4 note=41 velocity=103 time=0
note_on channel=2 note=57 velocity=72 time=0
note_off channel=5 note=59 velocity=0 time=8
note_off channel=4 note=47 velocity=0 time=8
note_off channel=2 note=41 velocity=0 time=76
note_off channel=2 note=65 velocity=0 time=44
note_off channel=2 note=57 velocity=0 time=4
note_off channel=2 note=60 velocity=0 time=12
note_off channel=5 note=53 velocity=0 time=40
note_off channel=4 note=41 velocity=0 time=4
note_on channel=6 note=60 velocity=61 time=68
note_off channel=6 note=60 velocity=0 time=28
note_off channel=5 note=69 velocity=0 time=20
note_off channel=5 note=71 velocity=0 time=0
note_off channel=5 note=76 velocity=0 time=0
note_off channel=4 note=57 velocity=0 time=8
note_off channel=4 note=59 velocity=0 time=0
note_off channel=4 note=64 velocity=0 time=0
note_off channel=5 note=60 velocity=0 time=4
note_off channel=5 note=65 velocity=0 time=0
note_off channel=4 note=48 velocity=0 time=8
note_off channel=4 note=53 velocity=0 time=0
note_off channel=0 note=67 velocity=0 time=36
note_on channel=5 note=76 velocity=90 time=0
note_on channel=5 note=69 velocity=90 time=0
note_on channel=5 note=72 velocity=90 time=0
note_on channel=2 note=45 velocity=97 time=4
note_on channel=4 note=64 velocity=90 time=0
note_on channel=5 note=57 velocity=111 time=0
note_on channel=4 note=57 velocity=90 time=0
note_on channel=5 note=64 velocity=90 time=0
note_on channel=4 note=60 velocity=90 time=4
MetaMessage('lyrics', text='son', time=4)
note_on channel=0 note=69 velocity=105 time=0
note_on channel=4 note=45 velocity=111 time=0
note_on channel=4 note=52 velocity=90 time=0
note_on channel=2 note=60 velocity=89 time=4
note_on channel=2 note=57 velocity=82 time=0
note_on channel=2 note=64 velocity=101 time=0
note_on channel=6 note=60 velocity=63 time=280
note_off channel=6 note=60 velocity=0 time=24
note_on channel=6 note=60 velocity=66 time=368
note_off channel=6 note=60 velocity=0 time=28
note_off channel=0 note=69 velocity=0 time=64
note_off channel=5 note=57 velocity=0 time=64
note_off channel=4 note=45 velocity=0 time=4
note_off channel=5 note=76 velocity=0 time=104
note_off channel=5 note=69 velocity=0 time=0
note_off channel=5 note=72 velocity=0 time=0
note_off channel=4 note=64 velocity=0 time=8
note_on channel=5 note=57 velocity=99 time=0
note_off channel=4 note=57 velocity=0 time=0
note_off channel=4 note=60 velocity=0 time=0
note_on channel=4 note=45 velocity=99 time=4
note_off channel=5 note=64 velocity=0 time=0
MetaMessage('lyrics', text='\r', time=0)
MetaMessage('lyrics', text='And', time=4)
note_on channel=0 note=69 velocity=113 time=0
note_off channel=4 note=52 velocity=0 time=4
note_off channel=2 note=64 velocity=0 time=12
note_off channel=2 note=45 velocity=0 time=12
note_off channel=2 note=57 velocity=0 time=4
note_off channel=2 note=60 velocity=0 time=8
note_on channel=2 note=47 velocity=97 time=128
note_on channel=5 note=59 velocity=99 time=16
note_on channel=4 note=47 velocity=99 time=4
MetaMessage('lyrics', text=' a', time=8)
note_on channel=0 note=71 velocity=113 time=0
note_off channel=5 note=57 velocity=0 time=0
note_off channel=0 note=69 velocity=0 time=4
note_off channel=4 note=45 velocity=0 time=0
note_off channel=0 note=71 velocity=0 time=136
note_off channel=2 note=47 velocity=0 time=36
note_on channel=2 note=48 velocity=99 time=0
note_on channel=5 note=60 velocity=109 time=4
note_on channel=4 note=48 velocity=109 time=8
note_off channel=5 note=59 velocity=0 time=0
MetaMessage('lyrics', text=' new', time=8)
note_on channel=0 note=72 velocity=113 time=0
note_on channel=2 note=64 velocity=82 time=0
note_off channel=4 note=47 velocity=0 time=0
note_on channel=2 note=60 velocity=82 time=0
note_on channel=2 note=67 velocity=97 time=0
note_on channel=6 note=60 velocity=72 time=84
note_off channel=6 note=60 velocity=0 time=36
note_on channel=5 note=64 velocity=89 time=60
note_on channel=4 note=52 velocity=89 time=8
note_on channel=5 note=67 velocity=82 time=184
MetaMessage('lyrics', text=' day', time=8)
note_on channel=0 note=74 velocity=111 time=0
note_on channel=4 note=55 velocity=82 time=0
note_off channel=0 note=72 velocity=0 time=4
note_on channel=6 note=60 velocity=72 time=92
note_off channel=6 note=60 velocity=0 time=40
note_on channel=5 note=72 velocity=87 time=44
note_on channel=4 note=60 velocity=87 time=8
MetaMessage('lyrics', text=' will', time=4)
note_on channel=0 note=72 velocity=101 time=0
note_off channel=0 note=74 velocity=0 time=16
note_off channel=2 note=64 velocity=0 time=60
note_off channel=2 note=60 velocity=0 time=0
note_off channel=2 note=67 velocity=0 time=20
note_on channel=2 note=62 velocity=89 time=76
note_off channel=2 note=48 velocity=0 time=4
note_on channel=2 note=47 velocity=99 time=0
note_on channel=2 note=59 velocity=87 time=0
note_on channel=2 note=67 velocity=95 time=4
note_on channel=5 note=59 velocity=103 time=8
MetaMessage('lyrics', text=' da', time=4)
note_on channel=0 note=71 velocity=93 time=0
note_off channel=0 note=72 velocity=0 time=4
note_on channel=4 note=47 velocity=103 time=0
note_off channel=5 note=60 velocity=0 time=24
note_off channel=4 note=48 velocity=0 time=8
note_off channel=5 note=64 velocity=0 time=48
note_off channel=4 note=52 velocity=0 time=4
MetaMessage('lyrics', text='wn', time=4)
note_on channel=0 note=69 velocity=111 time=0
note_off channel=0 note=71 velocity=0 time=16
note_on channel=5 note=62 velocity=76 time=76
note_on channel=4 note=50 velocity=76 time=8
note_off channel=5 note=67 velocity=0 time=8
note_off channel=4 note=55 velocity=0 time=8
note_on channel=5 note=67 velocity=92 time=164
note_on channel=4 note=55 velocity=92 time=8
note_off channel=0 note=69 velocity=0 time=96
MetaMessage('lyrics', text=' for', time=12)
note_on channel=0 note=69 velocity=92 time=0
note_off channel=5 note=72 velocity=0 time=76
note_on channel=5 note=74 velocity=77 time=0
note_off channel=4 note=60 velocity=0 time=8
note_on channel=4 note=62 velocity=77 time=0
MetaMessage('lyrics', text=' those', time=16)
note_on channel=0 note=71 velocity=113 time=0
note_off channel=0 note=69 velocity=0 time=24
note_off channel=2 note=62 velocity=0 time=24
note_off channel=2 note=59 velocity=0 time=0
note_off channel=2 note=67 velocity=0 time=28
note_off channel=5 note=74 velocity=0 time=12
note_off channel=4 note=62 velocity=0 time=8
note_off channel=5 note=62 velocity=0 time=48
note_off channel=5 note=67 velocity=0 time=0
note_off channel=4 note=50 velocity=0 time=8
note_on channel=5 note=71 velocity=82 time=0
note_off channel=4 note=55 velocity=0 time=0
note_off channel=0 note=71 velocity=0 time=8
note_on channel=4 note=59 velocity=82 time=0
note_on channel=2 note=45 velocity=99 time=8
note_on channel=5 note=72 velocity=95 time=0
note_on channel=2 note=57 velocity=77 time=0
note_on channel=2 note=60 velocity=81 time=0
note_off channel=2 note=47 velocity=0 time=4
note_off channel=5 note=71 velocity=0 time=0
note_on channel=2 note=64 velocity=92 time=4
note_on channel=4 note=60 velocity=95 time=0
MetaMessage('lyrics', text='\r', time=0)
MetaMessage('lyrics', text='who', time=4)
note_on channel=0 note=72 velocity=105 time=0
note_off channel=4 note=59 velocity=0 time=0
note_on channel=5 note=57 velocity=97 time=0
note_on channel=4 note=45 velocity=97 time=4
note_off channel=5 note=59 velocity=0 time=0
note_off channel=4 note=47 velocity=0 time=8
note_on channel=5 note=69 velocity=92 time=168
note_on channel=4 note=57 velocity=92 time=8
note_off channel=5 note=72 velocity=0 time=8
note_off channel=4 note=60 velocity=0 time=4
note_off channel=5 note=57 velocity=0 time=32
note_off channel=4 note=45 velocity=0 time=8
note_off channel=0 note=72 velocity=0 time=116
note_on channel=5 note=57 velocity=103 time=20
MetaMessage('lyrics', text=' sta', time=8)
note_on channel=0 note=74 velocity=101 time=0
note_on channel=4 note=45 velocity=103 time=0
note_off channel=0 note=74 velocity=0 time=180
note_on channel=5 note=64 velocity=71 time=0
MetaMessage('lyrics', text='nd', time=8)
note_on channel=0 note=72 velocity=92 time=0
note_on channel=4 note=52 velocity=71 time=0
note_off channel=2 note=64 velocity=0 time=84
MetaMessage('lyrics', text=' lo', time=12)
note_on channel=0 note=71 velocity=101 time=0
note_off channel=0 note=72 velocity=0 time=4
note_off channel=5 note=69 velocity=0 time=16
note_off channel=4 note=57 velocity=0 time=4
note_off channel=0 note=71 velocity=0 time=52
note_on channel=5 note=69 velocity=89 time=12
MetaMessage('lyrics', text='ng', time=8)
note_on channel=0 note=69 velocity=107 time=0
note_on channel=2 note=64 velocity=89 time=0
note_on channel=4 note=57 velocity=89 time=0
note_on channel=2 note=69 velocity=90 time=96
note_on channel=5 note=72 velocity=86 time=88
note_on channel=4 note=60 velocity=86 time=8
note_off channel=0 note=69 velocity=0 time=24
note_off channel=5 note=57 velocity=0 time=60
note_off channel=4 note=45 velocity=0 time=4
note_off channel=2 note=69 velocity=0 time=20
note_on channel=5 note=57 velocity=99 time=76
MetaMessage('lyrics', text='\r', time=0)
MetaMessage('lyrics', text='And', time=8)
note_on channel=0 note=72 velocity=99 time=0
note_on channel=2 note=69 velocity=99 time=0
note_on channel=4 note=45 velocity=99 time=0
note_on channel=2 note=47 velocity=97 time=184
note_on channel=5 note=59 velocity=87 time=0
note_off channel=2 note=45 velocity=0 time=4
MetaMessage('lyrics', text=' the', time=4)
note_on channel=0 note=74 velocity=113 time=0
note_on channel=4 note=47 velocity=87 time=0
note_on channel=2 note=59 velocity=77 time=4
note_on channel=2 note=62 velocity=74 time=0
note_on channel=2 note=67 velocity=103 time=0
note_off channel=2 note=57 velocity=0 time=4
note_off channel=5 note=57 velocity=0 time=0
note_off channel=2 note=60 velocity=0 time=0
note_off channel=0 note=72 velocity=0 time=4
note_off channel=4 note=45 velocity=0 time=0
note_off channel=2 note=69 velocity=0 time=16
note_off channel=2 note=64 velocity=0 time=8
note_off channel=2 note=59 velocity=0 time=56
note_off channel=2 note=62 velocity=0 time=8
note_off channel=2 note=67 velocity=0 time=48
note_off channel=5 note=64 velocity=0 time=28
note_on channel=2 note=48 velocity=92 time=4
note_off channel=2 note=47 velocity=0 time=4
note_off channel=4 note=52 velocity=0 time=0
note_on channel=5 note=60 velocity=105 time=0
note_off channel=5 note=59 velocity=0 time=4
note_on channel=2 note=64 velocity=89 time=4
note_on channel=4 note=48 velocity=105 time=0
note_on channel=2 note=60 velocity=81 time=0
MetaMessage('lyrics', text=' for', time=4)
note_on channel=0 note=76 velocity=109 time=0
note_off channel=4 note=47 velocity=0 time=0
note_off channel=0 note=74 velocity=0 time=20
note_off channel=5 note=69 velocity=0 time=28
note_off channel=4 note=57 velocity=0 time=4
note_on channel=6 note=60 velocity=61 time=48
note_off channel=6 note=60 velocity=0 time=36
note_on channel=5 note=64 velocity=80 time=48
note_on channel=4 note=52 velocity=80 time=8
note_off channel=5 note=72 velocity=0 time=16
note_off channel=4 note=60 velocity=0 time=4
note_on channel=5 note=67 velocity=92 time=164
note_on channel=2 note=67 velocity=97 time=8
note_on channel=4 note=55 velocity=92 time=0
MetaMessage('lyrics', text='ests', time=4)
note_on channel=0 note=74 velocity=107 time=0
note_off channel=0 note=76 velocity=0 time=16
note_off channel=0 note=74 velocity=0 time=160
note_on channel=5 note=72 velocity=85 time=4
MetaMessage('lyrics', text=' will', time=8)
note_on channel=0 note=72 velocity=105 time=0
note_on channel=4 note=60 velocity=85 time=0
note_off channel=2 note=67 velocity=0 time=72
note_off channel=2 note=60 velocity=0 time=12
note_off channel=2 note=64 velocity=0 time=4
note_on channel=2 note=47 velocity=97 time=92
note_on channel=5 note=59 velocity=101 time=0
note_off channel=2 note=48 velocity=0 time=4
note_on channel=4 note=47 velocity=101 time=4
MetaMessage('lyrics', text=' ech', time=4)
note_on channel=0 note=71 velocity=107 time=0
note_on channel=2 note=62 velocity=82 time=0
note_off channel=5 note=60 velocity=0 time=0
note_on channel=2 note=59 velocity=80 time=0
note_on channel=2 note=67 velocity=97 time=4
note_off channel=4 note=48 velocity=0 time=0
note_off channel=0 note=72 velocity=0 time=12
note_off channel=5 note=64 velocity=0 time=68
note_off channel=4 note=52 velocity=0 time=4
note_on channel=5 note=62 velocity=83 time=96
note_off channel=0 note=71 velocity=0 time=4
MetaMessage('lyrics', text='o', time=4)
note_on channel=0 note=69 velocity=103 time=0
note_on channel=4 note=50 velocity=83 time=0
note_off channel=5 note=67 velocity=0 time=20
note_off channel=4 note=55 velocity=0 time=8
note_on channel=5 note=67 velocity=89 time=156
MetaMessage('lyrics', text=' with', time=8)
note_on channel=0 note=67 velocity=105 time=0
note_on channel=4 note=55 velocity=89 time=0
note_off channel=5 note=72 velocity=0 time=4
note_off channel=0 note=69 velocity=0 time=8
note_off channel=4 note=60 velocity=0 time=0
note_off channel=0 note=67 velocity=0 time=60
note_off channel=2 note=59 velocity=0 time=12
note_off channel=2 note=67 velocity=0 time=0
note_off channel=2 note=62 velocity=0 time=4
note_on channel=6 note=60 velocity=75 time=20
note_off channel=6 note=60 velocity=0 time=20
note_off channel=5 note=62 velocity=0 time=20
note_off channel=4 note=50 velocity=0 time=8
note_off channel=5 note=67 velocity=0 time=0
note_off channel=4 note=55 velocity=0 time=8
note_off channel=5 note=59 velocity=0 time=12
note_off channel=4 note=47 velocity=0 time=4
note_on channel=5 note=65 velocity=77 time=0
note_on channel=5 note=53 velocity=101 time=0
note_on channel=5 note=71 velocity=93 time=0
note_on channel=5 note=60 velocity=87 time=0
note_on channel=4 note=53 velocity=77 time=4
note_on channel=5 note=76 velocity=85 time=0
note_on channel=5 note=69 velocity=82 time=0
note_on channel=2 note=41 velocity=89 time=4
note_on channel=4 note=41 velocity=101 time=0
note_on channel=4 note=59 velocity=93 time=0
note_on channel=4 note=48 velocity=87 time=0
MetaMessage('lyrics', text=' laugh', time=4)
note_on channel=0 note=67 velocity=117 time=0
note_on channel=4 note=64 velocity=85 time=0
note_on channel=4 note=57 velocity=82 time=0
note_off channel=2 note=47 velocity=0 time=4
note_on channel=2 note=65 velocity=103 time=0
note_on channel=2 note=60 velocity=103 time=0
note_on channel=2 note=57 velocity=87 time=0
note_off channel=2 note=41 velocity=0 time=56
note_off channel=2 note=65 velocity=0 time=76
note_off channel=2 note=60 velocity=0 time=36
note_off channel=2 note=57 velocity=0 time=4
note_on channel=6 note=60 velocity=61 time=92
note_off channel=5 note=53 velocity=0 time=20
note_off channel=4 note=41 velocity=0 time=4
note_off channel=6 note=60 velocity=0 time=4
note_off channel=5 note=69 velocity=0 time=20
note_off channel=5 note=71 velocity=0 time=0
note_off channel=5 note=76 velocity=0 time=0
note_off channel=4 note=57 velocity=0 time=8
note_off channel=4 note=59 velocity=0 time=0
note_off channel=4 note=64 velocity=0 time=0
note_off channel=5 note=60 velocity=0 time=4
note_off channel=5 note=65 velocity=0 time=0
note_off channel=4 note=48 velocity=0 time=8
note_off channel=4 note=53 velocity=0 time=0
note_on channel=5 note=76 velocity=90 time=36
note_on channel=5 note=69 velocity=90 time=0
note_on channel=5 note=72 velocity=90 time=0
note_on channel=4 note=64 velocity=90 time=4
note_on channel=5 note=57 velocity=107 time=0
note_on channel=4 note=57 velocity=90 time=0
note_on channel=5 note=64 velocity=90 time=0
note_on channel=4 note=60 velocity=90 time=4
MetaMessage('lyrics', text='ter', time=4)
note_on channel=0 note=69 velocity=119 time=0
note_on channel=2 note=45 velocity=95 time=0
note_on channel=4 note=45 velocity=107 time=0
note_on channel=2 note=60 velocity=86 time=0
note_on channel=4 note=52 velocity=90 time=0
note_off channel=0 note=67 velocity=0 time=4
note_on channel=2 note=57 velocity=83 time=0
note_on channel=2 note=45 velocity=107 time=0
note_on channel=2 note=64 velocity=93 time=0
note_on channel=6 note=60 velocity=63 time=280
note_off channel=6 note=60 velocity=0 time=24
note_off channel=2 note=45 velocity=0 time=340
note_on channel=6 note=60 velocity=66 time=28
note_off channel=6 note=60 velocity=0 time=28
note_off channel=0 note=69 velocity=0 time=80
note_off channel=5 note=57 velocity=0 time=36
note_off channel=4 note=45 velocity=0 time=8
note_off channel=5 note=76 velocity=0 time=112
note_off channel=5 note=69 velocity=0 time=0
note_off channel=5 note=72 velocity=0 time=0
note_off channel=4 note=64 velocity=0 time=8
note_on channel=5 note=57 velocity=101 time=0
note_off channel=4 note=57 velocity=0 time=0
note_off channel=4 note=60 velocity=0 time=0
note_off channel=5 note=64 velocity=0 time=4
note_on channel=4 note=45 velocity=101 time=4
note_off channel=4 note=52 velocity=0 time=4
note_off channel=2 note=64 velocity=0 time=4
note_off channel=2 note=57 velocity=0 time=12
note_off channel=2 note=60 velocity=0 time=4
note_off channel=2 note=45 velocity=0 time=28
note_on channel=5 note=59 velocity=89 time=132
note_off channel=5 note=57 velocity=0 time=4
note_on channel=2 note=59 velocity=82 time=4
note_on channel=4 note=47 velocity=89 time=0
note_on channel=2 note=62 velocity=89 time=0
note_on channel=2 note=67 velocity=95 time=4
note_off channel=4 note=45 velocity=0 time=0
note_on channel=2 note=47 velocity=101 time=4
note_off channel=2 note=67 velocity=0 time=112
note_off channel=2 note=59 velocity=0 time=16
note_off channel=2 note=62 velocity=0 time=0
note_off channel=5 note=59 velocity=0 time=48
note_on channel=5 note=60 velocity=105 time=0
note_off channel=4 note=47 velocity=0 time=8
note_on channel=4 note=48 velocity=105 time=0
note_on channel=2 note=67 velocity=89 time=4
note_on channel=2 note=60 velocity=81 time=0
note_on channel=2 note=64 velocity=97 time=4
note_on channel=2 note=48 velocity=95 time=0
note_off channel=2 note=47 velocity=0 time=16
note_on channel=5 note=64 velocity=89 time=164
note_on channel=4 note=52 velocity=89 time=8
note_on channel=5 note=67 velocity=82 time=184
note_on channel=4 note=55 velocity=82 time=8
note_on channel=5 note=72 velocity=87 time=180
note_on channel=4 note=60 velocity=87 time=8
note_off channel=2 note=64 velocity=0 time=68
note_off channel=2 note=60 velocity=0 time=4
note_off channel=2 note=67 velocity=0 time=24
note_off channel=2 note=48 velocity=0 time=88
note_on channel=5 note=59 velocity=107 time=4
note_on channel=2 note=62 velocity=87 time=4
note_on channel=2 note=47 velocity=90 time=4
note_on channel=4 note=47 velocity=107 time=0
note_on channel=2 note=59 velocity=81 time=0
note_on channel=2 note=67 velocity=92 time=0
note_off channel=5 note=60 velocity=0 time=28
note_off channel=4 note=48 velocity=0 time=8
note_off channel=5 note=64 velocity=0 time=48
note_off channel=4 note=52 velocity=0 time=4
note_on channel=5 note=62 velocity=76 time=96
note_on channel=4 note=50 velocity=76 time=8
note_off channel=5 note=67 velocity=0 time=8
note_off channel=4 note=55 velocity=0 time=8
note_on channel=5 note=67 velocity=92 time=164
note_on channel=4 note=55 velocity=92 time=8
note_off channel=2 note=47 velocity=0 time=136
note_off channel=5 note=72 velocity=0 time=48
note_on channel=5 note=74 velocity=77 time=0
note_off channel=4 note=60 velocity=0 time=8
note_on channel=4 note=62 velocity=77 time=0
note_on channel=2 note=45 velocity=97 time=4
note_off channel=5 note=74 velocity=0 time=100
note_off channel=4 note=62 velocity=0 time=8
note_off channel=5 note=59 velocity=0 time=24
note_off channel=4 note=47 velocity=0 time=4
note_off channel=5 note=62 velocity=0 time=20
note_off channel=5 note=67 velocity=0 time=0
note_off channel=4 note=50 velocity=0 time=8
note_off channel=4 note=55 velocity=0 time=0
note_off channel=2 note=59 velocity=0 time=20
note_off channel=2 note=45 velocity=0 time=8
note_on channel=2 note=57 velocity=82 time=4
note_on channel=4 note=52 velocity=82 time=0
note_on channel=2 note=33 velocity=97 time=0
note_on channel=4 note=57 velocity=89 time=0
note_on channel=2 note=60 velocity=85 time=0
note_on channel=4 note=67 velocity=97 time=0
note_on channel=2 note=67 velocity=92 time=0
note_on channel=4 note=60 velocity=93 time=0
note_on channel=2 note=64 velocity=93 time=0
note_off channel=2 note=62 velocity=0 time=8
note_off channel=2 note=67 velocity=0 time=8
note_on channel=6 note=60 velocity=72 time=68
note_off channel=6 note=60 velocity=0 time=36
note_off channel=4 note=60 velocity=0 time=12
note_off channel=4 note=52 velocity=0 time=8
note_off channel=4 note=57 velocity=0 time=4
note_off channel=4 note=67 velocity=0 time=0
note_off channel=2 note=64 velocity=0 time=28
note_on channel=5 note=69 velocity=46 time=16
note_on channel=5 note=79 velocity=63 time=0
note_off channel=2 note=67 velocity=0 time=4
note_on channel=4 note=57 velocity=46 time=0
note_on channel=4 note=67 velocity=63 time=0
note_off channel=5 note=69 velocity=0 time=16
note_off channel=5 note=79 velocity=0 time=0
note_off channel=4 note=57 velocity=0 time=4
note_off channel=4 note=67 velocity=0 time=4
note_off channel=2 note=57 velocity=0 time=8
note_off channel=2 note=60 velocity=0 time=0
note_on channel=5 note=69 velocity=62 time=52
note_on channel=2 note=67 velocity=67 time=4
note_on channel=4 note=57 velocity=62 time=4
note_on channel=5 note=79 velocity=72 time=0
note_on channel=5 note=72 velocity=45 time=0
note_on channel=4 note=67 velocity=72 time=4
note_on channel=4 note=60 velocity=45 time=0
note_off channel=5 note=72 velocity=0 time=12
note_off channel=4 note=60 velocity=0 time=4
note_off channel=5 note=79 velocity=0 time=0
note_off channel=2 note=67 velocity=0 time=4
note_off channel=4 note=67 velocity=0 time=0
note_off channel=5 note=69 velocity=0 time=0
note_off channel=4 note=57 velocity=0 time=8
note_on channel=5 note=64 velocity=90 time=56
note_on channel=5 note=69 velocity=97 time=4
note_on channel=2 note=60 velocity=90 time=4
note_on channel=4 note=52 velocity=90 time=0
note_on channel=5 note=72 velocity=97 time=0
note_on channel=2 note=57 velocity=90 time=0
note_on channel=5 note=79 velocity=101 time=0
note_on channel=2 note=67 velocity=95 time=0
note_on channel=2 note=64 velocity=89 time=0
note_on channel=4 note=57 velocity=97 time=4
note_on channel=4 note=60 velocity=97 time=0
note_on channel=4 note=67 velocity=101 time=0
note_on channel=6 note=60 velocity=72 time=92
note_off channel=2 note=67 velocity=0 time=4
note_off channel=2 note=64 velocity=0 time=8
note_off channel=2 note=60 velocity=0 time=20
note_off channel=2 note=57 velocity=0 time=0
note_off channel=5 note=64 velocity=0 time=4
note_off channel=5 note=69 velocity=0 time=0
note_off channel=5 note=72 velocity=0 time=0
note_off channel=6 note=60 velocity=0 time=4
note_off channel=4 note=52 velocity=0 time=4
note_off channel=5 note=79 velocity=0 time=0
note_off channel=4 note=57 velocity=0 time=0
note_off channel=4 note=60 velocity=0 time=0
note_off channel=4 note=67 velocity=0 time=8
note_on channel=5 note=64 velocity=87 time=44
note_on channel=5 note=72 velocity=95 time=0
note_on channel=5 note=79 velocity=105 time=0
note_on channel=5 note=69 velocity=92 time=0
note_on channel=2 note=67 velocity=95 time=4
note_on channel=4 note=52 velocity=87 time=0
note_on channel=2 note=60 velocity=90 time=0
note_on channel=4 note=60 velocity=95 time=0
note_on channel=2 note=64 velocity=93 time=0
note_on channel=4 note=67 velocity=105 time=0
note_on channel=2 note=57 velocity=90 time=0
note_on channel=4 note=57 velocity=92 time=0
note_off channel=5 note=69 velocity=0 time=216
note_off channel=2 note=57 velocity=0 time=4
note_off channel=2 note=67 velocity=0 time=4
note_off channel=4 note=57 velocity=0 time=0
note_off channel=5 note=72 velocity=0 time=0
note_off channel=2 note=64 velocity=0 time=0
note_off channel=5 note=64 velocity=0 time=4
note_off channel=4 note=60 velocity=0 time=4
note_off channel=5 note=79 velocity=0 time=0
note_off channel=4 note=52 velocity=0 time=4
note_off channel=2 note=60 velocity=0 time=4
note_off channel=4 note=67 velocity=0 time=0
note_on channel=5 note=64 velocity=85 time=132
note_on channel=5 note=72 velocity=93 time=0
note_on channel=5 note=69 velocity=89 time=0
note_on channel=2 note=60 velocity=90 time=4
note_on channel=5 note=76 velocity=93 time=0
note_on channel=2 note=57 velocity=86 time=0
note_on channel=2 note=64 velocity=101 time=0
note_on channel=4 note=52 velocity=85 time=4
note_on channel=4 note=60 velocity=93 time=0
note_on channel=4 note=57 velocity=89 time=0
note_on channel=4 note=64 velocity=93 time=4
note_off channel=2 note=64 velocity=0 time=224
note_off channel=2 note=60 velocity=0 time=12
note_off channel=5 note=72 velocity=0 time=0
note_off channel=5 note=76 velocity=0 time=0
note_off channel=2 note=57 velocity=0 time=4
note_off channel=4 note=60 velocity=0 time=0
note_off channel=4 note=64 velocity=0 time=0
note_off channel=5 note=69 velocity=0 time=4
note_off channel=5 note=64 velocity=0 time=4
note_off channel=4 note=57 velocity=0 time=4
note_off channel=4 note=52 velocity=0 time=4
note_on channel=5 note=69 velocity=97 time=116
note_on channel=2 note=57 velocity=92 time=4
note_on channel=5 note=74 velocity=102 time=0
note_on channel=5 note=76 velocity=99 time=0
note_on channel=2 note=67 velocity=101 time=4
note_on channel=4 note=57 velocity=97 time=0
note_on channel=2 note=62 velocity=95 time=0
note_off channel=2 note=33 velocity=0 time=4
note_on channel=4 note=62 velocity=102 time=0
note_on channel=2 note=38 velocity=105 time=0
note_on channel=4 note=64 velocity=99 time=0
note_off channel=2 note=67 velocity=0 time=232
note_off channel=2 note=57 velocity=0 time=8
note_off channel=2 note=62 velocity=0 time=0
note_off channel=5 note=74 velocity=0 time=16
note_off channel=5 note=76 velocity=0 time=0
note_off channel=4 note=64 velocity=0 time=4
note_off channel=4 note=62 velocity=0 time=4
note_off channel=5 note=69 velocity=0 time=12
note_off channel=4 note=57 velocity=0 time=8
note_on channel=5 note=74 velocity=87 time=88
note_on channel=5 note=78 velocity=111 time=0
note_on channel=2 note=57 velocity=87 time=8
note_on channel=4 note=62 velocity=87 time=0
note_on channel=5 note=69 velocity=90 time=0
note_on channel=2 note=62 velocity=90 time=0
note_on channel=4 note=66 velocity=111 time=0
note_on channel=2 note=66 velocity=119 time=0
note_on channel=2 note=50 velocity=77 time=4
note_on channel=4 note=57 velocity=90 time=0
note_on channel=2 note=57 velocity=90 time=192
note_off channel=2 note=50 velocity=0 time=48
note_on channel=5 note=62 velocity=89 time=132
note_on channel=4 note=50 velocity=89 time=8
note_on channel=2 note=50 velocity=78 time=4
note_off channel=5 note=74 velocity=0 time=156
note_off channel=4 note=62 velocity=0 time=4
note_off channel=5 note=78 velocity=0 time=20
note_off channel=5 note=69 velocity=0 time=0
note_on channel=5 note=74 velocity=93 time=0
note_off channel=4 note=66 velocity=0 time=8
note_off channel=4 note=57 velocity=0 time=0
note_on channel=4 note=62 velocity=93 time=0
note_off channel=2 note=50 velocity=0 time=96
note_off channel=5 note=74 velocity=0 time=60
note_off channel=4 note=62 velocity=0 time=8
note_on channel=2 note=50 velocity=72 time=20
note_on channel=5 note=74 velocity=97 time=0
note_on channel=4 note=62 velocity=97 time=8
note_off channel=2 note=57 velocity=0 time=32
note_on channel=5 note=78 velocity=82 time=56
note_on channel=4 note=66 velocity=82 time=8
note_off channel=5 note=74 velocity=0 time=44
note_off channel=4 note=62 velocity=0 time=8
note_on channel=5 note=74 velocity=99 time=36
note_on channel=2 note=57 velocity=95 time=8
note_on channel=4 note=62 velocity=99 time=0
note_off channel=2 note=66 velocity=0 time=24
note_off channel=2 note=62 velocity=0 time=8
note_off channel=2 note=57 velocity=0 time=0
note_off channel=5 note=78 velocity=0 time=24
note_off channel=4 note=66 velocity=0 time=8
note_on channel=5 note=71 velocity=68 time=120
note_on channel=5 note=67 velocity=59 time=0
note_on channel=2 note=45 velocity=86 time=8
note_on channel=4 note=59 velocity=68 time=0
note_on channel=4 note=55 velocity=59 time=0
note_off channel=5 note=71 velocity=0 time=16
note_off channel=5 note=67 velocity=0 time=0
note_off channel=4 note=59 velocity=0 time=4
note_off channel=4 note=55 velocity=0 time=0
note_off channel=5 note=74 velocity=0 time=8
note_off channel=4 note=62 velocity=0 time=8
note_on channel=5 note=67 velocity=95 time=52
note_on channel=5 note=71 velocity=93 time=0
note_on channel=4 note=55 velocity=95 time=8
note_on channel=4 note=59 velocity=93 time=0
note_off channel=5 note=71 velocity=0 time=44
note_off channel=4 note=59 velocity=0 time=8
note_off channel=5 note=67 velocity=0 time=0
note_off channel=4 note=55 velocity=0 time=4
note_on channel=2 note=33 velocity=105 time=36
note_off channel=2 note=38 velocity=0 time=4
note_on channel=5 note=69 velocity=89 time=0
note_on channel=2 note=60 velocity=89 time=0
note_on channel=5 note=64 velocity=86 time=0
note_on channel=2 note=57 velocity=81 time=0
note_on channel=5 note=79 velocity=99 time=0
note_on channel=2 note=67 velocity=93 time=0
note_on channel=5 note=72 velocity=95 time=0
note_on channel=2 note=64 velocity=92 time=4
note_on channel=4 note=57 velocity=89 time=0
note_on channel=4 note=52 velocity=86 time=0
note_on channel=4 note=67 velocity=99 time=0
note_on channel=4 note=60 velocity=95 time=0
note_off channel=5 note=62 velocity=0 time=80
note_off channel=4 note=50 velocity=0 time=8
note_on channel=6 note=60 velocity=61 time=8
note_off channel=5 note=79 velocity=0 time=4
note_off channel=4 note=67 velocity=0 time=8
note_off channel=5 note=72 velocity=0 time=8
note_off channel=4 note=60 velocity=0 time=8
note_off channel=5 note=64 velocity=0 time=4
note_off channel=5 note=69 velocity=0 time=0
note_off channel=6 note=60 velocity=0 time=4
note_off channel=4 note=57 velocity=0 time=4
note_off channel=4 note=52 velocity=0 time=0
note_off channel=2 note=64 velocity=0 time=28
note_off channel=2 note=67 velocity=0 time=12
note_on channel=5 note=79 velocity=55 time=8
note_on channel=5 note=69 velocity=45 time=4
note_on channel=4 note=67 velocity=55 time=4
note_on channel=4 note=57 velocity=45 time=0
note_off channel=5 note=79 velocity=0 time=16
note_off channel=5 note=69 velocity=0 time=0
note_off channel=4 note=67 velocity=0 time=4
note_off channel=4 note=57 velocity=0 time=0
note_off channel=2 note=57 velocity=0 time=16
note_off channel=2 note=60 velocity=0 time=8
note_on channel=5 note=72 velocity=77 time=40
note_on channel=5 note=79 velocity=87 time=0
note_on channel=5 note=64 velocity=73 time=0
note_on channel=5 note=69 velocity=80 time=0
note_on channel=2 note=67 velocity=71 time=8
note_on channel=4 note=60 velocity=77 time=0
note_on channel=4 note=67 velocity=87 time=0
note_on channel=4 note=52 velocity=73 time=0
note_on channel=4 note=57 velocity=80 time=0
note_off channel=5 note=79 velocity=0 time=32
note_off channel=2 note=67 velocity=0 time=4
note_off channel=4 note=67 velocity=0 time=0
note_off channel=5 note=72 velocity=0 time=0
note_off channel=5 note=64 velocity=0 time=0
note_off channel=5 note=69 velocity=0 time=0
note_off channel=4 note=60 velocity=0 time=4
note_off channel=4 note=57 velocity=0 time=0
note_off channel=4 note=52 velocity=0 time=4
note_on channel=5 note=79 velocity=97 time=44
note_on channel=5 note=72 velocity=89 time=0
note_on channel=5 note=64 velocity=77 time=0
note_on channel=5 note=69 velocity=87 time=0
note_on channel=2 note=67 velocity=86 time=8
note_on channel=4 note=67 velocity=97 time=0
note_on channel=2 note=57 velocity=86 time=0
note_on channel=4 note=60 velocity=89 time=0
note_on channel=4 note=52 velocity=77 time=0
note_on channel=4 note=57 velocity=87 time=0
note_on channel=2 note=60 velocity=90 time=4
note_on channel=2 note=64 velocity=82 time=0
note_off channel=2 note=64 velocity=0 time=96
note_off channel=5 note=72 velocity=0 time=0
note_off channel=5 note=64 velocity=0 time=0
note_off channel=5 note=69 velocity=0 time=0
note_off channel=2 note=67 velocity=0 time=4
note_off channel=4 note=52 velocity=0 time=0
note_off channel=5 note=79 velocity=0 time=0
note_off channel=4 note=60 velocity=0 time=4
note_off channel=4 note=57 velocity=0 time=0
note_off channel=2 note=60 velocity=0 time=4
note_off channel=4 note=67 velocity=0 time=0
note_off channel=2 note=57 velocity=0 time=4
note_on channel=5 note=72 velocity=90 time=68
note_on channel=5 note=79 velocity=99 time=0
note_on channel=5 note=69 velocity=89 time=0
note_on channel=5 note=64 velocity=82 time=0
note_on channel=4 note=60 velocity=90 time=8
note_on channel=4 note=67 velocity=99 time=0
note_on channel=4 note=57 velocity=89 time=0
note_on channel=4 note=52 velocity=82 time=0
note_on channel=2 note=67 velocity=93 time=4
note_on channel=2 note=60 velocity=89 time=0
note_on channel=2 note=64 velocity=89 time=0
note_on channel=2 note=57 velocity=82 time=0
note_off channel=5 note=64 velocity=0 time=72
note_off channel=5 note=69 velocity=0 time=4
note_off channel=4 note=57 velocity=0 time=4
note_off channel=5 note=79 velocity=0 time=0
note_off channel=4 note=52 velocity=0 time=0
note_off channel=4 note=67 velocity=0 time=4
note_off channel=5 note=72 velocity=0 time=0
note_off channel=4 note=60 velocity=0 time=8
note_off channel=2 note=67 velocity=0 time=72
note_on channel=5 note=79 velocity=103 time=16
note_on channel=5 note=64 velocity=87 time=0
note_on channel=5 note=72 velocity=92 time=0
note_on channel=5 note=69 velocity=90 time=0
note_off channel=2 note=64 velocity=0 time=8
note_on channel=4 note=67 velocity=103 time=0
note_on channel=4 note=52 velocity=87 time=0
note_on channel=4 note=60 velocity=92 time=0
note_on channel=4 note=57 velocity=90 time=0
note_off channel=2 note=57 velocity=0 time=16
note_off channel=2 note=60 velocity=0 time=4
note_off channel=5 note=72 velocity=0 time=84
note_off channel=4 note=60 velocity=0 time=8
note_off channel=5 note=79 velocity=0 time=0
note_off channel=4 note=67 velocity=0 time=4
note_off channel=5 note=64 velocity=0 time=0
note_off channel=5 note=69 velocity=0 time=0
note_off channel=4 note=57 velocity=0 time=4
note_off channel=4 note=52 velocity=0 time=4
note_on channel=5 note=72 velocity=89 time=60
note_on channel=5 note=76 velocity=93 time=0
note_on channel=5 note=69 velocity=97 time=0
note_on channel=5 note=64 velocity=92 time=0
note_on channel=2 note=57 velocity=90 time=4
note_on channel=2 note=60 velocity=89 time=0
note_on channel=2 note=64 velocity=99 time=4
note_on channel=4 note=60 velocity=89 time=0
note_on channel=4 note=64 velocity=93 time=0
note_on channel=4 note=57 velocity=97 time=0
note_on channel=4 note=52 velocity=92 time=0
note_off channel=2 note=45 velocity=0 time=80
note_off channel=2 note=57 velocity=0 time=20
note_off channel=2 note=50 velocity=0 time=28
note_off channel=2 note=64 velocity=0 time=44
note_off channel=2 note=57 velocity=0 time=24
note_off channel=2 note=60 velocity=0 time=0
note_on channel=2 note=45 velocity=97 time=0
note_on channel=2 note=43 velocity=93 time=0
note_off channel=2 note=43 velocity=0 time=8
note_off channel=5 note=72 velocity=0 time=8
note_off channel=4 note=60 velocity=0 time=8
note_off channel=5 note=76 velocity=0 time=0
note_off channel=5 note=64 velocity=0 time=0
note_off channel=2 note=33 velocity=0 time=4
note_off channel=4 note=64 velocity=0 time=4
note_off channel=5 note=69 velocity=0 time=0
note_off channel=4 note=52 velocity=0 time=0
note_off channel=4 note=57 velocity=0 time=4
note_on channel=6 note=60 velocity=75 time=68
note_off channel=6 note=60 velocity=0 time=20
note_on channel=5 note=76 velocity=97 time=56
note_on channel=5 note=62 velocity=95 time=0
note_on channel=2 note=64 velocity=81 time=8
note_on channel=4 note=64 velocity=97 time=0
note_on channel=5 note=79 velocity=93 time=0
note_on channel=2 note=71 velocity=87 time=0
note_on channel=4 note=50 velocity=95 time=0
note_on channel=5 note=83 velocity=90 time=0
note_on channel=2 note=67 velocity=87 time=0
note_on channel=4 note=67 velocity=93 time=4
note_on channel=4 note=71 velocity=90 time=0
note_off channel=2 note=45 velocity=0 time=176
note_on channel=2 note=50 velocity=101 time=12
note_off channel=2 note=67 velocity=0 time=20
note_off channel=5 note=76 velocity=0 time=0
note_off channel=5 note=79 velocity=0 time=0
note_off channel=5 note=83 velocity=0 time=0
note_off channel=2 note=71 velocity=0 time=4
note_off channel=4 note=71 velocity=0 time=0
note_off channel=4 note=64 velocity=0 time=4
note_off channel=4 note=67 velocity=0 time=0
note_off channel=2 note=64 velocity=0 time=8
note_on channel=6 note=60 velocity=61 time=40
note_off channel=6 note=60 velocity=0 time=28
note_on channel=5 note=74 velocity=97 time=80
note_on channel=5 note=78 velocity=111 time=0
note_on channel=5 note=81 velocity=93 time=0
note_on channel=2 note=66 velocity=109 time=4
note_on channel=2 note=62 velocity=90 time=0
note_on channel=2 note=69 velocity=90 time=4
note_on channel=4 note=62 velocity=97 time=0
note_on channel=4 note=66 velocity=111 time=0
note_on channel=4 note=69 velocity=93 time=0
note_off channel=5 note=81 velocity=0 time=228
note_off channel=4 note=69 velocity=0 time=4
note_off channel=5 note=78 velocity=0 time=4
note_off channel=2 note=69 velocity=0 time=4
note_off channel=2 note=66 velocity=0 time=4
note_off channel=4 note=66 velocity=0 time=0
note_off channel=5 note=74 velocity=0 time=0
note_off channel=2 note=62 velocity=0 time=0
note_off channel=4 note=62 velocity=0 time=4
note_on channel=6 note=60 velocity=63 time=36
note_off channel=6 note=60 velocity=0 time=24
note_off channel=2 note=50 velocity=0 time=64
note_on channel=5 note=76 velocity=95 time=4
note_on channel=5 note=76 velocity=93 time=0
note_on channel=5 note=79 velocity=93 time=0
note_on channel=2 note=45 velocity=95 time=4
note_on channel=2 note=60 velocity=90 time=4
note_on channel=4 note=64 velocity=95 time=0
note_on channel=2 note=67 velocity=93 time=0
note_on channel=4 note=64 velocity=93 time=0
note_on channel=2 note=64 velocity=93 time=0
note_on channel=4 note=67 velocity=93 time=0
note_on channel=2 note=38 velocity=101 time=92
note_off channel=2 note=45 velocity=0 time=12
note_off channel=2 note=60 velocity=0 time=124
note_off channel=2 note=64 velocity=0 time=0
note_off channel=2 note=67 velocity=0 time=4
note_off channel=5 note=79 velocity=0 time=16
note_off channel=5 note=76 velocity=0 time=4
note_off channel=4 note=67 velocity=0 time=4
note_off channel=5 note=76 velocity=0 time=0
note_off channel=4 note=64 velocity=0 time=4
note_off channel=4 note=64 velocity=0 time=0
note_on channel=6 note=60 velocity=66 time=32
note_off channel=6 note=60 velocity=0 time=28
note_on channel=5 note=74 velocity=90 time=56
note_on channel=5 note=78 velocity=95 time=0
note_on channel=5 note=81 velocity=76 time=0
note_on channel=2 note=69 velocity=93 time=4
note_on channel=2 note=62 velocity=93 time=0
note_on channel=2 note=66 velocity=111 time=4
note_on channel=4 note=62 velocity=90 time=0
note_on channel=4 note=66 velocity=95 time=0
note_on channel=4 note=69 velocity=76 time=0
note_off channel=5 note=62 velocity=0 time=356
note_off channel=4 note=50 velocity=0 time=4
note_on channel=5 note=57 velocity=90 time=20
note_on channel=2 note=45 velocity=107 time=4
note_on channel=5 note=62 velocity=82 time=0
note_on channel=4 note=45 velocity=90 time=4
note_on channel=4 note=50 velocity=82 time=0
note_off channel=2 note=38 velocity=0 time=20
note_off channel=2 note=69 velocity=0 time=20
note_off channel=2 note=62 velocity=0 time=0
note_off channel=2 note=66 velocity=0 time=0
note_off channel=5 note=81 velocity=0 time=72
note_off channel=4 note=69 velocity=0 time=8
note_off channel=5 note=78 velocity=0 time=0
note_off channel=5 note=74 velocity=0 time=4
note_off channel=4 note=62 velocity=0 time=4
note_off channel=5 note=57 velocity=0 time=0
note_off channel=4 note=66 velocity=0 time=0
note_off channel=4 note=45 velocity=0 time=4
note_off channel=5 note=62 velocity=0 time=4
note_off channel=4 note=50 velocity=0 time=8
note_on channel=5 note=64 velocity=82 time=44
note_on channel=5 note=69 velocity=89 time=0
note_on channel=5 note=79 velocity=97 time=0
note_on channel=5 note=72 velocity=93 time=0
note_on channel=2 note=33 velocity=103 time=4
note_on channel=4 note=52 velocity=82 time=0
note_on channel=2 note=57 velocity=82 time=0
note_on channel=4 note=57 velocity=89 time=0
note_on channel=2 note=60 velocity=85 time=0
note_on channel=4 note=67 velocity=97 time=0
note_on channel=2 note=67 velocity=92 time=0
note_on channel=4 note=60 velocity=93 time=0
note_on channel=2 note=64 velocity=93 time=0
note_off channel=2 note=45 velocity=0 time=12
note_on channel=6 note=60 velocity=72 time=72
note_off channel=6 note=60 velocity=0 time=36
note_off channel=5 note=72 velocity=0 time=8
note_off channel=4 note=60 velocity=0 time=4
note_off channel=5 note=64 velocity=0 time=0
note_off channel=4 note=52 velocity=0 time=8
note_off channel=5 note=69 velocity=0 time=0
note_off channel=5 note=79 velocity=0 time=0
note_off channel=4 note=57 velocity=0 time=4
note_off channel=4 note=67 velocity=0 time=0
note_off channel=2 note=64 velocity=0 time=28
note_on channel=5 note=69 velocity=46 time=16
note_on channel=5 note=79 velocity=63 time=0
note_off channel=2 note=67 velocity=0 time=4
note_on channel=4 note=57 velocity=46 time=0
note_on channel=4 note=67 velocity=63 time=0
note_off channel=5 note=69 velocity=0 time=16
note_off channel=5 note=79 velocity=0 time=0
note_off channel=4 note=57 velocity=0 time=4
note_off channel=4 note=67 velocity=0 time=4
note_off channel=2 note=57 velocity=0 time=8
note_off channel=2 note=60 velocity=0 time=0
note_on channel=5 note=69 velocity=62 time=52
note_on channel=2 note=67 velocity=67 time=4
note_on channel=4 note=57 velocity=62 time=4
note_on channel=5 note=79 velocity=72 time=0
note_on channel=5 note=72 velocity=45 time=0
note_on channel=4 note=67 velocity=72 time=4
note_on channel=4 note=60 velocity=45 time=0
note_off channel=5 note=72 velocity=0 time=12
note_off channel=4 note=60 velocity=0 time=4
note_off channel=5 note=79 velocity=0 time=0
note_off channel=2 note=67 velocity=0 time=4
note_off channel=4 note=67 velocity=0 time=0
note_off channel=5 note=69 velocity=0 time=0
note_off channel=4 note=57 velocity=0 time=8
note_on channel=5 note=64 velocity=90 time=56
note_on channel=5 note=69 velocity=97 time=4
note_on channel=2 note=60 velocity=90 time=4
note_on channel=4 note=52 velocity=90 time=0
note_on channel=5 note=72 velocity=97 time=0
note_on channel=2 note=57 velocity=90 time=0
note_on channel=5 note=79 velocity=101 time=0
note_on channel=2 note=67 velocity=95 time=0
note_on channel=2 note=64 velocity=89 time=0
note_on channel=4 note=57 velocity=97 time=4
note_on channel=4 note=60 velocity=97 time=0
note_on channel=4 note=67 velocity=101 time=0
note_on channel=6 note=60 velocity=72 time=92
note_off channel=2 note=67 velocity=0 time=4
note_off channel=2 note=64 velocity=0 time=8
note_off channel=2 note=60 velocity=0 time=20
note_off channel=2 note=57 velocity=0 time=0
note_off channel=5 note=64 velocity=0 time=4
note_off channel=5 note=69 velocity=0 time=0
note_off channel=5 note=72 velocity=0 time=0
note_off channel=6 note=60 velocity=0 time=4
note_off channel=4 note=52 velocity=0 time=4
note_off channel=5 note=79 velocity=0 time=0
note_off channel=4 note=57 velocity=0 time=0
note_off channel=4 note=60 velocity=0 time=0
note_off channel=4 note=67 velocity=0 time=8
note_on channel=5 note=64 velocity=87 time=44
note_on channel=5 note=72 velocity=95 time=0
note_on channel=5 note=79 velocity=105 time=0
note_on channel=5 note=69 velocity=92 time=0
note_on channel=2 note=67 velocity=95 time=4
note_on channel=4 note=52 velocity=87 time=0
note_on channel=2 note=60 velocity=90 time=0
note_on channel=4 note=60 velocity=95 time=0
note_on channel=2 note=64 velocity=93 time=0
note_on channel=4 note=67 velocity=105 time=0
note_on channel=2 note=57 velocity=90 time=0
note_on channel=4 note=57 velocity=92 time=0
note_off channel=2 note=33 velocity=0 time=100
note_on channel=2 note=33 velocity=111 time=88
note_off channel=5 note=69 velocity=0 time=28
note_off channel=2 note=57 velocity=0 time=4
note_off channel=2 note=67 velocity=0 time=4
note_off channel=4 note=57 velocity=0 time=0
note_off channel=5 note=72 velocity=0 time=0
note_off channel=2 note=64 velocity=0 time=0
note_off channel=5 note=64 velocity=0 time=4
note_off channel=4 note=60 velocity=0 time=4
note_off channel=5 note=79 velocity=0 time=0
note_off channel=4 note=52 velocity=0 time=4
note_off channel=2 note=60 velocity=0 time=4
note_off channel=4 note=67 velocity=0 time=0
note_on channel=5 note=64 velocity=85 time=132
note_on channel=5 note=72 velocity=93 time=0
note_on channel=5 note=69 velocity=89 time=0
note_on channel=2 note=60 velocity=90 time=4
note_on channel=5 note=76 velocity=93 time=0
note_on channel=2 note=57 velocity=86 time=0
note_on channel=2 note=64 velocity=101 time=0
note_on channel=4 note=52 velocity=85 time=4
note_on channel=4 note=60 velocity=93 time=0
note_on channel=4 note=57 velocity=89 time=0
note_on channel=4 note=64 velocity=93 time=4
note_off channel=2 note=64 velocity=0 time=224
note_off channel=2 note=60 velocity=0 time=12
note_off channel=5 note=72 velocity=0 time=0
note_off channel=5 note=76 velocity=0 time=0
note_off channel=2 note=57 velocity=0 time=4
note_off channel=4 note=60 velocity=0 time=0
note_off channel=4 note=64 velocity=0 time=0
note_off channel=5 note=69 velocity=0 time=4
note_off channel=5 note=64 velocity=0 time=4
note_off channel=4 note=57 velocity=0 time=4
note_off channel=4 note=52 velocity=0 time=4
note_on channel=5 note=69 velocity=97 time=116
note_on channel=2 note=57 velocity=92 time=4
note_on channel=5 note=74 velocity=102 time=0
note_on channel=5 note=76 velocity=99 time=0
note_on channel=2 note=67 velocity=101 time=4
note_on channel=4 note=57 velocity=97 time=0
note_on channel=2 note=62 velocity=95 time=0
note_on channel=2 note=38 velocity=107 time=4
note_on channel=4 note=62 velocity=102 time=0
note_on channel=4 note=64 velocity=99 time=0
note_off channel=2 note=33 velocity=0 time=16
MetaMessage('lyrics', text='\r', time=0)
MetaMessage('lyrics', text='ooh', time=172)
control_change channel=0 control=11 value=110 time=0
note_on channel=0 note=72 velocity=117 time=0
note_off channel=2 note=67 velocity=0 time=44
note_off channel=2 note=57 velocity=0 time=8
note_off channel=2 note=62 velocity=0 time=0
note_off channel=5 note=74 velocity=0 time=16
note_off channel=5 note=76 velocity=0 time=0
note_off channel=4 note=64 velocity=0 time=4
note_off channel=4 note=62 velocity=0 time=4
note_off channel=5 note=69 velocity=0 time=12
note_off channel=0 note=72 velocity=0 time=4
MetaMessage('lyrics', text=' ooh', time=4)
note_on channel=0 note=74 velocity=97 time=0
note_off channel=4 note=57 velocity=0 time=0
note_on channel=5 note=74 velocity=87 time=88
note_on channel=5 note=78 velocity=111 time=0
MetaMessage('lyrics', text=' ooh', time=8)
note_on channel=0 note=72 velocity=93 time=0
note_on channel=2 note=57 velocity=87 time=0
note_on channel=4 note=62 velocity=87 time=0
note_on channel=5 note=69 velocity=90 time=0
note_on channel=2 note=62 velocity=90 time=0
note_on channel=4 note=66 velocity=111 time=0
note_on channel=2 note=66 velocity=119 time=0
note_off channel=0 note=74 velocity=0 time=4
note_on channel=2 note=57 velocity=86 time=0
note_on channel=4 note=57 velocity=90 time=0
MetaMessage('lyrics', text=' ooh', time=92)
note_off channel=0 note=72 velocity=0 time=0
note_on channel=0 note=74 velocity=95 time=0
MetaMessage('lyrics', text=' ooh', time=92)
note_on channel=0 note=72 velocity=105 time=0
note_off channel=0 note=74 velocity=0 time=4
note_on channel=2 note=50 velocity=74 time=4
MetaMessage('lyrics', text=' ooh', time=92)
note_on channel=0 note=74 velocity=95 time=0
note_off channel=0 note=72 velocity=0 time=4
note_off channel=2 note=50 velocity=0 time=36
note_off channel=0 note=74 velocity=0 time=48
note_on channel=5 note=62 velocity=89 time=0
MetaMessage('lyrics', text=' ooh', time=8)
note_on channel=0 note=72 velocity=103 time=0
note_on channel=4 note=50 velocity=89 time=0
note_on channel=2 note=50 velocity=81 time=4
note_off channel=0 note=72 velocity=0 time=80
MetaMessage('lyrics', text=' ooh', time=8)
note_on channel=0 note=74 velocity=105 time=0
note_off channel=5 note=74 velocity=0 time=68
note_off channel=4 note=62 velocity=0 time=4
note_off channel=0 note=74 velocity=0 time=20
note_off channel=5 note=78 velocity=0 time=0
note_off channel=5 note=69 velocity=0 time=0
note_on channel=5 note=74 velocity=93 time=0
MetaMessage('lyrics', text=' ooh', time=4)
note_on channel=0 note=72 velocity=109 time=0
note_off channel=4 note=66 velocity=0 time=4
note_off channel=4 note=57 velocity=0 time=0
note_on channel=4 note=62 velocity=93 time=0
note_off channel=5 note=74 velocity=0 time=156
note_off channel=4 note=62 velocity=0 time=8
note_off channel=2 note=57 velocity=0 time=8
note_on channel=5 note=74 velocity=97 time=12
note_off channel=0 note=72 velocity=0 time=8
note_on channel=2 note=55 velocity=85 time=0
note_on channel=4 note=62 velocity=97 time=0
note_on channel=5 note=78 velocity=82 time=88
MetaMessage('lyrics', text=' ooh', time=8)
note_on channel=0 note=71 velocity=113 time=0
note_on channel=2 note=57 velocity=89 time=0
note_on channel=4 note=66 velocity=82 time=0
note_off channel=5 note=74 velocity=0 time=4
note_off channel=4 note=62 velocity=0 time=8
note_off channel=2 note=55 velocity=0 time=36
note_on channel=5 note=74 velocity=99 time=40
note_on channel=4 note=62 velocity=99 time=8
note_off channel=5 note=78 velocity=0 time=16
note_off channel=4 note=66 velocity=0 time=4
note_off channel=0 note=71 velocity=0 time=4
note_off channel=2 note=66 velocity=0 time=0
note_off channel=2 note=62 velocity=0 time=8
note_off channel=2 note=57 velocity=0 time=0
MetaMessage('lyrics', text=' ooh', time=64)
note_on channel=0 note=69 velocity=115 time=0
note_off channel=5 note=74 velocity=0 time=80
note_off channel=4 note=62 velocity=0 time=4
note_on channel=5 note=71 velocity=68 time=4
note_on channel=5 note=67 velocity=59 time=0
note_on channel=4 note=59 velocity=68 time=8
note_on channel=4 note=55 velocity=59 time=0
note_off channel=5 note=71 velocity=0 time=16
note_off channel=5 note=67 velocity=0 time=0
note_off channel=4 note=59 velocity=0 time=4
note_off channel=4 note=55 velocity=0 time=0
note_off channel=2 note=38 velocity=0 time=32
note_on channel=5 note=67 velocity=95 time=36
note_on channel=5 note=71 velocity=93 time=0
note_on channel=4 note=55 velocity=95 time=8
note_on channel=4 note=59 velocity=93 time=0
note_off channel=5 note=71 velocity=0 time=44
note_off channel=4 note=59 velocity=0 time=8
note_off channel=5 note=67 velocity=0 time=0
note_off channel=4 note=55 velocity=0 time=4
note_on channel=2 note=33 velocity=101 time=36
note_on channel=2 note=60 velocity=89 time=4
note_on channel=5 note=69 velocity=89 time=0
note_on channel=2 note=57 velocity=81 time=0
note_on channel=5 note=64 velocity=86 time=0
note_on channel=2 note=67 velocity=93 time=0
note_on channel=5 note=79 velocity=99 time=0
note_on channel=5 note=72 velocity=95 time=0
note_on channel=2 note=64 velocity=92 time=4
note_on channel=4 note=57 velocity=89 time=0
note_on channel=4 note=52 velocity=86 time=0
note_on channel=4 note=67 velocity=99 time=0
note_on channel=4 note=60 velocity=95 time=0
note_off channel=5 note=62 velocity=0 time=80
note_off channel=4 note=50 velocity=0 time=8
note_on channel=6 note=60 velocity=61 time=8
note_off channel=5 note=79 velocity=0 time=4
note_off channel=4 note=67 velocity=0 time=8
note_off channel=0 note=69 velocity=0 time=8
note_off channel=5 note=72 velocity=0 time=0
note_off channel=4 note=60 velocity=0 time=8
note_off channel=5 note=64 velocity=0 time=4
note_off channel=5 note=69 velocity=0 time=0
note_off channel=6 note=60 velocity=0 time=4
note_off channel=4 note=57 velocity=0 time=4
note_off channel=4 note=52 velocity=0 time=0
note_off channel=2 note=50 velocity=0 time=12
note_off channel=2 note=64 velocity=0 time=16
note_off channel=2 note=33 velocity=0 time=8
note_off channel=2 note=67 velocity=0 time=4
note_on channel=5 note=79 velocity=55 time=8
note_on channel=2 note=33 velocity=99 time=4
note_on channel=5 note=69 velocity=45 time=0
note_on channel=4 note=67 velocity=55 time=4
note_on channel=4 note=57 velocity=45 time=0
note_off channel=5 note=79 velocity=0 time=16
note_off channel=5 note=69 velocity=0 time=0
note_off channel=4 note=67 velocity=0 time=4
note_off channel=4 note=57 velocity=0 time=0
note_off channel=2 note=57 velocity=0 time=16
note_off channel=2 note=60 velocity=0 time=8
note_on channel=5 note=72 velocity=77 time=40
note_on channel=5 note=79 velocity=87 time=0
note_on channel=5 note=64 velocity=73 time=0
note_on channel=5 note=69 velocity=80 time=0
note_on channel=2 note=67 velocity=71 time=8
note_on channel=4 note=60 velocity=77 time=0
note_on channel=4 note=67 velocity=87 time=0
note_on channel=4 note=52 velocity=73 time=0
note_on channel=4 note=57 velocity=80 time=0
note_off channel=2 note=33 velocity=0 time=32
note_off channel=5 note=79 velocity=0 time=0
note_off channel=2 note=67 velocity=0 time=4
note_off channel=4 note=67 velocity=0 time=0
note_off channel=5 note=72 velocity=0 time=0
note_off channel=5 note=64 velocity=0 time=0
note_off channel=5 note=69 velocity=0 time=0
note_off channel=4 note=60 velocity=0 time=4
note_off channel=4 note=57 velocity=0 time=0
note_off channel=4 note=52 velocity=0 time=4
note_on channel=5 note=79 velocity=97 time=44
note_on channel=5 note=72 velocity=89 time=0
note_on channel=5 note=64 velocity=77 time=0
note_on channel=5 note=69 velocity=87 time=0
note_on channel=2 note=67 velocity=86 time=8
note_on channel=4 note=67 velocity=97 time=0
note_on channel=2 note=57 velocity=86 time=0
note_on channel=4 note=60 velocity=89 time=0
note_on channel=4 note=52 velocity=77 time=0
note_on channel=4 note=57 velocity=87 time=0
note_on channel=2 note=60 velocity=90 time=4
note_on channel=2 note=64 velocity=82 time=0
note_off channel=2 note=57 velocity=0 time=4
note_off channel=2 note=64 velocity=0 time=92
note_off channel=5 note=72 velocity=0 time=0
note_off channel=5 note=64 velocity=0 time=0
note_off channel=5 note=69 velocity=0 time=0
note_off channel=2 note=67 velocity=0 time=4
note_off channel=4 note=52 velocity=0 time=0
note_off channel=5 note=79 velocity=0 time=0
note_off channel=4 note=60 velocity=0 time=4
note_off channel=4 note=57 velocity=0 time=0
note_off channel=2 note=60 velocity=0 time=4
note_off channel=4 note=67 velocity=0 time=0
note_off channel=2 note=57 velocity=0 time=4
note_on channel=5 note=72 velocity=90 time=68
note_on channel=5 note=76 velocity=99 time=0
note_on channel=5 note=69 velocity=89 time=0
note_on channel=5 note=64 velocity=82 time=0
note_on channel=2 note=33 velocity=99 time=4
note_on channel=4 note=60 velocity=90 time=4
note_on channel=4 note=64 velocity=99 time=0
note_on channel=4 note=57 velocity=89 time=0
note_on channel=4 note=52 velocity=82 time=0
note_on channel=2 note=67 velocity=93 time=4
note_on channel=2 note=60 velocity=89 time=0
note_on channel=2 note=64 velocity=89 time=0
note_on channel=2 note=57 velocity=82 time=0
note_off channel=5 note=64 velocity=0 time=72
note_off channel=5 note=69 velocity=0 time=4
note_off channel=4 note=57 velocity=0 time=4
note_off channel=5 note=76 velocity=0 time=0
note_off channel=4 note=52 velocity=0 time=0
note_off channel=4 note=64 velocity=0 time=4
note_off channel=5 note=72 velocity=0 time=0
note_off channel=4 note=60 velocity=0 time=8
note_off channel=2 note=33 velocity=0 time=28
note_off channel=2 note=67 velocity=0 time=44
note_on channel=2 note=33 velocity=105 time=20
note_off channel=2 note=64 velocity=0 time=4
note_off channel=2 note=57 velocity=0 time=16
note_off channel=2 note=60 velocity=0 time=4
note_on channel=5 note=72 velocity=89 time=164
note_on channel=5 note=76 velocity=93 time=0
note_on channel=5 note=69 velocity=97 time=0
note_on channel=5 note=64 velocity=92 time=0
note_on channel=2 note=57 velocity=90 time=4
note_on channel=2 note=60 velocity=89 time=0
note_on channel=2 note=64 velocity=99 time=4
note_on channel=4 note=60 velocity=89 time=0
note_on channel=4 note=64 velocity=93 time=0
note_on channel=4 note=57 velocity=97 time=0
note_on channel=4 note=52 velocity=92 time=0
note_off channel=2 note=33 velocity=0 time=76
note_off channel=2 note=64 velocity=0 time=96
note_on channel=2 note=33 velocity=103 time=20
note_off channel=2 note=57 velocity=0 time=4
note_off channel=2 note=60 velocity=0 time=0
note_off channel=5 note=72 velocity=0 time=16
note_off channel=4 note=60 velocity=0 time=8
note_off channel=5 note=76 velocity=0 time=0
note_off channel=5 note=64 velocity=0 time=0
note_off channel=4 note=64 velocity=0 time=8
note_off channel=5 note=69 velocity=0 time=0
note_off channel=4 note=52 velocity=0 time=0
note_off channel=4 note=57 velocity=0 time=4
note_on channel=6 note=60 velocity=75 time=68
note_off channel=6 note=60 velocity=0 time=20
note_on channel=5 note=76 velocity=97 time=56
note_on channel=5 note=62 velocity=95 time=0
note_on channel=2 note=64 velocity=81 time=8
note_on channel=4 note=64 velocity=97 time=0
note_on channel=5 note=79 velocity=93 time=0
note_on channel=2 note=71 velocity=87 time=0
note_on channel=4 note=50 velocity=95 time=0
note_on channel=5 note=83 velocity=90 time=0
note_on channel=2 note=67 velocity=87 time=0
note_on channel=4 note=67 velocity=93 time=4
note_on channel=4 note=71 velocity=90 time=0
note_on channel=2 note=45 velocity=107 time=92
note_off channel=2 note=33 velocity=0 time=12
note_off channel=2 note=45 velocity=0 time=64
note_on channel=2 note=50 velocity=103 time=16
note_off channel=2 note=67 velocity=0 time=24
note_off channel=5 note=76 velocity=0 time=0
note_off channel=5 note=79 velocity=0 time=0
note_off channel=5 note=83 velocity=0 time=0
note_off channel=2 note=71 velocity=0 time=4
note_off channel=4 note=71 velocity=0 time=0
note_off channel=4 note=64 velocity=0 time=4
note_off channel=4 note=67 velocity=0 time=0
note_off channel=2 note=64 velocity=0 time=8
note_on channel=6 note=60 velocity=61 time=40
note_off channel=6 note=60 velocity=0 time=28
note_on channel=5 note=74 velocity=97 time=80
note_on channel=5 note=78 velocity=111 time=0
note_on channel=5 note=81 velocity=93 time=0
note_on channel=2 note=66 velocity=109 time=4
note_on channel=2 note=62 velocity=90 time=0
note_on channel=2 note=69 velocity=90 time=4
note_on channel=4 note=62 velocity=97 time=0
note_on channel=4 note=66 velocity=111 time=0
note_on channel=4 note=69 velocity=93 time=0
note_off channel=5 note=81 velocity=0 time=228
note_off channel=4 note=69 velocity=0 time=4
note_off channel=5 note=78 velocity=0 time=4
note_off channel=2 note=69 velocity=0 time=4
note_off channel=2 note=66 velocity=0 time=4
note_off channel=4 note=66 velocity=0 time=0
note_off channel=5 note=74 velocity=0 time=0
note_off channel=2 note=62 velocity=0 time=0
note_off channel=4 note=62 velocity=0 time=4
note_on channel=6 note=60 velocity=63 time=36
note_off channel=6 note=60 velocity=0 time=24
note_on channel=5 note=76 velocity=95 time=68
note_on channel=5 note=76 velocity=93 time=0
note_on channel=5 note=79 velocity=93 time=0
note_on channel=2 note=60 velocity=90 time=8
note_on channel=4 note=64 velocity=95 time=0
note_on channel=2 note=67 velocity=93 time=0
note_on channel=4 note=64 velocity=93 time=0
note_on channel=2 note=64 velocity=93 time=0
note_on channel=4 note=67 velocity=93 time=0
note_off channel=2 note=50 velocity=0 time=44
note_on channel=2 note=45 velocity=95 time=52
note_on channel=9 note=40 velocity=123 time=88
note_off channel=9 note=40 velocity=0 time=4
note_on channel=2 note=38 velocity=97 time=4
note_off channel=2 note=45 velocity=0 time=4
note_on channel=9 note=40 velocity=115 time=4
note_off channel=9 note=40 velocity=0 time=4
note_off channel=2 note=60 velocity=0 time=24
note_off channel=2 note=64 velocity=0 time=0
note_off channel=2 note=67 velocity=0 time=4
note_off channel=5 note=79 velocity=0 time=16
note_off channel=5 note=76 velocity=0 time=4
note_off channel=4 note=67 velocity=0 time=4
note_off channel=5 note=76 velocity=0 time=0
note_off channel=4 note=64 velocity=0 time=4
note_off channel=4 note=64 velocity=0 time=0
note_on channel=6 note=60 velocity=66 time=32
note_off channel=6 note=60 velocity=0 time=28
note_on channel=5 note=74 velocity=90 time=56
note_on channel=5 note=78 velocity=95 time=0
note_on channel=5 note=81 velocity=76 time=0
note_on channel=2 note=69 velocity=93 time=4
note_on channel=2 note=62 velocity=93 time=0
note_on channel=2 note=66 velocity=111 time=4
note_on channel=4 note=62 velocity=90 time=0
note_on channel=4 note=66 velocity=95 time=0
note_on channel=4 note=69 velocity=76 time=0
note_on channel=9 note=45 velocity=119 time=8
note_off channel=9 note=45 velocity=0 time=4
note_on channel=9 note=43 velocity=113 time=188
note_off channel=9 note=43 velocity=0 time=4
note_off channel=5 note=62 velocity=0 time=152
note_off channel=4 note=50 velocity=0 time=4
note_on channel=5 note=57 velocity=90 time=20
note_on channel=9 note=36 velocity=109 time=8
note_on channel=4 note=45 velocity=90 time=0
note_off channel=9 note=36 velocity=0 time=4
note_off channel=2 note=69 velocity=0 time=36
note_off channel=2 note=62 velocity=0 time=0
note_off channel=2 note=66 velocity=0 time=0
note_off channel=5 note=81 velocity=0 time=72
note_off channel=4 note=69 velocity=0 time=8
note_off channel=5 note=78 velocity=0 time=0
note_off channel=5 note=74 velocity=0 time=4
note_off channel=4 note=62 velocity=0 time=4
note_off channel=5 note=57 velocity=0 time=0
note_off channel=4 note=66 velocity=0 time=0
note_off channel=2 note=38 velocity=0 time=4
note_off channel=4 note=45 velocity=0 time=0
note_on channel=5 note=60 velocity=93 time=56
note_on channel=9 note=49 velocity=121 time=4
note_on channel=2 note=64 velocity=89 time=0
note_on channel=4 note=48 velocity=93 time=0
note_on channel=2 note=60 velocity=89 time=0
note_on channel=2 note=67 velocity=82 time=0
note_off channel=9 note=49 velocity=0 time=4
note_on channel=1 note=36 velocity=99 time=0
note_on channel=9 note=36 velocity=113 time=0
note_off channel=9 note=36 velocity=0 time=4
MetaMessage('set_tempo', tempo=714285, time=4)
note_on channel=2 note=48 velocity=93 time=12
note_on channel=6 note=60 velocity=72 time=60
note_off channel=6 note=60 velocity=0 time=36
note_on channel=5 note=64 velocity=89 time=60
note_on channel=4 note=52 velocity=89 time=8
MetaMessage('lyrics', text='\r', time=0)
MetaMessage('lyrics', text='If', time=4)
note_on channel=0 note=76 velocity=111 time=0
note_on channel=5 note=67 velocity=82 time=180
MetaMessage('lyrics', text=" there's", time=8)
note_on channel=0 note=74 velocity=105 time=0
note_on channel=9 note=42 velocity=105 time=0
note_on channel=4 note=55 velocity=82 time=0
note_off channel=9 note=42 velocity=0 time=4
note_on channel=9 note=40 velocity=117 time=0
note_off channel=9 note=40 velocity=0 time=0
note_off channel=0 note=76 velocity=0 time=8
note_on channel=6 note=60 velocity=72 time=84
note_off channel=6 note=60 velocity=0 time=40
note_off channel=0 note=74 velocity=0 time=44
note_on channel=5 note=72 velocity=87 time=0
MetaMessage('lyrics', text=' a', time=8)
note_on channel=0 note=72 velocity=99 time=0
note_on channel=4 note=60 velocity=87 time=0
note_on channel=9 note=44 velocity=95 time=8
note_off channel=9 note=44 velocity=0 time=4
note_off channel=2 note=64 velocity=0 time=64
note_off channel=2 note=67 velocity=0 time=8
note_off channel=2 note=60 velocity=0 time=4
note_off channel=1 note=36 velocity=0 time=80
note_off channel=5 note=60 velocity=0 time=4
note_off channel=4 note=48 velocity=0 time=8
note_on channel=2 note=47 velocity=95 time=4
note_on channel=5 note=59 velocity=93 time=0
MetaMessage('lyrics', text=' bus', time=8)
note_on channel=0 note=74 velocity=103 time=0
note_on channel=1 note=35 velocity=95 time=0
note_on channel=4 note=47 velocity=93 time=0
note_off channel=0 note=72 velocity=0 time=4
note_on channel=9 note=36 velocity=109 time=0
note_off channel=2 note=48 velocity=0 time=0
note_on channel=9 note=42 velocity=101 time=0
note_on channel=2 note=59 velocity=80 time=0
note_on channel=2 note=62 velocity=86 time=0
note_on channel=2 note=67 velocity=89 time=0
note_off channel=9 note=36 velocity=0 time=4
note_off channel=9 note=42 velocity=0 time=0
note_off channel=5 note=64 velocity=0 time=80
note_off channel=4 note=52 velocity=0 time=4
note_on channel=5 note=62 velocity=76 time=96
MetaMessage('lyrics', text='tle', time=4)
note_on channel=0 note=72 velocity=107 time=0
note_on channel=9 note=44 velocity=92 time=4
note_on channel=4 note=50 velocity=76 time=0
note_off channel=9 note=44 velocity=0 time=4
note_off channel=0 note=74 velocity=0 time=4
note_off channel=5 note=67 velocity=0 time=0
note_off channel=4 note=55 velocity=0 time=8
note_on channel=5 note=67 velocity=92 time=164
note_on channel=4 note=55 velocity=92 time=8
MetaMessage('lyrics', text=' in', time=4)
note_on channel=0 note=69 velocity=95 time=0
note_on channel=9 note=42 velocity=117 time=0
note_off channel=9 note=42 velocity=0 time=4
note_on channel=9 note=40 velocity=115 time=0
note_off channel=9 note=40 velocity=0 time=0
note_off channel=0 note=72 velocity=0 time=16
note_off channel=0 note=69 velocity=0 time=64
MetaMessage('lyrics', text=' your', time=12)
note_on channel=0 note=67 velocity=105 time=0
note_off channel=5 note=72 velocity=0 time=84
note_on channel=5 note=74 velocity=77 time=0
note_off channel=4 note=60 velocity=0 time=8
note_on channel=4 note=62 velocity=77 time=0
MetaMessage('lyrics', text=' hedge', time=4)
note_on channel=0 note=69 velocity=117 time=0
note_on channel=9 note=44 velocity=93 time=4
note_off channel=0 note=67 velocity=0 time=4
note_off channel=9 note=44 velocity=0 time=0
note_off channel=5 note=74 velocity=0 time=92
note_off channel=2 note=67 velocity=0 time=8
note_off channel=4 note=62 velocity=0 time=0
note_off channel=2 note=62 velocity=0 time=4
note_off channel=2 note=59 velocity=0 time=4
note_off channel=5 note=62 velocity=0 time=40
note_off channel=5 note=67 velocity=0 time=0
note_off channel=4 note=50 velocity=0 time=8
note_on channel=5 note=71 velocity=82 time=0
note_off channel=4 note=55 velocity=0 time=0
note_on channel=4 note=59 velocity=82 time=8
note_on channel=2 note=45 velocity=105 time=8
note_on channel=5 note=72 velocity=95 time=0
note_off channel=5 note=71 velocity=0 time=4
note_on channel=1 note=33 velocity=97 time=4
note_off channel=2 note=47 velocity=0 time=0
note_on channel=4 note=60 velocity=95 time=0
note_on channel=9 note=42 velocity=111 time=4
note_off channel=4 note=59 velocity=0 time=0
note_off channel=9 note=42 velocity=0 time=4
note_on channel=2 note=64 velocity=93 time=0
note_on channel=9 note=36 velocity=105 time=0
note_on channel=2 note=60 velocity=92 time=0
note_off channel=9 note=36 velocity=0 time=4
note_off channel=1 note=35 velocity=0 time=0
note_off channel=5 note=59 velocity=0 time=12
note_off channel=4 note=47 velocity=0 time=8
note_off channel=0 note=69 velocity=0 time=144
note_on channel=5 note=69 velocity=92 time=8
MetaMessage('lyrics', text='row', time=8)
note_on channel=0 note=72 velocity=109 time=0
note_on channel=4 note=57 velocity=92 time=0
note_on channel=9 note=44 velocity=89 time=8
note_off channel=5 note=72 velocity=0 time=0
note_off channel=9 note=44 velocity=0 time=0
note_off channel=4 note=60 velocity=0 time=4
note_on channel=5 note=57 velocity=99 time=176
note_on channel=9 note=42 velocity=113 time=4
note_off channel=9 note=42 velocity=0 time=4
note_on channel=4 note=45 velocity=99 time=0
note_on channel=9 note=40 velocity=113 time=0
note_off channel=9 note=40 velocity=0 time=4
MetaMessage('lyrics', text='\r', time=0)
MetaMessage('lyrics', text="Don't", time=92)
note_on channel=0 note=69 velocity=70 time=0
note_off channel=0 note=72 velocity=0 time=12
note_off channel=0 note=69 velocity=0 time=24
note_on channel=5 note=64 velocity=71 time=48
note_on channel=4 note=52 velocity=71 time=8
MetaMessage('lyrics', text=' be', time=4)
note_on channel=0 note=69 velocity=111 time=0
note_on channel=9 note=44 velocity=62 time=4
note_off channel=9 note=44 velocity=0 time=4
MetaMessage('lyrics', text=' alar', time=88)
note_off channel=0 note=69 velocity=0 time=0
note_on channel=0 note=67 velocity=95 time=0
note_off channel=5 note=69 velocity=0 time=16
note_off channel=4 note=57 velocity=0 time=4
note_on channel=5 note=69 velocity=89 time=64
note_off channel=0 note=67 velocity=0 time=4
MetaMessage('lyrics', text='med', time=4)
note_on channel=0 note=69 velocity=117 time=0
note_on channel=4 note=57 velocity=89 time=0
note_on channel=9 note=42 velocity=107 time=4
note_off channel=9 note=42 velocity=0 time=4
note_on channel=9 note=36 velocity=101 time=0
note_off channel=9 note=36 velocity=0 time=4
MetaMessage('lyrics', text=' no', time=84)
note_off channel=0 note=69 velocity=0 time=0
note_on channel=0 note=64 velocity=65 time=0
note_off channel=0 note=64 velocity=0 time=36
note_on channel=5 note=72 velocity=86 time=52
note_on channel=4 note=60 velocity=86 time=8
MetaMessage('lyrics', text='w', time=4)
note_on channel=0 note=64 velocity=111 time=0
note_on channel=9 note=36 velocity=99 time=4
note_off channel=9 note=36 velocity=0 time=0
note_on channel=9 note=44 velocity=80 time=0
note_off channel=9 note=44 velocity=0 time=4
note_off channel=2 note=45 velocity=0 time=84
note_off channel=5 note=57 velocity=0 time=0
note_off channel=4 note=45 velocity=0 time=8
note_on channel=5 note=57 velocity=90 time=84
note_on channel=9 note=42 velocity=109 time=8
note_on channel=4 note=45 velocity=90 time=0
note_off channel=9 note=42 velocity=0 time=4
note_on channel=9 note=40 velocity=115 time=0
note_off channel=9 note=40 velocity=0 time=4
note_off channel=1 note=33 velocity=0 time=76
note_off channel=2 note=64 velocity=0 time=8
note_off channel=0 note=64 velocity=0 time=76
note_on channel=2 note=47 velocity=101 time=12
note_on channel=5 note=59 velocity=97 time=4
note_on channel=9 note=44 velocity=99 time=8
note_on channel=1 note=35 velocity=90 time=0
note_on channel=4 note=47 velocity=97 time=0
note_off channel=9 note=44 velocity=0 time=4
note_on channel=2 note=67 velocity=101 time=0
note_off channel=5 note=57 velocity=0 time=0
note_on channel=9 note=36 velocity=90 time=0
note_off channel=9 note=36 velocity=0 time=4
note_off channel=4 note=45 velocity=0 time=4
note_off channel=2 note=67 velocity=0 time=72
note_off channel=2 note=60 velocity=0 time=4
note_off channel=5 note=64 velocity=0 time=84
note_off channel=2 note=47 velocity=0 time=8
note_off channel=4 note=52 velocity=0 time=0
note_off channel=5 note=59 velocity=0 time=0
note_on channel=5 note=60 velocity=101 time=0
note_off channel=4 note=47 velocity=0 time=4
note_on channel=2 note=48 velocity=99 time=4
note_on channel=4 note=48 velocity=101 time=0
note_on channel=2 note=67 velocity=90 time=4
note_on channel=2 note=64 velocity=86 time=0
note_on channel=9 note=36 velocity=103 time=4
note_on channel=1 note=36 velocity=89 time=0
note_on channel=2 note=60 velocity=89 time=0
note_on channel=9 note=42 velocity=101 time=0
note_off channel=9 note=36 velocity=0 time=4
note_off channel=9 note=42 velocity=0 time=0
note_off channel=1 note=35 velocity=0 time=20
note_off channel=5 note=69 velocity=0 time=20
note_off channel=4 note=57 velocity=0 time=4
note_on channel=6 note=60 velocity=61 time=48
note_off channel=6 note=60 velocity=0 time=36
note_on channel=5 note=64 velocity=80 time=48
MetaMessage('lyrics', text='\r', time=0)
MetaMessage('lyrics', text="It's", time=8)
note_on channel=0 note=72 velocity=87 time=0
note_on channel=4 note=52 velocity=80 time=0
note_on channel=9 note=44 velocity=78 time=4
note_off channel=9 note=44 velocity=0 time=4
note_off channel=5 note=72 velocity=0 time=8
note_off channel=4 note=60 velocity=0 time=4
note_off channel=0 note=72 velocity=0 time=88
note_on channel=5 note=67 velocity=92 time=76
MetaMessage('lyrics', text=' just', time=8)
note_on channel=0 note=72 velocity=103 time=0
note_on channel=9 note=40 velocity=113 time=0
note_on channel=4 note=55 velocity=92 time=0
note_on channel=9 note=42 velocity=111 time=0
note_off channel=9 note=40 velocity=0 time=4
note_off channel=9 note=42 velocity=0 time=0
note_on channel=5 note=72 velocity=85 time=180
MetaMessage('lyrics', text=' a', time=8)
note_on channel=0 note=76 velocity=105 time=0
note_on channel=9 note=44 velocity=74 time=0
note_on channel=4 note=60 velocity=85 time=0
note_off channel=9 note=44 velocity=0 time=4
note_off channel=0 note=72 velocity=0 time=16
note_off channel=2 note=60 velocity=0 time=44
note_off channel=2 note=64 velocity=0 time=4
note_off channel=2 note=67 velocity=0 time=16
note_off channel=1 note=36 velocity=0 time=88
note_on channel=5 note=59 velocity=93 time=8
note_on channel=2 note=47 velocity=92 time=8
note_on channel=4 note=47 velocity=93 time=0
MetaMessage('lyrics', text=' spring', time=4)
note_on channel=0 note=74 velocity=105 time=0
note_on channel=9 note=36 velocity=105 time=0
note_on channel=1 note=35 velocity=95 time=0
note_on channel=2 note=62 velocity=83 time=0
note_on channel=9 note=42 velocity=119 time=0
note_on channel=2 note=59 velocity=81 time=0
note_off channel=0 note=76 velocity=0 time=4
note_off channel=9 note=36 velocity=0 time=0
note_off channel=2 note=48 velocity=0 time=0
note_off channel=5 note=60 velocity=0 time=0
note_off channel=9 note=42 velocity=0 time=0
note_on channel=2 note=67 velocity=101 time=0
note_off channel=4 note=48 velocity=0 time=4
note_off channel=5 note=64 velocity=0 time=76
note_off channel=4 note=52 velocity=0 time=4
note_on channel=5 note=62 velocity=83 time=96
MetaMessage('lyrics', text=' clean', time=8)
note_off channel=0 note=74 velocity=0 time=0
note_on channel=4 note=50 velocity=83 time=0
note_on channel=0 note=72 velocity=103 time=0
note_on channel=9 note=40 velocity=63 time=4
note_off channel=9 note=40 velocity=0 time=4
note_off channel=5 note=67 velocity=0 time=12
note_off channel=4 note=55 velocity=0 time=8
note_on channel=9 note=40 velocity=87 time=68
note_off channel=9 note=40 velocity=0 time=4
note_on channel=5 note=67 velocity=89 time=84
note_off channel=0 note=72 velocity=0 time=4
MetaMessage('lyrics', text=' for', time=4)
note_on channel=0 note=69 velocity=109 time=0
note_on channel=9 note=40 velocity=115 time=0
note_on channel=4 note=55 velocity=89 time=0
note_off channel=9 note=40 velocity=0 time=4
note_off channel=5 note=72 velocity=0 time=0
note_off channel=4 note=60 velocity=0 time=8
note_off channel=1 note=35 velocity=0 time=52
note_off channel=2 note=59 velocity=0 time=16
note_off channel=2 note=67 velocity=0 time=0
note_off channel=2 note=62 velocity=0 time=8
MetaMessage('lyrics', text=' the', time=8)
note_on channel=0 note=67 velocity=105 time=0
note_off channel=0 note=69 velocity=0 time=4
note_on channel=6 note=60 velocity=75 time=8
note_off channel=6 note=60 velocity=0 time=20
note_off channel=0 note=67 velocity=0 time=4
note_off channel=5 note=62 velocity=0 time=16
note_off channel=4 note=50 velocity=0 time=8
note_off channel=5 note=67 velocity=0 time=0
note_off channel=2 note=47 velocity=0 time=8
note_off channel=4 note=55 velocity=0 time=0
note_on channel=5 note=65 velocity=77 time=16
note_on channel=5 note=71 velocity=93 time=0
note_on channel=5 note=60 velocity=87 time=0
note_on channel=4 note=53 velocity=77 time=4
note_on channel=5 note=76 velocity=85 time=0
note_on channel=5 note=69 velocity=82 time=0
note_on channel=9 note=36 velocity=103 time=4
note_on channel=2 note=41 velocity=95 time=0
note_on channel=4 note=59 velocity=93 time=0
note_on channel=4 note=48 velocity=87 time=0
note_off channel=9 note=36 velocity=0 time=4
note_on channel=1 note=29 velocity=97 time=0
note_on channel=2 note=60 velocity=85 time=0
note_on channel=4 note=64 velocity=85 time=0
note_on channel=5 note=53 velocity=103 time=0
note_on channel=4 note=57 velocity=82 time=0
MetaMessage('lyrics', text=' May', time=4)
note_on channel=0 note=72 velocity=117 time=0
note_on channel=9 note=44 velocity=101 time=0
note_on channel=2 note=65 velocity=97 time=0
note_on channel=4 note=41 velocity=103 time=0
note_on channel=2 note=57 velocity=72 time=0
note_off channel=9 note=44 velocity=0 time=4
note_off channel=5 note=59 velocity=0 time=4
note_off channel=4 note=47 velocity=0 time=8
note_off channel=2 note=41 velocity=0 time=76
note_off channel=2 note=65 velocity=0 time=44
note_off channel=2 note=57 velocity=0 time=4
note_off channel=2 note=60 velocity=0 time=12
note_on channel=9 note=42 velocity=109 time=36
note_off channel=9 note=42 velocity=0 time=4
note_off channel=5 note=53 velocity=0 time=0
note_off channel=4 note=41 velocity=0 time=4
note_off channel=1 note=29 velocity=0 time=4
note_on channel=6 note=60 velocity=61 time=64
note_off channel=6 note=60 velocity=0 time=28
note_off channel=5 note=69 velocity=0 time=20
note_off channel=5 note=71 velocity=0 time=0
note_off channel=5 note=76 velocity=0 time=0
note_off channel=4 note=57 velocity=0 time=8
note_off channel=4 note=59 velocity=0 time=0
note_off channel=4 note=64 velocity=0 time=0
note_off channel=5 note=60 velocity=0 time=4
note_off channel=5 note=65 velocity=0 time=0
note_off channel=4 note=48 velocity=0 time=8
note_off channel=4 note=53 velocity=0 time=0
note_off channel=0 note=72 velocity=0 time=36
note_on channel=5 note=76 velocity=90 time=0
note_on channel=5 note=69 velocity=90 time=0
note_on channel=5 note=72 velocity=90 time=0
note_on channel=2 note=45 velocity=97 time=4
note_on channel=4 note=64 velocity=90 time=0
note_on channel=5 note=57 velocity=111 time=0
note_on channel=4 note=57 velocity=90 time=0
note_on channel=5 note=64 velocity=90 time=0
note_on channel=1 note=33 velocity=103 time=4
note_on channel=4 note=60 velocity=90 time=0
note_on channel=9 note=36 velocity=109 time=4
note_on channel=4 note=45 velocity=111 time=0
note_on channel=4 note=52 velocity=90 time=0
MetaMessage('lyrics', text='Queen', time=4)
note_on channel=0 note=69 velocity=121 time=0
note_off channel=9 note=36 velocity=0 time=0
note_on channel=2 note=60 velocity=89 time=0
note_on channel=9 note=44 velocity=81 time=0
note_on channel=2 note=57 velocity=82 time=0
note_on channel=2 note=64 velocity=101 time=0
note_off channel=9 note=44 velocity=0 time=4
note_on channel=9 note=42 velocity=111 time=184
note_off channel=9 note=42 velocity=0 time=4
note_on channel=9 note=40 velocity=123 time=0
note_off channel=9 note=40 velocity=0 time=4
note_on channel=6 note=60 velocity=63 time=84
note_off channel=6 note=60 velocity=0 time=24
note_on channel=9 note=44 velocity=92 time=80
note_off channel=9 note=44 velocity=0 time=4
note_on channel=9 note=42 velocity=103 time=184
note_off channel=9 note=42 velocity=0 time=4
note_on channel=6 note=60 velocity=66 time=96
note_off channel=0 note=69 velocity=0 time=24
note_off channel=6 note=60 velocity=0 time=4
note_on channel=9 note=36 velocity=105 time=64
note_on channel=9 note=44 velocity=92 time=0
note_off channel=9 note=36 velocity=0 time=4
note_off channel=9 note=44 velocity=0 time=0
note_off channel=5 note=57 velocity=0 time=60
note_off channel=4 note=45 velocity=0 time=4
note_off channel=5 note=76 velocity=0 time=104
note_off channel=5 note=69 velocity=0 time=0
note_off channel=5 note=72 velocity=0 time=0
note_off channel=4 note=64 velocity=0 time=8
note_on channel=5 note=57 velocity=99 time=0
note_off channel=4 note=57 velocity=0 time=0
note_off channel=4 note=60 velocity=0 time=0
note_on channel=4 note=45 velocity=99 time=4
note_off channel=5 note=64 velocity=0 time=0
note_on channel=9 note=42 velocity=105 time=8
note_off channel=4 note=52 velocity=0 time=0
note_off channel=9 note=42 velocity=0 time=4
note_on channel=9 note=40 velocity=117 time=0
note_off channel=9 note=40 velocity=0 time=0
note_off channel=2 note=64 velocity=0 time=8
note_off channel=2 note=45 velocity=0 time=12
note_off channel=2 note=57 velocity=0 time=4
note_off channel=2 note=60 velocity=0 time=8
note_on channel=2 note=47 velocity=97 time=128
note_on channel=5 note=59 velocity=99 time=16
note_on channel=4 note=47 velocity=99 time=4
note_on channel=9 note=44 velocity=90 time=8
note_off channel=5 note=57 velocity=0 time=0
note_off channel=9 note=44 velocity=0 time=4
note_on channel=1 note=35 velocity=81 time=0
note_off channel=4 note=45 velocity=0 time=0
note_on channel=9 note=36 velocity=99 time=0
note_off channel=9 note=36 velocity=0 time=4
note_off channel=1 note=33 velocity=0 time=24
note_off channel=2 note=47 velocity=0 time=144
note_on channel=2 note=48 velocity=99 time=0
note_on channel=5 note=60 velocity=109 time=4
note_off channel=1 note=35 velocity=0 time=4
note_on channel=4 note=48 velocity=109 time=4
note_off channel=5 note=59 velocity=0 time=0
note_on channel=9 note=42 velocity=109 time=4
note_on channel=1 note=36 velocity=90 time=0
note_off channel=9 note=42 velocity=0 time=4
note_on channel=2 note=64 velocity=82 time=0
note_off channel=4 note=47 velocity=0 time=0
note_on channel=9 note=36 velocity=103 time=0
note_on channel=2 note=60 velocity=82 time=0
note_off channel=9 note=36 velocity=0 time=0
note_on channel=2 note=67 velocity=97 time=0
note_on channel=6 note=60 velocity=72 time=84
note_off channel=6 note=60 velocity=0 time=36
note_on channel=5 note=64 velocity=89 time=60
MetaMessage('lyrics', text='\r', time=0)
MetaMessage('lyrics', text='Yes', time=8)
note_on channel=0 note=76 velocity=111 time=0
note_on channel=9 note=44 velocity=83 time=0
note_on channel=4 note=52 velocity=89 time=0
note_off channel=9 note=44 velocity=0 time=4
note_on channel=5 note=67 velocity=82 time=180
MetaMessage('lyrics', text=' there', time=8)
note_on channel=0 note=74 velocity=101 time=0
note_on channel=4 note=55 velocity=82 time=0
note_off channel=0 note=76 velocity=0 time=4
note_on channel=9 note=42 velocity=115 time=0
note_off channel=9 note=42 velocity=0 time=0
note_on channel=9 note=40 velocity=111 time=0
note_off channel=9 note=40 velocity=0 time=4
note_on channel=6 note=60 velocity=72 time=88
note_off channel=6 note=60 velocity=0 time=40
note_off channel=0 note=74 velocity=0 time=44
note_on channel=5 note=72 velocity=87 time=0
MetaMessage('lyrics', text=' are', time=8)
note_on channel=0 note=72 velocity=107 time=0
note_on channel=4 note=60 velocity=87 time=0
note_on channel=9 note=44 velocity=99 time=4
note_off channel=9 note=44 velocity=0 time=4
note_off channel=2 note=64 velocity=0 time=72
note_off channel=2 note=60 velocity=0 time=0
note_off channel=2 note=67 velocity=0 time=20
note_on channel=2 note=62 velocity=89 time=76
note_off channel=2 note=48 velocity=0 time=4
note_on channel=2 note=47 velocity=99 time=0
note_on channel=2 note=59 velocity=87 time=0
note_on channel=2 note=67 velocity=95 time=4
note_on channel=1 note=35 velocity=86 time=8
note_on channel=5 note=59 velocity=103 time=0
MetaMessage('lyrics', text=' two', time=4)
note_on channel=0 note=74 velocity=95 time=0
note_on channel=9 note=42 velocity=115 time=0
note_off channel=0 note=72 velocity=0 time=4
note_off channel=9 note=42 velocity=0 time=0
note_on channel=4 note=47 velocity=103 time=0
note_on channel=9 note=36 velocity=89 time=0
note_off channel=9 note=36 velocity=0 time=4
note_off channel=1 note=36 velocity=0 time=4
note_off channel=5 note=60 velocity=0 time=16
note_off channel=4 note=48 velocity=0 time=8
note_off channel=5 note=64 velocity=0 time=48
note_off channel=4 note=52 velocity=0 time=4
note_on channel=5 note=62 velocity=76 time=96
MetaMessage('lyrics', text=' paths', time=8)
note_on channel=0 note=72 velocity=107 time=0
note_on channel=4 note=50 velocity=76 time=0
note_off channel=0 note=74 velocity=0 time=4
note_on channel=9 note=44 velocity=97 time=0
note_off channel=9 note=44 velocity=0 time=0
note_on channel=9 note=36 velocity=92 time=0
note_off channel=9 note=36 velocity=0 time=4
note_off channel=5 note=67 velocity=0 time=0
note_off channel=4 note=55 velocity=0 time=8
note_on channel=5 note=67 velocity=92 time=164
note_on channel=4 note=55 velocity=92 time=8
MetaMessage('lyrics', text=' you', time=4)
note_on channel=0 note=69 velocity=111 time=0
note_on channel=9 note=42 velocity=109 time=0
note_off channel=0 note=72 velocity=0 time=4
note_off channel=9 note=42 velocity=0 time=0
note_on channel=9 note=40 velocity=119 time=0
note_off channel=9 note=40 velocity=0 time=4
note_off channel=5 note=72 velocity=0 time=172
note_on channel=5 note=74 velocity=77 time=0
note_off channel=4 note=60 velocity=0 time=8
note_on channel=4 note=62 velocity=77 time=0
MetaMessage('lyrics', text=' can', time=4)
note_off channel=0 note=69 velocity=0 time=0
note_on channel=9 note=44 velocity=97 time=0
note_on channel=0 note=67 velocity=101 time=0
note_off channel=9 note=44 velocity=0 time=4
note_on channel=9 note=36 velocity=90 time=0
note_off channel=9 note=36 velocity=0 time=4
note_off channel=2 note=62 velocity=0 time=52
note_off channel=2 note=59 velocity=0 time=0
note_off channel=2 note=67 velocity=0 time=28
note_off channel=5 note=74 velocity=0 time=12
note_off channel=4 note=62 velocity=0 time=8
note_off channel=5 note=62 velocity=0 time=48
note_off channel=5 note=67 velocity=0 time=0
note_off channel=4 note=50 velocity=0 time=8
note_on channel=5 note=71 velocity=82 time=0
note_off channel=4 note=55 velocity=0 time=0
note_on channel=4 note=59 velocity=82 time=8
note_on channel=2 note=45 velocity=99 time=8
note_on channel=5 note=72 velocity=95 time=0
note_on channel=2 note=57 velocity=77 time=0
note_on channel=2 note=60 velocity=81 time=0
note_off channel=2 note=47 velocity=0 time=4
note_off channel=5 note=71 velocity=0 time=0
note_on channel=2 note=64 velocity=92 time=4
note_on channel=4 note=60 velocity=95 time=0
note_on channel=9 note=42 velocity=109 time=4
note_off channel=4 note=59 velocity=0 time=0
note_on channel=5 note=57 velocity=97 time=0
MetaMessage('lyrics', text=' go', time=4)
note_on channel=0 note=69 velocity=109 time=0
note_off channel=9 note=42 velocity=0 time=0
note_on channel=4 note=45 velocity=97 time=0
note_off channel=5 note=59 velocity=0 time=0
note_on channel=9 note=36 velocity=103 time=0
note_off channel=9 note=36 velocity=0 time=4
note_on channel=1 note=33 velocity=90 time=0
note_off channel=4 note=47 velocity=0 time=4
note_off channel=0 note=67 velocity=0 time=12
note_off channel=1 note=35 velocity=0 time=16
note_off channel=0 note=69 velocity=0 time=124
note_on channel=5 note=69 velocity=92 time=16
MetaMessage('lyrics', text=' by', time=8)
note_on channel=0 note=72 velocity=109 time=0
note_on channel=4 note=57 velocity=92 time=0
note_on channel=9 note=44 velocity=107 time=4
note_off channel=9 note=44 velocity=0 time=4
note_off channel=5 note=72 velocity=0 time=0
note_off channel=4 note=60 velocity=0 time=4
note_off channel=5 note=57 velocity=0 time=32
note_off channel=4 note=45 velocity=0 time=8
note_on channel=5 note=57 velocity=103 time=136
note_on channel=9 note=42 velocity=105 time=8
note_on channel=4 note=45 velocity=103 time=0
note_off channel=9 note=42 velocity=0 time=4
note_on channel=9 note=40 velocity=117 time=0
note_off channel=9 note=40 velocity=0 time=4
MetaMessage('lyrics', text='\r', time=0)
MetaMessage('lyrics', text='But', time=84)
note_on channel=0 note=69 velocity=81 time=0
note_off channel=0 note=72 velocity=0 time=4
note_off channel=0 note=69 velocity=0 time=36
note_on channel=5 note=64 velocity=71 time=48
note_on channel=4 note=52 velocity=71 time=8
MetaMessage('lyrics', text=' in', time=4)
note_on channel=0 note=69 velocity=105 time=0
note_on channel=9 note=44 velocity=99 time=4
note_off channel=9 note=44 velocity=0 time=0
note_off channel=2 note=64 velocity=0 time=76
note_off channel=0 note=69 velocity=0 time=12
MetaMessage('lyrics', text=' the', time=4)
note_on channel=0 note=67 velocity=97 time=0
note_off channel=5 note=69 velocity=0 time=16
note_off channel=4 note=57 velocity=0 time=4
note_on channel=5 note=69 velocity=89 time=64
note_off channel=0 note=67 velocity=0 time=4
note_on channel=2 note=64 velocity=89 time=4
note_on channel=4 note=57 velocity=89 time=0
MetaMessage('lyrics', text=' lo', time=4)
note_on channel=0 note=69 velocity=113 time=0
note_on channel=9 note=42 velocity=105 time=0
note_off channel=9 note=42 velocity=0 time=4
note_on channel=9 note=36 velocity=89 time=0
note_off channel=9 note=36 velocity=0 time=4
note_off channel=0 note=69 velocity=0 time=80
note_on channel=2 note=69 velocity=90 time=4
MetaMessage('lyrics', text='ng', time=4)
note_on channel=0 note=64 velocity=65 time=0
note_off channel=0 note=64 velocity=0 time=36
note_on channel=5 note=72 velocity=86 time=48
note_on channel=4 note=60 velocity=86 time=8
MetaMessage('lyrics', text=' run', time=4)
note_on channel=0 note=64 velocity=99 time=0
note_on channel=9 note=36 velocity=93 time=0
note_on channel=9 note=44 velocity=89 time=0
note_off channel=9 note=36 velocity=0 time=4
note_off channel=9 note=44 velocity=0 time=0
note_off channel=1 note=33 velocity=0 time=32
note_off channel=5 note=57 velocity=0 time=44
note_off channel=4 note=45 velocity=0 time=4
note_off channel=2 note=69 velocity=0 time=20
note_on channel=5 note=57 velocity=99 time=76
note_on channel=9 note=42 velocity=105 time=8
note_on channel=1 note=33 velocity=93 time=0
note_on channel=2 note=69 velocity=99 time=0
note_on channel=4 note=45 velocity=99 time=0
note_off channel=9 note=42 velocity=0 time=4
note_on channel=9 note=40 velocity=115 time=0
note_off channel=9 note=40 velocity=0 time=4
note_off channel=0 note=64 velocity=0 time=160
note_on channel=2 note=47 velocity=97 time=16
note_on channel=5 note=59 velocity=87 time=0
note_off channel=2 note=45 velocity=0 time=4
note_on channel=1 note=35 velocity=81 time=4
note_on channel=4 note=47 velocity=87 time=0
note_on channel=9 note=36 velocity=93 time=4
note_on channel=2 note=59 velocity=77 time=0
note_on channel=9 note=44 velocity=99 time=0
note_on channel=2 note=62 velocity=74 time=0
note_on channel=2 note=67 velocity=103 time=0
note_off channel=9 note=36 velocity=0 time=4
note_off channel=2 note=57 velocity=0 time=0
note_off channel=5 note=57 velocity=0 time=0
note_off channel=9 note=44 velocity=0 time=0
note_off channel=2 note=60 velocity=0 time=0
note_off channel=4 note=45 velocity=0 time=4
note_off channel=1 note=33 velocity=0 time=16
note_off channel=2 note=69 velocity=0 time=0
note_off channel=2 note=64 velocity=0 time=8
note_off channel=2 note=59 velocity=0 time=56
note_off channel=2 note=62 velocity=0 time=8
note_off channel=2 note=67 velocity=0 time=48
note_off channel=5 note=64 velocity=0 time=28
note_on channel=2 note=48 velocity=92 time=4
note_off channel=2 note=47 velocity=0 time=4
note_off channel=4 note=52 velocity=0 time=0
note_on channel=5 note=60 velocity=105 time=0
note_off channel=5 note=59 velocity=0 time=4
note_on channel=2 note=64 velocity=89 time=4
note_on channel=4 note=48 velocity=105 time=0
note_on channel=2 note=60 velocity=81 time=0
note_on channel=9 note=42 velocity=103 time=4
note_off channel=4 note=47 velocity=0 time=0
note_off channel=9 note=42 velocity=0 time=4
note_on channel=1 note=36 velocity=90 time=0
note_on channel=9 note=36 velocity=103 time=0
note_off channel=9 note=36 velocity=0 time=0
note_off channel=1 note=35 velocity=0 time=20
note_off channel=5 note=69 velocity=0 time=24
note_off channel=4 note=57 velocity=0 time=4
note_on channel=6 note=60 velocity=61 time=48
note_off channel=6 note=60 velocity=0 time=36
note_on channel=5 note=64 velocity=80 time=48
note_on channel=9 note=44 velocity=101 time=8
note_on channel=4 note=52 velocity=80 time=0
note_off channel=9 note=44 velocity=0 time=4
note_off channel=5 note=72 velocity=0 time=12
note_off channel=4 note=60 velocity=0 time=4
MetaMessage('lyrics', text='\r', time=0)
MetaMessage('lyrics', text="There's", time=72)
note_on channel=0 note=69 velocity=80 time=0
note_off channel=0 note=69 velocity=0 time=56
note_on channel=5 note=67 velocity=92 time=36
MetaMessage('lyrics', text=' still', time=8)
note_on channel=0 note=72 velocity=115 time=0
note_on channel=9 note=42 velocity=97 time=0
note_on channel=2 note=67 velocity=97 time=0
note_on channel=4 note=55 velocity=92 time=0
note_off channel=9 note=42 velocity=0 time=4
note_on channel=9 note=40 velocity=113 time=0
note_off channel=9 note=40 velocity=0 time=4
note_on channel=5 note=72 velocity=85 time=176
note_on channel=4 note=60 velocity=85 time=8
MetaMessage('lyrics', text=' time', time=4)
note_on channel=0 note=76 velocity=95 time=0
note_on channel=9 note=44 velocity=78 time=0
note_off channel=9 note=44 velocity=0 time=0
note_off channel=0 note=72 velocity=0 time=12
note_off channel=2 note=67 velocity=0 time=56
note_off channel=2 note=60 velocity=0 time=12
note_off channel=2 note=64 velocity=0 time=4
note_on channel=2 note=47 velocity=97 time=92
note_on channel=5 note=59 velocity=101 time=0
note_off channel=2 note=48 velocity=0 time=4
note_off channel=0 note=76 velocity=0 time=4
note_on channel=9 note=36 velocity=101 time=0
note_on channel=4 note=47 velocity=101 time=0
MetaMessage('lyrics', text=' to', time=4)
note_on channel=0 note=74 velocity=111 time=0
note_off channel=9 note=36 velocity=0 time=0
note_on channel=2 note=62 velocity=82 time=0
note_off channel=5 note=60 velocity=0 time=0
note_on channel=9 note=42 velocity=105 time=0
note_on channel=2 note=59 velocity=80 time=0
note_off channel=9 note=42 velocity=0 time=4
note_on channel=1 note=35 velocity=95 time=0
note_on channel=2 note=67 velocity=97 time=0
note_off channel=4 note=48 velocity=0 time=0
note_off channel=1 note=36 velocity=0 time=8
note_off channel=5 note=64 velocity=0 time=72
note_off channel=4 note=52 velocity=0 time=4
note_off channel=0 note=74 velocity=0 time=96
note_on channel=5 note=62 velocity=83 time=0
MetaMessage('lyrics', text=' change', time=8)
note_on channel=0 note=72 velocity=97 time=0
note_on channel=4 note=50 velocity=83 time=0
note_off channel=5 note=67 velocity=0 time=20
note_off channel=4 note=55 velocity=0 time=8
note_off channel=0 note=72 velocity=0 time=56
MetaMessage('lyrics', text=' the', time=12)
note_on channel=0 note=74 velocity=107 time=0
note_on channel=9 note=40 velocity=80 time=4
note_off channel=9 note=40 velocity=0 time=4
note_on channel=5 note=67 velocity=89 time=80
note_on channel=4 note=55 velocity=89 time=8
note_on channel=9 note=40 velocity=89 time=4
note_off channel=5 note=72 velocity=0 time=0
note_off channel=9 note=40 velocity=0 time=0
note_off channel=4 note=60 velocity=0 time=8
note_off channel=0 note=74 velocity=0 time=68
note_off channel=2 note=59 velocity=0 time=4
note_off channel=2 note=67 velocity=0 time=0
note_off channel=1 note=35 velocity=0 time=4
note_off channel=2 note=62 velocity=0 time=0
MetaMessage('lyrics', text=' road', time=8)
note_on channel=0 note=69 velocity=83 time=0
note_on channel=9 note=40 velocity=111 time=0
note_off channel=9 note=40 velocity=0 time=4
note_on channel=6 note=60 velocity=75 time=8
note_off channel=6 note=60 velocity=0 time=20
note_off channel=5 note=62 velocity=0 time=20
note_off channel=4 note=50 velocity=0 time=8
note_off channel=5 note=67 velocity=0 time=0
note_off channel=4 note=55 velocity=0 time=8
note_off channel=5 note=59 velocity=0 time=12
note_off channel=4 note=47 velocity=0 time=4
note_on channel=5 note=65 velocity=77 time=0
note_on channel=5 note=53 velocity=101 time=0
note_on channel=5 note=71 velocity=93 time=0
note_on channel=5 note=60 velocity=87 time=0
note_off channel=0 note=69 velocity=0 time=4
note_on channel=4 note=53 velocity=77 time=0
note_on channel=5 note=76 velocity=85 time=0
note_on channel=5 note=69 velocity=82 time=0
note_on channel=2 note=41 velocity=89 time=4
note_on channel=4 note=41 velocity=101 time=0
note_on channel=4 note=59 velocity=93 time=0
note_on channel=4 note=48 velocity=87 time=0
note_on channel=9 note=36 velocity=111 time=4
note_on channel=1 note=29 velocity=99 time=0
note_on channel=4 note=64 velocity=85 time=0
note_on channel=4 note=57 velocity=82 time=0
note_off channel=9 note=36 velocity=0 time=4
note_off channel=2 note=47 velocity=0 time=0
note_on channel=9 note=44 velocity=113 time=0
note_on channel=2 note=65 velocity=103 time=0
note_on channel=2 note=60 velocity=103 time=0
note_on channel=2 note=57 velocity=87 time=0
MetaMessage('lyrics', text=" you'", time=4)
note_on channel=0 note=72 velocity=115 time=0
note_off channel=9 note=44 velocity=0 time=0
note_off channel=2 note=41 velocity=0 time=52
note_off channel=2 note=65 velocity=0 time=76
note_off channel=1 note=29 velocity=0 time=28
note_off channel=2 note=60 velocity=0 time=8
note_off channel=2 note=57 velocity=0 time=4
note_on channel=9 note=42 velocity=105 time=20
note_off channel=9 note=42 velocity=0 time=0
note_on channel=6 note=60 velocity=61 time=72
MetaMessage('lyrics', text='re', time=20)
note_on channel=0 note=69 velocity=82 time=0
note_off channel=5 note=53 velocity=0 time=0
note_off channel=4 note=41 velocity=0 time=4
note_off channel=6 note=60 velocity=0 time=4
note_off channel=0 note=72 velocity=0 time=12
note_off channel=0 note=69 velocity=0 time=0
note_off channel=5 note=69 velocity=0 time=8
note_off channel=5 note=71 velocity=0 time=0
note_off channel=5 note=76 velocity=0 time=0
note_off channel=4 note=57 velocity=0 time=8
note_off channel=4 note=59 velocity=0 time=0
note_off channel=4 note=64 velocity=0 time=0
note_off channel=5 note=60 velocity=0 time=4
note_off channel=5 note=65 velocity=0 time=0
note_off channel=4 note=48 velocity=0 time=8
note_off channel=4 note=53 velocity=0 time=0
note_on channel=5 note=76 velocity=90 time=36
note_on channel=5 note=69 velocity=90 time=0
note_on channel=5 note=72 velocity=90 time=0
note_on channel=4 note=64 velocity=90 time=4
note_on channel=5 note=57 velocity=107 time=0
note_on channel=4 note=57 velocity=90 time=0
note_on channel=5 note=64 velocity=90 time=0
note_on channel=1 note=33 velocity=105 time=4
note_on channel=4 note=60 velocity=90 time=0
MetaMessage('lyrics', text=' on', time=4)
note_on channel=0 note=69 velocity=109 time=0
note_on channel=9 note=36 velocity=115 time=0
note_on channel=2 note=45 velocity=95 time=0
note_on channel=4 note=45 velocity=107 time=0
note_on channel=2 note=60 velocity=86 time=0
note_on channel=4 note=52 velocity=90 time=0
note_off channel=9 note=36 velocity=0 time=4
note_on channel=2 note=57 velocity=83 time=0
note_on channel=9 note=44 velocity=89 time=0
note_on channel=2 note=45 velocity=107 time=0
note_on channel=2 note=64 velocity=93 time=0
note_off channel=9 note=44 velocity=0 time=4
note_on channel=9 note=42 velocity=103 time=188
note_off channel=9 note=42 velocity=0 time=0
note_on channel=9 note=40 velocity=100 time=8
note_off channel=9 note=40 velocity=0 time=4
note_on channel=6 note=60 velocity=63 time=76
note_off channel=6 note=60 velocity=0 time=24
note_on channel=9 note=44 velocity=97 time=80
note_off channel=9 note=44 velocity=0 time=4
note_on channel=9 note=42 velocity=99 time=184
note_off channel=9 note=42 velocity=0 time=4
note_off channel=2 note=45 velocity=0 time=68
note_on channel=6 note=60 velocity=66 time=28
note_off channel=6 note=60 velocity=0 time=28
note_on channel=9 note=44 velocity=95 time=64
note_off channel=9 note=44 velocity=0 time=4
note_on channel=9 note=36 velocity=113 time=0
note_off channel=9 note=36 velocity=0 time=0
note_off channel=5 note=57 velocity=0 time=48
note_off channel=4 note=45 velocity=0 time=8
note_off channel=0 note=69 velocity=0 time=64
note_off channel=5 note=76 velocity=0 time=48
note_off channel=5 note=69 velocity=0 time=0
note_off channel=5 note=72 velocity=0 time=0
note_off channel=4 note=64 velocity=0 time=8
note_on channel=5 note=57 velocity=101 time=0
note_off channel=4 note=57 velocity=0 time=0
note_off channel=4 note=60 velocity=0 time=0
note_off channel=5 note=64 velocity=0 time=4
note_on channel=4 note=45 velocity=101 time=4
note_on channel=9 note=42 velocity=99 time=4
note_off channel=4 note=52 velocity=0 time=0
note_off channel=9 note=42 velocity=0 time=4
note_off channel=2 note=64 velocity=0 time=0
note_on channel=9 note=40 velocity=119 time=0
note_off channel=9 note=40 velocity=0 time=4
note_off channel=2 note=57 velocity=0 time=8
note_off channel=2 note=60 velocity=0 time=4
note_off channel=2 note=45 velocity=0 time=28
note_on channel=5 note=59 velocity=89 time=132
note_off channel=5 note=57 velocity=0 time=4
note_on channel=1 note=35 velocity=85 time=4
note_on channel=2 note=59 velocity=82 time=0
note_on channel=4 note=47 velocity=89 time=0
note_on channel=2 note=62 velocity=89 time=0
note_on channel=9 note=36 velocity=105 time=4
note_on channel=2 note=67 velocity=95 time=0
note_off channel=4 note=45 velocity=0 time=0
note_off channel=9 note=36 velocity=0 time=4
note_on channel=2 note=47 velocity=101 time=0
note_on channel=9 note=44 velocity=101 time=0
note_off channel=9 note=44 velocity=0 time=4
note_off channel=1 note=33 velocity=0 time=0
note_off channel=2 note=67 velocity=0 time=108
note_off channel=2 note=59 velocity=0 time=16
note_off channel=2 note=62 velocity=0 time=0
note_off channel=5 note=59 velocity=0 time=48
note_on channel=5 note=60 velocity=105 time=0
note_off channel=4 note=47 velocity=0 time=8
note_on channel=4 note=48 velocity=105 time=0
note_on channel=1 note=36 velocity=103 time=4
note_on channel=2 note=67 velocity=89 time=0
note_on channel=2 note=60 velocity=81 time=0
note_on channel=9 note=42 velocity=97 time=4
note_on channel=2 note=64 velocity=97 time=0
note_off channel=9 note=42 velocity=0 time=0
note_on channel=2 note=48 velocity=95 time=0
note_on channel=9 note=36 velocity=117 time=4
note_off channel=9 note=36 velocity=0 time=4
note_off channel=1 note=35 velocity=0 time=8
note_off channel=2 note=47 velocity=0 time=0
note_on channel=5 note=64 velocity=89 time=164
note_on channel=4 note=52 velocity=89 time=8
note_on channel=9 note=44 velocity=93 time=4
note_off channel=9 note=44 velocity=0 time=0
note_on channel=5 note=67 velocity=82 time=180
note_on channel=4 note=55 velocity=82 time=8
note_on channel=9 note=40 velocity=117 time=4
note_on channel=9 note=42 velocity=103 time=0
note_off channel=9 note=40 velocity=0 time=4
note_off channel=9 note=42 velocity=0 time=0
note_on channel=5 note=72 velocity=87 time=172
note_on channel=4 note=60 velocity=87 time=8
note_on channel=9 note=44 velocity=90 time=8
note_off channel=9 note=44 velocity=0 time=4
note_off channel=2 note=64 velocity=0 time=56
note_off channel=2 note=60 velocity=0 time=4
note_off channel=2 note=67 velocity=0 time=24
note_off channel=2 note=48 velocity=0 time=88
note_off channel=1 note=36 velocity=0 time=4
note_on channel=5 note=59 velocity=107 time=0
note_on channel=1 note=35 velocity=93 time=4
note_on channel=2 note=62 velocity=87 time=0
note_on channel=9 note=36 velocity=107 time=4
note_on channel=2 note=47 velocity=90 time=0
note_on channel=4 note=47 velocity=107 time=0
note_on channel=9 note=42 velocity=101 time=0
note_on channel=2 note=59 velocity=81 time=0
note_on channel=2 note=67 velocity=92 time=0
note_off channel=9 note=36 velocity=0 time=4
note_off channel=9 note=42 velocity=0 time=0
note_off channel=5 note=60 velocity=0 time=24
note_off channel=4 note=48 velocity=0 time=8
note_off channel=5 note=64 velocity=0 time=48
note_off channel=4 note=52 velocity=0 time=4
note_on channel=5 note=62 velocity=76 time=96
note_on channel=9 note=40 velocity=109 time=8
note_on channel=4 note=50 velocity=76 time=0
note_off channel=9 note=40 velocity=0 time=4
note_on channel=9 note=44 velocity=93 time=0
note_off channel=9 note=44 velocity=0 time=4
note_off channel=5 note=67 velocity=0 time=0
note_off channel=4 note=55 velocity=0 time=8
note_on channel=9 note=40 velocity=119 time=80
note_off channel=9 note=40 velocity=0 time=4
note_on channel=5 note=67 velocity=92 time=80
note_on channel=4 note=55 velocity=92 time=8
note_on channel=9 note=42 velocity=109 time=4
note_off channel=9 note=42 velocity=0 time=4
MetaMessage('set_tempo', tempo=722891, time=4)
note_on channel=9 note=40 velocity=87 time=92
note_off channel=9 note=40 velocity=0 time=4
note_off channel=2 note=47 velocity=0 time=28
note_off channel=5 note=72 velocity=0 time=48
note_on channel=5 note=74 velocity=77 time=0
note_off channel=4 note=60 velocity=0 time=8
note_on channel=4 note=62 velocity=77 time=0
note_on channel=9 note=40 velocity=111 time=4
note_on channel=2 note=45 velocity=97 time=0
note_off channel=9 note=40 velocity=0 time=4
note_on channel=9 note=40 velocity=121 time=92
note_off channel=9 note=40 velocity=0 time=4
note_off channel=5 note=74 velocity=0 time=0
note_off channel=4 note=62 velocity=0 time=8
note_off channel=5 note=59 velocity=0 time=24
note_off channel=4 note=47 velocity=0 time=4
note_off channel=5 note=62 velocity=0 time=20
note_off channel=5 note=67 velocity=0 time=0
note_off channel=4 note=50 velocity=0 time=8
note_off channel=4 note=55 velocity=0 time=0
note_off channel=2 note=59 velocity=0 time=20
note_on channel=1 note=33 velocity=82 time=8
note_off channel=2 note=45 velocity=0 time=0
note_on channel=5 note=64 velocity=82 time=0
note_on channel=5 note=69 velocity=89 time=0
note_on channel=5 note=79 velocity=97 time=0
note_on channel=5 note=72 velocity=93 time=0
note_on channel=9 note=36 velocity=117 time=4
note_on channel=2 note=57 velocity=82 time=0
note_on channel=4 note=52 velocity=82 time=0
note_off channel=9 note=36 velocity=0 time=0
note_on channel=2 note=33 velocity=97 time=0
note_on channel=4 note=57 velocity=89 time=0
note_on channel=2 note=60 velocity=85 time=0
note_on channel=4 note=67 velocity=97 time=0
note_on channel=2 note=67 velocity=92 time=0
note_on channel=4 note=60 velocity=93 time=0
note_on channel=2 note=64 velocity=93 time=0
note_on channel=9 note=51 velocity=90 time=4
note_off channel=1 note=35 velocity=0 time=0
note_off channel=9 note=51 velocity=0 time=4
note_off channel=2 note=62 velocity=0 time=0
note_off channel=2 note=67 velocity=0 time=8
note_on channel=6 note=60 velocity=72 time=68
note_off channel=6 note=60 velocity=0 time=36
note_off channel=5 note=72 velocity=0 time=8
note_off channel=4 note=60 velocity=0 time=4
note_off channel=5 note=64 velocity=0 time=0
note_off channel=4 note=52 velocity=0 time=8
note_off channel=5 note=69 velocity=0 time=0
note_off channel=5 note=79 velocity=0 time=0
note_off channel=4 note=57 velocity=0 time=4
note_off channel=4 note=67 velocity=0 time=0
note_off channel=2 note=64 velocity=0 time=28
note_on channel=5 note=69 velocity=46 time=16
note_on channel=5 note=79 velocity=63 time=0
note_on channel=9 note=53 velocity=80 time=4
note_off channel=2 note=67 velocity=0 time=0
note_on channel=4 note=57 velocity=46 time=0
note_on channel=4 note=67 velocity=63 time=0
note_off channel=9 note=53 velocity=0 time=4
note_off channel=5 note=69 velocity=0 time=12
note_off channel=5 note=79 velocity=0 time=0
note_off channel=4 note=57 velocity=0 time=4
note_off channel=4 note=67 velocity=0 time=4
note_off channel=2 note=57 velocity=0 time=8
note_off channel=2 note=60 velocity=0 time=0
note_on channel=5 note=69 velocity=62 time=52
note_on channel=2 note=67 velocity=67 time=4
note_on channel=4 note=57 velocity=62 time=4
note_on channel=5 note=79 velocity=72 time=0
note_on channel=5 note=72 velocity=45 time=0
note_on channel=4 note=67 velocity=72 time=4
note_on channel=4 note=60 velocity=45 time=0
note_off channel=5 note=72 velocity=0 time=12
note_off channel=4 note=60 velocity=0 time=4
note_off channel=5 note=79 velocity=0 time=0
note_off channel=2 note=67 velocity=0 time=4
note_off channel=4 note=67 velocity=0 time=0
note_off channel=5 note=69 velocity=0 time=0
note_off channel=4 note=57 velocity=0 time=8
note_on channel=5 note=64 velocity=90 time=56
note_on channel=5 note=69 velocity=97 time=4
note_on channel=9 note=51 velocity=92 time=4
note_on channel=2 note=60 velocity=90 time=0
note_on channel=4 note=52 velocity=90 time=0
note_on channel=5 note=72 velocity=97 time=0
note_on channel=2 note=57 velocity=90 time=0
note_on channel=5 note=79 velocity=101 time=0
note_on channel=2 note=67 velocity=95 time=0
note_on channel=2 note=64 velocity=89 time=0
note_off channel=9 note=51 velocity=0 time=4
note_on channel=4 note=57 velocity=97 time=0
note_on channel=9 note=40 velocity=119 time=0
note_on channel=4 note=60 velocity=97 time=0
note_on channel=4 note=67 velocity=101 time=0
note_off channel=9 note=40 velocity=0 time=4
note_on channel=6 note=60 velocity=72 time=88
note_off channel=2 note=67 velocity=0 time=4
note_off channel=2 note=64 velocity=0 time=8
note_off channel=2 note=60 velocity=0 time=20
note_off channel=2 note=57 velocity=0 time=0
note_off channel=5 note=64 velocity=0 time=4
note_off channel=5 note=69 velocity=0 time=0
note_off channel=5 note=72 velocity=0 time=0
note_off channel=6 note=60 velocity=0 time=4
note_off channel=4 note=52 velocity=0 time=4
note_off channel=5 note=79 velocity=0 time=0
note_off channel=4 note=57 velocity=0 time=0
note_off channel=4 note=60 velocity=0 time=0
note_off channel=4 note=67 velocity=0 time=8
note_on channel=9 note=36 velocity=111 time=44
note_on channel=5 note=64 velocity=87 time=0
note_on channel=9 note=53 velocity=60 time=0
note_on channel=5 note=72 velocity=95 time=0
note_on channel=5 note=79 velocity=105 time=0
note_on channel=5 note=69 velocity=92 time=0
note_off channel=9 note=36 velocity=0 time=4
note_on channel=2 note=67 velocity=95 time=0
note_on channel=4 note=52 velocity=87 time=0
note_off channel=9 note=53 velocity=0 time=0
note_on channel=2 note=60 velocity=90 time=0
note_on channel=4 note=60 velocity=95 time=0
note_on channel=2 note=64 velocity=93 time=0
note_on channel=4 note=67 velocity=105 time=0
note_on channel=2 note=57 velocity=90 time=0
note_on channel=4 note=57 velocity=92 time=0
note_off channel=1 note=33 velocity=0 time=180
note_on channel=1 note=45 velocity=103 time=4
note_on channel=9 note=51 velocity=97 time=4
note_off channel=9 note=51 velocity=0 time=4
note_off channel=5 note=69 velocity=0 time=24
note_off channel=2 note=57 velocity=0 time=4
note_off channel=2 note=67 velocity=0 time=4
note_off channel=4 note=57 velocity=0 time=0
note_off channel=5 note=72 velocity=0 time=0
note_off channel=2 note=64 velocity=0 time=0
note_off channel=5 note=64 velocity=0 time=4
note_off channel=4 note=60 velocity=0 time=4
note_off channel=5 note=79 velocity=0 time=0
note_off channel=4 note=52 velocity=0 time=4
note_off channel=2 note=60 velocity=0 time=4
note_off channel=4 note=67 velocity=0 time=0
note_on channel=5 note=64 velocity=85 time=132
note_on channel=5 note=72 velocity=93 time=0
note_on channel=5 note=69 velocity=89 time=0
note_on channel=1 note=40 velocity=103 time=4
note_on channel=2 note=60 velocity=90 time=0
note_on channel=5 note=76 velocity=93 time=0
note_on channel=2 note=57 velocity=86 time=0
note_on channel=2 note=64 velocity=101 time=0
note_on channel=9 note=53 velocity=83 time=4
note_on channel=4 note=52 velocity=85 time=0
note_on channel=4 note=60 velocity=93 time=0
note_on channel=4 note=57 velocity=89 time=0
note_off channel=9 note=53 velocity=0 time=4
note_off channel=1 note=45 velocity=0 time=0
note_on channel=4 note=64 velocity=93 time=0
note_on channel=9 note=36 velocity=111 time=0
note_off channel=9 note=36 velocity=0 time=4
note_on channel=9 note=51 velocity=95 time=184
note_off channel=9 note=51 velocity=0 time=4
note_on channel=9 note=40 velocity=113 time=0
note_off channel=9 note=40 velocity=0 time=4
note_off channel=2 note=64 velocity=0 time=28
note_off channel=2 note=60 velocity=0 time=12
note_off channel=5 note=72 velocity=0 time=0
note_off channel=5 note=76 velocity=0 time=0
note_off channel=2 note=57 velocity=0 time=4
note_off channel=4 note=60 velocity=0 time=0
note_off channel=4 note=64 velocity=0 time=0
note_off channel=5 note=69 velocity=0 time=4
note_off channel=5 note=64 velocity=0 time=4
note_off channel=4 note=57 velocity=0 time=4
note_off channel=4 note=52 velocity=0 time=4
note_off channel=1 note=40 velocity=0 time=32
note_on channel=5 note=69 velocity=97 time=84
note_on channel=2 note=57 velocity=92 time=4
note_on channel=5 note=74 velocity=102 time=0
note_on channel=5 note=76 velocity=99 time=0
note_on channel=9 note=53 velocity=65 time=4
note_on channel=1 note=38 velocity=103 time=0
note_on channel=2 note=67 velocity=101 time=0
note_on channel=4 note=57 velocity=97 time=0
note_on channel=2 note=62 velocity=95 time=0
note_off channel=9 note=53 velocity=0 time=4
note_off channel=2 note=33 velocity=0 time=0
note_on channel=4 note=62 velocity=102 time=0
note_on channel=2 note=38 velocity=105 time=0
note_on channel=4 note=64 velocity=99 time=0
note_on channel=9 note=36 velocity=97 time=4
note_off channel=9 note=36 velocity=0 time=4
note_on channel=9 note=51 velocity=85 time=180
note_off channel=9 note=51 velocity=0 time=4
note_on channel=9 note=36 velocity=95 time=0
note_off channel=9 note=36 velocity=0 time=4
note_off channel=2 note=67 velocity=0 time=36
note_off channel=2 note=57 velocity=0 time=8
note_off channel=2 note=62 velocity=0 time=0
note_off channel=5 note=74 velocity=0 time=16
note_off channel=5 note=76 velocity=0 time=0
note_off channel=4 note=64 velocity=0 time=4
note_off channel=4 note=62 velocity=0 time=4
note_off channel=5 note=69 velocity=0 time=12
note_off channel=4 note=57 velocity=0 time=8
note_on channel=9 note=40 velocity=113 time=4
note_off channel=9 note=40 velocity=0 time=4
note_off channel=1 note=38 velocity=0 time=12
note_on channel=9 note=53 velocity=71 time=68
note_on channel=5 note=74 velocity=87 time=0
note_on channel=5 note=78 velocity=111 time=0
note_off channel=9 note=53 velocity=0 time=4
note_on channel=9 note=36 velocity=111 time=4
note_on channel=1 note=45 velocity=93 time=0
note_on channel=2 note=57 velocity=87 time=0
note_on channel=4 note=62 velocity=87 time=0
note_on channel=5 note=69 velocity=90 time=0
note_on channel=2 note=62 velocity=90 time=0
note_on channel=4 note=66 velocity=111 time=0
note_on channel=2 note=66 velocity=119 time=0
note_off channel=9 note=36 velocity=0 time=4
note_on channel=2 note=50 velocity=77 time=0
note_on channel=4 note=57 velocity=90 time=0
note_on channel=9 note=51 velocity=95 time=188
note_off channel=9 note=51 velocity=0 time=4
note_on channel=2 note=57 velocity=90 time=0
note_on channel=9 note=40 velocity=115 time=0
note_off channel=9 note=40 velocity=0 time=0
note_off channel=2 note=50 velocity=0 time=48
note_off channel=1 note=45 velocity=0 time=60
note_on channel=5 note=62 velocity=89 time=72
note_on channel=1 note=50 velocity=99 time=4
note_on channel=4 note=50 velocity=89 time=4
note_on channel=9 note=53 velocity=66 time=4
note_on channel=2 note=50 velocity=78 time=0
note_off channel=9 note=53 velocity=0 time=0
note_on channel=9 note=40 velocity=113 time=96
note_off channel=9 note=40 velocity=0 time=4
note_off channel=5 note=74 velocity=0 time=56
note_off channel=4 note=62 velocity=0 time=4
note_on channel=9 note=51 velocity=89 time=12
note_off channel=9 note=51 velocity=0 time=4
note_off channel=1 note=50 velocity=0 time=4
note_off channel=5 note=78 velocity=0 time=0
note_off channel=5 note=69 velocity=0 time=0
note_on channel=5 note=74 velocity=93 time=0
note_on channel=1 note=42 velocity=113 time=4
note_off channel=4 note=66 velocity=0 time=4
note_off channel=4 note=57 velocity=0 time=0
note_on channel=4 note=62 velocity=93 time=0
note_on channel=9 note=36 velocity=101 time=4
note_off channel=9 note=36 velocity=0 time=0
note_off channel=2 note=50 velocity=0 time=92
note_on channel=9 note=40 velocity=54 time=4
note_off channel=9 note=40 velocity=0 time=4
note_off channel=5 note=74 velocity=0 time=52
note_off channel=4 note=62 velocity=0 time=8
note_on channel=2 note=50 velocity=72 time=20
note_on channel=5 note=74 velocity=97 time=0
note_on channel=9 note=53 velocity=63 time=4
control_change channel=0 control=11 value=120 time=4
note_off channel=9 note=53 velocity=0 time=0
note_on channel=1 note=38 velocity=99 time=0
note_on channel=4 note=62 velocity=97 time=0
note_on channel=9 note=40 velocity=107 time=0
MetaMessage('lyrics', text='\r', time=0)
MetaMessage('lyrics', text='And', time=4)
note_on channel=0 note=74 velocity=80 time=0
note_off channel=9 note=40 velocity=0 time=0
note_off channel=1 note=42 velocity=0 time=12
note_off channel=0 note=74 velocity=0 time=16
note_off channel=2 note=57 velocity=0 time=0
note_on channel=5 note=78 velocity=82 time=56
MetaMessage('lyrics', text=' it', time=8)
note_on channel=0 note=74 velocity=109 time=0
note_on channel=9 note=36 velocity=113 time=0
note_on channel=4 note=66 velocity=82 time=0
note_off channel=9 note=36 velocity=0 time=4
note_on channel=1 note=43 velocity=97 time=0
note_off channel=1 note=38 velocity=0 time=12
note_off channel=0 note=74 velocity=0 time=16
note_off channel=5 note=74 velocity=0 time=12
note_off channel=4 note=62 velocity=0 time=8
note_on channel=9 note=51 velocity=89 time=28
note_off channel=9 note=51 velocity=0 time=4
note_on channel=5 note=74 velocity=99 time=4
MetaMessage('lyrics', text=' makes', time=4)
note_on channel=0 note=74 velocity=119 time=0
note_on channel=9 note=36 velocity=111 time=4
note_on channel=2 note=57 velocity=95 time=0
note_on channel=4 note=62 velocity=99 time=0
note_off channel=9 note=36 velocity=0 time=4
note_off channel=2 note=66 velocity=0 time=20
note_off channel=2 note=62 velocity=0 time=8
note_off channel=2 note=57 velocity=0 time=0
note_off channel=5 note=78 velocity=0 time=24
note_off channel=4 note=66 velocity=0 time=8
note_off channel=1 note=43 velocity=0 time=20
note_on channel=1 note=38 velocity=97 time=8
note_on channel=9 note=40 velocity=69 time=4
note_off channel=9 note=40 velocity=0 time=4
note_off channel=0 note=74 velocity=0 time=4
note_off channel=1 note=38 velocity=0 time=76
note_on channel=9 note=53 velocity=81 time=4
note_on channel=5 note=71 velocity=68 time=0
note_on channel=5 note=67 velocity=59 time=0
note_off channel=9 note=53 velocity=0 time=4
note_on channel=1 note=45 velocity=105 time=0
MetaMessage('lyrics', text=' me', time=4)
note_on channel=0 note=74 velocity=117 time=0
note_on channel=9 note=40 velocity=103 time=0
note_on channel=2 note=45 velocity=86 time=0
note_on channel=4 note=59 velocity=68 time=0
note_on channel=4 note=55 velocity=59 time=0
note_off channel=9 note=40 velocity=0 time=4
note_off channel=5 note=71 velocity=0 time=12
note_off channel=5 note=67 velocity=0 time=0
note_off channel=4 note=59 velocity=0 time=4
note_off channel=4 note=55 velocity=0 time=0
note_off channel=5 note=74 velocity=0 time=8
note_off channel=4 note=62 velocity=0 time=8
note_on channel=5 note=67 velocity=95 time=52
note_on channel=5 note=71 velocity=93 time=0
MetaMessage('lyrics', text=' won', time=4)
note_off channel=0 note=74 velocity=0 time=0
note_on channel=0 note=72 velocity=111 time=0
note_on channel=9 note=40 velocity=121 time=4
note_on channel=4 note=55 velocity=95 time=0
note_on channel=4 note=59 velocity=93 time=0
note_off channel=9 note=40 velocity=0 time=4
note_off channel=5 note=71 velocity=0 time=40
note_off channel=4 note=59 velocity=0 time=8
note_off channel=5 note=67 velocity=0 time=0
note_off channel=4 note=55 velocity=0 time=4
note_on channel=9 note=51 velocity=87 time=28
note_off channel=9 note=51 velocity=0 time=4
note_on channel=2 note=33 velocity=105 time=4
note_on channel=9 note=36 velocity=117 time=4
note_on channel=1 note=33 velocity=97 time=0
note_off channel=2 note=38 velocity=0 time=0
note_on channel=5 note=69 velocity=89 time=0
note_on channel=2 note=60 velocity=89 time=0
note_on channel=5 note=64 velocity=86 time=0
note_on channel=2 note=57 velocity=81 time=0
note_on channel=5 note=79 velocity=99 time=0
note_on channel=2 note=67 velocity=93 time=0
note_on channel=5 note=72 velocity=95 time=0
note_off channel=9 note=36 velocity=0 time=4
note_off channel=1 note=45 velocity=0 time=0
note_on channel=2 note=64 velocity=92 time=0
note_on channel=4 note=57 velocity=89 time=0
note_on channel=4 note=52 velocity=86 time=0
note_on channel=4 note=67 velocity=99 time=0
note_on channel=4 note=60 velocity=95 time=0
note_off channel=5 note=62 velocity=0 time=80
note_off channel=4 note=50 velocity=0 time=8
note_on channel=6 note=60 velocity=61 time=8
note_off channel=5 note=79 velocity=0 time=4
note_off channel=4 note=67 velocity=0 time=8
note_off channel=5 note=72 velocity=0 time=8
note_off channel=4 note=60 velocity=0 time=8
note_off channel=0 note=72 velocity=0 time=4
note_off channel=5 note=64 velocity=0 time=0
note_off channel=5 note=69 velocity=0 time=0
note_off channel=6 note=60 velocity=0 time=4
note_off channel=4 note=57 velocity=0 time=4
note_off channel=4 note=52 velocity=0 time=0
note_off channel=2 note=64 velocity=0 time=28
note_off channel=2 note=67 velocity=0 time=12
note_on channel=9 note=53 velocity=74 time=8
note_on channel=5 note=79 velocity=55 time=0
MetaMessage('lyrics', text='der', time=4)
note_on channel=0 note=72 velocity=115 time=0
note_off channel=9 note=53 velocity=0 time=0
note_on channel=5 note=69 velocity=45 time=0
note_on channel=4 note=67 velocity=55 time=4
note_on channel=4 note=57 velocity=45 time=0
note_off channel=5 note=79 velocity=0 time=16
note_off channel=5 note=69 velocity=0 time=0
note_off channel=4 note=67 velocity=0 time=4
note_off channel=4 note=57 velocity=0 time=0
note_off channel=2 note=57 velocity=0 time=16
note_off channel=2 note=60 velocity=0 time=8
note_on channel=5 note=72 velocity=77 time=40
note_on channel=5 note=79 velocity=87 time=0
note_on channel=5 note=64 velocity=73 time=0
note_on channel=5 note=69 velocity=80 time=0
note_on channel=2 note=67 velocity=71 time=8
note_on channel=4 note=60 velocity=77 time=0
note_on channel=4 note=67 velocity=87 time=0
note_on channel=4 note=52 velocity=73 time=0
note_on channel=4 note=57 velocity=80 time=0
note_off channel=5 note=79 velocity=0 time=32
note_off channel=2 note=67 velocity=0 time=4
note_off channel=4 note=67 velocity=0 time=0
note_off channel=5 note=72 velocity=0 time=0
note_off channel=5 note=64 velocity=0 time=0
note_off channel=5 note=69 velocity=0 time=0
note_off channel=4 note=60 velocity=0 time=4
note_off channel=4 note=57 velocity=0 time=0
note_off channel=4 note=52 velocity=0 time=4
note_on channel=5 note=79 velocity=97 time=44
note_on channel=5 note=72 velocity=89 time=0
note_on channel=5 note=64 velocity=77 time=0
note_on channel=5 note=69 velocity=87 time=0
note_on channel=9 note=40 velocity=117 time=8
note_on channel=2 note=67 velocity=86 time=0
note_on channel=4 note=67 velocity=97 time=0
note_on channel=9 note=51 velocity=87 time=0
note_on channel=2 note=57 velocity=86 time=0
note_on channel=4 note=60 velocity=89 time=0
note_on channel=4 note=52 velocity=77 time=0
note_on channel=4 note=57 velocity=87 time=0
note_off channel=0 note=72 velocity=0 time=4
note_off channel=9 note=40 velocity=0 time=0
note_on channel=2 note=60 velocity=90 time=0
note_off channel=9 note=51 velocity=0 time=0
note_on channel=2 note=64 velocity=82 time=0
note_off channel=1 note=33 velocity=0 time=52
note_off channel=2 note=64 velocity=0 time=44
note_off channel=5 note=72 velocity=0 time=0
note_off channel=5 note=64 velocity=0 time=0
note_off channel=5 note=69 velocity=0 time=0
note_off channel=2 note=67 velocity=0 time=4
note_off channel=4 note=52 velocity=0 time=0
note_off channel=5 note=79 velocity=0 time=0
note_off channel=4 note=60 velocity=0 time=4
note_off channel=4 note=57 velocity=0 time=0
note_off channel=2 note=60 velocity=0 time=4
note_off channel=4 note=67 velocity=0 time=0
note_off channel=2 note=57 velocity=0 time=4
note_on channel=9 note=53 velocity=71 time=64
note_off channel=9 note=53 velocity=0 time=4
note_on channel=5 note=72 velocity=90 time=0
note_on channel=5 note=79 velocity=99 time=0
note_on channel=5 note=69 velocity=89 time=0
note_on channel=5 note=64 velocity=82 time=0
note_on channel=9 note=36 velocity=109 time=8
note_on channel=1 note=40 velocity=87 time=0
note_on channel=4 note=60 velocity=90 time=0
note_on channel=4 note=67 velocity=99 time=0
note_on channel=4 note=57 velocity=89 time=0
note_on channel=4 note=52 velocity=82 time=0
note_off channel=9 note=36 velocity=0 time=4
note_on channel=2 note=67 velocity=93 time=0
note_on channel=2 note=60 velocity=89 time=0
note_on channel=2 note=64 velocity=89 time=0
note_on channel=2 note=57 velocity=82 time=0
note_off channel=5 note=64 velocity=0 time=72
note_off channel=5 note=69 velocity=0 time=4
note_off channel=4 note=57 velocity=0 time=4
note_off channel=5 note=79 velocity=0 time=0
note_off channel=4 note=52 velocity=0 time=0
note_off channel=4 note=67 velocity=0 time=4
note_off channel=5 note=72 velocity=0 time=0
note_off channel=4 note=60 velocity=0 time=8
note_off channel=2 note=67 velocity=0 time=72
note_on channel=9 note=51 velocity=92 time=8
note_off channel=9 note=51 velocity=0 time=4
note_on channel=5 note=79 velocity=103 time=4
note_on channel=5 note=64 velocity=87 time=0
note_on channel=5 note=72 velocity=92 time=0
note_on channel=5 note=69 velocity=90 time=0
note_on channel=1 note=45 velocity=107 time=4
note_off channel=1 note=40 velocity=0 time=4
note_off channel=2 note=64 velocity=0 time=0
note_on channel=4 note=67 velocity=103 time=0
note_on channel=4 note=52 velocity=87 time=0
note_on channel=4 note=60 velocity=92 time=0
note_on channel=4 note=57 velocity=90 time=0
note_off channel=2 note=57 velocity=0 time=16
note_off channel=2 note=60 velocity=0 time=4
note_off channel=5 note=72 velocity=0 time=84
note_off channel=4 note=60 velocity=0 time=8
note_off channel=5 note=79 velocity=0 time=0
note_off channel=4 note=67 velocity=0 time=4
note_off channel=5 note=64 velocity=0 time=0
note_off channel=5 note=69 velocity=0 time=0
note_off channel=4 note=57 velocity=0 time=4
note_off channel=4 note=52 velocity=0 time=4
note_on channel=5 note=72 velocity=89 time=60
note_on channel=5 note=76 velocity=93 time=0
note_on channel=5 note=69 velocity=97 time=0
note_on channel=5 note=64 velocity=92 time=0
note_on channel=9 note=53 velocity=85 time=4
note_on channel=1 note=40 velocity=95 time=0
note_on channel=2 note=57 velocity=90 time=0
note_on channel=2 note=60 velocity=89 time=0
note_off channel=9 note=53 velocity=0 time=4
note_off channel=1 note=45 velocity=0 time=0
note_on channel=2 note=64 velocity=99 time=0
note_on channel=4 note=60 velocity=89 time=0
note_on channel=4 note=64 velocity=93 time=0
note_on channel=4 note=57 velocity=97 time=0
note_on channel=4 note=52 velocity=92 time=0
note_on channel=9 note=36 velocity=103 time=4
note_off channel=9 note=36 velocity=0 time=4
note_off channel=2 note=45 velocity=0 time=72
note_off channel=2 note=57 velocity=0 time=20
note_off channel=2 note=50 velocity=0 time=28
note_off channel=2 note=64 velocity=0 time=44
note_on channel=9 note=51 velocity=103 time=24
note_off channel=2 note=57 velocity=0 time=0
note_off channel=9 note=51 velocity=0 time=0
note_off channel=2 note=60 velocity=0 time=0
note_on channel=9 note=40 velocity=111 time=0
note_on channel=2 note=45 velocity=97 time=0
note_on channel=2 note=43 velocity=93 time=0
note_off channel=9 note=40 velocity=0 time=4
note_off channel=2 note=43 velocity=0 time=4
note_off channel=5 note=72 velocity=0 time=8
note_off channel=4 note=60 velocity=0 time=8
note_off channel=5 note=76 velocity=0 time=0
note_off channel=5 note=64 velocity=0 time=0
note_off channel=2 note=33 velocity=0 time=4
note_off channel=4 note=64 velocity=0 time=4
note_off channel=5 note=69 velocity=0 time=0
note_off channel=4 note=52 velocity=0 time=0
note_off channel=4 note=57 velocity=0 time=4
note_off channel=1 note=40 velocity=0 time=28
note_on channel=6 note=60 velocity=75 time=40
note_off channel=6 note=60 velocity=0 time=20
note_on channel=5 note=76 velocity=97 time=56
note_on channel=5 note=62 velocity=95 time=0
note_on channel=9 note=53 velocity=72 time=8
note_on channel=1 note=38 velocity=89 time=0
note_on channel=2 note=64 velocity=81 time=0
note_on channel=4 note=64 velocity=97 time=0
note_on channel=5 note=79 velocity=93 time=0
note_on channel=2 note=71 velocity=87 time=0
note_on channel=4 note=50 velocity=95 time=0
note_on channel=5 note=83 velocity=90 time=0
note_on channel=2 note=67 velocity=87 time=0
note_off channel=9 note=53 velocity=0 time=4
note_on channel=4 note=67 velocity=93 time=0
note_on channel=4 note=71 velocity=90 time=0
note_on channel=1 note=45 velocity=99 time=92
note_off channel=1 note=38 velocity=0 time=4
note_off channel=2 note=45 velocity=0 time=80
note_on channel=1 note=50 velocity=103 time=12
note_on channel=2 note=50 velocity=101 time=0
note_on channel=9 note=51 velocity=95 time=4
note_off channel=1 note=45 velocity=0 time=0
note_off channel=9 note=51 velocity=0 time=4
note_off channel=2 note=67 velocity=0 time=12
note_off channel=5 note=76 velocity=0 time=0
note_off channel=5 note=79 velocity=0 time=0
note_off channel=5 note=83 velocity=0 time=0
note_off channel=2 note=71 velocity=0 time=4
note_off channel=4 note=71 velocity=0 time=0
note_off channel=4 note=64 velocity=0 time=4
note_off channel=4 note=67 velocity=0 time=0
note_off channel=2 note=64 velocity=0 time=8
note_on channel=6 note=60 velocity=61 time=40
note_off channel=6 note=60 velocity=0 time=28
note_on channel=9 note=53 velocity=81 time=80
note_on channel=5 note=74 velocity=97 time=0
note_on channel=5 note=78 velocity=111 time=0
note_on channel=5 note=81 velocity=93 time=0
note_off channel=9 note=53 velocity=0 time=4
note_on channel=2 note=66 velocity=109 time=0
note_on channel=2 note=62 velocity=90 time=0
note_on channel=2 note=69 velocity=90 time=4
note_on channel=4 note=62 velocity=97 time=0
note_on channel=4 note=66 velocity=111 time=0
note_on channel=4 note=69 velocity=93 time=0
note_on channel=9 note=36 velocity=113 time=4
note_off channel=9 note=36 velocity=0 time=4
note_on channel=9 note=40 velocity=117 time=188
note_off channel=9 note=40 velocity=0 time=0
note_on channel=9 note=51 velocity=95 time=0
note_off channel=9 note=51 velocity=0 time=4
note_off channel=5 note=81 velocity=0 time=28
note_off channel=4 note=69 velocity=0 time=4
note_off channel=5 note=78 velocity=0 time=4
note_off channel=2 note=69 velocity=0 time=4
note_off channel=2 note=66 velocity=0 time=4
note_off channel=4 note=66 velocity=0 time=0
note_off channel=5 note=74 velocity=0 time=0
note_off channel=2 note=62 velocity=0 time=0
note_off channel=4 note=62 velocity=0 time=4
note_off channel=1 note=50 velocity=0 time=16
note_on channel=6 note=60 velocity=63 time=20
note_off channel=6 note=60 velocity=0 time=24
note_off channel=2 note=50 velocity=0 time=64
note_on channel=5 note=76 velocity=95 time=4
note_on channel=5 note=76 velocity=93 time=0
note_on channel=5 note=79 velocity=93 time=0
note_on channel=2 note=45 velocity=95 time=4
note_on channel=9 note=36 velocity=105 time=4
note_on channel=1 note=50 velocity=97 time=0
note_on channel=2 note=60 velocity=90 time=0
note_on channel=4 note=64 velocity=95 time=0
note_on channel=9 note=53 velocity=73 time=0
note_on channel=2 note=67 velocity=93 time=0
note_on channel=4 note=64 velocity=93 time=0
note_on channel=2 note=64 velocity=93 time=0
note_on channel=4 note=67 velocity=93 time=0
note_off channel=9 note=36 velocity=0 time=4
note_off channel=9 note=53 velocity=0 time=0
note_on channel=2 note=38 velocity=101 time=88
note_on channel=1 note=45 velocity=101 time=4
note_off channel=2 note=45 velocity=0 time=8
note_off channel=1 note=50 velocity=0 time=4
note_on channel=9 note=51 velocity=86 time=84
note_on channel=1 note=38 velocity=87 time=0
note_off channel=9 note=51 velocity=0 time=4
note_off channel=1 note=45 velocity=0 time=16
note_off channel=2 note=60 velocity=0 time=16
note_off channel=2 note=64 velocity=0 time=0
note_off channel=2 note=67 velocity=0 time=4
note_off channel=5 note=79 velocity=0 time=16
note_off channel=5 note=76 velocity=0 time=4
note_off channel=4 note=67 velocity=0 time=4
note_off channel=5 note=76 velocity=0 time=0
note_off channel=4 note=64 velocity=0 time=4
note_off channel=4 note=64 velocity=0 time=0
note_on channel=6 note=60 velocity=66 time=32
note_off channel=6 note=60 velocity=0 time=28
note_on channel=5 note=74 velocity=90 time=56
note_on channel=5 note=78 velocity=95 time=0
note_on channel=5 note=81 velocity=76 time=0
note_on channel=9 note=53 velocity=75 time=4
note_on channel=2 note=69 velocity=93 time=0
note_on channel=2 note=62 velocity=93 time=0
note_off channel=9 note=53 velocity=0 time=4
note_on channel=2 note=66 velocity=111 time=0
note_on channel=4 note=62 velocity=90 time=0
note_on channel=9 note=43 velocity=71 time=0
note_on channel=4 note=66 velocity=95 time=0
note_on channel=4 note=69 velocity=76 time=0
note_off channel=9 note=43 velocity=0 time=4
note_on channel=9 note=43 velocity=107 time=92
note_off channel=9 note=43 velocity=0 time=4
note_on channel=9 note=40 velocity=105 time=92
note_off channel=9 note=40 velocity=0 time=4
note_on channel=9 note=51 velocity=95 time=0
note_off channel=9 note=51 velocity=0 time=0
note_off channel=1 note=38 velocity=0 time=36
note_off channel=5 note=62 velocity=0 time=124
note_off channel=4 note=50 velocity=0 time=4
note_on channel=9 note=53 velocity=87 time=12
note_off channel=9 note=53 velocity=0 time=4
note_on channel=1 note=45 velocity=95 time=4
note_on channel=5 note=57 velocity=90 time=0
note_on channel=9 note=36 velocity=113 time=4
note_on channel=2 note=45 velocity=107 time=0
note_on channel=5 note=62 velocity=82 time=0
note_off channel=9 note=36 velocity=0 time=4
note_on channel=4 note=45 velocity=90 time=0
note_on channel=4 note=50 velocity=82 time=0
note_off channel=2 note=38 velocity=0 time=20
note_off channel=2 note=69 velocity=0 time=20
note_off channel=2 note=62 velocity=0 time=0
note_off channel=2 note=66 velocity=0 time=0
note_on channel=1 note=40 velocity=101 time=48
note_off channel=1 note=45 velocity=0 time=8
note_off channel=5 note=81 velocity=0 time=16
note_off channel=4 note=69 velocity=0 time=8
note_off channel=5 note=78 velocity=0 time=0
note_off channel=5 note=74 velocity=0 time=4
note_off channel=4 note=62 velocity=0 time=4
note_off channel=5 note=57 velocity=0 time=0
note_off channel=4 note=66 velocity=0 time=0
note_off channel=4 note=45 velocity=0 time=4
note_off channel=5 note=62 velocity=0 time=4
note_off channel=4 note=50 velocity=0 time=8
note_on channel=9 note=36 velocity=115 time=44
note_on channel=1 note=33 velocity=90 time=0
note_on channel=5 note=64 velocity=82 time=0
note_on channel=5 note=69 velocity=89 time=0
note_on channel=5 note=79 velocity=97 time=0
note_on channel=5 note=72 velocity=93 time=0
note_off channel=9 note=36 velocity=0 time=4
note_on channel=2 note=33 velocity=103 time=0
note_on channel=4 note=52 velocity=82 time=0
note_on channel=9 note=51 velocity=86 time=0
note_on channel=2 note=57 velocity=82 time=0
note_on channel=4 note=57 velocity=89 time=0
note_off channel=9 note=51 velocity=0 time=0
note_on channel=2 note=60 velocity=85 time=0
note_on channel=4 note=67 velocity=97 time=0
note_on channel=2 note=67 velocity=92 time=0
note_on channel=4 note=60 velocity=93 time=0
note_on channel=2 note=64 velocity=93 time=0
note_off channel=2 note=45 velocity=0 time=12
note_off channel=1 note=40 velocity=0 time=4
note_on channel=6 note=60 velocity=72 time=68
note_off channel=6 note=60 velocity=0 time=36
note_off channel=5 note=72 velocity=0 time=8
note_off channel=4 note=60 velocity=0 time=4
note_off channel=5 note=64 velocity=0 time=0
note_off channel=4 note=52 velocity=0 time=8
note_off channel=5 note=69 velocity=0 time=0
note_off channel=5 note=79 velocity=0 time=0
note_off channel=4 note=57 velocity=0 time=4
note_off channel=4 note=67 velocity=0 time=0
note_off channel=2 note=64 velocity=0 time=28
note_on channel=5 note=69 velocity=46 time=16
note_on channel=5 note=79 velocity=63 time=0
note_on channel=9 note=53 velocity=76 time=4
note_off channel=2 note=67 velocity=0 time=0
note_on channel=4 note=57 velocity=46 time=0
note_off channel=9 note=53 velocity=0 time=0
note_on channel=4 note=67 velocity=63 time=0
note_off channel=5 note=69 velocity=0 time=16
note_off channel=5 note=79 velocity=0 time=0
note_off channel=4 note=57 velocity=0 time=4
note_off channel=4 note=67 velocity=0 time=4
note_off channel=2 note=57 velocity=0 time=8
note_off channel=2 note=60 velocity=0 time=0
note_on channel=5 note=69 velocity=62 time=52
note_on channel=2 note=67 velocity=67 time=4
note_on channel=4 note=57 velocity=62 time=4
note_on channel=5 note=79 velocity=72 time=0
note_on channel=5 note=72 velocity=45 time=0
note_on channel=4 note=67 velocity=72 time=4
note_on channel=4 note=60 velocity=45 time=0
note_off channel=5 note=72 velocity=0 time=12
note_off channel=4 note=60 velocity=0 time=4
note_off channel=5 note=79 velocity=0 time=0
note_off channel=2 note=67 velocity=0 time=4
note_off channel=4 note=67 velocity=0 time=0
note_off channel=5 note=69 velocity=0 time=0
note_off channel=4 note=57 velocity=0 time=8
note_on channel=5 note=64 velocity=90 time=56
note_on channel=5 note=69 velocity=97 time=4
note_on channel=2 note=60 velocity=90 time=4
note_on channel=4 note=52 velocity=90 time=0
note_on channel=5 note=72 velocity=97 time=0
note_on channel=2 note=57 velocity=90 time=0
note_on channel=5 note=79 velocity=101 time=0
note_on channel=2 note=67 velocity=95 time=0
note_on channel=2 note=64 velocity=89 time=0
note_on channel=9 note=51 velocity=90 time=4
note_on channel=4 note=57 velocity=97 time=0
note_on channel=4 note=60 velocity=97 time=0
note_on channel=4 note=67 velocity=101 time=0
note_off channel=9 note=51 velocity=0 time=4
note_on channel=9 note=40 velocity=121 time=0
note_off channel=9 note=40 velocity=0 time=4
note_on channel=6 note=60 velocity=72 time=84
note_off channel=2 note=67 velocity=0 time=4
note_off channel=1 note=33 velocity=0 time=4
note_off channel=2 note=64 velocity=0 time=4
note_off channel=2 note=60 velocity=0 time=20
note_off channel=2 note=57 velocity=0 time=0
note_off channel=5 note=64 velocity=0 time=4
note_off channel=5 note=69 velocity=0 time=0
note_off channel=5 note=72 velocity=0 time=0
note_off channel=6 note=60 velocity=0 time=4
note_off channel=4 note=52 velocity=0 time=4
note_off channel=5 note=79 velocity=0 time=0
note_off channel=4 note=57 velocity=0 time=0
note_off channel=4 note=60 velocity=0 time=0
note_off channel=4 note=67 velocity=0 time=8
note_on channel=1 note=45 velocity=95 time=44
note_on channel=5 note=64 velocity=87 time=0
note_on channel=5 note=72 velocity=95 time=0
note_on channel=5 note=79 velocity=105 time=0
note_on channel=5 note=69 velocity=92 time=0
note_on channel=9 note=53 velocity=64 time=4
note_on channel=2 note=67 velocity=95 time=0
note_on channel=4 note=52 velocity=87 time=0
note_off channel=9 note=53 velocity=0 time=0
note_on channel=2 note=60 velocity=90 time=0
note_on channel=4 note=60 velocity=95 time=0
note_on channel=9 note=36 velocity=103 time=0
note_on channel=2 note=64 velocity=93 time=0
note_on channel=4 note=67 velocity=105 time=0
note_on channel=2 note=57 velocity=90 time=0
note_on channel=4 note=57 velocity=92 time=0
note_off channel=9 note=36 velocity=0 time=4
note_off channel=2 note=33 velocity=0 time=96
note_on channel=2 note=33 velocity=111 time=88
note_on channel=9 note=51 velocity=89 time=4
note_off channel=9 note=51 velocity=0 time=0
note_off channel=5 note=69 velocity=0 time=24
note_off channel=2 note=57 velocity=0 time=4
note_off channel=2 note=67 velocity=0 time=4
note_off channel=4 note=57 velocity=0 time=0
note_off channel=5 note=72 velocity=0 time=0
note_off channel=2 note=64 velocity=0 time=0
note_off channel=5 note=64 velocity=0 time=4
note_off channel=4 note=60 velocity=0 time=4
note_off channel=5 note=79 velocity=0 time=0
note_off channel=4 note=52 velocity=0 time=4
note_off channel=2 note=60 velocity=0 time=4
note_off channel=4 note=67 velocity=0 time=0
note_off channel=1 note=45 velocity=0 time=108
note_on channel=5 note=64 velocity=85 time=24
note_on channel=5 note=72 velocity=93 time=0
note_on channel=5 note=69 velocity=89 time=0
note_on channel=9 note=53 velocity=86 time=4
note_on channel=1 note=40 velocity=101 time=0
note_on channel=2 note=60 velocity=90 time=0
note_on channel=5 note=76 velocity=93 time=0
note_on channel=2 note=57 velocity=86 time=0
note_on channel=2 note=64 velocity=101 time=0
note_off channel=9 note=53 velocity=0 time=4
note_on channel=4 note=52 velocity=85 time=0
note_on channel=4 note=60 velocity=93 time=0
note_on channel=4 note=57 velocity=89 time=0
note_on channel=9 note=36 velocity=103 time=4
note_on channel=4 note=64 velocity=93 time=0
note_off channel=9 note=36 velocity=0 time=0
note_on channel=9 note=51 velocity=82 time=192
note_off channel=9 note=51 velocity=0 time=0
note_on channel=9 note=40 velocity=111 time=0
note_off channel=9 note=40 velocity=0 time=4
note_off channel=2 note=64 velocity=0 time=28
note_off channel=2 note=60 velocity=0 time=12
note_off channel=5 note=72 velocity=0 time=0
note_off channel=5 note=76 velocity=0 time=0
note_off channel=2 note=57 velocity=0 time=4
note_off channel=4 note=60 velocity=0 time=0
note_off channel=4 note=64 velocity=0 time=0
note_off channel=5 note=69 velocity=0 time=4
note_off channel=5 note=64 velocity=0 time=4
note_off channel=4 note=57 velocity=0 time=4
note_off channel=4 note=52 velocity=0 time=4
note_off channel=1 note=40 velocity=0 time=108
note_on channel=5 note=69 velocity=97 time=8
note_on channel=9 note=53 velocity=76 time=4
note_on channel=1 note=38 velocity=89 time=0
note_on channel=2 note=57 velocity=92 time=0
note_on channel=5 note=74 velocity=102 time=0
note_on channel=5 note=76 velocity=99 time=0
note_off channel=9 note=53 velocity=0 time=4
note_on channel=2 note=67 velocity=101 time=0
note_on channel=4 note=57 velocity=97 time=0
note_on channel=2 note=62 velocity=95 time=0
note_on channel=9 note=36 velocity=101 time=4
note_on channel=2 note=38 velocity=107 time=0
note_on channel=4 note=62 velocity=102 time=0
note_on channel=4 note=64 velocity=99 time=0
note_off channel=9 note=36 velocity=0 time=4
note_off channel=2 note=33 velocity=0 time=12
note_on channel=0 note=76 velocity=123 time=176
note_on channel=9 note=51 velocity=69 time=0
note_off channel=9 note=51 velocity=0 time=0
note_off channel=2 note=67 velocity=0 time=40
note_off channel=2 note=57 velocity=0 time=8
note_off channel=2 note=62 velocity=0 time=0
note_off channel=5 note=74 velocity=0 time=16
note_off channel=5 note=76 velocity=0 time=0
note_off channel=4 note=64 velocity=0 time=4
note_off channel=4 note=62 velocity=0 time=4
note_off channel=5 note=69 velocity=0 time=12
note_off channel=4 note=57 velocity=0 time=8
note_on channel=9 note=40 velocity=115 time=4
note_off channel=9 note=40 velocity=0 time=4
note_off channel=1 note=38 velocity=0 time=12
note_on channel=9 note=53 velocity=66 time=64
note_off channel=9 note=53 velocity=0 time=0
note_on channel=5 note=74 velocity=87 time=4
note_on channel=5 note=78 velocity=111 time=0
note_on channel=1 note=33 velocity=76 time=8
note_on channel=2 note=57 velocity=87 time=0
note_on channel=4 note=62 velocity=87 time=0
note_on channel=5 note=69 velocity=90 time=0
note_on channel=2 note=62 velocity=90 time=0
note_on channel=4 note=66 velocity=111 time=0
note_on channel=2 note=66 velocity=119 time=0
note_on channel=9 note=36 velocity=109 time=4
note_on channel=2 note=57 velocity=86 time=0
note_on channel=4 note=57 velocity=90 time=0
note_off channel=9 note=36 velocity=0 time=4
note_on channel=9 note=51 velocity=90 time=172
note_off channel=1 note=33 velocity=0 time=0
note_off channel=9 note=51 velocity=0 time=4
note_on channel=1 note=38 velocity=101 time=4
note_on channel=9 note=40 velocity=115 time=8
note_on channel=2 note=50 velocity=74 time=0
note_off channel=9 note=40 velocity=0 time=4
note_off channel=2 note=50 velocity=0 time=128
note_on channel=9 note=53 velocity=73 time=44
note_off channel=9 note=53 velocity=0 time=4
note_on channel=5 note=62 velocity=89 time=0
note_on channel=4 note=50 velocity=89 time=8
note_on channel=2 note=50 velocity=81 time=4
note_on channel=9 note=40 velocity=115 time=92
note_off channel=9 note=40 velocity=0 time=4
note_off channel=5 note=74 velocity=0 time=60
note_off channel=4 note=62 velocity=0 time=4
note_on channel=9 note=51 velocity=82 time=16
note_off channel=9 note=51 velocity=0 time=4
note_off channel=5 note=78 velocity=0 time=0
note_off channel=5 note=69 velocity=0 time=0
note_on channel=5 note=74 velocity=93 time=0
note_on channel=9 note=36 velocity=107 time=8
note_off channel=4 note=66 velocity=0 time=0
note_off channel=4 note=57 velocity=0 time=0
note_on channel=4 note=62 velocity=93 time=0
note_off channel=9 note=36 velocity=0 time=4
note_off channel=0 note=76 velocity=0 time=56
note_off channel=1 note=38 velocity=0 time=8
note_on channel=9 note=40 velocity=67 time=32
note_off channel=9 note=40 velocity=0 time=0
note_off channel=5 note=74 velocity=0 time=56
note_off channel=4 note=62 velocity=0 time=8
note_off channel=2 note=57 velocity=0 time=8
note_on channel=9 note=53 velocity=69 time=8
note_off channel=9 note=53 velocity=0 time=4
note_on channel=5 note=74 velocity=97 time=0
note_on channel=1 note=38 velocity=83 time=4
note_on channel=0 note=78 velocity=121 time=4
note_on channel=9 note=40 velocity=113 time=0
note_on channel=2 note=55 velocity=85 time=0
note_on channel=4 note=62 velocity=97 time=0
note_off channel=9 note=40 velocity=0 time=4
note_on channel=5 note=78 velocity=82 time=84
note_off channel=0 note=78 velocity=0 time=4
note_on channel=9 note=36 velocity=89 time=4
note_on channel=1 note=43 velocity=105 time=0
note_on channel=2 note=57 velocity=89 time=0
note_on channel=4 note=66 velocity=82 time=0
note_on channel=0 note=74 velocity=119 time=4
note_off channel=9 note=36 velocity=0 time=0
note_off channel=5 note=74 velocity=0 time=0
note_off channel=4 note=62 velocity=0 time=8
note_off channel=1 note=38 velocity=0 time=8
note_off channel=2 note=55 velocity=0 time=28
note_on channel=9 note=51 velocity=87 time=40
note_on channel=5 note=74 velocity=99 time=0
note_off channel=9 note=51 velocity=0 time=4
note_on channel=9 note=36 velocity=107 time=4
note_on channel=4 note=62 velocity=99 time=0
note_off channel=9 note=36 velocity=0 time=4
note_off channel=5 note=78 velocity=0 time=12
note_off channel=4 note=66 velocity=0 time=4
note_off channel=2 note=66 velocity=0 time=4
note_off channel=0 note=74 velocity=0 time=8
note_off channel=2 note=62 velocity=0 time=0
note_off channel=2 note=57 velocity=0 time=0
note_off channel=1 note=43 velocity=0 time=52
note_on channel=1 note=38 velocity=83 time=8
note_on channel=0 note=72 velocity=115 time=4
note_on channel=9 note=40 velocity=75 time=0
note_off channel=9 note=40 velocity=0 time=4
note_on channel=9 note=53 velocity=82 time=76
note_off channel=5 note=74 velocity=0 time=0
note_off channel=9 note=53 velocity=0 time=4
note_off channel=4 note=62 velocity=0 time=0
note_on channel=5 note=71 velocity=68 time=4
note_on channel=5 note=67 velocity=59 time=0
note_on channel=9 note=40 velocity=95 time=8
note_on channel=1 note=45 velocity=103 time=0
note_on channel=4 note=59 velocity=68 time=0
note_on channel=4 note=55 velocity=59 time=0
note_off channel=9 note=40 velocity=0 time=4
note_off channel=1 note=38 velocity=0 time=0
note_off channel=5 note=71 velocity=0 time=12
note_off channel=5 note=67 velocity=0 time=0
note_off channel=4 note=59 velocity=0 time=4
note_off channel=4 note=55 velocity=0 time=0
note_off channel=2 note=38 velocity=0 time=32
note_on channel=5 note=67 velocity=95 time=36
note_on channel=5 note=71 velocity=93 time=0
note_on channel=9 note=40 velocity=121 time=8
note_on channel=4 note=55 velocity=95 time=0
note_on channel=4 note=59 velocity=93 time=0
note_off channel=9 note=40 velocity=0 time=4
note_off channel=5 note=71 velocity=0 time=40
note_off channel=4 note=59 velocity=0 time=8
note_off channel=5 note=67 velocity=0 time=0
note_off channel=4 note=55 velocity=0 time=4
note_on channel=9 note=51 velocity=83 time=28
note_off channel=9 note=51 velocity=0 time=4
note_on channel=2 note=33 velocity=101 time=4
note_off channel=1 note=45 velocity=0 time=4
note_on channel=2 note=60 velocity=89 time=0
note_on channel=5 note=69 velocity=89 time=0
note_on channel=1 note=33 velocity=83 time=0
note_on channel=2 note=57 velocity=81 time=0
note_on channel=5 note=64 velocity=86 time=0
note_on channel=2 note=67 velocity=93 time=0
note_on channel=5 note=79 velocity=99 time=0
note_on channel=5 note=72 velocity=95 time=0
note_on channel=9 note=36 velocity=119 time=4
note_on channel=2 note=64 velocity=92 time=0
note_on channel=4 note=57 velocity=89 time=0
note_off channel=9 note=36 velocity=0 time=0
note_on channel=4 note=52 velocity=86 time=0
note_on channel=4 note=67 velocity=99 time=0
note_on channel=4 note=60 velocity=95 time=0
note_off channel=5 note=62 velocity=0 time=80
note_off channel=4 note=50 velocity=0 time=8
note_on channel=6 note=60 velocity=61 time=8
note_off channel=5 note=79 velocity=0 time=4
note_off channel=4 note=67 velocity=0 time=8
note_off channel=5 note=72 velocity=0 time=8
note_off channel=4 note=60 velocity=0 time=8
note_off channel=5 note=64 velocity=0 time=4
note_off channel=5 note=69 velocity=0 time=0
note_off channel=6 note=60 velocity=0 time=4
note_off channel=4 note=57 velocity=0 time=4
note_off channel=4 note=52 velocity=0 time=0
note_off channel=2 note=50 velocity=0 time=12
note_off channel=0 note=72 velocity=0 time=16
note_off channel=2 note=64 velocity=0 time=0
note_off channel=2 note=33 velocity=0 time=8
note_off channel=2 note=67 velocity=0 time=4
note_on channel=9 note=53 velocity=81 time=8
note_on channel=5 note=79 velocity=55 time=0
note_off channel=9 note=53 velocity=0 time=4
note_on channel=2 note=33 velocity=99 time=0
note_on channel=5 note=69 velocity=45 time=0
note_on channel=4 note=67 velocity=55 time=4
note_on channel=4 note=57 velocity=45 time=0
note_off channel=5 note=79 velocity=0 time=16
note_off channel=5 note=69 velocity=0 time=0
note_off channel=4 note=67 velocity=0 time=4
note_off channel=4 note=57 velocity=0 time=0
note_off channel=2 note=57 velocity=0 time=16
note_off channel=2 note=60 velocity=0 time=8
note_on channel=5 note=72 velocity=77 time=40
note_on channel=5 note=79 velocity=87 time=0
note_on channel=5 note=64 velocity=73 time=0
note_on channel=5 note=69 velocity=80 time=0
note_on channel=2 note=67 velocity=71 time=8
note_on channel=4 note=60 velocity=77 time=0
note_on channel=4 note=67 velocity=87 time=0
note_on channel=4 note=52 velocity=73 time=0
note_on channel=4 note=57 velocity=80 time=0
note_off channel=2 note=33 velocity=0 time=32
note_off channel=5 note=79 velocity=0 time=0
note_off channel=2 note=67 velocity=0 time=4
note_off channel=4 note=67 velocity=0 time=0
note_off channel=5 note=72 velocity=0 time=0
note_off channel=5 note=64 velocity=0 time=0
note_off channel=5 note=69 velocity=0 time=0
note_off channel=4 note=60 velocity=0 time=4
note_off channel=4 note=57 velocity=0 time=0
note_off channel=4 note=52 velocity=0 time=4
note_on channel=5 note=79 velocity=97 time=44
note_on channel=5 note=72 velocity=89 time=0
note_on channel=5 note=64 velocity=77 time=0
note_on channel=5 note=69 velocity=87 time=0
note_on channel=2 note=67 velocity=86 time=8
note_on channel=4 note=67 velocity=97 time=0
note_on channel=2 note=57 velocity=86 time=0
note_on channel=4 note=60 velocity=89 time=0
note_on channel=4 note=52 velocity=77 time=0
note_on channel=4 note=57 velocity=87 time=0
note_on channel=9 note=40 velocity=117 time=4
note_on channel=2 note=60 velocity=90 time=0
note_on channel=2 note=64 velocity=82 time=0
note_off channel=9 note=40 velocity=0 time=4
note_off channel=2 note=57 velocity=0 time=0
note_on channel=9 note=51 velocity=87 time=0
note_off channel=9 note=51 velocity=0 time=4
note_off channel=1 note=33 velocity=0 time=84
note_off channel=2 note=64 velocity=0 time=4
note_off channel=5 note=72 velocity=0 time=0
note_off channel=5 note=64 velocity=0 time=0
note_off channel=5 note=69 velocity=0 time=0
note_off channel=2 note=67 velocity=0 time=4
note_off channel=4 note=52 velocity=0 time=0
note_off channel=5 note=79 velocity=0 time=0
note_off channel=4 note=60 velocity=0 time=4
note_off channel=4 note=57 velocity=0 time=0
note_off channel=2 note=60 velocity=0 time=4
note_off channel=4 note=67 velocity=0 time=0
note_off channel=2 note=57 velocity=0 time=4
note_on channel=5 note=72 velocity=90 time=68
note_on channel=5 note=76 velocity=99 time=0
note_on channel=5 note=69 velocity=89 time=0
note_on channel=5 note=64 velocity=82 time=0
note_on channel=2 note=33 velocity=99 time=4
note_on channel=9 note=36 velocity=105 time=4
note_on channel=1 note=33 velocity=97 time=0
note_on channel=4 note=60 velocity=90 time=0
note_on channel=9 note=53 velocity=76 time=0
note_on channel=4 note=64 velocity=99 time=0
note_on channel=4 note=57 velocity=89 time=0
note_on channel=4 note=52 velocity=82 time=0
note_off channel=9 note=36 velocity=0 time=4
note_on channel=2 note=67 velocity=93 time=0
note_off channel=9 note=53 velocity=0 time=0
note_on channel=2 note=60 velocity=89 time=0
note_on channel=2 note=64 velocity=89 time=0
note_on channel=2 note=57 velocity=82 time=0
note_off channel=5 note=64 velocity=0 time=72
note_off channel=5 note=69 velocity=0 time=4
note_off channel=4 note=57 velocity=0 time=4
note_off channel=5 note=76 velocity=0 time=0
note_off channel=4 note=52 velocity=0 time=0
note_off channel=4 note=64 velocity=0 time=4
note_off channel=5 note=72 velocity=0 time=0
note_off channel=4 note=60 velocity=0 time=8
note_off channel=2 note=33 velocity=0 time=28
note_off channel=2 note=67 velocity=0 time=44
note_on channel=2 note=33 velocity=105 time=20
note_off channel=2 note=64 velocity=0 time=4
note_on channel=9 note=51 velocity=89 time=4
note_off channel=9 note=51 velocity=0 time=0
note_off channel=2 note=57 velocity=0 time=12
note_off channel=2 note=60 velocity=0 time=4
note_off channel=1 note=33 velocity=0 time=160
note_on channel=5 note=72 velocity=89 time=4
note_on channel=5 note=76 velocity=93 time=0
note_on channel=5 note=69 velocity=97 time=0
note_on channel=5 note=64 velocity=92 time=0
note_on channel=2 note=57 velocity=90 time=4
note_on channel=2 note=60 velocity=89 time=0
note_on channel=9 note=36 velocity=103 time=4
note_on channel=1 note=40 velocity=101 time=0
note_on channel=2 note=64 velocity=99 time=0
note_on channel=4 note=60 velocity=89 time=0
note_on channel=9 note=53 velocity=76 time=0
note_on channel=4 note=64 velocity=93 time=0
note_on channel=4 note=57 velocity=97 time=0
note_on channel=4 note=52 velocity=92 time=0
note_off channel=9 note=36 velocity=0 time=4
note_off channel=9 note=53 velocity=0 time=0
note_off channel=2 note=33 velocity=0 time=72
note_off channel=2 note=64 velocity=0 time=96
note_on channel=9 note=40 velocity=115 time=20
note_on channel=2 note=33 velocity=103 time=0
note_off channel=9 note=40 velocity=0 time=4
note_off channel=2 note=57 velocity=0 time=0
note_on channel=9 note=51 velocity=93 time=0
note_off channel=2 note=60 velocity=0 time=0
note_off channel=9 note=51 velocity=0 time=0
note_off channel=5 note=72 velocity=0 time=16
note_off channel=4 note=60 velocity=0 time=8
note_off channel=5 note=76 velocity=0 time=0
note_off channel=5 note=64 velocity=0 time=0
note_off channel=4 note=64 velocity=0 time=8
note_off channel=5 note=69 velocity=0 time=0
note_off channel=4 note=52 velocity=0 time=0
note_off channel=4 note=57 velocity=0 time=4
note_on channel=6 note=60 velocity=75 time=68
note_off channel=6 note=60 velocity=0 time=20
note_on channel=5 note=76 velocity=97 time=56
note_on channel=5 note=62 velocity=95 time=0
note_on channel=9 note=36 velocity=105 time=8
note_on channel=1 note=38 velocity=86 time=0
note_on channel=2 note=64 velocity=81 time=0
note_on channel=4 note=64 velocity=97 time=0
note_on channel=5 note=79 velocity=93 time=0
note_on channel=9 note=53 velocity=74 time=0
note_on channel=2 note=71 velocity=87 time=0
note_on channel=4 note=50 velocity=95 time=0
note_on channel=5 note=83 velocity=90 time=0
note_on channel=2 note=67 velocity=87 time=0
note_off channel=9 note=36 velocity=0 time=4
note_on channel=4 note=67 velocity=93 time=0
note_off channel=9 note=53 velocity=0 time=0
note_on channel=4 note=71 velocity=90 time=0
note_off channel=1 note=40 velocity=0 time=8
note_on channel=1 note=45 velocity=83 time=84
note_on channel=2 note=45 velocity=107 time=0
note_off channel=1 note=38 velocity=0 time=4
note_off channel=2 note=33 velocity=0 time=8
note_off channel=2 note=45 velocity=0 time=64
note_on channel=2 note=50 velocity=103 time=16
note_on channel=1 note=50 velocity=90 time=4
note_on channel=1 note=48 velocity=86 time=0
note_on channel=9 note=51 velocity=95 time=8
note_off channel=1 note=45 velocity=0 time=0
note_off channel=9 note=51 velocity=0 time=4
note_off channel=2 note=67 velocity=0 time=8
note_off channel=5 note=76 velocity=0 time=0
note_off channel=5 note=79 velocity=0 time=0
note_off channel=5 note=83 velocity=0 time=0
note_off channel=2 note=71 velocity=0 time=4
note_off channel=4 note=71 velocity=0 time=0
note_off channel=4 note=64 velocity=0 time=4
note_off channel=4 note=67 velocity=0 time=0
note_off channel=2 note=64 velocity=0 time=8
note_off channel=1 note=48 velocity=0 time=4
note_on channel=6 note=60 velocity=61 time=36
note_off channel=6 note=60 velocity=0 time=28
note_on channel=9 note=53 velocity=69 time=76
note_off channel=9 note=53 velocity=0 time=4
note_on channel=5 note=74 velocity=97 time=0
note_on channel=5 note=78 velocity=111 time=0
note_on channel=5 note=81 velocity=93 time=0
note_on channel=2 note=66 velocity=109 time=4
note_on channel=2 note=62 velocity=90 time=0
note_on channel=9 note=36 velocity=103 time=4
note_on channel=2 note=69 velocity=90 time=0
note_on channel=4 note=62 velocity=97 time=0
note_on channel=4 note=66 velocity=111 time=0
note_on channel=4 note=69 velocity=93 time=0
note_off channel=9 note=36 velocity=0 time=4
note_on channel=9 note=40 velocity=111 time=188
note_off channel=9 note=40 velocity=0 time=4
note_on channel=9 note=51 velocity=103 time=0
note_off channel=9 note=51 velocity=0 time=0
note_off channel=5 note=81 velocity=0 time=32
note_off channel=4 note=69 velocity=0 time=4
note_off channel=5 note=78 velocity=0 time=4
note_off channel=2 note=69 velocity=0 time=4
note_off channel=2 note=66 velocity=0 time=4
note_off channel=4 note=66 velocity=0 time=0
note_off channel=5 note=74 velocity=0 time=0
note_off channel=2 note=62 velocity=0 time=0
note_off channel=4 note=62 velocity=0 time=4
note_off channel=1 note=50 velocity=0 time=20
note_on channel=6 note=60 velocity=63 time=16
note_off channel=6 note=60 velocity=0 time=24
note_on channel=9 note=53 velocity=80 time=68
note_on channel=5 note=76 velocity=95 time=0
note_on channel=5 note=76 velocity=93 time=0
note_on channel=5 note=79 velocity=93 time=0
note_off channel=9 note=53 velocity=0 time=4
note_on channel=1 note=50 velocity=97 time=0
note_on channel=9 note=36 velocity=95 time=4
note_on channel=2 note=60 velocity=90 time=0
note_on channel=4 note=64 velocity=95 time=0
note_on channel=2 note=67 velocity=93 time=0
note_on channel=4 note=64 velocity=93 time=0
note_on channel=2 note=64 velocity=93 time=0
note_on channel=4 note=67 velocity=93 time=0
note_off channel=9 note=36 velocity=0 time=4
note_off channel=2 note=50 velocity=0 time=40
note_on channel=1 note=45 velocity=75 time=52
note_on channel=2 note=45 velocity=95 time=0
note_off channel=1 note=50 velocity=0 time=4
note_off channel=1 note=45 velocity=0 time=80
note_on channel=1 note=38 velocity=81 time=8
note_on channel=9 note=40 velocity=115 time=4
note_on channel=2 note=38 velocity=97 time=0
note_off channel=9 note=40 velocity=0 time=4
note_off channel=2 note=45 velocity=0 time=0
note_off channel=2 note=60 velocity=0 time=32
note_off channel=2 note=64 velocity=0 time=0
note_off channel=2 note=67 velocity=0 time=4
note_off channel=5 note=79 velocity=0 time=16
note_off channel=5 note=76 velocity=0 time=4
note_off channel=4 note=67 velocity=0 time=4
note_off channel=5 note=76 velocity=0 time=0
note_off channel=4 note=64 velocity=0 time=4
note_off channel=4 note=64 velocity=0 time=0
note_on channel=6 note=60 velocity=66 time=32
note_off channel=6 note=60 velocity=0 time=28
note_on channel=5 note=74 velocity=90 time=56
note_on channel=5 note=78 velocity=95 time=0
note_on channel=5 note=81 velocity=76 time=0
note_on channel=2 note=69 velocity=93 time=4
note_on channel=2 note=62 velocity=93 time=0
note_on channel=2 note=66 velocity=111 time=4
note_on channel=4 note=62 velocity=90 time=0
note_on channel=4 note=66 velocity=95 time=0
note_on channel=4 note=69 velocity=76 time=0
note_on channel=9 note=40 velocity=95 time=100
note_off channel=9 note=40 velocity=0 time=4
note_on channel=9 note=40 velocity=119 time=88
note_off channel=9 note=40 velocity=0 time=4
note_off channel=1 note=38 velocity=0 time=76
note_off channel=5 note=62 velocity=0 time=84
note_off channel=4 note=50 velocity=0 time=4
note_on channel=1 note=40 velocity=87 time=20
note_on channel=5 note=57 velocity=90 time=0
note_on channel=9 note=40 velocity=121 time=4
note_off channel=9 note=40 velocity=0 time=4
note_on channel=4 note=45 velocity=90 time=0
note_off channel=2 note=69 velocity=0 time=40
note_off channel=2 note=62 velocity=0 time=0
note_off channel=2 note=66 velocity=0 time=0
note_on channel=1 note=38 velocity=86 time=52
note_off channel=1 note=40 velocity=0 time=16
note_off channel=5 note=81 velocity=0 time=4
note_off channel=4 note=69 velocity=0 time=8
note_off channel=5 note=78 velocity=0 time=0
note_off channel=5 note=74 velocity=0 time=4
note_off channel=4 note=62 velocity=0 time=4
note_off channel=5 note=57 velocity=0 time=0
note_off channel=4 note=66 velocity=0 time=0
note_off channel=2 note=38 velocity=0 time=4
note_off channel=4 note=45 velocity=0 time=0
note_on channel=1 note=36 velocity=82 time=56
note_on channel=5 note=60 velocity=93 time=0
note_on channel=9 note=36 velocity=105 time=4
note_off channel=1 note=38 velocity=0 time=0
note_on channel=2 note=64 velocity=89 time=0
note_on channel=4 note=48 velocity=93 time=0
note_on channel=9 note=49 velocity=111 time=0
note_on channel=2 note=60 velocity=89 time=0
note_on channel=2 note=67 velocity=82 time=0
note_off channel=9 note=36 velocity=0 time=4
note_off channel=9 note=49 velocity=0 time=0
note_on channel=2 note=48 velocity=93 time=20
note_on channel=6 note=60 velocity=72 time=60
note_off channel=6 note=60 velocity=0 time=36
note_on channel=5 note=64 velocity=89 time=60
note_on channel=4 note=52 velocity=89 time=8
MetaMessage('lyrics', text='\r', time=0)
MetaMessage('lyrics', text='Your', time=4)
note_on channel=0 note=76 velocity=109 time=0
note_on channel=9 note=36 velocity=107 time=0
note_off channel=9 note=36 velocity=0 time=4
note_on channel=5 note=67 velocity=82 time=176
MetaMessage('lyrics', text=' head', time=8)
note_on channel=0 note=74 velocity=101 time=0
note_on channel=4 note=55 velocity=82 time=0
note_on channel=9 note=40 velocity=113 time=4
note_off channel=9 note=40 velocity=0 time=4
note_on channel=9 note=42 velocity=113 time=0
note_off channel=9 note=42 velocity=0 time=4
note_off channel=0 note=76 velocity=0 time=20
note_on channel=6 note=60 velocity=72 time=64
note_off channel=6 note=60 velocity=0 time=40
note_on channel=5 note=72 velocity=87 time=44
note_off channel=0 note=74 velocity=0 time=8
note_on channel=4 note=60 velocity=87 time=0
MetaMessage('lyrics', text=' is', time=4)
note_on channel=0 note=72 velocity=99 time=0
note_on channel=9 note=44 velocity=107 time=0
note_off channel=9 note=44 velocity=0 time=4
note_off channel=2 note=64 velocity=0 time=68
note_off channel=2 note=67 velocity=0 time=8
note_off channel=2 note=60 velocity=0 time=4
note_on channel=9 note=36 velocity=71 time=12
note_off channel=9 note=36 velocity=0 time=4
note_off channel=1 note=36 velocity=0 time=32
note_off channel=5 note=60 velocity=0 time=36
note_off channel=4 note=48 velocity=0 time=8
note_on channel=2 note=47 velocity=95 time=4
note_on channel=5 note=59 velocity=93 time=0
note_off channel=0 note=72 velocity=0 time=4
note_on channel=1 note=35 velocity=92 time=4
note_on channel=4 note=47 velocity=93 time=0
MetaMessage('lyrics', text=' hum', time=4)
note_on channel=0 note=74 velocity=99 time=0
note_on channel=9 note=36 velocity=113 time=0
note_off channel=2 note=48 velocity=0 time=0
note_on channel=9 note=42 velocity=95 time=0
note_on channel=2 note=59 velocity=80 time=0
note_on channel=2 note=62 velocity=86 time=0
note_on channel=2 note=67 velocity=89 time=0
note_off channel=9 note=36 velocity=0 time=4
note_off channel=9 note=42 velocity=0 time=0
note_off channel=5 note=64 velocity=0 time=80
note_off channel=4 note=52 velocity=0 time=4
note_on channel=5 note=62 velocity=76 time=96
note_off channel=0 note=74 velocity=0 time=4
note_on channel=9 note=44 velocity=95 time=0
MetaMessage('lyrics', text='ming', time=4)
note_on channel=0 note=72 velocity=97 time=0
note_off channel=9 note=44 velocity=0 time=0
note_on channel=4 note=50 velocity=76 time=0
note_off channel=5 note=67 velocity=0 time=8
note_off channel=4 note=55 velocity=0 time=8
note_on channel=5 note=67 velocity=92 time=164
note_on channel=9 note=42 velocity=93 time=8
note_on channel=4 note=55 velocity=92 time=0
MetaMessage('lyrics', text=' and', time=4)
note_on channel=0 note=69 velocity=86 time=0
note_off channel=9 note=42 velocity=0 time=0
note_on channel=9 note=40 velocity=111 time=0
note_off channel=9 note=40 velocity=0 time=4
note_off channel=0 note=72 velocity=0 time=16
note_on channel=9 note=44 velocity=105 time=160
note_off channel=5 note=72 velocity=0 time=0
note_on channel=5 note=74 velocity=77 time=0
note_off channel=0 note=69 velocity=0 time=4
note_off channel=9 note=44 velocity=0 time=0
note_off channel=4 note=60 velocity=0 time=4
note_on channel=4 note=62 velocity=77 time=0
MetaMessage('lyrics', text=' it', time=4)
note_on channel=0 note=67 velocity=76 time=0
note_off channel=5 note=74 velocity=0 time=100
note_off channel=2 note=67 velocity=0 time=8
note_off channel=4 note=62 velocity=0 time=0
note_off channel=2 note=62 velocity=0 time=4
note_off channel=2 note=59 velocity=0 time=4
note_off channel=5 note=62 velocity=0 time=40
note_off channel=5 note=67 velocity=0 time=0
note_off channel=4 note=50 velocity=0 time=8
note_on channel=5 note=71 velocity=82 time=0
note_off channel=4 note=55 velocity=0 time=0
note_on channel=4 note=59 velocity=82 time=8
note_on channel=9 note=42 velocity=90 time=8
note_on channel=2 note=45 velocity=105 time=0
note_on channel=5 note=72 velocity=95 time=0
note_off channel=9 note=42 velocity=0 time=4
note_off channel=1 note=35 velocity=0 time=0
note_off channel=5 note=71 velocity=0 time=0
note_on channel=1 note=33 velocity=97 time=4
note_off channel=2 note=47 velocity=0 time=0
note_on channel=4 note=60 velocity=95 time=0
MetaMessage('lyrics', text=" won't", time=4)
note_on channel=0 note=69 velocity=103 time=0
note_on channel=9 note=36 velocity=113 time=0
note_off channel=4 note=59 velocity=0 time=0
note_off channel=9 note=36 velocity=0 time=4
note_on channel=2 note=64 velocity=93 time=0
note_on channel=2 note=60 velocity=92 time=0
note_off channel=0 note=67 velocity=0 time=4
note_off channel=5 note=59 velocity=0 time=12
note_off channel=4 note=47 velocity=0 time=8
note_off channel=0 note=69 velocity=0 time=152
note_on channel=9 note=44 velocity=93 time=0
note_on channel=5 note=69 velocity=92 time=0
note_off channel=9 note=44 velocity=0 time=4
note_on channel=4 note=57 velocity=92 time=4
MetaMessage('lyrics', text=' go', time=4)
note_on channel=0 note=72 velocity=103 time=0
note_off channel=5 note=72 velocity=0 time=4
note_off channel=4 note=60 velocity=0 time=4
note_on channel=9 note=42 velocity=86 time=172
note_off channel=9 note=42 velocity=0 time=4
note_on channel=5 note=57 velocity=99 time=0
note_on channel=4 note=45 velocity=99 time=8
note_on channel=9 note=40 velocity=113 time=4
note_off channel=9 note=40 velocity=0 time=0
note_off channel=0 note=72 velocity=0 time=64
MetaMessage('lyrics', text='\r', time=0)
MetaMessage('lyrics', text='in', time=28)
note_on channel=0 note=69 velocity=81 time=0
note_off channel=0 note=69 velocity=0 time=32
note_on channel=5 note=64 velocity=71 time=52
note_on channel=4 note=52 velocity=71 time=8
MetaMessage('lyrics', text=' case', time=4)
note_on channel=0 note=69 velocity=103 time=0
note_off channel=1 note=33 velocity=0 time=80
note_on channel=9 note=44 velocity=74 time=4
note_off channel=9 note=44 velocity=0 time=4
MetaMessage('lyrics', text=' you', time=8)
note_on channel=0 note=67 velocity=86 time=0
note_off channel=0 note=69 velocity=0 time=4
note_off channel=5 note=69 velocity=0 time=12
note_off channel=4 note=57 velocity=0 time=4
note_on channel=9 note=42 velocity=103 time=64
note_on channel=5 note=69 velocity=89 time=0
note_off channel=9 note=42 velocity=0 time=0
note_on channel=1 note=45 velocity=93 time=8
note_on channel=4 note=57 velocity=89 time=0
MetaMessage('lyrics', text=" don't", time=4)
note_on channel=0 note=69 velocity=107 time=0
note_on channel=9 note=36 velocity=111 time=4
note_off channel=0 note=67 velocity=0 time=4
note_off channel=9 note=36 velocity=0 time=0
note_off channel=0 note=69 velocity=0 time=80
MetaMessage('lyrics', text=' kn', time=8)
note_on channel=0 note=64 velocity=99 time=0
note_off channel=0 note=64 velocity=0 time=32
note_on channel=5 note=72 velocity=86 time=52
note_on channel=4 note=60 velocity=86 time=8
MetaMessage('lyrics', text='ow', time=4)
note_on channel=0 note=64 velocity=111 time=0
note_on channel=9 note=44 velocity=90 time=0
note_on channel=1 note=40 velocity=97 time=0
note_off channel=9 note=44 velocity=0 time=4
note_off channel=1 note=45 velocity=0 time=12
note_off channel=2 note=45 velocity=0 time=76
note_off channel=5 note=57 velocity=0 time=0
note_off channel=4 note=45 velocity=0 time=8
note_off channel=1 note=40 velocity=0 time=84
note_on channel=5 note=57 velocity=90 time=0
note_on channel=9 note=42 velocity=99 time=4
note_off channel=9 note=42 velocity=0 time=4
note_on channel=1 note=33 velocity=92 time=0
note_on channel=4 note=45 velocity=90 time=0
note_on channel=9 note=40 velocity=113 time=4
note_off channel=9 note=40 velocity=0 time=4
note_off channel=2 note=64 velocity=0 time=84
note_off channel=0 note=64 velocity=0 time=28
note_on channel=2 note=47 velocity=101 time=60
note_on channel=5 note=59 velocity=97 time=4
note_on channel=9 note=44 velocity=47 time=8
note_on channel=1 note=35 velocity=103 time=0
note_on channel=4 note=47 velocity=97 time=0
note_off channel=9 note=44 velocity=0 time=4
note_on channel=2 note=67 velocity=101 time=0
note_off channel=5 note=57 velocity=0 time=0
note_off channel=1 note=33 velocity=0 time=8
note_off channel=4 note=45 velocity=0 time=0
note_on channel=9 note=44 velocity=86 time=72
note_off channel=2 note=67 velocity=0 time=0
note_off channel=9 note=44 velocity=0 time=4
note_off channel=2 note=60 velocity=0 time=0
note_on channel=9 note=36 velocity=64 time=12
note_off channel=9 note=36 velocity=0 time=0
note_off channel=5 note=64 velocity=0 time=72
note_off channel=2 note=47 velocity=0 time=8
note_off channel=4 note=52 velocity=0 time=0
note_off channel=5 note=59 velocity=0 time=0
note_on channel=5 note=60 velocity=101 time=0
note_on channel=9 note=42 velocity=97 time=4
note_off channel=4 note=47 velocity=0 time=0
note_off channel=9 note=42 velocity=0 time=4
note_on channel=2 note=48 velocity=99 time=0
note_on channel=4 note=48 velocity=101 time=0
note_on channel=9 note=36 velocity=107 time=4
note_on channel=1 note=36 velocity=97 time=0
note_on channel=2 note=67 velocity=90 time=0
note_on channel=2 note=64 velocity=86 time=0
note_off channel=9 note=36 velocity=0 time=4
note_on channel=2 note=60 velocity=89 time=0
note_off channel=1 note=35 velocity=0 time=8
note_off channel=5 note=69 velocity=0 time=36
note_off channel=4 note=57 velocity=0 time=4
note_on channel=6 note=60 velocity=61 time=48
note_off channel=6 note=60 velocity=0 time=36
note_on channel=5 note=64 velocity=80 time=48
MetaMessage('lyrics', text='\r', time=0)
MetaMessage('lyrics', text='The', time=8)
note_on channel=0 note=69 velocity=90 time=0
note_on channel=4 note=52 velocity=80 time=0
note_on channel=9 note=44 velocity=89 time=4
note_off channel=9 note=44 velocity=0 time=4
note_off channel=5 note=72 velocity=0 time=8
note_off channel=4 note=60 velocity=0 time=4
MetaMessage('lyrics', text=' pip', time=76)
note_on channel=0 note=72 velocity=113 time=0
note_off channel=0 note=69 velocity=0 time=8
note_on channel=5 note=67 velocity=92 time=80
note_on channel=4 note=55 velocity=92 time=8
note_on channel=9 note=42 velocity=81 time=4
note_off channel=9 note=42 velocity=0 time=0
note_on channel=9 note=40 velocity=111 time=0
note_off channel=9 note=40 velocity=0 time=4
note_off channel=0 note=72 velocity=0 time=160
note_on channel=5 note=72 velocity=85 time=16
note_on channel=4 note=60 velocity=85 time=8
MetaMessage('lyrics', text="er's", time=4)
note_on channel=0 note=76 velocity=77 time=0
note_off channel=2 note=60 velocity=0 time=60
note_off channel=2 note=64 velocity=0 time=4
note_on channel=9 note=44 velocity=78 time=16
note_off channel=2 note=67 velocity=0 time=0
note_off channel=9 note=44 velocity=0 time=4
note_off channel=0 note=76 velocity=0 time=92
note_on channel=5 note=59 velocity=93 time=0
note_off channel=1 note=36 velocity=0 time=4
note_on channel=9 note=42 velocity=97 time=4
note_on channel=2 note=47 velocity=92 time=0
note_on channel=4 note=47 velocity=93 time=0
MetaMessage('lyrics', text=' cal', time=4)
note_on channel=0 note=74 velocity=111 time=0
note_off channel=9 note=42 velocity=0 time=0
note_on channel=1 note=35 velocity=92 time=0
note_on channel=2 note=62 velocity=83 time=0
note_on channel=9 note=36 velocity=87 time=0
note_on channel=2 note=59 velocity=81 time=0
note_off channel=9 note=36 velocity=0 time=4
note_off channel=2 note=48 velocity=0 time=0
note_off channel=5 note=60 velocity=0 time=0
note_on channel=2 note=67 velocity=101 time=0
note_off channel=4 note=48 velocity=0 time=4
note_off channel=5 note=64 velocity=0 time=76
note_off channel=4 note=52 velocity=0 time=4
note_on channel=9 note=40 velocity=74 time=12
note_off channel=9 note=40 velocity=0 time=4
note_on channel=5 note=62 velocity=83 time=80
MetaMessage('lyrics', text='ling', time=8)
note_off channel=0 note=74 velocity=0 time=0
note_on channel=9 note=40 velocity=67 time=0
note_on channel=4 note=50 velocity=83 time=0
note_on channel=0 note=72 velocity=92 time=0
note_off channel=9 note=40 velocity=0 time=4
note_on channel=9 note=44 velocity=93 time=4
note_off channel=9 note=44 velocity=0 time=4
note_off channel=5 note=67 velocity=0 time=8
note_off channel=4 note=55 velocity=0 time=8
note_off channel=0 note=72 velocity=0 time=20
note_on channel=9 note=40 velocity=93 time=48
MetaMessage('lyrics', text=' you', time=4)
note_on channel=0 note=69 velocity=103 time=0
note_off channel=9 note=40 velocity=0 time=0
note_on channel=5 note=67 velocity=89 time=84
note_on channel=9 note=40 velocity=90 time=8
note_on channel=4 note=55 velocity=89 time=0
note_on channel=9 note=42 velocity=99 time=0
note_off channel=9 note=40 velocity=0 time=4
note_off channel=5 note=72 velocity=0 time=0
note_off channel=9 note=42 velocity=0 time=0
note_off channel=4 note=60 velocity=0 time=8
note_off channel=0 note=69 velocity=0 time=52
note_off channel=2 note=59 velocity=0 time=16
note_off channel=2 note=67 velocity=0 time=0
note_off channel=2 note=62 velocity=0 time=8
note_on channel=9 note=40 velocity=105 time=4
MetaMessage('lyrics', text=' to', time=4)
note_on channel=0 note=67 velocity=83 time=0
note_off channel=9 note=40 velocity=0 time=0
note_on channel=6 note=60 velocity=75 time=12
note_off channel=6 note=60 velocity=0 time=20
note_off channel=0 note=67 velocity=0 time=4
note_off channel=5 note=62 velocity=0 time=16
note_off channel=4 note=50 velocity=0 time=8
note_off channel=5 note=67 velocity=0 time=0
note_off channel=1 note=35 velocity=0 time=8
note_off channel=2 note=47 velocity=0 time=0
note_off channel=4 note=55 velocity=0 time=0
note_on channel=5 note=65 velocity=77 time=16
note_on channel=5 note=71 velocity=93 time=0
note_on channel=5 note=60 velocity=87 time=0
note_on channel=9 note=44 velocity=101 time=4
note_on channel=4 note=53 velocity=77 time=0
note_on channel=5 note=76 velocity=85 time=0
note_on channel=5 note=69 velocity=82 time=0
note_off channel=9 note=44 velocity=0 time=4
note_on channel=1 note=29 velocity=101 time=0
note_on channel=2 note=41 velocity=95 time=0
note_on channel=4 note=59 velocity=93 time=0
note_on channel=9 note=40 velocity=109 time=0
note_on channel=4 note=48 velocity=87 time=0
MetaMessage('lyrics', text=' join', time=4)
note_on channel=0 note=72 velocity=115 time=0
note_off channel=9 note=40 velocity=0 time=0
note_on channel=2 note=60 velocity=85 time=0
note_on channel=4 note=64 velocity=85 time=0
note_on channel=5 note=53 velocity=103 time=0
note_on channel=9 note=36 velocity=113 time=0
note_on channel=4 note=57 velocity=82 time=0
note_off channel=9 note=36 velocity=0 time=4
note_on channel=2 note=65 velocity=97 time=0
note_on channel=4 note=41 velocity=103 time=0
note_on channel=2 note=57 velocity=72 time=0
note_off channel=5 note=59 velocity=0 time=8
note_off channel=4 note=47 velocity=0 time=8
note_off channel=1 note=29 velocity=0 time=72
note_off channel=2 note=41 velocity=0 time=4
note_off channel=2 note=65 velocity=0 time=44
note_off channel=2 note=57 velocity=0 time=4
note_off channel=2 note=60 velocity=0 time=12
note_on channel=9 note=42 velocity=103 time=40
note_off channel=5 note=53 velocity=0 time=0
note_off channel=9 note=42 velocity=0 time=0
note_off channel=4 note=41 velocity=0 time=4
note_on channel=6 note=60 velocity=61 time=68
note_off channel=6 note=60 velocity=0 time=28
note_off channel=5 note=69 velocity=0 time=20
note_off channel=5 note=71 velocity=0 time=0
note_off channel=5 note=76 velocity=0 time=0
note_off channel=4 note=57 velocity=0 time=8
note_off channel=4 note=59 velocity=0 time=0
note_off channel=4 note=64 velocity=0 time=0
note_off channel=5 note=60 velocity=0 time=4
note_off channel=5 note=65 velocity=0 time=0
note_off channel=4 note=48 velocity=0 time=8
note_off channel=4 note=53 velocity=0 time=0
note_off channel=0 note=72 velocity=0 time=24
note_on channel=5 note=76 velocity=90 time=12
note_on channel=5 note=69 velocity=90 time=0
note_on channel=5 note=72 velocity=90 time=0
note_on channel=2 note=45 velocity=97 time=4
note_on channel=4 note=64 velocity=90 time=0
note_on channel=5 note=57 velocity=111 time=0
note_on channel=4 note=57 velocity=90 time=0
note_on channel=5 note=64 velocity=90 time=0
note_on channel=1 note=33 velocity=107 time=4
note_on channel=4 note=60 velocity=90 time=0
MetaMessage('lyrics', text=' him', time=4)
note_on channel=0 note=69 velocity=115 time=0
note_on channel=9 note=36 velocity=107 time=0
note_on channel=4 note=45 velocity=111 time=0
note_on channel=4 note=52 velocity=90 time=0
note_off channel=9 note=36 velocity=0 time=4
note_on channel=2 note=60 velocity=89 time=0
note_on channel=9 note=44 velocity=93 time=0
note_on channel=2 note=57 velocity=82 time=0
note_on channel=2 note=64 velocity=101 time=0
note_off channel=9 note=44 velocity=0 time=4
note_on channel=9 note=40 velocity=119 time=188
note_off channel=9 note=40 velocity=0 time=0
note_on channel=9 note=42 velocity=87 time=4
note_off channel=9 note=42 velocity=0 time=4
note_on channel=6 note=60 velocity=63 time=80
note_off channel=6 note=60 velocity=0 time=24
note_on channel=9 note=44 velocity=70 time=64
note_off channel=9 note=44 velocity=0 time=4
note_on channel=9 note=44 velocity=60 time=88
note_off channel=9 note=44 velocity=0 time=4
note_on channel=9 note=42 velocity=101 time=96
note_off channel=9 note=42 velocity=0 time=0
note_off channel=0 note=69 velocity=0 time=84
note_on channel=6 note=60 velocity=66 time=28
note_off channel=6 note=60 velocity=0 time=28
note_on channel=9 note=44 velocity=99 time=48
note_off channel=9 note=44 velocity=0 time=4
note_on channel=9 note=36 velocity=105 time=12
note_off channel=9 note=36 velocity=0 time=4
note_off channel=5 note=57 velocity=0 time=60
note_off channel=4 note=45 velocity=0 time=4
note_off channel=1 note=33 velocity=0 time=12
note_off channel=5 note=76 velocity=0 time=92
note_off channel=5 note=69 velocity=0 time=0
note_off channel=5 note=72 velocity=0 time=0
note_off channel=4 note=64 velocity=0 time=8
note_on channel=5 note=57 velocity=99 time=0
note_off channel=4 note=57 velocity=0 time=0
note_off channel=4 note=60 velocity=0 time=0
note_on channel=4 note=45 velocity=99 time=4
note_off channel=5 note=64 velocity=0 time=0
note_on channel=9 note=42 velocity=99 time=4
note_on channel=1 note=33 velocity=97 time=0
note_off channel=9 note=42 velocity=0 time=4
note_off channel=4 note=52 velocity=0 time=0
note_on channel=9 note=40 velocity=113 time=0
note_off channel=9 note=40 velocity=0 time=4
note_off channel=2 note=64 velocity=0 time=8
note_off channel=2 note=45 velocity=0 time=12
note_off channel=2 note=57 velocity=0 time=4
note_off channel=2 note=60 velocity=0 time=8
note_on channel=2 note=47 velocity=97 time=128
note_on channel=5 note=59 velocity=99 time=16
note_on channel=4 note=47 velocity=99 time=4
note_on channel=9 note=44 velocity=64 time=8
note_on channel=1 note=35 velocity=99 time=0
note_off channel=5 note=57 velocity=0 time=0
note_off channel=9 note=44 velocity=0 time=4
note_off channel=1 note=33 velocity=0 time=0
note_off channel=4 note=45 velocity=0 time=0
note_on channel=9 note=44 velocity=80 time=96
note_off channel=9 note=44 velocity=0 time=0
note_off channel=2 note=47 velocity=0 time=76
note_on channel=2 note=48 velocity=99 time=0
note_on channel=9 note=42 velocity=95 time=4
note_on channel=5 note=60 velocity=109 time=0
note_off channel=9 note=42 velocity=0 time=4
note_on channel=4 note=48 velocity=109 time=4
note_off channel=5 note=59 velocity=0 time=0
note_on channel=9 note=36 velocity=107 time=4
note_on channel=1 note=36 velocity=101 time=0
note_off channel=9 note=36 velocity=0 time=4
note_off channel=1 note=35 velocity=0 time=0
note_on channel=2 note=64 velocity=82 time=0
note_off channel=4 note=47 velocity=0 time=0
note_on channel=2 note=60 velocity=82 time=0
note_on channel=2 note=67 velocity=97 time=0
note_on channel=6 note=60 velocity=72 time=84
note_off channel=6 note=60 velocity=0 time=36
note_on channel=9 note=44 velocity=87 time=60
note_on channel=5 note=64 velocity=89 time=0
note_off channel=9 note=44 velocity=0 time=4
note_on channel=4 note=52 velocity=89 time=4
MetaMessage('lyrics', text='\r', time=0)
MetaMessage('lyrics', text='Dear', time=4)
note_on channel=0 note=76 velocity=111 time=0
note_on channel=5 note=67 velocity=82 time=180
note_off channel=0 note=76 velocity=0 time=4
MetaMessage('lyrics', text=' la', time=4)
note_on channel=0 note=74 velocity=95 time=0
note_on channel=9 note=42 velocity=90 time=0
note_on channel=4 note=55 velocity=82 time=0
note_off channel=9 note=42 velocity=0 time=4
note_on channel=9 note=40 velocity=115 time=0
note_off channel=9 note=40 velocity=0 time=4
note_on channel=6 note=60 velocity=72 time=88
note_off channel=6 note=60 velocity=0 time=40
note_on channel=5 note=72 velocity=87 time=44
note_off channel=0 note=74 velocity=0 time=4
MetaMessage('lyrics', text='dy', time=4)
note_on channel=0 note=72 velocity=93 time=0
note_on channel=4 note=60 velocity=87 time=0
note_on channel=9 note=44 velocity=92 time=8
note_off channel=9 note=44 velocity=0 time=4
note_off channel=2 note=64 velocity=0 time=68
note_off channel=2 note=60 velocity=0 time=0
note_off channel=2 note=67 velocity=0 time=20
note_on channel=2 note=62 velocity=89 time=76
note_off channel=2 note=48 velocity=0 time=4
note_on channel=2 note=47 velocity=99 time=0
note_on channel=2 note=59 velocity=87 time=0
note_on channel=2 note=67 velocity=95 time=4
note_on channel=9 note=42 velocity=93 time=8
note_on channel=5 note=59 velocity=103 time=0
MetaMessage('lyrics', text=' can', time=4)
note_on channel=0 note=74 velocity=103 time=0
note_off channel=9 note=42 velocity=0 time=0
note_on channel=1 note=35 velocity=95 time=0
note_on channel=9 note=36 velocity=82 time=4
note_off channel=1 note=36 velocity=0 time=0
note_on channel=4 note=47 velocity=103 time=0
note_off channel=9 note=36 velocity=0 time=0
note_off channel=0 note=72 velocity=0 time=12
note_off channel=5 note=60 velocity=0 time=12
note_off channel=4 note=48 velocity=0 time=8
note_off channel=5 note=64 velocity=0 time=48
note_off channel=4 note=52 velocity=0 time=4
note_on channel=5 note=62 velocity=76 time=96
note_on channel=9 note=44 velocity=80 time=4
MetaMessage('lyrics', text=' you', time=4)
note_on channel=0 note=72 velocity=93 time=0
note_off channel=9 note=44 velocity=0 time=0
note_on channel=4 note=50 velocity=76 time=0
note_on channel=9 note=36 velocity=103 time=0
note_off channel=9 note=36 velocity=0 time=4
note_off channel=0 note=74 velocity=0 time=4
note_off channel=5 note=67 velocity=0 time=0
note_off channel=4 note=55 velocity=0 time=8
note_on channel=5 note=67 velocity=92 time=164
note_off channel=0 note=72 velocity=0 time=4
note_on channel=4 note=55 velocity=92 time=4
MetaMessage('lyrics', text=' hear', time=4)
note_on channel=0 note=69 velocity=99 time=0
note_on channel=9 note=40 velocity=115 time=0
note_on channel=9 note=42 velocity=92 time=0
note_off channel=9 note=40 velocity=0 time=4
note_off channel=9 note=42 velocity=0 time=0
note_off channel=5 note=72 velocity=0 time=176
note_on channel=5 note=74 velocity=77 time=0
MetaMessage('lyrics', text=' the', time=8)
note_on channel=0 note=67 velocity=90 time=0
note_on channel=9 note=44 velocity=95 time=0
note_off channel=4 note=60 velocity=0 time=0
note_on channel=4 note=62 velocity=77 time=0
note_off channel=9 note=44 velocity=0 time=4
note_on channel=9 note=36 velocity=81 time=0
note_off channel=0 note=69 velocity=0 time=4
note_off channel=9 note=36 velocity=0 time=0
note_off channel=2 note=62 velocity=0 time=56
note_off channel=2 note=59 velocity=0 time=0
note_off channel=2 note=67 velocity=0 time=28
MetaMessage('lyrics', text=' wind', time=4)
note_on channel=0 note=69 velocity=101 time=0
note_off channel=0 note=67 velocity=0 time=8
note_off channel=5 note=74 velocity=0 time=0
note_off channel=4 note=62 velocity=0 time=8
note_off channel=5 note=62 velocity=0 time=48
note_off channel=5 note=67 velocity=0 time=0
note_off channel=4 note=50 velocity=0 time=8
note_on channel=5 note=71 velocity=82 time=0
note_off channel=4 note=55 velocity=0 time=0
note_on channel=4 note=59 velocity=82 time=8
note_on channel=2 note=45 velocity=99 time=8
note_on channel=5 note=72 velocity=95 time=0
note_on channel=2 note=57 velocity=77 time=0
note_on channel=2 note=60 velocity=81 time=0
note_off channel=2 note=47 velocity=0 time=4
note_off channel=5 note=71 velocity=0 time=0
note_on channel=2 note=64 velocity=92 time=4
note_on channel=4 note=60 velocity=95 time=0
note_on channel=9 note=36 velocity=117 time=4
note_on channel=1 note=33 velocity=101 time=0
note_off channel=4 note=59 velocity=0 time=0
note_on channel=5 note=57 velocity=97 time=0
note_off channel=9 note=36 velocity=0 time=4
note_on channel=4 note=45 velocity=97 time=0
note_off channel=5 note=59 velocity=0 time=0
note_on channel=9 note=42 velocity=89 time=0
note_off channel=9 note=42 velocity=0 time=0
note_off channel=1 note=35 velocity=0 time=4
note_off channel=4 note=47 velocity=0 time=4
note_on channel=5 note=69 velocity=92 time=168
note_on channel=9 note=44 velocity=99 time=8
note_on channel=4 note=57 velocity=92 time=0
note_off channel=9 note=44 velocity=0 time=4
MetaMessage('lyrics', text=' blow', time=4)
note_on channel=0 note=72 velocity=107 time=0
note_off channel=5 note=72 velocity=0 time=0
note_off channel=4 note=60 velocity=0 time=4
note_off channel=0 note=69 velocity=0 time=8
note_off channel=5 note=57 velocity=0 time=24
note_off channel=4 note=45 velocity=0 time=8
note_on channel=5 note=57 velocity=103 time=136
note_on channel=9 note=42 velocity=101 time=8
note_on channel=4 note=45 velocity=103 time=0
note_off channel=9 note=42 velocity=0 time=4
note_on channel=9 note=40 velocity=111 time=0
note_off channel=9 note=40 velocity=0 time=0
note_off channel=0 note=72 velocity=0 time=52
note_on channel=5 note=64 velocity=71 time=124
note_on channel=4 note=52 velocity=71 time=8
MetaMessage('lyrics', text='\r', time=0)
MetaMessage('lyrics', text='And', time=4)
note_on channel=0 note=69 velocity=97 time=0
note_on channel=9 note=44 velocity=65 time=72
note_off channel=9 note=44 velocity=0 time=4
note_off channel=2 note=64 velocity=0 time=4
MetaMessage('lyrics', text=' did', time=16)
note_on channel=0 note=67 velocity=87 time=0
note_off channel=0 note=69 velocity=0 time=4
note_on channel=9 note=36 velocity=71 time=0
note_off channel=9 note=36 velocity=0 time=4
note_off channel=5 note=69 velocity=0 time=8
note_off channel=4 note=57 velocity=0 time=4
note_on channel=9 note=42 velocity=101 time=64
note_on channel=5 note=69 velocity=89 time=0
note_off channel=9 note=42 velocity=0 time=0
note_off channel=1 note=33 velocity=0 time=4
note_on channel=2 note=64 velocity=89 time=4
note_on channel=4 note=57 velocity=89 time=0
MetaMessage('lyrics', text=' you', time=4)
note_on channel=0 note=69 velocity=103 time=0
note_on channel=1 note=45 velocity=99 time=0
note_off channel=0 note=67 velocity=0 time=4
note_on channel=9 note=36 velocity=105 time=0
note_off channel=9 note=36 velocity=0 time=0
note_off channel=0 note=69 velocity=0 time=80
note_on channel=2 note=69 velocity=90 time=8
MetaMessage('lyrics', text=' kn', time=4)
note_on channel=0 note=64 velocity=89 time=0
note_off channel=0 note=64 velocity=0 time=40
note_on channel=5 note=72 velocity=86 time=44
note_off channel=1 note=45 velocity=0 time=4
note_on channel=9 note=44 velocity=90 time=4
note_on channel=4 note=60 velocity=86 time=0
MetaMessage('lyrics', text='ow', time=4)
note_on channel=0 note=64 velocity=107 time=0
note_off channel=9 note=44 velocity=0 time=0
note_on channel=1 note=40 velocity=103 time=0
note_on channel=9 note=36 velocity=107 time=0
note_off channel=9 note=36 velocity=0 time=4
note_off channel=5 note=57 velocity=0 time=76
note_off channel=4 note=45 velocity=0 time=4
note_off channel=2 note=69 velocity=0 time=20
note_on channel=5 note=57 velocity=99 time=76
note_on channel=9 note=42 velocity=92 time=8
note_on channel=2 note=69 velocity=99 time=0
note_on channel=4 note=45 velocity=99 time=0
note_off channel=9 note=42 velocity=0 time=4
note_on channel=1 note=33 velocity=92 time=0
note_on channel=9 note=40 velocity=111 time=0
note_off channel=9 note=40 velocity=0 time=4
note_off channel=1 note=40 velocity=0 time=8
note_off channel=0 note=64 velocity=0 time=152
note_on channel=2 note=47 velocity=97 time=16
note_on channel=5 note=59 velocity=87 time=0
note_off channel=2 note=45 velocity=0 time=4
note_on channel=4 note=47 velocity=87 time=4
note_on channel=9 note=36 velocity=86 time=4
note_on channel=1 note=35 velocity=95 time=0
note_on channel=2 note=59 velocity=77 time=0
note_on channel=9 note=44 velocity=93 time=0
note_on channel=2 note=62 velocity=74 time=0
note_on channel=2 note=67 velocity=103 time=0
note_off channel=9 note=36 velocity=0 time=4
note_off channel=2 note=57 velocity=0 time=0
note_off channel=5 note=57 velocity=0 time=0
note_off channel=9 note=44 velocity=0 time=0
note_off channel=2 note=60 velocity=0 time=0
note_off channel=4 note=45 velocity=0 time=4
note_off channel=2 note=69 velocity=0 time=16
note_off channel=1 note=33 velocity=0 time=4
note_off channel=2 note=64 velocity=0 time=4
note_off channel=2 note=59 velocity=0 time=56
note_off channel=2 note=62 velocity=0 time=8
note_off channel=2 note=67 velocity=0 time=48
note_off channel=5 note=64 velocity=0 time=28
note_on channel=2 note=48 velocity=92 time=4
note_off channel=2 note=47 velocity=0 time=4
note_off channel=4 note=52 velocity=0 time=0
note_on channel=5 note=60 velocity=105 time=0
note_off channel=5 note=59 velocity=0 time=4
note_on channel=9 note=42 velocity=90 time=4
note_off channel=1 note=35 velocity=0 time=0
note_on channel=2 note=64 velocity=89 time=0
note_on channel=4 note=48 velocity=105 time=0
note_on channel=2 note=60 velocity=81 time=0
note_off channel=9 note=42 velocity=0 time=4
note_on channel=1 note=36 velocity=95 time=0
note_off channel=4 note=47 velocity=0 time=0
note_on channel=9 note=36 velocity=109 time=0
note_off channel=9 note=36 velocity=0 time=4
note_off channel=5 note=69 velocity=0 time=44
note_off channel=4 note=57 velocity=0 time=4
note_on channel=6 note=60 velocity=61 time=48
note_off channel=6 note=60 velocity=0 time=36
note_on channel=9 note=44 velocity=95 time=44
note_off channel=9 note=44 velocity=0 time=4
note_on channel=5 note=64 velocity=80 time=0
note_on channel=4 note=52 velocity=80 time=8
MetaMessage('lyrics', text='\r', time=0)
MetaMessage('lyrics', text='Your', time=4)
note_on channel=0 note=72 velocity=80 time=0
note_off channel=5 note=72 velocity=0 time=12
note_off channel=4 note=60 velocity=0 time=4
note_off channel=0 note=72 velocity=0 time=84
note_on channel=9 note=42 velocity=95 time=80
note_on channel=5 note=67 velocity=92 time=0
note_off channel=9 note=42 velocity=0 time=4
MetaMessage('lyrics', text=' stair', time=4)
note_on channel=0 note=72 velocity=107 time=0
note_on channel=9 note=40 velocity=115 time=0
note_on channel=2 note=67 velocity=97 time=0
note_on channel=4 note=55 velocity=92 time=0
note_off channel=9 note=40 velocity=0 time=4
note_on channel=5 note=72 velocity=85 time=180
MetaMessage('lyrics', text='way', time=8)
note_on channel=0 note=76 velocity=103 time=0
note_on channel=9 note=44 velocity=45 time=0
note_on channel=4 note=60 velocity=85 time=0
note_off channel=9 note=44 velocity=0 time=4
note_off channel=0 note=72 velocity=0 time=16
note_off channel=2 note=67 velocity=0 time=52
note_off channel=2 note=60 velocity=0 time=12
note_off channel=2 note=64 velocity=0 time=4
note_on channel=9 note=44 velocity=93 time=4
note_off channel=9 note=44 velocity=0 time=4
note_on channel=9 note=36 velocity=87 time=0
note_off channel=9 note=36 velocity=0 time=4
note_off channel=0 note=76 velocity=0 time=80
note_on channel=2 note=47 velocity=97 time=0
note_on channel=5 note=59 velocity=101 time=0
note_off channel=2 note=48 velocity=0 time=4
note_on channel=4 note=47 velocity=101 time=4
MetaMessage('lyrics', text=' lies', time=4)
note_on channel=0 note=74 velocity=99 time=0
note_on channel=1 note=35 velocity=95 time=0
note_on channel=2 note=62 velocity=82 time=0
note_off channel=5 note=60 velocity=0 time=0
note_on channel=2 note=59 velocity=80 time=0
note_on channel=9 note=36 velocity=101 time=4
note_on channel=2 note=67 velocity=97 time=0
note_off channel=4 note=48 velocity=0 time=0
note_off channel=9 note=36 velocity=0 time=0
note_on channel=9 note=42 velocity=105 time=0
note_off channel=9 note=42 velocity=0 time=0
note_off channel=1 note=36 velocity=0 time=8
note_off channel=5 note=64 velocity=0 time=72
note_off channel=4 note=52 velocity=0 time=4
note_on channel=5 note=62 velocity=83 time=96
note_on channel=9 note=44 velocity=82 time=4
MetaMessage('lyrics', text=' on', time=4)
note_on channel=0 note=72 velocity=85 time=0
note_off channel=9 note=44 velocity=0 time=0
note_on channel=4 note=50 velocity=83 time=0
note_on channel=9 note=40 velocity=62 time=0
note_off channel=9 note=40 velocity=0 time=4
note_off channel=0 note=74 velocity=0 time=4
note_off channel=5 note=67 velocity=0 time=12
note_off channel=4 note=55 velocity=0 time=8
note_on channel=9 note=40 velocity=90 time=72
note_off channel=9 note=40 velocity=0 time=0
note_off channel=0 note=72 velocity=0 time=84
note_on channel=5 note=67 velocity=89 time=0
note_on channel=9 note=42 velocity=93 time=4
MetaMessage('lyrics', text=' the', time=4)
note_on channel=0 note=69 velocity=103 time=0
note_off channel=9 note=42 velocity=0 time=0
note_on channel=4 note=55 velocity=89 time=0
note_on channel=9 note=40 velocity=97 time=0
note_off channel=9 note=40 velocity=0 time=4
note_off channel=5 note=72 velocity=0 time=0
note_off channel=4 note=60 velocity=0 time=8
note_off channel=2 note=59 velocity=0 time=72
note_off channel=2 note=67 velocity=0 time=0
note_off channel=2 note=62 velocity=0 time=4
note_on channel=9 note=40 velocity=105 time=8
note_off channel=9 note=40 velocity=0 time=4
note_on channel=6 note=60 velocity=75 time=8
note_off channel=6 note=60 velocity=0 time=20
note_off channel=5 note=62 velocity=0 time=20
note_off channel=4 note=50 velocity=0 time=8
note_off channel=5 note=67 velocity=0 time=0
note_off channel=1 note=35 velocity=0 time=4
note_off channel=4 note=55 velocity=0 time=4
note_off channel=5 note=59 velocity=0 time=12
note_off channel=4 note=47 velocity=0 time=4
note_on channel=5 note=65 velocity=77 time=0
note_on channel=5 note=53 velocity=101 time=0
note_on channel=5 note=71 velocity=93 time=0
note_on channel=5 note=60 velocity=87 time=0
note_off channel=0 note=69 velocity=0 time=4
note_on channel=9 note=44 velocity=90 time=0
note_on channel=4 note=53 velocity=77 time=0
note_on channel=5 note=76 velocity=85 time=0
note_on channel=5 note=69 velocity=82 time=0
note_off channel=9 note=44 velocity=0 time=4
note_on channel=2 note=41 velocity=89 time=0
note_on channel=4 note=41 velocity=101 time=0
note_on channel=4 note=59 velocity=93 time=0
note_on channel=4 note=48 velocity=87 time=0
MetaMessage('lyrics', text=' whis', time=4)
note_on channel=0 note=72 velocity=111 time=0
note_on channel=9 note=40 velocity=117 time=0
note_on channel=1 note=29 velocity=101 time=0
note_on channel=4 note=64 velocity=85 time=0
note_on channel=4 note=57 velocity=82 time=0
note_off channel=9 note=40 velocity=0 time=4
note_off channel=2 note=47 velocity=0 time=0
note_on channel=9 note=36 velocity=113 time=0
note_on channel=2 note=65 velocity=103 time=0
note_on channel=2 note=60 velocity=103 time=0
note_on channel=2 note=57 velocity=87 time=0
note_off channel=9 note=36 velocity=0 time=4
note_off channel=2 note=41 velocity=0 time=52
note_off channel=1 note=29 velocity=0 time=12
note_off channel=2 note=65 velocity=0 time=64
note_off channel=2 note=60 velocity=0 time=36
note_off channel=2 note=57 velocity=0 time=4
note_on channel=9 note=42 velocity=95 time=20
note_off channel=9 note=42 velocity=0 time=0
note_on channel=6 note=60 velocity=61 time=72
note_off channel=5 note=53 velocity=0 time=20
note_off channel=4 note=41 velocity=0 time=4
note_off channel=6 note=60 velocity=0 time=4
note_off channel=5 note=69 velocity=0 time=20
note_off channel=5 note=71 velocity=0 time=0
note_off channel=5 note=76 velocity=0 time=0
note_off channel=4 note=57 velocity=0 time=8
note_off channel=4 note=59 velocity=0 time=0
note_off channel=4 note=64 velocity=0 time=0
note_off channel=5 note=60 velocity=0 time=4
note_off channel=5 note=65 velocity=0 time=0
note_off channel=4 note=48 velocity=0 time=8
note_off channel=4 note=53 velocity=0 time=0
note_on channel=5 note=76 velocity=90 time=36
note_on channel=5 note=69 velocity=90 time=0
note_on channel=5 note=72 velocity=90 time=0
note_on channel=4 note=64 velocity=90 time=4
note_on channel=5 note=57 velocity=107 time=0
note_on channel=4 note=57 velocity=90 time=0
note_on channel=5 note=64 velocity=90 time=0
note_off channel=0 note=72 velocity=0 time=4
note_on channel=9 note=44 velocity=87 time=0
note_on channel=4 note=60 velocity=90 time=0
note_off channel=9 note=44 velocity=0 time=4
note_on channel=1 note=33 velocity=105 time=0
note_on channel=2 note=45 velocity=95 time=0
note_on channel=4 note=45 velocity=107 time=0
note_on channel=2 note=60 velocity=86 time=0
note_on channel=4 note=52 velocity=90 time=0
MetaMessage('lyrics', text='pering', time=4)
note_on channel=0 note=69 velocity=113 time=0
note_on channel=9 note=36 velocity=113 time=0
note_on channel=2 note=57 velocity=83 time=0
note_on channel=2 note=45 velocity=107 time=0
note_on channel=2 note=64 velocity=93 time=0
note_off channel=9 note=36 velocity=0 time=4
note_off channel=0 note=69 velocity=0 time=52
MetaMessage('lyrics', text=' wind', time=132)
note_on channel=0 note=69 velocity=117 time=0
note_on channel=9 note=40 velocity=115 time=4
note_off channel=9 note=40 velocity=0 time=4
note_on channel=9 note=42 velocity=101 time=0
note_off channel=9 note=42 velocity=0 time=4
note_on channel=6 note=60 velocity=63 time=80
note_off channel=6 note=60 velocity=0 time=24
note_on channel=9 note=44 velocity=51 time=76
note_off channel=9 note=44 velocity=0 time=4
note_on channel=9 note=44 velocity=92 time=88
note_off channel=9 note=44 velocity=0 time=4
note_on channel=9 note=42 velocity=103 time=100
note_off channel=9 note=42 velocity=0 time=0
note_off channel=2 note=45 velocity=0 time=68
note_on channel=6 note=60 velocity=66 time=28
note_off channel=6 note=60 velocity=0 time=28
note_on channel=9 note=36 velocity=103 time=60
note_off channel=9 note=36 velocity=0 time=4
note_on channel=9 note=44 velocity=89 time=4
note_off channel=9 note=44 velocity=0 time=0
note_off channel=5 note=57 velocity=0 time=48
note_off channel=4 note=45 velocity=0 time=8
note_off channel=5 note=76 velocity=0 time=112
note_off channel=5 note=69 velocity=0 time=0
note_off channel=5 note=72 velocity=0 time=0
note_off channel=4 note=64 velocity=0 time=8
note_on channel=5 note=57 velocity=101 time=0
note_off channel=4 note=57 velocity=0 time=0
note_off channel=4 note=60 velocity=0 time=0
note_off channel=5 note=64 velocity=0 time=4
note_on channel=9 note=42 velocity=101 time=4
note_on channel=4 note=45 velocity=101 time=0
note_off channel=9 note=42 velocity=0 time=4
note_off channel=4 note=52 velocity=0 time=0
note_on channel=9 note=40 velocity=115 time=0
note_off channel=9 note=40 velocity=0 time=4
note_off channel=2 note=64 velocity=0 time=0
note_off channel=2 note=57 velocity=0 time=12
note_off channel=1 note=33 velocity=0 time=4
note_off channel=2 note=60 velocity=0 time=0
note_off channel=2 note=45 velocity=0 time=28
note_on channel=1 note=33 velocity=77 time=48
note_off channel=1 note=33 velocity=0 time=36
note_off channel=0 note=69 velocity=0 time=32
note_on channel=5 note=59 velocity=89 time=16
note_off channel=5 note=57 velocity=0 time=4
note_on channel=9 note=44 velocity=74 time=4
note_on channel=1 note=33 velocity=93 time=0
note_on channel=2 note=59 velocity=82 time=0
note_on channel=4 note=47 velocity=89 time=0
note_on channel=2 note=62 velocity=89 time=0
note_off channel=9 note=44 velocity=0 time=4
note_on channel=2 note=67 velocity=95 time=0
note_off channel=4 note=45 velocity=0 time=0
note_on channel=2 note=47 velocity=101 time=4
note_on channel=9 note=44 velocity=93 time=80
note_off channel=9 note=44 velocity=0 time=0
note_on channel=1 note=35 velocity=90 time=8
note_off channel=1 note=33 velocity=0 time=8
note_off channel=2 note=67 velocity=0 time=16
note_off channel=2 note=59 velocity=0 time=16
note_off channel=2 note=62 velocity=0 time=0
note_on channel=9 note=42 velocity=99 time=44
note_off channel=9 note=42 velocity=0 time=4
note_off channel=5 note=59 velocity=0 time=0
note_on channel=5 note=60 velocity=105 time=0
note_off channel=4 note=47 velocity=0 time=8
note_on channel=4 note=48 velocity=105 time=0
note_on channel=9 note=36 velocity=109 time=4
note_on channel=1 note=36 velocity=107 time=0
note_on channel=2 note=67 velocity=89 time=0
note_on channel=2 note=60 velocity=81 time=0
note_off channel=9 note=36 velocity=0 time=4
note_off channel=1 note=35 velocity=0 time=0
note_on channel=2 note=64 velocity=97 time=0
note_on channel=9 note=42 velocity=85 time=0
note_on channel=2 note=48 velocity=95 time=0
note_off channel=9 note=42 velocity=0 time=4
note_off channel=2 note=47 velocity=0 time=12
note_on channel=5 note=64 velocity=89 time=164
note_on channel=9 note=36 velocity=105 time=8
note_on channel=4 note=52 velocity=89 time=0
note_on channel=9 note=44 velocity=77 time=0
note_off channel=9 note=36 velocity=0 time=4
note_off channel=9 note=44 velocity=0 time=0
note_on channel=5 note=67 velocity=82 time=180
note_on channel=9 note=40 velocity=113 time=8
note_on channel=4 note=55 velocity=82 time=0
note_on channel=9 note=42 velocity=87 time=0
note_off channel=9 note=40 velocity=0 time=4
note_off channel=9 note=42 velocity=0 time=0
note_on channel=5 note=72 velocity=87 time=176
note_on channel=4 note=60 velocity=87 time=8
note_on channel=9 note=36 velocity=78 time=4
note_on channel=9 note=44 velocity=71 time=0
note_off channel=9 note=36 velocity=0 time=4
note_off channel=9 note=44 velocity=0 time=0
note_off channel=2 note=64 velocity=0 time=60
note_off channel=2 note=60 velocity=0 time=4
note_on channel=9 note=44 velocity=90 time=24
note_off channel=2 note=67 velocity=0 time=0
note_off channel=9 note=44 velocity=0 time=4
note_on channel=0 note=71 velocity=119 time=84
note_off channel=2 note=48 velocity=0 time=0
note_on channel=5 note=59 velocity=107 time=4
note_on channel=2 note=62 velocity=87 time=4
note_on channel=9 note=36 velocity=103 time=4
note_on channel=1 note=35 velocity=105 time=0
note_on channel=2 note=47 velocity=90 time=0
note_on channel=4 note=47 velocity=107 time=0
note_on channel=9 note=42 velocity=107 time=0
note_on channel=2 note=59 velocity=81 time=0
note_on channel=2 note=67 velocity=92 time=0
note_off channel=9 note=36 velocity=0 time=4
note_off channel=9 note=42 velocity=0 time=0
MetaMessage('set_tempo', tempo=769230, time=4)
note_off channel=1 note=36 velocity=0 time=12
note_off channel=5 note=60 velocity=0 time=8
note_off channel=4 note=48 velocity=0 time=8
note_off channel=5 note=64 velocity=0 time=48
note_off channel=4 note=52 velocity=0 time=4
note_on channel=5 note=62 velocity=76 time=96
note_on channel=9 note=36 velocity=90 time=8
note_on channel=4 note=50 velocity=76 time=0
note_on channel=9 note=44 velocity=87 time=0
note_off channel=9 note=36 velocity=0 time=4
note_off channel=9 note=44 velocity=0 time=0
note_off channel=5 note=67 velocity=0 time=4
note_off channel=4 note=55 velocity=0 time=8
note_on channel=5 note=67 velocity=92 time=164
note_on channel=4 note=55 velocity=92 time=8
note_on channel=9 note=40 velocity=99 time=4
note_on channel=9 note=42 velocity=99 time=0
note_off channel=9 note=40 velocity=0 time=4
note_off channel=9 note=42 velocity=0 time=0
note_off channel=2 note=47 velocity=0 time=128
note_off channel=5 note=72 velocity=0 time=48
note_on channel=5 note=74 velocity=77 time=0
note_on channel=9 note=40 velocity=95 time=8
note_off channel=4 note=60 velocity=0 time=0
note_on channel=9 note=44 velocity=101 time=0
note_on channel=4 note=62 velocity=77 time=0
note_off channel=9 note=40 velocity=0 time=4
note_on channel=2 note=45 velocity=97 time=0
note_off channel=9 note=44 velocity=0 time=0
note_on channel=9 note=40 velocity=105 time=92
note_off channel=9 note=40 velocity=0 time=4
note_off channel=5 note=74 velocity=0 time=4
note_off channel=4 note=62 velocity=0 time=8
note_off channel=5 note=59 velocity=0 time=24
note_off channel=4 note=47 velocity=0 time=4
note_off channel=5 note=62 velocity=0 time=20
note_off channel=5 note=67 velocity=0 time=0
note_off channel=4 note=50 velocity=0 time=8
note_off channel=4 note=55 velocity=0 time=0
note_off channel=1 note=35 velocity=0 time=16
note_on channel=4 note=50 velocity=86 time=0
note_off channel=2 note=59 velocity=0 time=4
note_on channel=4 note=57 velocity=76 time=0
note_on channel=0 note=69 velocity=115 time=4
note_on channel=9 note=40 velocity=117 time=0
note_on channel=2 note=62 velocity=78 time=0
note_off channel=0 note=71 velocity=0 time=4
note_off channel=9 note=40 velocity=0 time=0
note_on channel=1 note=38 velocity=103 time=0
note_off channel=2 note=45 velocity=0 time=0
note_on channel=9 note=36 velocity=119 time=0
note_on channel=9 note=49 velocity=121 time=0
note_off channel=9 note=36 velocity=0 time=4
note_on channel=2 note=66 velocity=97 time=0
note_on channel=5 note=74 velocity=73 time=0
note_off channel=9 note=49 velocity=0 time=0
note_on channel=2 note=50 velocity=75 time=0
note_on channel=5 note=78 velocity=86 time=0
note_off channel=2 note=62 velocity=0 time=8
note_on channel=5 note=69 velocity=86 time=0
note_on channel=2 note=57 velocity=73 time=0
note_on channel=4 note=62 velocity=89 time=4
note_off channel=2 note=67 velocity=0 time=4
note_on channel=4 note=66 velocity=107 time=12
note_off channel=0 note=69 velocity=0 time=1096
note_off channel=4 note=57 velocity=0 time=208
note_off channel=1 note=38 velocity=0 time=8
note_on channel=5 note=76 velocity=66 time=0
note_on channel=5 note=62 velocity=58 time=0
note_on channel=9 note=45 velocity=56 time=4
note_on channel=1 note=38 velocity=63 time=0
note_on channel=4 note=64 velocity=66 time=0
note_on channel=4 note=50 velocity=58 time=0
note_off channel=9 note=45 velocity=0 time=4
note_off channel=5 note=62 velocity=0 time=12
note_off channel=4 note=50 velocity=0 time=8
note_off channel=1 note=38 velocity=0 time=4
note_off channel=5 note=76 velocity=0 time=4
note_off channel=4 note=64 velocity=0 time=4
note_off channel=4 note=62 velocity=0 time=36
note_off channel=4 note=66 velocity=0 time=8
note_on channel=1 note=38 velocity=87 time=12
note_on channel=5 note=78 velocity=109 time=0
note_on channel=5 note=74 velocity=74 time=0
note_on channel=5 note=62 velocity=78 time=0
note_on channel=5 note=69 velocity=61 time=0
note_on channel=9 note=45 velocity=93 time=4
note_on channel=4 note=66 velocity=109 time=0
note_on channel=4 note=62 velocity=74 time=0
note_on channel=4 note=50 velocity=78 time=0
note_on channel=4 note=57 velocity=61 time=0
note_off channel=9 note=45 velocity=0 time=4
note_off channel=5 note=69 velocity=0 time=12
note_off channel=5 note=74 velocity=0 time=4
note_off channel=1 note=38 velocity=0 time=4
note_off channel=4 note=57 velocity=0 time=0
note_off channel=5 note=62 velocity=0 time=0
note_off channel=4 note=62 velocity=0 time=4
note_off channel=5 note=78 velocity=0 time=0
note_off channel=4 note=50 velocity=0 time=4
note_off channel=4 note=66 velocity=0 time=0
note_on channel=5 note=69 velocity=77 time=56
note_on channel=1 note=38 velocity=111 time=4
note_on channel=5 note=62 velocity=81 time=0
note_on channel=5 note=79 velocity=89 time=0
note_on channel=5 note=74 velocity=97 time=0
note_on channel=9 note=45 velocity=125 time=4
note_on channel=4 note=57 velocity=77 time=0
note_on channel=4 note=50 velocity=81 time=0
note_on channel=4 note=67 velocity=89 time=0
note_on channel=4 note=62 velocity=97 time=0
note_off channel=9 note=45 velocity=0 time=4
note_off channel=4 note=50 velocity=0 time=208
note_off channel=5 note=74 velocity=0 time=168
note_off channel=4 note=62 velocity=0 time=4
note_off channel=5 note=79 velocity=0 time=4
note_off channel=4 note=67 velocity=0 time=8
note_off channel=5 note=62 velocity=0 time=24
note_off channel=4 note=50 velocity=0 time=8
note_off channel=5 note=69 velocity=0 time=4
note_off channel=4 note=57 velocity=0 time=4
note_off channel=2 note=66 velocity=0 time=32
note_off channel=5 note=69 velocity=0 time=0
note_off channel=5 note=74 velocity=0 time=8
note_off channel=5 note=78 velocity=0 time=0
note_off channel=2 note=62 velocity=0 time=4
note_off channel=2 note=50 velocity=0 time=16
note_off channel=2 note=57 velocity=0 time=0
note_off channel=1 note=38 velocity=0 time=12
note_on channel=5 note=76 velocity=66 time=56
note_on channel=9 note=45 velocity=64 time=8
note_on channel=1 note=38 velocity=61 time=0
note_on channel=4 note=64 velocity=66 time=0
note_on channel=5 note=62 velocity=60 time=0
note_on channel=5 note=69 velocity=38 time=0
note_off channel=9 note=45 velocity=0 time=4
note_on channel=4 note=50 velocity=60 time=0
note_on channel=4 note=57 velocity=38 time=0
note_off channel=5 note=69 velocity=0 time=8
note_off channel=4 note=57 velocity=0 time=8
note_off channel=5 note=76 velocity=0 time=0
note_off channel=4 note=64 velocity=0 time=4
note_off channel=5 note=62 velocity=0 time=0
note_off channel=4 note=50 velocity=0 time=8
note_off channel=1 note=38 velocity=0 time=8
note_on channel=5 note=78 velocity=99 time=48
note_on channel=5 note=74 velocity=85 time=0
note_on channel=9 note=45 velocity=99 time=8
note_on channel=4 note=66 velocity=99 time=0
note_on channel=5 note=62 velocity=77 time=0
note_on channel=4 note=62 velocity=85 time=0
note_on channel=5 note=69 velocity=70 time=0
note_off channel=9 note=45 velocity=0 time=4
note_on channel=1 note=38 velocity=87 time=0
note_on channel=4 note=50 velocity=77 time=0
note_on channel=4 note=57 velocity=70 time=0
note_off channel=5 note=74 velocity=0 time=12
note_off channel=4 note=62 velocity=0 time=4
note_off channel=5 note=69 velocity=0 time=0
note_off channel=5 note=78 velocity=0 time=4
note_off channel=5 note=62 velocity=0 time=0
note_off channel=4 note=57 velocity=0 time=4
note_off channel=4 note=66 velocity=0 time=4
note_off channel=4 note=50 velocity=0 time=0
note_off channel=1 note=38 velocity=0 time=4
note_on channel=5 note=74 velocity=103 time=52
note_on channel=5 note=79 velocity=97 time=4
note_on channel=5 note=69 velocity=89 time=0
note_on channel=9 note=45 velocity=123 time=4
note_on channel=4 note=62 velocity=103 time=0
note_on channel=5 note=62 velocity=93 time=0
note_off channel=9 note=45 velocity=0 time=4
note_on channel=1 note=38 velocity=113 time=0
note_on channel=4 note=67 velocity=97 time=0
note_on channel=4 note=57 velocity=89 time=0
note_on channel=4 note=50 velocity=93 time=0
note_off channel=5 note=74 velocity=0 time=404
note_off channel=5 note=79 velocity=0 time=4
note_off channel=4 note=62 velocity=0 time=4
note_off channel=5 note=62 velocity=0 time=0
note_off channel=4 note=67 velocity=0 time=4
note_off channel=5 note=69 velocity=0 time=0
note_off channel=4 note=50 velocity=0 time=0
note_off channel=4 note=57 velocity=0 time=8
note_off channel=1 note=38 velocity=0 time=48
note_on channel=5 note=76 velocity=72 time=92
note_on channel=5 note=62 velocity=68 time=0
note_on channel=5 note=69 velocity=52 time=0
note_on channel=1 note=38 velocity=56 time=4
note_on channel=9 note=45 velocity=40 time=4
note_on channel=4 note=64 velocity=72 time=0
note_on channel=5 note=74 velocity=49 time=0
note_on channel=4 note=50 velocity=68 time=0
note_on channel=4 note=57 velocity=52 time=0
note_off channel=9 note=45 velocity=0 time=4
note_on channel=4 note=62 velocity=49 time=0
note_off channel=5 note=74 velocity=0 time=4
note_off channel=4 note=62 velocity=0 time=8
note_off channel=5 note=76 velocity=0 time=4
note_off channel=5 note=69 velocity=0 time=0
note_off channel=5 note=62 velocity=0 time=4
note_off channel=1 note=38 velocity=0 time=4
note_off channel=4 note=64 velocity=0 time=0
note_off channel=4 note=57 velocity=0 time=0
note_off channel=4 note=50 velocity=0 time=4
note_on channel=5 note=78 velocity=107 time=56
note_on channel=5 note=74 velocity=85 time=0
note_on channel=1 note=38 velocity=90 time=4
note_on channel=9 note=45 velocity=95 time=4
note_on channel=4 note=66 velocity=107 time=0
note_on channel=5 note=69 velocity=78 time=0
note_on channel=4 note=62 velocity=85 time=0
note_on channel=5 note=62 velocity=83 time=0
note_off channel=9 note=45 velocity=0 time=4
note_on channel=4 note=57 velocity=78 time=0
note_on channel=4 note=50 velocity=83 time=0
note_off channel=5 note=78 velocity=0 time=16
note_off channel=5 note=74 velocity=0 time=0
note_off channel=1 note=38 velocity=0 time=4
note_off channel=4 note=62 velocity=0 time=0
note_off channel=4 note=66 velocity=0 time=4
note_off channel=5 note=62 velocity=0 time=0
note_off channel=5 note=69 velocity=0 time=4
note_off channel=4 note=57 velocity=0 time=4
note_off channel=4 note=50 velocity=0 time=0
note_on channel=5 note=74 velocity=103 time=52
note_on channel=1 note=38 velocity=109 time=4
note_on channel=5 note=62 velocity=93 time=0
note_on channel=9 note=45 velocity=123 time=4
note_on channel=4 note=62 velocity=103 time=0
note_on channel=5 note=69 velocity=90 time=0
note_on channel=5 note=79 velocity=95 time=0
MetaMessage('time_signature', numerator=7, denominator=8, clocks_per_click=96, notated_32nd_notes_per_beat=8, time=4)
note_off channel=9 note=45 velocity=0 time=0
note_on channel=4 note=50 velocity=93 time=0
note_on channel=4 note=57 velocity=90 time=2
note_on channel=4 note=67 velocity=95 time=0
MetaMessage('set_tempo', tempo=731707, time=10)
note_off channel=5 note=79 velocity=0 time=260
note_off channel=4 note=67 velocity=0 time=6
note_off channel=5 note=74 velocity=0 time=2
note_off channel=5 note=69 velocity=0 time=4
note_off channel=4 note=62 velocity=0 time=4
note_off channel=4 note=57 velocity=0 time=2
note_off channel=5 note=62 velocity=0 time=0
note_off channel=4 note=50 velocity=0 time=6
note_off channel=1 note=38 velocity=0 time=42
note_on channel=5 note=74 velocity=99 time=36
note_on channel=5 note=69 velocity=86 time=0
note_on channel=5 note=62 velocity=95 time=2
note_on channel=1 note=38 velocity=93 time=4
note_on channel=4 note=62 velocity=99 time=0
note_on channel=5 note=79 velocity=101 time=0
note_on channel=4 note=57 velocity=86 time=0
note_on channel=9 note=45 velocity=115 time=4
note_on channel=4 note=50 velocity=95 time=0
note_off channel=9 note=45 velocity=0 time=2
note_on channel=4 note=67 velocity=101 time=0
note_off channel=5 note=79 velocity=0 time=288
note_off channel=4 note=67 velocity=0 time=6
note_off channel=5 note=74 velocity=0 time=4
note_off channel=5 note=62 velocity=0 time=0
note_off channel=4 note=62 velocity=0 time=6
note_off channel=4 note=50 velocity=0 time=0
note_off channel=1 note=38 velocity=0 time=4
note_off channel=5 note=69 velocity=0 time=0
note_off channel=4 note=57 velocity=0 time=6
note_on channel=5 note=74 velocity=89 time=64
note_on channel=5 note=69 velocity=82 time=0
note_on channel=5 note=78 velocity=107 time=0
note_on channel=5 note=62 velocity=92 time=0
note_on channel=9 note=45 velocity=115 time=6
note_on channel=1 note=38 velocity=107 time=0
note_on channel=4 note=62 velocity=89 time=0
note_on channel=4 note=57 velocity=82 time=0
note_on channel=4 note=66 velocity=107 time=0
note_on channel=4 note=50 velocity=92 time=0
note_off channel=9 note=45 velocity=0 time=4
note_off channel=1 note=38 velocity=0 time=320
note_off channel=5 note=78 velocity=0 time=0
note_off channel=5 note=62 velocity=0 time=2
note_off channel=4 note=66 velocity=0 time=4
note_off channel=4 note=50 velocity=0 time=4
note_off channel=5 note=74 velocity=0 time=0
note_off channel=4 note=62 velocity=0 time=6
note_off channel=5 note=69 velocity=0 time=0
note_off channel=4 note=57 velocity=0 time=6
note_on channel=5 note=64 velocity=85 time=32
note_on channel=5 note=60 velocity=86 time=0
note_on channel=5 note=67 velocity=92 time=0
note_on channel=9 note=36 velocity=111 time=4
note_on channel=5 note=72 velocity=95 time=0
note_on channel=5 note=76 velocity=86 time=0
note_off channel=9 note=36 velocity=0 time=2
note_on channel=1 note=36 velocity=92 time=0
note_on channel=4 note=52 velocity=85 time=0
note_on channel=9 note=49 velocity=127 time=0
note_on channel=4 note=48 velocity=86 time=0
note_on channel=4 note=55 velocity=92 time=0
note_off channel=9 note=49 velocity=0 time=4
note_on channel=4 note=60 velocity=95 time=0
note_on channel=4 note=64 velocity=86 time=0
MetaMessage('time_signature', numerator=4, denominator=4, clocks_per_click=96, notated_32nd_notes_per_beat=8, time=186)
note_off channel=5 note=76 velocity=0 time=144
note_off channel=4 note=64 velocity=0 time=8
note_off channel=5 note=67 velocity=0 time=0
note_off channel=5 note=72 velocity=0 time=0
note_off channel=4 note=55 velocity=0 time=8
note_off channel=4 note=60 velocity=0 time=0
note_off channel=5 note=60 velocity=0 time=8
note_off channel=5 note=64 velocity=0 time=4
note_off channel=4 note=48 velocity=0 time=4
note_on channel=5 note=67 velocity=89 time=0
note_off channel=4 note=52 velocity=0 time=0
note_on channel=5 note=76 velocity=89 time=0
note_on channel=5 note=72 velocity=82 time=4
note_on channel=4 note=55 velocity=89 time=4
note_on channel=4 note=64 velocity=89 time=0
note_on channel=4 note=60 velocity=82 time=4
note_on channel=9 note=44 velocity=92 time=4
note_off channel=9 note=44 velocity=0 time=4
note_on channel=9 note=36 velocity=99 time=0
note_off channel=9 note=36 velocity=0 time=4
note_off channel=5 note=67 velocity=0 time=32
note_off channel=5 note=72 velocity=0 time=0
note_off channel=5 note=76 velocity=0 time=4
note_off channel=4 note=55 velocity=0 time=4
note_off channel=4 note=64 velocity=0 time=0
note_off channel=4 note=60 velocity=0 time=0
note_on channel=5 note=72 velocity=90 time=128
note_on channel=5 note=78 velocity=111 time=0
note_on channel=5 note=67 velocity=99 time=4
note_on channel=4 note=60 velocity=90 time=4
note_on channel=4 note=66 velocity=111 time=0
note_on channel=9 note=42 velocity=117 time=4
note_on channel=4 note=55 velocity=99 time=0
note_off channel=9 note=42 velocity=0 time=4
note_on channel=9 note=40 velocity=121 time=0
note_off channel=9 note=40 velocity=0 time=4
note_on channel=9 note=44 velocity=119 time=188
note_off channel=9 note=44 velocity=0 time=0
note_off channel=5 note=78 velocity=0 time=4
note_off channel=4 note=66 velocity=0 time=8
note_off channel=5 note=72 velocity=0 time=0
note_off channel=4 note=60 velocity=0 time=4
note_off channel=5 note=67 velocity=0 time=4
note_off channel=4 note=55 velocity=0 time=8
note_on channel=5 note=67 velocity=78 time=64
note_on channel=5 note=78 velocity=78 time=0
note_on channel=5 note=72 velocity=58 time=0
note_on channel=4 note=55 velocity=78 time=4
note_on channel=4 note=66 velocity=78 time=0
note_on channel=4 note=60 velocity=58 time=0
note_off channel=5 note=78 velocity=0 time=16
note_off channel=5 note=72 velocity=0 time=0
note_off channel=4 note=60 velocity=0 time=4
note_off channel=4 note=66 velocity=0 time=4
note_off channel=5 note=67 velocity=0 time=0
note_off channel=4 note=55 velocity=0 time=8
note_on channel=9 note=36 velocity=97 time=60
note_on channel=5 note=78 velocity=109 time=0
note_on channel=9 note=42 velocity=117 time=0
note_on channel=5 note=72 velocity=89 time=0
note_on channel=5 note=67 velocity=99 time=0
note_off channel=9 note=36 velocity=0 time=4
note_on channel=4 note=66 velocity=109 time=0
note_off channel=9 note=42 velocity=0 time=0
note_on channel=4 note=60 velocity=89 time=0
note_on channel=4 note=55 velocity=99 time=0
note_off channel=5 note=72 velocity=0 time=52
note_off channel=5 note=78 velocity=0 time=4
note_off channel=4 note=60 velocity=0 time=4
note_off channel=4 note=66 velocity=0 time=4
note_off channel=5 note=67 velocity=0 time=32
note_off channel=4 note=55 velocity=0 time=8
note_on channel=5 note=72 velocity=89 time=76
note_on channel=5 note=76 velocity=72 time=0
note_on channel=9 note=36 velocity=97 time=8
note_on channel=4 note=60 velocity=89 time=0
note_on channel=5 note=67 velocity=95 time=0
note_on channel=4 note=64 velocity=72 time=0
note_off channel=9 note=36 velocity=0 time=4
note_on channel=4 note=55 velocity=95 time=0
note_on channel=9 note=44 velocity=115 time=0
note_off channel=9 note=44 velocity=0 time=4
note_off channel=5 note=76 velocity=0 time=64
note_off channel=4 note=64 velocity=0 time=8
note_off channel=5 note=72 velocity=0 time=4
note_off channel=4 note=60 velocity=0 time=8
note_on channel=5 note=72 velocity=111 time=92
note_on channel=5 note=76 velocity=95 time=0
note_off channel=5 note=67 velocity=0 time=4
note_on channel=9 note=40 velocity=121 time=4
note_on channel=4 note=60 velocity=111 time=0
note_on channel=5 note=67 velocity=93 time=0
note_on channel=9 note=42 velocity=117 time=0
note_on channel=4 note=64 velocity=95 time=0
note_off channel=9 note=40 velocity=0 time=4
note_off channel=4 note=55 velocity=0 time=0
note_off channel=9 note=42 velocity=0 time=0
note_on channel=4 note=55 velocity=93 time=0
note_off channel=5 note=67 velocity=0 time=96
note_off channel=4 note=55 velocity=0 time=8
note_on channel=9 note=44 velocity=119 time=88
note_on channel=5 note=67 velocity=99 time=0
note_off channel=9 note=44 velocity=0 time=4
note_on channel=4 note=55 velocity=99 time=0
note_on channel=5 note=59 velocity=99 time=180
note_on channel=9 note=36 velocity=97 time=8
note_on channel=1 note=35 velocity=111 time=0
note_on channel=4 note=47 velocity=99 time=0
note_off channel=9 note=36 velocity=0 time=0
note_on channel=9 note=49 velocity=127 time=0
note_off channel=9 note=49 velocity=0 time=0
note_off channel=5 note=76 velocity=0 time=8
note_off channel=1 note=36 velocity=0 time=4
note_off channel=4 note=64 velocity=0 time=4
note_off channel=5 note=72 velocity=0 time=8
note_off channel=4 note=60 velocity=0 time=8
note_off channel=5 note=67 velocity=0 time=24
note_off channel=4 note=55 velocity=0 time=8
note_on channel=9 note=40 velocity=53 time=128
note_off channel=9 note=40 velocity=0 time=4
note_on channel=9 note=40 velocity=95 time=88
note_off channel=9 note=40 velocity=0 time=4
note_on channel=5 note=62 velocity=89 time=84
note_on channel=4 note=50 velocity=89 time=8
note_on channel=9 note=40 velocity=119 time=4
note_off channel=9 note=40 velocity=0 time=4
note_on channel=5 note=74 velocity=89 time=176
note_on channel=4 note=62 velocity=89 time=8
note_on channel=9 note=45 velocity=52 time=4
note_off channel=9 note=45 velocity=0 time=4
note_on channel=9 note=45 velocity=101 time=92
note_off channel=9 note=45 velocity=0 time=4
note_on channel=5 note=79 velocity=97 time=80
note_on channel=4 note=67 velocity=97 time=8
note_on channel=9 note=45 velocity=121 time=4
note_off channel=9 note=45 velocity=0 time=0
note_off channel=5 note=74 velocity=0 time=132
note_off channel=4 note=62 velocity=0 time=8
note_on channel=5 note=74 velocity=90 time=40
note_on channel=9 note=43 velocity=105 time=8
note_on channel=4 note=62 velocity=90 time=0
note_off channel=9 note=43 velocity=0 time=4
note_on channel=9 note=43 velocity=119 time=188
note_on channel=5 note=71 velocity=103 time=0
note_off channel=9 note=43 velocity=0 time=4
note_on channel=4 note=59 velocity=103 time=0
note_on channel=9 note=49 velocity=119 time=0
note_off channel=9 note=49 velocity=0 time=4
note_off channel=5 note=59 velocity=0 time=24
note_off channel=4 note=47 velocity=0 time=4
note_off channel=5 note=62 velocity=0 time=8
note_off channel=5 note=79 velocity=0 time=4
note_off channel=4 note=50 velocity=0 time=4
note_off channel=4 note=67 velocity=0 time=0
note_off channel=5 note=74 velocity=0 time=4
note_off channel=4 note=62 velocity=0 time=8
note_on channel=5 note=69 velocity=90 time=32
note_on channel=4 note=57 velocity=90 time=4
note_off channel=5 note=71 velocity=0 time=20
note_off channel=4 note=59 velocity=0 time=8
note_on channel=9 note=36 velocity=119 time=64
note_on channel=5 note=67 velocity=83 time=0
note_off channel=9 note=36 velocity=0 time=4
note_on channel=4 note=55 velocity=83 time=0
note_off channel=5 note=69 velocity=0 time=8
note_off channel=4 note=57 velocity=0 time=8
pitchwheel channel=8 pitch=-634 time=68
pitchwheel channel=8 pitch=-2398 time=8
pitchwheel channel=8 pitch=-3280 time=4
pitchwheel channel=8 pitch=-4162 time=8
pitchwheel channel=8 pitch=-4918 time=8
pitchwheel channel=8 pitch=-5548 time=4
pitchwheel channel=8 pitch=-6430 time=8
pitchwheel channel=8 pitch=-7438 time=4
pitchwheel channel=8 pitch=-8068 time=8
note_off channel=1 note=35 velocity=0 time=8
pitchwheel channel=8 pitch=-8192 time=0
pitchwheel channel=8 pitch=-8192 time=12
note_on channel=9 note=49 velocity=126 time=36
note_on channel=1 note=33 velocity=117 time=0
note_on channel=3 note=57 velocity=92 time=0
note_on channel=4 note=64 velocity=93 time=0
note_on channel=8 note=64 velocity=119 time=0
note_off channel=9 note=49 velocity=0 time=0
note_on channel=3 note=64 velocity=85 time=0
note_on channel=4 note=60 velocity=93 time=0
note_on channel=9 note=36 velocity=115 time=0
note_on channel=3 note=60 velocity=80 time=0
note_on channel=4 note=57 velocity=89 time=0
note_on channel=4 note=52 velocity=97 time=0
MetaMessage('set_tempo', tempo=722891, time=4)
note_off channel=9 note=36 velocity=0 time=0
pitchwheel channel=8 pitch=-8192 time=20
pitchwheel channel=8 pitch=-8068 time=8
pitchwheel channel=8 pitch=-7690 time=8
pitchwheel channel=8 pitch=-5800 time=8
pitchwheel channel=8 pitch=-4666 time=8
pitchwheel channel=8 pitch=-886 time=8
pitchwheel channel=8 pitch=0 time=8
note_off channel=5 note=67 velocity=0 time=24
note_off channel=4 note=55 velocity=0 time=8
note_off channel=4 note=57 velocity=0 time=212
note_off channel=4 note=64 velocity=0 time=4
note_off channel=4 note=52 velocity=0 time=12
note_off channel=4 note=60 velocity=0 time=4
note_on channel=9 note=40 velocity=117 time=44
control_change channel=8 control=1 value=98 time=0
note_on channel=9 note=42 velocity=117 time=0
note_off channel=9 note=40 velocity=0 time=4
note_on channel=4 note=57 velocity=87 time=0
note_off channel=9 note=42 velocity=0 time=0
note_on channel=4 note=64 velocity=93 time=0
note_on channel=4 note=60 velocity=95 time=0
note_on channel=4 note=52 velocity=95 time=0
control_change channel=8 control=1 value=114 time=8
control_change channel=8 control=1 value=112 time=8
control_change channel=8 control=1 value=108 time=8
control_change channel=8 control=1 value=105 time=8
control_change channel=8 control=1 value=112 time=4
control_change channel=8 control=1 value=113 time=28
control_change channel=8 control=1 value=116 time=8
control_change channel=8 control=1 value=117 time=12
control_change channel=8 control=1 value=116 time=48
control_change channel=8 control=1 value=114 time=20
control_change channel=8 control=1 value=87 time=8
control_change channel=8 control=1 value=23 time=4
control_change channel=8 control=1 value=0 time=8
note_on channel=9 note=44 velocity=107 time=16
note_off channel=8 note=64 velocity=0 time=0
note_off channel=9 note=44 velocity=0 time=4
pitchwheel channel=8 pitch=-760 time=88
pitchwheel channel=8 pitch=-2398 time=4
pitchwheel channel=8 pitch=-3280 time=8
pitchwheel channel=8 pitch=-4792 time=8
note_off channel=4 note=64 velocity=0 time=4
pitchwheel channel=8 pitch=-5548 time=0
note_off channel=4 note=57 velocity=0 time=4
note_off channel=4 note=60 velocity=0 time=0
note_off channel=4 note=52 velocity=0 time=0
pitchwheel channel=8 pitch=-6304 time=8
pitchwheel channel=8 pitch=-6556 time=4
pitchwheel channel=8 pitch=-7312 time=8
pitchwheel channel=8 pitch=-7690 time=8
pitchwheel channel=8 pitch=-7942 time=4
pitchwheel channel=8 pitch=-8192 time=8
note_on channel=3 note=55 velocity=93 time=12
note_off channel=3 note=57 velocity=0 time=16
note_on channel=9 note=36 velocity=111 time=4
note_on channel=1 note=31 velocity=99 time=0
note_on channel=4 note=60 velocity=92 time=0
note_on channel=8 note=69 velocity=107 time=0
note_on channel=9 note=42 velocity=111 time=0
note_on channel=4 note=64 velocity=86 time=0
pitchwheel channel=8 pitch=-8068 time=0
note_on channel=4 note=55 velocity=93 time=0
note_off channel=9 note=36 velocity=0 time=4
note_off channel=1 note=33 velocity=0 time=0
note_on channel=4 note=52 velocity=90 time=0
note_off channel=9 note=42 velocity=0 time=0
pitchwheel channel=8 pitch=-3406 time=8
pitchwheel channel=8 pitch=-382 time=8
pitchwheel channel=8 pitch=0 time=12
note_off channel=1 note=31 velocity=0 time=4
note_on channel=8 note=67 velocity=99 time=60
note_off channel=8 note=69 velocity=0 time=8
note_on channel=9 note=36 velocity=115 time=88
note_on channel=8 note=64 velocity=105 time=0
note_on channel=9 note=44 velocity=111 time=0
note_off channel=9 note=36 velocity=0 time=4
note_on channel=1 note=31 velocity=111 time=0
note_off channel=9 note=44 velocity=0 time=0
note_off channel=8 note=67 velocity=0 time=4
note_off channel=8 note=64 velocity=0 time=88
note_on channel=8 note=62 velocity=105 time=0
note_off channel=4 note=64 velocity=0 time=8
note_off channel=4 note=60 velocity=0 time=12
note_off channel=4 note=55 velocity=0 time=4
note_off channel=4 note=52 velocity=0 time=0
note_on channel=8 note=60 velocity=101 time=68
note_on channel=9 note=42 velocity=109 time=4
note_on channel=4 note=55 velocity=87 time=0
note_on channel=4 note=60 velocity=92 time=0
note_on channel=4 note=64 velocity=95 time=0
note_off channel=9 note=42 velocity=0 time=4
note_on channel=4 note=52 velocity=95 time=0
note_off channel=8 note=62 velocity=0 time=0
note_on channel=9 note=40 velocity=121 time=0
note_off channel=9 note=40 velocity=0 time=4
note_off channel=8 note=60 velocity=0 time=76
note_on channel=8 note=57 velocity=99 time=8
note_off channel=8 note=57 velocity=0 time=32
pitchwheel channel=8 pitch=-2524 time=28
pitchwheel channel=8 pitch=-4666 time=8
pitchwheel channel=8 pitch=-8068 time=8
pitchwheel channel=8 pitch=-8192 time=8
note_on channel=8 note=62 velocity=117 time=16
note_on channel=9 note=44 velocity=113 time=4
note_off channel=9 note=44 velocity=0 time=0
pitchwheel channel=8 pitch=-5422 time=16
pitchwheel channel=8 pitch=-382 time=8
note_off channel=1 note=31 velocity=0 time=4
pitchwheel channel=8 pitch=0 time=0
note_on channel=1 note=31 velocity=82 time=64
note_on channel=8 note=60 velocity=105 time=0
note_on channel=1 note=33 velocity=82 time=0
note_on channel=9 note=36 velocity=99 time=4
note_off channel=9 note=36 velocity=0 time=4
note_off channel=4 note=64 velocity=0 time=0
note_off channel=4 note=55 velocity=0 time=12
note_off channel=8 note=62 velocity=0 time=0
note_off channel=4 note=60 velocity=0 time=0
note_off channel=4 note=52 velocity=0 time=0
note_off channel=1 note=33 velocity=0 time=32
note_on channel=3 note=53 velocity=81 time=16
note_on channel=3 note=57 velocity=92 time=8
note_off channel=1 note=31 velocity=0 time=12
note_off channel=8 note=60 velocity=0 time=0
note_off channel=3 note=55 velocity=0 time=4
note_on channel=4 note=57 velocity=95 time=4
note_on channel=8 note=57 velocity=109 time=0
note_on channel=4 note=64 velocity=93 time=0
note_on channel=9 note=42 velocity=111 time=4
note_on channel=1 note=29 velocity=99 time=0
note_on channel=4 note=60 velocity=99 time=0
note_off channel=9 note=42 velocity=0 time=0
note_on channel=4 note=53 velocity=92 time=0
note_on channel=9 note=36 velocity=111 time=4
note_off channel=9 note=36 velocity=0 time=4
note_off channel=1 note=29 velocity=0 time=68
note_on channel=8 note=55 velocity=97 time=16
note_off channel=8 note=57 velocity=0 time=8
note_off channel=8 note=55 velocity=0 time=88
note_on channel=8 note=53 velocity=111 time=0
note_on channel=9 note=44 velocity=107 time=4
note_on channel=1 note=29 velocity=101 time=0
note_off channel=9 note=44 velocity=0 time=4
note_on channel=9 note=40 velocity=121 time=0
note_off channel=9 note=40 velocity=0 time=4
note_off channel=4 note=64 velocity=0 time=100
note_off channel=4 note=60 velocity=0 time=4
note_off channel=4 note=53 velocity=0 time=0
note_off channel=4 note=57 velocity=0 time=8
control_change channel=8 control=1 value=36 time=52
control_change channel=8 control=1 value=74 time=8
note_on channel=9 note=42 velocity=115 time=8
note_on channel=4 note=57 velocity=93 time=0
control_change channel=8 control=1 value=89 time=0
note_on channel=4 note=60 velocity=99 time=0
note_off channel=9 note=42 velocity=0 time=4
note_on channel=4 note=64 velocity=99 time=0
control_change channel=8 control=1 value=106 time=0
note_on channel=4 note=53 velocity=95 time=0
control_change channel=8 control=1 value=116 time=12
control_change channel=8 control=1 value=118 time=4
control_change channel=8 control=1 value=120 time=8
control_change channel=8 control=1 value=122 time=8
note_off channel=1 note=29 velocity=0 time=16
note_on channel=9 note=40 velocity=117 time=48
note_on channel=1 note=29 velocity=67 time=0
control_change channel=8 control=1 value=121 time=0
note_off channel=9 note=40 velocity=0 time=4
note_off channel=8 note=53 velocity=0 time=4
control_change channel=8 control=1 value=113 time=4
control_change channel=8 control=1 value=84 time=4
control_change channel=8 control=1 value=49 time=12
control_change channel=8 control=1 value=0 time=4
note_off channel=1 note=29 velocity=0 time=32
note_on channel=9 note=44 velocity=113 time=28
note_off channel=9 note=44 velocity=0 time=4
note_on channel=1 note=29 velocity=92 time=0
note_on channel=9 note=36 velocity=111 time=0
note_off channel=9 note=36 velocity=0 time=4
note_off channel=4 note=53 velocity=0 time=36
note_off channel=4 note=64 velocity=0 time=4
note_off channel=4 note=57 velocity=0 time=4
note_off channel=4 note=60 velocity=0 time=0
note_off channel=1 note=29 velocity=0 time=8
note_on channel=4 note=60 velocity=95 time=36
note_on channel=4 note=57 velocity=86 time=0
note_on channel=1 note=29 velocity=99 time=4
note_on channel=4 note=64 velocity=93 time=0
note_on channel=4 note=53 velocity=93 time=0
note_off channel=1 note=29 velocity=0 time=52
note_on channel=9 note=42 velocity=109 time=40
note_on channel=1 note=29 velocity=99 time=0
note_off channel=9 note=42 velocity=0 time=4
note_on channel=9 note=36 velocity=109 time=0
note_off channel=9 note=36 velocity=0 time=0
pitchwheel channel=8 pitch=-760 time=56
pitchwheel channel=8 pitch=-3658 time=8
pitchwheel channel=8 pitch=-5296 time=4
note_off channel=1 note=29 velocity=0 time=8
pitchwheel channel=8 pitch=-6556 time=4
pitchwheel channel=8 pitch=-8192 time=0
note_on channel=1 note=29 velocity=111 time=12
pitchwheel channel=8 pitch=-8192 time=4
note_off channel=4 note=64 velocity=0 time=28
note_off channel=4 note=60 velocity=0 time=4
note_off channel=4 note=57 velocity=0 time=0
note_off channel=4 note=53 velocity=0 time=0
note_on channel=4 note=53 velocity=95 time=56
note_on channel=9 note=44 velocity=101 time=4
note_on channel=4 note=60 velocity=101 time=0
note_on channel=8 note=69 velocity=115 time=0
note_on channel=4 note=57 velocity=90 time=0
note_on channel=4 note=64 velocity=85 time=0
note_off channel=9 note=44 velocity=0 time=4
note_on channel=9 note=40 velocity=90 time=0
note_off channel=9 note=40 velocity=0 time=4
note_off channel=4 note=64 velocity=0 time=64
pitchwheel channel=8 pitch=-7690 time=4
pitchwheel channel=8 pitch=-3910 time=8
note_off channel=4 note=53 velocity=0 time=4
pitchwheel channel=8 pitch=-1390 time=0
pitchwheel channel=8 pitch=-382 time=4
note_off channel=4 note=60 velocity=0 time=4
note_off channel=4 note=57 velocity=0 time=0
note_on channel=9 note=36 velocity=109 time=4
pitchwheel channel=8 pitch=0 time=0
note_off channel=9 note=36 velocity=0 time=4
note_off channel=8 note=69 velocity=0 time=80
note_on channel=9 note=42 velocity=109 time=4
note_on channel=4 note=57 velocity=95 time=0
note_on channel=8 note=72 velocity=111 time=0
note_on channel=4 note=64 velocity=93 time=0
note_off channel=9 note=42 velocity=0 time=4
note_on channel=4 note=60 velocity=95 time=0
note_on channel=9 note=40 velocity=113 time=0
note_on channel=4 note=53 velocity=109 time=0
note_off channel=9 note=40 velocity=0 time=4
note_off channel=1 note=29 velocity=0 time=60
note_on channel=9 note=36 velocity=99 time=28
note_off channel=8 note=72 velocity=0 time=0
note_off channel=9 note=36 velocity=0 time=4
note_on channel=1 note=29 velocity=109 time=0
note_off channel=1 note=29 velocity=0 time=64
note_on channel=9 note=44 velocity=115 time=28
note_on channel=8 note=72 velocity=111 time=0
note_off channel=9 note=44 velocity=0 time=4
note_on channel=1 note=29 velocity=105 time=0
note_on channel=9 note=40 velocity=117 time=0
note_off channel=9 note=40 velocity=0 time=4
note_off channel=1 note=29 velocity=0 time=52
note_off channel=8 note=72 velocity=0 time=16
note_on channel=1 note=31 velocity=107 time=20
note_off channel=4 note=64 velocity=0 time=16
note_off channel=4 note=53 velocity=0 time=4
note_off channel=4 note=60 velocity=0 time=4
note_off channel=4 note=57 velocity=0 time=4
note_off channel=3 note=57 velocity=0 time=4
note_off channel=1 note=31 velocity=0 time=12
note_on channel=1 note=33 velocity=113 time=52
note_on channel=4 note=60 velocity=93 time=0
note_on channel=8 note=72 velocity=113 time=0
note_on channel=4 note=57 velocity=86 time=0
note_on channel=4 note=64 velocity=97 time=0
note_on channel=9 note=42 velocity=109 time=4
note_on channel=4 note=52 velocity=83 time=0
note_off channel=9 note=42 velocity=0 time=4
note_on channel=3 note=57 velocity=85 time=0
note_on channel=9 note=36 velocity=113 time=0
note_off channel=9 note=36 velocity=0 time=0
note_off channel=3 note=53 velocity=0 time=16
pitchwheel channel=8 pitch=1040 time=0
pitchwheel channel=8 pitch=6890 time=12
pitchwheel channel=8 pitch=8191 time=4
note_off channel=1 note=33 velocity=0 time=80
control_change channel=8 control=1 value=44 time=48
control_change channel=8 control=1 value=84 time=4
control_change channel=8 control=1 value=110 time=4
control_change channel=8 control=1 value=114 time=8
control_change channel=8 control=1 value=117 time=8
note_on channel=9 note=44 velocity=70 time=4
note_on channel=1 note=33 velocity=103 time=0
note_off channel=9 note=44 velocity=0 time=4
control_change channel=8 control=1 value=120 time=0
note_on channel=9 note=36 velocity=111 time=0
note_off channel=9 note=36 velocity=0 time=4
control_change channel=8 control=1 value=121 time=8
control_change channel=8 control=1 value=122 time=8
control_change channel=8 control=1 value=69 time=80
control_change channel=8 control=1 value=0 time=8
pitchwheel channel=8 pitch=6045 time=4
note_off channel=8 note=72 velocity=0 time=8
pitchwheel channel=8 pitch=0 time=4
note_off channel=4 note=64 velocity=0 time=4
note_off channel=4 note=57 velocity=0 time=12
note_off channel=4 note=60 velocity=0 time=4
note_off channel=4 note=52 velocity=0 time=8
note_on channel=9 note=42 velocity=109 time=36
note_on channel=4 note=57 velocity=93 time=0
note_on channel=8 note=72 velocity=115 time=0
note_off channel=9 note=42 velocity=0 time=4
note_on channel=4 note=60 velocity=105 time=0
note_on channel=9 note=40 velocity=117 time=0
note_on channel=4 note=64 velocity=99 time=0
note_off channel=9 note=40 velocity=0 time=0
note_on channel=4 note=52 velocity=97 time=0
note_off channel=8 note=72 velocity=0 time=180
note_on channel=8 note=69 velocity=107 time=4
note_on channel=9 note=44 velocity=90 time=4
note_off channel=1 note=33 velocity=0 time=0
note_off channel=9 note=44 velocity=0 time=4
note_on channel=1 note=33 velocity=97 time=92
note_on channel=9 note=36 velocity=109 time=4
note_off channel=8 note=69 velocity=0 time=0
note_off channel=9 note=36 velocity=0 time=4
note_off channel=4 note=64 velocity=0 time=24
note_off channel=4 note=57 velocity=0 time=4
note_off channel=4 note=60 velocity=0 time=0
note_off channel=4 note=52 velocity=0 time=0
note_on channel=9 note=42 velocity=109 time=60
note_on channel=4 note=60 velocity=87 time=0
note_on channel=8 note=69 velocity=113 time=0
note_off channel=9 note=42 velocity=0 time=4
note_on channel=4 note=55 velocity=90 time=0
note_on channel=9 note=36 velocity=105 time=0
note_on channel=4 note=64 velocity=82 time=0
note_on channel=4 note=52 velocity=90 time=0
note_off channel=9 note=36 velocity=0 time=4
note_on channel=1 note=31 velocity=97 time=0
note_off channel=1 note=33 velocity=0 time=12
note_on channel=3 note=55 velocity=92 time=4
note_off channel=3 note=57 velocity=0 time=16
note_off channel=1 note=31 velocity=0 time=12
pitchwheel channel=8 pitch=-382 time=48
pitchwheel channel=8 pitch=-5548 time=4
pitchwheel channel=8 pitch=-8192 time=12
pitchwheel channel=8 pitch=-8192 time=4
pitchwheel channel=8 pitch=-8192 time=20
pitchwheel channel=8 pitch=-8192 time=8
pitchwheel channel=8 pitch=-8192 time=8
pitchwheel channel=8 pitch=-4666 time=8
pitchwheel channel=8 pitch=-1894 time=4
pitchwheel channel=8 pitch=0 time=8
note_on channel=9 note=44 velocity=103 time=16
note_on channel=1 note=31 velocity=103 time=0
note_off channel=9 note=44 velocity=0 time=4
note_on channel=9 note=36 velocity=111 time=0
note_off channel=9 note=36 velocity=0 time=0
note_off channel=4 note=64 velocity=0 time=112
note_off channel=4 note=60 velocity=0 time=16
note_off channel=8 note=69 velocity=0 time=0
note_off channel=4 note=55 velocity=0 time=0
note_off channel=4 note=52 velocity=0 time=0
note_on channel=9 note=42 velocity=109 time=60
note_on channel=4 note=55 velocity=93 time=0
note_on channel=8 note=72 velocity=107 time=0
note_off channel=9 note=42 velocity=0 time=4
note_on channel=4 note=60 velocity=95 time=0
note_on channel=9 note=40 velocity=117 time=0
note_on channel=4 note=64 velocity=93 time=0
note_off channel=9 note=40 velocity=0 time=0
note_on channel=4 note=52 velocity=95 time=0
note_off channel=1 note=31 velocity=0 time=176
note_on channel=9 note=44 velocity=107 time=12
note_off channel=9 note=44 velocity=0 time=4
note_off channel=8 note=72 velocity=0 time=12
pitchwheel channel=8 pitch=65 time=32
pitchwheel channel=8 pitch=4485 time=4
pitchwheel channel=8 pitch=7150 time=8
pitchwheel channel=8 pitch=8191 time=4
note_on channel=1 note=31 velocity=99 time=28
note_on channel=8 note=72 velocity=111 time=4
note_on channel=9 note=36 velocity=99 time=4
note_off channel=9 note=36 velocity=0 time=0
note_off channel=4 note=55 velocity=0 time=20
note_off channel=4 note=64 velocity=0 time=0
note_off channel=4 note=52 velocity=0 time=4
note_off channel=4 note=60 velocity=0 time=4
note_on channel=3 note=53 velocity=73 time=40
note_on channel=3 note=57 velocity=86 time=8
note_off channel=3 note=55 velocity=0 time=12
pitchwheel channel=8 pitch=4355 time=0
note_on channel=9 note=36 velocity=111 time=4
note_on channel=4 note=57 velocity=89 time=0
note_on channel=9 note=42 velocity=109 time=0
note_off channel=9 note=36 velocity=0 time=4
note_on channel=1 note=29 velocity=93 time=0
note_on channel=4 note=60 velocity=92 time=0
pitchwheel channel=8 pitch=0 time=0
note_off channel=9 note=42 velocity=0 time=0
note_on channel=4 note=53 velocity=89 time=0
note_on channel=4 note=64 velocity=87 time=0
note_off channel=1 note=31 velocity=0 time=12
pitchwheel channel=8 pitch=195 time=52
pitchwheel channel=8 pitch=1690 time=4
pitchwheel channel=8 pitch=4615 time=8
pitchwheel channel=8 pitch=7410 time=4
pitchwheel channel=8 pitch=8191 time=12
note_on channel=8 note=67 velocity=105 time=8
note_off channel=8 note=72 velocity=0 time=4
note_on channel=9 note=36 velocity=115 time=84
note_off channel=9 note=36 velocity=0 time=4
note_on channel=9 note=44 velocity=101 time=0
note_off channel=9 note=44 velocity=0 time=0
note_off channel=1 note=29 velocity=0 time=16
pitchwheel channel=8 pitch=7280 time=0
pitchwheel channel=8 pitch=3380 time=4
pitchwheel channel=8 pitch=0 time=8
note_off channel=4 note=64 velocity=0 time=56
note_on channel=1 note=29 velocity=95 time=8
note_off channel=8 note=67 velocity=0 time=0
note_on channel=8 note=65 velocity=99 time=4
note_off channel=4 note=57 velocity=0 time=12
note_off channel=4 note=60 velocity=0 time=0
note_off channel=4 note=53 velocity=0 time=4
note_on channel=4 note=57 velocity=93 time=72
note_on channel=4 note=60 velocity=97 time=0
note_on channel=9 note=40 velocity=115 time=4
note_on channel=4 note=53 velocity=93 time=0
note_on channel=9 note=42 velocity=107 time=0
note_on channel=4 note=64 velocity=93 time=0
note_off channel=9 note=40 velocity=0 time=4
note_on channel=8 note=67 velocity=111 time=0
note_off channel=9 note=42 velocity=0 time=0
note_off channel=8 note=65 velocity=0 time=4
pitchwheel channel=8 pitch=1300 time=88
note_off channel=1 note=29 velocity=0 time=4
pitchwheel channel=8 pitch=5070 time=4
pitchwheel channel=8 pitch=8191 time=8
note_on channel=9 note=44 velocity=97 time=80
note_on channel=1 note=29 velocity=103 time=0
note_off channel=9 note=44 velocity=0 time=4
control_change channel=8 control=1 value=54 time=32
control_change channel=8 control=1 value=108 time=4
control_change channel=8 control=1 value=116 time=8
note_off channel=4 note=64 velocity=0 time=4
control_change channel=8 control=1 value=117 time=0
note_off channel=4 note=53 velocity=0 time=12
note_off channel=4 note=57 velocity=0 time=4
control_change channel=8 control=1 value=118 time=0
note_off channel=4 note=60 velocity=0 time=0
control_change channel=8 control=1 value=119 time=8
control_change channel=8 control=1 value=120 time=4
control_change channel=8 control=1 value=121 time=8
note_on channel=4 note=57 velocity=95 time=8
note_on channel=4 note=60 velocity=97 time=0
note_on channel=4 note=53 velocity=95 time=4
control_change channel=8 control=1 value=122 time=0
note_on channel=4 note=64 velocity=95 time=0
control_change channel=8 control=1 value=121 time=16
control_change channel=8 control=1 value=117 time=8
note_off channel=8 note=67 velocity=0 time=4
control_change channel=8 control=1 value=0 time=0
pitchwheel channel=8 pitch=5200 time=4
pitchwheel channel=8 pitch=0 time=8
note_on channel=9 note=36 velocity=107 time=52
note_on channel=9 note=42 velocity=111 time=0
note_off channel=9 note=36 velocity=0 time=4
note_off channel=9 note=42 velocity=0 time=0
note_off channel=1 note=29 velocity=0 time=24
note_on channel=1 note=29 velocity=82 time=64
note_on channel=9 note=40 velocity=105 time=4
note_off channel=9 note=40 velocity=0 time=4
note_off channel=4 note=64 velocity=0 time=32
note_off channel=4 note=60 velocity=0 time=8
note_off channel=4 note=57 velocity=0 time=12
note_off channel=4 note=53 velocity=0 time=0
note_off channel=1 note=29 velocity=0 time=28
note_on channel=9 note=40 velocity=109 time=12
note_on channel=1 note=29 velocity=99 time=0
note_on channel=4 note=57 velocity=77 time=0
note_on channel=4 note=53 velocity=82 time=0
note_off channel=9 note=40 velocity=0 time=4
note_on channel=4 note=64 velocity=83 time=0
note_on channel=9 note=44 velocity=107 time=0
note_on channel=4 note=60 velocity=85 time=0
note_off channel=9 note=44 velocity=0 time=4
pitchwheel channel=8 pitch=-1390 time=12
pitchwheel channel=8 pitch=-5548 time=4
pitchwheel channel=8 pitch=-8192 time=12
note_off channel=1 note=29 velocity=0 time=36
note_off channel=4 note=64 velocity=0 time=16
note_on channel=9 note=36 velocity=105 time=8
note_on channel=1 note=29 velocity=92 time=0
note_on channel=8 note=64 velocity=111 time=0
note_off channel=9 note=36 velocity=0 time=4
note_off channel=4 note=60 velocity=0 time=0
note_off channel=4 note=53 velocity=0 time=4
note_off channel=4 note=57 velocity=0 time=4
pitchwheel channel=8 pitch=-8068 time=36
pitchwheel channel=8 pitch=-1138 time=4
note_off channel=1 note=29 velocity=0 time=12
pitchwheel channel=8 pitch=0 time=0
note_on channel=9 note=40 velocity=121 time=32
note_on channel=1 note=29 velocity=101 time=0
note_on channel=4 note=53 velocity=101 time=0
note_on channel=9 note=42 velocity=109 time=0
note_on channel=4 note=57 velocity=92 time=0
note_on channel=4 note=60 velocity=101 time=0
note_off channel=9 note=40 velocity=0 time=4
note_on channel=4 note=64 velocity=87 time=0
note_on channel=8 note=69 velocity=111 time=0
note_off channel=9 note=42 velocity=0 time=0
note_off channel=8 note=64 velocity=0 time=8
note_off channel=1 note=29 velocity=0 time=48
note_on channel=1 note=29 velocity=111 time=32
note_on channel=8 note=67 velocity=109 time=8
note_off channel=8 note=69 velocity=0 time=12
note_on channel=9 note=36 velocity=115 time=76
note_off channel=9 note=36 velocity=0 time=4
note_on channel=9 note=44 velocity=81 time=4
note_off channel=8 note=67 velocity=0 time=0
note_off channel=9 note=44 velocity=0 time=0
note_on channel=8 note=64 velocity=109 time=0
note_off channel=1 note=29 velocity=0 time=80
note_on channel=1 note=31 velocity=105 time=12
note_off channel=4 note=64 velocity=0 time=0
note_on channel=8 note=62 velocity=111 time=0
note_off channel=8 note=64 velocity=0 time=4
note_off channel=4 note=60 velocity=0 time=16
note_off channel=4 note=57 velocity=0 time=4
note_off channel=4 note=53 velocity=0 time=4
note_off channel=1 note=31 velocity=0 time=40
note_off channel=3 note=53 velocity=0 time=16
note_off channel=3 note=57 velocity=0 time=0
note_off channel=3 note=60 velocity=0 time=0
note_off channel=3 note=64 velocity=0 time=0
note_on channel=4 note=52 velocity=90 time=8
note_on channel=9 note=36 velocity=115 time=4
note_on channel=1 note=33 velocity=107 time=0
note_on channel=4 note=57 velocity=95 time=0
note_on channel=9 note=42 velocity=105 time=0
note_on channel=4 note=60 velocity=95 time=0
note_on channel=4 note=64 velocity=86 time=0
note_off channel=9 note=36 velocity=0 time=4
note_on channel=3 note=69 velocity=92 time=0
note_on channel=8 note=60 velocity=107 time=0
note_off channel=9 note=42 velocity=0 time=0
note_on channel=3 note=76 velocity=85 time=0
note_on channel=3 note=72 velocity=80 time=0
note_off channel=8 note=62 velocity=0 time=4
note_off channel=1 note=33 velocity=0 time=72
note_off channel=8 note=60 velocity=0 time=20
note_on channel=8 note=57 velocity=105 time=0
note_off channel=8 note=57 velocity=0 time=36
note_on channel=9 note=36 velocity=113 time=56
note_on channel=1 note=33 velocity=103 time=0
note_off channel=9 note=36 velocity=0 time=4
pitchwheel channel=8 pitch=6825 time=0
note_on channel=9 note=44 velocity=76 time=0
note_on channel=8 note=60 velocity=113 time=0
note_off channel=9 note=44 velocity=0 time=0
pitchwheel channel=8 pitch=8191 time=16
pitchwheel channel=8 pitch=6175 time=60
pitchwheel channel=8 pitch=2990 time=8
pitchwheel channel=8 pitch=0 time=12
note_off channel=4 note=64 velocity=0 time=16
note_off channel=4 note=60 velocity=0 time=24
note_off channel=4 note=57 velocity=0 time=12
note_off channel=4 note=52 velocity=0 time=8
note_off channel=8 note=60 velocity=0 time=28
note_on channel=9 note=40 velocity=119 time=4
note_on channel=4 note=57 velocity=97 time=0
note_on channel=8 note=57 velocity=107 time=0
note_on channel=9 note=42 velocity=111 time=0
note_on channel=4 note=60 velocity=92 time=0
note_off channel=9 note=40 velocity=0 time=4
note_on channel=4 note=64 velocity=92 time=0
note_off channel=9 note=42 velocity=0 time=0
note_on channel=4 note=52 velocity=85 time=0
note_on channel=8 note=55 velocity=99 time=96
note_off channel=8 note=57 velocity=0 time=16
note_off channel=1 note=33 velocity=0 time=64
note_on channel=9 note=44 velocity=92 time=12
note_off channel=9 note=44 velocity=0 time=4
note_on channel=8 note=52 velocity=107 time=0
note_off channel=8 note=55 velocity=0 time=8
note_on channel=1 note=33 velocity=93 time=84
note_on channel=9 note=36 velocity=103 time=4
note_off channel=8 note=52 velocity=0 time=0
note_on channel=8 note=55 velocity=109 time=0
note_off channel=9 note=36 velocity=0 time=4
note_off channel=4 note=57 velocity=0 time=16
note_off channel=4 note=64 velocity=0 time=0
note_off channel=4 note=60 velocity=0 time=16
note_off channel=4 note=52 velocity=0 time=8
note_on channel=3 note=67 velocity=93 time=28
note_off channel=3 note=69 velocity=0 time=16
note_on channel=9 note=42 velocity=111 time=4
note_on channel=4 note=55 velocity=92 time=0
note_on channel=8 note=57 velocity=111 time=0
note_on channel=4 note=60 velocity=90 time=0
note_off channel=9 note=42 velocity=0 time=4
note_on channel=1 note=31 velocity=89 time=0
note_on channel=4 note=64 velocity=85 time=0
note_off channel=8 note=55 velocity=0 time=0
note_on channel=9 note=36 velocity=111 time=0
note_on channel=4 note=52 velocity=87 time=0
note_off channel=9 note=36 velocity=0 time=0
note_off channel=1 note=33 velocity=0 time=12
note_off channel=1 note=31 velocity=0 time=56
note_on channel=1 note=31 velocity=99 time=120
note_on channel=8 note=60 velocity=111 time=0
note_on channel=9 note=36 velocity=105 time=4
note_off channel=8 note=57 velocity=0 time=0
note_on channel=9 note=44 velocity=101 time=0
note_off channel=9 note=36 velocity=0 time=4
note_off channel=9 note=44 velocity=0 time=0
note_on channel=8 note=57 velocity=66 time=92
note_off channel=8 note=60 velocity=0 time=16
note_off channel=4 note=64 velocity=0 time=4
note_off channel=4 note=60 velocity=0 time=16
note_off channel=4 note=55 velocity=0 time=12
note_off channel=4 note=52 velocity=0 time=0
note_on channel=9 note=42 velocity=115 time=48
note_on channel=4 note=55 velocity=80 time=0
note_on channel=8 note=60 velocity=107 time=0
note_off channel=9 note=42 velocity=0 time=0
note_on channel=4 note=64 velocity=95 time=0
note_on channel=9 note=40 velocity=117 time=4
note_on channel=4 note=60 velocity=93 time=0
note_on channel=4 note=52 velocity=89 time=0
note_off channel=9 note=40 velocity=0 time=4
note_off channel=8 note=57 velocity=0 time=0
note_off channel=8 note=60 velocity=0 time=128
note_off channel=1 note=31 velocity=0 time=40
note_on channel=9 note=44 velocity=109 time=16
note_on channel=8 note=60 velocity=113 time=0
note_off channel=9 note=44 velocity=0 time=4
note_on channel=1 note=31 velocity=97 time=88
note_on channel=9 note=36 velocity=101 time=8
note_off channel=9 note=36 velocity=0 time=4
note_off channel=4 note=55 velocity=0 time=16
note_off channel=4 note=64 velocity=0 time=8
note_off channel=4 note=60 velocity=0 time=0
note_off channel=4 note=52 velocity=0 time=4
note_on channel=3 note=65 velocity=81 time=28
note_on channel=3 note=69 velocity=92 time=8
note_off channel=8 note=60 velocity=0 time=4
note_off channel=3 note=67 velocity=0 time=12
note_on channel=1 note=29 velocity=93 time=4
note_on channel=9 note=42 velocity=105 time=4
note_on channel=4 note=57 velocity=99 time=0
note_on channel=8 note=55 velocity=99 time=0
note_off channel=9 note=42 velocity=0 time=0
note_on channel=4 note=60 velocity=90 time=0
note_on channel=9 note=36 velocity=111 time=4
note_on channel=4 note=64 velocity=92 time=0
note_on channel=4 note=53 velocity=92 time=0
note_off channel=9 note=36 velocity=0 time=4
note_off channel=1 note=31 velocity=0 time=8
note_off channel=8 note=55 velocity=0 time=64
note_off channel=1 note=29 velocity=0 time=16
pitchwheel channel=8 pitch=-508 time=32
pitchwheel channel=8 pitch=-1768 time=4
pitchwheel channel=8 pitch=-3280 time=12
pitchwheel channel=8 pitch=-6304 time=0
pitchwheel channel=8 pitch=-7312 time=8
pitchwheel channel=8 pitch=-8068 time=8
pitchwheel channel=8 pitch=-8192 time=8
pitchwheel channel=8 pitch=-8068 time=12
note_on channel=8 note=69 velocity=97 time=8
note_on channel=9 note=36 velocity=107 time=4
note_on channel=1 note=29 velocity=66 time=0
pitchwheel channel=8 pitch=-7690 time=0
note_on channel=9 note=44 velocity=92 time=0
note_off channel=9 note=36 velocity=0 time=4
note_off channel=9 note=44 velocity=0 time=0
pitchwheel channel=8 pitch=-5296 time=4
pitchwheel channel=8 pitch=-2902 time=8
pitchwheel channel=8 pitch=0 time=8
note_off channel=1 note=29 velocity=0 time=16
note_off channel=8 note=69 velocity=0 time=52
note_on channel=8 note=67 velocity=86 time=0
note_on channel=1 note=29 velocity=89 time=4
note_off channel=4 note=64 velocity=0 time=0
note_off channel=4 note=53 velocity=0 time=12
note_off channel=4 note=57 velocity=0 time=4
note_off channel=4 note=60 velocity=0 time=0
note_off channel=1 note=29 velocity=0 time=48
note_on channel=4 note=57 velocity=82 time=24
note_on channel=4 note=60 velocity=89 time=4
note_on channel=8 note=64 velocity=103 time=0
note_on channel=4 note=53 velocity=87 time=0
note_on channel=9 note=42 velocity=109 time=4
note_on channel=1 note=29 velocity=105 time=0
note_on channel=4 note=64 velocity=89 time=0
note_off channel=9 note=42 velocity=0 time=0
note_on channel=9 note=40 velocity=121 time=0
note_off channel=9 note=40 velocity=0 time=4
note_off channel=8 note=67 velocity=0 time=4
note_off channel=8 note=64 velocity=0 time=76
note_on channel=8 note=62 velocity=95 time=8
note_on channel=8 note=60 velocity=97 time=92
note_on channel=9 note=44 velocity=95 time=8
note_off channel=8 note=62 velocity=0 time=0
note_off channel=9 note=44 velocity=0 time=4
note_off channel=1 note=29 velocity=0 time=32
note_off channel=4 note=53 velocity=0 time=12
note_off channel=4 note=64 velocity=0 time=0
note_off channel=4 note=57 velocity=0 time=16
note_off channel=4 note=60 velocity=0 time=0
note_on channel=8 note=57 velocity=93 time=24
note_on channel=9 note=36 velocity=93 time=8
note_on channel=1 note=29 velocity=86 time=0
note_on channel=4 note=53 velocity=92 time=0
note_off channel=8 note=60 velocity=0 time=0
note_off channel=9 note=36 velocity=0 time=0
note_on channel=4 note=57 velocity=82 time=0
note_on channel=4 note=60 velocity=93 time=0
note_on channel=4 note=64 velocity=83 time=0
note_off channel=8 note=57 velocity=0 time=24
pitchwheel channel=8 pitch=-382 time=24
pitchwheel channel=8 pitch=-1390 time=8
pitchwheel channel=8 pitch=-5422 time=8
note_off channel=1 note=29 velocity=0 time=4
pitchwheel channel=8 pitch=-6934 time=4
pitchwheel channel=8 pitch=-8192 time=12
note_on channel=9 note=42 velocity=107 time=8
note_on channel=8 note=62 velocity=105 time=0
note_off channel=9 note=42 velocity=0 time=4
note_on channel=1 note=29 velocity=85 time=0
pitchwheel channel=8 pitch=-8192 time=0
note_on channel=9 note=36 velocity=111 time=0
note_off channel=9 note=36 velocity=0 time=4
pitchwheel channel=8 pitch=-2902 time=8
pitchwheel channel=8 pitch=0 time=8
note_off channel=1 note=29 velocity=0 time=36
note_on channel=1 note=29 velocity=65 time=36
note_on channel=8 note=60 velocity=92 time=0
note_off channel=8 note=62 velocity=0 time=20
note_off channel=4 note=64 velocity=0 time=12
note_off channel=4 note=60 velocity=0 time=8
note_off channel=4 note=53 velocity=0 time=12
note_off channel=4 note=57 velocity=0 time=0
note_off channel=1 note=29 velocity=0 time=4
note_off channel=8 note=60 velocity=0 time=32
note_on channel=9 note=36 velocity=107 time=8
note_on channel=1 note=29 velocity=80 time=0
note_on channel=4 note=53 velocity=85 time=0
note_on channel=8 note=57 velocity=109 time=0
note_on channel=9 note=44 velocity=107 time=0
note_on channel=4 note=60 velocity=92 time=0
note_on channel=4 note=57 velocity=87 time=0
note_off channel=9 note=36 velocity=0 time=4
note_on channel=4 note=64 velocity=82 time=0
note_off channel=9 note=44 velocity=0 time=0
note_off channel=1 note=29 velocity=0 time=64
note_on channel=1 note=29 velocity=103 time=28
note_on channel=8 note=55 velocity=105 time=0
note_off channel=8 note=57 velocity=0 time=4
note_off channel=4 note=64 velocity=0 time=16
note_off channel=4 note=53 velocity=0 time=16
note_off channel=4 note=60 velocity=0 time=0
note_off channel=4 note=57 velocity=0 time=4
note_off channel=1 note=29 velocity=0 time=40
note_on channel=4 note=53 velocity=86 time=12
note_off channel=8 note=55 velocity=0 time=0
note_on channel=1 note=29 velocity=99 time=4
note_on channel=4 note=57 velocity=83 time=0
note_on channel=8 note=53 velocity=105 time=0
note_on channel=4 note=60 velocity=90 time=0
note_on channel=9 note=40 velocity=121 time=4
note_on channel=4 note=64 velocity=89 time=0
note_off channel=9 note=40 velocity=0 time=0
note_on channel=9 note=42 velocity=105 time=0
note_off channel=9 note=42 velocity=0 time=0
note_off channel=1 note=29 velocity=0 time=48
note_on channel=1 note=29 velocity=105 time=44
control_change channel=8 control=1 value=81 time=4
control_change channel=8 control=1 value=107 time=12
pitchwheel channel=8 pitch=195 time=0
control_change channel=8 control=1 value=113 time=8
pitchwheel channel=8 pitch=455 time=4
control_change channel=8 control=1 value=116 time=8
pitchwheel channel=8 pitch=325 time=0
control_change channel=8 control=1 value=117 time=12
control_change channel=8 control=1 value=119 time=8
control_change channel=8 control=1 value=120 time=12
note_off channel=1 note=29 velocity=0 time=4
control_change channel=8 control=1 value=121 time=8
pitchwheel channel=8 pitch=195 time=8
note_on channel=1 note=29 velocity=105 time=4
note_on channel=9 note=44 velocity=107 time=4
note_off channel=9 note=44 velocity=0 time=4
control_change channel=8 control=1 value=122 time=0
pitchwheel channel=8 pitch=-382 time=4
pitchwheel channel=8 pitch=0 time=8
control_change channel=8 control=1 value=119 time=8
control_change channel=8 control=1 value=4 time=12
note_off channel=8 note=53 velocity=0 time=8
control_change channel=8 control=1 value=0 time=0
note_off channel=1 note=29 velocity=0 time=24
note_on channel=1 note=31 velocity=99 time=24
note_on channel=9 note=36 velocity=99 time=8
note_off channel=4 note=64 velocity=0 time=0
note_off channel=9 note=36 velocity=0 time=0
note_off channel=4 note=57 velocity=0 time=16
note_off channel=4 note=60 velocity=0 time=0
note_off channel=3 note=69 velocity=0 time=8
note_off channel=4 note=53 velocity=0 time=8
pitchwheel channel=8 pitch=-382 time=8
pitchwheel channel=8 pitch=-1138 time=8
pitchwheel channel=8 pitch=-3280 time=4
pitchwheel channel=8 pitch=-4414 time=8
note_off channel=1 note=31 velocity=0 time=4
pitchwheel channel=8 pitch=-5170 time=0
pitchwheel channel=8 pitch=-5674 time=8
pitchwheel channel=8 pitch=-6304 time=8
pitchwheel channel=8 pitch=-7060 time=4
note_on channel=4 note=52 velocity=76 time=4
note_on channel=1 note=33 velocity=111 time=4
note_on channel=4 note=57 velocity=93 time=0
note_on channel=4 note=64 velocity=97 time=0
note_on channel=4 note=60 velocity=95 time=0
note_on channel=9 note=42 velocity=105 time=4
note_on channel=3 note=69 velocity=85 time=0
pitchwheel channel=8 pitch=-7438 time=0
note_off channel=9 note=42 velocity=0 time=0
note_on channel=8 note=57 velocity=105 time=0
note_on channel=9 note=36 velocity=111 time=0
note_off channel=9 note=36 velocity=0 time=4
pitchwheel channel=8 pitch=-7690 time=4
note_off channel=3 note=65 velocity=0 time=8
pitchwheel channel=8 pitch=-7564 time=0
pitchwheel channel=8 pitch=-7060 time=8
pitchwheel channel=8 pitch=-6304 time=8
pitchwheel channel=8 pitch=-1390 time=8
pitchwheel channel=8 pitch=0 time=8
note_off channel=1 note=33 velocity=0 time=32
note_off channel=8 note=57 velocity=0 time=88
note_on channel=8 note=60 velocity=99 time=16
note_on channel=9 note=44 velocity=93 time=4
note_on channel=1 note=33 velocity=107 time=0
note_off channel=9 note=44 velocity=0 time=4
note_on channel=9 note=36 velocity=107 time=0
note_off channel=9 note=36 velocity=0 time=0
note_on channel=8 note=64 velocity=92 time=88
note_off channel=8 note=60 velocity=0 time=8
note_off channel=4 note=60 velocity=0 time=20
note_off channel=4 note=64 velocity=0 time=4
note_off channel=4 note=57 velocity=0 time=8
note_off channel=4 note=52 velocity=0 time=12
note_off channel=8 note=64 velocity=0 time=4
pitchwheel channel=8 pitch=-508 time=12
pitchwheel channel=8 pitch=-2650 time=8
pitchwheel channel=8 pitch=-6178 time=12
note_on channel=8 note=62 velocity=107 time=8
pitchwheel channel=8 pitch=-6682 time=0
note_on channel=9 note=40 velocity=115 time=4
note_on channel=4 note=57 velocity=86 time=0
note_on channel=9 note=42 velocity=103 time=0
note_on channel=4 note=60 velocity=97 time=0
note_on channel=4 note=64 velocity=87 time=0
note_off channel=9 note=40 velocity=0 time=4
note_on channel=4 note=52 velocity=92 time=0
pitchwheel channel=8 pitch=-4036 time=0
note_off channel=9 note=42 velocity=0 time=0
pitchwheel channel=8 pitch=-886 time=12
pitchwheel channel=8 pitch=0 time=4
note_on channel=8 note=60 velocity=95 time=76
note_off channel=8 note=62 velocity=0 time=8
note_off channel=8 note=60 velocity=0 time=76
note_on channel=8 note=57 velocity=95 time=8
note_on channel=9 note=44 velocity=95 time=4
note_off channel=9 note=44 velocity=0 time=4
note_off channel=1 note=33 velocity=0 time=8
note_on channel=8 note=60 velocity=93 time=80
note_on channel=1 note=33 velocity=95 time=4
note_on channel=9 note=36 velocity=93 time=4
note_off channel=8 note=57 velocity=0 time=0
note_off channel=9 note=36 velocity=0 time=4
note_off channel=4 note=57 velocity=0 time=8
note_off channel=4 note=64 velocity=0 time=4
note_off channel=4 note=60 velocity=0 time=8
note_off channel=4 note=52 velocity=0 time=4
note_on channel=8 note=62 velocity=90 time=60
note_on channel=9 note=42 velocity=111 time=4
note_on channel=4 note=55 velocity=85 time=0
note_on channel=4 note=60 velocity=90 time=0
note_on channel=4 note=64 velocity=86 time=0
note_on channel=4 note=52 velocity=87 time=0
note_off channel=9 note=42 velocity=0 time=4
note_on channel=1 note=31 velocity=90 time=0
note_off channel=8 note=60 velocity=0 time=0
note_on channel=9 note=36 velocity=111 time=0
note_off channel=9 note=36 velocity=0 time=4
note_off channel=1 note=33 velocity=0 time=12
note_on channel=3 note=67 velocity=92 time=4
note_off channel=3 note=69 velocity=0 time=16
note_off channel=1 note=31 velocity=0 time=16
note_on channel=8 note=64 velocity=83 time=36
note_off channel=8 note=62 velocity=0 time=4
note_on channel=9 note=44 velocity=93 time=96
note_on channel=1 note=31 velocity=109 time=0
note_on channel=8 note=67 velocity=97 time=0
note_off channel=9 note=44 velocity=0 time=4
note_on channel=9 note=36 velocity=105 time=0
note_off channel=9 note=36 velocity=0 time=4
note_off channel=8 note=64 velocity=0 time=4
note_off channel=8 note=67 velocity=0 time=80
note_on channel=8 note=64 velocity=89 time=4
note_off channel=4 note=64 velocity=0 time=24
note_off channel=4 note=55 velocity=0 time=16
note_off channel=4 note=60 velocity=0 time=4
note_off channel=4 note=52 velocity=0 time=0
note_on channel=9 note=42 velocity=109 time=52
note_on channel=4 note=55 velocity=89 time=0
note_on channel=8 note=67 velocity=95 time=0
note_off channel=9 note=42 velocity=0 time=4
note_on channel=4 note=60 velocity=90 time=0
note_off channel=8 note=64 velocity=0 time=0
note_on channel=9 note=40 velocity=115 time=0
note_on channel=4 note=64 velocity=86 time=0
note_on channel=4 note=52 velocity=83 time=0
note_off channel=9 note=40 velocity=0 time=4
note_on channel=8 note=69 velocity=97 time=88
note_off channel=8 note=67 velocity=0 time=8
note_off channel=8 note=69 velocity=0 time=28
note_off channel=1 note=31 velocity=0 time=32
pitchwheel channel=8 pitch=-508 time=4
pitchwheel channel=8 pitch=-3910 time=12
note_on channel=8 note=72 velocity=103 time=12
note_on channel=9 note=44 velocity=109 time=4
pitchwheel channel=8 pitch=-7312 time=0
note_off channel=9 note=44 velocity=0 time=0
pitchwheel channel=8 pitch=-8192 time=8
pitchwheel channel=8 pitch=-8068 time=8
pitchwheel channel=8 pitch=-6430 time=8
pitchwheel channel=8 pitch=-508 time=8
pitchwheel channel=8 pitch=0 time=8
note_on channel=9 note=36 velocity=97 time=52
note_on channel=1 note=31 velocity=95 time=0
note_off channel=9 note=36 velocity=0 time=4
note_off channel=4 note=55 velocity=0 time=4
note_off channel=4 note=60 velocity=0 time=8
note_off channel=4 note=64 velocity=0 time=0
note_off channel=4 note=52 velocity=0 time=4
note_on channel=3 note=65 velocity=73 time=52
note_on channel=3 note=69 velocity=86 time=8
note_off channel=3 note=67 velocity=0 time=12
note_on channel=9 note=42 velocity=97 time=4
note_on channel=4 note=53 velocity=87 time=0
note_on channel=4 note=60 velocity=92 time=0
note_off channel=9 note=42 velocity=0 time=4
note_on channel=1 note=29 velocity=89 time=0
note_on channel=4 note=57 velocity=89 time=0
pitchwheel channel=8 pitch=-760 time=0
note_on channel=9 note=36 velocity=115 time=0
note_on channel=4 note=64 velocity=87 time=0
note_on channel=8 note=76 velocity=111 time=0
note_off channel=9 note=36 velocity=0 time=4
pitchwheel channel=8 pitch=-3784 time=0
note_off channel=1 note=31 velocity=0 time=8
pitchwheel channel=8 pitch=-6430 time=8
note_off channel=8 note=72 velocity=0 time=8
pitchwheel channel=8 pitch=-5296 time=8
pitchwheel channel=8 pitch=-3784 time=12
pitchwheel channel=8 pitch=0 time=8
note_off channel=1 note=29 velocity=0 time=44
note_on channel=9 note=36 velocity=115 time=88
note_on channel=9 note=44 velocity=109 time=0
note_off channel=9 note=36 velocity=0 time=4
note_on channel=1 note=29 velocity=52 time=0
note_off channel=8 note=76 velocity=0 time=0
note_off channel=9 note=44 velocity=0 time=0
note_on channel=8 note=74 velocity=99 time=0
note_off channel=1 note=29 velocity=0 time=32
note_off channel=8 note=74 velocity=0 time=56
note_on channel=1 note=29 velocity=85 time=4
note_on channel=8 note=72 velocity=93 time=0
note_off channel=4 note=64 velocity=0 time=12
note_off channel=4 note=57 velocity=0 time=8
note_off channel=4 note=53 velocity=0 time=8
note_off channel=1 note=29 velocity=0 time=32
note_off channel=4 note=60 velocity=0 time=28
note_off channel=8 note=72 velocity=0 time=0
note_on channel=4 note=57 velocity=85 time=4
note_on channel=9 note=40 velocity=119 time=4
note_on channel=1 note=29 velocity=97 time=0
note_on channel=4 note=64 velocity=89 time=0
note_on channel=9 note=42 velocity=103 time=0
note_on channel=4 note=60 velocity=85 time=0
note_on channel=4 note=53 velocity=89 time=0
note_off channel=9 note=40 velocity=0 time=4
note_on channel=8 note=74 velocity=111 time=0
note_off channel=9 note=42 velocity=0 time=0
note_off channel=1 note=29 velocity=0 time=68
note_on channel=9 note=36 velocity=78 time=24
note_on channel=1 note=29 velocity=73 time=0
note_on channel=8 note=72 velocity=93 time=0
note_off channel=9 note=36 velocity=0 time=4
note_off channel=8 note=74 velocity=0 time=0
note_off channel=8 note=72 velocity=0 time=32
note_off channel=1 note=29 velocity=0 time=16
note_on channel=9 note=36 velocity=85 time=44
note_on channel=1 note=29 velocity=70 time=0
note_on channel=8 note=72 velocity=93 time=0
note_on channel=9 note=44 velocity=107 time=0
note_off channel=9 note=36 velocity=0 time=4
note_off channel=9 note=44 velocity=0 time=0
note_off channel=4 note=60 velocity=0 time=24
note_off channel=4 note=64 velocity=0 time=4
note_off channel=4 note=53 velocity=0 time=4
note_off channel=4 note=57 velocity=0 time=4
note_off channel=1 note=29 velocity=0 time=4
note_off channel=8 note=72 velocity=0 time=0
note_on channel=1 note=29 velocity=75 time=48
note_on channel=4 note=57 velocity=90 time=4
note_on channel=8 note=79 velocity=111 time=0
note_on channel=4 note=64 velocity=92 time=0
note_on channel=4 note=60 velocity=93 time=0
note_on channel=4 note=53 velocity=99 time=0
note_on channel=9 note=36 velocity=97 time=4
note_off channel=9 note=36 velocity=0 time=4
note_off channel=1 note=29 velocity=0 time=48
note_on channel=9 note=42 velocity=101 time=40
note_on channel=1 note=29 velocity=103 time=0
note_off channel=9 note=42 velocity=0 time=4
note_on channel=9 note=36 velocity=113 time=0
note_off channel=9 note=36 velocity=0 time=4
pitchwheel channel=8 pitch=715 time=4
control_change channel=8 control=1 value=120 time=12
pitchwheel channel=8 pitch=6565 time=0
control_change channel=8 control=1 value=121 time=12
pitchwheel channel=8 pitch=8191 time=0
control_change channel=8 control=1 value=120 time=12
control_change channel=8 control=1 value=122 time=8
note_off channel=1 note=29 velocity=0 time=20
note_on channel=1 note=29 velocity=89 time=20
note_on channel=9 note=36 velocity=86 time=8
note_off channel=9 note=36 velocity=0 time=4
note_off channel=4 note=64 velocity=0 time=8
note_off channel=4 note=60 velocity=0 time=4
note_off channel=4 note=53 velocity=0 time=0
note_off channel=4 note=57 velocity=0 time=12
note_off channel=1 note=29 velocity=0 time=20
control_change channel=8 control=1 value=119 time=4
note_off channel=8 note=79 velocity=0 time=8
control_change channel=8 control=1 value=4 time=0
control_change channel=8 control=1 value=0 time=12
pitchwheel channel=8 pitch=6435 time=0
pitchwheel channel=8 pitch=0 time=8
note_on channel=4 note=53 velocity=80 time=4
note_on channel=4 note=57 velocity=83 time=0
note_on channel=4 note=60 velocity=92 time=0
note_on channel=4 note=64 velocity=90 time=4
note_on channel=9 note=44 velocity=107 time=4
note_on channel=1 note=29 velocity=105 time=0
note_on channel=8 note=79 velocity=101 time=0
note_off channel=9 note=44 velocity=0 time=0
note_on channel=9 note=36 velocity=78 time=0
note_off channel=9 note=36 velocity=0 time=4
note_off channel=1 note=29 velocity=0 time=48
note_on channel=1 note=29 velocity=101 time=40
note_off channel=8 note=79 velocity=0 time=0
note_on channel=9 note=36 velocity=101 time=4
note_on channel=8 note=76 velocity=103 time=0
note_off channel=9 note=36 velocity=0 time=4
note_off channel=4 note=64 velocity=0 time=12
note_off channel=4 note=60 velocity=0 time=8
note_off channel=4 note=53 velocity=0 time=8
note_off channel=8 note=76 velocity=0 time=0
note_off channel=4 note=57 velocity=0 time=0
note_off channel=1 note=29 velocity=0 time=16
pitchwheel channel=8 pitch=-3280 time=28
pitchwheel channel=8 pitch=-5044 time=4
note_on channel=4 note=53 velocity=95 time=8
note_on channel=9 note=42 velocity=107 time=4
note_on channel=1 note=29 velocity=111 time=0
note_on channel=4 note=57 velocity=95 time=0
note_on channel=8 note=76 velocity=105 time=0
note_on channel=4 note=64 velocity=97 time=0
pitchwheel channel=8 pitch=-6304 time=0
note_on channel=4 note=60 velocity=103 time=0
note_off channel=9 note=42 velocity=0 time=4
note_on channel=9 note=40 velocity=121 time=0
note_off channel=9 note=40 velocity=0 time=4
pitchwheel channel=8 pitch=-3784 time=8
pitchwheel channel=8 pitch=0 time=8
note_off channel=1 note=29 velocity=0 time=44
note_off channel=4 note=60 velocity=0 time=4
note_off channel=4 note=64 velocity=0 time=12
note_on channel=1 note=29 velocity=113 time=12
note_on channel=8 note=74 velocity=105 time=0
note_off channel=8 note=76 velocity=0 time=4
note_on channel=9 note=36 velocity=99 time=8
note_off channel=4 note=57 velocity=0 time=0
note_off channel=9 note=36 velocity=0 time=4
note_off channel=4 note=53 velocity=0 time=12
note_off channel=1 note=29 velocity=0 time=24
note_on channel=4 note=64 velocity=97 time=40
note_on channel=4 note=57 velocity=101 time=0
note_on channel=9 note=44 velocity=109 time=4
note_on channel=1 note=29 velocity=109 time=0
note_on channel=4 note=60 velocity=99 time=0
note_on channel=8 note=72 velocity=90 time=0
note_on channel=4 note=53 velocity=95 time=0
note_off channel=9 note=44 velocity=0 time=4
note_off channel=8 note=74 velocity=0 time=0
note_on channel=9 note=36 velocity=95 time=4
note_off channel=9 note=36 velocity=0 time=4
note_off channel=1 note=29 velocity=0 time=36
note_on channel=1 note=31 velocity=111 time=48
note_on channel=8 note=69 velocity=107 time=4
note_on channel=9 note=36 velocity=111 time=4
note_off channel=9 note=36 velocity=0 time=4
note_off channel=8 note=72 velocity=0 time=8
note_off channel=1 note=31 velocity=0 time=16
note_off channel=8 note=69 velocity=0 time=16
note_off channel=3 note=65 velocity=0 time=32
note_off channel=3 note=69 velocity=0 time=0
note_off channel=3 note=72 velocity=0 time=0
note_off channel=3 note=76 velocity=0 time=0
note_off channel=4 note=53 velocity=0 time=12
note_on channel=5 note=64 velocity=103 time=0
note_on channel=9 note=49 velocity=115 time=4
note_on channel=1 note=33 velocity=119 time=0
note_on channel=4 note=52 velocity=103 time=0
note_on channel=5 note=69 velocity=111 time=0
note_on channel=8 note=72 velocity=109 time=0
note_off channel=9 note=49 velocity=0 time=0
note_on channel=5 note=72 velocity=113 time=0
note_on channel=9 note=36 velocity=115 time=0
note_on channel=5 note=76 velocity=109 time=0
note_on channel=5 note=57 velocity=105 time=0
note_off channel=9 note=36 velocity=0 time=4
note_on channel=4 note=57 velocity=111 time=0
note_on channel=4 note=60 velocity=113 time=0
note_on channel=4 note=64 velocity=109 time=0
note_on channel=4 note=45 velocity=105 time=0
note_off channel=4 note=57 velocity=0 time=8
note_off channel=4 note=60 velocity=0 time=0
note_off channel=4 note=64 velocity=0 time=4
pitchwheel channel=8 pitch=-2524 time=4
pitchwheel channel=8 pitch=-2776 time=12
pitchwheel channel=8 pitch=-2650 time=8
pitchwheel channel=8 pitch=-2398 time=8
pitchwheel channel=8 pitch=-1264 time=12
pitchwheel channel=8 pitch=0 time=4
note_off channel=5 note=72 velocity=0 time=20
note_off channel=5 note=76 velocity=0 time=0
note_off channel=5 note=57 velocity=0 time=4
note_off channel=1 note=33 velocity=0 time=4
note_off channel=4 note=60 velocity=0 time=0
note_off channel=4 note=64 velocity=0 time=0
note_off channel=4 note=45 velocity=0 time=4
note_off channel=5 note=69 velocity=0 time=0
note_off channel=4 note=57 velocity=0 time=4
note_off channel=5 note=64 velocity=0 time=8
note_off channel=4 note=52 velocity=0 time=4
note_on channel=9 note=36 velocity=115 time=76
note_on channel=5 note=69 velocity=109 time=0
note_on channel=5 note=76 velocity=109 time=0
control_change channel=0 control=11 value=125 time=4
note_off channel=9 note=36 velocity=0 time=0
note_on channel=1 note=33 velocity=121 time=0
note_on channel=4 note=57 velocity=109 time=0
note_on channel=5 note=72 velocity=111 time=0
note_on channel=4 note=64 velocity=109 time=0
note_on channel=5 note=64 velocity=99 time=0
note_on channel=5 note=57 velocity=103 time=0
note_on channel=4 note=60 velocity=111 time=4
note_on channel=4 note=52 velocity=99 time=0
note_on channel=4 note=45 velocity=103 time=0
MetaMessage('lyrics', text='\r', time=0)
MetaMessage('lyrics', text='And', time=4)
note_on channel=0 note=81 velocity=109 time=0
control_change channel=8 control=1 value=17 time=4
control_change channel=8 control=1 value=69 time=4
control_change channel=8 control=1 value=86 time=8
control_change channel=8 control=1 value=99 time=8
control_change channel=8 control=1 value=110 time=4
control_change channel=8 control=1 value=113 time=12
control_change channel=8 control=1 value=115 time=0
control_change channel=8 control=1 value=117 time=12
control_change channel=8 control=1 value=119 time=4
control_change channel=8 control=1 value=121 time=8
note_off channel=0 note=81 velocity=0 time=28
note_off channel=5 note=72 velocity=0 time=12
control_change channel=8 control=1 value=122 time=0
note_off channel=4 note=60 velocity=0 time=4
note_off channel=5 note=76 velocity=0 time=0
note_off channel=5 note=57 velocity=0 time=0
note_off channel=5 note=69 velocity=0 time=4
note_off channel=4 note=64 velocity=0 time=4
note_off channel=5 note=64 velocity=0 time=0
note_off channel=4 note=45 velocity=0 time=0
note_off channel=4 note=57 velocity=0 time=4
note_off channel=4 note=52 velocity=0 time=0
note_on channel=9 note=40 velocity=123 time=60
note_on channel=7 note=52 velocity=90 time=0
MetaMessage('lyrics', text=' as', time=4)
note_on channel=0 note=81 velocity=115 time=0
note_off channel=9 note=40 velocity=0 time=0
note_on channel=7 note=53 velocity=85 time=0
note_on channel=9 note=42 velocity=97 time=0
note_on channel=7 note=50 velocity=89 time=0
note_off channel=9 note=42 velocity=0 time=4
note_off channel=7 note=53 velocity=0 time=4
note_off channel=7 note=50 velocity=0 time=0
note_off channel=7 note=52 velocity=0 time=8
control_change channel=8 control=1 value=123 time=32
note_off channel=1 note=33 velocity=0 time=32
note_on channel=7 note=50 velocity=85 time=12
note_on channel=7 note=48 velocity=74 time=4
note_on channel=7 note=47 velocity=61 time=0
note_off channel=7 note=48 velocity=0 time=4
note_off channel=7 note=47 velocity=0 time=0
note_off channel=0 note=81 velocity=0 time=12
note_off channel=7 note=50 velocity=0 time=0
MetaMessage('lyrics', text=' we', time=72)
note_on channel=0 note=81 velocity=80 time=0
note_on channel=7 note=52 velocity=93 time=0
note_on channel=7 note=53 velocity=86 time=4
note_on channel=7 note=55 velocity=78 time=0
note_on channel=9 note=42 velocity=89 time=4
note_off channel=9 note=42 velocity=0 time=4
note_off channel=7 note=55 velocity=0 time=4
note_off channel=7 note=53 velocity=0 time=4
note_off channel=0 note=81 velocity=0 time=4
note_off channel=7 note=52 velocity=0 time=0
note_on channel=7 note=50 velocity=93 time=76
note_on channel=7 note=48 velocity=80 time=0
note_on channel=7 note=47 velocity=68 time=0
MetaMessage('lyrics', text=' wind', time=4)
note_on channel=0 note=84 velocity=117 time=0
note_off channel=7 note=48 velocity=0 time=0
note_off channel=7 note=47 velocity=0 time=0
note_off channel=7 note=50 velocity=0 time=8
control_change channel=8 control=1 value=122 time=60
note_on channel=5 note=62 velocity=92 time=12
control_change channel=8 control=1 value=121 time=0
note_on channel=5 note=55 velocity=97 time=0
note_on channel=5 note=67 velocity=103 time=0
note_on channel=5 note=74 velocity=105 time=4
control_change channel=8 control=1 value=119 time=0
note_on channel=5 note=71 velocity=101 time=0
note_on channel=4 note=50 velocity=92 time=4
note_on channel=4 note=43 velocity=97 time=0
note_on channel=4 note=55 velocity=103 time=0
note_on channel=9 note=42 velocity=115 time=4
note_on channel=1 note=31 velocity=119 time=0
note_on channel=4 note=62 velocity=105 time=0
control_change channel=8 control=1 value=82 time=0
note_on channel=4 note=59 velocity=101 time=0
note_off channel=9 note=42 velocity=0 time=4
control_change channel=8 control=1 value=0 time=0
note_on channel=9 note=36 velocity=115 time=0
note_off channel=9 note=36 velocity=0 time=4
note_off channel=8 note=72 velocity=0 time=0
note_off channel=5 note=71 velocity=0 time=44
note_off channel=4 note=59 velocity=0 time=4
note_off channel=5 note=67 velocity=0 time=12
note_off channel=5 note=74 velocity=0 time=0
note_off channel=4 note=55 velocity=0 time=4
note_off channel=4 note=62 velocity=0 time=0
note_off channel=1 note=31 velocity=0 time=12
note_off channel=5 note=55 velocity=0 time=0
note_off channel=5 note=62 velocity=0 time=4
note_off channel=4 note=43 velocity=0 time=4
note_off channel=4 note=50 velocity=0 time=4
note_on channel=5 note=67 velocity=103 time=84
note_on channel=5 note=74 velocity=109 time=0
note_on channel=5 note=71 velocity=109 time=0
note_on channel=5 note=62 velocity=93 time=4
note_on channel=5 note=55 velocity=103 time=0
note_on channel=1 note=31 velocity=125 time=4
note_on channel=4 note=55 velocity=103 time=0
note_on channel=4 note=62 velocity=109 time=0
note_on channel=4 note=59 velocity=109 time=0
note_off channel=0 note=84 velocity=0 time=4
note_on channel=9 note=36 velocity=117 time=0
note_on channel=4 note=50 velocity=93 time=0
note_on channel=9 note=42 velocity=83 time=0
note_on channel=4 note=43 velocity=103 time=0
MetaMessage('lyrics', text=' on', time=4)
note_on channel=0 note=83 velocity=93 time=0
note_off channel=9 note=36 velocity=0 time=0
note_off channel=9 note=42 velocity=0 time=0
note_off channel=5 note=74 velocity=0 time=112
note_off channel=5 note=71 velocity=0 time=0
note_off channel=4 note=59 velocity=0 time=4
note_off channel=4 note=62 velocity=0 time=4
note_off channel=5 note=62 velocity=0 time=0
note_off channel=5 note=67 velocity=0 time=4
note_off channel=5 note=55 velocity=0 time=0
note_off channel=4 note=55 velocity=0 time=4
note_off channel=4 note=50 velocity=0 time=0
note_off channel=4 note=43 velocity=0 time=0
note_off channel=0 note=83 velocity=0 time=52
MetaMessage('lyrics', text=' down', time=8)
note_on channel=0 note=81 velocity=109 time=0
note_on channel=9 note=40 velocity=119 time=0
note_off channel=9 note=40 velocity=0 time=4
note_on channel=7 note=53 velocity=82 time=0
note_on channel=9 note=42 velocity=97 time=0
note_on channel=7 note=52 velocity=85 time=0
note_off channel=9 note=42 velocity=0 time=0
note_on channel=7 note=55 velocity=71 time=0
note_off channel=7 note=55 velocity=0 time=16
note_off channel=7 note=52 velocity=0 time=4
note_off channel=7 note=53 velocity=0 time=8
note_off channel=1 note=31 velocity=0 time=4
note_on channel=7 note=50 velocity=82 time=64
note_on channel=7 note=48 velocity=67 time=0
note_off channel=7 note=48 velocity=0 time=4
note_off channel=7 note=50 velocity=0 time=12
note_on channel=7 note=53 velocity=71 time=76
note_on channel=7 note=52 velocity=74 time=0
note_on channel=7 note=55 velocity=62 time=0
MetaMessage('lyrics', text=' the', time=4)
note_on channel=0 note=79 velocity=85 time=0
note_on channel=9 note=42 velocity=89 time=0
note_off channel=0 note=81 velocity=0 time=4
note_off channel=9 note=42 velocity=0 time=0
note_off channel=7 note=55 velocity=0 time=8
note_off channel=7 note=52 velocity=0 time=4
note_off channel=7 note=53 velocity=0 time=4
note_off channel=0 note=79 velocity=0 time=12
MetaMessage('lyrics', text=' road', time=60)
note_on channel=0 note=81 velocity=117 time=0
note_on channel=7 note=50 velocity=93 time=0
note_on channel=7 note=48 velocity=85 time=0
note_on channel=7 note=47 velocity=71 time=0
note_on channel=1 note=28 velocity=109 time=4
note_off channel=7 note=47 velocity=0 time=4
note_off channel=7 note=48 velocity=0 time=4
note_off channel=7 note=50 velocity=0 time=8
note_on channel=5 note=65 velocity=103 time=68
note_on channel=5 note=60 velocity=97 time=0
note_on channel=9 note=36 velocity=113 time=8
note_on channel=4 note=53 velocity=103 time=0
note_on channel=5 note=53 velocity=101 time=0
note_on channel=4 note=48 velocity=97 time=0
note_on channel=5 note=69 velocity=107 time=0
note_on channel=5 note=72 velocity=101 time=0
note_off channel=9 note=36 velocity=0 time=4
note_on channel=1 note=29 velocity=113 time=0
note_on channel=4 note=41 velocity=101 time=0
note_on channel=9 note=42 velocity=115 time=0
note_on channel=4 note=57 velocity=107 time=0
note_off channel=9 note=42 velocity=0 time=0
note_on channel=4 note=60 velocity=101 time=0
note_off channel=1 note=28 velocity=0 time=24
note_off channel=5 note=69 velocity=0 time=72
note_off channel=5 note=72 velocity=0 time=0
note_off channel=4 note=57 velocity=0 time=4
note_off channel=4 note=60 velocity=0 time=0
note_off channel=5 note=65 velocity=0 time=4
note_off channel=4 note=53 velocity=0 time=8
note_off channel=1 note=29 velocity=0 time=8
note_off channel=5 note=53 velocity=0 time=8
note_off channel=5 note=60 velocity=0 time=0
note_off channel=4 note=48 velocity=0 time=4
note_off channel=4 note=41 velocity=0 time=0
note_on channel=9 note=40 velocity=121 time=52
note_off channel=9 note=40 velocity=0 time=4
note_on channel=1 note=29 velocity=99 time=0
note_on channel=9 note=42 velocity=85 time=4
note_on channel=7 note=53 velocity=85 time=0
note_on channel=7 note=55 velocity=83 time=0
note_on channel=7 note=52 velocity=81 time=0
note_off channel=9 note=42 velocity=0 time=4
note_off channel=7 note=52 velocity=0 time=4
note_off channel=7 note=55 velocity=0 time=8
note_off channel=7 note=53 velocity=0 time=4
note_off channel=1 note=29 velocity=0 time=24
note_on channel=5 note=60 velocity=92 time=40
note_on channel=5 note=53 velocity=99 time=0
note_on channel=5 note=65 velocity=97 time=0
note_on channel=5 note=72 velocity=101 time=0
note_on channel=5 note=69 velocity=101 time=4
note_on channel=4 note=48 velocity=92 time=4
note_on channel=4 note=41 velocity=99 time=0
note_on channel=4 note=53 velocity=97 time=0
note_on channel=4 note=60 velocity=101 time=0
note_on channel=9 note=36 velocity=119 time=4
note_on channel=1 note=29 velocity=115 time=0
note_on channel=4 note=57 velocity=101 time=0
note_off channel=9 note=36 velocity=0 time=0
note_off channel=0 note=81 velocity=0 time=28
note_off channel=5 note=69 velocity=0 time=52
note_off channel=5 note=72 velocity=0 time=4
note_off channel=4 note=57 velocity=0 time=4
note_off channel=4 note=60 velocity=0 time=4
note_on channel=7 note=53 velocity=82 time=0
note_on channel=9 note=42 velocity=117 time=4
note_off channel=5 note=65 velocity=0 time=0
note_on channel=7 note=52 velocity=82 time=0
note_off channel=9 note=42 velocity=0 time=0
note_on channel=7 note=55 velocity=80 time=0
note_off channel=4 note=53 velocity=0 time=8
note_off channel=7 note=53 velocity=0 time=4
note_off channel=7 note=52 velocity=0 time=0
note_off channel=7 note=55 velocity=0 time=0
note_off channel=5 note=60 velocity=0 time=4
note_off channel=5 note=53 velocity=0 time=4
note_off channel=4 note=48 velocity=0 time=4
note_off channel=4 note=41 velocity=0 time=4
note_off channel=1 note=29 velocity=0 time=4
note_on channel=7 note=50 velocity=92 time=60
note_on channel=9 note=40 velocity=117 time=4
note_on channel=1 note=29 velocity=107 time=0
note_on channel=7 note=48 velocity=71 time=0
note_off channel=9 note=40 velocity=0 time=4
note_off channel=7 note=50 velocity=0 time=8
note_off channel=7 note=48 velocity=0 time=0
note_off channel=1 note=29 velocity=0 time=40
note_on channel=5 note=65 velocity=97 time=28
note_on channel=5 note=72 velocity=101 time=0
note_on channel=5 note=69 velocity=93 time=4
note_on channel=5 note=60 velocity=93 time=0
note_on channel=5 note=53 velocity=99 time=0
note_on channel=4 note=53 velocity=97 time=4
note_on channel=4 note=60 velocity=101 time=0
note_on channel=9 note=42 velocity=83 time=4
note_on channel=4 note=57 velocity=93 time=0
note_on channel=4 note=48 velocity=93 time=0
note_on channel=4 note=41 velocity=99 time=0
note_off channel=9 note=42 velocity=0 time=4
note_on channel=9 note=36 velocity=113 time=4
note_on channel=1 note=29 velocity=115 time=0
note_off channel=9 note=36 velocity=0 time=4
note_on channel=7 note=53 velocity=82 time=88
note_on channel=7 note=55 velocity=77 time=0
note_on channel=7 note=52 velocity=82 time=0
note_off channel=7 note=52 velocity=0 time=4
note_off channel=7 note=53 velocity=0 time=12
note_off channel=7 note=55 velocity=0 time=0
note_off channel=5 note=69 velocity=0 time=16
note_off channel=4 note=57 velocity=0 time=4
note_off channel=5 note=65 velocity=0 time=4
note_off channel=4 note=53 velocity=0 time=8
note_off channel=5 note=72 velocity=0 time=0
note_off channel=4 note=60 velocity=0 time=4
note_off channel=5 note=60 velocity=0 time=12
note_off channel=5 note=53 velocity=0 time=4
note_off channel=4 note=48 velocity=0 time=4
note_off channel=4 note=41 velocity=0 time=4
note_on channel=9 note=42 velocity=105 time=20
note_on channel=7 note=50 velocity=87 time=0
note_off channel=9 note=42 velocity=0 time=0
note_on channel=7 note=48 velocity=58 time=0
note_on channel=9 note=40 velocity=117 time=0
note_on channel=7 note=52 velocity=65 time=0
note_off channel=9 note=40 velocity=0 time=4
note_off channel=7 note=52 velocity=0 time=0
note_off channel=7 note=48 velocity=0 time=8
note_off channel=1 note=29 velocity=0 time=4
note_off channel=7 note=50 velocity=0 time=0
note_on channel=5 note=65 velocity=107 time=76
note_on channel=5 note=69 velocity=109 time=0
note_on channel=1 note=29 velocity=113 time=4
note_on channel=4 note=53 velocity=107 time=0
note_on channel=5 note=72 velocity=107 time=0
note_on channel=4 note=57 velocity=109 time=0
note_on channel=5 note=53 velocity=103 time=0
note_on channel=5 note=60 velocity=90 time=0
note_on channel=9 note=36 velocity=117 time=4
note_on channel=4 note=60 velocity=107 time=0
note_on channel=4 note=41 velocity=103 time=0
note_on channel=4 note=48 velocity=90 time=0
note_off channel=9 note=36 velocity=0 time=4
note_off channel=1 note=29 velocity=0 time=48
note_on channel=9 note=42 velocity=75 time=40
note_on channel=7 note=53 velocity=76 time=0
note_on channel=7 note=55 velocity=53 time=0
note_on channel=7 note=52 velocity=61 time=0
note_off channel=9 note=42 velocity=0 time=4
note_off channel=7 note=55 velocity=0 time=0
note_off channel=7 note=52 velocity=0 time=0
note_off channel=7 note=53 velocity=0 time=12
note_off channel=5 note=69 velocity=0 time=12
note_off channel=4 note=57 velocity=0 time=4
note_off channel=5 note=72 velocity=0 time=0
note_off channel=4 note=60 velocity=0 time=4
note_off channel=5 note=65 velocity=0 time=0
note_off channel=5 note=60 velocity=0 time=0
note_off channel=4 note=53 velocity=0 time=8
note_off channel=4 note=48 velocity=0 time=0
note_off channel=5 note=53 velocity=0 time=4
note_off channel=4 note=41 velocity=0 time=8
note_on channel=1 note=29 velocity=113 time=36
note_on channel=9 note=40 velocity=115 time=4
note_on channel=7 note=50 velocity=92 time=0
note_on channel=7 note=48 velocity=71 time=0
note_on channel=7 note=52 velocity=76 time=0
note_off channel=9 note=40 velocity=0 time=4
note_off channel=7 note=52 velocity=0 time=4
note_off channel=7 note=50 velocity=0 time=8
note_off channel=7 note=48 velocity=0 time=0
note_off channel=1 note=29 velocity=0 time=16
note_on channel=1 note=29 velocity=121 time=60
note_on channel=5 note=53 velocity=97 time=0
note_on channel=5 note=60 velocity=92 time=0
note_on channel=5 note=65 velocity=101 time=0
note_on channel=9 note=36 velocity=117 time=4
note_on channel=4 note=41 velocity=97 time=0
note_on channel=5 note=72 velocity=107 time=0
note_off channel=9 note=36 velocity=0 time=0
note_on channel=4 note=48 velocity=92 time=0
note_on channel=5 note=69 velocity=105 time=0
note_on channel=9 note=42 velocity=119 time=0
note_on channel=4 note=53 velocity=101 time=0
note_off channel=9 note=42 velocity=0 time=0
note_on channel=4 note=60 velocity=107 time=4
note_on channel=4 note=57 velocity=105 time=0
note_off channel=5 note=69 velocity=0 time=48
note_off channel=5 note=72 velocity=0 time=4
note_off channel=4 note=57 velocity=0 time=4
note_off channel=4 note=60 velocity=0 time=4
note_off channel=5 note=65 velocity=0 time=0
note_off channel=4 note=53 velocity=0 time=8
note_off channel=5 note=60 velocity=0 time=12
note_off channel=5 note=53 velocity=0 time=4
note_off channel=4 note=48 velocity=0 time=4
note_off channel=4 note=41 velocity=0 time=4
note_on channel=6 note=60 velocity=97 time=36
note_off channel=6 note=60 velocity=0 time=28
note_on channel=5 note=55 velocity=95 time=20
note_on channel=5 note=67 velocity=97 time=4
note_on channel=5 note=62 velocity=92 time=0
note_on channel=9 note=42 velocity=81 time=4
note_on channel=1 note=31 velocity=115 time=0
note_on channel=4 note=43 velocity=95 time=0
note_on channel=5 note=71 velocity=99 time=0
note_on channel=5 note=74 velocity=105 time=0
note_off channel=9 note=42 velocity=0 time=4
note_off channel=1 note=29 velocity=0 time=0
note_on channel=4 note=55 velocity=97 time=0
note_on channel=9 note=40 velocity=121 time=0
note_on channel=4 note=50 velocity=92 time=0
note_off channel=9 note=40 velocity=0 time=0
note_on channel=4 note=59 velocity=99 time=0
note_on channel=9 note=36 velocity=115 time=0
note_on channel=4 note=62 velocity=105 time=0
note_off channel=9 note=36 velocity=0 time=0
note_off channel=5 note=71 velocity=0 time=60
note_off channel=4 note=59 velocity=0 time=4
note_off channel=5 note=74 velocity=0 time=0
note_off channel=4 note=62 velocity=0 time=4
note_off channel=5 note=67 velocity=0 time=4
note_off channel=4 note=55 velocity=0 time=8
note_off channel=5 note=55 velocity=0 time=4
note_off channel=4 note=43 velocity=0 time=8
note_off channel=5 note=62 velocity=0 time=0
note_off channel=4 note=50 velocity=0 time=4
note_on channel=5 note=69 velocity=99 time=80
note_on channel=5 note=64 velocity=85 time=4
note_on channel=5 note=57 velocity=83 time=0
note_on channel=5 note=76 velocity=82 time=0
note_on channel=4 note=57 velocity=99 time=4
note_on channel=5 note=72 velocity=83 time=0
note_on channel=4 note=52 velocity=85 time=4
note_on channel=5 note=59 velocity=89 time=0
note_on channel=4 note=45 velocity=83 time=0
note_on channel=4 note=64 velocity=82 time=0
note_on channel=9 note=42 velocity=117 time=4
note_on channel=1 note=33 velocity=119 time=0
note_on channel=4 note=60 velocity=83 time=0
note_off channel=5 note=59 velocity=0 time=0
note_on channel=4 note=47 velocity=89 time=0
note_off channel=9 note=42 velocity=0 time=4
note_off channel=4 note=47 velocity=0 time=0
note_on channel=9 note=36 velocity=111 time=0
note_off channel=9 note=36 velocity=0 time=4
note_off channel=1 note=31 velocity=0 time=0
note_off channel=5 note=72 velocity=0 time=48
note_off channel=5 note=76 velocity=0 time=0
note_off channel=4 note=64 velocity=0 time=8
note_off channel=4 note=60 velocity=0 time=0
note_off channel=5 note=69 velocity=0 time=12
note_off channel=4 note=57 velocity=0 time=4
note_off channel=5 note=57 velocity=0 time=0
note_off channel=4 note=45 velocity=0 time=4
note_off channel=5 note=64 velocity=0 time=8
note_off channel=4 note=52 velocity=0 time=4
note_off channel=1 note=33 velocity=0 time=16
note_on channel=5 note=76 velocity=105 time=64
note_on channel=5 note=72 velocity=107 time=0
note_on channel=5 note=69 velocity=107 time=0
note_on channel=5 note=57 velocity=105 time=4
note_on channel=5 note=64 velocity=99 time=0
note_on channel=4 note=64 velocity=105 time=4
note_on channel=4 note=60 velocity=107 time=0
note_on channel=4 note=57 velocity=107 time=0
MetaMessage('lyrics', text='\r', time=0)
MetaMessage('lyrics', text='Our', time=4)
note_on channel=0 note=81 velocity=113 time=0
note_on channel=4 note=45 velocity=105 time=0
note_on channel=4 note=52 velocity=99 time=0
note_on channel=9 note=36 velocity=115 time=4
note_on channel=9 note=42 velocity=75 time=0
note_off channel=9 note=36 velocity=0 time=4
note_on channel=1 note=33 velocity=123 time=0
note_off channel=9 note=42 velocity=0 time=0
note_off channel=5 note=64 velocity=0 time=104
note_off channel=4 note=52 velocity=0 time=4
note_off channel=5 note=76 velocity=0 time=0
note_off channel=5 note=72 velocity=0 time=0
note_off channel=5 note=69 velocity=0 time=0
note_off channel=5 note=57 velocity=0 time=0
note_off channel=0 note=81 velocity=0 time=4
note_off channel=4 note=64 velocity=0 time=4
note_off channel=4 note=60 velocity=0 time=0
note_off channel=4 note=57 velocity=0 time=0
note_off channel=4 note=45 velocity=0 time=0
note_off channel=1 note=33 velocity=0 time=24
note_on channel=9 note=40 velocity=121 time=36
note_off channel=9 note=40 velocity=0 time=4
note_on channel=7 note=52 velocity=90 time=4
note_on channel=9 note=42 velocity=117 time=4
note_on channel=7 note=53 velocity=85 time=0
note_off channel=9 note=42 velocity=0 time=0
note_on channel=7 note=50 velocity=89 time=0
MetaMessage('lyrics', text=' sha', time=4)
note_on channel=0 note=81 velocity=105 time=0
note_off channel=7 note=53 velocity=0 time=4
note_off channel=7 note=50 velocity=0 time=0
note_off channel=7 note=52 velocity=0 time=8
note_off channel=0 note=81 velocity=0 time=16
MetaMessage('lyrics', text='dows', time=60)
note_on channel=0 note=81 velocity=115 time=0
note_on channel=7 note=50 velocity=85 time=0
note_on channel=7 note=48 velocity=74 time=4
note_on channel=7 note=47 velocity=61 time=0
note_off channel=7 note=48 velocity=0 time=4
note_off channel=7 note=47 velocity=0 time=0
note_off channel=7 note=50 velocity=0 time=12
note_on channel=7 note=52 velocity=93 time=72
note_on channel=9 note=42 velocity=83 time=4
note_on channel=7 note=53 velocity=86 time=0
note_on channel=7 note=55 velocity=78 time=0
note_off channel=9 note=42 velocity=0 time=4
note_off channel=7 note=55 velocity=0 time=8
note_off channel=7 note=53 velocity=0 time=4
note_off channel=7 note=52 velocity=0 time=4
note_on channel=7 note=50 velocity=93 time=76
note_on channel=7 note=48 velocity=80 time=0
note_on channel=7 note=47 velocity=68 time=0
note_off channel=7 note=48 velocity=0 time=4
note_off channel=7 note=47 velocity=0 time=0
note_off channel=7 note=50 velocity=0 time=8
note_off channel=0 note=81 velocity=0 time=20
note_on channel=9 note=36 velocity=115 time=52
note_on channel=5 note=62 velocity=90 time=0
note_off channel=9 note=36 velocity=0 time=0
note_on channel=5 note=55 velocity=97 time=0
note_on channel=5 note=67 velocity=103 time=4
note_on channel=5 note=71 velocity=107 time=0
note_on channel=5 note=74 velocity=107 time=0
note_on channel=4 note=50 velocity=90 time=4
note_on channel=4 note=43 velocity=97 time=0
note_on channel=1 note=31 velocity=119 time=4
note_on channel=4 note=55 velocity=103 time=0
note_on channel=4 note=59 velocity=107 time=0
note_on channel=4 note=62 velocity=107 time=0
MetaMessage('lyrics', text=' tal', time=4)
note_on channel=0 note=84 velocity=117 time=0
note_on channel=9 note=42 velocity=115 time=0
note_off channel=9 note=42 velocity=0 time=0
note_off channel=5 note=71 velocity=0 time=72
note_off channel=5 note=74 velocity=0 time=0
note_off channel=1 note=31 velocity=0 time=4
note_off channel=4 note=59 velocity=0 time=4
note_off channel=5 note=55 velocity=0 time=0
note_off channel=4 note=62 velocity=0 time=0
note_off channel=5 note=67 velocity=0 time=0
note_off channel=4 note=43 velocity=0 time=8
note_off channel=4 note=55 velocity=0 time=0
note_off channel=5 note=62 velocity=0 time=8
note_off channel=4 note=50 velocity=0 time=8
note_on channel=9 note=36 velocity=119 time=68
note_off channel=0 note=84 velocity=0 time=4
note_off channel=9 note=36 velocity=0 time=0
note_on channel=5 note=62 velocity=87 time=0
note_on channel=5 note=67 velocity=99 time=0
note_on channel=5 note=74 velocity=105 time=0
note_on channel=5 note=71 velocity=95 time=4
note_on channel=5 note=55 velocity=92 time=0
note_on channel=4 note=50 velocity=87 time=4
note_on channel=4 note=55 velocity=99 time=0
note_on channel=4 note=62 velocity=105 time=0
note_on channel=9 note=42 velocity=92 time=4
note_on channel=1 note=31 velocity=117 time=0
note_on channel=4 note=59 velocity=95 time=0
note_on channel=4 note=43 velocity=92 time=0
MetaMessage('lyrics', text='ler', time=4)
note_on channel=0 note=83 velocity=87 time=0
note_off channel=9 note=42 velocity=0 time=0
note_off channel=0 note=83 velocity=0 time=48
MetaMessage('lyrics', text=' than', time=40)
note_on channel=0 note=81 velocity=109 time=0
note_off channel=5 note=74 velocity=0 time=40
note_off channel=5 note=71 velocity=0 time=0
note_off channel=4 note=62 velocity=0 time=8
note_off channel=5 note=67 velocity=0 time=0
note_off channel=4 note=59 velocity=0 time=0
note_off channel=0 note=81 velocity=0 time=4
note_off channel=5 note=55 velocity=0 time=0
note_off channel=4 note=55 velocity=0 time=4
note_off channel=4 note=43 velocity=0 time=0
note_off channel=5 note=62 velocity=0 time=8
note_off channel=4 note=50 velocity=0 time=8
note_on channel=9 note=40 velocity=115 time=16
note_off channel=1 note=31 velocity=0 time=0
note_off channel=9 note=40 velocity=0 time=0
MetaMessage('lyrics', text=' our', time=8)
note_on channel=0 note=83 velocity=107 time=0
note_on channel=9 note=42 velocity=107 time=4
note_off channel=9 note=42 velocity=0 time=4
note_on channel=7 note=53 velocity=82 time=0
note_on channel=7 note=52 velocity=85 time=0
note_on channel=7 note=55 velocity=71 time=0
note_off channel=7 note=55 velocity=0 time=16
note_off channel=7 note=52 velocity=0 time=4
note_off channel=7 note=53 velocity=0 time=8
note_on channel=7 note=50 velocity=82 time=68
note_on channel=7 note=48 velocity=67 time=0
note_off channel=7 note=48 velocity=0 time=4
note_off channel=7 note=50 velocity=0 time=12
note_on channel=9 note=42 velocity=93 time=76
note_on channel=7 note=53 velocity=71 time=0
note_on channel=7 note=52 velocity=74 time=0
note_on channel=7 note=55 velocity=62 time=0
note_off channel=9 note=42 velocity=0 time=4
note_off channel=7 note=55 velocity=0 time=12
note_off channel=7 note=52 velocity=0 time=4
note_off channel=7 note=53 velocity=0 time=4
note_on channel=1 note=28 velocity=101 time=68
note_on channel=7 note=50 velocity=93 time=4
note_on channel=7 note=48 velocity=85 time=0
note_on channel=7 note=47 velocity=71 time=0
note_off channel=0 note=83 velocity=0 time=4
note_off channel=7 note=47 velocity=0 time=4
note_off channel=7 note=48 velocity=0 time=4
note_off channel=7 note=50 velocity=0 time=8
note_on channel=9 note=36 velocity=121 time=64
note_off channel=9 note=36 velocity=0 time=4
note_on channel=5 note=60 velocity=95 time=0
note_on channel=5 note=53 velocity=103 time=0
note_on channel=5 note=65 velocity=99 time=0
note_on channel=5 note=69 velocity=103 time=4
note_on channel=9 note=42 velocity=111 time=4
note_on channel=1 note=29 velocity=117 time=0
note_on channel=4 note=48 velocity=95 time=0
note_on channel=5 note=72 velocity=103 time=0
note_on channel=4 note=41 velocity=103 time=0
note_on channel=4 note=53 velocity=99 time=0
note_off channel=9 note=42 velocity=0 time=4
note_on channel=4 note=57 velocity=103 time=0
note_on channel=4 note=60 velocity=103 time=0
MetaMessage('lyrics', text=' so', time=4)
note_on channel=0 note=83 velocity=113 time=0
note_off channel=1 note=28 velocity=0 time=28
note_off channel=5 note=65 velocity=0 time=60
note_off channel=5 note=69 velocity=0 time=0
note_off channel=4 note=53 velocity=0 time=4
note_off channel=4 note=57 velocity=0 time=0
note_off channel=5 note=72 velocity=0 time=4
note_off channel=4 note=60 velocity=0 time=8
note_off channel=1 note=29 velocity=0 time=4
note_off channel=5 note=53 velocity=0 time=4
note_off channel=5 note=60 velocity=0 time=4
note_off channel=4 note=41 velocity=0 time=4
note_off channel=4 note=48 velocity=0 time=4
note_on channel=9 note=40 velocity=113 time=56
MetaMessage('lyrics', text='ul', time=4)
note_off channel=0 note=83 velocity=0 time=0
note_off channel=9 note=40 velocity=0 time=0
note_on channel=1 note=29 velocity=97 time=0
note_on channel=0 note=81 velocity=109 time=0
note_on channel=9 note=42 velocity=89 time=0
note_off channel=9 note=42 velocity=0 time=4
note_on channel=7 note=53 velocity=85 time=0
note_on channel=7 note=55 velocity=83 time=0
note_on channel=7 note=52 velocity=81 time=0
note_off channel=7 note=52 velocity=0 time=8
note_off channel=7 note=55 velocity=0 time=8
note_off channel=7 note=53 velocity=0 time=4
note_off channel=1 note=29 velocity=0 time=12
note_on channel=5 note=65 velocity=95 time=48
note_on channel=5 note=72 velocity=99 time=0
note_on channel=5 note=69 velocity=101 time=0
note_on channel=5 note=60 velocity=89 time=0
note_on channel=5 note=53 velocity=92 time=4
note_on channel=4 note=53 velocity=95 time=4
note_on channel=4 note=60 velocity=99 time=0
note_on channel=4 note=57 velocity=101 time=0
note_on channel=4 note=48 velocity=89 time=0
note_on channel=4 note=41 velocity=92 time=4
note_on channel=9 note=36 velocity=119 time=4
note_on channel=1 note=29 velocity=117 time=0
note_off channel=9 note=36 velocity=0 time=4
note_on channel=9 note=42 velocity=113 time=88
note_on channel=7 note=53 velocity=82 time=0
note_off channel=9 note=42 velocity=0 time=4
note_on channel=7 note=52 velocity=82 time=0
note_on channel=7 note=55 velocity=80 time=0
note_off channel=7 note=53 velocity=0 time=12
note_off channel=7 note=52 velocity=0 time=0
note_off channel=7 note=55 velocity=0 time=0
note_off channel=5 note=69 velocity=0 time=4
note_off channel=4 note=57 velocity=0 time=4
note_off channel=5 note=65 velocity=0 time=12
note_off channel=5 note=72 velocity=0 time=0
note_off channel=5 note=60 velocity=0 time=0
note_off channel=5 note=53 velocity=0 time=0
note_off channel=4 note=60 velocity=0 time=4
note_off channel=4 note=41 velocity=0 time=0
note_off channel=4 note=53 velocity=0 time=4
note_off channel=4 note=48 velocity=0 time=0
note_off channel=1 note=29 velocity=0 time=8
note_on channel=7 note=50 velocity=92 time=44
note_on channel=9 note=40 velocity=113 time=4
note_on channel=1 note=29 velocity=103 time=0
note_on channel=7 note=48 velocity=71 time=0
note_off channel=9 note=40 velocity=0 time=0
note_off channel=7 note=50 velocity=0 time=12
note_off channel=7 note=48 velocity=0 time=0
note_off channel=1 note=29 velocity=0 time=28
note_on channel=5 note=72 velocity=101 time=40
note_on channel=5 note=69 velocity=107 time=4
note_on channel=5 note=65 velocity=99 time=0
note_on channel=5 note=53 velocity=97 time=0
note_on channel=9 note=36 velocity=117 time=4
note_on channel=4 note=60 velocity=101 time=0
note_on channel=5 note=60 velocity=93 time=0
note_off channel=9 note=36 velocity=0 time=4
note_on channel=4 note=57 velocity=107 time=0
note_on channel=4 note=53 velocity=99 time=0
note_on channel=4 note=41 velocity=97 time=0
note_on channel=9 note=42 velocity=89 time=4
note_on channel=4 note=48 velocity=93 time=0
note_off channel=9 note=42 velocity=0 time=4
note_on channel=1 note=29 velocity=117 time=0
note_on channel=7 note=53 velocity=82 time=92
note_on channel=7 note=55 velocity=77 time=0
note_on channel=7 note=52 velocity=82 time=0
note_off channel=7 note=52 velocity=0 time=4
note_off channel=0 note=81 velocity=0 time=4
note_off channel=7 note=53 velocity=0 time=8
note_off channel=7 note=55 velocity=0 time=0
note_off channel=5 note=69 velocity=0 time=4
note_off channel=4 note=57 velocity=0 time=8
note_off channel=5 note=65 velocity=0 time=4
note_off channel=4 note=53 velocity=0 time=4
note_off channel=5 note=60 velocity=0 time=0
note_off channel=5 note=72 velocity=0 time=4
note_off channel=4 note=48 velocity=0 time=4
note_off channel=5 note=53 velocity=0 time=0
note_off channel=4 note=60 velocity=0 time=4
note_off channel=4 note=41 velocity=0 time=0
note_on channel=9 note=40 velocity=115 time=32
note_off channel=9 note=40 velocity=0 time=4
note_on channel=9 note=42 velocity=107 time=12
note_on channel=7 note=50 velocity=87 time=0
note_on channel=7 note=48 velocity=58 time=0
note_on channel=7 note=52 velocity=65 time=0
note_off channel=9 note=42 velocity=0 time=4
note_off channel=1 note=29 velocity=0 time=0
note_off channel=7 note=52 velocity=0 time=0
note_off channel=7 note=48 velocity=0 time=8
note_off channel=7 note=50 velocity=0 time=4
note_on channel=9 note=36 velocity=113 time=64
note_off channel=9 note=36 velocity=0 time=0
note_on channel=5 note=53 velocity=97 time=4
note_on channel=5 note=72 velocity=99 time=0
note_on channel=5 note=65 velocity=99 time=0
note_on channel=4 note=41 velocity=97 time=8
note_on channel=5 note=60 velocity=92 time=0
note_on channel=4 note=60 velocity=99 time=0
note_on channel=5 note=69 velocity=105 time=0
note_on channel=4 note=53 velocity=99 time=0
note_on channel=1 note=29 velocity=115 time=4
note_on channel=4 note=48 velocity=92 time=0
note_on channel=4 note=57 velocity=105 time=0
note_off channel=1 note=29 velocity=0 time=72
note_on channel=9 note=42 velocity=99 time=24
note_on channel=7 note=53 velocity=76 time=0
note_on channel=7 note=55 velocity=53 time=0
note_on channel=7 note=52 velocity=61 time=0
note_off channel=9 note=42 velocity=0 time=4
note_off channel=7 note=55 velocity=0 time=0
note_off channel=7 note=52 velocity=0 time=0
note_off channel=7 note=53 velocity=0 time=12
note_off channel=5 note=69 velocity=0 time=20
note_off channel=4 note=57 velocity=0 time=8
note_off channel=5 note=65 velocity=0 time=0
note_off channel=4 note=53 velocity=0 time=4
note_off channel=5 note=60 velocity=0 time=4
note_off channel=5 note=53 velocity=0 time=4
note_off channel=5 note=72 velocity=0 time=0
note_off channel=4 note=48 velocity=0 time=4
note_off channel=4 note=41 velocity=0 time=4
note_off channel=4 note=60 velocity=0 time=0
note_on channel=9 note=40 velocity=115 time=16
note_off channel=9 note=40 velocity=0 time=0
note_on channel=1 note=29 velocity=115 time=12
note_on channel=7 note=50 velocity=92 time=4
note_on channel=7 note=48 velocity=71 time=0
note_on channel=7 note=52 velocity=76 time=0
note_off channel=7 note=52 velocity=0 time=8
note_off channel=7 note=50 velocity=0 time=8
note_off channel=7 note=48 velocity=0 time=0
note_off channel=1 note=29 velocity=0 time=16
note_on channel=9 note=36 velocity=117 time=48
note_on channel=5 note=53 velocity=92 time=0
note_on channel=5 note=60 velocity=90 time=0
note_off channel=9 note=36 velocity=0 time=4
note_on channel=5 note=65 velocity=105 time=0
note_on channel=5 note=69 velocity=107 time=0
note_on channel=5 note=72 velocity=99 time=0
note_on channel=4 note=41 velocity=92 time=4
note_on channel=4 note=48 velocity=90 time=0
note_on channel=1 note=29 velocity=117 time=4
note_on channel=4 note=53 velocity=105 time=0
note_on channel=4 note=57 velocity=107 time=0
note_on channel=4 note=60 velocity=99 time=0
note_on channel=9 note=42 velocity=101 time=4
note_off channel=9 note=42 velocity=0 time=4
note_off channel=5 note=72 velocity=0 time=56
note_off channel=4 note=60 velocity=0 time=4
note_off channel=5 note=60 velocity=0 time=0
note_off channel=5 note=65 velocity=0 time=0
note_off channel=5 note=69 velocity=0 time=0
note_off channel=4 note=57 velocity=0 time=4
note_off channel=4 note=48 velocity=0 time=4
note_off channel=5 note=53 velocity=0 time=0
note_off channel=4 note=53 velocity=0 time=0
note_off channel=4 note=41 velocity=0 time=8
note_on channel=6 note=60 velocity=103 time=88
note_on channel=9 note=40 velocity=121 time=8
note_on channel=5 note=62 velocity=85 time=0
note_on channel=5 note=55 velocity=87 time=0
note_on channel=5 note=67 velocity=97 time=0
note_on channel=5 note=71 velocity=97 time=0
note_off channel=9 note=40 velocity=0 time=4
note_on channel=5 note=74 velocity=99 time=0
note_on channel=9 note=36 velocity=117 time=0
note_off channel=9 note=36 velocity=0 time=4
note_on channel=4 note=50 velocity=85 time=0
note_on channel=4 note=43 velocity=87 time=0
note_on channel=4 note=55 velocity=97 time=0
note_on channel=4 note=59 velocity=97 time=0
note_off channel=1 note=29 velocity=0 time=4
note_on channel=4 note=62 velocity=99 time=0
note_on channel=1 note=31 velocity=113 time=0
note_on channel=9 note=42 velocity=103 time=4
note_off channel=9 note=42 velocity=0 time=0
note_off channel=6 note=60 velocity=0 time=16
note_off channel=5 note=71 velocity=0 time=48
note_off channel=4 note=59 velocity=0 time=4
note_off channel=5 note=67 velocity=0 time=4
note_off channel=5 note=74 velocity=0 time=0
note_off channel=4 note=55 velocity=0 time=8
note_off channel=4 note=62 velocity=0 time=0
note_off channel=5 note=55 velocity=0 time=12
note_off channel=4 note=43 velocity=0 time=4
note_off channel=5 note=62 velocity=0 time=0
note_off channel=4 note=50 velocity=0 time=4
note_on channel=5 note=69 velocity=99 time=76
note_on channel=5 note=57 velocity=92 time=0
note_on channel=5 note=76 velocity=99 time=0
note_on channel=5 note=64 velocity=85 time=0
note_on channel=5 note=72 velocity=99 time=0
note_on channel=4 note=57 velocity=99 time=8
note_on channel=4 note=45 velocity=92 time=0
note_on channel=4 note=64 velocity=99 time=0
note_on channel=4 note=52 velocity=85 time=0
note_on channel=4 note=60 velocity=99 time=0
note_on channel=9 note=36 velocity=119 time=4
note_off channel=9 note=36 velocity=0 time=4
note_off channel=1 note=31 velocity=0 time=0
note_on channel=9 note=42 velocity=117 time=0
note_on channel=1 note=33 velocity=119 time=0
note_off channel=9 note=42 velocity=0 time=4
note_off channel=5 note=72 velocity=0 time=56
note_off channel=4 note=60 velocity=0 time=4
note_off channel=5 note=64 velocity=0 time=0
note_off channel=5 note=76 velocity=0 time=4
note_off channel=4 note=52 velocity=0 time=4
note_off channel=4 note=64 velocity=0 time=4
note_off channel=5 note=57 velocity=0 time=0
note_off channel=4 note=45 velocity=0 time=4
note_off channel=5 note=69 velocity=0 time=0
note_off channel=4 note=57 velocity=0 time=4
note_on channel=6 note=60 velocity=105 time=12
note_off channel=1 note=33 velocity=0 time=20
note_off channel=6 note=60 velocity=0 time=12
note_on channel=5 note=64 velocity=93 time=48
note_on channel=5 note=57 velocity=97 time=0
note_on channel=5 note=76 velocity=109 time=0
note_on channel=5 note=69 velocity=105 time=0
note_on channel=5 note=72 velocity=107 time=0
note_on channel=4 note=52 velocity=93 time=4
note_on channel=4 note=45 velocity=97 time=0
note_on channel=4 note=64 velocity=109 time=4
note_on channel=4 note=57 velocity=105 time=0
note_on channel=4 note=60 velocity=107 time=0
MetaMessage('lyrics', text='\r', time=0)
MetaMessage('lyrics', text='There', time=4)
note_on channel=0 note=81 velocity=111 time=0
note_on channel=9 note=36 velocity=113 time=0
note_off channel=9 note=36 velocity=0 time=4
note_on channel=1 note=33 velocity=117 time=0
note_on channel=9 note=42 velocity=76 time=0
note_off channel=9 note=42 velocity=0 time=4
note_off channel=5 note=72 velocity=0 time=92
note_off channel=4 note=60 velocity=0 time=8
note_off channel=5 note=76 velocity=0 time=4
note_off channel=0 note=81 velocity=0 time=4
note_off channel=4 note=64 velocity=0 time=0
note_off channel=5 note=57 velocity=0 time=0
note_off channel=5 note=69 velocity=0 time=0
note_off channel=4 note=45 velocity=0 time=4
note_off channel=4 note=57 velocity=0 time=4
note_off channel=5 note=64 velocity=0 time=4
note_off channel=4 note=52 velocity=0 time=4
note_off channel=1 note=33 velocity=0 time=16
note_on channel=9 note=40 velocity=121 time=44
note_on channel=7 note=52 velocity=90 time=0
note_on channel=9 note=42 velocity=115 time=0
MetaMessage('lyrics', text=' walks', time=4)
note_on channel=0 note=81 velocity=109 time=0
note_off channel=9 note=40 velocity=0 time=0
note_on channel=7 note=53 velocity=85 time=0
note_off channel=9 note=42 velocity=0 time=0
note_on channel=7 note=50 velocity=89 time=0
note_off channel=7 note=53 velocity=0 time=8
note_off channel=7 note=50 velocity=0 time=0
note_off channel=7 note=52 velocity=0 time=8
note_on channel=7 note=50 velocity=85 time=76
note_off channel=0 note=81 velocity=0 time=4
note_on channel=7 note=48 velocity=74 time=0
note_on channel=7 note=47 velocity=61 time=0
note_off channel=7 note=48 velocity=0 time=4
note_off channel=7 note=47 velocity=0 time=0
note_off channel=7 note=50 velocity=0 time=12
note_on channel=7 note=52 velocity=93 time=72
MetaMessage('lyrics', text=' a', time=4)
note_on channel=0 note=81 velocity=76 time=0
note_on channel=9 note=42 velocity=107 time=0
note_on channel=7 note=53 velocity=86 time=0
note_on channel=7 note=55 velocity=78 time=0
note_off channel=9 note=42 velocity=0 time=4
note_off channel=7 note=55 velocity=0 time=8
note_off channel=7 note=53 velocity=0 time=4
note_off channel=7 note=52 velocity=0 time=4
note_off channel=0 note=81 velocity=0 time=12
MetaMessage('lyrics', text=' la', time=64)
note_on channel=0 note=88 velocity=111 time=0
note_on channel=7 note=50 velocity=93 time=0
note_on channel=7 note=48 velocity=80 time=0
note_on channel=7 note=47 velocity=68 time=0
note_off channel=7 note=48 velocity=0 time=4
note_off channel=7 note=47 velocity=0 time=0
note_off channel=7 note=50 velocity=0 time=8
note_on channel=5 note=55 velocity=101 time=72
note_on channel=5 note=62 velocity=92 time=0
note_on channel=5 note=71 velocity=99 time=0
note_on channel=5 note=67 velocity=95 time=0
note_on channel=5 note=74 velocity=99 time=0
note_on channel=1 note=31 velocity=123 time=8
note_on channel=4 note=43 velocity=101 time=0
note_on channel=4 note=50 velocity=92 time=0
note_on channel=4 note=59 velocity=99 time=0
note_on channel=4 note=55 velocity=95 time=0
note_on channel=4 note=62 velocity=99 time=0
note_on channel=9 note=36 velocity=115 time=8
note_off channel=9 note=36 velocity=0 time=0
note_on channel=9 note=42 velocity=107 time=0
note_off channel=9 note=42 velocity=0 time=4
note_off channel=5 note=74 velocity=0 time=56
note_off channel=4 note=62 velocity=0 time=4
note_off channel=5 note=71 velocity=0 time=0
note_off channel=5 note=67 velocity=0 time=0
note_off channel=4 note=55 velocity=0 time=4
note_off channel=4 note=59 velocity=0 time=4
note_off channel=5 note=62 velocity=0 time=12
note_off channel=4 note=50 velocity=0 time=8
note_off channel=5 note=55 velocity=0 time=0
note_off channel=1 note=31 velocity=0 time=4
note_off channel=4 note=43 velocity=0 time=0
note_on channel=5 note=71 velocity=107 time=80
note_on channel=5 note=74 velocity=101 time=0
note_on channel=5 note=67 velocity=97 time=0
note_on channel=5 note=62 velocity=95 time=4
note_on channel=5 note=55 velocity=99 time=0
note_on channel=1 note=31 velocity=119 time=4
note_on channel=4 note=59 velocity=107 time=0
note_on channel=4 note=62 velocity=101 time=0
note_on channel=4 note=55 velocity=97 time=0
note_on channel=9 note=42 velocity=111 time=4
note_on channel=4 note=50 velocity=95 time=0
note_on channel=4 note=43 velocity=99 time=0
MetaMessage('lyrics', text='dy', time=4)
note_off channel=0 note=88 velocity=0 time=0
note_off channel=9 note=42 velocity=0 time=0
note_on channel=0 note=86 velocity=103 time=0
note_on channel=9 note=36 velocity=113 time=0
note_off channel=9 note=36 velocity=0 time=0
note_off channel=5 note=71 velocity=0 time=128
note_off channel=5 note=74 velocity=0 time=0
note_off channel=5 note=67 velocity=0 time=0
note_off channel=5 note=62 velocity=0 time=0
note_off channel=4 note=55 velocity=0 time=4
note_off channel=4 note=59 velocity=0 time=4
note_off channel=5 note=55 velocity=0 time=0
note_off channel=4 note=62 velocity=0 time=0
note_off channel=4 note=50 velocity=0 time=0
note_off channel=4 note=43 velocity=0 time=8
MetaMessage('lyrics', text=' we', time=44)
note_on channel=0 note=84 velocity=99 time=0
note_on channel=9 note=40 velocity=119 time=0
note_on channel=9 note=42 velocity=111 time=0
note_off channel=0 note=86 velocity=0 time=4
note_off channel=9 note=40 velocity=0 time=0
note_on channel=7 note=53 velocity=82 time=0
note_off channel=9 note=42 velocity=0 time=0
note_on channel=7 note=52 velocity=85 time=0
note_on channel=7 note=55 velocity=71 time=0
note_off channel=1 note=31 velocity=0 time=12
note_off channel=7 note=55 velocity=0 time=4
note_off channel=7 note=52 velocity=0 time=4
note_off channel=7 note=53 velocity=0 time=8
MetaMessage('lyrics', text=' all', time=68)
note_off channel=0 note=84 velocity=0 time=0
note_on channel=7 note=50 velocity=82 time=0
note_on channel=0 note=83 velocity=97 time=0
note_on channel=7 note=48 velocity=67 time=0
note_off channel=7 note=48 velocity=0 time=4
note_off channel=7 note=50 velocity=0 time=12
note_on channel=9 note=42 velocity=95 time=76
note_on channel=7 note=53 velocity=71 time=0
note_on channel=7 note=52 velocity=74 time=0
note_on channel=7 note=55 velocity=62 time=0
note_off channel=9 note=42 velocity=0 time=4
note_off channel=0 note=83 velocity=0 time=4
note_off channel=7 note=55 velocity=0 time=8
note_off channel=7 note=52 velocity=0 time=4
note_off channel=7 note=53 velocity=0 time=4
note_on channel=1 note=28 velocity=103 time=68
MetaMessage('lyrics', text=' kn', time=4)
note_on channel=0 note=83 velocity=113 time=0
note_on channel=7 note=50 velocity=93 time=0
note_on channel=7 note=48 velocity=85 time=0
note_on channel=7 note=47 velocity=71 time=0
note_off channel=7 note=47 velocity=0 time=8
note_off channel=7 note=48 velocity=0 time=4
note_off channel=7 note=50 velocity=0 time=8
note_on channel=5 note=65 velocity=97 time=64
note_on channel=5 note=69 velocity=101 time=0
note_on channel=5 note=72 velocity=99 time=4
note_on channel=5 note=53 velocity=93 time=0
note_on channel=5 note=60 velocity=90 time=0
note_on channel=4 note=53 velocity=97 time=4
note_on channel=4 note=57 velocity=101 time=0
note_on channel=9 note=36 velocity=119 time=4
note_on channel=1 note=29 velocity=113 time=0
note_on channel=4 note=60 velocity=99 time=0
note_on channel=9 note=42 velocity=115 time=0
note_on channel=4 note=41 velocity=93 time=0
note_on channel=4 note=48 velocity=90 time=0
note_off channel=9 note=36 velocity=0 time=4
note_off channel=9 note=42 velocity=0 time=0
note_off channel=1 note=28 velocity=0 time=32
note_off channel=1 note=29 velocity=0 time=76
note_off channel=5 note=69 velocity=0 time=4
note_off channel=4 note=57 velocity=0 time=8
note_off channel=5 note=72 velocity=0 time=0
note_off channel=5 note=60 velocity=0 time=4
note_off channel=5 note=65 velocity=0 time=0
note_off channel=4 note=48 velocity=0 time=4
note_off channel=5 note=53 velocity=0 time=0
note_off channel=4 note=53 velocity=0 time=0
note_off channel=4 note=60 velocity=0 time=0
note_off channel=4 note=41 velocity=0 time=4
note_on channel=9 note=40 velocity=113 time=32
note_off channel=9 note=40 velocity=0 time=4
MetaMessage('lyrics', text='ow.', time=12)
note_off channel=0 note=83 velocity=0 time=0
note_on channel=0 note=84 velocity=101 time=0
note_on channel=9 note=42 velocity=109 time=8
note_on channel=1 note=29 velocity=97 time=0
note_off channel=9 note=42 velocity=0 time=4
note_on channel=7 note=53 velocity=85 time=0
note_on channel=7 note=55 velocity=83 time=0
note_on channel=7 note=52 velocity=81 time=0
note_off channel=7 note=52 velocity=0 time=8
note_off channel=7 note=55 velocity=0 time=8
note_off channel=7 note=53 velocity=0 time=4
note_off channel=1 note=29 velocity=0 time=12
note_off channel=0 note=84 velocity=0 time=32
note_on channel=5 note=53 velocity=97 time=16
note_on channel=5 note=60 velocity=92 time=0
note_on channel=9 note=36 velocity=113 time=4
note_on channel=5 note=69 velocity=107 time=0
note_on channel=5 note=65 velocity=95 time=0
note_on channel=5 note=72 velocity=101 time=0
note_off channel=9 note=36 velocity=0 time=4
note_on channel=4 note=41 velocity=97 time=0
note_on channel=4 note=48 velocity=92 time=0
note_on channel=1 note=29 velocity=115 time=4
note_on channel=4 note=57 velocity=107 time=0
note_on channel=4 note=53 velocity=95 time=0
note_on channel=4 note=60 velocity=101 time=0
MetaMessage('lyrics', text='.', time=4)
note_on channel=0 note=83 velocity=103 time=0
note_off channel=0 note=83 velocity=0 time=60
note_on channel=9 note=42 velocity=115 time=32
note_on channel=7 note=53 velocity=82 time=0
note_off channel=9 note=42 velocity=0 time=4
note_on channel=7 note=52 velocity=82 time=0
note_on channel=7 note=55 velocity=80 time=0
MetaMessage('lyrics', text='.', time=4)
note_on channel=0 note=81 velocity=93 time=0
note_off channel=5 note=65 velocity=0 time=4
note_off channel=5 note=72 velocity=0 time=4
note_off channel=7 note=53 velocity=0 time=0
note_off channel=7 note=52 velocity=0 time=0
note_off channel=7 note=55 velocity=0 time=0
note_off channel=4 note=53 velocity=0 time=4
note_off channel=5 note=60 velocity=0 time=0
note_off channel=4 note=60 velocity=0 time=0
note_off channel=5 note=69 velocity=0 time=0
note_off channel=4 note=57 velocity=0 time=4
note_off channel=4 note=48 velocity=0 time=4
note_off channel=5 note=53 velocity=0 time=8
note_off channel=4 note=41 velocity=0 time=4
note_off channel=1 note=29 velocity=0 time=4
note_on channel=9 note=40 velocity=115 time=48
note_off channel=9 note=40 velocity=0 time=4
note_on channel=7 note=50 velocity=92 time=0
note_on channel=1 note=29 velocity=99 time=4
note_on channel=7 note=48 velocity=71 time=0
note_off channel=7 note=50 velocity=0 time=12
note_off channel=7 note=48 velocity=0 time=0
note_off channel=1 note=29 velocity=0 time=36
note_on channel=9 note=36 velocity=113 time=36
note_on channel=5 note=72 velocity=99 time=0
note_on channel=5 note=69 velocity=107 time=0
note_on channel=5 note=65 velocity=101 time=0
note_on channel=5 note=53 velocity=101 time=0
note_off channel=9 note=36 velocity=0 time=4
note_on channel=5 note=60 velocity=93 time=0
note_on channel=4 note=60 velocity=99 time=4
note_on channel=4 note=57 velocity=107 time=0
note_on channel=4 note=53 velocity=101 time=0
note_on channel=4 note=41 velocity=101 time=0
note_on channel=9 note=42 velocity=99 time=4
note_on channel=1 note=29 velocity=117 time=0
note_on channel=4 note=48 velocity=93 time=0
note_off channel=9 note=42 velocity=0 time=4
note_on channel=7 note=53 velocity=82 time=92
note_on channel=7 note=55 velocity=77 time=0
note_on channel=7 note=52 velocity=82 time=0
note_off channel=7 note=52 velocity=0 time=4
note_off channel=7 note=53 velocity=0 time=12
note_off channel=7 note=55 velocity=0 time=0
note_off channel=5 note=60 velocity=0 time=4
note_off channel=5 note=69 velocity=0 time=4
note_off channel=5 note=65 velocity=0 time=0
note_off channel=4 note=48 velocity=0 time=4
note_off channel=4 note=57 velocity=0 time=4
note_off channel=5 note=72 velocity=0 time=0
note_off channel=4 note=53 velocity=0 time=0
note_off channel=5 note=53 velocity=0 time=0
note_off channel=4 note=41 velocity=0 time=4
note_off channel=4 note=60 velocity=0 time=4
note_on channel=9 note=40 velocity=117 time=48
note_off channel=9 note=40 velocity=0 time=4
note_on channel=9 note=42 velocity=113 time=4
note_on channel=7 note=50 velocity=87 time=0
note_on channel=7 note=48 velocity=58 time=0
note_on channel=7 note=52 velocity=65 time=0
note_off channel=9 note=42 velocity=0 time=4
note_off channel=7 note=52 velocity=0 time=0
note_off channel=7 note=48 velocity=0 time=8
note_off channel=1 note=29 velocity=0 time=4
note_off channel=7 note=50 velocity=0 time=0
note_on channel=5 note=53 velocity=93 time=68
note_on channel=5 note=72 velocity=93 time=0
note_on channel=5 note=65 velocity=97 time=0
note_on channel=5 note=60 velocity=92 time=0
note_on channel=5 note=69 velocity=97 time=4
note_on channel=4 note=41 velocity=93 time=4
note_on channel=4 note=60 velocity=93 time=0
note_on channel=4 note=53 velocity=97 time=0
note_on channel=4 note=48 velocity=92 time=0
note_on channel=9 note=36 velocity=117 time=4
note_on channel=4 note=57 velocity=97 time=0
note_off channel=9 note=36 velocity=0 time=0
note_on channel=1 note=29 velocity=121 time=4
note_off channel=1 note=29 velocity=0 time=72
note_off channel=0 note=81 velocity=0 time=4
note_on channel=9 note=42 velocity=99 time=12
note_off channel=9 note=42 velocity=0 time=4
note_on channel=7 note=53 velocity=76 time=0
note_on channel=7 note=55 velocity=53 time=0
note_on channel=7 note=52 velocity=61 time=0
note_off channel=7 note=55 velocity=0 time=4
note_off channel=7 note=52 velocity=0 time=0
note_off channel=7 note=53 velocity=0 time=12
note_off channel=5 note=69 velocity=0 time=16
note_off channel=4 note=57 velocity=0 time=8
note_off channel=5 note=65 velocity=0 time=0
note_off channel=4 note=53 velocity=0 time=8
note_off channel=5 note=72 velocity=0 time=0
note_off channel=4 note=60 velocity=0 time=4
note_off channel=5 note=60 velocity=0 time=0
note_off channel=4 note=48 velocity=0 time=8
note_off channel=5 note=53 velocity=0 time=0
note_off channel=4 note=41 velocity=0 time=4
note_on channel=9 note=40 velocity=113 time=32
note_on channel=1 note=29 velocity=113 time=0
note_on channel=7 note=50 velocity=92 time=0
note_off channel=9 note=40 velocity=0 time=0
note_on channel=7 note=48 velocity=71 time=0
note_on channel=7 note=52 velocity=76 time=0
note_off channel=7 note=52 velocity=0 time=8
note_off channel=7 note=50 velocity=0 time=8
note_off channel=7 note=48 velocity=0 time=0
note_off channel=1 note=29 velocity=0 time=24
note_on channel=5 note=65 velocity=103 time=52
note_on channel=5 note=69 velocity=103 time=0
note_on channel=5 note=72 velocity=101 time=0
note_on channel=9 note=42 velocity=115 time=4
note_on channel=1 note=29 velocity=117 time=0
note_on channel=4 note=53 velocity=103 time=0
note_on channel=5 note=53 velocity=97 time=0
note_on channel=4 note=57 velocity=103 time=0
note_on channel=5 note=60 velocity=85 time=0
note_on channel=4 note=60 velocity=101 time=0
note_off channel=9 note=42 velocity=0 time=4
note_on channel=4 note=41 velocity=97 time=0
note_on channel=9 note=36 velocity=117 time=0
note_on channel=4 note=48 velocity=85 time=0
note_off channel=9 note=36 velocity=0 time=4
note_off channel=5 note=69 velocity=0 time=48
note_off channel=5 note=72 velocity=0 time=4
note_off channel=4 note=57 velocity=0 time=4
note_off channel=5 note=65 velocity=0 time=0
note_off channel=4 note=60 velocity=0 time=0
note_off channel=5 note=53 velocity=0 time=4
note_off channel=5 note=60 velocity=0 time=0
note_off channel=4 note=53 velocity=0 time=4
note_off channel=4 note=41 velocity=0 time=4
note_off channel=4 note=48 velocity=0 time=0
note_on channel=6 note=60 velocity=97 time=56
note_off channel=6 note=60 velocity=0 time=28
note_off channel=1 note=29 velocity=0 time=16
note_on channel=5 note=67 velocity=99 time=4
note_on channel=5 note=55 velocity=93 time=4
note_on channel=4 note=55 velocity=99 time=4
note_on channel=5 note=74 velocity=101 time=0
note_on channel=5 note=71 velocity=99 time=0
note_on channel=5 note=62 velocity=85 time=0
note_on channel=9 note=42 velocity=107 time=4
note_on channel=1 note=31 velocity=115 time=0
note_on channel=4 note=43 velocity=93 time=0
note_on channel=4 note=62 velocity=101 time=0
note_on channel=4 note=59 velocity=99 time=0
note_on channel=4 note=50 velocity=85 time=0
note_off channel=9 note=42 velocity=0 time=4
note_on channel=9 note=40 velocity=117 time=0
note_off channel=9 note=40 velocity=0 time=4
note_on channel=9 note=36 velocity=117 time=0
note_off channel=9 note=36 velocity=0 time=4
note_off channel=5 note=71 velocity=0 time=56
note_off channel=5 note=74 velocity=0 time=4
note_off channel=4 note=59 velocity=0 time=4
note_off channel=5 note=67 velocity=0 time=0
note_off channel=4 note=55 velocity=0 time=4
note_off channel=5 note=55 velocity=0 time=0
note_off channel=4 note=62 velocity=0 time=0
note_off channel=5 note=62 velocity=0 time=0
note_off channel=4 note=43 velocity=0 time=4
note_off channel=4 note=50 velocity=0 time=0
note_on channel=5 note=69 velocity=97 time=96
note_on channel=5 note=57 velocity=93 time=0
note_on channel=5 note=76 velocity=90 time=0
note_on channel=5 note=72 velocity=82 time=0
note_on channel=4 note=57 velocity=97 time=8
note_on channel=5 note=64 velocity=83 time=0
note_on channel=4 note=45 velocity=93 time=0
note_on channel=4 note=64 velocity=90 time=0
note_on channel=4 note=60 velocity=82 time=0
note_on channel=9 note=42 velocity=109 time=4
note_on channel=4 note=52 velocity=83 time=0
note_off channel=9 note=42 velocity=0 time=4
note_off channel=1 note=31 velocity=0 time=0
note_on channel=9 note=36 velocity=111 time=0
note_on channel=1 note=33 velocity=117 time=0
note_off channel=9 note=36 velocity=0 time=4
note_off channel=5 note=72 velocity=0 time=24
note_off channel=4 note=60 velocity=0 time=8
note_off channel=5 note=76 velocity=0 time=32
note_off channel=5 note=64 velocity=0 time=4
note_off channel=5 note=69 velocity=0 time=0
note_off channel=4 note=57 velocity=0 time=4
note_off channel=4 note=64 velocity=0 time=0
note_off channel=4 note=52 velocity=0 time=0
note_off channel=5 note=57 velocity=0 time=8
note_off channel=4 note=45 velocity=0 time=8
note_off channel=1 note=33 velocity=0 time=4
note_on channel=5 note=69 velocity=105 time=80
note_on channel=5 note=72 velocity=109 time=0
note_on channel=5 note=76 velocity=101 time=0
note_on channel=4 note=57 velocity=105 time=8
note_on channel=5 note=64 velocity=90 time=0
note_on channel=4 note=60 velocity=109 time=0
note_on channel=5 note=57 velocity=103 time=0
note_on channel=4 note=64 velocity=101 time=0
MetaMessage('lyrics', text='\r', time=0)
MetaMessage('lyrics', text='Who', time=4)
note_on channel=0 note=81 velocity=109 time=0
note_on channel=9 note=36 velocity=115 time=0
note_on channel=1 note=33 velocity=119 time=0
note_on channel=4 note=52 velocity=90 time=0
note_off channel=9 note=36 velocity=0 time=0
note_on channel=4 note=45 velocity=103 time=0
note_on channel=9 note=42 velocity=109 time=0
note_off channel=9 note=42 velocity=0 time=4
note_off channel=0 note=81 velocity=0 time=104
note_off channel=5 note=57 velocity=0 time=12
note_off channel=4 note=45 velocity=0 time=8
note_off channel=5 note=64 velocity=0 time=0
note_off channel=4 note=52 velocity=0 time=4
note_off channel=5 note=76 velocity=0 time=4
note_off channel=5 note=72 velocity=0 time=4
note_off channel=1 note=33 velocity=0 time=4
note_off channel=4 note=60 velocity=0 time=0
note_off channel=5 note=69 velocity=0 time=0
note_off channel=4 note=64 velocity=0 time=0
note_off channel=4 note=57 velocity=0 time=4
note_on channel=9 note=40 velocity=121 time=32
note_off channel=9 note=40 velocity=0 time=4
note_on channel=7 note=52 velocity=90 time=4
MetaMessage('lyrics', text=' shines', time=4)
note_on channel=0 note=81 velocity=109 time=0
note_on channel=9 note=42 velocity=103 time=0
note_on channel=7 note=53 velocity=85 time=0
note_on channel=7 note=50 velocity=89 time=0
note_off channel=9 note=42 velocity=0 time=4
note_off channel=7 note=53 velocity=0 time=4
note_off channel=7 note=50 velocity=0 time=0
note_off channel=7 note=52 velocity=0 time=8
note_on channel=7 note=50 velocity=85 time=76
note_off channel=0 note=81 velocity=0 time=4
note_on channel=7 note=48 velocity=74 time=0
note_on channel=7 note=47 velocity=61 time=0
note_off channel=7 note=48 velocity=0 time=4
note_off channel=7 note=47 velocity=0 time=0
note_off channel=7 note=50 velocity=0 time=12
note_on channel=7 note=52 velocity=93 time=72
MetaMessage('lyrics', text=' while', time=4)
note_on channel=0 note=81 velocity=103 time=0
note_on channel=7 note=53 velocity=86 time=0
note_on channel=7 note=55 velocity=78 time=0
note_on channel=9 note=42 velocity=90 time=4
note_off channel=9 note=42 velocity=0 time=4
note_off channel=7 note=55 velocity=0 time=4
note_off channel=7 note=53 velocity=0 time=4
note_off channel=7 note=52 velocity=0 time=4
note_on channel=7 note=50 velocity=93 time=76
note_on channel=7 note=48 velocity=80 time=0
note_on channel=7 note=47 velocity=68 time=0
note_off channel=7 note=48 velocity=0 time=4
note_off channel=7 note=47 velocity=0 time=0
note_off channel=7 note=50 velocity=0 time=8
note_off channel=0 note=81 velocity=0 time=40
note_on channel=5 note=71 velocity=105 time=36
note_on channel=5 note=67 velocity=99 time=0
note_on channel=5 note=74 velocity=103 time=0
note_on channel=5 note=62 velocity=92 time=4
note_on channel=1 note=31 velocity=121 time=4
note_on channel=4 note=59 velocity=105 time=0
note_on channel=5 note=55 velocity=97 time=0
note_on channel=4 note=55 velocity=99 time=0
note_on channel=4 note=62 velocity=103 time=0
note_on channel=9 note=36 velocity=115 time=4
note_on channel=4 note=50 velocity=92 time=0
note_off channel=9 note=36 velocity=0 time=0
note_on channel=4 note=43 velocity=97 time=0
note_on channel=9 note=42 velocity=113 time=0
MetaMessage('lyrics', text=' light', time=4)
note_on channel=0 note=88 velocity=113 time=0
note_off channel=9 note=42 velocity=0 time=0
note_off channel=1 note=31 velocity=0 time=60
note_off channel=5 note=71 velocity=0 time=0
note_off channel=5 note=74 velocity=0 time=0
note_off channel=5 note=67 velocity=0 time=4
note_off channel=4 note=59 velocity=0 time=4
note_off channel=5 note=55 velocity=0 time=0
note_off channel=4 note=62 velocity=0 time=0
note_off channel=4 note=55 velocity=0 time=4
note_off channel=5 note=62 velocity=0 time=0
note_off channel=4 note=50 velocity=0 time=4
note_off channel=4 note=43 velocity=0 time=0
note_on channel=5 note=74 velocity=105 time=96
note_on channel=5 note=67 velocity=93 time=4
note_on channel=5 note=71 velocity=99 time=0
note_on channel=5 note=55 velocity=90 time=0
note_on channel=5 note=62 velocity=85 time=0
note_off channel=0 note=88 velocity=0 time=4
note_on channel=9 note=36 velocity=117 time=0
note_on channel=1 note=31 velocity=121 time=0
note_on channel=4 note=62 velocity=105 time=0
MetaMessage('lyrics', text=' and', time=4)
note_on channel=0 note=86 velocity=105 time=0
note_off channel=9 note=36 velocity=0 time=0
note_on channel=4 note=55 velocity=93 time=0
note_on channel=9 note=42 velocity=95 time=0
note_on channel=4 note=59 velocity=99 time=0
note_on channel=4 note=43 velocity=90 time=0
note_on channel=4 note=50 velocity=85 time=0
note_off channel=9 note=42 velocity=0 time=4
note_off channel=5 note=62 velocity=0 time=96
note_off channel=5 note=55 velocity=0 time=4
note_off channel=4 note=50 velocity=0 time=4
note_off channel=5 note=71 velocity=0 time=0
note_off channel=4 note=43 velocity=0 time=4
note_off channel=4 note=59 velocity=0 time=4
note_off channel=5 note=74 velocity=0 time=0
note_off channel=5 note=67 velocity=0 time=0
note_off channel=4 note=62 velocity=0 time=4
note_off channel=4 note=55 velocity=0 time=4
note_on channel=9 note=40 velocity=115 time=60
note_off channel=9 note=40 velocity=0 time=4
MetaMessage('lyrics', text=' wants', time=4)
note_on channel=0 note=84 velocity=99 time=0
note_on channel=9 note=42 velocity=109 time=0
note_off channel=9 note=42 velocity=0 time=4
note_on channel=7 note=53 velocity=82 time=0
note_on channel=7 note=52 velocity=85 time=0
note_on channel=7 note=55 velocity=71 time=0
note_off channel=0 note=86 velocity=0 time=8
note_off channel=1 note=31 velocity=0 time=4
note_off channel=7 note=55 velocity=0 time=4
note_off channel=7 note=52 velocity=0 time=4
note_off channel=7 note=53 velocity=0 time=8
note_on channel=7 note=50 velocity=82 time=68
note_on channel=7 note=48 velocity=67 time=0
note_off channel=7 note=48 velocity=0 time=4
note_off channel=7 note=50 velocity=0 time=12
note_off channel=0 note=84 velocity=0 time=68
MetaMessage('lyrics', text=' to', time=8)
note_on channel=0 note=83 velocity=103 time=0
note_on channel=9 note=42 velocity=93 time=0
note_on channel=7 note=53 velocity=71 time=0
note_on channel=7 note=52 velocity=74 time=0
note_on channel=7 note=55 velocity=62 time=0
note_off channel=9 note=42 velocity=0 time=4
note_off channel=7 note=55 velocity=0 time=12
note_off channel=7 note=52 velocity=0 time=4
note_off channel=7 note=53 velocity=0 time=4
note_on channel=1 note=28 velocity=105 time=68
note_on channel=7 note=50 velocity=93 time=4
note_on channel=7 note=48 velocity=85 time=0
note_on channel=7 note=47 velocity=71 time=0
note_off channel=0 note=83 velocity=0 time=4
note_off channel=7 note=47 velocity=0 time=4
note_off channel=7 note=48 velocity=0 time=4
note_off channel=7 note=50 velocity=0 time=8
note_on channel=9 note=36 velocity=115 time=60
note_off channel=9 note=36 velocity=0 time=4
note_on channel=5 note=65 velocity=95 time=0
note_on channel=5 note=69 velocity=101 time=0
note_on channel=5 note=72 velocity=103 time=4
note_on channel=5 note=53 velocity=90 time=0
note_on channel=5 note=60 velocity=78 time=0
note_on channel=4 note=53 velocity=95 time=4
note_on channel=4 note=57 velocity=101 time=0
MetaMessage('lyrics', text=' sh', time=4)
note_on channel=0 note=83 velocity=97 time=0
note_on channel=9 note=42 velocity=117 time=0
note_on channel=1 note=29 velocity=111 time=0
note_on channel=4 note=60 velocity=103 time=0
note_on channel=4 note=41 velocity=90 time=0
note_on channel=4 note=48 velocity=78 time=0
note_off channel=9 note=42 velocity=0 time=4
note_off channel=1 note=28 velocity=0 time=32
note_off channel=5 note=69 velocity=0 time=60
note_off channel=5 note=72 velocity=0 time=0
note_off channel=4 note=57 velocity=0 time=4
note_off channel=4 note=60 velocity=0 time=0
note_off channel=1 note=29 velocity=0 time=4
note_off channel=5 note=53 velocity=0 time=12
note_off channel=5 note=60 velocity=0 time=0
note_off channel=5 note=65 velocity=0 time=0
note_off channel=4 note=48 velocity=0 time=4
note_off channel=4 note=53 velocity=0 time=0
note_off channel=4 note=41 velocity=0 time=4
note_on channel=9 note=40 velocity=113 time=56
note_off channel=9 note=40 velocity=0 time=0
note_off channel=0 note=83 velocity=0 time=4
note_on channel=9 note=42 velocity=99 time=8
note_on channel=1 note=29 velocity=109 time=0
MetaMessage('lyrics', text='ow', time=4)
note_on channel=0 note=81 velocity=101 time=0
note_off channel=9 note=42 velocity=0 time=0
note_on channel=7 note=53 velocity=85 time=0
note_on channel=7 note=55 velocity=83 time=0
note_on channel=7 note=52 velocity=81 time=0
note_off channel=7 note=52 velocity=0 time=8
note_off channel=7 note=55 velocity=0 time=8
note_off channel=7 note=53 velocity=0 time=4
note_off channel=1 note=29 velocity=0 time=16
note_on channel=9 note=36 velocity=117 time=44
note_on channel=5 note=60 velocity=87 time=0
note_on channel=5 note=53 velocity=103 time=0
note_on channel=5 note=65 velocity=92 time=0
note_off channel=9 note=36 velocity=0 time=4
note_on channel=5 note=69 velocity=99 time=0
note_on channel=5 note=72 velocity=101 time=0
note_on channel=4 note=48 velocity=87 time=4
note_on channel=4 note=41 velocity=103 time=0
note_on channel=4 note=53 velocity=92 time=0
note_on channel=1 note=29 velocity=115 time=4
note_on channel=4 note=57 velocity=99 time=0
note_on channel=4 note=60 velocity=101 time=0
note_on channel=9 note=42 velocity=115 time=96
note_on channel=7 note=53 velocity=82 time=0
note_off channel=9 note=42 velocity=0 time=4
note_off channel=5 note=69 velocity=0 time=0
note_on channel=7 note=52 velocity=82 time=0
note_off channel=5 note=72 velocity=0 time=0
note_on channel=7 note=55 velocity=80 time=0
note_off channel=4 note=60 velocity=0 time=4
note_off channel=4 note=57 velocity=0 time=4
note_off channel=5 note=60 velocity=0 time=4
note_off channel=7 note=53 velocity=0 time=0
note_off channel=5 note=65 velocity=0 time=0
note_off channel=7 note=52 velocity=0 time=0
note_off channel=7 note=55 velocity=0 time=0
note_off channel=4 note=48 velocity=0 time=4
note_off channel=5 note=53 velocity=0 time=0
note_off channel=4 note=53 velocity=0 time=0
note_off channel=4 note=41 velocity=0 time=4
note_off channel=1 note=29 velocity=0 time=24
note_on channel=9 note=40 velocity=115 time=44
note_off channel=9 note=40 velocity=0 time=4
note_on channel=7 note=50 velocity=92 time=0
note_on channel=1 note=29 velocity=113 time=4
note_on channel=7 note=48 velocity=71 time=0
note_off channel=7 note=50 velocity=0 time=12
note_off channel=7 note=48 velocity=0 time=0
note_off channel=1 note=29 velocity=0 time=52
note_on channel=5 note=53 velocity=101 time=16
note_on channel=5 note=60 velocity=93 time=0
note_on channel=5 note=65 velocity=92 time=0
note_on channel=5 note=72 velocity=103 time=0
note_on channel=5 note=69 velocity=101 time=0
note_on channel=4 note=41 velocity=101 time=4
note_on channel=4 note=48 velocity=93 time=0
note_on channel=4 note=53 velocity=92 time=4
note_on channel=4 note=60 velocity=103 time=0
note_on channel=4 note=57 velocity=101 time=0
note_on channel=9 note=42 velocity=95 time=4
note_off channel=9 note=42 velocity=0 time=4
note_on channel=9 note=36 velocity=111 time=0
note_off channel=9 note=36 velocity=0 time=0
note_on channel=1 note=29 velocity=107 time=4
note_on channel=7 note=53 velocity=82 time=92
note_on channel=7 note=55 velocity=77 time=0
note_on channel=7 note=52 velocity=82 time=0
note_off channel=7 note=52 velocity=0 time=4
note_off channel=5 note=69 velocity=0 time=12
note_off channel=7 note=53 velocity=0 time=0
note_off channel=7 note=55 velocity=0 time=0
note_off channel=0 note=81 velocity=0 time=8
note_off channel=4 note=57 velocity=0 time=0
note_off channel=5 note=72 velocity=0 time=4
note_off channel=1 note=29 velocity=0 time=4
note_off channel=4 note=60 velocity=0 time=0
note_off channel=5 note=65 velocity=0 time=4
note_off channel=4 note=53 velocity=0 time=8
note_off channel=5 note=60 velocity=0 time=0
note_off channel=4 note=48 velocity=0 time=4
note_off channel=5 note=53 velocity=0 time=0
note_off channel=4 note=41 velocity=0 time=8
note_on channel=9 note=40 velocity=115 time=28
note_off channel=9 note=40 velocity=0 time=4
note_on channel=9 note=42 velocity=117 time=4
note_off channel=9 note=42 velocity=0 time=4
note_on channel=7 note=50 velocity=87 time=0
note_on channel=7 note=48 velocity=58 time=0
note_on channel=7 note=52 velocity=65 time=0
note_off channel=7 note=52 velocity=0 time=4
note_off channel=7 note=48 velocity=0 time=8
note_off channel=7 note=50 velocity=0 time=4
note_on channel=5 note=65 velocity=95 time=64
note_on channel=5 note=72 velocity=101 time=0
note_on channel=5 note=69 velocity=101 time=4
note_on channel=5 note=60 velocity=92 time=0
note_on channel=5 note=53 velocity=103 time=0
note_on channel=4 note=53 velocity=95 time=4
note_on channel=4 note=60 velocity=101 time=0
note_on channel=4 note=57 velocity=101 time=4
note_on channel=4 note=48 velocity=92 time=0
note_on channel=4 note=41 velocity=103 time=0
note_on channel=9 note=36 velocity=109 time=4
note_on channel=1 note=29 velocity=123 time=0
note_off channel=9 note=36 velocity=0 time=0
note_on channel=9 note=42 velocity=105 time=96
note_on channel=7 note=53 velocity=76 time=0
note_off channel=9 note=42 velocity=0 time=0
note_on channel=7 note=55 velocity=53 time=0
note_on channel=7 note=52 velocity=61 time=0
note_off channel=1 note=29 velocity=0 time=4
note_off channel=7 note=55 velocity=0 time=0
note_off channel=7 note=52 velocity=0 time=0
note_off channel=5 note=69 velocity=0 time=12
note_off channel=7 note=53 velocity=0 time=0
note_off channel=4 note=57 velocity=0 time=4
note_off channel=5 note=72 velocity=0 time=4
note_off channel=5 note=60 velocity=0 time=0
note_off channel=5 note=53 velocity=0 time=4
note_off channel=4 note=60 velocity=0 time=4
note_off channel=5 note=65 velocity=0 time=0
note_off channel=4 note=48 velocity=0 time=0
note_off channel=4 note=41 velocity=0 time=0
note_off channel=4 note=53 velocity=0 time=4
note_on channel=9 note=40 velocity=115 time=52
note_off channel=9 note=40 velocity=0 time=4
note_on channel=1 note=29 velocity=109 time=4
note_on channel=7 note=50 velocity=92 time=0
note_on channel=7 note=48 velocity=71 time=0
note_on channel=7 note=52 velocity=76 time=0
note_off channel=7 note=52 velocity=0 time=8
note_off channel=7 note=50 velocity=0 time=8
note_off channel=7 note=48 velocity=0 time=0
note_off channel=1 note=29 velocity=0 time=28
note_on channel=5 note=60 velocity=90 time=40
note_on channel=5 note=53 velocity=101 time=0
note_on channel=5 note=65 velocity=93 time=0
note_on channel=9 note=42 velocity=119 time=8
note_on channel=4 note=48 velocity=90 time=0
note_on channel=5 note=69 velocity=105 time=0
note_on channel=4 note=41 velocity=101 time=0
note_on channel=5 note=72 velocity=99 time=0
note_on channel=4 note=53 velocity=93 time=0
note_off channel=9 note=42 velocity=0 time=4
note_on channel=1 note=29 velocity=119 time=0
note_on channel=4 note=57 velocity=105 time=0
note_on channel=9 note=36 velocity=113 time=0
note_on channel=4 note=60 velocity=99 time=0
note_off channel=9 note=36 velocity=0 time=4
note_off channel=5 note=72 velocity=0 time=52
note_off channel=4 note=60 velocity=0 time=8
note_off channel=5 note=65 velocity=0 time=0
note_off channel=5 note=69 velocity=0 time=0
note_off channel=4 note=57 velocity=0 time=4
note_off channel=5 note=53 velocity=0 time=0
note_off channel=4 note=53 velocity=0 time=4
note_off channel=4 note=41 velocity=0 time=4
note_off channel=5 note=60 velocity=0 time=4
note_off channel=4 note=48 velocity=0 time=8
note_on channel=6 note=60 velocity=103 time=80
note_off channel=1 note=29 velocity=0 time=8
note_on channel=9 note=40 velocity=123 time=4
note_on channel=5 note=55 velocity=92 time=0
note_on channel=5 note=67 velocity=97 time=0
note_off channel=9 note=40 velocity=0 time=4
note_on channel=5 note=62 velocity=83 time=0
note_on channel=9 note=36 velocity=119 time=0
note_off channel=9 note=36 velocity=0 time=4
note_on channel=1 note=31 velocity=113 time=0
note_on channel=4 note=43 velocity=92 time=0
note_on channel=5 note=71 velocity=93 time=0
note_on channel=4 note=55 velocity=97 time=0
note_on channel=5 note=74 velocity=99 time=0
note_on channel=9 note=42 velocity=99 time=4
note_on channel=4 note=50 velocity=83 time=0
note_on channel=4 note=59 velocity=93 time=0
note_on channel=4 note=62 velocity=99 time=0
note_off channel=9 note=42 velocity=0 time=4
note_off channel=6 note=60 velocity=0 time=12
note_off channel=5 note=71 velocity=0 time=40
note_off channel=5 note=74 velocity=0 time=0
note_off channel=4 note=59 velocity=0 time=8
note_off channel=4 note=62 velocity=0 time=0
note_off channel=5 note=67 velocity=0 time=12
note_off channel=4 note=55 velocity=0 time=4
note_off channel=5 note=55 velocity=0 time=0
note_off channel=5 note=62 velocity=0 time=0
note_off channel=4 note=43 velocity=0 time=8
note_off channel=4 note=50 velocity=0 time=0
note_on channel=5 note=69 velocity=89 time=92
note_on channel=5 note=57 velocity=95 time=0
note_on channel=5 note=72 velocity=95 time=0
note_on channel=5 note=64 velocity=85 time=4
note_on channel=9 note=36 velocity=115 time=4
note_on channel=4 note=57 velocity=89 time=0
note_on channel=5 note=76 velocity=89 time=0
note_on channel=9 note=42 velocity=121 time=0
note_on channel=4 note=45 velocity=95 time=0
note_on channel=4 note=60 velocity=95 time=0
note_off channel=9 note=36 velocity=0 time=4
note_on channel=1 note=33 velocity=119 time=0
note_on channel=4 note=52 velocity=85 time=0
note_off channel=9 note=42 velocity=0 time=0
note_on channel=4 note=64 velocity=89 time=0
note_off channel=1 note=31 velocity=0 time=16
note_off channel=5 note=72 velocity=0 time=44
note_off channel=5 note=76 velocity=0 time=0
note_off channel=4 note=60 velocity=0 time=4
note_off channel=4 note=64 velocity=0 time=0
note_off channel=5 note=64 velocity=0 time=4
note_off channel=4 note=52 velocity=0 time=8
note_off channel=5 note=57 velocity=0 time=0
note_off channel=5 note=69 velocity=0 time=0
note_off channel=4 note=45 velocity=0 time=4
note_off channel=4 note=57 velocity=0 time=0
note_off channel=1 note=33 velocity=0 time=16
note_on channel=5 note=69 velocity=105 time=80
note_on channel=5 note=64 velocity=85 time=4
note_on channel=5 note=76 velocity=105 time=0
note_on channel=5 note=72 velocity=101 time=0
note_on channel=4 note=57 velocity=105 time=4
note_on channel=5 note=57 velocity=97 time=0
note_on channel=9 note=36 velocity=117 time=4
note_on channel=4 note=52 velocity=85 time=0
note_on channel=4 note=64 velocity=105 time=0
note_on channel=4 note=60 velocity=101 time=0
MetaMessage('lyrics', text='\r', time=0)
MetaMessage('lyrics', text='How', time=4)
note_on channel=0 note=81 velocity=113 time=0
note_off channel=9 note=36 velocity=0 time=0
note_on channel=1 note=33 velocity=121 time=0
note_on channel=4 note=45 velocity=97 time=0
note_on channel=9 note=42 velocity=90 time=0
note_off channel=9 note=42 velocity=0 time=4
note_off channel=5 note=72 velocity=0 time=96
note_off channel=5 note=76 velocity=0 time=4
note_off channel=4 note=60 velocity=0 time=4
note_off channel=5 note=57 velocity=0 time=0
note_off channel=4 note=64 velocity=0 time=4
note_off channel=5 note=69 velocity=0 time=0
note_off channel=4 note=45 velocity=0 time=0
note_off channel=5 note=64 velocity=0 time=0
note_off channel=4 note=57 velocity=0 time=8
note_off channel=4 note=52 velocity=0 time=0
note_off channel=1 note=33 velocity=0 time=4
note_off channel=0 note=81 velocity=0 time=4
note_on channel=9 note=40 velocity=113 time=56
MetaMessage('lyrics', text=' ev', time=4)
note_on channel=0 note=81 velocity=111 time=0
note_off channel=9 note=40 velocity=0 time=0
note_on channel=7 note=52 velocity=90 time=0
note_on channel=9 note=42 velocity=117 time=0
note_off channel=9 note=42 velocity=0 time=4
note_on channel=7 note=53 velocity=85 time=0
note_on channel=7 note=50 velocity=89 time=0
note_off channel=7 note=53 velocity=0 time=8
note_off channel=7 note=50 velocity=0 time=0
note_off channel=7 note=52 velocity=0 time=8
note_on channel=7 note=50 velocity=85 time=76
note_on channel=7 note=48 velocity=74 time=4
note_on channel=7 note=47 velocity=61 time=0
note_off channel=7 note=48 velocity=0 time=4
note_off channel=7 note=47 velocity=0 time=0
note_off channel=7 note=50 velocity=0 time=12
note_off channel=0 note=81 velocity=0 time=4
note_on channel=7 note=52 velocity=93 time=68
MetaMessage('lyrics', text='ery', time=4)
note_on channel=0 note=81 velocity=68 time=0
note_on channel=7 note=53 velocity=86 time=0
note_on channel=7 note=55 velocity=78 time=0
note_on channel=9 note=42 velocity=93 time=4
note_off channel=9 note=42 velocity=0 time=0
note_off channel=7 note=55 velocity=0 time=8
note_off channel=7 note=53 velocity=0 time=4
note_off channel=7 note=52 velocity=0 time=4
note_off channel=0 note=81 velocity=0 time=4
MetaMessage('lyrics', text='thing', time=72)
note_on channel=0 note=84 velocity=113 time=0
note_on channel=7 note=50 velocity=93 time=0
note_on channel=7 note=48 velocity=80 time=0
note_on channel=7 note=47 velocity=68 time=0
note_off channel=7 note=48 velocity=0 time=4
note_off channel=7 note=47 velocity=0 time=0
note_off channel=7 note=50 velocity=0 time=8
note_on channel=9 note=36 velocity=115 time=72
note_on channel=5 note=67 velocity=99 time=0
note_on channel=5 note=71 velocity=105 time=0
note_off channel=9 note=36 velocity=0 time=4
note_on channel=5 note=62 velocity=90 time=0
note_on channel=5 note=74 velocity=101 time=0
note_on channel=5 note=55 velocity=97 time=0
note_on channel=1 note=31 velocity=123 time=4
note_on channel=4 note=55 velocity=99 time=0
note_on channel=4 note=59 velocity=105 time=0
note_on channel=9 note=42 velocity=117 time=4
note_on channel=4 note=50 velocity=90 time=0
note_on channel=4 note=62 velocity=101 time=0
note_on channel=4 note=43 velocity=97 time=0
note_off channel=9 note=42 velocity=0 time=4
note_off channel=5 note=74 velocity=0 time=48
note_off channel=5 note=71 velocity=0 time=4
note_off channel=4 note=62 velocity=0 time=4
note_off channel=4 note=59 velocity=0 time=4
note_off channel=5 note=55 velocity=0 time=4
note_off channel=4 note=43 velocity=0 time=4
note_off channel=5 note=67 velocity=0 time=0
note_off channel=4 note=55 velocity=0 time=8
note_off channel=5 note=62 velocity=0 time=0
note_off channel=4 note=50 velocity=0 time=4
note_off channel=1 note=31 velocity=0 time=20
note_off channel=0 note=84 velocity=0 time=60
note_on channel=5 note=67 velocity=95 time=16
note_on channel=5 note=71 velocity=103 time=0
note_on channel=5 note=74 velocity=99 time=4
note_on channel=5 note=55 velocity=95 time=0
note_on channel=5 note=62 velocity=81 time=0
note_on channel=9 note=36 velocity=117 time=4
note_on channel=1 note=31 velocity=119 time=0
note_on channel=4 note=55 velocity=95 time=0
note_on channel=4 note=59 velocity=103 time=0
note_off channel=9 note=36 velocity=0 time=4
note_on channel=4 note=62 velocity=99 time=0
note_on channel=9 note=42 velocity=82 time=0
note_on channel=4 note=43 velocity=95 time=0
note_on channel=4 note=50 velocity=81 time=0
MetaMessage('lyrics', text=' still', time=4)
note_on channel=0 note=83 velocity=93 time=0
note_off channel=9 note=42 velocity=0 time=0
note_off channel=5 note=74 velocity=0 time=108
note_off channel=4 note=62 velocity=0 time=4
note_off channel=5 note=71 velocity=0 time=0
note_off channel=5 note=55 velocity=0 time=0
note_off channel=5 note=62 velocity=0 time=0
note_off channel=4 note=59 velocity=0 time=4
note_off channel=4 note=50 velocity=0 time=0
note_off channel=4 note=43 velocity=0 time=4
note_off channel=5 note=67 velocity=0 time=0
note_off channel=4 note=55 velocity=0 time=8
note_off channel=1 note=31 velocity=0 time=40
MetaMessage('lyrics', text=' turns', time=16)
note_on channel=0 note=81 velocity=107 time=0
note_on channel=9 note=40 velocity=115 time=4
note_on channel=9 note=42 velocity=111 time=0
note_off channel=0 note=83 velocity=0 time=4
note_off channel=9 note=40 velocity=0 time=0
note_on channel=7 note=53 velocity=82 time=0
note_off channel=9 note=42 velocity=0 time=0
note_on channel=7 note=52 velocity=85 time=0
note_on channel=7 note=55 velocity=71 time=0
note_off channel=7 note=55 velocity=0 time=16
note_off channel=7 note=52 velocity=0 time=4
note_off channel=7 note=53 velocity=0 time=8
note_on channel=7 note=50 velocity=82 time=68
note_on channel=7 note=48 velocity=67 time=0
note_off channel=7 note=48 velocity=0 time=4
note_off channel=7 note=50 velocity=0 time=12
note_off channel=0 note=81 velocity=0 time=72
note_on channel=9 note=42 velocity=97 time=4
note_on channel=7 note=53 velocity=71 time=0
note_on channel=7 note=52 velocity=74 time=0
note_on channel=7 note=55 velocity=62 time=0
note_off channel=9 note=42 velocity=0 time=4
note_off channel=7 note=55 velocity=0 time=12
note_off channel=7 note=52 velocity=0 time=4
note_off channel=7 note=53 velocity=0 time=4
MetaMessage('lyrics', text=' to', time=72)
note_on channel=0 note=83 velocity=88 time=0
note_on channel=1 note=28 velocity=103 time=0
note_on channel=7 note=50 velocity=93 time=0
note_on channel=7 note=48 velocity=85 time=0
note_on channel=7 note=47 velocity=71 time=0
note_off channel=7 note=47 velocity=0 time=8
note_off channel=7 note=48 velocity=0 time=4
note_off channel=0 note=83 velocity=0 time=4
note_off channel=7 note=50 velocity=0 time=4
note_on channel=5 note=69 velocity=103 time=68
note_on channel=5 note=65 velocity=92 time=0
note_on channel=5 note=72 velocity=97 time=4
note_on channel=9 note=42 velocity=113 time=4
note_on channel=4 note=57 velocity=103 time=0
note_on channel=5 note=60 velocity=83 time=0
note_on channel=4 note=53 velocity=92 time=0
note_on channel=5 note=53 velocity=97 time=0
note_off channel=9 note=42 velocity=0 time=4
note_on channel=1 note=29 velocity=113 time=0
note_on channel=4 note=60 velocity=97 time=0
note_on channel=9 note=36 velocity=111 time=0
note_on channel=4 note=48 velocity=83 time=0
note_on channel=4 note=41 velocity=97 time=0
MetaMessage('lyrics', text=' go', time=4)
note_on channel=0 note=83 velocity=105 time=0
note_off channel=9 note=36 velocity=0 time=0
note_off channel=1 note=28 velocity=0 time=24
note_off channel=1 note=29 velocity=0 time=76
note_off channel=5 note=69 velocity=0 time=16
note_off channel=5 note=72 velocity=0 time=0
note_off channel=4 note=57 velocity=0 time=8
note_off channel=5 note=53 velocity=0 time=0
note_off channel=4 note=60 velocity=0 time=0
note_off channel=5 note=65 velocity=0 time=0
note_off channel=4 note=53 velocity=0 time=4
note_off channel=5 note=60 velocity=0 time=0
note_off channel=4 note=41 velocity=0 time=4
note_off channel=4 note=48 velocity=0 time=4
note_on channel=9 note=40 velocity=117 time=40
note_off channel=9 note=40 velocity=0 time=4
MetaMessage('lyrics', text='ld', time=4)
note_off channel=0 note=83 velocity=0 time=0
note_on channel=0 note=81 velocity=109 time=0
note_on channel=9 note=42 velocity=103 time=4
note_on channel=1 note=29 velocity=105 time=0
note_on channel=7 note=53 velocity=85 time=0
note_off channel=9 note=42 velocity=0 time=0
note_on channel=7 note=55 velocity=83 time=0
note_on channel=7 note=52 velocity=81 time=0
note_off channel=7 note=52 velocity=0 time=8
note_off channel=7 note=55 velocity=0 time=8
note_off channel=7 note=53 velocity=0 time=4
note_off channel=1 note=29 velocity=0 time=24
note_on channel=9 note=36 velocity=109 time=44
note_off channel=9 note=36 velocity=0 time=4
note_on channel=5 note=60 velocity=93 time=0
note_on channel=5 note=53 velocity=99 time=0
note_on channel=5 note=65 velocity=97 time=0
note_on channel=5 note=69 velocity=103 time=0
note_on channel=1 note=29 velocity=115 time=4
note_on channel=4 note=48 velocity=93 time=0
note_on channel=5 note=72 velocity=101 time=0
note_on channel=4 note=41 velocity=99 time=0
note_on channel=4 note=53 velocity=97 time=0
note_on channel=4 note=57 velocity=103 time=0
note_on channel=4 note=60 velocity=101 time=4
note_on channel=9 note=42 velocity=113 time=88
note_on channel=7 note=53 velocity=82 time=0
note_off channel=9 note=42 velocity=0 time=4
note_off channel=5 note=72 velocity=0 time=0
note_on channel=7 note=52 velocity=82 time=0
note_on channel=7 note=55 velocity=80 time=0
note_off channel=4 note=60 velocity=0 time=8
note_off channel=5 note=69 velocity=0 time=0
note_off channel=7 note=53 velocity=0 time=4
note_off channel=7 note=52 velocity=0 time=0
note_off channel=7 note=55 velocity=0 time=0
note_off channel=4 note=57 velocity=0 time=4
note_off channel=5 note=60 velocity=0 time=0
note_off channel=5 note=65 velocity=0 time=0
note_off channel=1 note=29 velocity=0 time=4
note_off channel=4 note=48 velocity=0 time=4
note_off channel=5 note=53 velocity=0 time=0
note_off channel=4 note=53 velocity=0 time=0
note_off channel=4 note=41 velocity=0 time=8
note_on channel=9 note=40 velocity=111 time=48
note_off channel=9 note=40 velocity=0 time=4
note_on channel=7 note=50 velocity=92 time=8
note_on channel=1 note=29 velocity=111 time=4
note_on channel=7 note=48 velocity=71 time=0
note_off channel=7 note=50 velocity=0 time=12
note_off channel=7 note=48 velocity=0 time=0
note_off channel=1 note=29 velocity=0 time=28
note_on channel=5 note=65 velocity=93 time=40
note_on channel=5 note=69 velocity=105 time=0
note_on channel=9 note=36 velocity=111 time=4
note_on channel=5 note=72 velocity=101 time=0
note_on channel=5 note=53 velocity=101 time=0
note_on channel=5 note=60 velocity=90 time=0
note_off channel=9 note=36 velocity=0 time=4
note_on channel=4 note=53 velocity=93 time=0
note_on channel=4 note=57 velocity=105 time=0
note_on channel=4 note=60 velocity=101 time=4
note_on channel=4 note=41 velocity=101 time=0
note_on channel=4 note=48 velocity=90 time=0
note_on channel=9 note=42 velocity=97 time=4
note_on channel=1 note=29 velocity=115 time=0
note_off channel=9 note=42 velocity=0 time=0
note_on channel=7 note=53 velocity=82 time=96
note_on channel=7 note=55 velocity=77 time=0
note_on channel=7 note=52 velocity=82 time=0
note_off channel=7 note=52 velocity=0 time=4
note_off channel=5 note=60 velocity=0 time=12
note_off channel=7 note=53 velocity=0 time=0
note_off channel=7 note=55 velocity=0 time=0
note_off channel=4 note=48 velocity=0 time=8
note_off channel=5 note=69 velocity=0 time=0
note_off channel=4 note=57 velocity=0 time=8
note_off channel=5 note=72 velocity=0 time=0
note_off channel=5 note=53 velocity=0 time=0
note_off channel=0 note=81 velocity=0 time=4
note_off channel=4 note=60 velocity=0 time=0
note_off channel=5 note=65 velocity=0 time=0
note_off channel=4 note=41 velocity=0 time=0
note_off channel=4 note=53 velocity=0 time=8
note_on channel=9 note=40 velocity=113 time=40
note_off channel=9 note=40 velocity=0 time=4
note_on channel=9 note=42 velocity=109 time=4
note_off channel=9 note=42 velocity=0 time=4
note_off channel=1 note=29 velocity=0 time=0
note_on channel=7 note=50 velocity=87 time=0
note_on channel=7 note=48 velocity=58 time=0
note_on channel=7 note=52 velocity=65 time=0
note_off channel=7 note=52 velocity=0 time=4
note_off channel=7 note=48 velocity=0 time=8
note_off channel=7 note=50 velocity=0 time=4
note_on channel=5 note=65 velocity=99 time=64
note_on channel=5 note=69 velocity=103 time=0
note_on channel=5 note=72 velocity=101 time=0
note_on channel=9 note=36 velocity=107 time=4
note_on channel=5 note=53 velocity=97 time=0
note_on channel=5 note=60 velocity=92 time=0
note_off channel=9 note=36 velocity=0 time=4
note_on channel=4 note=53 velocity=99 time=0
note_on channel=4 note=57 velocity=103 time=0
note_on channel=4 note=60 velocity=101 time=0
note_on channel=4 note=41 velocity=97 time=4
note_on channel=4 note=48 velocity=92 time=0
note_on channel=1 note=29 velocity=123 time=4
note_off channel=1 note=29 velocity=0 time=72
note_on channel=9 note=42 velocity=99 time=24
note_on channel=7 note=53 velocity=76 time=0
note_on channel=7 note=55 velocity=53 time=0
note_on channel=7 note=52 velocity=61 time=0
note_off channel=9 note=42 velocity=0 time=4
note_off channel=7 note=55 velocity=0 time=0
note_off channel=7 note=52 velocity=0 time=0
note_off channel=7 note=53 velocity=0 time=12
note_off channel=5 note=69 velocity=0 time=12
note_off channel=4 note=57 velocity=0 time=4
note_off channel=5 note=72 velocity=0 time=0
note_off channel=5 note=60 velocity=0 time=4
note_off channel=4 note=60 velocity=0 time=4
note_off channel=5 note=65 velocity=0 time=0
note_off channel=4 note=48 velocity=0 time=4
note_off channel=4 note=53 velocity=0 time=4
note_off channel=5 note=53 velocity=0 time=4
note_off channel=4 note=41 velocity=0 time=8
note_on channel=9 note=40 velocity=113 time=20
note_off channel=9 note=40 velocity=0 time=0
note_on channel=1 note=29 velocity=115 time=12
note_on channel=7 note=50 velocity=92 time=4
note_on channel=7 note=48 velocity=71 time=0
note_on channel=7 note=52 velocity=76 time=0
note_off channel=7 note=52 velocity=0 time=8
note_off channel=7 note=50 velocity=0 time=8
note_off channel=7 note=48 velocity=0 time=0
note_off channel=1 note=29 velocity=0 time=16
note_on channel=9 note=36 velocity=115 time=48
note_off channel=9 note=36 velocity=0 time=4
note_on channel=5 note=65 velocity=99 time=0
note_on channel=5 note=69 velocity=105 time=0
note_on channel=5 note=72 velocity=95 time=0
note_on channel=5 note=60 velocity=85 time=0
note_on channel=5 note=53 velocity=101 time=4
note_on channel=4 note=53 velocity=99 time=4
note_on channel=4 note=57 velocity=105 time=0
note_on channel=4 note=60 velocity=95 time=0
note_on channel=4 note=48 velocity=85 time=0
note_on channel=9 note=42 velocity=117 time=4
note_on channel=1 note=29 velocity=119 time=0
note_on channel=4 note=41 velocity=101 time=0
note_off channel=9 note=42 velocity=0 time=4
note_off channel=5 note=69 velocity=0 time=48
note_off channel=4 note=57 velocity=0 time=8
note_off channel=5 note=72 velocity=0 time=0
note_off channel=4 note=60 velocity=0 time=4
note_off channel=5 note=65 velocity=0 time=0
note_off channel=5 note=53 velocity=0 time=0
note_off channel=4 note=53 velocity=0 time=4
note_off channel=5 note=60 velocity=0 time=0
note_off channel=4 note=41 velocity=0 time=0
note_off channel=4 note=48 velocity=0 time=8
note_on channel=6 note=60 velocity=97 time=56
note_off channel=6 note=60 velocity=0 time=28
note_off channel=1 note=29 velocity=0 time=12
note_on channel=9 note=40 velocity=115 time=4
note_on channel=5 note=67 velocity=97 time=0
note_off channel=9 note=40 velocity=0 time=0
note_on channel=5 note=71 velocity=99 time=0
note_on channel=9 note=36 velocity=119 time=0
note_on channel=5 note=74 velocity=99 time=0
note_off channel=9 note=36 velocity=0 time=4
note_on channel=5 note=55 velocity=93 time=0
note_on channel=5 note=62 velocity=86 time=0
note_on channel=1 note=31 velocity=115 time=4
note_on channel=4 note=55 velocity=97 time=0
note_on channel=4 note=59 velocity=99 time=0
note_on channel=4 note=62 velocity=99 time=0
note_on channel=9 note=42 velocity=97 time=4
note_on channel=4 note=43 velocity=93 time=0
note_on channel=4 note=50 velocity=86 time=0
note_off channel=9 note=42 velocity=0 time=4
note_off channel=5 note=71 velocity=0 time=56
note_off channel=5 note=74 velocity=0 time=4
note_off channel=5 note=55 velocity=0 time=0
note_off channel=4 note=59 velocity=0 time=4
note_off channel=4 note=62 velocity=0 time=0
note_off channel=4 note=43 velocity=0 time=0
note_off channel=5 note=62 velocity=0 time=4
note_off channel=4 note=50 velocity=0 time=8
note_off channel=5 note=67 velocity=0 time=0
note_off channel=4 note=55 velocity=0 time=4
note_on channel=5 note=69 velocity=93 time=96
note_on channel=5 note=72 velocity=99 time=0
note_on channel=5 note=76 velocity=95 time=0
note_on channel=5 note=57 velocity=93 time=0
note_on channel=5 note=64 velocity=83 time=0
note_on channel=4 note=57 velocity=93 time=4
note_on channel=4 note=60 velocity=99 time=4
note_on channel=4 note=64 velocity=95 time=0
note_on channel=4 note=45 velocity=93 time=0
note_on channel=4 note=52 velocity=83 time=0
note_on channel=9 note=36 velocity=115 time=4
note_on channel=1 note=33 velocity=119 time=0
note_on channel=9 note=42 velocity=113 time=0
note_off channel=9 note=36 velocity=0 time=4
note_off channel=1 note=31 velocity=0 time=0
note_off channel=9 note=42 velocity=0 time=0
note_off channel=5 note=57 velocity=0 time=56
note_off channel=5 note=64 velocity=0 time=4
note_off channel=4 note=45 velocity=0 time=4
note_off channel=5 note=72 velocity=0 time=0
note_off channel=4 note=52 velocity=0 time=0
note_off channel=5 note=76 velocity=0 time=0
note_off channel=4 note=60 velocity=0 time=4
note_off channel=4 note=64 velocity=0 time=0
note_off channel=5 note=69 velocity=0 time=4
note_off channel=4 note=57 velocity=0 time=8
note_off channel=1 note=33 velocity=0 time=16
note_on channel=9 note=36 velocity=113 time=80
note_on channel=5 note=64 velocity=85 time=0
note_on channel=5 note=57 velocity=101 time=0
note_on channel=5 note=69 velocity=103 time=0
note_on channel=5 note=72 velocity=105 time=0
note_on channel=5 note=76 velocity=99 time=0
note_off channel=9 note=36 velocity=0 time=4
note_on channel=4 note=52 velocity=85 time=0
note_on channel=4 note=45 velocity=101 time=4
note_on channel=4 note=57 velocity=103 time=0
note_on channel=4 note=60 velocity=105 time=0
note_on channel=4 note=64 velocity=99 time=0
MetaMessage('lyrics', text='\r', time=0)
MetaMessage('lyrics', text='And', time=4)
note_on channel=0 note=81 velocity=107 time=0
note_on channel=9 note=42 velocity=105 time=0
note_on channel=1 note=33 velocity=119 time=0
note_off channel=9 note=42 velocity=0 time=4
note_off channel=5 note=76 velocity=0 time=108
note_off channel=0 note=81 velocity=0 time=4
note_off channel=4 note=64 velocity=0 time=0
note_off channel=5 note=57 velocity=0 time=0
note_off channel=5 note=72 velocity=0 time=0
note_off channel=4 note=45 velocity=0 time=4
note_off channel=4 note=60 velocity=0 time=0
note_off channel=5 note=64 velocity=0 time=4
note_off channel=5 note=69 velocity=0 time=0
note_off channel=4 note=52 velocity=0 time=8
note_off channel=4 note=57 velocity=0 time=0
note_off channel=1 note=33 velocity=0 time=16
note_on channel=9 note=40 velocity=115 time=32
note_off channel=9 note=40 velocity=0 time=4
MetaMessage('lyrics', text=' if', time=8)
note_on channel=0 note=81 velocity=109 time=0
note_on channel=9 note=42 velocity=109 time=0
note_on channel=7 note=52 velocity=90 time=0
note_off channel=9 note=42 velocity=0 time=4
note_on channel=7 note=53 velocity=85 time=0
note_on channel=7 note=50 velocity=89 time=0
note_off channel=7 note=53 velocity=0 time=8
note_off channel=7 note=50 velocity=0 time=0
note_off channel=7 note=52 velocity=0 time=8
note_on channel=7 note=50 velocity=85 time=76
note_off channel=0 note=81 velocity=0 time=4
note_on channel=7 note=48 velocity=74 time=0
note_on channel=7 note=47 velocity=61 time=0
note_off channel=7 note=48 velocity=0 time=4
note_off channel=7 note=47 velocity=0 time=0
note_off channel=7 note=50 velocity=0 time=12
note_on channel=7 note=52 velocity=93 time=72
MetaMessage('lyrics', text=' you', time=4)
note_on channel=0 note=81 velocity=111 time=0
note_on channel=9 note=42 velocity=97 time=0
note_on channel=7 note=53 velocity=86 time=0
note_on channel=7 note=55 velocity=78 time=0
note_off channel=9 note=42 velocity=0 time=4
note_off channel=7 note=55 velocity=0 time=8
note_off channel=7 note=53 velocity=0 time=4
note_off channel=7 note=52 velocity=0 time=4
note_off channel=0 note=81 velocity=0 time=52
note_on channel=7 note=50 velocity=93 time=24
note_on channel=7 note=48 velocity=80 time=0
note_on channel=7 note=47 velocity=68 time=0
note_off channel=7 note=48 velocity=0 time=4
note_off channel=7 note=47 velocity=0 time=0
note_off channel=7 note=50 velocity=0 time=8
note_on channel=5 note=55 velocity=99 time=72
note_on channel=5 note=62 velocity=90 time=0
note_on channel=5 note=67 velocity=97 time=0
note_on channel=5 note=71 velocity=101 time=0
note_on channel=5 note=74 velocity=103 time=4
note_on channel=9 note=36 velocity=117 time=4
note_on channel=1 note=31 velocity=115 time=0
note_on channel=4 note=43 velocity=99 time=0
note_on channel=4 note=50 velocity=90 time=0
note_on channel=4 note=55 velocity=97 time=0
note_on channel=4 note=59 velocity=101 time=0
MetaMessage('lyrics', text=' lis', time=4)
note_on channel=0 note=84 velocity=107 time=0
note_off channel=9 note=36 velocity=0 time=0
note_on channel=4 note=62 velocity=103 time=0
note_on channel=9 note=42 velocity=117 time=0
note_off channel=9 note=42 velocity=0 time=4
note_off channel=5 note=71 velocity=0 time=48
note_off channel=5 note=74 velocity=0 time=4
note_off channel=4 note=59 velocity=0 time=4
note_off channel=4 note=62 velocity=0 time=4
note_off channel=5 note=67 velocity=0 time=4
note_off channel=0 note=84 velocity=0 time=8
note_off channel=1 note=31 velocity=0 time=0
note_off channel=4 note=55 velocity=0 time=0
note_off channel=5 note=55 velocity=0 time=4
note_off channel=5 note=62 velocity=0 time=0
note_off channel=4 note=43 velocity=0 time=4
note_off channel=4 note=50 velocity=0 time=0
MetaMessage('lyrics', text='ten', time=12)
note_on channel=0 note=83 velocity=101 time=0
note_on channel=9 note=36 velocity=117 time=80
note_off channel=9 note=36 velocity=0 time=4
note_on channel=5 note=67 velocity=93 time=0
note_on channel=5 note=62 velocity=82 time=0
note_on channel=5 note=55 velocity=97 time=0
note_on channel=5 note=71 velocity=97 time=0
note_on channel=5 note=74 velocity=105 time=0
note_on channel=1 note=31 velocity=117 time=8
note_on channel=4 note=55 velocity=93 time=0
note_on channel=4 note=50 velocity=82 time=0
note_on channel=4 note=43 velocity=97 time=0
note_on channel=4 note=59 velocity=97 time=0
note_on channel=4 note=62 velocity=105 time=0
note_on channel=9 note=42 velocity=95 time=4
note_off channel=9 note=42 velocity=0 time=4
note_off channel=5 note=74 velocity=0 time=96
note_off channel=4 note=62 velocity=0 time=8
note_off channel=5 note=71 velocity=0 time=0
note_off channel=4 note=59 velocity=0 time=8
note_off channel=5 note=62 velocity=0 time=0
note_off channel=5 note=55 velocity=0 time=0
note_off channel=4 note=50 velocity=0 time=4
note_off channel=5 note=67 velocity=0 time=0
note_off channel=4 note=43 velocity=0 time=4
note_off channel=4 note=55 velocity=0 time=4
note_off channel=0 note=83 velocity=0 time=20
note_off channel=1 note=31 velocity=0 time=8
note_on channel=9 note=40 velocity=115 time=24
note_off channel=9 note=40 velocity=0 time=0
note_on channel=9 note=42 velocity=90 time=12
MetaMessage('lyrics', text=' ve', time=4)
note_on channel=0 note=81 velocity=109 time=0
note_off channel=9 note=42 velocity=0 time=0
note_on channel=7 note=53 velocity=82 time=0
note_on channel=7 note=52 velocity=85 time=0
note_on channel=7 note=55 velocity=71 time=0
note_off channel=7 note=55 velocity=0 time=16
note_off channel=7 note=52 velocity=0 time=4
note_off channel=7 note=53 velocity=0 time=8
note_off channel=0 note=81 velocity=0 time=36
MetaMessage('lyrics', text='ry', time=28)
note_on channel=0 note=83 velocity=103 time=0
note_on channel=7 note=50 velocity=82 time=4
note_on channel=7 note=48 velocity=67 time=0
note_off channel=7 note=48 velocity=0 time=4
note_off channel=7 note=50 velocity=0 time=12
note_off channel=0 note=83 velocity=0 time=76
note_on channel=7 note=53 velocity=71 time=0
note_on channel=7 note=52 velocity=74 time=0
note_on channel=7 note=55 velocity=62 time=0
note_on channel=9 note=42 velocity=80 time=4
note_off channel=9 note=42 velocity=0 time=4
note_off channel=7 note=55 velocity=0 time=8
note_off channel=7 note=52 velocity=0 time=4
note_off channel=7 note=53 velocity=0 time=4
MetaMessage('lyrics', text=' ha', time=72)
note_on channel=0 note=83 velocity=111 time=0
note_on channel=1 note=28 velocity=105 time=0
note_on channel=7 note=50 velocity=93 time=0
note_on channel=7 note=48 velocity=85 time=0
note_on channel=7 note=47 velocity=71 time=0
note_off channel=7 note=47 velocity=0 time=8
note_off channel=7 note=48 velocity=0 time=4
note_off channel=7 note=50 velocity=0 time=8
note_on channel=5 note=65 velocity=81 time=68
note_on channel=5 note=53 velocity=95 time=0
note_on channel=5 note=72 velocity=97 time=0
note_on channel=5 note=69 velocity=93 time=4
note_on channel=9 note=36 velocity=116 time=4
note_on channel=4 note=53 velocity=81 time=0
note_on channel=5 note=60 velocity=85 time=0
note_on channel=4 note=41 velocity=95 time=0
note_on channel=4 note=60 velocity=97 time=0
note_on channel=4 note=57 velocity=93 time=0
note_on channel=4 note=48 velocity=85 time=0
note_off channel=9 note=36 velocity=0 time=4
note_on channel=9 note=42 velocity=117 time=0
note_off channel=9 note=42 velocity=0 time=0
note_on channel=1 note=29 velocity=115 time=4
note_off channel=1 note=28 velocity=0 time=40
note_off channel=1 note=29 velocity=0 time=48
note_off channel=4 note=57 velocity=0 time=12
note_off channel=5 note=69 velocity=0 time=0
note_off channel=4 note=48 velocity=0 time=4
note_off channel=4 note=60 velocity=0 time=4
note_off channel=5 note=60 velocity=0 time=0
note_off channel=5 note=72 velocity=0 time=0
note_off channel=4 note=53 velocity=0 time=16
note_off channel=5 note=65 velocity=0 time=0
note_off channel=4 note=41 velocity=0 time=4
note_off channel=5 note=53 velocity=0 time=0
note_on channel=9 note=40 velocity=110 time=40
note_off channel=0 note=83 velocity=0 time=4
note_off channel=9 note=40 velocity=0 time=0
MetaMessage('lyrics', text='rd', time=8)
note_on channel=0 note=81 velocity=111 time=0
note_on channel=9 note=42 velocity=101 time=4
note_on channel=1 note=29 velocity=109 time=0
note_off channel=9 note=42 velocity=0 time=4
note_on channel=7 note=53 velocity=85 time=0
note_on channel=7 note=55 velocity=83 time=0
note_on channel=7 note=52 velocity=81 time=0
note_off channel=7 note=52 velocity=0 time=8
note_off channel=7 note=55 velocity=0 time=8
note_off channel=7 note=53 velocity=0 time=4
note_off channel=1 note=29 velocity=0 time=16
note_on channel=9 note=36 velocity=108 time=44
note_on channel=4 note=41 velocity=95 time=0
note_on channel=5 note=53 velocity=95 time=0
note_off channel=9 note=36 velocity=0 time=0
note_on channel=4 note=48 velocity=90 time=4
note_on channel=5 note=60 velocity=90 time=0
note_on channel=4 note=53 velocity=93 time=0
note_on channel=5 note=65 velocity=93 time=0
note_on channel=4 note=57 velocity=97 time=0
note_on channel=5 note=69 velocity=97 time=0
note_on channel=4 note=60 velocity=103 time=4
note_on channel=5 note=72 velocity=103 time=0
note_on channel=1 note=29 velocity=115 time=8
note_on channel=9 note=42 velocity=111 time=92
note_off channel=4 note=57 velocity=0 time=0
note_on channel=7 note=53 velocity=82 time=0
note_off channel=9 note=42 velocity=0 time=4
note_off channel=5 note=69 velocity=0 time=0
note_on channel=7 note=52 velocity=82 time=0
note_on channel=7 note=55 velocity=80 time=0
note_off channel=4 note=60 velocity=0 time=4
note_off channel=5 note=72 velocity=0 time=0
note_off channel=4 note=53 velocity=0 time=4
note_off channel=5 note=65 velocity=0 time=4
note_off channel=7 note=53 velocity=0 time=0
note_off channel=7 note=52 velocity=0 time=0
note_off channel=7 note=55 velocity=0 time=0
note_off channel=4 note=48 velocity=0 time=4
note_off channel=5 note=60 velocity=0 time=0
note_off channel=4 note=41 velocity=0 time=4
note_off channel=5 note=53 velocity=0 time=0
note_off channel=1 note=29 velocity=0 time=24
note_on channel=9 note=40 velocity=111 time=24
note_off channel=9 note=40 velocity=0 time=4
note_on channel=7 note=50 velocity=92 time=20
note_on channel=1 note=29 velocity=111 time=4
note_on channel=7 note=48 velocity=71 time=0
note_off channel=7 note=50 velocity=0 time=12
note_off channel=7 note=48 velocity=0 time=0
note_off channel=1 note=29 velocity=0 time=20
note_on channel=9 note=36 velocity=111 time=44
note_on channel=4 note=53 velocity=95 time=0
note_on channel=4 note=57 velocity=103 time=0
note_on channel=4 note=60 velocity=103 time=0
note_off channel=9 note=36 velocity=0 time=4
note_on channel=4 note=48 velocity=95 time=0
note_on channel=5 note=65 velocity=95 time=0
note_on channel=4 note=41 velocity=103 time=0
note_on channel=5 note=69 velocity=103 time=0
note_on channel=5 note=72 velocity=103 time=0
note_on channel=5 note=60 velocity=95 time=0
note_on channel=5 note=53 velocity=103 time=0
note_on channel=9 note=42 velocity=107 time=12
note_on channel=1 note=29 velocity=113 time=0
note_off channel=9 note=42 velocity=0 time=4
note_on channel=7 note=53 velocity=82 time=96
note_on channel=7 note=55 velocity=77 time=0
note_on channel=7 note=52 velocity=82 time=0
note_off channel=7 note=52 velocity=0 time=4
note_off channel=4 note=41 velocity=0 time=12
note_off channel=5 note=53 velocity=0 time=0
note_off channel=7 note=53 velocity=0 time=0
note_off channel=7 note=55 velocity=0 time=0
note_off channel=4 note=57 velocity=0 time=4
note_off channel=5 note=69 velocity=0 time=0
note_off channel=4 note=53 velocity=0 time=4
note_off channel=5 note=60 velocity=0 time=0
note_off channel=4 note=48 velocity=0 time=0
note_off channel=5 note=65 velocity=0 time=4
note_off channel=4 note=60 velocity=0 time=8
note_off channel=5 note=72 velocity=0 time=0
note_on channel=9 note=42 velocity=109 time=56
note_off channel=9 note=42 velocity=0 time=4
note_off channel=1 note=29 velocity=0 time=0
note_on channel=7 note=50 velocity=87 time=0
note_on channel=9 note=40 velocity=117 time=0
note_on channel=7 note=48 velocity=58 time=0
note_off channel=9 note=40 velocity=0 time=0
note_on channel=7 note=52 velocity=65 time=0
note_off channel=7 note=52 velocity=0 time=4
note_off channel=7 note=48 velocity=0 time=8
note_off channel=7 note=50 velocity=0 time=4
note_on channel=4 note=53 velocity=95 time=60
note_on channel=9 note=36 velocity=113 time=4
note_on channel=4 note=57 velocity=103 time=0
note_on channel=5 note=65 velocity=95 time=0
note_off channel=9 note=36 velocity=0 time=0
note_on channel=4 note=60 velocity=101 time=0
note_on channel=5 note=69 velocity=103 time=0
note_on channel=4 note=41 velocity=97 time=0
note_on channel=5 note=72 velocity=101 time=0
note_on channel=4 note=48 velocity=95 time=0
note_on channel=5 note=53 velocity=97 time=0
note_on channel=5 note=60 velocity=95 time=0
note_on channel=1 note=29 velocity=121 time=12
note_off channel=0 note=81 velocity=0 time=4
note_off channel=1 note=29 velocity=0 time=84
note_on channel=9 note=42 velocity=101 time=8
note_off channel=9 note=42 velocity=0 time=4
note_on channel=7 note=53 velocity=76 time=0
note_on channel=7 note=55 velocity=53 time=0
note_on channel=7 note=52 velocity=61 time=0
note_off channel=7 note=55 velocity=0 time=4
note_off channel=7 note=52 velocity=0 time=0
note_off channel=4 note=48 velocity=0 time=4
note_off channel=4 note=57 velocity=0 time=4
note_off channel=5 note=60 velocity=0 time=0
note_off channel=4 note=41 velocity=0 time=4
note_off channel=5 note=69 velocity=0 time=0
note_off channel=7 note=53 velocity=0 time=0
note_off channel=5 note=53 velocity=0 time=0
note_off channel=4 note=53 velocity=0 time=8
note_off channel=5 note=65 velocity=0 time=0
note_off channel=4 note=60 velocity=0 time=0
note_off channel=5 note=72 velocity=0 time=0
note_on channel=9 note=40 velocity=111 time=40
note_off channel=9 note=40 velocity=0 time=4
note_on channel=1 note=29 velocity=111 time=20
note_on channel=7 note=50 velocity=92 time=8
note_on channel=7 note=48 velocity=71 time=0
note_on channel=7 note=52 velocity=76 time=0
note_off channel=7 note=52 velocity=0 time=8
note_off channel=7 note=50 velocity=0 time=8
note_off channel=7 note=48 velocity=0 time=0
note_off channel=1 note=29 velocity=0 time=16
note_on channel=4 note=41 velocity=103 time=48
note_on channel=5 note=53 velocity=103 time=0
note_on channel=4 note=53 velocity=105 time=0
note_on channel=5 note=65 velocity=105 time=0
note_on channel=4 note=48 velocity=93 time=0
note_on channel=5 note=60 velocity=93 time=0
note_on channel=4 note=60 velocity=105 time=0
note_on channel=5 note=72 velocity=105 time=0
note_on channel=9 note=36 velocity=115 time=4
note_on channel=4 note=57 velocity=105 time=0
note_on channel=5 note=69 velocity=105 time=0
note_off channel=9 note=36 velocity=0 time=4
note_on channel=1 note=29 velocity=115 time=0
note_on channel=9 note=42 velocity=109 time=4
note_off channel=9 note=42 velocity=0 time=4
note_off channel=4 note=57 velocity=0 time=40
note_off channel=5 note=69 velocity=0 time=4
note_off channel=4 note=60 velocity=0 time=12
note_off channel=5 note=72 velocity=0 time=0
note_off channel=4 note=53 velocity=0 time=4
note_off channel=5 note=65 velocity=0 time=4
note_off channel=4 note=48 velocity=0 time=4
note_off channel=5 note=60 velocity=0 time=0
note_off channel=4 note=41 velocity=0 time=4
note_off channel=5 note=53 velocity=0 time=0
note_on channel=6 note=60 velocity=103 time=96
note_on channel=4 note=43 velocity=97 time=8
note_on channel=5 note=55 velocity=97 time=0
note_on channel=4 note=50 velocity=87 time=0
note_on channel=5 note=62 velocity=87 time=0
note_on channel=9 note=40 velocity=119 time=4
note_off channel=1 note=29 velocity=0 time=0
note_on channel=4 note=55 velocity=97 time=0
note_on channel=5 note=67 velocity=97 time=0
note_on channel=4 note=59 velocity=97 time=0
note_on channel=5 note=71 velocity=97 time=0
note_on channel=4 note=62 velocity=101 time=0
note_on channel=5 note=74 velocity=101 time=0
note_off channel=9 note=40 velocity=0 time=4
note_on channel=1 note=31 velocity=109 time=0
note_on channel=9 note=42 velocity=111 time=4
note_off channel=9 note=42 velocity=0 time=4
note_on channel=9 note=36 velocity=119 time=0
note_off channel=9 note=36 velocity=0 time=0
note_off channel=6 note=60 velocity=0 time=16
note_off channel=4 note=59 velocity=0 time=24
note_off channel=5 note=71 velocity=0 time=0
note_off channel=4 note=62 velocity=0 time=0
note_off channel=5 note=74 velocity=0 time=0
note_off channel=4 note=55 velocity=0 time=12
note_off channel=5 note=67 velocity=0 time=0
note_off channel=4 note=43 velocity=0 time=16
note_off channel=5 note=55 velocity=0 time=0
note_off channel=4 note=50 velocity=0 time=4
note_off channel=5 note=62 velocity=0 time=0
note_on channel=4 note=45 velocity=85 time=104
note_on channel=5 note=57 velocity=85 time=0
note_on channel=4 note=64 velocity=99 time=8
note_off channel=1 note=31 velocity=0 time=4
note_on channel=4 note=60 velocity=103 time=0
note_on channel=5 note=76 velocity=99 time=0
note_on channel=9 note=36 velocity=117 time=4
note_on channel=4 note=52 velocity=85 time=0
note_on channel=5 note=72 velocity=103 time=0
note_off channel=9 note=36 velocity=0 time=0
note_on channel=4 note=57 velocity=103 time=0
note_on channel=5 note=64 velocity=85 time=0
note_on channel=9 note=42 velocity=119 time=0
note_on channel=4 note=45 velocity=103 time=0
note_on channel=5 note=69 velocity=103 time=0
note_on channel=5 note=57 velocity=103 time=0
note_off channel=9 note=42 velocity=0 time=4
note_on channel=1 note=33 velocity=119 time=0
note_off channel=4 note=64 velocity=0 time=52
note_off channel=5 note=76 velocity=0 time=0
note_off channel=4 note=60 velocity=0 time=0
note_off channel=5 note=72 velocity=0 time=0
note_off channel=4 note=45 velocity=0 time=4
note_off channel=5 note=57 velocity=0 time=4
note_off channel=4 note=45 velocity=0 time=8
note_off channel=4 note=57 velocity=0 time=4
note_off channel=5 note=57 velocity=0 time=0
note_off channel=5 note=69 velocity=0 time=4
note_off channel=1 note=33 velocity=0 time=4
note_off channel=4 note=52 velocity=0 time=4
note_off channel=5 note=64 velocity=0 time=4
note_on channel=4 note=45 velocity=93 time=88
note_on channel=5 note=57 velocity=93 time=0
note_on channel=4 note=52 velocity=92 time=4
note_on channel=9 note=36 velocity=117 time=4
note_on channel=4 note=45 velocity=107 time=0
note_on channel=5 note=64 velocity=92 time=0
note_on channel=4 note=64 velocity=101 time=0
note_on channel=4 note=57 velocity=103 time=0
note_on channel=4 note=60 velocity=101 time=0
note_off channel=9 note=36 velocity=0 time=4
note_on channel=1 note=33 velocity=119 time=0
note_on channel=5 note=57 velocity=107 time=0
note_on channel=9 note=42 velocity=105 time=0
note_on channel=5 note=76 velocity=101 time=0
note_off channel=9 note=42 velocity=0 time=0
note_on channel=5 note=69 velocity=103 time=0
note_on channel=5 note=72 velocity=101 time=0
MetaMessage('lyrics', text='\r', time=0)
MetaMessage('lyrics', text='The', time=4)
note_on channel=0 note=81 velocity=109 time=0
note_off channel=4 note=45 velocity=0 time=96
note_off channel=5 note=57 velocity=0 time=0
note_off channel=0 note=81 velocity=0 time=40
note_off channel=1 note=33 velocity=0 time=20
note_on channel=9 note=40 velocity=119 time=28
note_on channel=7 note=52 velocity=90 time=0
MetaMessage('lyrics', text=' tune', time=4)
note_on channel=0 note=81 velocity=109 time=0
note_off channel=9 note=40 velocity=0 time=0
note_on channel=7 note=53 velocity=85 time=0
note_on channel=9 note=42 velocity=115 time=0
note_on channel=7 note=50 velocity=89 time=0
note_off channel=9 note=42 velocity=0 time=4
note_off channel=7 note=53 velocity=0 time=4
note_off channel=7 note=50 velocity=0 time=0
note_off channel=7 note=52 velocity=0 time=8
note_off channel=4 note=60 velocity=0 time=8
note_off channel=5 note=72 velocity=0 time=4
note_off channel=4 note=57 velocity=0 time=4
note_off channel=5 note=69 velocity=0 time=0
note_off channel=4 note=45 velocity=0 time=4
note_off channel=5 note=57 velocity=0 time=0
note_off channel=4 note=52 velocity=0 time=4
note_off channel=4 note=64 velocity=0 time=0
note_off channel=5 note=64 velocity=0 time=4
note_off channel=5 note=76 velocity=0 time=0
note_on channel=7 note=50 velocity=85 time=48
note_on channel=7 note=48 velocity=74 time=4
note_on channel=7 note=47 velocity=61 time=0
note_off channel=7 note=48 velocity=0 time=4
note_off channel=7 note=47 velocity=0 time=0
note_off channel=0 note=81 velocity=0 time=12
note_off channel=7 note=50 velocity=0 time=0
note_on channel=7 note=52 velocity=93 time=72
MetaMessage('lyrics', text=' will', time=4)
note_on channel=0 note=81 velocity=81 time=0
note_on channel=9 note=42 velocity=95 time=0
note_on channel=7 note=53 velocity=86 time=0
note_on channel=7 note=55 velocity=78 time=0
note_off channel=9 note=42 velocity=0 time=4
note_off channel=7 note=55 velocity=0 time=8
note_off channel=7 note=53 velocity=0 time=4
note_off channel=7 note=52 velocity=0 time=4
note_off channel=0 note=81 velocity=0 time=12
MetaMessage('lyrics', text=' come', time=64)
note_on channel=0 note=84 velocity=119 time=0
note_on channel=7 note=50 velocity=93 time=0
note_on channel=7 note=48 velocity=80 time=0
note_on channel=7 note=47 velocity=68 time=0
note_off channel=7 note=48 velocity=0 time=4
note_off channel=7 note=47 velocity=0 time=0
note_off channel=7 note=50 velocity=0 time=8
note_on channel=4 note=55 velocity=93 time=76
note_on channel=5 note=67 velocity=93 time=0
note_on channel=4 note=50 velocity=86 time=0
note_on channel=5 note=62 velocity=86 time=0
note_on channel=4 note=59 velocity=89 time=0
note_on channel=5 note=71 velocity=89 time=0
note_on channel=4 note=43 velocity=99 time=4
note_on channel=4 note=62 velocity=74 time=0
note_on channel=1 note=31 velocity=117 time=4
note_on channel=5 note=55 velocity=99 time=0
note_on channel=5 note=74 velocity=74 time=0
note_on channel=9 note=42 velocity=117 time=4
note_off channel=9 note=42 velocity=0 time=0
note_on channel=9 note=36 velocity=119 time=0
note_off channel=9 note=36 velocity=0 time=4
note_off channel=4 note=59 velocity=0 time=56
note_off channel=5 note=71 velocity=0 time=4
note_off channel=4 note=62 velocity=0 time=16
note_off channel=5 note=74 velocity=0 time=0
note_off channel=1 note=31 velocity=0 time=8
note_off channel=4 note=55 velocity=0 time=4
note_off channel=4 note=43 velocity=0 time=4
note_off channel=5 note=67 velocity=0 time=0
note_off channel=5 note=55 velocity=0 time=0
note_off channel=4 note=50 velocity=0 time=8
note_off channel=5 note=62 velocity=0 time=0
note_on channel=4 note=55 velocity=101 time=76
note_on channel=5 note=67 velocity=101 time=0
note_on channel=4 note=43 velocity=95 time=4
note_on channel=5 note=55 velocity=95 time=0
note_on channel=4 note=62 velocity=105 time=0
note_on channel=4 note=59 velocity=99 time=0
note_on channel=4 note=50 velocity=81 time=0
note_on channel=9 note=42 velocity=95 time=4
note_on channel=1 note=31 velocity=117 time=0
note_on channel=5 note=74 velocity=105 time=0
note_on channel=5 note=71 velocity=99 time=0
note_on channel=5 note=62 velocity=81 time=0
MetaMessage('lyrics', text=' to', time=4)
note_off channel=0 note=84 velocity=0 time=0
note_off channel=9 note=42 velocity=0 time=0
note_on channel=0 note=83 velocity=81 time=0
note_on channel=9 note=36 velocity=115 time=0
note_off channel=9 note=36 velocity=0 time=4
note_off channel=0 note=83 velocity=0 time=28
MetaMessage('lyrics', text=' you', time=60)
note_on channel=0 note=83 velocity=99 time=0
note_off channel=4 note=50 velocity=0 time=80
note_off channel=5 note=62 velocity=0 time=4
note_off channel=4 note=59 velocity=0 time=4
note_off channel=5 note=71 velocity=0 time=0
note_on channel=9 note=40 velocity=117 time=8
note_off channel=9 note=40 velocity=0 time=4
note_off channel=4 note=43 velocity=0 time=0
note_off channel=5 note=55 velocity=0 time=0
note_on channel=7 note=53 velocity=82 time=0
note_on channel=9 note=42 velocity=113 time=0
note_off channel=4 note=62 velocity=0 time=0
note_off channel=5 note=74 velocity=0 time=0
note_on channel=7 note=52 velocity=85 time=0
note_off channel=9 note=42 velocity=0 time=0
note_on channel=7 note=55 velocity=71 time=0
note_off channel=1 note=31 velocity=0 time=8
note_off channel=4 note=55 velocity=0 time=0
note_off channel=5 note=67 velocity=0 time=4
note_off channel=7 note=55 velocity=0 time=4
note_off channel=7 note=52 velocity=0 time=4
note_off channel=7 note=53 velocity=0 time=8
note_off channel=0 note=83 velocity=0 time=68
note_on channel=7 note=50 velocity=82 time=0
note_on channel=7 note=48 velocity=67 time=0
note_off channel=7 note=48 velocity=0 time=4
note_off channel=7 note=50 velocity=0 time=12
MetaMessage('lyrics', text=' at', time=76)
note_on channel=0 note=81 velocity=107 time=0
note_on channel=9 note=42 velocity=117 time=0
note_on channel=7 note=53 velocity=71 time=0
note_on channel=7 note=52 velocity=74 time=0
note_on channel=7 note=55 velocity=62 time=0
note_off channel=9 note=42 velocity=0 time=4
note_off channel=7 note=55 velocity=0 time=12
note_off channel=7 note=52 velocity=0 time=4
note_off channel=7 note=53 velocity=0 time=4
MetaMessage('lyrics', text=' la', time=72)
note_off channel=0 note=81 velocity=0 time=0
note_on channel=7 note=50 velocity=93 time=0
note_on channel=0 note=79 velocity=99 time=0
note_on channel=7 note=48 velocity=85 time=0
note_on channel=7 note=47 velocity=71 time=0
note_on channel=1 note=28 velocity=101 time=4
note_off channel=7 note=47 velocity=0 time=4
note_off channel=7 note=48 velocity=0 time=4
note_off channel=7 note=50 velocity=0 time=8
note_on channel=4 note=48 velocity=81 time=64
note_on channel=5 note=60 velocity=81 time=0
note_on channel=4 note=53 velocity=90 time=4
note_on channel=5 note=65 velocity=90 time=0
note_on channel=4 note=41 velocity=90 time=0
note_on channel=5 note=53 velocity=90 time=0
note_on channel=4 note=57 velocity=89 time=0
note_on channel=5 note=69 velocity=89 time=0
note_on channel=4 note=60 velocity=93 time=0
note_on channel=5 note=72 velocity=93 time=0
note_off channel=0 note=79 velocity=0 time=4
MetaMessage('lyrics', text='st', time=4)
note_on channel=0 note=81 velocity=119 time=0
note_on channel=9 note=40 velocity=119 time=0
note_off channel=9 note=40 velocity=0 time=4
note_on channel=1 note=29 velocity=113 time=4
note_off channel=1 note=28 velocity=0 time=28
note_off channel=1 note=29 velocity=0 time=60
note_off channel=4 note=57 velocity=0 time=60
note_off channel=5 note=69 velocity=0 time=4
note_off channel=4 note=60 velocity=0 time=8
note_off channel=5 note=72 velocity=0 time=0
note_off channel=4 note=41 velocity=0 time=4
note_off channel=5 note=53 velocity=0 time=4
note_off channel=4 note=53 velocity=0 time=4
note_off channel=5 note=65 velocity=0 time=0
note_off channel=4 note=48 velocity=0 time=8
note_off channel=5 note=60 velocity=0 time=0
note_on channel=9 note=36 velocity=99 time=4
note_on channel=1 note=29 velocity=107 time=0
note_off channel=9 note=36 velocity=0 time=4
note_on channel=7 note=53 velocity=85 time=0
note_on channel=7 note=55 velocity=83 time=0
note_on channel=7 note=52 velocity=81 time=0
note_off channel=7 note=52 velocity=0 time=8
note_off channel=7 note=55 velocity=0 time=8
note_off channel=7 note=53 velocity=0 time=4
note_off channel=1 note=29 velocity=0 time=36
note_on channel=4 note=53 velocity=93 time=28
note_on channel=5 note=65 velocity=93 time=0
note_on channel=4 note=60 velocity=99 time=0
note_on channel=5 note=72 velocity=99 time=0
note_on channel=4 note=41 velocity=97 time=4
note_on channel=5 note=53 velocity=97 time=0
note_on channel=4 note=48 velocity=86 time=0
note_on channel=5 note=60 velocity=86 time=0
note_on channel=4 note=57 velocity=89 time=0
note_on channel=5 note=69 velocity=89 time=4
note_on channel=9 note=40 velocity=117 time=4
note_on channel=1 note=29 velocity=113 time=0
note_off channel=9 note=40 velocity=0 time=0
note_on channel=7 note=53 velocity=82 time=92
note_on channel=7 note=52 velocity=82 time=4
note_on channel=7 note=55 velocity=80 time=0
note_off channel=7 note=53 velocity=0 time=12
note_off channel=7 note=52 velocity=0 time=0
note_off channel=7 note=55 velocity=0 time=0
note_off channel=1 note=29 velocity=0 time=24
note_off channel=4 note=57 velocity=0 time=40
note_off channel=5 note=69 velocity=0 time=4
note_off channel=4 note=53 velocity=0 time=4
note_off channel=5 note=65 velocity=0 time=0
note_off channel=4 note=60 velocity=0 time=4
note_off channel=4 note=41 velocity=0 time=0
note_off channel=4 note=48 velocity=0 time=0
note_off channel=5 note=72 velocity=0 time=4
note_on channel=7 note=50 velocity=92 time=0
note_off channel=5 note=53 velocity=0 time=0
note_off channel=5 note=60 velocity=0 time=0
note_on channel=9 note=36 velocity=107 time=4
note_on channel=1 note=29 velocity=105 time=0
note_on channel=7 note=48 velocity=71 time=0
note_off channel=9 note=36 velocity=0 time=4
note_off channel=7 note=50 velocity=0 time=8
note_off channel=7 note=48 velocity=0 time=0
note_off channel=1 note=29 velocity=0 time=48
note_off channel=0 note=81 velocity=0 time=20
note_on channel=4 note=60 velocity=93 time=8
note_on channel=4 note=53 velocity=87 time=0
note_on channel=4 note=41 velocity=87 time=0
note_on channel=4 note=48 velocity=78 time=0
note_on channel=4 note=57 velocity=78 time=4
note_on channel=5 note=72 velocity=93 time=0
note_on channel=5 note=65 velocity=87 time=0
note_on channel=5 note=53 velocity=87 time=0
note_on channel=5 note=60 velocity=78 time=0
note_on channel=9 note=40 velocity=117 time=4
note_on channel=5 note=69 velocity=78 time=0
note_off channel=9 note=40 velocity=0 time=4
note_on channel=1 note=29 velocity=111 time=0
note_on channel=7 note=53 velocity=82 time=92
note_on channel=7 note=55 velocity=77 time=0
note_on channel=7 note=52 velocity=82 time=0
note_off channel=7 note=52 velocity=0 time=4
note_off channel=7 note=53 velocity=0 time=12
note_off channel=7 note=55 velocity=0 time=0
note_off channel=1 note=29 velocity=0 time=48
note_off channel=4 note=57 velocity=0 time=4
note_off channel=5 note=69 velocity=0 time=0
note_off channel=4 note=53 velocity=0 time=8
note_off channel=4 note=48 velocity=0 time=4
note_off channel=5 note=65 velocity=0 time=0
note_off channel=5 note=60 velocity=0 time=0
note_off channel=4 note=60 velocity=0 time=4
note_off channel=5 note=72 velocity=0 time=0
note_off channel=4 note=41 velocity=0 time=0
note_off channel=5 note=53 velocity=0 time=0
note_on channel=9 note=36 velocity=113 time=8
note_off channel=9 note=36 velocity=0 time=4
note_on channel=7 note=50 velocity=87 time=0
note_on channel=7 note=48 velocity=58 time=0
note_on channel=7 note=52 velocity=65 time=0
note_off channel=7 note=52 velocity=0 time=4
note_off channel=7 note=48 velocity=0 time=8
note_off channel=7 note=50 velocity=0 time=4
note_on channel=4 note=53 velocity=105 time=72
note_on channel=4 note=60 velocity=99 time=0
note_on channel=4 note=57 velocity=101 time=0
note_on channel=9 note=40 velocity=115 time=4
note_on channel=4 note=48 velocity=93 time=0
note_on channel=5 note=65 velocity=105 time=0
note_on channel=4 note=41 velocity=90 time=0
note_on channel=5 note=72 velocity=99 time=0
note_on channel=5 note=69 velocity=101 time=0
note_off channel=9 note=40 velocity=0 time=4
note_on channel=1 note=29 velocity=117 time=0
note_on channel=5 note=60 velocity=93 time=0
note_on channel=5 note=53 velocity=90 time=0
note_off channel=1 note=29 velocity=0 time=68
note_on channel=7 note=53 velocity=76 time=28
note_on channel=7 note=55 velocity=53 time=0
note_on channel=7 note=52 velocity=61 time=0
note_off channel=7 note=55 velocity=0 time=4
note_off channel=7 note=52 velocity=0 time=0
note_off channel=7 note=53 velocity=0 time=12
note_off channel=4 note=57 velocity=0 time=56
note_off channel=5 note=69 velocity=0 time=0
note_off channel=4 note=41 velocity=0 time=0
note_off channel=4 note=53 velocity=0 time=4
note_off channel=5 note=53 velocity=0 time=0
note_off channel=4 note=48 velocity=0 time=4
note_off channel=5 note=65 velocity=0 time=0
note_off channel=5 note=60 velocity=0 time=0
note_off channel=4 note=60 velocity=0 time=8
note_off channel=5 note=72 velocity=0 time=0
note_on channel=9 note=36 velocity=101 time=4
note_on channel=1 note=29 velocity=113 time=0
note_off channel=9 note=36 velocity=0 time=4
note_on channel=7 note=50 velocity=92 time=0
note_on channel=7 note=48 velocity=71 time=0
note_on channel=7 note=52 velocity=76 time=0
note_off channel=7 note=52 velocity=0 time=8
note_off channel=7 note=50 velocity=0 time=8
note_off channel=7 note=48 velocity=0 time=0
note_off channel=1 note=29 velocity=0 time=28
note_on channel=4 note=41 velocity=90 time=44
note_on channel=4 note=48 velocity=83 time=0
note_on channel=1 note=29 velocity=109 time=4
note_on channel=4 note=53 velocity=95 time=0
note_on channel=5 note=53 velocity=90 time=0
note_on channel=4 note=57 velocity=93 time=0
note_on channel=5 note=60 velocity=83 time=0
note_on channel=4 note=60 velocity=95 time=0
note_on channel=9 note=40 velocity=111 time=4
note_on channel=5 note=65 velocity=95 time=0
note_off channel=9 note=40 velocity=0 time=0
note_on channel=5 note=69 velocity=93 time=0
note_on channel=5 note=72 velocity=95 time=0
note_off channel=4 note=60 velocity=0 time=56
note_off channel=4 note=57 velocity=0 time=4
note_off channel=5 note=72 velocity=0 time=0
note_off channel=5 note=69 velocity=0 time=4
note_off channel=4 note=53 velocity=0 time=4
note_off channel=5 note=65 velocity=0 time=0
note_off channel=4 note=41 velocity=0 time=16
note_off channel=5 note=53 velocity=0 time=0
note_off channel=4 note=48 velocity=0 time=4
note_off channel=5 note=60 velocity=0 time=4
note_on channel=9 note=40 velocity=113 time=4
note_off channel=9 note=40 velocity=0 time=0
note_on channel=6 note=60 velocity=97 time=36
note_off channel=6 note=60 velocity=0 time=28
note_on channel=4 note=55 velocity=70 time=20
note_on channel=5 note=67 velocity=70 time=0
note_on channel=4 note=59 velocity=85 time=4
note_on channel=5 note=71 velocity=85 time=0
note_on channel=4 note=62 velocity=80 time=0
note_on channel=4 note=43 velocity=92 time=0
note_on channel=4 note=50 velocity=83 time=0
note_on channel=1 note=31 velocity=115 time=4
note_on channel=5 note=74 velocity=80 time=0
note_on channel=5 note=55 velocity=92 time=0
note_on channel=5 note=62 velocity=83 time=0
note_on channel=9 note=40 velocity=119 time=4
note_off channel=1 note=29 velocity=0 time=0
note_off channel=9 note=40 velocity=0 time=4
note_off channel=4 note=62 velocity=0 time=68
note_off channel=5 note=74 velocity=0 time=0
note_off channel=4 note=43 velocity=0 time=0
note_off channel=4 note=55 velocity=0 time=4
note_off channel=5 note=55 velocity=0 time=0
note_off channel=4 note=59 velocity=0 time=0
note_off channel=4 note=50 velocity=0 time=4
note_off channel=5 note=67 velocity=0 time=0
note_off channel=5 note=71 velocity=0 time=0
note_off channel=5 note=62 velocity=0 time=0
note_on channel=9 note=40 velocity=117 time=12
note_off channel=9 note=40 velocity=0 time=4
note_on channel=4 note=57 velocity=89 time=84
note_on channel=5 note=69 velocity=89 time=0
note_on channel=4 note=64 velocity=95 time=0
note_on channel=5 note=76 velocity=95 time=0
note_on channel=4 note=60 velocity=90 time=0
note_on channel=5 note=72 velocity=90 time=0
note_on channel=4 note=45 velocity=92 time=4
note_on channel=5 note=57 velocity=92 time=0
note_on channel=4 note=52 velocity=85 time=0
note_on channel=5 note=64 velocity=85 time=4
note_on channel=9 note=36 velocity=90 time=4
note_off channel=9 note=36 velocity=0 time=0
note_on channel=9 note=49 velocity=121 time=0
note_off channel=9 note=49 velocity=0 time=0
note_on channel=1 note=33 velocity=117 time=4
note_off channel=1 note=31 velocity=0 time=20
note_off channel=4 note=60 velocity=0 time=48
note_off channel=1 note=33 velocity=0 time=4
note_off channel=5 note=72 velocity=0 time=0
note_off channel=4 note=45 velocity=0 time=4
note_off channel=5 note=57 velocity=0 time=0
note_off channel=4 note=52 velocity=0 time=0
note_off channel=5 note=64 velocity=0 time=0
note_off channel=4 note=64 velocity=0 time=4
note_off channel=5 note=76 velocity=0 time=0
note_off channel=4 note=57 velocity=0 time=4
note_off channel=5 note=69 velocity=0 time=4
note_on channel=4 note=52 velocity=81 time=88
note_on channel=5 note=64 velocity=81 time=0
note_on channel=4 note=45 velocity=95 time=0
note_on channel=5 note=57 velocity=95 time=0
note_on channel=4 note=64 velocity=97 time=4
note_on channel=4 note=57 velocity=93 time=0
note_on channel=4 note=60 velocity=90 time=0
note_on channel=9 note=36 velocity=107 time=4
note_on channel=5 note=76 velocity=97 time=0
note_on channel=9 note=49 velocity=117 time=0
note_on channel=5 note=69 velocity=93 time=0
note_on channel=5 note=72 velocity=90 time=0
MetaMessage('lyrics', text='\r', time=0)
MetaMessage('lyrics', text='When', time=4)
note_on channel=0 note=81 velocity=113 time=0
note_off channel=9 note=36 velocity=0 time=0
note_off channel=9 note=49 velocity=0 time=0
note_on channel=1 note=33 velocity=117 time=4
note_off channel=0 note=81 velocity=0 time=124
note_off channel=1 note=33 velocity=0 time=12
note_off channel=4 note=60 velocity=0 time=20
note_off channel=5 note=72 velocity=0 time=0
note_off channel=4 note=45 velocity=0 time=8
note_off channel=4 note=57 velocity=0 time=4
note_off channel=5 note=57 velocity=0 time=0
note_off channel=4 note=52 velocity=0 time=4
note_off channel=5 note=64 velocity=0 time=0
note_off channel=4 note=64 velocity=0 time=0
note_off channel=5 note=76 velocity=0 time=0
note_off channel=5 note=69 velocity=0 time=0
note_on channel=9 note=40 velocity=72 time=8
note_off channel=9 note=40 velocity=0 time=4
MetaMessage('lyrics', text=' all', time=4)
note_on channel=0 note=81 velocity=105 time=0
note_off channel=0 note=81 velocity=0 time=40
note_on channel=9 note=40 velocity=115 time=48
note_off channel=9 note=40 velocity=0 time=4
MetaMessage('lyrics', text=' are', time=4)
note_on channel=0 note=81 velocity=107 time=0
note_off channel=0 note=81 velocity=0 time=72
note_on channel=9 note=40 velocity=117 time=16
note_off channel=9 note=40 velocity=0 time=4
MetaMessage('lyrics', text=' one', time=92)
note_on channel=0 note=88 velocity=119 time=0
note_on channel=9 note=40 velocity=113 time=0
note_on channel=1 note=29 velocity=107 time=0
note_off channel=9 note=40 velocity=0 time=4
note_off channel=1 note=29 velocity=0 time=68
note_on channel=4 note=50 velocity=85 time=16
note_on channel=5 note=62 velocity=85 time=0
note_on channel=4 note=43 velocity=93 time=4
note_on channel=5 note=55 velocity=93 time=0
note_on channel=4 note=55 velocity=97 time=0
note_on channel=5 note=67 velocity=97 time=0
note_on channel=4 note=62 velocity=99 time=0
note_on channel=5 note=74 velocity=99 time=0
note_on channel=4 note=59 velocity=95 time=0
note_on channel=5 note=71 velocity=95 time=0
note_on channel=9 note=36 velocity=97 time=8
note_on channel=1 note=31 velocity=121 time=0
note_off channel=9 note=36 velocity=0 time=4
note_off channel=4 note=59 velocity=0 time=48
note_off channel=5 note=71 velocity=0 time=0
note_off channel=4 note=62 velocity=0 time=12
note_off channel=4 note=55 velocity=0 time=4
note_off channel=5 note=67 velocity=0 time=0
note_off channel=5 note=74 velocity=0 time=0
note_off channel=4 note=43 velocity=0 time=8
note_off channel=5 note=55 velocity=0 time=4
note_off channel=4 note=50 velocity=0 time=4
note_off channel=5 note=62 velocity=0 time=0
note_off channel=1 note=31 velocity=0 time=8
note_on channel=4 note=50 velocity=90 time=88
note_on channel=5 note=62 velocity=90 time=0
note_on channel=4 note=43 velocity=95 time=0
note_on channel=5 note=55 velocity=95 time=0
note_on channel=4 note=55 velocity=97 time=0
note_on channel=5 note=67 velocity=97 time=0
note_on channel=4 note=62 velocity=101 time=0
note_on channel=5 note=74 velocity=101 time=0
note_on channel=4 note=59 velocity=90 time=4
note_on channel=5 note=71 velocity=90 time=0
note_on channel=1 note=31 velocity=119 time=4
note_off channel=0 note=88 velocity=0 time=4
note_on channel=9 note=36 velocity=109 time=0
note_on channel=9 note=49 velocity=113 time=0
MetaMessage('lyrics', text=' and', time=4)
note_on channel=0 note=86 velocity=109 time=0
note_off channel=9 note=36 velocity=0 time=0
note_off channel=9 note=49 velocity=0 time=0
note_off channel=4 note=59 velocity=0 time=72
note_off channel=4 note=62 velocity=0 time=4
note_off channel=5 note=71 velocity=0 time=0
note_off channel=5 note=74 velocity=0 time=4
note_off channel=4 note=55 velocity=0 time=4
note_off channel=5 note=67 velocity=0 time=0
note_off channel=4 note=43 velocity=0 time=20
note_off channel=5 note=55 velocity=0 time=0
note_off channel=4 note=50 velocity=0 time=8
note_off channel=5 note=62 velocity=0 time=0
MetaMessage('lyrics', text=' one', time=76)
note_off channel=0 note=86 velocity=0 time=0
note_on channel=9 note=40 velocity=117 time=0
note_on channel=0 note=84 velocity=92 time=0
note_off channel=9 note=40 velocity=0 time=4
note_off channel=1 note=31 velocity=0 time=8
note_off channel=0 note=84 velocity=0 time=80
MetaMessage('lyrics', text=' is', time=8)
note_on channel=0 note=86 velocity=111 time=0
note_on channel=4 note=41 velocity=99 time=80
note_on channel=5 note=53 velocity=99 time=0
note_on channel=4 note=48 velocity=89 time=0
note_on channel=5 note=60 velocity=89 time=0
note_on channel=4 note=57 velocity=105 time=4
note_on channel=5 note=69 velocity=105 time=0
note_on channel=4 note=64 velocity=101 time=0
note_on channel=5 note=76 velocity=101 time=0
note_on channel=4 note=60 velocity=99 time=4
note_on channel=5 note=72 velocity=99 time=0
note_on channel=9 note=36 velocity=109 time=4
note_on channel=1 note=29 velocity=115 time=0
note_on channel=9 note=49 velocity=107 time=0
note_off channel=0 note=86 velocity=0 time=4
note_off channel=9 note=36 velocity=0 time=0
note_off channel=9 note=49 velocity=0 time=0
MetaMessage('lyrics', text=' all', time=92)
note_on channel=0 note=88 velocity=109 time=0
note_off channel=1 note=29 velocity=0 time=188
MetaMessage('lyrics', text='.', time=100)
note_on channel=0 note=86 velocity=111 time=0
note_on channel=9 note=36 velocity=107 time=0
note_off channel=0 note=88 velocity=0 time=4
note_off channel=9 note=36 velocity=0 time=0
note_on channel=1 note=29 velocity=115 time=0
note_off channel=4 note=60 velocity=0 time=88
note_off channel=5 note=72 velocity=0 time=0
note_off channel=4 note=64 velocity=0 time=0
note_off channel=4 note=57 velocity=0 time=4
note_off channel=5 note=76 velocity=0 time=0
note_off channel=5 note=69 velocity=0 time=4
note_off channel=4 note=41 velocity=0 time=8
note_off channel=4 note=48 velocity=0 time=0
note_off channel=5 note=53 velocity=0 time=4
note_off channel=5 note=60 velocity=0 time=0
note_off channel=1 note=29 velocity=0 time=8
note_on channel=4 note=57 velocity=95 time=64
note_on channel=5 note=69 velocity=95 time=0
note_on channel=4 note=64 velocity=97 time=4
note_on channel=4 note=60 velocity=90 time=0
note_on channel=4 note=41 velocity=92 time=0
note_on channel=4 note=48 velocity=85 time=0
note_on channel=9 note=40 velocity=119 time=4
note_on channel=5 note=76 velocity=97 time=0
note_on channel=5 note=72 velocity=90 time=0
note_on channel=5 note=53 velocity=92 time=0
note_on channel=5 note=60 velocity=85 time=0
note_off channel=9 note=40 velocity=0 time=4
note_on channel=1 note=29 velocity=125 time=0
note_on channel=9 note=42 velocity=121 time=0
note_off channel=9 note=42 velocity=0 time=4
MetaMessage('lyrics', text='.', time=184)
note_on channel=0 note=84 velocity=87 time=0
note_off channel=0 note=86 velocity=0 time=20
note_off channel=1 note=29 velocity=0 time=4
MetaMessage('lyrics', text='.', time=68)
note_on channel=0 note=83 velocity=99 time=0
note_off channel=0 note=84 velocity=0 time=8
note_on channel=1 note=28 velocity=103 time=4
note_off channel=4 note=57 velocity=0 time=84
note_off channel=5 note=72 velocity=0 time=0
note_off channel=4 note=60 velocity=0 time=0
note_off channel=4 note=48 velocity=0 time=0
note_off channel=4 note=41 velocity=0 time=4
note_off channel=5 note=69 velocity=0 time=0
note_off channel=5 note=60 velocity=0 time=0
note_on channel=9 note=36 velocity=115 time=4
note_on channel=1 note=29 velocity=105 time=0
note_off channel=5 note=53 velocity=0 time=0
note_on channel=9 note=42 velocity=119 time=0
note_off channel=9 note=36 velocity=0 time=4
note_off channel=1 note=28 velocity=0 time=0
note_off channel=4 note=64 velocity=0 time=0
note_off channel=5 note=76 velocity=0 time=0
note_off channel=9 note=42 velocity=0 time=0
note_on channel=1 note=28 velocity=107 time=92
note_off channel=1 note=29 velocity=0 time=4
note_on channel=4 note=64 velocity=67 time=80
note_on channel=5 note=76 velocity=67 time=0
note_on channel=4 note=57 velocity=53 time=0
note_on channel=5 note=69 velocity=53 time=0
note_on channel=4 note=41 velocity=78 time=0
note_on channel=5 note=53 velocity=78 time=0
note_on channel=4 note=48 velocity=66 time=0
note_on channel=5 note=60 velocity=66 time=0
note_on channel=4 note=60 velocity=49 time=0
note_on channel=5 note=72 velocity=49 time=0
note_on channel=9 note=40 velocity=55 time=8
note_off channel=9 note=40 velocity=0 time=4
note_on channel=1 note=29 velocity=115 time=0
note_off channel=1 note=28 velocity=0 time=16
note_off channel=4 note=60 velocity=0 time=8
note_off channel=5 note=72 velocity=0 time=4
note_off channel=4 note=57 velocity=0 time=16
note_off channel=4 note=64 velocity=0 time=4
note_off channel=5 note=76 velocity=0 time=0
note_off channel=5 note=69 velocity=0 time=0
note_off channel=4 note=48 velocity=0 time=24
note_off channel=5 note=60 velocity=0 time=4
note_off channel=4 note=41 velocity=0 time=8
note_off channel=5 note=53 velocity=0 time=0
note_on channel=9 note=40 velocity=109 time=8
note_off channel=9 note=40 velocity=0 time=4
note_off channel=1 note=29 velocity=0 time=64
note_on channel=4 note=64 velocity=103 time=16
note_on channel=5 note=76 velocity=103 time=0
note_on channel=4 note=57 velocity=101 time=0
note_on channel=5 note=69 velocity=101 time=0
note_on channel=4 note=60 velocity=103 time=4
note_on channel=5 note=72 velocity=103 time=0
note_on channel=4 note=48 velocity=89 time=0
note_on channel=5 note=60 velocity=89 time=0
note_on channel=4 note=41 velocity=105 time=0
note_on channel=5 note=53 velocity=105 time=0
note_on channel=9 note=40 velocity=115 time=8
note_off channel=9 note=40 velocity=0 time=4
note_on channel=9 note=42 velocity=119 time=0
note_off channel=9 note=42 velocity=0 time=4
note_off channel=0 note=83 velocity=0 time=44
note_off channel=4 note=60 velocity=0 time=16
note_off channel=5 note=72 velocity=0 time=0
note_off channel=4 note=41 velocity=0 time=0
note_off channel=5 note=53 velocity=0 time=0
note_off channel=4 note=57 velocity=0 time=8
note_off channel=5 note=69 velocity=0 time=0
note_off channel=4 note=64 velocity=0 time=4
note_off channel=4 note=48 velocity=0 time=4
note_off channel=5 note=76 velocity=0 time=0
note_off channel=5 note=60 velocity=0 time=0
note_on channel=9 note=40 velocity=115 time=12
note_on channel=1 note=29 velocity=111 time=0
note_off channel=9 note=40 velocity=0 time=4
note_off channel=1 note=29 velocity=0 time=32
note_on channel=6 note=60 velocity=103 time=40
note_on channel=4 note=41 velocity=97 time=4
note_on channel=4 note=48 velocity=89 time=4
note_on channel=5 note=53 velocity=97 time=0
note_on channel=4 note=57 velocity=99 time=0
note_on channel=5 note=60 velocity=89 time=0
note_on channel=4 note=64 velocity=103 time=0
note_on channel=5 note=69 velocity=99 time=0
note_on channel=4 note=60 velocity=97 time=0
note_on channel=5 note=76 velocity=103 time=0
note_on channel=5 note=72 velocity=97 time=0
note_on channel=9 note=40 velocity=119 time=12
note_on channel=1 note=29 velocity=113 time=0
note_on channel=9 note=42 velocity=121 time=0
note_off channel=9 note=40 velocity=0 time=4
note_off channel=9 note=42 velocity=0 time=0
note_off channel=6 note=60 velocity=0 time=16
note_off channel=4 note=60 velocity=0 time=44
note_off channel=5 note=72 velocity=0 time=4
note_off channel=4 note=41 velocity=0 time=12
note_off channel=4 note=48 velocity=0 time=0
note_off channel=4 note=64 velocity=0 time=4
note_off channel=5 note=53 velocity=0 time=0
note_off channel=5 note=60 velocity=0 time=0
note_off channel=5 note=76 velocity=0 time=0
note_off channel=1 note=29 velocity=0 time=4
note_off channel=4 note=57 velocity=0 time=0
note_off channel=5 note=69 velocity=0 time=0
note_on channel=9 note=40 velocity=113 time=4
note_on channel=1 note=31 velocity=113 time=0
note_off channel=9 note=40 velocity=0 time=4
note_off channel=1 note=31 velocity=0 time=84
note_on channel=4 note=45 velocity=86 time=0
note_on channel=5 note=57 velocity=86 time=0
note_on channel=4 note=64 velocity=105 time=0
note_on channel=5 note=76 velocity=105 time=0
note_on channel=4 note=57 velocity=103 time=4
note_on channel=5 note=69 velocity=103 time=0
note_on channel=4 note=52 velocity=78 time=0
note_on channel=5 note=64 velocity=78 time=0
note_on channel=4 note=60 velocity=97 time=4
note_on channel=5 note=72 velocity=97 time=0
note_on channel=9 note=36 velocity=113 time=4
note_on channel=1 note=33 velocity=111 time=0
note_on channel=9 note=49 velocity=113 time=0
note_off channel=9 note=36 velocity=0 time=4
note_off channel=9 note=49 velocity=0 time=0
note_off channel=4 note=60 velocity=0 time=64
note_off channel=5 note=72 velocity=0 time=0
note_off channel=4 note=57 velocity=0 time=16
note_off channel=5 note=69 velocity=0 time=0
note_off channel=1 note=33 velocity=0 time=4
note_off channel=4 note=64 velocity=0 time=0
note_off channel=5 note=76 velocity=0 time=0
note_off channel=4 note=52 velocity=0 time=4
note_off channel=5 note=64 velocity=0 time=0
note_off channel=4 note=45 velocity=0 time=12
note_off channel=5 note=57 velocity=0 time=0
note_on channel=4 note=64 velocity=101 time=80
note_on channel=5 note=76 velocity=101 time=0
note_on channel=4 note=57 velocity=97 time=0
note_on channel=5 note=69 velocity=97 time=0
note_on channel=1 note=33 velocity=117 time=4
note_on channel=4 note=45 velocity=99 time=0
note_on channel=4 note=52 velocity=83 time=0
note_on channel=4 note=60 velocity=95 time=0
note_on channel=9 note=36 velocity=115 time=4
note_on channel=5 note=57 velocity=99 time=0
note_on channel=9 note=49 velocity=107 time=0
note_on channel=5 note=64 velocity=83 time=0
note_on channel=5 note=72 velocity=95 time=0
MetaMessage('lyrics', text='\r', time=0)
MetaMessage('lyrics', text='To', time=4)
note_on channel=0 note=81 velocity=52 time=0
note_off channel=9 note=36 velocity=0 time=0
note_off channel=9 note=49 velocity=0 time=0
note_off channel=0 note=81 velocity=0 time=64
note_off channel=4 note=60 velocity=0 time=44
note_off channel=5 note=72 velocity=0 time=4
note_off channel=4 note=64 velocity=0 time=12
note_off channel=4 note=45 velocity=0 time=0
note_off channel=4 note=57 velocity=0 time=4
note_off channel=5 note=76 velocity=0 time=0
note_off channel=5 note=69 velocity=0 time=0
note_off channel=5 note=57 velocity=0 time=0
note_off channel=4 note=52 velocity=0 time=4
note_off channel=5 note=64 velocity=0 time=0
MetaMessage('lyrics', text=' be', time=56)
note_on channel=0 note=81 velocity=111 time=0
note_on channel=9 note=40 velocity=99 time=0
note_off channel=9 note=40 velocity=0 time=4
note_off channel=1 note=33 velocity=0 time=0
note_on channel=9 note=40 velocity=117 time=92
note_off channel=9 note=40 velocity=0 time=4
note_off channel=0 note=81 velocity=0 time=24
MetaMessage('lyrics', text=' a', time=64)
note_on channel=0 note=81 velocity=109 time=0
note_on channel=9 note=40 velocity=115 time=0
note_off channel=9 note=40 velocity=0 time=4
note_off channel=0 note=81 velocity=0 time=40
MetaMessage('lyrics', text=' rock', time=52)
note_on channel=0 note=84 velocity=111 time=0
note_on channel=9 note=40 velocity=113 time=0
note_off channel=9 note=40 velocity=0 time=4
note_on channel=4 note=50 velocity=86 time=88
note_on channel=5 note=62 velocity=86 time=0
note_on channel=4 note=43 velocity=105 time=0
note_on channel=5 note=55 velocity=105 time=0
note_on channel=4 note=62 velocity=95 time=0
note_on channel=5 note=74 velocity=95 time=0
note_on channel=4 note=59 velocity=101 time=0
note_on channel=5 note=71 velocity=101 time=0
note_on channel=4 note=55 velocity=95 time=0
note_on channel=5 note=67 velocity=95 time=0
note_on channel=1 note=31 velocity=113 time=4
note_on channel=9 note=36 velocity=111 time=4
note_off channel=9 note=36 velocity=0 time=4
note_off channel=4 note=59 velocity=0 time=72
note_off channel=4 note=55 velocity=0 time=4
note_off channel=5 note=71 velocity=0 time=0
note_off channel=5 note=67 velocity=0 time=4
note_off channel=1 note=31 velocity=0 time=4
note_off channel=4 note=62 velocity=0 time=0
note_off channel=5 note=74 velocity=0 time=0
note_off channel=4 note=43 velocity=0 time=12
note_off channel=5 note=55 velocity=0 time=0
note_off channel=4 note=50 velocity=0 time=8
note_off channel=5 note=62 velocity=0 time=0
note_on channel=4 note=50 velocity=93 time=76
note_on channel=5 note=62 velocity=93 time=0
note_on channel=4 note=43 velocity=101 time=0
note_on channel=5 note=55 velocity=101 time=0
note_on channel=4 note=55 velocity=101 time=0
note_on channel=5 note=67 velocity=101 time=0
note_on channel=4 note=62 velocity=103 time=0
note_on channel=5 note=74 velocity=103 time=0
note_on channel=1 note=31 velocity=115 time=4
note_on channel=4 note=59 velocity=101 time=0
note_on channel=9 note=36 velocity=109 time=4
note_on channel=5 note=71 velocity=101 time=0
note_on channel=9 note=49 velocity=111 time=0
note_off channel=9 note=36 velocity=0 time=4
note_off channel=9 note=49 velocity=0 time=0
note_off channel=4 note=59 velocity=0 time=56
note_off channel=5 note=71 velocity=0 time=0
note_off channel=0 note=84 velocity=0 time=8
note_off channel=4 note=55 velocity=0 time=0
note_off channel=5 note=67 velocity=0 time=0
note_off channel=4 note=62 velocity=0 time=0
note_off channel=5 note=74 velocity=0 time=0
note_off channel=4 note=43 velocity=0 time=12
note_off channel=5 note=55 velocity=0 time=4
note_off channel=4 note=50 velocity=0 time=8
note_off channel=5 note=62 velocity=0 time=0
MetaMessage('lyrics', text=' and', time=4)
note_on channel=0 note=81 velocity=74 time=0
note_off channel=0 note=81 velocity=0 time=36
MetaMessage('lyrics', text=' not', time=60)
note_on channel=0 note=84 velocity=119 time=0
note_on channel=9 note=40 velocity=115 time=0
note_off channel=9 note=40 velocity=0 time=4
note_off channel=1 note=31 velocity=0 time=12
note_off channel=0 note=84 velocity=0 time=108
note_on channel=4 note=48 velocity=92 time=64
note_on channel=4 note=57 velocity=95 time=0
note_on channel=4 note=41 velocity=99 time=0
note_on channel=4 note=60 velocity=99 time=0
note_on channel=9 note=36 velocity=111 time=4
note_on channel=1 note=29 velocity=113 time=0
note_on channel=4 note=64 velocity=101 time=0
note_on channel=5 note=60 velocity=92 time=0
note_on channel=9 note=49 velocity=113 time=0
note_on channel=5 note=69 velocity=95 time=0
note_on channel=5 note=53 velocity=99 time=0
note_on channel=5 note=72 velocity=99 time=0
note_off channel=9 note=36 velocity=0 time=4
note_on channel=5 note=76 velocity=101 time=0
note_off channel=9 note=49 velocity=0 time=0
MetaMessage('lyrics', text=' to', time=4)
note_on channel=0 note=84 velocity=109 time=0
note_off channel=0 note=84 velocity=0 time=112
MetaMessage('lyrics', text=' roll', time=72)
note_on channel=0 note=84 velocity=106 time=0
note_off channel=4 note=64 velocity=0 time=80
note_off channel=5 note=76 velocity=0 time=4
note_off channel=4 note=60 velocity=0 time=8
note_off channel=4 note=57 velocity=0 time=4
note_off channel=5 note=72 velocity=0 time=0
note_off channel=5 note=69 velocity=0 time=4
note_off channel=1 note=29 velocity=0 time=4
note_off channel=4 note=41 velocity=0 time=4
note_off channel=4 note=48 velocity=0 time=4
note_off channel=5 note=53 velocity=0 time=0
note_off channel=5 note=60 velocity=0 time=4
note_on channel=4 note=57 velocity=72 time=68
note_on channel=5 note=69 velocity=72 time=0
note_on channel=4 note=60 velocity=72 time=4
note_on channel=5 note=72 velocity=72 time=0
note_on channel=4 note=64 velocity=71 time=0
note_on channel=5 note=76 velocity=71 time=0
note_on channel=4 note=48 velocity=64 time=0
note_on channel=4 note=41 velocity=75 time=0
note_on channel=9 note=36 velocity=109 time=4
note_on channel=1 note=28 velocity=101 time=0
note_on channel=5 note=60 velocity=64 time=0
note_on channel=9 note=42 velocity=103 time=0
note_on channel=5 note=53 velocity=75 time=0
note_off channel=9 note=36 velocity=0 time=4
note_off channel=9 note=42 velocity=0 time=0
note_off channel=4 note=60 velocity=0 time=96
note_off channel=5 note=72 velocity=0 time=0
note_off channel=4 note=41 velocity=0 time=4
note_off channel=5 note=53 velocity=0 time=0
note_off channel=4 note=64 velocity=0 time=4
note_off channel=4 note=57 velocity=0 time=4
note_off channel=5 note=76 velocity=0 time=0
note_off channel=5 note=69 velocity=0 time=4
note_off channel=4 note=48 velocity=0 time=4
note_off channel=5 note=60 velocity=0 time=0
note_off channel=1 note=28 velocity=0 time=44
note_on channel=4 note=57 velocity=87 time=24
note_on channel=4 note=64 velocity=89 time=0
note_on channel=4 note=41 velocity=85 time=0
note_on channel=9 note=40 velocity=119 time=4
note_on channel=1 note=29 velocity=115 time=0
note_on channel=4 note=48 velocity=72 time=0
note_on channel=5 note=69 velocity=87 time=0
note_on channel=9 note=42 velocity=113 time=0
note_on channel=4 note=60 velocity=87 time=0
note_on channel=5 note=76 velocity=89 time=0
note_on channel=5 note=53 velocity=85 time=0
note_off channel=9 note=40 velocity=0 time=4
note_on channel=5 note=60 velocity=72 time=0
note_off channel=9 note=42 velocity=0 time=0
note_on channel=5 note=72 velocity=87 time=0
note_off channel=4 note=60 velocity=0 time=100
note_off channel=5 note=72 velocity=0 time=0
note_off channel=4 note=48 velocity=0 time=4
note_off channel=4 note=41 velocity=0 time=4
note_off channel=5 note=60 velocity=0 time=0
note_off channel=4 note=64 velocity=0 time=4
note_off channel=5 note=76 velocity=0 time=0
note_off channel=5 note=53 velocity=0 time=0
note_off channel=4 note=57 velocity=0 time=4
note_off channel=5 note=69 velocity=0 time=0
note_on channel=4 note=57 velocity=93 time=64
note_on channel=5 note=69 velocity=93 time=0
note_on channel=4 note=64 velocity=95 time=4
note_on channel=5 note=76 velocity=95 time=0
note_on channel=4 note=60 velocity=97 time=0
note_on channel=4 note=41 velocity=87 time=0
note_on channel=4 note=48 velocity=76 time=0
note_on channel=9 note=42 velocity=86 time=4
note_on channel=5 note=72 velocity=97 time=0
note_on channel=5 note=53 velocity=87 time=0
note_on channel=5 note=60 velocity=76 time=0
note_off channel=9 note=42 velocity=0 time=4
note_off channel=1 note=29 velocity=0 time=32
note_on channel=9 note=36 velocity=92 time=64
note_on channel=1 note=33 velocity=95 time=0
note_off channel=4 note=60 velocity=0 time=0
note_off channel=5 note=72 velocity=0 time=0
note_off channel=9 note=36 velocity=0 time=0
note_off channel=4 note=57 velocity=0 time=8
note_off channel=5 note=69 velocity=0 time=0
note_off channel=4 note=64 velocity=0 time=0
note_off channel=5 note=76 velocity=0 time=0
note_off channel=4 note=48 velocity=0 time=0
note_off channel=5 note=60 velocity=0 time=0
note_off channel=4 note=41 velocity=0 time=4
note_off channel=5 note=53 velocity=0 time=4
note_on channel=4 note=60 velocity=78 time=68
note_on channel=5 note=72 velocity=78 time=0
note_on channel=4 note=57 velocity=73 time=0
note_on channel=5 note=69 velocity=73 time=0
note_on channel=4 note=64 velocity=78 time=0
note_on channel=5 note=76 velocity=78 time=0
note_on channel=4 note=48 velocity=70 time=4
note_on channel=5 note=60 velocity=70 time=0
note_on channel=4 note=41 velocity=82 time=0
note_on channel=9 note=42 velocity=107 time=4
note_on channel=5 note=53 velocity=82 time=0
note_off channel=9 note=42 velocity=0 time=4
note_on channel=1 note=36 velocity=101 time=0
note_on channel=9 note=36 velocity=113 time=0
note_off channel=9 note=36 velocity=0 time=0
note_off channel=1 note=33 velocity=0 time=16
note_off channel=1 note=36 velocity=0 time=80
note_off channel=4 note=60 velocity=0 time=0
note_off channel=5 note=72 velocity=0 time=0
note_on channel=1 note=41 velocity=107 time=0
note_off channel=4 note=64 velocity=0 time=4
note_off channel=5 note=76 velocity=0 time=0
note_off channel=4 note=57 velocity=0 time=4
note_off channel=5 note=69 velocity=0 time=0
note_off channel=4 note=41 velocity=0 time=4
note_off channel=5 note=53 velocity=0 time=4
note_off channel=4 note=48 velocity=0 time=4
note_off channel=5 note=60 velocity=0 time=0
note_on channel=4 note=57 velocity=52 time=64
note_on channel=5 note=69 velocity=52 time=0
note_on channel=4 note=60 velocity=56 time=0
note_on channel=5 note=72 velocity=56 time=0
note_on channel=4 note=64 velocity=52 time=0
note_on channel=5 note=76 velocity=52 time=0
note_on channel=4 note=41 velocity=56 time=4
note_on channel=4 note=48 velocity=51 time=0
note_on channel=5 note=53 velocity=56 time=4
note_on channel=5 note=60 velocity=51 time=0
note_on channel=9 note=43 velocity=115 time=4
note_off channel=1 note=41 velocity=0 time=0
note_on channel=9 note=45 velocity=62 time=0
note_on channel=9 note=42 velocity=103 time=0
note_off channel=9 note=43 velocity=0 time=4
note_on channel=1 note=38 velocity=93 time=0
note_off channel=9 note=45 velocity=0 time=0
note_off channel=9 note=42 velocity=0 time=0
note_off channel=4 note=60 velocity=0 time=4
note_off channel=5 note=72 velocity=0 time=0
note_off channel=4 note=64 velocity=0 time=0
note_off channel=5 note=76 velocity=0 time=0
note_off channel=4 note=48 velocity=0 time=4
note_off channel=4 note=57 velocity=0 time=4
note_off channel=5 note=69 velocity=0 time=0
note_off channel=5 note=60 velocity=0 time=0
note_off channel=4 note=41 velocity=0 time=4
note_off channel=5 note=53 velocity=0 time=0
note_on channel=4 note=41 velocity=74 time=64
note_on channel=5 note=53 velocity=74 time=0
note_on channel=4 note=57 velocity=83 time=0
note_on channel=5 note=69 velocity=83 time=0
note_on channel=4 note=48 velocity=70 time=4
note_on channel=5 note=60 velocity=70 time=0
note_on channel=4 note=64 velocity=83 time=0
note_on channel=5 note=76 velocity=83 time=0
note_on channel=4 note=60 velocity=87 time=0
note_on channel=5 note=72 velocity=87 time=4
note_on channel=1 note=36 velocity=85 time=4
note_off channel=1 note=38 velocity=0 time=4
note_off channel=4 note=60 velocity=0 time=0
note_off channel=5 note=72 velocity=0 time=0
note_off channel=4 note=48 velocity=0 time=68
note_off channel=4 note=41 velocity=0 time=4
note_off channel=5 note=60 velocity=0 time=0
note_off channel=4 note=64 velocity=0 time=4
note_off channel=5 note=53 velocity=0 time=0
note_off channel=5 note=76 velocity=0 time=0
note_on channel=4 note=48 velocity=89 time=4
note_on channel=5 note=60 velocity=89 time=0
note_on channel=4 note=41 velocity=99 time=0
note_on channel=5 note=53 velocity=99 time=0
note_on channel=4 note=64 velocity=105 time=0
note_on channel=5 note=76 velocity=105 time=0
note_off channel=1 note=36 velocity=0 time=4
note_off channel=4 note=57 velocity=0 time=0
note_on channel=5 note=69 velocity=103 time=0
note_on channel=4 note=57 velocity=103 time=0
note_on channel=4 note=60 velocity=105 time=0
note_off channel=5 note=69 velocity=0 time=4
note_on channel=5 note=72 velocity=105 time=0
note_on channel=9 note=45 velocity=121 time=4
note_on channel=9 note=42 velocity=103 time=0
note_off channel=9 note=45 velocity=0 time=4
note_on channel=1 note=33 velocity=80 time=0
note_off channel=9 note=42 velocity=0 time=0
note_off channel=4 note=60 velocity=0 time=4
note_off channel=5 note=72 velocity=0 time=4
note_off channel=4 note=57 velocity=0 time=4
note_off channel=5 note=69 velocity=0 time=0
note_off channel=4 note=41 velocity=0 time=8
note_off channel=5 note=76 velocity=0 time=0
note_off channel=4 note=64 velocity=0 time=0
note_off channel=4 note=48 velocity=0 time=4
note_off channel=5 note=53 velocity=0 time=0
note_off channel=5 note=60 velocity=0 time=4
note_on channel=4 note=48 velocity=105 time=52
note_on channel=5 note=60 velocity=105 time=0
note_on channel=4 note=41 velocity=109 time=0
note_on channel=5 note=53 velocity=109 time=0
note_on channel=4 note=57 velocity=103 time=0
note_on channel=5 note=69 velocity=103 time=0
note_on channel=4 note=64 velocity=107 time=0
note_on channel=5 note=76 velocity=107 time=0
note_on channel=4 note=60 velocity=111 time=4
note_on channel=5 note=72 velocity=111 time=4
note_off channel=1 note=33 velocity=0 time=4
note_on channel=1 note=31 velocity=99 time=4
note_off channel=4 note=60 velocity=0 time=4
note_off channel=5 note=72 velocity=0 time=0
note_off channel=4 note=57 velocity=0 time=4
note_off channel=4 note=64 velocity=0 time=0
note_off channel=5 note=69 velocity=0 time=4
note_off channel=5 note=76 velocity=0 time=0
note_off channel=4 note=48 velocity=0 time=8
note_off channel=5 note=53 velocity=0 time=0
note_off channel=4 note=41 velocity=0 time=0
note_off channel=5 note=60 velocity=0 time=4
note_on channel=6 note=60 velocity=97 time=8
note_off channel=6 note=60 velocity=0 time=28
note_off channel=1 note=31 velocity=0 time=4
note_on channel=4 note=41 velocity=103 time=12
note_on channel=5 note=53 velocity=103 time=0
note_on channel=4 note=48 velocity=101 time=4
note_on channel=5 note=60 velocity=101 time=0
note_on channel=4 note=57 velocity=111 time=0
note_on channel=5 note=69 velocity=111 time=0
note_on channel=4 note=64 velocity=107 time=0
note_on channel=5 note=76 velocity=107 time=0
note_on channel=4 note=60 velocity=107 time=4
note_on channel=5 note=72 velocity=107 time=0
note_on channel=1 note=29 velocity=95 time=4
note_on channel=9 note=43 velocity=119 time=4
note_on channel=9 note=42 velocity=101 time=0
note_off channel=9 note=43 velocity=0 time=4
note_off channel=9 note=42 velocity=0 time=0
note_off channel=4 note=60 velocity=0 time=8
note_off channel=5 note=72 velocity=0 time=4
note_off channel=4 note=64 velocity=0 time=28
note_off channel=5 note=76 velocity=0 time=4
note_off channel=4 note=57 velocity=0 time=8
note_off channel=5 note=69 velocity=0 time=4
note_off channel=1 note=29 velocity=0 time=20
note_off channel=4 note=41 velocity=0 time=0
note_off channel=5 note=53 velocity=0 time=0
note_off channel=4 note=48 velocity=0 time=0
note_off channel=5 note=60 velocity=0 time=0
note_on channel=1 note=31 velocity=109 time=16
pitchwheel channel=8 pitch=-508 time=0
pitchwheel channel=8 pitch=-1894 time=12
pitchwheel channel=8 pitch=-2776 time=8
pitchwheel channel=8 pitch=-3658 time=12
pitchwheel channel=8 pitch=-4414 time=4
pitchwheel channel=8 pitch=-5674 time=12
pitchwheel channel=8 pitch=-6556 time=4
pitchwheel channel=8 pitch=-6808 time=12
pitchwheel channel=8 pitch=-7312 time=8
pitchwheel channel=8 pitch=-7816 time=8
note_on channel=4 note=52 velocity=101 time=8
note_on channel=4 note=60 velocity=101 time=0
note_off channel=1 note=31 velocity=0 time=4
note_on channel=4 note=57 velocity=103 time=0
note_on channel=5 note=64 velocity=101 time=0
note_on channel=8 note=69 velocity=111 time=0
note_on channel=4 note=64 velocity=80 time=0
note_on channel=5 note=72 velocity=101 time=0
pitchwheel channel=8 pitch=-7942 time=0
note_on channel=4 note=65 velocity=73 time=0
note_on channel=9 note=36 velocity=119 time=4
note_on channel=1 note=33 velocity=113 time=0
note_off channel=4 note=65 velocity=0 time=0
note_on channel=5 note=69 velocity=103 time=0
note_off channel=9 note=36 velocity=0 time=0
note_on channel=5 note=76 velocity=80 time=0
note_on channel=9 note=49 velocity=119 time=0
note_on channel=5 note=77 velocity=73 time=0
note_off channel=5 note=77 velocity=0 time=0
note_off channel=9 note=49 velocity=0 time=4
pitchwheel channel=8 pitch=-7564 time=8
pitchwheel channel=8 pitch=-6556 time=8
pitchwheel channel=8 pitch=-2524 time=12
pitchwheel channel=8 pitch=-382 time=8
pitchwheel channel=8 pitch=0 time=8
note_off channel=0 note=84 velocity=0 time=28
note_off channel=1 note=33 velocity=0 time=232
note_off channel=4 note=57 velocity=0 time=0
note_off channel=5 note=69 velocity=0 time=0
note_off channel=4 note=64 velocity=0 time=0
note_off channel=5 note=76 velocity=0 time=0
note_off channel=4 note=60 velocity=0 time=4
note_off channel=5 note=72 velocity=0 time=0
note_off channel=4 note=52 velocity=0 time=16
note_off channel=5 note=64 velocity=0 time=0
note_on channel=4 note=57 velocity=99 time=52
note_on channel=4 note=64 velocity=101 time=0
note_on channel=4 note=60 velocity=95 time=0
note_on channel=9 note=40 velocity=121 time=4
note_on channel=1 note=33 velocity=109 time=0
note_on channel=4 note=52 velocity=93 time=0
note_on channel=5 note=69 velocity=99 time=0
note_on channel=9 note=42 velocity=97 time=0
note_on channel=5 note=76 velocity=101 time=0
note_on channel=5 note=72 velocity=95 time=0
note_on channel=5 note=64 velocity=93 time=0
note_off channel=9 note=40 velocity=0 time=4
note_off channel=9 note=42 velocity=0 time=0
note_off channel=4 note=60 velocity=0 time=156
note_off channel=5 note=72 velocity=0 time=0
note_off channel=1 note=33 velocity=0 time=4
note_off channel=4 note=52 velocity=0 time=4
note_off channel=5 note=64 velocity=0 time=0
note_off channel=4 note=64 velocity=0 time=4
note_off channel=4 note=57 velocity=0 time=4
note_off channel=5 note=69 velocity=0 time=0
note_off channel=5 note=76 velocity=0 time=0
note_on channel=9 note=42 velocity=92 time=16
note_off channel=9 note=42 velocity=0 time=4
note_on channel=4 note=57 velocity=66 time=84
note_on channel=4 note=64 velocity=72 time=0
note_on channel=4 note=52 velocity=63 time=0
note_on channel=4 note=60 velocity=44 time=0
note_on channel=5 note=69 velocity=66 time=4
note_on channel=5 note=76 velocity=72 time=0
note_on channel=5 note=64 velocity=63 time=0
note_on channel=5 note=72 velocity=44 time=0
note_on channel=1 note=33 velocity=95 time=4
note_off channel=4 note=60 velocity=0 time=0
note_off channel=5 note=72 velocity=0 time=0
note_off channel=4 note=52 velocity=0 time=8
note_off channel=4 note=57 velocity=0 time=4
note_off channel=5 note=64 velocity=0 time=0
note_off channel=4 note=64 velocity=0 time=4
note_off channel=5 note=69 velocity=0 time=0
note_off channel=5 note=76 velocity=0 time=0
note_on channel=4 note=52 velocity=90 time=72
note_on channel=4 note=64 velocity=93 time=0
note_on channel=4 note=55 velocity=99 time=0
note_on channel=4 note=60 velocity=90 time=4
note_on channel=5 note=64 velocity=90 time=0
note_on channel=5 note=76 velocity=93 time=0
note_on channel=5 note=67 velocity=99 time=0
note_on channel=9 note=36 velocity=117 time=4
note_on channel=1 note=31 velocity=101 time=0
note_on channel=5 note=72 velocity=90 time=0
note_on channel=9 note=42 velocity=109 time=0
note_off channel=9 note=36 velocity=0 time=4
note_off channel=9 note=42 velocity=0 time=0
note_off channel=1 note=33 velocity=0 time=8
note_off channel=4 note=60 velocity=0 time=92
note_off channel=4 note=55 velocity=0 time=4
note_off channel=5 note=72 velocity=0 time=0
note_off channel=5 note=67 velocity=0 time=4
note_off channel=1 note=31 velocity=0 time=4
note_off channel=4 note=64 velocity=0 time=0
note_off channel=5 note=76 velocity=0 time=0
note_off channel=4 note=52 velocity=0 time=4
note_off channel=5 note=64 velocity=0 time=4
note_off channel=8 note=69 velocity=0 time=52
note_on channel=4 note=52 velocity=93 time=8
note_on channel=4 note=64 velocity=99 time=4
note_on channel=5 note=64 velocity=93 time=0
note_on channel=8 note=72 velocity=103 time=0
note_on channel=4 note=55 velocity=97 time=0
note_on channel=4 note=60 velocity=90 time=0
note_on channel=9 note=36 velocity=117 time=4
note_on channel=1 note=31 velocity=107 time=0
note_on channel=5 note=76 velocity=99 time=0
note_on channel=9 note=42 velocity=109 time=0
note_on channel=5 note=67 velocity=97 time=0
note_on channel=5 note=72 velocity=90 time=0
note_off channel=9 note=36 velocity=0 time=4
note_off channel=9 note=42 velocity=0 time=0
note_off channel=8 note=72 velocity=0 time=92
note_off channel=4 note=60 velocity=0 time=4
note_off channel=5 note=72 velocity=0 time=0
note_off channel=4 note=55 velocity=0 time=4
note_off channel=5 note=67 velocity=0 time=0
note_off channel=4 note=52 velocity=0 time=4
note_off channel=4 note=64 velocity=0 time=0
note_off channel=5 note=64 velocity=0 time=4
note_off channel=5 note=76 velocity=0 time=0
note_on channel=4 note=55 velocity=99 time=72
note_on channel=4 note=64 velocity=99 time=0
note_on channel=4 note=52 velocity=92 time=0
note_on channel=9 note=40 velocity=117 time=4
note_on channel=4 note=60 velocity=97 time=0
note_on channel=5 note=67 velocity=99 time=0
note_on channel=8 note=74 velocity=107 time=0
note_on channel=5 note=76 velocity=99 time=0
note_on channel=5 note=64 velocity=92 time=0
note_off channel=9 note=40 velocity=0 time=4
note_on channel=1 note=38 velocity=115 time=0
note_on channel=5 note=72 velocity=97 time=0
note_on channel=9 note=42 velocity=113 time=0
note_off channel=9 note=42 velocity=0 time=4
note_off channel=1 note=31 velocity=0 time=12
note_off channel=8 note=74 velocity=0 time=64
note_on channel=8 note=69 velocity=95 time=12
note_off channel=4 note=60 velocity=0 time=12
note_off channel=5 note=72 velocity=0 time=0
note_off channel=4 note=64 velocity=0 time=12
note_off channel=5 note=76 velocity=0 time=0
note_off channel=4 note=52 velocity=0 time=4
note_off channel=5 note=64 velocity=0 time=0
note_off channel=4 note=55 velocity=0 time=4
note_off channel=5 note=67 velocity=0 time=4
note_off channel=1 note=38 velocity=0 time=20
note_on channel=4 note=64 velocity=73 time=36
note_on channel=4 note=55 velocity=58 time=0
note_on channel=9 note=42 velocity=99 time=4
note_on channel=1 note=29 velocity=113 time=0
note_on channel=4 note=60 velocity=53 time=0
note_on channel=5 note=76 velocity=73 time=0
note_on channel=4 note=52 velocity=41 time=0
note_on channel=5 note=67 velocity=58 time=0
note_off channel=9 note=42 velocity=0 time=4
note_on channel=5 note=72 velocity=53 time=0
note_on channel=5 note=64 velocity=41 time=0
note_off channel=4 note=60 velocity=0 time=4
note_off channel=5 note=72 velocity=0 time=0
note_off channel=4 note=52 velocity=0 time=0
note_off channel=5 note=64 velocity=0 time=0
note_off channel=4 note=64 velocity=0 time=12
note_off channel=5 note=76 velocity=0 time=0
note_off channel=4 note=55 velocity=0 time=0
note_off channel=5 note=67 velocity=0 time=0
note_on channel=4 note=52 velocity=78 time=64
note_on channel=5 note=64 velocity=78 time=0
note_off channel=8 note=69 velocity=0 time=0
note_on channel=4 note=64 velocity=78 time=8
note_on channel=5 note=76 velocity=78 time=0
note_on channel=4 note=60 velocity=66 time=0
note_on channel=4 note=55 velocity=58 time=0
note_on channel=5 note=72 velocity=66 time=4
note_on channel=5 note=67 velocity=58 time=0
note_on channel=9 note=36 velocity=86 time=4
note_off channel=4 note=55 velocity=0 time=0
note_off channel=5 note=67 velocity=0 time=0
note_off channel=9 note=36 velocity=0 time=4
note_off channel=4 note=60 velocity=0 time=0
note_off channel=5 note=72 velocity=0 time=0
note_off channel=4 note=64 velocity=0 time=4
note_off channel=5 note=76 velocity=0 time=0
note_off channel=4 note=52 velocity=0 time=12
note_off channel=5 note=64 velocity=0 time=0
pitchwheel channel=8 pitch=-508 time=20
pitchwheel channel=8 pitch=-1768 time=8
pitchwheel channel=8 pitch=-2902 time=8
pitchwheel channel=8 pitch=-4036 time=8
pitchwheel channel=8 pitch=-5296 time=12
note_on channel=4 note=57 velocity=99 time=8
note_on channel=5 note=69 velocity=99 time=0
pitchwheel channel=8 pitch=-7564 time=0
note_on channel=4 note=53 velocity=99 time=0
note_on channel=5 note=65 velocity=99 time=0
note_on channel=4 note=64 velocity=99 time=0
note_on channel=5 note=76 velocity=99 time=0
note_on channel=4 note=60 velocity=99 time=4
note_on channel=5 note=72 velocity=99 time=4
note_on channel=8 note=69 velocity=109 time=0
note_on channel=9 note=36 velocity=121 time=4
pitchwheel channel=8 pitch=-8192 time=0
note_off channel=9 note=36 velocity=0 time=0
note_on channel=9 note=42 velocity=119 time=0
note_off channel=9 note=42 velocity=0 time=0
pitchwheel channel=8 pitch=-8192 time=12
pitchwheel channel=8 pitch=-8192 time=4
pitchwheel channel=8 pitch=-8192 time=20
pitchwheel channel=8 pitch=-8192 time=8
pitchwheel channel=8 pitch=-8192 time=12
pitchwheel channel=8 pitch=-8068 time=8
pitchwheel channel=8 pitch=-7942 time=4
pitchwheel channel=8 pitch=-7690 time=12
pitchwheel channel=8 pitch=-4288 time=8
pitchwheel channel=8 pitch=-886 time=8
pitchwheel channel=8 pitch=0 time=4
note_off channel=1 note=29 velocity=0 time=32
note_on channel=9 note=42 velocity=107 time=60
note_on channel=1 note=29 velocity=90 time=0
note_off channel=9 note=42 velocity=0 time=4
note_off channel=8 note=69 velocity=0 time=60
note_off channel=1 note=29 velocity=0 time=16
note_off channel=4 note=64 velocity=0 time=20
note_off channel=5 note=76 velocity=0 time=0
note_off channel=4 note=57 velocity=0 time=4
note_off channel=4 note=60 velocity=0 time=0
note_off channel=5 note=69 velocity=0 time=4
note_off channel=5 note=72 velocity=0 time=0
note_off channel=4 note=53 velocity=0 time=8
note_off channel=5 note=65 velocity=0 time=0
pitchwheel channel=8 pitch=-1138 time=8
pitchwheel channel=8 pitch=-3784 time=4
pitchwheel channel=8 pitch=-5170 time=8
pitchwheel channel=8 pitch=-6304 time=8
pitchwheel channel=8 pitch=-7060 time=8
pitchwheel channel=8 pitch=-8068 time=8
pitchwheel channel=8 pitch=-8192 time=8
note_on channel=4 note=57 velocity=95 time=12
note_on channel=5 note=69 velocity=95 time=0
note_on channel=4 note=64 velocity=92 time=0
note_on channel=5 note=76 velocity=92 time=0
note_on channel=4 note=60 velocity=92 time=4
note_on channel=5 note=72 velocity=92 time=0
note_on channel=8 note=69 velocity=111 time=0
note_on channel=4 note=53 velocity=95 time=0
note_on channel=5 note=65 velocity=95 time=4
note_on channel=9 note=40 velocity=117 time=4
note_on channel=1 note=29 velocity=111 time=0
pitchwheel channel=8 pitch=-8192 time=0
note_off channel=9 note=40 velocity=0 time=0
note_on channel=9 note=42 velocity=109 time=0
note_off channel=9 note=42 velocity=0 time=0
pitchwheel channel=8 pitch=-7564 time=12
pitchwheel channel=8 pitch=-5674 time=8
pitchwheel channel=8 pitch=-508 time=12
pitchwheel channel=8 pitch=0 time=8
note_on channel=9 note=42 velocity=95 time=152
note_off channel=9 note=42 velocity=0 time=4
note_off channel=1 note=29 velocity=0 time=28
note_on channel=1 note=29 velocity=71 time=60
note_off channel=1 note=29 velocity=0 time=44
note_on channel=9 note=36 velocity=115 time=52
note_off channel=9 note=36 velocity=0 time=4
note_on channel=1 note=29 velocity=93 time=0
note_on channel=9 note=42 velocity=117 time=0
note_off channel=9 note=42 velocity=0 time=0
note_off channel=1 note=29 velocity=0 time=44
note_on channel=1 note=29 velocity=109 time=52
note_off channel=1 note=29 velocity=0 time=48
note_on channel=9 note=36 velocity=115 time=44
note_on channel=9 note=42 velocity=105 time=0
note_off channel=9 note=36 velocity=0 time=4
note_on channel=1 note=29 velocity=101 time=0
note_off channel=9 note=42 velocity=0 time=0
note_off channel=4 note=60 velocity=0 time=48
note_off channel=5 note=72 velocity=0 time=0
note_off channel=4 note=64 velocity=0 time=4
note_off channel=5 note=76 velocity=0 time=0
note_off channel=4 note=53 velocity=0 time=4
note_off channel=5 note=65 velocity=0 time=0
note_off channel=4 note=57 velocity=0 time=12
note_off channel=5 note=69 velocity=0 time=0
pitchwheel channel=10 pitch=-508 time=24
pitchwheel channel=10 pitch=-1012 time=8
note_off channel=8 note=69 velocity=0 time=12
pitchwheel channel=10 pitch=-1642 time=0
pitchwheel channel=10 pitch=-2272 time=4
pitchwheel channel=10 pitch=-4036 time=8
pitchwheel channel=10 pitch=-4918 time=4
pitchwheel channel=10 pitch=-5800 time=12
pitchwheel channel=10 pitch=-6682 time=8
pitchwheel channel=10 pitch=-7564 time=8
pitchwheel channel=10 pitch=-8192 time=8
pitchwheel channel=10 pitch=-8192 time=12
note_on channel=4 note=53 velocity=92 time=8
note_on channel=5 note=65 velocity=92 time=0
note_on channel=4 note=57 velocity=97 time=0
note_on channel=4 note=64 velocity=97 time=0
note_on channel=4 note=60 velocity=93 time=0
note_on channel=9 note=40 velocity=117 time=4
note_on channel=5 note=69 velocity=97 time=0
note_on channel=9 note=42 velocity=115 time=0
note_on channel=5 note=76 velocity=97 time=0
note_on channel=5 note=72 velocity=93 time=0
note_off channel=9 note=40 velocity=0 time=4
note_on channel=8 note=62 velocity=103 time=0
note_off channel=9 note=42 velocity=0 time=0
note_on channel=10 note=62 velocity=109 time=12
pitchwheel channel=10 pitch=-8192 time=20
pitchwheel channel=10 pitch=-8192 time=8
pitchwheel channel=10 pitch=-8192 time=8
pitchwheel channel=10 pitch=-7312 time=12
pitchwheel channel=10 pitch=-6052 time=4
pitchwheel channel=10 pitch=-4414 time=12
pitchwheel channel=10 pitch=-2398 time=8
note_on channel=1 note=28 velocity=78 time=8
pitchwheel channel=10 pitch=0 time=0
note_off channel=1 note=29 velocity=0 time=4
note_on channel=6 note=60 velocity=103 time=72
note_on channel=1 note=31 velocity=111 time=20
note_off channel=1 note=28 velocity=0 time=4
note_on channel=9 note=42 velocity=109 time=16
note_off channel=6 note=60 velocity=0 time=0
note_off channel=9 note=42 velocity=0 time=0
note_off channel=4 note=57 velocity=0 time=12
note_off channel=4 note=60 velocity=0 time=0
note_off channel=5 note=69 velocity=0 time=4
note_off channel=5 note=72 velocity=0 time=0
note_off channel=4 note=64 velocity=0 time=8
note_off channel=5 note=76 velocity=0 time=4
note_off channel=4 note=53 velocity=0 time=12
note_off channel=5 note=65 velocity=0 time=0
note_off channel=10 note=62 velocity=0 time=0
note_off channel=1 note=31 velocity=0 time=32
note_on channel=1 note=28 velocity=107 time=4
note_on channel=9 note=36 velocity=87 time=4
note_off channel=9 note=36 velocity=0 time=4
pitchwheel channel=10 pitch=-886 time=20
pitchwheel channel=10 pitch=-1768 time=8
pitchwheel channel=10 pitch=-3280 time=4
pitchwheel channel=10 pitch=-4792 time=12
pitchwheel channel=10 pitch=-6304 time=8
pitchwheel channel=10 pitch=-7816 time=8
pitchwheel channel=10 pitch=-8192 time=4
pitchwheel channel=10 pitch=-8192 time=12
note_on channel=4 note=57 velocity=87 time=8
note_on channel=5 note=69 velocity=87 time=0
note_on channel=10 note=64 velocity=103 time=0
note_on channel=4 note=60 velocity=90 time=0
note_on channel=5 note=72 velocity=90 time=0
note_on channel=4 note=64 velocity=90 time=0
note_on channel=4 note=52 velocity=89 time=0
note_on channel=5 note=76 velocity=90 time=4
note_on channel=5 note=64 velocity=89 time=0
note_on channel=9 note=36 velocity=119 time=4
note_on channel=1 note=33 velocity=103 time=0
note_off channel=8 note=62 velocity=0 time=0
note_on channel=9 note=42 velocity=115 time=0
note_on channel=8 note=64 velocity=93 time=0
note_off channel=9 note=36 velocity=0 time=4
note_off channel=9 note=42 velocity=0 time=0
note_off channel=1 note=28 velocity=0 time=4
pitchwheel channel=10 pitch=-8068 time=24
pitchwheel channel=10 pitch=-7564 time=8
pitchwheel channel=10 pitch=-5422 time=8
pitchwheel channel=10 pitch=-3784 time=12
pitchwheel channel=10 pitch=0 time=4
note_on channel=9 note=42 velocity=109 time=124
note_off channel=9 note=42 velocity=0 time=4
note_off channel=1 note=33 velocity=0 time=20
note_on channel=1 note=28 velocity=86 time=76
note_off channel=4 note=52 velocity=0 time=12
note_off channel=5 note=64 velocity=0 time=4
note_off channel=4 note=57 velocity=0 time=4
note_off channel=5 note=69 velocity=0 time=0
note_off channel=4 note=60 velocity=0 time=0
note_off channel=5 note=72 velocity=0 time=0
note_off channel=4 note=64 velocity=0 time=0
note_off channel=5 note=76 velocity=0 time=0
note_on channel=4 note=52 velocity=90 time=68
note_on channel=4 note=57 velocity=103 time=0
note_on channel=4 note=64 velocity=99 time=0
note_on channel=4 note=60 velocity=99 time=0
note_on channel=9 note=40 velocity=119 time=4
note_off channel=1 note=28 velocity=0 time=0
note_on channel=5 note=64 velocity=90 time=0
note_on channel=9 note=42 velocity=115 time=0
note_on channel=5 note=69 velocity=103 time=0
note_on channel=5 note=76 velocity=99 time=0
note_on channel=5 note=72 velocity=99 time=0
note_off channel=9 note=40 velocity=0 time=4
note_on channel=1 note=33 velocity=111 time=0
note_off channel=9 note=42 velocity=0 time=0
note_off channel=1 note=33 velocity=0 time=180
note_on channel=9 note=42 velocity=101 time=8
note_off channel=9 note=42 velocity=0 time=4
note_off channel=10 note=64 velocity=0 time=32
note_off channel=4 note=57 velocity=0 time=40
note_off channel=5 note=69 velocity=0 time=0
note_off channel=4 note=64 velocity=0 time=0
note_off channel=4 note=60 velocity=0 time=4
note_off channel=5 note=76 velocity=0 time=0
note_off channel=5 note=72 velocity=0 time=4
pitchwheel channel=10 pitch=-1138 time=0
pitchwheel channel=10 pitch=-2146 time=8
note_on channel=9 note=42 velocity=109 time=4
note_on channel=1 note=33 velocity=101 time=0
note_off channel=9 note=42 velocity=0 time=4
pitchwheel channel=10 pitch=-4666 time=0
note_off channel=4 note=52 velocity=0 time=4
note_off channel=5 note=64 velocity=0 time=0
pitchwheel channel=10 pitch=-5422 time=8
pitchwheel channel=10 pitch=-6430 time=8
pitchwheel channel=10 pitch=-7438 time=8
pitchwheel channel=10 pitch=-8068 time=8
pitchwheel channel=10 pitch=-8192 time=12
pitchwheel channel=10 pitch=-8192 time=0
pitchwheel channel=10 pitch=-8192 time=16
note_on channel=4 note=55 velocity=85 time=24
note_on channel=10 note=67 velocity=109 time=0
note_on channel=4 note=64 velocity=95 time=0
note_on channel=4 note=60 velocity=95 time=0
note_on channel=4 note=52 velocity=97 time=0
note_on channel=9 note=36 velocity=111 time=4
note_on channel=5 note=67 velocity=85 time=0
note_on channel=8 note=67 velocity=93 time=0
note_on channel=9 note=42 velocity=103 time=0
note_on channel=5 note=76 velocity=95 time=0
note_on channel=5 note=72 velocity=95 time=0
note_on channel=5 note=64 velocity=97 time=0
note_off channel=9 note=36 velocity=0 time=4
note_on channel=1 note=31 velocity=105 time=0
note_off channel=8 note=64 velocity=0 time=0
note_off channel=9 note=42 velocity=0 time=0
note_off channel=1 note=33 velocity=0 time=16
pitchwheel channel=10 pitch=-8192 time=16
pitchwheel channel=10 pitch=-7942 time=16
pitchwheel channel=10 pitch=-5422 time=4
pitchwheel channel=10 pitch=-3280 time=12
pitchwheel channel=10 pitch=-634 time=8
pitchwheel channel=10 pitch=0 time=8
note_off channel=1 note=31 velocity=0 time=40
note_on channel=9 note=36 velocity=107 time=68
note_off channel=9 note=36 velocity=0 time=4
note_on channel=1 note=31 velocity=85 time=0
note_on channel=9 note=42 velocity=101 time=0
note_off channel=9 note=42 velocity=0 time=0
note_off channel=4 note=60 velocity=0 time=88
note_off channel=4 note=52 velocity=0 time=4
note_off channel=5 note=72 velocity=0 time=0
note_off channel=5 note=64 velocity=0 time=4
note_off channel=4 note=64 velocity=0 time=4
note_off channel=5 note=76 velocity=0 time=0
note_off channel=4 note=55 velocity=0 time=4
note_off channel=5 note=67 velocity=0 time=4
note_off channel=10 note=67 velocity=0 time=8
pitchwheel channel=10 pitch=-1264 time=4
pitchwheel channel=10 pitch=-2398 time=8
pitchwheel channel=10 pitch=-4666 time=16
pitchwheel channel=10 pitch=-5674 time=4
pitchwheel channel=10 pitch=-6556 time=8
pitchwheel channel=10 pitch=-7816 time=8
note_off channel=1 note=31 velocity=0 time=4
note_off channel=8 note=67 velocity=0 time=8
pitchwheel channel=10 pitch=-8192 time=0
note_on channel=4 note=55 velocity=95 time=8
note_on channel=5 note=67 velocity=95 time=0
note_on channel=8 note=69 velocity=93 time=0
note_on channel=4 note=64 velocity=92 time=0
note_on channel=4 note=60 velocity=81 time=0
note_on channel=4 note=52 velocity=90 time=0
note_on channel=9 note=40 velocity=117 time=4
note_on channel=1 note=38 velocity=113 time=0
note_on channel=5 note=76 velocity=92 time=0
note_on channel=5 note=72 velocity=81 time=0
note_on channel=5 note=64 velocity=90 time=0
note_off channel=9 note=40 velocity=0 time=4
note_on channel=9 note=42 velocity=107 time=0
note_off channel=9 note=42 velocity=0 time=4
note_on channel=10 note=69 velocity=107 time=4
pitchwheel channel=10 pitch=-8192 time=28
pitchwheel channel=10 pitch=-8068 time=8
pitchwheel channel=10 pitch=-4666 time=12
pitchwheel channel=10 pitch=-1768 time=8
pitchwheel channel=10 pitch=0 time=8
note_off channel=1 note=38 velocity=0 time=4
note_on channel=1 note=31 velocity=101 time=12
note_off channel=8 note=69 velocity=0 time=68
note_on channel=1 note=29 velocity=90 time=28
note_on channel=9 note=42 velocity=101 time=8
note_off channel=9 note=42 velocity=0 time=0
note_off channel=1 note=31 velocity=0 time=12
note_off channel=4 note=55 velocity=0 time=0
note_off channel=4 note=60 velocity=0 time=4
note_off channel=5 note=67 velocity=0 time=0
note_off channel=5 note=72 velocity=0 time=0
note_off channel=4 note=64 velocity=0 time=24
note_off channel=5 note=64 velocity=0 time=0
note_off channel=4 note=52 velocity=0 time=0
note_off channel=5 note=76 velocity=0 time=4
note_off channel=10 note=69 velocity=0 time=36
pitchwheel channel=10 pitch=-1516 time=44
pitchwheel channel=10 pitch=-2902 time=8
pitchwheel channel=10 pitch=-4036 time=8
pitchwheel channel=10 pitch=-5422 time=8
pitchwheel channel=10 pitch=-8192 time=8
pitchwheel channel=10 pitch=-8192 time=20
note_on channel=4 note=53 velocity=93 time=8
note_on channel=4 note=57 velocity=93 time=0
note_on channel=4 note=60 velocity=95 time=0
note_on channel=9 note=36 velocity=109 time=4
note_on channel=4 note=64 velocity=93 time=0
note_on channel=5 note=65 velocity=93 time=0
note_on channel=9 note=42 velocity=111 time=0
note_on channel=5 note=69 velocity=93 time=0
note_on channel=5 note=72 velocity=95 time=0
note_off channel=9 note=36 velocity=0 time=4
note_on channel=5 note=76 velocity=93 time=0
note_on channel=10 note=72 velocity=103 time=0
note_off channel=9 note=42 velocity=0 time=0
note_on channel=8 note=72 velocity=103 time=4
pitchwheel channel=10 pitch=-8192 time=28
pitchwheel channel=10 pitch=-7312 time=8
pitchwheel channel=10 pitch=-5296 time=8
pitchwheel channel=10 pitch=0 time=12
note_off channel=4 note=53 velocity=0 time=60
note_off channel=5 note=65 velocity=0 time=4
note_on channel=4 note=53 velocity=93 time=60
note_on channel=5 note=65 velocity=93 time=0
note_on channel=9 note=36 velocity=111 time=4
note_off channel=9 note=36 velocity=0 time=4
note_off channel=1 note=29 velocity=0 time=0
note_on channel=9 note=42 velocity=103 time=0
note_on channel=1 note=29 velocity=103 time=0
note_off channel=9 note=42 velocity=0 time=0
control_change channel=8 control=1 value=30 time=56
control_change channel=8 control=1 value=38 time=8
control_change channel=8 control=1 value=47 time=4
note_off channel=4 note=64 velocity=0 time=4
note_off channel=5 note=76 velocity=0 time=4
note_off channel=1 note=29 velocity=0 time=4
note_off channel=4 note=60 velocity=0 time=8
note_off channel=5 note=72 velocity=0 time=0
control_change channel=8 control=1 value=64 time=0
control_change channel=8 control=1 value=72 time=8
control_change channel=8 control=1 value=86 time=12
control_change channel=8 control=1 value=91 time=4
control_change channel=8 control=1 value=97 time=8
control_change channel=8 control=1 value=99 time=8
control_change channel=8 control=1 value=101 time=8
control_change channel=8 control=1 value=102 time=8
control_change channel=8 control=1 value=104 time=12
control_change channel=8 control=1 value=108 time=4
control_change channel=8 control=1 value=109 time=8
control_change channel=8 control=1 value=110 time=8
note_on channel=4 note=64 velocity=99 time=8
control_change channel=10 control=1 value=4 time=0
note_on channel=9 note=40 velocity=117 time=4
note_on channel=5 note=76 velocity=99 time=0
note_on channel=9 note=42 velocity=115 time=0
note_off channel=9 note=40 velocity=0 time=4
note_on channel=1 note=29 velocity=105 time=0
control_change channel=8 control=1 value=111 time=0
control_change channel=10 control=1 value=38 time=0
note_off channel=9 note=42 velocity=0 time=0
control_change channel=8 control=1 value=112 time=16
control_change channel=10 control=1 value=86 time=0
control_change channel=10 control=1 value=87 time=4
control_change channel=8 control=1 value=113 time=8
control_change channel=8 control=1 value=114 time=4
control_change channel=10 control=1 value=91 time=8
control_change channel=10 control=1 value=94 time=8
control_change channel=10 control=1 value=101 time=4
control_change channel=10 control=1 value=102 time=8
control_change channel=8 control=1 value=115 time=8
control_change channel=10 control=1 value=103 time=0
control_change channel=8 control=1 value=116 time=12
control_change channel=10 control=1 value=104 time=12
control_change channel=10 control=1 value=105 time=4
control_change channel=8 control=1 value=117 time=8
control_change channel=10 control=1 value=104 time=12
control_change channel=10 control=1 value=103 time=12
control_change channel=8 control=1 value=118 time=4
control_change channel=10 control=1 value=102 time=0
control_change channel=10 control=1 value=101 time=28
control_change channel=10 control=1 value=99 time=16
note_on channel=4 note=60 velocity=99 time=4
note_on channel=5 note=72 velocity=99 time=0
note_on channel=9 note=42 velocity=83 time=8
note_off channel=9 note=42 velocity=0 time=4
control_change channel=10 control=1 value=100 time=4
control_change channel=10 control=1 value=101 time=12
control_change channel=8 control=1 value=119 time=8
control_change channel=10 control=1 value=102 time=0
control_change channel=10 control=1 value=103 time=8
control_change channel=8 control=1 value=118 time=8
control_change channel=10 control=1 value=104 time=4
control_change channel=8 control=1 value=117 time=4
control_change channel=8 control=1 value=118 time=8
control_change channel=10 control=1 value=101 time=8
control_change channel=10 control=1 value=99 time=8
control_change channel=8 control=1 value=117 time=16
control_change channel=10 control=1 value=94 time=0
note_on channel=9 note=42 velocity=107 time=4
note_on channel=1 note=33 velocity=71 time=0
note_off channel=9 note=42 velocity=0 time=4
control_change channel=10 control=1 value=92 time=4
note_off channel=1 note=29 velocity=0 time=8
control_change channel=8 control=1 value=118 time=0
control_change channel=10 control=1 value=93 time=4
control_change channel=8 control=1 value=117 time=4
control_change channel=10 control=1 value=92 time=12
control_change channel=10 control=1 value=93 time=12
control_change channel=8 control=1 value=118 time=4
control_change channel=8 control=1 value=115 time=4
control_change channel=10 control=1 value=94 time=4
control_change channel=8 control=1 value=112 time=8
control_change channel=10 control=1 value=91 time=4
control_change channel=10 control=1 value=90 time=8
control_change channel=8 control=1 value=113 time=4
control_change channel=10 control=1 value=91 time=8
note_on channel=9 note=36 velocity=105 time=4
note_on channel=9 note=42 velocity=115 time=0
note_off channel=9 note=36 velocity=0 time=4
note_on channel=1 note=36 velocity=97 time=0
control_change channel=8 control=1 value=114 time=0
control_change channel=10 control=1 value=92 time=0
note_off channel=9 note=42 velocity=0 time=0
control_change channel=10 control=1 value=94 time=8
control_change channel=8 control=1 value=116 time=8
note_off channel=1 note=33 velocity=0 time=4
control_change channel=10 control=1 value=95 time=8
control_change channel=10 control=1 value=91 time=8
control_change channel=8 control=1 value=117 time=12
control_change channel=10 control=1 value=93 time=0
control_change channel=10 control=1 value=96 time=8
control_change channel=10 control=1 value=97 time=8
control_change channel=10 control=1 value=96 time=12
control_change channel=8 control=1 value=116 time=8
control_change channel=10 control=1 value=49 time=0
control_change channel=10 control=1 value=11 time=8
note_on channel=9 note=40 velocity=115 time=4
note_on channel=1 note=41 velocity=113 time=0
note_off channel=9 note=40 velocity=0 time=0
control_change channel=8 control=1 value=114 time=8
control_change channel=10 control=1 value=0 time=0
note_off channel=1 note=36 velocity=0 time=4
note_off channel=4 note=53 velocity=0 time=4
note_off channel=5 note=65 velocity=0 time=0
control_change channel=8 control=1 value=107 time=0
note_off channel=4 note=60 velocity=0 time=0
note_off channel=5 note=72 velocity=0 time=0
note_off channel=4 note=57 velocity=0 time=4
note_off channel=5 note=69 velocity=0 time=0
note_off channel=4 note=64 velocity=0 time=0
note_off channel=5 note=76 velocity=0 time=0
control_change channel=8 control=1 value=101 time=8
control_change channel=8 control=1 value=86 time=8
control_change channel=8 control=1 value=45 time=8
control_change channel=8 control=1 value=4 time=8
control_change channel=8 control=1 value=0 time=12
note_on channel=4 note=53 velocity=62 time=16
note_on channel=5 note=65 velocity=62 time=0
note_off channel=10 note=72 velocity=0 time=0
note_on channel=4 note=57 velocity=72 time=4
note_on channel=5 note=69 velocity=72 time=0
note_on channel=4 note=60 velocity=72 time=0
note_on channel=5 note=72 velocity=72 time=0
note_on channel=4 note=64 velocity=77 time=0
note_on channel=5 note=76 velocity=77 time=0
note_on channel=9 note=42 velocity=109 time=12
note_off channel=9 note=42 velocity=0 time=0
note_off channel=8 note=72 velocity=0 time=48
note_off channel=4 note=60 velocity=0 time=16
note_off channel=5 note=72 velocity=0 time=0
note_off channel=4 note=64 velocity=0 time=12
note_off channel=5 note=76 velocity=0 time=4
note_off channel=4 note=57 velocity=0 time=4
note_off channel=5 note=69 velocity=0 time=0
pitchwheel channel=10 pitch=-1138 time=4
pitchwheel channel=10 pitch=-1642 time=4
note_on channel=1 note=36 velocity=99 time=4
note_on channel=9 note=36 velocity=99 time=4
note_off channel=9 note=36 velocity=0 time=4
note_off channel=1 note=41 velocity=0 time=0
pitchwheel channel=10 pitch=-3280 time=0
pitchwheel channel=10 pitch=-4540 time=8
pitchwheel channel=10 pitch=-5548 time=8
pitchwheel channel=10 pitch=-7690 time=8
note_off channel=4 note=53 velocity=0 time=8
note_off channel=5 note=65 velocity=0 time=0
pitchwheel channel=10 pitch=-8192 time=4
note_on channel=10 note=71 velocity=111 time=36
note_on channel=4 note=57 velocity=97 time=8
note_on channel=5 note=69 velocity=97 time=0
note_on channel=4 note=53 velocity=101 time=0
note_on channel=4 note=64 velocity=105 time=0
note_on channel=4 note=60 velocity=93 time=0
note_on channel=5 note=65 velocity=101 time=4
note_on channel=8 note=71 velocity=105 time=0
note_on channel=5 note=76 velocity=105 time=0
note_on channel=5 note=72 velocity=93 time=0
note_on channel=9 note=42 velocity=111 time=4
note_off channel=1 note=36 velocity=0 time=0
note_off channel=9 note=42 velocity=0 time=0
note_on channel=1 note=41 velocity=107 time=0
note_on channel=9 note=40 velocity=119 time=4
note_off channel=9 note=40 velocity=0 time=4
pitchwheel channel=10 pitch=-8192 time=20
pitchwheel channel=10 pitch=-5422 time=4
note_off channel=1 note=41 velocity=0 time=8
pitchwheel channel=10 pitch=-2524 time=0
pitchwheel channel=10 pitch=0 time=12
note_on channel=1 note=41 velocity=113 time=44
note_on channel=6 note=60 velocity=97 time=36
note_off channel=6 note=60 velocity=0 time=28
note_on channel=9 note=42 velocity=85 time=32
note_on channel=1 note=29 velocity=95 time=0
note_off channel=9 note=42 velocity=0 time=0
note_off channel=1 note=41 velocity=0 time=8
note_on channel=9 note=42 velocity=113 time=84
note_off channel=9 note=42 velocity=0 time=4
note_on channel=1 note=31 velocity=101 time=0
note_on channel=9 note=36 velocity=103 time=4
note_off channel=9 note=36 velocity=0 time=4
note_off channel=4 note=60 velocity=0 time=0
note_off channel=5 note=72 velocity=0 time=4
note_off channel=1 note=29 velocity=0 time=4
note_off channel=4 note=64 velocity=0 time=4
note_off channel=5 note=76 velocity=0 time=0
note_off channel=4 note=57 velocity=0 time=4
note_off channel=5 note=69 velocity=0 time=0
note_off channel=4 note=53 velocity=0 time=16
note_off channel=5 note=65 velocity=0 time=4
note_on channel=4 note=52 velocity=81 time=44
note_on channel=4 note=57 velocity=90 time=0
note_on channel=4 note=64 velocity=90 time=0
note_on channel=4 note=60 velocity=85 time=4
note_on channel=5 note=64 velocity=81 time=0
note_on channel=5 note=69 velocity=90 time=0
note_on channel=5 note=76 velocity=90 time=0
note_on channel=9 note=36 velocity=117 time=4
note_on channel=1 note=33 velocity=115 time=0
note_on channel=5 note=72 velocity=85 time=0
note_on channel=9 note=42 velocity=113 time=0
note_off channel=9 note=36 velocity=0 time=4
note_off channel=9 note=42 velocity=0 time=0
note_off channel=1 note=31 velocity=0 time=8
note_off channel=10 note=71 velocity=0 time=68
pitchwheel channel=10 pitch=-382 time=8
note_off channel=4 note=60 velocity=0 time=4
note_off channel=5 note=72 velocity=0 time=4
pitchwheel channel=10 pitch=-1138 time=0
note_off channel=4 note=64 velocity=0 time=8
note_off channel=5 note=76 velocity=0 time=4
note_off channel=4 note=57 velocity=0 time=4
note_off channel=5 note=69 velocity=0 time=0
pitchwheel channel=10 pitch=-3406 time=0
pitchwheel channel=10 pitch=-4666 time=4
note_off channel=4 note=52 velocity=0 time=8
note_off channel=5 note=64 velocity=0 time=4
pitchwheel channel=10 pitch=-5800 time=0
pitchwheel channel=10 pitch=-7942 time=8
pitchwheel channel=10 pitch=-8192 time=8
note_off channel=1 note=33 velocity=0 time=8
pitchwheel channel=10 pitch=-8192 time=0
control_change channel=8 control=1 value=79 time=24
note_on channel=4 note=57 velocity=55 time=8
note_off channel=8 note=71 velocity=0 time=0
note_on channel=10 note=72 velocity=107 time=0
note_on channel=8 note=72 velocity=86 time=0
note_on channel=1 note=28 velocity=97 time=4
note_on channel=4 note=64 velocity=64 time=0
note_on channel=5 note=69 velocity=55 time=0
note_on channel=4 note=52 velocity=56 time=0
note_on channel=4 note=60 velocity=53 time=0
note_on channel=9 note=42 velocity=111 time=4
note_on channel=5 note=76 velocity=64 time=0
control_change channel=8 control=1 value=120 time=0
note_on channel=5 note=64 velocity=56 time=0
note_on channel=5 note=72 velocity=53 time=0
note_off channel=9 note=42 velocity=0 time=4
control_change channel=8 control=1 value=118 time=8
pitchwheel channel=10 pitch=-8192 time=4
note_off channel=4 note=60 velocity=0 time=12
note_off channel=5 note=72 velocity=0 time=4
control_change channel=8 control=1 value=117 time=0
pitchwheel channel=10 pitch=-5800 time=0
control_change channel=8 control=1 value=114 time=8
pitchwheel channel=10 pitch=-3532 time=0
control_change channel=8 control=1 value=115 time=8
pitchwheel channel=10 pitch=0 time=4
control_change channel=8 control=1 value=117 time=4
note_off channel=4 note=57 velocity=0 time=16
note_off channel=5 note=69 velocity=0 time=0
note_off channel=4 note=64 velocity=0 time=0
note_off channel=5 note=76 velocity=0 time=0
control_change channel=8 control=1 value=118 time=28
note_off channel=4 note=52 velocity=0 time=8
note_off channel=5 note=64 velocity=0 time=4
note_on channel=4 note=64 velocity=99 time=72
note_on channel=4 note=57 velocity=80 time=0
note_on channel=4 note=60 velocity=92 time=0
note_on channel=9 note=40 velocity=117 time=4
note_on channel=4 note=52 velocity=90 time=0
note_on channel=5 note=76 velocity=99 time=0
control_change channel=8 control=1 value=117 time=0
note_on channel=5 note=69 velocity=80 time=0
note_on channel=5 note=72 velocity=92 time=0
note_off channel=9 note=40 velocity=0 time=4
note_on channel=1 note=33 velocity=111 time=0
note_on channel=5 note=64 velocity=90 time=0
note_on channel=9 note=42 velocity=111 time=0
note_off channel=9 note=42 velocity=0 time=4
control_change channel=8 control=1 value=116 time=4
note_off channel=1 note=28 velocity=0 time=4
control_change channel=8 control=1 value=117 time=8
control_change channel=8 control=1 value=111 time=20
control_change channel=8 control=1 value=112 time=8
control_change channel=8 control=1 value=113 time=4
control_change channel=8 control=1 value=112 time=12
control_change channel=8 control=1 value=110 time=8
control_change channel=8 control=1 value=102 time=8
control_change channel=8 control=1 value=100 time=4
control_change channel=8 control=1 value=93 time=12
control_change channel=8 control=1 value=84 time=8
control_change channel=8 control=1 value=86 time=8
control_change channel=8 control=1 value=83 time=8
control_change channel=8 control=1 value=49 time=8
control_change channel=8 control=1 value=30 time=8
control_change channel=8 control=1 value=4 time=8
control_change channel=8 control=1 value=0 time=8
note_off channel=1 note=33 velocity=0 time=32
note_on channel=9 note=42 velocity=101 time=8
note_off channel=9 note=42 velocity=0 time=4
note_off channel=4 note=57 velocity=0 time=88
note_off channel=4 note=60 velocity=0 time=0
note_on channel=9 note=42 velocity=103 time=4
note_on channel=1 note=33 velocity=103 time=0
note_off channel=5 note=69 velocity=0 time=0
note_off channel=5 note=72 velocity=0 time=0
note_off channel=9 note=42 velocity=0 time=4
note_off channel=4 note=64 velocity=0 time=0
note_off channel=5 note=76 velocity=0 time=0
note_off channel=4 note=52 velocity=0 time=8
note_off channel=5 note=64 velocity=0 time=4
pitchwheel channel=10 pitch=-760 time=0
pitchwheel channel=10 pitch=-1768 time=4
pitchwheel channel=10 pitch=-2524 time=8
note_off channel=10 note=72 velocity=0 time=4
pitchwheel channel=10 pitch=-3532 time=8
pitchwheel channel=10 pitch=-4792 time=8
pitchwheel channel=10 pitch=-7060 time=4
pitchwheel channel=10 pitch=-8192 time=12
pitchwheel channel=10 pitch=-8192 time=8
note_on channel=4 note=55 velocity=70 time=16
note_on channel=5 note=67 velocity=70 time=0
note_on channel=4 note=60 velocity=65 time=0
note_on channel=4 note=52 velocity=64 time=0
note_on channel=4 note=64 velocity=72 time=0
note_on channel=9 note=36 velocity=117 time=4
note_on channel=5 note=72 velocity=65 time=0
note_on channel=8 note=71 velocity=101 time=0
note_on channel=5 note=64 velocity=64 time=0
note_on channel=5 note=76 velocity=72 time=0
note_off channel=9 note=36 velocity=0 time=4
note_on channel=1 note=31 velocity=101 time=0
note_on channel=9 note=42 velocity=111 time=0
note_off channel=9 note=42 velocity=0 time=4
note_on channel=10 note=71 velocity=105 time=8
note_off channel=1 note=33 velocity=0 time=8
note_off channel=8 note=72 velocity=0 time=0
pitchwheel channel=10 pitch=-7942 time=12
pitchwheel channel=10 pitch=-6556 time=16
pitchwheel channel=10 pitch=-1516 time=8
pitchwheel channel=10 pitch=0 time=8
note_off channel=4 note=60 velocity=0 time=40
note_off channel=4 note=64 velocity=0 time=0
note_off channel=1 note=31 velocity=0 time=4
note_off channel=5 note=72 velocity=0 time=0
note_off channel=5 note=76 velocity=0 time=0
note_off channel=4 note=55 velocity=0 time=8
note_off channel=5 note=67 velocity=0 time=0
note_off channel=4 note=52 velocity=0 time=4
note_off channel=5 note=64 velocity=0 time=4
note_on channel=9 note=36 velocity=113 time=60
note_on channel=4 note=55 velocity=85 time=0
note_on channel=5 note=67 velocity=85 time=0
note_on channel=4 note=64 velocity=86 time=0
note_on channel=4 note=60 velocity=81 time=0
note_on channel=4 note=52 velocity=80 time=0
note_off channel=9 note=36 velocity=0 time=4
note_on channel=5 note=76 velocity=86 time=0
note_on channel=5 note=72 velocity=81 time=0
note_on channel=5 note=64 velocity=80 time=0
note_on channel=9 note=42 velocity=113 time=4
note_on channel=1 note=31 velocity=97 time=0
note_off channel=9 note=42 velocity=0 time=4
note_off channel=4 note=60 velocity=0 time=92
note_off channel=5 note=72 velocity=0 time=0
note_off channel=4 note=64 velocity=0 time=4
note_off channel=5 note=76 velocity=0 time=0
note_off channel=4 note=55 velocity=0 time=4
note_off channel=5 note=67 velocity=0 time=0
note_off channel=4 note=52 velocity=0 time=0
note_off channel=5 note=64 velocity=0 time=4
note_off channel=1 note=31 velocity=0 time=60
note_on channel=4 note=52 velocity=95 time=12
note_on channel=5 note=64 velocity=95 time=0
note_on channel=4 note=55 velocity=101 time=4
note_on channel=4 note=64 velocity=95 time=0
note_on channel=4 note=60 velocity=97 time=0
note_on channel=9 note=40 velocity=115 time=4
note_on channel=5 note=67 velocity=101 time=0
note_on channel=5 note=76 velocity=95 time=0
note_on channel=5 note=72 velocity=97 time=0
note_off channel=9 note=40 velocity=0 time=4
note_on channel=1 note=38 velocity=111 time=0
note_on channel=9 note=42 velocity=113 time=0
note_off channel=9 note=42 velocity=0 time=4
note_off channel=1 note=38 velocity=0 time=76
note_off channel=10 note=71 velocity=0 time=0
pitchwheel channel=10 pitch=-1264 time=8
note_on channel=1 note=31 velocity=99 time=8
pitchwheel channel=10 pitch=-2020 time=0
note_off channel=4 note=60 velocity=0 time=4
note_off channel=5 note=72 velocity=0 time=0
pitchwheel channel=10 pitch=-3154 time=8
pitchwheel channel=10 pitch=-4918 time=8
note_off channel=4 note=64 velocity=0 time=4
note_off channel=5 note=76 velocity=0 time=0
note_off channel=4 note=52 velocity=0 time=4
pitchwheel channel=10 pitch=-5800 time=0
note_off channel=4 note=55 velocity=0 time=0
note_off channel=5 note=64 velocity=0 time=4
note_off channel=5 note=67 velocity=0 time=0
pitchwheel channel=10 pitch=-6682 time=8
pitchwheel channel=10 pitch=-8192 time=8
pitchwheel channel=10 pitch=-8192 time=4
pitchwheel channel=10 pitch=-8192 time=12
note_off channel=8 note=71 velocity=0 time=4
control_change channel=8 control=1 value=105 time=0
control_change channel=8 control=1 value=119 time=12
note_on channel=4 note=52 velocity=87 time=8
note_on channel=8 note=72 velocity=95 time=0
note_on channel=10 note=72 velocity=105 time=0
note_on channel=4 note=55 velocity=93 time=0
note_on channel=4 note=64 velocity=90 time=0
note_on channel=9 note=42 velocity=81 time=4
note_off channel=1 note=31 velocity=0 time=0
note_on channel=4 note=60 velocity=86 time=0
note_on channel=5 note=64 velocity=87 time=0
control_change channel=8 control=1 value=109 time=0
note_on channel=1 note=29 velocity=87 time=0
note_on channel=5 note=67 velocity=93 time=0
note_on channel=5 note=76 velocity=90 time=0
note_off channel=9 note=42 velocity=0 time=4
note_on channel=5 note=72 velocity=86 time=0
control_change channel=8 control=1 value=108 time=12
pitchwheel channel=10 pitch=-8192 time=0
control_change channel=8 control=1 value=100 time=12
pitchwheel channel=10 pitch=-5548 time=0
control_change channel=8 control=1 value=102 time=8
pitchwheel channel=10 pitch=-2902 time=0
control_change channel=8 control=1 value=103 time=12
pitchwheel channel=10 pitch=0 time=0
control_change channel=8 control=1 value=94 time=8
control_change channel=8 control=1 value=84 time=8
control_change channel=8 control=1 value=79 time=8
note_off channel=4 note=60 velocity=0 time=8
note_off channel=5 note=72 velocity=0 time=4
control_change channel=8 control=1 value=83 time=0
control_change channel=8 control=1 value=86 time=4
note_off channel=4 note=55 velocity=0 time=4
note_off channel=5 note=67 velocity=0 time=0
note_off channel=4 note=64 velocity=0 time=4
note_on channel=9 note=42 velocity=103 time=4
note_off channel=5 note=76 velocity=0 time=0
control_change channel=8 control=1 value=88 time=0
note_off channel=9 note=42 velocity=0 time=0
note_on channel=9 note=36 velocity=87 time=0
note_off channel=9 note=36 velocity=0 time=4
note_off channel=1 note=29 velocity=0 time=4
control_change channel=8 control=1 value=91 time=0
control_change channel=8 control=1 value=92 time=8
control_change channel=8 control=1 value=91 time=12
control_change channel=8 control=1 value=89 time=4
note_off channel=4 note=52 velocity=0 time=8
note_off channel=5 note=64 velocity=0 time=0
control_change channel=8 control=1 value=85 time=0
control_change channel=8 control=1 value=73 time=12
control_change channel=8 control=1 value=41 time=8
control_change channel=8 control=1 value=5 time=8
control_change channel=8 control=1 value=0 time=12
note_on channel=4 note=57 velocity=62 time=8
note_on channel=5 note=69 velocity=62 time=0
note_on channel=4 note=53 velocity=72 time=0
note_on channel=5 note=65 velocity=72 time=0
note_on channel=4 note=60 velocity=66 time=0
note_on channel=4 note=64 velocity=72 time=0
note_on channel=1 note=29 velocity=105 time=4
note_on channel=5 note=72 velocity=66 time=0
note_on channel=5 note=76 velocity=72 time=0
note_on channel=9 note=42 velocity=113 time=4
note_off channel=9 note=42 velocity=0 time=0
note_on channel=9 note=36 velocity=115 time=0
note_off channel=9 note=36 velocity=0 time=4
note_off channel=4 note=64 velocity=0 time=76
note_off channel=5 note=76 velocity=0 time=0
note_off channel=4 note=60 velocity=0 time=4
note_off channel=5 note=72 velocity=0 time=0
note_off channel=4 note=57 velocity=0 time=8
note_off channel=1 note=29 velocity=0 time=4
note_off channel=5 note=69 velocity=0 time=0
note_off channel=4 note=53 velocity=0 time=20
note_off channel=5 note=65 velocity=0 time=0
note_on channel=4 note=53 velocity=63 time=64
note_on channel=5 note=65 velocity=63 time=0
note_on channel=4 note=57 velocity=48 time=4
note_on channel=5 note=69 velocity=48 time=0
note_on channel=1 note=29 velocity=101 time=4
note_on channel=4 note=64 velocity=49 time=0
note_on channel=4 note=60 velocity=38 time=0
note_on channel=9 note=42 velocity=105 time=4
note_on channel=5 note=76 velocity=49 time=0
note_on channel=5 note=72 velocity=38 time=0
note_off channel=9 note=42 velocity=0 time=4
note_off channel=4 note=60 velocity=0 time=60
note_off channel=5 note=72 velocity=0 time=0
note_off channel=4 note=64 velocity=0 time=8
note_off channel=5 note=76 velocity=0 time=4
note_off channel=1 note=29 velocity=0 time=4
note_off channel=4 note=57 velocity=0 time=12
note_off channel=5 note=69 velocity=0 time=4
note_off channel=4 note=53 velocity=0 time=8
note_off channel=10 note=72 velocity=0 time=0
note_off channel=5 note=65 velocity=0 time=4
pitchwheel channel=10 pitch=-760 time=4
pitchwheel channel=10 pitch=-1516 time=8
pitchwheel channel=10 pitch=-2776 time=8
pitchwheel channel=10 pitch=-4540 time=8
pitchwheel channel=10 pitch=-7690 time=8
pitchwheel channel=10 pitch=-8192 time=12
pitchwheel channel=10 pitch=-8192 time=4
pitchwheel channel=10 pitch=-8192 time=8
note_on channel=10 note=71 velocity=109 time=12
note_on channel=4 note=53 velocity=93 time=4
note_on channel=4 note=57 velocity=97 time=0
note_on channel=4 note=60 velocity=99 time=0
note_on channel=9 note=40 velocity=117 time=4
note_on channel=1 note=29 velocity=99 time=0
note_on channel=4 note=64 velocity=99 time=0
note_on channel=5 note=65 velocity=93 time=0
note_on channel=8 note=71 velocity=101 time=0
note_on channel=5 note=69 velocity=97 time=0
note_on channel=5 note=72 velocity=99 time=0
note_off channel=9 note=40 velocity=0 time=4
note_on channel=5 note=76 velocity=99 time=0
note_on channel=9 note=42 velocity=107 time=0
note_off channel=9 note=42 velocity=0 time=4
note_off channel=8 note=72 velocity=0 time=12
pitchwheel channel=10 pitch=-6304 time=0
pitchwheel channel=10 pitch=-3280 time=8
pitchwheel channel=10 pitch=0 time=8
note_off channel=1 note=29 velocity=0 time=116
note_on channel=9 note=42 velocity=89 time=40
note_off channel=9 note=42 velocity=0 time=4
note_on channel=9 note=42 velocity=105 time=88
note_on channel=1 note=33 velocity=87 time=0
note_off channel=9 note=42 velocity=0 time=4
note_on channel=9 note=36 velocity=117 time=92
note_off channel=9 note=36 velocity=0 time=4
note_on channel=9 note=42 velocity=109 time=4
note_on channel=1 note=36 velocity=97 time=0
note_off channel=9 note=42 velocity=0 time=4
note_off channel=1 note=33 velocity=0 time=16
note_off channel=4 note=60 velocity=0 time=52
note_off channel=5 note=72 velocity=0 time=0
pitchwheel channel=10 pitch=-634 time=12
note_off channel=10 note=71 velocity=0 time=4
note_on channel=1 note=41 velocity=111 time=4
note_off channel=4 note=64 velocity=0 time=0
pitchwheel channel=10 pitch=-1264 time=0
note_off channel=1 note=36 velocity=0 time=4
note_off channel=4 note=57 velocity=0 time=0
note_off channel=5 note=69 velocity=0 time=0
note_off channel=5 note=76 velocity=0 time=0
pitchwheel channel=10 pitch=-2650 time=12
pitchwheel channel=10 pitch=-3658 time=4
note_off channel=4 note=53 velocity=0 time=8
note_off channel=5 note=65 velocity=0 time=0
pitchwheel channel=10 pitch=-5674 time=0
note_off channel=1 note=41 velocity=0 time=8
pitchwheel channel=10 pitch=-6934 time=4
pitchwheel channel=10 pitch=-8068 time=8
pitchwheel channel=10 pitch=-8192 time=4
note_off channel=8 note=71 velocity=0 time=28
note_on channel=10 note=72 velocity=105 time=4
pitchwheel channel=10 pitch=-8068 time=0
note_on channel=4 note=53 velocity=54 time=4
note_on channel=5 note=65 velocity=54 time=0
note_on channel=8 note=72 velocity=87 time=0
note_on channel=4 note=57 velocity=60 time=0
note_on channel=5 note=69 velocity=60 time=0
control_change channel=8 control=1 value=122 time=0
note_on channel=4 note=64 velocity=66 time=4
note_on channel=5 note=76 velocity=66 time=0
note_on channel=4 note=60 velocity=52 time=0
note_on channel=1 note=41 velocity=111 time=4
note_on channel=5 note=72 velocity=52 time=0
control_change channel=8 control=1 value=120 time=0
note_on channel=9 note=42 velocity=109 time=4
pitchwheel channel=10 pitch=-4918 time=0
note_off channel=9 note=42 velocity=0 time=4
control_change channel=8 control=1 value=111 time=8
pitchwheel channel=10 pitch=0 time=4
control_change channel=8 control=1 value=109 time=4
control_change channel=8 control=1 value=104 time=12
note_off channel=4 note=60 velocity=0 time=4
note_off channel=5 note=72 velocity=0 time=0
control_change channel=8 control=1 value=99 time=4
control_change channel=8 control=1 value=92 time=8
control_change channel=8 control=1 value=75 time=8
note_off channel=4 note=64 velocity=0 time=12
note_off channel=5 note=76 velocity=0 time=0
control_change channel=8 control=1 value=44 time=0
note_off channel=4 note=57 velocity=0 time=8
control_change channel=8 control=1 value=45 time=0
note_off channel=5 note=69 velocity=0 time=4
control_change channel=8 control=1 value=49 time=4
note_on channel=1 note=36 velocity=107 time=8
note_off channel=1 note=41 velocity=0 time=4
control_change channel=8 control=1 value=54 time=0
note_off channel=4 note=53 velocity=0 time=12
control_change channel=8 control=1 value=46 time=0
note_off channel=5 note=65 velocity=0 time=4
control_change channel=8 control=1 value=57 time=8
control_change channel=8 control=1 value=69 time=8
control_change channel=8 control=1 value=60 time=8
note_off channel=1 note=36 velocity=0 time=8
control_change channel=8 control=1 value=51 time=4
control_change channel=8 control=1 value=29 time=12
control_change channel=8 control=1 value=13 time=8
control_change channel=8 control=1 value=5 time=8
note_on channel=4 note=53 velocity=92 time=4
note_on channel=5 note=65 velocity=92 time=0
note_on channel=4 note=57 velocity=93 time=4
note_on channel=5 note=69 velocity=93 time=0
control_change channel=8 control=1 value=3 time=0
note_on channel=4 note=64 velocity=101 time=0
note_on channel=4 note=60 velocity=95 time=0
note_on channel=9 note=40 velocity=115 time=4
note_on channel=1 note=36 velocity=103 time=0
note_on channel=5 note=76 velocity=101 time=0
note_on channel=5 note=72 velocity=95 time=0
note_off channel=9 note=40 velocity=0 time=4
note_on channel=9 note=42 velocity=113 time=0
note_off channel=9 note=42 velocity=0 time=0
control_change channel=8 control=1 value=0 time=8
note_on channel=1 note=41 velocity=117 time=84
note_off channel=1 note=36 velocity=0 time=4
note_off channel=4 note=60 velocity=0 time=0
note_off channel=5 note=72 velocity=0 time=0
note_off channel=4 note=64 velocity=0 time=12
note_off channel=4 note=53 velocity=0 time=4
note_off channel=5 note=65 velocity=0 time=0
note_off channel=4 note=57 velocity=0 time=0
note_off channel=5 note=69 velocity=0 time=0
note_off channel=5 note=76 velocity=0 time=0
note_off channel=10 note=72 velocity=0 time=40
note_on channel=6 note=60 velocity=103 time=16
note_off channel=1 note=41 velocity=0 time=8
note_on channel=4 note=53 velocity=83 time=4
note_on channel=5 note=65 velocity=83 time=0
note_on channel=4 note=55 velocity=71 time=0
note_on channel=5 note=67 velocity=71 time=0
note_on channel=4 note=57 velocity=78 time=0
note_on channel=5 note=69 velocity=78 time=0
note_on channel=4 note=64 velocity=95 time=4
note_on channel=8 note=74 velocity=113 time=0
note_on channel=4 note=60 velocity=89 time=0
note_on channel=9 note=42 velocity=107 time=4
note_on channel=1 note=29 velocity=90 time=0
note_on channel=5 note=76 velocity=95 time=0
note_on channel=5 note=72 velocity=89 time=0
note_off channel=9 note=42 velocity=0 time=4
pitchwheel channel=10 pitch=-5548 time=8
note_on channel=10 note=74 velocity=113 time=4
note_off channel=6 note=60 velocity=0 time=4
note_off channel=8 note=72 velocity=0 time=0
pitchwheel channel=10 pitch=-8192 time=8
pitchwheel channel=10 pitch=-7312 time=28
pitchwheel channel=10 pitch=-4414 time=12
pitchwheel channel=10 pitch=0 time=12
note_off channel=4 note=55 velocity=0 time=8
note_off channel=5 note=67 velocity=0 time=0
note_on channel=9 note=42 velocity=117 time=4
note_off channel=4 note=60 velocity=0 time=0
note_off channel=5 note=72 velocity=0 time=0
note_off channel=9 note=42 velocity=0 time=4
note_on channel=1 note=31 velocity=97 time=0
note_off channel=4 note=64 velocity=0 time=0
note_off channel=5 note=76 velocity=0 time=4
note_on channel=9 note=36 velocity=89 time=4
note_off channel=4 note=57 velocity=0 time=0
note_off channel=5 note=69 velocity=0 time=0
note_off channel=9 note=36 velocity=0 time=4
note_off channel=4 note=53 velocity=0 time=0
note_off channel=5 note=65 velocity=0 time=4
note_off channel=1 note=29 velocity=0 time=8
note_on channel=4 note=52 velocity=90 time=68
note_on channel=4 note=57 velocity=90 time=0
note_on channel=4 note=60 velocity=90 time=0
note_on channel=4 note=64 velocity=92 time=0
note_on channel=9 note=51 velocity=97 time=4
note_on channel=5 note=64 velocity=90 time=0
note_on channel=5 note=69 velocity=90 time=0
note_on channel=5 note=72 velocity=90 time=0
note_on channel=5 note=76 velocity=92 time=0
note_off channel=9 note=51 velocity=0 time=4
note_on channel=1 note=33 velocity=111 time=0
note_on channel=9 note=36 velocity=113 time=0
MetaMessage('set_tempo', tempo=740740, time=4)
note_off channel=9 note=36 velocity=0 time=0
note_off channel=1 note=31 velocity=0 time=8
note_off channel=1 note=33 velocity=0 time=68
note_on channel=9 note=42 velocity=119 time=108
note_on channel=1 note=33 velocity=92 time=0
note_off channel=9 note=42 velocity=0 time=4
note_off channel=1 note=33 velocity=0 time=56
note_off channel=10 note=74 velocity=0 time=56
pitchwheel channel=10 pitch=-508 time=8
note_off channel=4 note=60 velocity=0 time=8
note_off channel=5 note=72 velocity=0 time=0
pitchwheel channel=10 pitch=-1264 time=0
note_off channel=4 note=64 velocity=0 time=4
note_off channel=5 note=76 velocity=0 time=0
note_off channel=4 note=57 velocity=0 time=4
note_off channel=5 note=69 velocity=0 time=4
pitchwheel channel=10 pitch=-2524 time=0
note_off channel=4 note=52 velocity=0 time=4
note_off channel=5 note=64 velocity=0 time=0
pitchwheel channel=10 pitch=-4162 time=0
pitchwheel channel=10 pitch=-5674 time=12
pitchwheel channel=10 pitch=-8192 time=4
note_on channel=4 note=57 velocity=93 time=24
note_on channel=1 note=33 velocity=117 time=4
note_on channel=4 note=52 velocity=80 time=0
note_on channel=5 note=69 velocity=93 time=0
note_on channel=8 note=72 velocity=92 time=0
note_on channel=10 note=72 velocity=103 time=0
note_on channel=4 note=64 velocity=99 time=0
note_on channel=4 note=60 velocity=93 time=0
MetaMessage('set_tempo', tempo=800000, time=4)
note_on channel=9 note=42 velocity=115 time=0
note_on channel=5 note=64 velocity=80 time=0
note_off channel=8 note=74 velocity=0 time=0
note_off channel=9 note=42 velocity=0 time=0
note_on channel=5 note=76 velocity=99 time=0
note_on channel=9 note=40 velocity=117 time=0
note_on channel=5 note=72 velocity=93 time=0
note_off channel=9 note=40 velocity=0 time=4
pitchwheel channel=10 pitch=-8068 time=12
pitchwheel channel=10 pitch=-4792 time=8
pitchwheel channel=10 pitch=-1138 time=8
pitchwheel channel=10 pitch=0 time=16
note_on channel=9 note=42 velocity=85 time=140
note_off channel=9 note=42 velocity=0 time=4
note_on channel=9 note=42 velocity=115 time=88
note_off channel=9 note=42 velocity=0 time=4
note_off channel=4 note=60 velocity=0 time=0
note_off channel=5 note=72 velocity=0 time=4
note_off channel=4 note=57 velocity=0 time=4
note_off channel=5 note=69 velocity=0 time=0
note_off channel=4 note=64 velocity=0 time=0
note_off channel=5 note=76 velocity=0 time=0
note_off channel=10 note=72 velocity=0 time=4
note_off channel=4 note=52 velocity=0 time=16
note_off channel=5 note=64 velocity=0 time=4
pitchwheel channel=10 pitch=-760 time=12
pitchwheel channel=10 pitch=-1516 time=8
pitchwheel channel=10 pitch=-4036 time=8
pitchwheel channel=10 pitch=-5422 time=8
pitchwheel channel=10 pitch=-8192 time=12
note_off channel=8 note=72 velocity=0 time=4
note_on channel=4 note=55 velocity=86 time=8
note_on channel=4 note=60 velocity=93 time=0
note_on channel=9 note=42 velocity=111 time=4
note_on channel=4 note=64 velocity=90 time=0
note_on channel=5 note=67 velocity=86 time=0
note_on channel=8 note=71 velocity=99 time=0
note_on channel=4 note=52 velocity=82 time=0
note_on channel=5 note=72 velocity=93 time=0
note_off channel=9 note=42 velocity=0 time=4
note_on channel=1 note=31 velocity=89 time=0
note_on channel=5 note=76 velocity=90 time=0
note_on channel=10 note=71 velocity=109 time=0
note_on channel=9 note=36 velocity=111 time=0
note_on channel=5 note=64 velocity=82 time=0
MetaMessage('set_tempo', tempo=857142, time=4)
note_off channel=9 note=36 velocity=0 time=0
note_off channel=1 note=33 velocity=0 time=12
pitchwheel channel=10 pitch=-8068 time=8
pitchwheel channel=10 pitch=-4162 time=8
pitchwheel channel=10 pitch=-634 time=12
note_off channel=1 note=31 velocity=0 time=4
pitchwheel channel=10 pitch=0 time=8
note_on channel=1 note=31 velocity=103 time=132
note_on channel=9 note=36 velocity=109 time=4
note_off channel=9 note=36 velocity=0 time=0
note_on channel=9 note=42 velocity=101 time=0
note_off channel=9 note=42 velocity=0 time=4
note_off channel=1 note=31 velocity=0 time=60
note_off channel=4 note=52 velocity=0 time=8
note_off channel=5 note=64 velocity=0 time=4
note_off channel=4 note=60 velocity=0 time=16
note_off channel=4 note=64 velocity=0 time=0
note_off channel=5 note=72 velocity=0 time=4
note_off channel=5 note=76 velocity=0 time=0
note_off channel=4 note=55 velocity=0 time=8
note_off channel=5 note=67 velocity=0 time=4
note_off channel=10 note=71 velocity=0 time=8
pitchwheel channel=10 pitch=-886 time=20
pitchwheel channel=10 pitch=-2650 time=8
pitchwheel channel=10 pitch=-7312 time=12
pitchwheel channel=10 pitch=-8192 time=4
note_on channel=9 note=42 velocity=109 time=24
note_on channel=4 note=55 velocity=99 time=0
note_on channel=4 note=52 velocity=93 time=0
note_off channel=9 note=42 velocity=0 time=4
note_on channel=1 note=31 velocity=111 time=0
note_on channel=4 note=64 velocity=95 time=0
note_on channel=5 note=67 velocity=99 time=0
note_on channel=8 note=74 velocity=105 time=0
note_on channel=4 note=60 velocity=92 time=0
note_on channel=5 note=64 velocity=93 time=0
note_on channel=9 note=40 velocity=115 time=4
note_on channel=5 note=76 velocity=95 time=0
note_on channel=10 note=74 velocity=107 time=0
note_on channel=5 note=72 velocity=92 time=0
note_off channel=9 note=40 velocity=0 time=4
MetaMessage('set_tempo', tempo=923076, time=8)
note_off channel=8 note=71 velocity=0 time=4
pitchwheel channel=10 pitch=-7690 time=28
pitchwheel channel=10 pitch=-4540 time=12
pitchwheel channel=10 pitch=-2020 time=8
pitchwheel channel=10 pitch=-382 time=8
pitchwheel channel=10 pitch=0 time=8
note_on channel=9 note=42 velocity=97 time=108
note_off channel=9 note=42 velocity=0 time=4
note_off channel=4 note=55 velocity=0 time=68
note_off channel=5 note=67 velocity=0 time=0
note_off channel=4 note=60 velocity=0 time=0
note_off channel=5 note=72 velocity=0 time=0
note_off channel=4 note=64 velocity=0 time=8
note_off channel=5 note=76 velocity=0 time=4
note_on channel=9 note=42 velocity=115 time=12
note_off channel=9 note=42 velocity=0 time=4
note_off channel=4 note=52 velocity=0 time=4
note_off channel=5 note=64 velocity=0 time=0
note_off channel=10 note=74 velocity=0 time=12
note_off channel=1 note=31 velocity=0 time=16
pitchwheel channel=10 pitch=-886 time=24
pitchwheel channel=10 pitch=-2524 time=8
pitchwheel channel=10 pitch=-4162 time=4
note_off channel=8 note=74 velocity=0 time=8
pitchwheel channel=10 pitch=-5926 time=0
pitchwheel channel=10 pitch=-7816 time=8
note_on channel=4 note=57 velocity=99 time=4
note_on channel=8 note=72 velocity=97 time=0
note_on channel=4 note=60 velocity=99 time=0
note_on channel=9 note=49 velocity=109 time=4
note_on channel=1 note=29 velocity=115 time=0
note_on channel=4 note=64 velocity=97 time=0
note_on channel=5 note=69 velocity=99 time=0
note_on channel=4 note=53 velocity=93 time=0
note_on channel=5 note=72 velocity=99 time=0
note_off channel=9 note=49 velocity=0 time=4
note_on channel=5 note=76 velocity=97 time=0
pitchwheel channel=10 pitch=-8192 time=0
note_on channel=9 note=36 velocity=117 time=0
note_on channel=5 note=65 velocity=93 time=0
note_off channel=9 note=36 velocity=0 time=4
note_on channel=10 note=72 velocity=101 time=0
pitchwheel channel=10 pitch=-8192 time=36
pitchwheel channel=10 pitch=-7816 time=8
pitchwheel channel=10 pitch=-4162 time=8
pitchwheel channel=10 pitch=-1642 time=12
pitchwheel channel=10 pitch=0 time=12
control_change channel=8 control=1 value=18 time=176
control_change channel=8 control=1 value=37 time=16
control_change channel=8 control=1 value=45 time=4
control_change channel=8 control=1 value=55 time=8
control_change channel=8 control=1 value=74 time=8
control_change channel=8 control=1 value=72 time=8
control_change channel=8 control=1 value=64 time=8
control_change channel=8 control=1 value=75 time=8
control_change channel=8 control=1 value=91 time=20
control_change channel=8 control=1 value=93 time=4
control_change channel=8 control=1 value=95 time=12
control_change channel=8 control=1 value=97 time=8
control_change channel=8 control=1 value=95 time=8
control_change channel=8 control=1 value=79 time=12
control_change channel=8 control=1 value=46 time=4
control_change channel=8 control=1 value=6 time=8
control_change channel=8 control=1 value=0 time=8
control_change channel=8 control=1 value=10 time=96
control_change channel=8 control=1 value=80 time=12
control_change channel=8 control=1 value=89 time=4
control_change channel=8 control=1 value=85 time=20
control_change channel=8 control=1 value=73 time=8
control_change channel=8 control=1 value=7 time=4
control_change channel=8 control=1 value=0 time=8
control_change channel=8 control=1 value=12 time=76
control_change channel=8 control=1 value=93 time=12
control_change channel=8 control=1 value=75 time=8
control_change channel=8 control=1 value=43 time=8
control_change channel=8 control=1 value=8 time=8
control_change channel=8 control=1 value=0 time=8
control_change channel=8 control=1 value=49 time=56
control_change channel=8 control=1 value=95 time=8
control_change channel=8 control=1 value=89 time=16
control_change channel=8 control=1 value=76 time=8
control_change channel=8 control=1 value=57 time=8
MetaMessage('lyrics', text='\r', time=0)
MetaMessage('lyrics', text='And', time=8)
note_on channel=0 note=72 velocity=111 time=0
control_change channel=8 control=1 value=47 time=0
control_change channel=8 control=1 value=40 time=8
control_change channel=8 control=1 value=0 time=8
control_change channel=8 control=1 value=7 time=40
control_change channel=8 control=1 value=24 time=8
control_change channel=8 control=1 value=32 time=8
control_change channel=8 control=1 value=0 time=12
control_change channel=8 control=1 value=47 time=40
control_change channel=8 control=1 value=76 time=12
control_change channel=8 control=1 value=49 time=4
control_change channel=8 control=1 value=2 time=12
control_change channel=8 control=1 value=0 time=4
control_change channel=8 control=1 value=33 time=44
control_change channel=8 control=1 value=5 time=4
control_change channel=8 control=1 value=0 time=8
control_change channel=8 control=1 value=2 time=56
control_change channel=8 control=1 value=39 time=12
control_change channel=8 control=1 value=42 time=4
control_change channel=8 control=1 value=5 time=12
control_change channel=8 control=1 value=0 time=8
MetaMessage('lyrics', text=" she's", time=72)
note_off channel=0 note=72 velocity=0 time=0
note_on channel=0 note=74 velocity=113 time=0
note_on channel=6 note=60 velocity=97 time=132
note_off channel=6 note=60 velocity=0 time=28
note_off channel=0 note=74 velocity=0 time=216
MetaMessage('lyrics', text=' buy', time=4)
note_on channel=0 note=76 velocity=103 time=0
note_off channel=10 note=72 velocity=0 time=16
note_off channel=8 note=72 velocity=0 time=88
note_off channel=0 note=76 velocity=0 time=264
MetaMessage('lyrics', text='ing', time=8)
note_on channel=0 note=74 velocity=89 time=0
MetaMessage('lyrics', text=' a', time=384)
note_on channel=0 note=72 velocity=97 time=0
note_off channel=0 note=74 velocity=0 time=16
MetaMessage('lyrics', text=' sta', time=384)
note_off channel=0 note=72 velocity=0 time=0
note_on channel=0 note=71 velocity=86 time=0
note_off channel=1 note=29 velocity=0 time=332
MetaMessage('lyrics', text='i', time=64)
note_on channel=0 note=72 velocity=97 time=0
note_off channel=0 note=71 velocity=0 time=16
MetaMessage('lyrics', text='r', time=188)
note_on channel=0 note=71 velocity=90 time=0
note_off channel=0 note=72 velocity=0 time=12
note_off channel=0 note=71 velocity=0 time=180
MetaMessage('lyrics', text='way', time=4)
note_on channel=0 note=69 velocity=69 time=0
note_off channel=0 note=69 velocity=0 time=84
MetaMessage('lyrics', text=' to', time=12)
note_on channel=0 note=67 velocity=95 time=0
note_off channel=4 note=53 velocity=0 time=188
note_off channel=4 note=57 velocity=0 time=4
note_off channel=5 note=65 velocity=0 time=0
note_off channel=4 note=60 velocity=0 time=0
note_off channel=5 note=69 velocity=0 time=0
note_off channel=5 note=72 velocity=0 time=0
note_off channel=4 note=64 velocity=0 time=4
note_off channel=5 note=76 velocity=0 time=0
note_off channel=0 note=67 velocity=0 time=592
MetaMessage('lyrics', text=' he', time=224)
note_on channel=0 note=67 velocity=99 time=0
MetaMessage('lyrics', text='a', time=368)
note_on channel=0 note=72 velocity=89 time=0
note_off channel=0 note=67 velocity=0 time=4
note_off channel=0 note=72 velocity=0 time=200
MetaMessage('lyrics', text='ven', time=12)
note_on channel=0 note=67 velocity=61 time=0
note_off channel=0 note=67 velocity=0 time=200
note_on channel=0 note=69 velocity=89 time=0
note_off channel=0 note=69 velocity=0 time=1496
note_on channel=0 note=12 velocity=1 time=420
note_off channel=0 note=12 velocity=64 time=1408
note_on channel=0 note=12 velocity=1 time=128
note_off channel=0 note=12 velocity=64 time=1408
note_on channel=0 note=12 velocity=1 time=128
note_off channel=0 note=12 velocity=0 time=1408
note_on channel=0 note=12 velocity=1 time=128
note_off channel=0 note=12 velocity=0 time=1408
MetaMessage('end_of_track', time=0)
