0, 0, Header, 1, 1, 480
1, 0, Start_track
1, 0, Note_on_c, 0, 61, 64
1, 480, Note_off_c, 0, 61, 64
1, 508, Note_on_c, 0, 64, 64
1, 988, Note_off_c, 0, 64, 64
1, 1189, Note_on_c, 0, 64, 64
1, 1669, Note_off_c, 0, 64, 64
1, 1669, Note_on_c, 0, 45, 64
1, 2149, Note_off_c, 0, 45, 64
1, 2379, Note_on_c, 0, 61, 64
1, 2859, Note_off_c, 0, 61, 64
1, 2859, Note_on_c, 0, 57, 64
1, 3339, Note_off_c, 0, 57, 64
1, 3569, Note_on_c, 0, 61, 64
1, 4049, Note_off_c, 0, 61, 64
1, 4049, Note_on_c, 0, 57, 64
1, 4529, Note_off_c, 0, 57, 64
1, 4759, Note_on_c, 0, 66, 64
1, 5239, Note_off_c, 0, 66, 64
1, 5239, Note_on_c, 0, 40, 64
1, 5719, Note_off_c, 0, 40, 64
1, 5949, Note_on_c, 0, 61, 64
1, 6429, Note_off_c, 0, 61, 64
1, 6429, Note_on_c, 0, 57, 64
1, 6909, Note_off_c, 0, 57, 64
1, 7139, Note_on_c, 0, 61, 64
1, 7619, Note_off_c, 0, 61, 64
1, 7619, Note_on_c, 0, 57, 64
1, 8099, Note_off_c, 0, 57, 64
1, 8329, Note_on_c, 0, 66, 64
1, 8809, Note_off_c, 0, 66, 64
1, 8809, Note_on_c, 0, 45, 64
1, 9289, Note_off_c, 0, 45, 64
1, 9519, Note_on_c, 0, 61, 64
1, 9999, Note_off_c, 0, 61, 64
1, 9999, Note_on_c, 0, 57, 64
1, 10479, Note_off_c, 0, 57, 64
1, 10709, Note_on_c, 0, 61, 64
1, 11189, Note_off_c, 0, 61, 64
1, 11189, Note_on_c, 0, 57, 64
1, 11669, Note_off_c, 0, 57, 64
1, 11899, Note_on_c, 0, 68, 64
1, 12379, Note_off_c, 0, 68, 64
1, 12379, Note_on_c, 0, 40, 64
1, 12859, Note_off_c, 0, 40, 64
1, 13089, Note_on_c, 0, 61, 64
1, 13569, Note_off_c, 0, 61, 64
1, 13569, Note_on_c, 0, 57, 64
1, 14049, Note_off_c, 0, 57, 64
1, 14279, Note_on_c, 0, 61, 64
1, 14759, Note_off_c, 0, 61, 64
1, 14759, Note_on_c, 0, 57, 64
1, 15239, Note_off_c, 0, 57, 64
1, 15469, Note_on_c, 0, 68, 64
1, 15949, Note_off_c, 0, 68, 64
1, 15949, Note_on_c, 0, 45, 64
1, 16429, Note_off_c, 0, 45, 64
1, 16659, Note_on_c, 0, 61, 64
1, 17139, Note_off_c, 0, 61, 64
1, 17139, Note_on_c, 0, 57, 64
1, 17619, Note_off_c, 0, 57, 64
1, 17849, Note_on_c, 0, 69, 64
1, 18329, Note_off_c, 0, 69, 64
1, 18329, Note_on_c, 0, 61, 64
1, 18809, Note_off_c, 0, 61, 64
1, 18809, Note_on_c, 0, 57, 64
1, 19289, Note_off_c, 0, 57, 64
1, 19519, Note_on_c, 0, 69, 64
1, 19999, Note_off_c, 0, 69, 64
1, 19999, Note_on_c, 0, 40, 64
1, 20479, Note_off_c, 0, 40, 64
1, 20709, Note_on_c, 0, 61, 64
1, 21189, Note_off_c, 0, 61, 64
1, 21189, Note_on_c, 0, 57, 64
1, 21669, Note_off_c, 0, 57, 64
1, 21899, Note_on_c, 0, 68, 64
1, 22379, Note_off_c, 0, 68, 64
1, 22379, Note_on_c, 0, 61, 64
1, 22859, Note_off_c, 0, 61, 64
1, 22859, Note_on_c, 0, 57, 64
1, 23339, Note_off_c, 0, 57, 64
1, 23569, Note_on_c, 0, 68, 64
1, 24049, Note_off_c, 0, 68, 64
1, 24049, Note_on_c, 0, 47, 64
1, 24529, Note_off_c, 0, 47, 64
1, 24557, Note_on_c, 0, 66, 64
1, 25037, Note_off_c, 0, 66, 64
1, 25238, Note_on_c, 0, 59, 64
1, 25718, Note_off_c, 0, 59, 64
1, 25718, Note_on_c, 0, 62, 64
1, 26198, Note_off_c, 0, 62, 64
1, 26428, Note_on_c, 0, 59, 64
1, 26908, Note_off_c, 0, 59, 64
1, 26908, Note_on_c, 0, 62, 64
1, 27388, Note_off_c, 0, 62, 64
1, 27618, Note_on_c, 0, 47, 64
1, 28098, Note_off_c, 0, 47, 64
1, 28328, Note_on_c, 0, 49, 64
1, 28808, Note_off_c, 0, 49, 64
1, 29038, Note_on_c, 0, 50, 64
1, 29518, Note_off_c, 0, 50, 64
1, 29748, Note_on_c, 0, 66, 64
1, 30228, Note_off_c, 0, 66, 64
1, 30228, Note_on_c, 0, 40, 64
1, 30708, Note_off_c, 0, 40, 64
1, 30938, Note_on_c, 0, 59, 64
1, 31418, Note_off_c, 0, 59, 64
1, 31418, Note_on_c, 0, 62, 64
1, 31898, Note_off_c, 0, 62, 64
1, 32128, Note_on_c, 0, 59, 64
1, 32608, Note_off_c, 0, 59, 64
1, 32608, Note_on_c, 0, 62, 64
1, 33088, Note_off_c, 0, 62, 64
1, 33318, Note_on_c, 0, 68, 64
1, 33798, Note_off_c, 0, 68, 64
1, 33798, Note_on_c, 0, 47, 64
1, 34278, Note_off_c, 0, 47, 64
1, 34508, Note_on_c, 0, 59, 64
1, 34988, Note_off_c, 0, 59, 64
1, 34988, Note_on_c, 0, 62, 64
1, 35468, Note_off_c, 0, 62, 64
1, 35698, Note_on_c, 0, 69, 64
1, 36178, Note_off_c, 0, 69, 64
1, 36178, Note_on_c, 0, 59, 64
1, 36658, Note_off_c, 0, 59, 64
1, 36658, Note_on_c, 0, 62, 64
1, 37138, Note_off_c, 0, 62, 64
1, 37368, Note_on_c, 0, 40, 64
1, 37848, Note_off_c, 0, 40, 64
1, 38078, Note_on_c, 0, 68, 64
1, 38558, Note_off_c, 0, 68, 64
1, 38558, Note_on_c, 0, 62, 64
1, 39038, Note_off_c, 0, 62, 64
1, 39268, Note_on_c, 0, 68, 64
1, 39748, Note_off_c, 0, 68, 64
1, 39748, Note_on_c, 0, 62, 64
1, 40228, Note_off_c, 0, 62, 64
1, 40458, Note_on_c, 0, 71, 64
1, 40938, Note_off_c, 0, 71, 64
1, 40938, Note_on_c, 0, 52, 64
1, 41418, Note_off_c, 0, 52, 64
1, 41648, Note_on_c, 0, 68, 64
1, 42128, Note_off_c, 0, 68, 64
1, 42128, Note_on_c, 0, 62, 64
1, 42608, Note_off_c, 0, 62, 64
1, 42838, Note_on_c, 0, 68, 64
1, 43318, Note_off_c, 0, 68, 64
1, 43318, Note_on_c, 0, 62, 64
1, 43798, Note_off_c, 0, 62, 64
1, 44028, Note_on_c, 0, 40, 64
1, 44508, Note_off_c, 0, 40, 64
1, 44738, Note_on_c, 0, 66, 64
1, 45218, Note_off_c, 0, 66, 64
1, 45448, Note_on_c, 0, 68, 64
1, 45928, Note_off_c, 0, 68, 64
1, 46158, Note_on_c, 0, 40, 64
1, 46638, Note_off_c, 0, 40, 64
1, 46753, Note_on_c, 0, 71, 64
1, 47233, Note_off_c, 0, 71, 64
1, 47348, Note_on_c, 0, 62, 64
1, 47828, Note_off_c, 0, 62, 64
1, 48058, Note_on_c, 0, 64, 64
1, 48538, Note_off_c, 0, 64, 64
1, 48768, Note_on_c, 0, 71, 64
1, 49248, Note_off_c, 0, 71, 64
1, 49248, Note_on_c, 0, 45, 64
1, 49728, Note_off_c, 0, 45, 64
1, 49843, Note_on_c, 0, 69, 64
1, 50323, Note_off_c, 0, 69, 64
1, 50438, Note_on_c, 0, 61, 64
1, 50918, Note_off_c, 0, 61, 64
1, 51148, Note_on_c, 0, 64, 64
1, 51628, Note_off_c, 0, 64, 64
1, 51858, Note_on_c, 0, 57, 64
1, 52338, Note_off_c, 0, 57, 64
1, 52798, Note_on_c, 0, 61, 64
1, 53278, Note_off_c, 0, 61, 64
1, 53306, Note_on_c, 0, 64, 64
1, 53786, Note_off_c, 0, 64, 64
1, 53987, Note_on_c, 0, 64, 64
1, 54467, Note_off_c, 0, 64, 64
1, 54467, Note_on_c, 0, 45, 64
1, 54947, Note_off_c, 0, 45, 64
1, 55177, Note_on_c, 0, 61, 64
1, 55657, Note_off_c, 0, 61, 64
1, 55657, Note_on_c, 0, 57, 64
1, 56137, Note_off_c, 0, 57, 64
1, 56367, Note_on_c, 0, 61, 64
1, 56847, Note_off_c, 0, 61, 64
1, 56847, Note_on_c, 0, 57, 64
1, 57327, Note_off_c, 0, 57, 64
1, 57557, Note_on_c, 0, 66, 64
1, 58037, Note_off_c, 0, 66, 64
1, 58037, Note_on_c, 0, 40, 64
1, 58517, Note_off_c, 0, 40, 64
1, 58747, Note_on_c, 0, 61, 64
1, 59227, Note_off_c, 0, 61, 64
1, 59227, Note_on_c, 0, 57, 64
1, 59707, Note_off_c, 0, 57, 64
1, 59937, Note_on_c, 0, 61, 64
1, 60417, Note_off_c, 0, 61, 64
1, 60417, Note_on_c, 0, 57, 64
1, 60897, Note_off_c, 0, 57, 64
1, 61127, Note_on_c, 0, 66, 64
1, 61607, Note_off_c, 0, 66, 64
1, 61607, Note_on_c, 0, 45, 64
1, 62087, Note_off_c, 0, 45, 64
1, 62317, Note_on_c, 0, 61, 64
1, 62797, Note_off_c, 0, 61, 64
1, 62797, Note_on_c, 0, 57, 64
1, 63277, Note_off_c, 0, 57, 64
1, 63507, Note_on_c, 0, 61, 64
1, 63987, Note_off_c, 0, 61, 64
1, 63987, Note_on_c, 0, 57, 64
1, 64467, Note_off_c, 0, 57, 64
1, 64697, Note_on_c, 0, 68, 64
1, 65177, Note_off_c, 0, 68, 64
1, 65177, Note_on_c, 0, 40, 64
1, 65657, Note_off_c, 0, 40, 64
1, 65887, Note_on_c, 0, 61, 64
1, 66367, Note_off_c, 0, 61, 64
1, 66367, Note_on_c, 0, 57, 64
1, 66847, Note_off_c, 0, 57, 64
1, 67077, Note_on_c, 0, 61, 64
1, 67557, Note_off_c, 0, 61, 64
1, 67557, Note_on_c, 0, 57, 64
1, 68037, Note_off_c, 0, 57, 64
1, 68267, Note_on_c, 0, 68, 64
1, 68747, Note_off_c, 0, 68, 64
1, 68747, Note_on_c, 0, 45, 64
1, 69227, Note_off_c, 0, 45, 64
1, 69457, Note_on_c, 0, 61, 64
1, 69937, Note_off_c, 0, 61, 64
1, 69937, Note_on_c, 0, 57, 64
1, 70417, Note_off_c, 0, 57, 64
1, 70647, Note_on_c, 0, 61, 64
1, 71127, Note_off_c, 0, 61, 64
1, 71127, Note_on_c, 0, 57, 64
1, 71607, Note_off_c, 0, 57, 64
1, 71837, Note_on_c, 0, 69, 64
1, 72317, Note_off_c, 0, 69, 64
1, 72317, Note_on_c, 0, 45, 64
1, 72797, Note_off_c, 0, 45, 64
1, 73027, Note_on_c, 0, 61, 64
1, 73507, Note_off_c, 0, 61, 64
1, 73507, Note_on_c, 0, 57, 64
1, 73987, Note_off_c, 0, 57, 64
1, 74217, Note_on_c, 0, 61, 64
1, 74697, Note_off_c, 0, 61, 64
1, 74697, Note_on_c, 0, 57, 64
1, 75177, Note_off_c, 0, 57, 64
1, 75407, Note_on_c, 0, 50, 64
1, 75887, Note_off_c, 0, 50, 64
1, 76117, Note_on_c, 0, 71, 64
1, 76597, Note_off_c, 0, 71, 64
1, 76597, Note_on_c, 0, 66, 64
1, 77077, Note_off_c, 0, 66, 64
1, 77307, Note_on_c, 0, 71, 64
1, 77787, Note_off_c, 0, 71, 64
1, 77787, Note_on_c, 0, 66, 64
1, 78267, Note_off_c, 0, 66, 64
1, 78497, Note_on_c, 0, 50, 64
1, 78977, Note_off_c, 0, 50, 64
1, 79207, Note_on_c, 0, 71, 64
1, 79687, Note_off_c, 0, 71, 64
1, 79687, Note_on_c, 0, 66, 64
1, 80167, Note_off_c, 0, 66, 64
1, 80397, Note_on_c, 0, 71, 64
1, 80877, Note_off_c, 0, 71, 64
1, 80877, Note_on_c, 0, 66, 64
1, 81357, Note_off_c, 0, 66, 64
1, 81587, Note_on_c, 0, 71, 64
1, 82067, Note_off_c, 0, 71, 64
1, 82067, Note_on_c, 0, 47, 64
1, 82547, Note_off_c, 0, 47, 64
1, 82777, Note_on_c, 0, 59, 64
1, 83257, Note_off_c, 0, 59, 64
1, 83257, Note_on_c, 0, 62, 64
1, 83737, Note_off_c, 0, 62, 64
1, 83967, Note_on_c, 0, 59, 64
1, 84447, Note_off_c, 0, 59, 64
1, 84447, Note_on_c, 0, 62, 64
1, 84927, Note_off_c, 0, 62, 64
1, 85157, Note_on_c, 0, 50, 64
1, 85637, Note_off_c, 0, 50, 64
1, 85867, Note_on_c, 0, 69, 64
1, 86347, Note_off_c, 0, 69, 64
1, 86347, Note_on_c, 0, 65, 64
1, 86827, Note_off_c, 0, 65, 64
1, 87057, Note_on_c, 0, 69, 64
1, 87537, Note_off_c, 0, 69, 64
1, 87537, Note_on_c, 0, 65, 64
1, 88017, Note_off_c, 0, 65, 64
1, 88247, Note_on_c, 0, 52, 64
1, 88727, Note_off_c, 0, 52, 64
1, 88957, Note_on_c, 0, 69, 64
1, 89437, Note_off_c, 0, 69, 64
1, 89437, Note_on_c, 0, 64, 64
1, 89917, Note_off_c, 0, 64, 64
1, 90147, Note_on_c, 0, 69, 64
1, 90627, Note_off_c, 0, 69, 64
1, 90627, Note_on_c, 0, 64, 64
1, 91107, Note_off_c, 0, 64, 64
1, 91337, Note_on_c, 0, 64, 64
1, 91817, Note_off_c, 0, 64, 64
1, 91817, Note_on_c, 0, 40, 64
1, 92297, Note_off_c, 0, 40, 64
1, 92527, Note_on_c, 0, 61, 64
1, 93007, Note_off_c, 0, 61, 64
1, 93007, Note_on_c, 0, 57, 64
1, 93487, Note_off_c, 0, 57, 64
1, 93717, Note_on_c, 0, 61, 64
1, 94197, Note_off_c, 0, 61, 64
1, 94197, Note_on_c, 0, 57, 64
1, 94677, Note_off_c, 0, 57, 64
1, 94907, Note_on_c, 0, 66, 64
1, 95387, Note_off_c, 0, 66, 64
1, 95387, Note_on_c, 0, 40, 64
1, 95867, Note_off_c, 0, 40, 64
1, 96097, Note_on_c, 0, 59, 64
1, 96577, Note_off_c, 0, 59, 64
1, 96577, Note_on_c, 0, 63, 64
1, 97057, Note_off_c, 0, 63, 64
1, 97287, Note_on_c, 0, 59, 64
1, 97767, Note_off_c, 0, 59, 64
1, 97767, Note_on_c, 0, 63, 64
1, 98247, Note_off_c, 0, 63, 64
1, 98477, Note_on_c, 0, 71, 64
1, 98957, Note_off_c, 0, 71, 64
1, 98957, Note_on_c, 0, 52, 64
1, 99437, Note_off_c, 0, 52, 64
1, 99667, Note_on_c, 0, 68, 64
1, 100147, Note_off_c, 0, 68, 64
1, 100147, Note_on_c, 0, 62, 64
1, 100627, Note_off_c, 0, 62, 64
1, 100857, Note_on_c, 0, 68, 64
1, 101337, Note_off_c, 0, 68, 64
1, 101337, Note_on_c, 0, 62, 64
1, 101817, Note_off_c, 0, 62, 64
1, 102047, Note_on_c, 0, 69, 64
1, 102527, Note_off_c, 0, 69, 64
1, 102527, Note_on_c, 0, 64, 64
1, 103007, Note_off_c, 0, 64, 64
1, 103007, Note_on_c, 0, 61, 64
1, 103487, Note_off_c, 0, 61, 64
1, 103487, Note_on_c, 0, 45, 64
1, 103967, Note_off_c, 0, 45, 64
1, 104197, Note_on_c, 0, 52, 64
1, 104677, Note_off_c, 0, 52, 64
1, 104907, Note_on_c, 0, 49, 64
1, 105387, Note_off_c, 0, 49, 64
1, 105617, Note_on_c, 0, 45, 64
1, 106097, Note_off_c, 0, 45, 64
1, 106788, Note_on_c, 0, 40, 64
1, 107268, Note_off_c, 0, 40, 64
1, 107498, Note_on_c, 0, 71, 64
1, 107978, Note_off_c, 0, 71, 64
1, 108208, Note_on_c, 0, 71, 64
1, 108688, Note_off_c, 0, 71, 64
1, 108688, Note_on_c, 0, 64, 64
1, 109168, Note_off_c, 0, 64, 64
1, 109398, Note_on_c, 0, 40, 64
1, 109878, Note_off_c, 0, 40, 64
1, 109993, Note_on_c, 0, 59, 64
1, 110473, Note_off_c, 0, 59, 64
1, 110588, Note_on_c, 0, 64, 64
1, 111068, Note_off_c, 0, 64, 64
1, 111183, Note_on_c, 0, 68, 64
1, 111663, Note_off_c, 0, 68, 64
1, 111778, Note_on_c, 0, 64, 64
1, 112258, Note_off_c, 0, 64, 64
1, 112373, Note_on_c, 0, 68, 64
1, 112853, Note_off_c, 0, 68, 64
1, 112968, Note_on_c, 0, 69, 64
1, 113448, Note_off_c, 0, 69, 64
1, 113448, Note_on_c, 0, 54, 64
1, 113928, Note_off_c, 0, 54, 64
1, 113956, Note_on_c, 0, 71, 64
1, 114436, Note_off_c, 0, 71, 64
1, 114464, Note_on_c, 0, 69, 64
1, 114944, Note_off_c, 0, 69, 64
1, 115116, Note_on_c, 0, 59, 64
1, 115596, Note_off_c, 0, 59, 64
1, 115596, Note_on_c, 0, 63, 64
1, 116076, Note_off_c, 0, 63, 64
1, 116306, Note_on_c, 0, 59, 64
1, 116786, Note_off_c, 0, 59, 64
1, 116786, Note_on_c, 0, 63, 64
1, 117266, Note_off_c, 0, 63, 64
1, 117496, Note_on_c, 0, 54, 64
1, 117976, Note_off_c, 0, 54, 64
1, 118004, Note_on_c, 0, 59, 64
1, 118484, Note_off_c, 0, 59, 64
1, 119146, Note_on_c, 0, 54, 64
1, 119626, Note_off_c, 0, 54, 64
1, 119856, Note_on_c, 0, 69, 64
1, 120336, Note_off_c, 0, 69, 64
1, 120336, Note_on_c, 0, 59, 64
1, 120816, Note_off_c, 0, 59, 64
1, 121046, Note_on_c, 0, 69, 64
1, 121526, Note_off_c, 0, 69, 64
1, 121526, Note_on_c, 0, 59, 64
1, 122006, Note_off_c, 0, 59, 64
1, 122236, Note_on_c, 0, 47, 64
1, 122716, Note_off_c, 0, 47, 64
1, 123061, Note_on_c, 0, 71, 64
1, 123541, Note_off_c, 0, 71, 64
1, 123771, Note_on_c, 0, 69, 64
1, 124251, Note_off_c, 0, 69, 64
1, 124366, Note_on_c, 0, 40, 64
1, 124846, Note_off_c, 0, 40, 64
1, 125076, Note_on_c, 0, 71, 64
1, 125556, Note_off_c, 0, 71, 64
1, 125786, Note_on_c, 0, 71, 64
1, 126266, Note_off_c, 0, 71, 64
1, 126266, Note_on_c, 0, 64, 64
1, 126746, Note_off_c, 0, 64, 64
1, 126976, Note_on_c, 0, 40, 64
1, 127456, Note_off_c, 0, 40, 64
1, 128147, Note_on_c, 0, 40, 64
1, 128627, Note_off_c, 0, 40, 64
1, 128857, Note_on_c, 0, 71, 64
1, 129337, Note_off_c, 0, 71, 64
1, 129567, Note_on_c, 0, 71, 64
1, 130047, Note_off_c, 0, 71, 64
1, 130047, Note_on_c, 0, 64, 64
1, 130527, Note_off_c, 0, 64, 64
1, 130757, Note_on_c, 0, 40, 64
1, 131237, Note_off_c, 0, 40, 64
1, 131352, Note_on_c, 0, 52, 64
1, 131832, Note_off_c, 0, 52, 64
1, 131947, Note_on_c, 0, 56, 64
1, 132427, Note_off_c, 0, 56, 64
1, 132542, Note_on_c, 0, 59, 64
1, 133022, Note_off_c, 0, 59, 64
1, 133137, Note_on_c, 0, 64, 64
1, 133617, Note_off_c, 0, 64, 64
1, 133732, Note_on_c, 0, 71, 64
1, 134212, Note_off_c, 0, 71, 64
1, 134327, Note_on_c, 0, 71, 64
1, 134807, Note_off_c, 0, 71, 64
1, 134807, Note_on_c, 0, 45, 64
1, 135287, Note_off_c, 0, 45, 64
1, 135517, Note_on_c, 0, 61, 64
1, 135997, Note_off_c, 0, 61, 64
1, 135997, Note_on_c, 0, 57, 64
1, 136477, Note_off_c, 0, 57, 64
1, 136707, Note_on_c, 0, 61, 64
1, 137187, Note_off_c, 0, 61, 64
1, 137187, Note_on_c, 0, 57, 64
1, 137667, Note_off_c, 0, 57, 64
1, 137897, Note_on_c, 0, 45, 64
1, 138377, Note_off_c, 0, 45, 64
1, 138492, Note_on_c, 0, 54, 64
1, 138972, Note_off_c, 0, 54, 64
1, 139087, Note_on_c, 0, 56, 64
1, 139567, Note_off_c, 0, 56, 64
1, 139682, Note_on_c, 0, 57, 64
1, 140162, Note_off_c, 0, 57, 64
1, 140277, Note_on_c, 0, 59, 64
1, 140757, Note_off_c, 0, 59, 64
1, 140872, Note_on_c, 0, 61, 64
1, 141352, Note_off_c, 0, 61, 64
1, 141467, Note_on_c, 0, 61, 64
1, 141947, Note_off_c, 0, 61, 64
1, 141947, Note_on_c, 0, 47, 64
1, 142427, Note_off_c, 0, 47, 64
1, 142455, Note_on_c, 0, 63, 64
1, 142935, Note_off_c, 0, 63, 64
1, 142963, Note_on_c, 0, 61, 64
1, 143443, Note_off_c, 0, 61, 64
1, 143615, Note_on_c, 0, 64, 64
1, 144095, Note_off_c, 0, 64, 64
1, 144095, Note_on_c, 0, 59, 64
1, 144575, Note_off_c, 0, 59, 64
1, 144575, Note_on_c, 0, 56, 64
1, 145055, Note_off_c, 0, 56, 64
1, 145285, Note_on_c, 0, 61, 64
1, 145765, Note_off_c, 0, 61, 64
1, 145765, Note_on_c, 0, 57, 64
1, 146245, Note_off_c, 0, 57, 64
1, 146273, Note_on_c, 0, 64, 64
1, 146753, Note_off_c, 0, 64, 64
1, 146753, Note_on_c, 0, 61, 64
1, 147233, Note_off_c, 0, 61, 64
1, 147434, Note_on_c, 0, 59, 64
1, 147914, Note_off_c, 0, 59, 64
1, 147914, Note_on_c, 0, 63, 64
1, 148394, Note_off_c, 0, 63, 64
1, 148624, Note_on_c, 0, 61, 64
1, 149104, Note_off_c, 0, 61, 64
1, 149104, Note_on_c, 0, 57, 64
1, 149584, Note_off_c, 0, 57, 64
1, 149814, Note_on_c, 0, 63, 64
1, 150294, Note_off_c, 0, 63, 64
1, 150294, Note_on_c, 0, 57, 64
1, 150774, Note_off_c, 0, 57, 64
1, 150774, Note_on_c, 0, 47, 64
1, 151254, Note_off_c, 0, 47, 64
1, 151484, Note_on_c, 0, 56, 64
1, 151964, Note_off_c, 0, 56, 64
1, 151964, Note_on_c, 0, 52, 64
1, 152444, Note_off_c, 0, 52, 64
1, 152463, Note_on_c, 0, 59, 64
1, 152943, Note_off_c, 0, 59, 64
1, 152962, Note_on_c, 0, 64, 64
1, 153442, Note_off_c, 0, 64, 64
1, 153634, Note_on_c, 0, 47, 64
1, 154114, Note_off_c, 0, 47, 64
1, 154344, Note_on_c, 0, 44, 64
1, 154824, Note_off_c, 0, 44, 64
1, 155054, Note_on_c, 0, 40, 64
1, 155534, Note_off_c, 0, 40, 64
1, 156225, Note_on_c, 0, 40, 64
1, 156705, Note_off_c, 0, 40, 64
1, 156935, Note_on_c, 0, 71, 64
1, 157415, Note_off_c, 0, 71, 64
1, 157645, Note_on_c, 0, 71, 64
1, 158125, Note_off_c, 0, 71, 64
1, 158125, Note_on_c, 0, 64, 64
1, 158605, Note_off_c, 0, 64, 64
1, 158835, Note_on_c, 0, 40, 64
1, 159315, Note_off_c, 0, 40, 64
1, 159430, Note_on_c, 0, 59, 64
1, 159910, Note_off_c, 0, 59, 64
1, 160025, Note_on_c, 0, 64, 64
1, 160505, Note_off_c, 0, 64, 64
1, 160620, Note_on_c, 0, 68, 64
1, 161100, Note_off_c, 0, 68, 64
1, 161215, Note_on_c, 0, 64, 64
1, 161695, Note_off_c, 0, 64, 64
1, 161810, Note_on_c, 0, 68, 64
1, 162290, Note_off_c, 0, 68, 64
1, 162405, Note_on_c, 0, 69, 64
1, 162885, Note_off_c, 0, 69, 64
1, 162885, Note_on_c, 0, 54, 64
1, 163365, Note_off_c, 0, 54, 64
1, 163393, Note_on_c, 0, 71, 64
1, 163873, Note_off_c, 0, 71, 64
1, 163901, Note_on_c, 0, 69, 64
1, 164381, Note_off_c, 0, 69, 64
1, 164553, Note_on_c, 0, 59, 64
1, 165033, Note_off_c, 0, 59, 64
1, 165033, Note_on_c, 0, 63, 64
1, 165513, Note_off_c, 0, 63, 64
1, 165743, Note_on_c, 0, 59, 64
1, 166223, Note_off_c, 0, 59, 64
1, 166223, Note_on_c, 0, 63, 64
1, 166703, Note_off_c, 0, 63, 64
1, 166933, Note_on_c, 0, 54, 64
1, 167413, Note_off_c, 0, 54, 64
1, 167441, Note_on_c, 0, 59, 64
1, 167921, Note_off_c, 0, 59, 64
1, 168583, Note_on_c, 0, 54, 64
1, 169063, Note_off_c, 0, 54, 64
1, 169293, Note_on_c, 0, 69, 64
1, 169773, Note_off_c, 0, 69, 64
1, 169773, Note_on_c, 0, 59, 64
1, 170253, Note_off_c, 0, 59, 64
1, 170483, Note_on_c, 0, 69, 64
1, 170963, Note_off_c, 0, 69, 64
1, 170963, Note_on_c, 0, 59, 64
1, 171443, Note_off_c, 0, 59, 64
1, 171673, Note_on_c, 0, 47, 64
1, 172153, Note_off_c, 0, 47, 64
1, 172498, Note_on_c, 0, 71, 64
1, 172978, Note_off_c, 0, 71, 64
1, 173208, Note_on_c, 0, 69, 64
1, 173688, Note_off_c, 0, 69, 64
1, 173803, Note_on_c, 0, 40, 64
1, 174283, Note_off_c, 0, 40, 64
1, 174513, Note_on_c, 0, 71, 64
1, 174993, Note_off_c, 0, 71, 64
1, 175223, Note_on_c, 0, 71, 64
1, 175703, Note_off_c, 0, 71, 64
1, 175703, Note_on_c, 0, 64, 64
1, 176183, Note_off_c, 0, 64, 64
1, 176413, Note_on_c, 0, 40, 64
1, 176893, Note_off_c, 0, 40, 64
1, 177584, Note_on_c, 0, 40, 64
1, 178064, Note_off_c, 0, 40, 64
1, 178294, Note_on_c, 0, 71, 64
1, 178774, Note_off_c, 0, 71, 64
1, 179004, Note_on_c, 0, 71, 64
1, 179484, Note_off_c, 0, 71, 64
1, 179484, Note_on_c, 0, 64, 64
1, 179964, Note_off_c, 0, 64, 64
1, 180194, Note_on_c, 0, 40, 64
1, 180674, Note_off_c, 0, 40, 64
1, 180789, Note_on_c, 0, 52, 64
1, 181269, Note_off_c, 0, 52, 64
1, 181384, Note_on_c, 0, 56, 64
1, 181864, Note_off_c, 0, 56, 64
1, 181979, Note_on_c, 0, 59, 64
1, 182459, Note_off_c, 0, 59, 64
1, 182574, Note_on_c, 0, 64, 64
1, 183054, Note_off_c, 0, 64, 64
1, 183169, Note_on_c, 0, 71, 64
1, 183649, Note_off_c, 0, 71, 64
1, 183764, Note_on_c, 0, 71, 64
1, 184244, Note_off_c, 0, 71, 64
1, 184244, Note_on_c, 0, 45, 64
1, 184724, Note_off_c, 0, 45, 64
1, 184954, Note_on_c, 0, 61, 64
1, 185434, Note_off_c, 0, 61, 64
1, 185434, Note_on_c, 0, 57, 64
1, 185914, Note_off_c, 0, 57, 64
1, 186144, Note_on_c, 0, 61, 64
1, 186624, Note_off_c, 0, 61, 64
1, 186624, Note_on_c, 0, 57, 64
1, 187104, Note_off_c, 0, 57, 64
1, 187334, Note_on_c, 0, 45, 64
1, 187814, Note_off_c, 0, 45, 64
1, 187929, Note_on_c, 0, 54, 64
1, 188409, Note_off_c, 0, 54, 64
1, 188524, Note_on_c, 0, 56, 64
1, 189004, Note_off_c, 0, 56, 64
1, 189119, Note_on_c, 0, 57, 64
1, 189599, Note_off_c, 0, 57, 64
1, 189714, Note_on_c, 0, 59, 64
1, 190194, Note_off_c, 0, 59, 64
1, 190309, Note_on_c, 0, 61, 64
1, 190789, Note_off_c, 0, 61, 64
1, 190904, Note_on_c, 0, 61, 64
1, 191384, Note_off_c, 0, 61, 64
1, 191384, Note_on_c, 0, 47, 64
1, 191864, Note_off_c, 0, 47, 64
1, 191892, Note_on_c, 0, 63, 64
1, 192372, Note_off_c, 0, 63, 64
1, 192400, Note_on_c, 0, 61, 64
1, 192880, Note_off_c, 0, 61, 64
1, 193052, Note_on_c, 0, 64, 64
1, 193532, Note_off_c, 0, 64, 64
1, 193532, Note_on_c, 0, 59, 64
1, 194012, Note_off_c, 0, 59, 64
1, 194012, Note_on_c, 0, 56, 64
1, 194492, Note_off_c, 0, 56, 64
1, 194722, Note_on_c, 0, 61, 64
1, 195202, Note_off_c, 0, 61, 64
1, 195202, Note_on_c, 0, 57, 64
1, 195682, Note_off_c, 0, 57, 64
1, 195710, Note_on_c, 0, 64, 64
1, 196190, Note_off_c, 0, 64, 64
1, 196190, Note_on_c, 0, 61, 64
1, 196670, Note_off_c, 0, 61, 64
1, 196871, Note_on_c, 0, 59, 64
1, 197351, Note_off_c, 0, 59, 64
1, 197351, Note_on_c, 0, 63, 64
1, 197831, Note_off_c, 0, 63, 64
1, 198061, Note_on_c, 0, 61, 64
1, 198541, Note_off_c, 0, 61, 64
1, 198541, Note_on_c, 0, 57, 64
1, 199021, Note_off_c, 0, 57, 64
1, 199251, Note_on_c, 0, 63, 64
1, 199731, Note_off_c, 0, 63, 64
1, 199731, Note_on_c, 0, 57, 64
1, 200211, Note_off_c, 0, 57, 64
1, 200211, Note_on_c, 0, 47, 64
1, 200691, Note_off_c, 0, 47, 64
1, 200921, Note_on_c, 0, 56, 64
1, 201401, Note_off_c, 0, 56, 64
1, 201401, Note_on_c, 0, 52, 64
1, 201881, Note_off_c, 0, 52, 64
1, 201900, Note_on_c, 0, 59, 64
1, 202380, Note_off_c, 0, 59, 64
1, 202399, Note_on_c, 0, 64, 64
1, 202879, Note_off_c, 0, 64, 64
1, 203071, Note_on_c, 0, 47, 64
1, 203551, Note_off_c, 0, 47, 64
1, 203781, Note_on_c, 0, 44, 64
1, 204261, Note_off_c, 0, 44, 64
1, 204491, Note_on_c, 0, 40, 64
1, 204971, Note_off_c, 0, 40, 64
1, 205662, Note_on_c, 0, 54, 64
1, 206142, Note_off_c, 0, 54, 64
1, 206142, Note_on_c, 0, 47, 64
1, 206622, Note_off_c, 0, 47, 64
1, 206852, Note_on_c, 0, 66, 64
1, 207332, Note_off_c, 0, 66, 64
1, 207332, Note_on_c, 0, 63, 64
1, 207812, Note_off_c, 0, 63, 64
1, 208042, Note_on_c, 0, 66, 64
1, 208522, Note_off_c, 0, 66, 64
1, 208522, Note_on_c, 0, 63, 64
1, 209002, Note_off_c, 0, 63, 64
1, 209232, Note_on_c, 0, 59, 64
1, 209712, Note_off_c, 0, 59, 64
1, 209712, Note_on_c, 0, 42, 64
1, 210192, Note_off_c, 0, 42, 64
1, 210422, Note_on_c, 0, 66, 64
1, 210902, Note_off_c, 0, 66, 64
1, 210902, Note_on_c, 0, 63, 64
1, 211382, Note_off_c, 0, 63, 64
1, 211612, Note_on_c, 0, 66, 64
1, 212092, Note_off_c, 0, 66, 64
1, 212092, Note_on_c, 0, 63, 64
1, 212572, Note_off_c, 0, 63, 64
1, 212802, Note_on_c, 0, 58, 64
1, 213282, Note_off_c, 0, 58, 64
1, 213282, Note_on_c, 0, 49, 64
1, 213762, Note_off_c, 0, 49, 64
1, 213992, Note_on_c, 0, 66, 64
1, 214472, Note_off_c, 0, 66, 64
1, 214472, Note_on_c, 0, 61, 64
1, 214952, Note_off_c, 0, 61, 64
1, 215182, Note_on_c, 0, 66, 64
1, 215662, Note_off_c, 0, 66, 64
1, 215662, Note_on_c, 0, 61, 64
1, 216142, Note_off_c, 0, 61, 64
1, 216372, Note_on_c, 0, 61, 64
1, 216852, Note_off_c, 0, 61, 64
1, 216852, Note_on_c, 0, 42, 64
1, 217332, Note_off_c, 0, 42, 64
1, 217562, Note_on_c, 0, 56, 64
1, 218042, Note_off_c, 0, 56, 64
1, 218272, Note_on_c, 0, 54, 64
1, 218752, Note_off_c, 0, 54, 64
1, 218982, Note_on_c, 0, 54, 64
1, 219462, Note_off_c, 0, 54, 64
1, 219462, Note_on_c, 0, 47, 64
1, 219942, Note_off_c, 0, 47, 64
1, 220172, Note_on_c, 0, 66, 64
1, 220652, Note_off_c, 0, 66, 64
1, 220652, Note_on_c, 0, 63, 64
1, 221132, Note_off_c, 0, 63, 64
1, 221362, Note_on_c, 0, 66, 64
1, 221842, Note_off_c, 0, 66, 64
1, 221842, Note_on_c, 0, 63, 64
1, 222322, Note_off_c, 0, 63, 64
1, 222552, Note_on_c, 0, 59, 64
1, 223032, Note_off_c, 0, 59, 64
1, 223032, Note_on_c, 0, 42, 64
1, 223512, Note_off_c, 0, 42, 64
1, 223742, Note_on_c, 0, 66, 64
1, 224222, Note_off_c, 0, 66, 64
1, 224222, Note_on_c, 0, 63, 64
1, 224702, Note_off_c, 0, 63, 64
1, 224932, Note_on_c, 0, 66, 64
1, 225412, Note_off_c, 0, 66, 64
1, 225412, Note_on_c, 0, 63, 64
1, 225892, Note_off_c, 0, 63, 64
1, 226122, Note_on_c, 0, 58, 64
1, 226602, Note_off_c, 0, 58, 64
1, 226602, Note_on_c, 0, 49, 64
1, 227082, Note_off_c, 0, 49, 64
1, 227110, Note_on_c, 0, 59, 64
1, 227590, Note_off_c, 0, 59, 64
1, 227618, Note_on_c, 0, 58, 64
1, 228098, Note_off_c, 0, 58, 64
1, 228270, Note_on_c, 0, 56, 64
1, 228750, Note_off_c, 0, 56, 64
1, 228980, Note_on_c, 0, 58, 64
1, 229460, Note_off_c, 0, 58, 64
1, 229690, Note_on_c, 0, 64, 64
1, 230170, Note_off_c, 0, 64, 64
1, 230170, Note_on_c, 0, 42, 64
1, 230650, Note_off_c, 0, 42, 64
1, 230880, Note_on_c, 0, 68, 64
1, 231360, Note_off_c, 0, 68, 64
1, 231590, Note_on_c, 0, 66, 64
1, 232070, Note_off_c, 0, 66, 64
1, 232300, Note_on_c, 0, 63, 64
1, 232780, Note_off_c, 0, 63, 64
1, 232780, Note_on_c, 0, 47, 64
1, 233260, Note_off_c, 0, 47, 64
1, 233490, Note_on_c, 0, 59, 64
1, 233970, Note_off_c, 0, 59, 64
1, 233970, Note_on_c, 0, 54, 64
1, 234450, Note_off_c, 0, 54, 64
1, 234680, Note_on_c, 0, 59, 64
1, 235160, Note_off_c, 0, 59, 64
1, 235160, Note_on_c, 0, 54, 64
1, 235640, Note_off_c, 0, 54, 64
1, 235870, Note_on_c, 0, 63, 64
1, 236350, Note_off_c, 0, 63, 64
1, 236350, Note_on_c, 0, 45, 64
1, 236830, Note_off_c, 0, 45, 64
1, 237060, Note_on_c, 0, 61, 64
1, 237540, Note_off_c, 0, 61, 64
1, 237540, Note_on_c, 0, 55, 64
1, 238020, Note_off_c, 0, 55, 64
1, 238250, Note_on_c, 0, 61, 64
1, 238730, Note_off_c, 0, 61, 64
1, 238730, Note_on_c, 0, 55, 64
1, 239210, Note_off_c, 0, 55, 64
1, 239440, Note_on_c, 0, 63, 64
1, 239920, Note_off_c, 0, 63, 64
1, 239920, Note_on_c, 0, 44, 64
1, 240400, Note_off_c, 0, 44, 64
1, 240630, Note_on_c, 0, 59, 64
1, 241110, Note_off_c, 0, 59, 64
1, 241110, Note_on_c, 0, 56, 64
1, 241590, Note_off_c, 0, 56, 64
1, 241820, Note_on_c, 0, 59, 64
1, 242300, Note_off_c, 0, 59, 64
1, 242300, Note_on_c, 0, 56, 64
1, 242780, Note_off_c, 0, 56, 64
1, 243010, Note_on_c, 0, 70, 64
1, 243490, Note_off_c, 0, 70, 64
1, 243490, Note_on_c, 0, 40, 64
1, 243970, Note_off_c, 0, 40, 64
1, 244200, Note_on_c, 0, 64, 64
1, 244680, Note_off_c, 0, 64, 64
1, 244680, Note_on_c, 0, 61, 64
1, 245160, Note_off_c, 0, 61, 64
1, 245390, Note_on_c, 0, 68, 64
1, 245870, Note_off_c, 0, 68, 64
1, 245870, Note_on_c, 0, 64, 64
1, 246350, Note_off_c, 0, 64, 64
1, 246350, Note_on_c, 0, 61, 64
1, 246830, Note_off_c, 0, 61, 64
1, 247060, Note_on_c, 0, 66, 64
1, 247540, Note_off_c, 0, 66, 64
1, 247540, Note_on_c, 0, 63, 64
1, 248020, Note_off_c, 0, 63, 64
1, 248020, Note_on_c, 0, 54, 64
1, 248500, Note_off_c, 0, 54, 64
1, 248500, Note_on_c, 0, 42, 64
1, 248980, Note_off_c, 0, 42, 64
1, 249210, Note_on_c, 0, 59, 64
1, 249690, Note_off_c, 0, 59, 64
1, 249690, Note_on_c, 0, 51, 64
1, 250170, Note_off_c, 0, 51, 64
1, 250400, Note_on_c, 0, 64, 64
1, 250880, Note_off_c, 0, 64, 64
1, 250880, Note_on_c, 0, 56, 64
1, 251360, Note_off_c, 0, 56, 64
1, 251590, Note_on_c, 0, 63, 64
1, 252070, Note_off_c, 0, 63, 64
1, 252070, Note_on_c, 0, 54, 64
1, 252550, Note_off_c, 0, 54, 64
1, 252550, Note_on_c, 0, 42, 64
1, 253030, Note_off_c, 0, 42, 64
1, 253260, Note_on_c, 0, 53, 64
1, 253740, Note_off_c, 0, 53, 64
1, 253970, Note_on_c, 0, 61, 64
1, 254450, Note_off_c, 0, 61, 64
1, 254450, Note_on_c, 0, 58, 64
1, 254930, Note_off_c, 0, 58, 64
1, 254930, Note_on_c, 0, 52, 64
1, 255410, Note_off_c, 0, 52, 64
1, 255410, Note_on_c, 0, 42, 64
1, 255890, Note_off_c, 0, 42, 64
1, 256120, Note_on_c, 0, 47, 64
1, 256600, Note_off_c, 0, 47, 64
1, 256619, Note_on_c, 0, 51, 64
1, 257099, Note_off_c, 0, 51, 64
1, 257118, Note_on_c, 0, 54, 64
1, 257598, Note_off_c, 0, 54, 64
1, 257617, Note_on_c, 0, 59, 64
1, 258097, Note_off_c, 0, 59, 64
1, 258269, Note_on_c, 0, 54, 64
1, 258749, Note_off_c, 0, 54, 64
1, 258979, Note_on_c, 0, 51, 64
1, 259459, Note_off_c, 0, 51, 64
1, 260380, Note_on_c, 0, 54, 64
1, 260860, Note_off_c, 0, 54, 64
1, 260860, Note_on_c, 0, 47, 64
1, 261340, Note_off_c, 0, 47, 64
1, 261570, Note_on_c, 0, 66, 64
1, 262050, Note_off_c, 0, 66, 64
1, 262050, Note_on_c, 0, 63, 64
1, 262530, Note_off_c, 0, 63, 64
1, 262760, Note_on_c, 0, 66, 64
1, 263240, Note_off_c, 0, 66, 64
1, 263240, Note_on_c, 0, 63, 64
1, 263720, Note_off_c, 0, 63, 64
1, 263950, Note_on_c, 0, 59, 64
1, 264430, Note_off_c, 0, 59, 64
1, 264430, Note_on_c, 0, 42, 64
1, 264910, Note_off_c, 0, 42, 64
1, 265140, Note_on_c, 0, 66, 64
1, 265620, Note_off_c, 0, 66, 64
1, 265620, Note_on_c, 0, 63, 64
1, 266100, Note_off_c, 0, 63, 64
1, 266330, Note_on_c, 0, 66, 64
1, 266810, Note_off_c, 0, 66, 64
1, 266810, Note_on_c, 0, 63, 64
1, 267290, Note_off_c, 0, 63, 64
1, 267520, Note_on_c, 0, 58, 64
1, 268000, Note_off_c, 0, 58, 64
1, 268000, Note_on_c, 0, 49, 64
1, 268480, Note_off_c, 0, 49, 64
1, 268710, Note_on_c, 0, 66, 64
1, 269190, Note_off_c, 0, 66, 64
1, 269190, Note_on_c, 0, 61, 64
1, 269670, Note_off_c, 0, 61, 64
1, 269900, Note_on_c, 0, 66, 64
1, 270380, Note_off_c, 0, 66, 64
1, 270380, Note_on_c, 0, 61, 64
1, 270860, Note_off_c, 0, 61, 64
1, 271090, Note_on_c, 0, 61, 64
1, 271570, Note_off_c, 0, 61, 64
1, 271570, Note_on_c, 0, 42, 64
1, 272050, Note_off_c, 0, 42, 64
1, 272280, Note_on_c, 0, 56, 64
1, 272760, Note_off_c, 0, 56, 64
1, 272990, Note_on_c, 0, 54, 64
1, 273470, Note_off_c, 0, 54, 64
1, 273700, Note_on_c, 0, 54, 64
1, 274180, Note_off_c, 0, 54, 64
1, 274180, Note_on_c, 0, 47, 64
1, 274660, Note_off_c, 0, 47, 64
1, 274890, Note_on_c, 0, 66, 64
1, 275370, Note_off_c, 0, 66, 64
1, 275370, Note_on_c, 0, 63, 64
1, 275850, Note_off_c, 0, 63, 64
1, 276080, Note_on_c, 0, 66, 64
1, 276560, Note_off_c, 0, 66, 64
1, 276560, Note_on_c, 0, 63, 64
1, 277040, Note_off_c, 0, 63, 64
1, 277270, Note_on_c, 0, 59, 64
1, 277750, Note_off_c, 0, 59, 64
1, 277750, Note_on_c, 0, 42, 64
1, 278230, Note_off_c, 0, 42, 64
1, 278460, Note_on_c, 0, 66, 64
1, 278940, Note_off_c, 0, 66, 64
1, 278940, Note_on_c, 0, 63, 64
1, 279420, Note_off_c, 0, 63, 64
1, 279650, Note_on_c, 0, 66, 64
1, 280130, Note_off_c, 0, 66, 64
1, 280130, Note_on_c, 0, 63, 64
1, 280610, Note_off_c, 0, 63, 64
1, 280840, Note_on_c, 0, 58, 64
1, 281320, Note_off_c, 0, 58, 64
1, 281320, Note_on_c, 0, 49, 64
1, 281800, Note_off_c, 0, 49, 64
1, 281828, Note_on_c, 0, 59, 64
1, 282308, Note_off_c, 0, 59, 64
1, 282336, Note_on_c, 0, 58, 64
1, 282816, Note_off_c, 0, 58, 64
1, 282988, Note_on_c, 0, 56, 64
1, 283468, Note_off_c, 0, 56, 64
1, 283698, Note_on_c, 0, 58, 64
1, 284178, Note_off_c, 0, 58, 64
1, 284408, Note_on_c, 0, 64, 64
1, 284888, Note_off_c, 0, 64, 64
1, 284888, Note_on_c, 0, 42, 64
1, 285368, Note_off_c, 0, 42, 64
1, 285598, Note_on_c, 0, 68, 64
1, 286078, Note_off_c, 0, 68, 64
1, 286308, Note_on_c, 0, 66, 64
1, 286788, Note_off_c, 0, 66, 64
1, 287018, Note_on_c, 0, 63, 64
1, 287498, Note_off_c, 0, 63, 64
1, 287498, Note_on_c, 0, 47, 64
1, 287978, Note_off_c, 0, 47, 64
1, 288208, Note_on_c, 0, 59, 64
1, 288688, Note_off_c, 0, 59, 64
1, 288688, Note_on_c, 0, 54, 64
1, 289168, Note_off_c, 0, 54, 64
1, 289398, Note_on_c, 0, 59, 64
1, 289878, Note_off_c, 0, 59, 64
1, 289878, Note_on_c, 0, 54, 64
1, 290358, Note_off_c, 0, 54, 64
1, 290588, Note_on_c, 0, 63, 64
1, 291068, Note_off_c, 0, 63, 64
1, 291068, Note_on_c, 0, 45, 64
1, 291548, Note_off_c, 0, 45, 64
1, 291778, Note_on_c, 0, 61, 64
1, 292258, Note_off_c, 0, 61, 64
1, 292258, Note_on_c, 0, 55, 64
1, 292738, Note_off_c, 0, 55, 64
1, 292968, Note_on_c, 0, 61, 64
1, 293448, Note_off_c, 0, 61, 64
1, 293448, Note_on_c, 0, 55, 64
1, 293928, Note_off_c, 0, 55, 64
1, 294158, Note_on_c, 0, 63, 64
1, 294638, Note_off_c, 0, 63, 64
1, 294638, Note_on_c, 0, 44, 64
1, 295118, Note_off_c, 0, 44, 64
1, 295348, Note_on_c, 0, 59, 64
1, 295828, Note_off_c, 0, 59, 64
1, 295828, Note_on_c, 0, 56, 64
1, 296308, Note_off_c, 0, 56, 64
1, 296538, Note_on_c, 0, 59, 64
1, 297018, Note_off_c, 0, 59, 64
1, 297018, Note_on_c, 0, 56, 64
1, 297498, Note_off_c, 0, 56, 64
1, 297728, Note_on_c, 0, 70, 64
1, 298208, Note_off_c, 0, 70, 64
1, 298208, Note_on_c, 0, 40, 64
1, 298688, Note_off_c, 0, 40, 64
1, 298918, Note_on_c, 0, 64, 64
1, 299398, Note_off_c, 0, 64, 64
1, 299398, Note_on_c, 0, 61, 64
1, 299878, Note_off_c, 0, 61, 64
1, 300108, Note_on_c, 0, 68, 64
1, 300588, Note_off_c, 0, 68, 64
1, 300588, Note_on_c, 0, 64, 64
1, 301068, Note_off_c, 0, 64, 64
1, 301068, Note_on_c, 0, 61, 64
1, 301548, Note_off_c, 0, 61, 64
1, 301778, Note_on_c, 0, 66, 64
1, 302258, Note_off_c, 0, 66, 64
1, 302258, Note_on_c, 0, 63, 64
1, 302738, Note_off_c, 0, 63, 64
1, 302738, Note_on_c, 0, 54, 64
1, 303218, Note_off_c, 0, 54, 64
1, 303218, Note_on_c, 0, 42, 64
1, 303698, Note_off_c, 0, 42, 64
1, 303928, Note_on_c, 0, 59, 64
1, 304408, Note_off_c, 0, 59, 64
1, 304408, Note_on_c, 0, 51, 64
1, 304888, Note_off_c, 0, 51, 64
1, 305118, Note_on_c, 0, 64, 64
1, 305598, Note_off_c, 0, 64, 64
1, 305598, Note_on_c, 0, 56, 64
1, 306078, Note_off_c, 0, 56, 64
1, 306308, Note_on_c, 0, 63, 64
1, 306788, Note_off_c, 0, 63, 64
1, 306788, Note_on_c, 0, 54, 64
1, 307268, Note_off_c, 0, 54, 64
1, 307268, Note_on_c, 0, 42, 64
1, 307748, Note_off_c, 0, 42, 64
1, 307978, Note_on_c, 0, 53, 64
1, 308458, Note_off_c, 0, 53, 64
1, 308688, Note_on_c, 0, 61, 64
1, 309168, Note_off_c, 0, 61, 64
1, 309168, Note_on_c, 0, 58, 64
1, 309648, Note_off_c, 0, 58, 64
1, 309648, Note_on_c, 0, 52, 64
1, 310128, Note_off_c, 0, 52, 64
1, 310128, Note_on_c, 0, 42, 64
1, 310608, Note_off_c, 0, 42, 64
1, 310838, Note_on_c, 0, 51, 64
1, 311318, Note_off_c, 0, 51, 64
1, 311318, Note_on_c, 0, 47, 64
1, 311798, Note_off_c, 0, 47, 64
1, 311817, Note_on_c, 0, 54, 64
1, 312297, Note_off_c, 0, 54, 64
1, 312316, Note_on_c, 0, 59, 64
1, 312796, Note_off_c, 0, 59, 64
1, 312988, Note_on_c, 0, 54, 64
1, 313468, Note_off_c, 0, 54, 64
1, 313698, Note_on_c, 0, 51, 64
1, 314178, Note_off_c, 0, 51, 64
1, 314408, Note_on_c, 0, 47, 64
1, 314888, Note_off_c, 0, 47, 64
1, 315348, Note_on_c, 0, 68, 64
1, 315828, Note_off_c, 0, 68, 64
1, 315856, Note_on_c, 0, 71, 64
1, 316336, Note_off_c, 0, 71, 64
1, 316537, Note_on_c, 0, 71, 64
1, 317017, Note_off_c, 0, 71, 64
1, 317017, Note_on_c, 0, 64, 64
1, 317497, Note_off_c, 0, 64, 64
1, 317727, Note_on_c, 0, 68, 64
1, 318207, Note_off_c, 0, 68, 64
1, 318437, Note_on_c, 0, 68, 64
1, 318917, Note_off_c, 0, 68, 64
1, 319147, Note_on_c, 0, 71, 64
1, 319627, Note_off_c, 0, 71, 64
1, 319627, Note_on_c, 0, 59, 64
1, 320107, Note_off_c, 0, 59, 64
1, 320337, Note_on_c, 0, 68, 64
1, 320817, Note_off_c, 0, 68, 64
1, 321047, Note_on_c, 0, 68, 64
1, 321527, Note_off_c, 0, 68, 64
1, 321757, Note_on_c, 0, 71, 64
1, 322237, Note_off_c, 0, 71, 64
1, 322237, Note_on_c, 0, 66, 64
1, 322717, Note_off_c, 0, 66, 64
1, 322947, Note_on_c, 0, 69, 64
1, 323427, Note_off_c, 0, 69, 64
1, 323657, Note_on_c, 0, 69, 64
1, 324137, Note_off_c, 0, 69, 64
1, 324367, Note_on_c, 0, 59, 64
1, 324847, Note_off_c, 0, 59, 64
1, 325538, Note_on_c, 0, 54, 64
1, 326018, Note_off_c, 0, 54, 64
1, 326248, Note_on_c, 0, 69, 64
1, 326728, Note_off_c, 0, 69, 64
1, 326728, Note_on_c, 0, 59, 64
1, 327208, Note_off_c, 0, 59, 64
1, 327438, Note_on_c, 0, 69, 64
1, 327918, Note_off_c, 0, 69, 64
1, 327918, Note_on_c, 0, 59, 64
1, 328398, Note_off_c, 0, 59, 64
1, 328628, Note_on_c, 0, 47, 64
1, 329108, Note_off_c, 0, 47, 64
1, 329338, Note_on_c, 0, 66, 64
1, 329818, Note_off_c, 0, 66, 64
1, 329933, Note_on_c, 0, 63, 64
1, 330413, Note_off_c, 0, 63, 64
1, 330528, Note_on_c, 0, 64, 64
1, 331008, Note_off_c, 0, 64, 64
1, 331123, Note_on_c, 0, 61, 64
1, 331603, Note_off_c, 0, 61, 64
1, 331718, Note_on_c, 0, 64, 64
1, 332198, Note_off_c, 0, 64, 64
1, 332198, Note_on_c, 0, 40, 64
1, 332678, Note_off_c, 0, 40, 64
1, 332793, Note_on_c, 0, 63, 64
1, 333273, Note_off_c, 0, 63, 64
1, 333388, Note_on_c, 0, 56, 64
1, 333868, Note_off_c, 0, 56, 64
1, 334098, Note_on_c, 0, 56, 64
1, 334578, Note_off_c, 0, 56, 64
1, 334578, Note_on_c, 0, 52, 64
1, 335058, Note_off_c, 0, 52, 64
1, 335288, Note_on_c, 0, 44, 64
1, 335768, Note_off_c, 0, 44, 64
1, 335796, Note_on_c, 0, 47, 64
1, 336276, Note_off_c, 0, 47, 64
1, 336708, Note_on_c, 0, 68, 64
1, 337188, Note_off_c, 0, 68, 64
1, 337216, Note_on_c, 0, 71, 64
1, 337696, Note_off_c, 0, 71, 64
1, 337897, Note_on_c, 0, 71, 64
1, 338377, Note_off_c, 0, 71, 64
1, 338377, Note_on_c, 0, 64, 64
1, 338857, Note_off_c, 0, 64, 64
1, 339087, Note_on_c, 0, 68, 64
1, 339567, Note_off_c, 0, 68, 64
1, 339797, Note_on_c, 0, 68, 64
1, 340277, Note_off_c, 0, 68, 64
1, 340507, Note_on_c, 0, 71, 64
1, 340987, Note_off_c, 0, 71, 64
1, 340987, Note_on_c, 0, 59, 64
1, 341467, Note_off_c, 0, 59, 64
1, 341697, Note_on_c, 0, 68, 64
1, 342177, Note_off_c, 0, 68, 64
1, 342407, Note_on_c, 0, 68, 64
1, 342887, Note_off_c, 0, 68, 64
1, 343117, Note_on_c, 0, 71, 64
1, 343597, Note_off_c, 0, 71, 64
1, 343597, Note_on_c, 0, 66, 64
1, 344077, Note_off_c, 0, 66, 64
1, 344307, Note_on_c, 0, 69, 64
1, 344787, Note_off_c, 0, 69, 64
1, 345017, Note_on_c, 0, 69, 64
1, 345497, Note_off_c, 0, 69, 64
1, 345727, Note_on_c, 0, 59, 64
1, 346207, Note_off_c, 0, 59, 64
1, 346898, Note_on_c, 0, 54, 64
1, 347378, Note_off_c, 0, 54, 64
1, 347608, Note_on_c, 0, 69, 64
1, 348088, Note_off_c, 0, 69, 64
1, 348088, Note_on_c, 0, 59, 64
1, 348568, Note_off_c, 0, 59, 64
1, 348798, Note_on_c, 0, 69, 64
1, 349278, Note_off_c, 0, 69, 64
1, 349278, Note_on_c, 0, 59, 64
1, 349758, Note_off_c, 0, 59, 64
1, 349988, Note_on_c, 0, 47, 64
1, 350468, Note_off_c, 0, 47, 64
1, 350583, Note_on_c, 0, 71, 64
1, 351063, Note_off_c, 0, 71, 64
1, 351178, Note_on_c, 0, 63, 64
1, 351658, Note_off_c, 0, 63, 64
1, 351658, Note_on_c, 0, 57, 64
1, 352138, Note_off_c, 0, 57, 64
1, 352368, Note_on_c, 0, 63, 64
1, 352848, Note_off_c, 0, 63, 64
1, 352848, Note_on_c, 0, 57, 64
1, 353328, Note_off_c, 0, 57, 64
1, 353558, Note_on_c, 0, 56, 64
1, 354038, Note_off_c, 0, 56, 64
1, 354038, Note_on_c, 0, 52, 64
1, 354518, Note_off_c, 0, 52, 64
1, 354537, Note_on_c, 0, 59, 64
1, 355017, Note_off_c, 0, 59, 64
1, 355036, Note_on_c, 0, 64, 64
1, 355516, Note_off_c, 0, 64, 64
1, 355708, Note_on_c, 0, 47, 64
1, 356188, Note_off_c, 0, 47, 64
1, 356418, Note_on_c, 0, 44, 64
1, 356898, Note_off_c, 0, 44, 64
1, 357128, Note_on_c, 0, 40, 64
1, 357608, Note_off_c, 0, 40, 64
1, 358068, Note_on_c, 0, 68, 64
1, 358548, Note_off_c, 0, 68, 64
1, 358576, Note_on_c, 0, 71, 64
1, 359056, Note_off_c, 0, 71, 64
1, 359257, Note_on_c, 0, 71, 64
1, 359737, Note_off_c, 0, 71, 64
1, 359737, Note_on_c, 0, 64, 64
1, 360217, Note_off_c, 0, 64, 64
1, 360447, Note_on_c, 0, 68, 64
1, 360927, Note_off_c, 0, 68, 64
1, 361157, Note_on_c, 0, 68, 64
1, 361637, Note_off_c, 0, 68, 64
1, 361867, Note_on_c, 0, 71, 64
1, 362347, Note_off_c, 0, 71, 64
1, 362347, Note_on_c, 0, 59, 64
1, 362827, Note_off_c, 0, 59, 64
1, 363057, Note_on_c, 0, 68, 64
1, 363537, Note_off_c, 0, 68, 64
1, 363767, Note_on_c, 0, 68, 64
1, 364247, Note_off_c, 0, 68, 64
1, 364477, Note_on_c, 0, 71, 64
1, 364957, Note_off_c, 0, 71, 64
1, 364957, Note_on_c, 0, 66, 64
1, 365437, Note_off_c, 0, 66, 64
1, 365667, Note_on_c, 0, 69, 64
1, 366147, Note_off_c, 0, 69, 64
1, 366377, Note_on_c, 0, 69, 64
1, 366857, Note_off_c, 0, 69, 64
1, 367087, Note_on_c, 0, 59, 64
1, 367567, Note_off_c, 0, 59, 64
1, 368258, Note_on_c, 0, 54, 64
1, 368738, Note_off_c, 0, 54, 64
1, 368968, Note_on_c, 0, 69, 64
1, 369448, Note_off_c, 0, 69, 64
1, 369448, Note_on_c, 0, 59, 64
1, 369928, Note_off_c, 0, 59, 64
1, 370158, Note_on_c, 0, 69, 64
1, 370638, Note_off_c, 0, 69, 64
1, 370638, Note_on_c, 0, 59, 64
1, 371118, Note_off_c, 0, 59, 64
1, 371348, Note_on_c, 0, 47, 64
1, 371828, Note_off_c, 0, 47, 64
1, 372058, Note_on_c, 0, 66, 64
1, 372538, Note_off_c, 0, 66, 64
1, 372653, Note_on_c, 0, 63, 64
1, 373133, Note_off_c, 0, 63, 64
1, 373248, Note_on_c, 0, 64, 64
1, 373728, Note_off_c, 0, 64, 64
1, 373843, Note_on_c, 0, 61, 64
1, 374323, Note_off_c, 0, 61, 64
1, 374438, Note_on_c, 0, 64, 64
1, 374918, Note_off_c, 0, 64, 64
1, 374918, Note_on_c, 0, 40, 64
1, 375398, Note_off_c, 0, 40, 64
1, 375513, Note_on_c, 0, 63, 64
1, 375993, Note_off_c, 0, 63, 64
1, 376108, Note_on_c, 0, 56, 64
1, 376588, Note_off_c, 0, 56, 64
1, 376818, Note_on_c, 0, 56, 64
1, 377298, Note_off_c, 0, 56, 64
1, 377298, Note_on_c, 0, 52, 64
1, 377778, Note_off_c, 0, 52, 64
1, 378008, Note_on_c, 0, 44, 64
1, 378488, Note_off_c, 0, 44, 64
1, 378516, Note_on_c, 0, 47, 64
1, 378996, Note_off_c, 0, 47, 64
1, 379428, Note_on_c, 0, 68, 64
1, 379908, Note_off_c, 0, 68, 64
1, 379936, Note_on_c, 0, 71, 64
1, 380416, Note_off_c, 0, 71, 64
1, 380617, Note_on_c, 0, 71, 64
1, 381097, Note_off_c, 0, 71, 64
1, 381097, Note_on_c, 0, 64, 64
1, 381577, Note_off_c, 0, 64, 64
1, 381807, Note_on_c, 0, 68, 64
1, 382287, Note_off_c, 0, 68, 64
1, 382517, Note_on_c, 0, 68, 64
1, 382997, Note_off_c, 0, 68, 64
1, 383227, Note_on_c, 0, 71, 64
1, 383707, Note_off_c, 0, 71, 64
1, 383707, Note_on_c, 0, 59, 64
1, 384187, Note_off_c, 0, 59, 64
1, 384417, Note_on_c, 0, 68, 64
1, 384897, Note_off_c, 0, 68, 64
1, 385127, Note_on_c, 0, 68, 64
1, 385607, Note_off_c, 0, 68, 64
1, 385837, Note_on_c, 0, 71, 64
1, 386317, Note_off_c, 0, 71, 64
1, 386317, Note_on_c, 0, 66, 64
1, 386797, Note_off_c, 0, 66, 64
1, 387027, Note_on_c, 0, 69, 64
1, 387507, Note_off_c, 0, 69, 64
1, 387737, Note_on_c, 0, 69, 64
1, 388217, Note_off_c, 0, 69, 64
1, 388447, Note_on_c, 0, 59, 64
1, 388927, Note_off_c, 0, 59, 64
1, 389618, Note_on_c, 0, 54, 64
1, 390098, Note_off_c, 0, 54, 64
1, 390328, Note_on_c, 0, 69, 64
1, 390808, Note_off_c, 0, 69, 64
1, 390808, Note_on_c, 0, 59, 64
1, 391288, Note_off_c, 0, 59, 64
1, 391518, Note_on_c, 0, 69, 64
1, 391998, Note_off_c, 0, 69, 64
1, 391998, Note_on_c, 0, 59, 64
1, 392478, Note_off_c, 0, 59, 64
1, 392708, Note_on_c, 0, 47, 64
1, 393188, Note_off_c, 0, 47, 64
1, 393303, Note_on_c, 0, 71, 64
1, 393783, Note_off_c, 0, 71, 64
1, 393898, Note_on_c, 0, 63, 64
1, 394378, Note_off_c, 0, 63, 64
1, 394378, Note_on_c, 0, 57, 64
1, 394858, Note_off_c, 0, 57, 64
1, 395088, Note_on_c, 0, 63, 64
1, 395568, Note_off_c, 0, 63, 64
1, 395568, Note_on_c, 0, 57, 64
1, 396048, Note_off_c, 0, 57, 64
1, 396278, Note_on_c, 0, 56, 64
1, 396758, Note_off_c, 0, 56, 64
1, 396758, Note_on_c, 0, 52, 64
1, 397238, Note_off_c, 0, 52, 64
1, 397257, Note_on_c, 0, 59, 64
1, 397737, Note_off_c, 0, 59, 64
1, 397756, Note_on_c, 0, 64, 64
1, 398236, Note_off_c, 0, 64, 64
1, 398428, Note_on_c, 0, 47, 64
1, 398908, Note_off_c, 0, 47, 64
1, 399138, Note_on_c, 0, 44, 64
1, 399618, Note_off_c, 0, 44, 64
1, 399848, Note_on_c, 0, 40, 64
1, 400328, Note_off_c, 0, 40, 64
1, 400788, Note_on_c, 0, 61, 64
1, 401268, Note_off_c, 0, 61, 64
1, 401296, Note_on_c, 0, 64, 64
1, 401776, Note_off_c, 0, 64, 64
1, 401977, Note_on_c, 0, 64, 64
1, 402457, Note_off_c, 0, 64, 64
1, 402457, Note_on_c, 0, 45, 64
1, 402937, Note_off_c, 0, 45, 64
1, 403167, Note_on_c, 0, 61, 64
1, 403647, Note_off_c, 0, 61, 64
1, 403647, Note_on_c, 0, 57, 64
1, 404127, Note_off_c, 0, 57, 64
1, 404357, Note_on_c, 0, 61, 64
1, 404837, Note_off_c, 0, 61, 64
1, 404837, Note_on_c, 0, 57, 64
1, 405317, Note_off_c, 0, 57, 64
1, 405547, Note_on_c, 0, 66, 64
1, 406027, Note_off_c, 0, 66, 64
1, 406027, Note_on_c, 0, 40, 64
1, 406507, Note_off_c, 0, 40, 64
1, 406737, Note_on_c, 0, 61, 64
1, 407217, Note_off_c, 0, 61, 64
1, 407217, Note_on_c, 0, 57, 64
1, 407697, Note_off_c, 0, 57, 64
1, 407927, Note_on_c, 0, 61, 64
1, 408407, Note_off_c, 0, 61, 64
1, 408407, Note_on_c, 0, 57, 64
1, 408887, Note_off_c, 0, 57, 64
1, 409117, Note_on_c, 0, 66, 64
1, 409597, Note_off_c, 0, 66, 64
1, 409597, Note_on_c, 0, 45, 64
1, 410077, Note_off_c, 0, 45, 64
1, 410307, Note_on_c, 0, 61, 64
1, 410787, Note_off_c, 0, 61, 64
1, 410787, Note_on_c, 0, 57, 64
1, 411267, Note_off_c, 0, 57, 64
1, 411497, Note_on_c, 0, 61, 64
1, 411977, Note_off_c, 0, 61, 64
1, 411977, Note_on_c, 0, 57, 64
1, 412457, Note_off_c, 0, 57, 64
1, 412687, Note_on_c, 0, 68, 64
1, 413167, Note_off_c, 0, 68, 64
1, 413167, Note_on_c, 0, 40, 64
1, 413647, Note_off_c, 0, 40, 64
1, 413877, Note_on_c, 0, 61, 64
1, 414357, Note_off_c, 0, 61, 64
1, 414357, Note_on_c, 0, 57, 64
1, 414837, Note_off_c, 0, 57, 64
1, 415067, Note_on_c, 0, 61, 64
1, 415547, Note_off_c, 0, 61, 64
1, 415547, Note_on_c, 0, 57, 64
1, 416027, Note_off_c, 0, 57, 64
1, 416257, Note_on_c, 0, 68, 64
1, 416737, Note_off_c, 0, 68, 64
1, 416737, Note_on_c, 0, 45, 64
1, 417217, Note_off_c, 0, 45, 64
1, 417447, Note_on_c, 0, 61, 64
1, 417927, Note_off_c, 0, 61, 64
1, 417927, Note_on_c, 0, 57, 64
1, 418407, Note_off_c, 0, 57, 64
1, 418637, Note_on_c, 0, 69, 64
1, 419117, Note_off_c, 0, 69, 64
1, 419117, Note_on_c, 0, 61, 64
1, 419597, Note_off_c, 0, 61, 64
1, 419597, Note_on_c, 0, 57, 64
1, 420077, Note_off_c, 0, 57, 64
1, 420307, Note_on_c, 0, 69, 64
1, 420787, Note_off_c, 0, 69, 64
1, 420787, Note_on_c, 0, 40, 64
1, 421267, Note_off_c, 0, 40, 64
1, 421497, Note_on_c, 0, 61, 64
1, 421977, Note_off_c, 0, 61, 64
1, 421977, Note_on_c, 0, 57, 64
1, 422457, Note_off_c, 0, 57, 64
1, 422687, Note_on_c, 0, 68, 64
1, 423167, Note_off_c, 0, 68, 64
1, 423167, Note_on_c, 0, 61, 64
1, 423647, Note_off_c, 0, 61, 64
1, 423647, Note_on_c, 0, 57, 64
1, 424127, Note_off_c, 0, 57, 64
1, 424357, Note_on_c, 0, 68, 64
1, 424837, Note_off_c, 0, 68, 64
1, 424837, Note_on_c, 0, 47, 64
1, 425317, Note_off_c, 0, 47, 64
1, 425345, Note_on_c, 0, 66, 64
1, 425825, Note_off_c, 0, 66, 64
1, 426026, Note_on_c, 0, 59, 64
1, 426506, Note_off_c, 0, 59, 64
1, 426506, Note_on_c, 0, 62, 64
1, 426986, Note_off_c, 0, 62, 64
1, 427216, Note_on_c, 0, 59, 64
1, 427696, Note_off_c, 0, 59, 64
1, 427696, Note_on_c, 0, 62, 64
1, 428176, Note_off_c, 0, 62, 64
1, 428406, Note_on_c, 0, 47, 64
1, 428886, Note_off_c, 0, 47, 64
1, 429116, Note_on_c, 0, 49, 64
1, 429596, Note_off_c, 0, 49, 64
1, 429826, Note_on_c, 0, 50, 64
1, 430306, Note_off_c, 0, 50, 64
1, 430536, Note_on_c, 0, 66, 64
1, 431016, Note_off_c, 0, 66, 64
1, 431016, Note_on_c, 0, 40, 64
1, 431496, Note_off_c, 0, 40, 64
1, 431726, Note_on_c, 0, 59, 64
1, 432206, Note_off_c, 0, 59, 64
1, 432206, Note_on_c, 0, 62, 64
1, 432686, Note_off_c, 0, 62, 64
1, 432916, Note_on_c, 0, 59, 64
1, 433396, Note_off_c, 0, 59, 64
1, 433396, Note_on_c, 0, 62, 64
1, 433876, Note_off_c, 0, 62, 64
1, 434106, Note_on_c, 0, 68, 64
1, 434586, Note_off_c, 0, 68, 64
1, 434586, Note_on_c, 0, 47, 64
1, 435066, Note_off_c, 0, 47, 64
1, 435296, Note_on_c, 0, 59, 64
1, 435776, Note_off_c, 0, 59, 64
1, 435776, Note_on_c, 0, 62, 64
1, 436256, Note_off_c, 0, 62, 64
1, 436486, Note_on_c, 0, 69, 64
1, 436966, Note_off_c, 0, 69, 64
1, 436966, Note_on_c, 0, 59, 64
1, 437446, Note_off_c, 0, 59, 64
1, 437446, Note_on_c, 0, 62, 64
1, 437926, Note_off_c, 0, 62, 64
1, 438156, Note_on_c, 0, 40, 64
1, 438636, Note_off_c, 0, 40, 64
1, 438866, Note_on_c, 0, 68, 64
1, 439346, Note_off_c, 0, 68, 64
1, 439346, Note_on_c, 0, 62, 64
1, 439826, Note_off_c, 0, 62, 64
1, 440056, Note_on_c, 0, 68, 64
1, 440536, Note_off_c, 0, 68, 64
1, 440536, Note_on_c, 0, 62, 64
1, 441016, Note_off_c, 0, 62, 64
1, 441246, Note_on_c, 0, 71, 64
1, 441726, Note_off_c, 0, 71, 64
1, 441726, Note_on_c, 0, 52, 64
1, 442206, Note_off_c, 0, 52, 64
1, 442436, Note_on_c, 0, 68, 64
1, 442916, Note_off_c, 0, 68, 64
1, 442916, Note_on_c, 0, 62, 64
1, 443396, Note_off_c, 0, 62, 64
1, 443626, Note_on_c, 0, 68, 64
1, 444106, Note_off_c, 0, 68, 64
1, 444106, Note_on_c, 0, 62, 64
1, 444586, Note_off_c, 0, 62, 64
1, 444816, Note_on_c, 0, 40, 64
1, 445296, Note_off_c, 0, 40, 64
1, 445526, Note_on_c, 0, 66, 64
1, 446006, Note_off_c, 0, 66, 64
1, 446236, Note_on_c, 0, 68, 64
1, 446716, Note_off_c, 0, 68, 64
1, 446946, Note_on_c, 0, 40, 64
1, 447426, Note_off_c, 0, 40, 64
1, 447541, Note_on_c, 0, 71, 64
1, 448021, Note_off_c, 0, 71, 64
1, 448136, Note_on_c, 0, 62, 64
1, 448616, Note_off_c, 0, 62, 64
1, 448846, Note_on_c, 0, 64, 64
1, 449326, Note_off_c, 0, 64, 64
1, 449556, Note_on_c, 0, 71, 64
1, 450036, Note_off_c, 0, 71, 64
1, 450036, Note_on_c, 0, 45, 64
1, 450516, Note_off_c, 0, 45, 64
1, 450631, Note_on_c, 0, 69, 64
1, 451111, Note_off_c, 0, 69, 64
1, 451226, Note_on_c, 0, 61, 64
1, 451706, Note_off_c, 0, 61, 64
1, 451936, Note_on_c, 0, 64, 64
1, 452416, Note_off_c, 0, 64, 64
1, 452646, Note_on_c, 0, 57, 64
1, 453126, Note_off_c, 0, 57, 64
1, 453586, Note_on_c, 0, 61, 64
1, 454066, Note_off_c, 0, 61, 64
1, 454094, Note_on_c, 0, 64, 64
1, 454574, Note_off_c, 0, 64, 64
1, 454775, Note_on_c, 0, 64, 64
1, 455255, Note_off_c, 0, 64, 64
1, 455255, Note_on_c, 0, 45, 64
1, 455735, Note_off_c, 0, 45, 64
1, 455965, Note_on_c, 0, 61, 64
1, 456445, Note_off_c, 0, 61, 64
1, 456445, Note_on_c, 0, 57, 64
1, 456925, Note_off_c, 0, 57, 64
1, 457155, Note_on_c, 0, 61, 64
1, 457635, Note_off_c, 0, 61, 64
1, 457635, Note_on_c, 0, 57, 64
1, 458115, Note_off_c, 0, 57, 64
1, 458345, Note_on_c, 0, 66, 64
1, 458825, Note_off_c, 0, 66, 64
1, 458825, Note_on_c, 0, 40, 64
1, 459305, Note_off_c, 0, 40, 64
1, 459535, Note_on_c, 0, 61, 64
1, 460015, Note_off_c, 0, 61, 64
1, 460015, Note_on_c, 0, 57, 64
1, 460495, Note_off_c, 0, 57, 64
1, 460725, Note_on_c, 0, 61, 64
1, 461205, Note_off_c, 0, 61, 64
1, 461205, Note_on_c, 0, 57, 64
1, 461685, Note_off_c, 0, 57, 64
1, 461915, Note_on_c, 0, 66, 64
1, 462395, Note_off_c, 0, 66, 64
1, 462395, Note_on_c, 0, 45, 64
1, 462875, Note_off_c, 0, 45, 64
1, 463105, Note_on_c, 0, 61, 64
1, 463585, Note_off_c, 0, 61, 64
1, 463585, Note_on_c, 0, 57, 64
1, 464065, Note_off_c, 0, 57, 64
1, 464295, Note_on_c, 0, 61, 64
1, 464775, Note_off_c, 0, 61, 64
1, 464775, Note_on_c, 0, 57, 64
1, 465255, Note_off_c, 0, 57, 64
1, 465485, Note_on_c, 0, 68, 64
1, 465965, Note_off_c, 0, 68, 64
1, 465965, Note_on_c, 0, 40, 64
1, 466445, Note_off_c, 0, 40, 64
1, 466675, Note_on_c, 0, 61, 64
1, 467155, Note_off_c, 0, 61, 64
1, 467155, Note_on_c, 0, 57, 64
1, 467635, Note_off_c, 0, 57, 64
1, 467865, Note_on_c, 0, 61, 64
1, 468345, Note_off_c, 0, 61, 64
1, 468345, Note_on_c, 0, 57, 64
1, 468825, Note_off_c, 0, 57, 64
1, 469055, Note_on_c, 0, 68, 64
1, 469535, Note_off_c, 0, 68, 64
1, 469535, Note_on_c, 0, 45, 64
1, 470015, Note_off_c, 0, 45, 64
1, 470245, Note_on_c, 0, 61, 64
1, 470725, Note_off_c, 0, 61, 64
1, 470725, Note_on_c, 0, 57, 64
1, 471205, Note_off_c, 0, 57, 64
1, 471435, Note_on_c, 0, 61, 64
1, 471915, Note_off_c, 0, 61, 64
1, 471915, Note_on_c, 0, 57, 64
1, 472395, Note_off_c, 0, 57, 64
1, 472625, Note_on_c, 0, 69, 64
1, 473105, Note_off_c, 0, 69, 64
1, 473105, Note_on_c, 0, 45, 64
1, 473585, Note_off_c, 0, 45, 64
1, 473815, Note_on_c, 0, 61, 64
1, 474295, Note_off_c, 0, 61, 64
1, 474295, Note_on_c, 0, 57, 64
1, 474775, Note_off_c, 0, 57, 64
1, 475005, Note_on_c, 0, 61, 64
1, 475485, Note_off_c, 0, 61, 64
1, 475485, Note_on_c, 0, 57, 64
1, 475965, Note_off_c, 0, 57, 64
1, 476195, Note_on_c, 0, 50, 64
1, 476675, Note_off_c, 0, 50, 64
1, 476905, Note_on_c, 0, 71, 64
1, 477385, Note_off_c, 0, 71, 64
1, 477385, Note_on_c, 0, 66, 64
1, 477865, Note_off_c, 0, 66, 64
1, 478095, Note_on_c, 0, 71, 64
1, 478575, Note_off_c, 0, 71, 64
1, 478575, Note_on_c, 0, 66, 64
1, 479055, Note_off_c, 0, 66, 64
1, 479285, Note_on_c, 0, 50, 64
1, 479765, Note_off_c, 0, 50, 64
1, 479995, Note_on_c, 0, 71, 64
1, 480475, Note_off_c, 0, 71, 64
1, 480475, Note_on_c, 0, 66, 64
1, 480955, Note_off_c, 0, 66, 64
1, 481185, Note_on_c, 0, 71, 64
1, 481665, Note_off_c, 0, 71, 64
1, 481665, Note_on_c, 0, 66, 64
1, 482145, Note_off_c, 0, 66, 64
1, 482375, Note_on_c, 0, 66, 64
1, 482855, Note_off_c, 0, 66, 64
1, 482855, Note_on_c, 0, 47, 64
1, 483335, Note_off_c, 0, 47, 64
1, 483565, Note_on_c, 0, 59, 64
1, 484045, Note_off_c, 0, 59, 64
1, 484045, Note_on_c, 0, 62, 64
1, 484525, Note_off_c, 0, 62, 64
1, 484755, Note_on_c, 0, 59, 64
1, 485235, Note_off_c, 0, 59, 64
1, 485235, Note_on_c, 0, 62, 64
1, 485715, Note_off_c, 0, 62, 64
1, 485945, Note_on_c, 0, 50, 64
1, 486425, Note_off_c, 0, 50, 64
1, 486655, Note_on_c, 0, 69, 64
1, 487135, Note_off_c, 0, 69, 64
1, 487135, Note_on_c, 0, 65, 64
1, 487615, Note_off_c, 0, 65, 64
1, 487845, Note_on_c, 0, 69, 64
1, 488325, Note_off_c, 0, 69, 64
1, 488325, Note_on_c, 0, 65, 64
1, 488805, Note_off_c, 0, 65, 64
1, 489035, Note_on_c, 0, 52, 64
1, 489515, Note_off_c, 0, 52, 64
1, 489745, Note_on_c, 0, 69, 64
1, 490225, Note_off_c, 0, 69, 64
1, 490225, Note_on_c, 0, 64, 64
1, 490705, Note_off_c, 0, 64, 64
1, 490935, Note_on_c, 0, 69, 64
1, 491415, Note_off_c, 0, 69, 64
1, 491415, Note_on_c, 0, 64, 64
1, 491895, Note_off_c, 0, 64, 64
1, 492125, Note_on_c, 0, 64, 64
1, 492605, Note_off_c, 0, 64, 64
1, 492605, Note_on_c, 0, 40, 64
1, 493085, Note_off_c, 0, 40, 64
1, 493315, Note_on_c, 0, 61, 64
1, 493795, Note_off_c, 0, 61, 64
1, 493795, Note_on_c, 0, 57, 64
1, 494275, Note_off_c, 0, 57, 64
1, 494505, Note_on_c, 0, 61, 64
1, 494985, Note_off_c, 0, 61, 64
1, 494985, Note_on_c, 0, 57, 64
1, 495465, Note_off_c, 0, 57, 64
1, 495695, Note_on_c, 0, 66, 64
1, 496175, Note_off_c, 0, 66, 64
1, 496175, Note_on_c, 0, 40, 64
1, 496655, Note_off_c, 0, 40, 64
1, 496885, Note_on_c, 0, 59, 64
1, 497365, Note_off_c, 0, 59, 64
1, 497365, Note_on_c, 0, 63, 64
1, 497845, Note_off_c, 0, 63, 64
1, 498075, Note_on_c, 0, 59, 64
1, 498555, Note_off_c, 0, 59, 64
1, 498555, Note_on_c, 0, 63, 64
1, 499035, Note_off_c, 0, 63, 64
1, 499265, Note_on_c, 0, 71, 64
1, 499745, Note_off_c, 0, 71, 64
1, 499745, Note_on_c, 0, 52, 64
1, 500225, Note_off_c, 0, 52, 64
1, 500455, Note_on_c, 0, 68, 64
1, 500935, Note_off_c, 0, 68, 64
1, 500935, Note_on_c, 0, 62, 64
1, 501415, Note_off_c, 0, 62, 64
1, 501645, Note_on_c, 0, 68, 64
1, 502125, Note_off_c, 0, 68, 64
1, 502125, Note_on_c, 0, 62, 64
1, 502605, Note_off_c, 0, 62, 64
1, 502835, Note_on_c, 0, 69, 64
1, 503315, Note_off_c, 0, 69, 64
1, 503315, Note_on_c, 0, 64, 64
1, 503795, Note_off_c, 0, 64, 64
1, 503795, Note_on_c, 0, 61, 64
1, 504275, Note_off_c, 0, 61, 64
1, 504275, Note_on_c, 0, 45, 64
1, 504755, Note_off_c, 0, 45, 64
1, 504985, Note_on_c, 0, 52, 64
1, 505465, Note_off_c, 0, 52, 64
1, 505695, Note_on_c, 0, 49, 64
1, 506175, Note_off_c, 0, 49, 64
1, 506405, Note_on_c, 0, 45, 64
1, 506885, Note_off_c, 0, 45, 64
1, 506885, End_track
0, 0, End_of_file