0, 0, Header, 1, 15, 96
1, 0, Start_track
1, 0, Title_t, "Blackbird"
1, 0, Instrument_name_t, "    by The Beatles"
1, 0, SMPTE_offset, 96, 0, 3, 0, 0
1, 0, MIDI_port, 0
1, 0, Key_signature, 1, "major"
1, 0, Tempo, 600000
1, 0, Time_signature, 3, 2, 24, 8
1, 0, System_exclusive, 0A, 41, 10, 42, 12, 40, 00, 7F, 00, 41, F7
1, 1, Text_t, "GS Reset - SYX "
1, 576, Time_signature, 4, 2, 24, 8
1, 960, Text_t, "verse"
1, 960, Time_signature, 3, 2, 24, 8
1, 1248, Time_signature, 4, 2, 24, 8
1, 2400, Time_signature, 2, 2, 24, 8
1, 2592, Time_signature, 4, 2, 24, 8
1, 4512, Time_signature, 3, 2, 24, 8
1, 4512, Text_t, "verse"
1, 4800, Time_signature, 4, 2, 24, 8
1, 5952, Time_signature, 2, 2, 24, 8
1, 6144, Time_signature, 4, 2, 24, 8
1, 7296, Text_t, "chorus"
1, 8832, Time_signature, 2, 2, 24, 8
1, 9024, Time_signature, 3, 2, 24, 8
1, 9024, Text_t, "instrumental"
1, 9312, Time_signature, 4, 2, 24, 8
1, 10464, Time_signature, 2, 2, 24, 8
1, 10656, Time_signature, 4, 2, 24, 8
1, 11808, Text_t, "chorus"
1, 13344, Time_signature, 2, 2, 24, 8
1, 13536, Time_signature, 3, 2, 24, 8
1, 13824, Time_signature, 4, 2, 24, 8
1, 14592, Tempo, 600000
1, 14630, Tempo, 625000
1, 14669, Tempo, 652173
1, 14707, Tempo, 681818
1, 14745, Tempo, 714285
1, 14784, Tempo, 750000
1, 14822, Tempo, 789473
1, 14860, Tempo, 833333
1, 14898, Tempo, 882352
1, 14937, Tempo, 937500
1, 14975, Tempo, 1000000
1, 14976, Time_signature, 2, 2, 24, 8
1, 14976, Tempo, 2400000
1, 15072, Tempo, 600000
1, 15168, Time_signature, 3, 2, 24, 8
1, 15744, Time_signature, 2, 2, 24, 8
1, 15936, Text_t, "verse"
1, 15936, Time_signature, 3, 2, 24, 8
1, 16224, Time_signature, 4, 2, 24, 8
1, 17376, Time_signature, 2, 2, 24, 8
1, 17568, Time_signature, 4, 2, 24, 8
1, 20160, Tempo, 2400000
1, 20352, System_exclusive, 0A, 41, 10, 42, 12, 40, 00, 7F, 00, 41, F7
1, 20353, Text_t, "GS Reset - SYX "
1, 20353, End_track
2, 0, Start_track
2, 0, Title_t, "Nylon Guitar"
2, 0, Instrument_name_t, "          1968"
2, 0, MIDI_port, 0
2, 96, Control_c, 0, 121, 0
2, 96, Control_c, 0, 7, 100
2, 97, Control_c, 0, 10, 54
2, 98, Control_c, 0, 91, 60
2, 99, Control_c, 0, 93, 36
2, 100, Control_c, 0, 32, 0
2, 100, Control_c, 0, 0, 0
2, 100, Program_c, 0, 24
2, 288, Note_on_c, 0, 43, 110
2, 288, Note_on_c, 0, 59, 100
2, 336, Note_on_c, 0, 55, 100
2, 384, Note_on_c, 0, 43, 0
2, 384, Note_on_c, 0, 59, 0
2, 384, Note_on_c, 0, 45, 110
2, 384, Note_on_c, 0, 60, 100
2, 432, Note_on_c, 0, 55, 0
2, 432, Note_on_c, 0, 55, 100
2, 480, Note_on_c, 0, 45, 0
2, 480, Note_on_c, 0, 60, 0
2, 480, Note_on_c, 0, 47, 110
2, 480, Note_on_c, 0, 62, 100
2, 504, Note_on_c, 0, 63, 60
2, 512, Note_on_c, 0, 47, 66
2, 516, Note_on_c, 0, 63, 0
2, 516, Note_on_c, 0, 64, 60
2, 520, Note_on_c, 0, 47, 0
2, 520, Note_on_c, 0, 48, 66
2, 527, Note_on_c, 0, 62, 0
2, 527, Note_on_c, 0, 47, 0
2, 528, Note_on_c, 0, 64, 0
2, 528, Note_on_c, 0, 48, 0
2, 528, Note_on_c, 0, 65, 60
2, 528, Note_on_c, 0, 49, 66
2, 536, Note_on_c, 0, 65, 0
2, 536, Note_on_c, 0, 49, 0
2, 536, Note_on_c, 0, 50, 66
2, 536, Note_on_c, 0, 66, 60
2, 544, Note_on_c, 0, 50, 0
2, 544, Note_on_c, 0, 66, 0
2, 544, Note_on_c, 0, 67, 60
2, 544, Note_on_c, 0, 51, 66
2, 552, Note_on_c, 0, 67, 0
2, 552, Note_on_c, 0, 51, 0
2, 552, Note_on_c, 0, 68, 60
2, 552, Note_on_c, 0, 52, 66
2, 560, Note_on_c, 0, 68, 0
2, 560, Note_on_c, 0, 52, 0
2, 560, Note_on_c, 0, 53, 66
2, 560, Note_on_c, 0, 69, 60
2, 568, Note_on_c, 0, 53, 0
2, 568, Note_on_c, 0, 69, 0
2, 568, Note_on_c, 0, 70, 60
2, 568, Note_on_c, 0, 54, 66
2, 576, Note_on_c, 0, 55, 0
2, 576, Note_on_c, 0, 70, 0
2, 576, Note_on_c, 0, 54, 0
2, 576, Note_on_c, 0, 55, 100
2, 576, Note_on_c, 0, 71, 100
2, 624, Note_on_c, 0, 55, 0
2, 624, Note_on_c, 0, 55, 100
2, 648, Note_on_c, 0, 71, 0
2, 648, Note_on_c, 0, 71, 100
2, 672, Note_on_c, 0, 55, 0
2, 672, Note_on_c, 0, 55, 100
2, 696, Note_on_c, 0, 71, 0
2, 696, Note_on_c, 0, 71, 100
2, 720, Note_on_c, 0, 55, 0
2, 720, Note_on_c, 0, 55, 100
2, 768, Note_on_c, 0, 71, 0
2, 768, Note_on_c, 0, 55, 0
2, 768, Note_on_c, 0, 55, 100
2, 768, Note_on_c, 0, 71, 100
2, 816, Note_on_c, 0, 55, 0
2, 816, Note_on_c, 0, 55, 100
2, 840, Note_on_c, 0, 71, 0
2, 840, Note_on_c, 0, 71, 100
2, 864, Note_on_c, 0, 55, 0
2, 864, Note_on_c, 0, 55, 100
2, 888, Note_on_c, 0, 71, 0
2, 888, Note_on_c, 0, 71, 100
2, 912, Note_on_c, 0, 55, 0
2, 912, Note_on_c, 0, 55, 100
2, 960, Note_on_c, 0, 71, 0
2, 960, Note_on_c, 0, 55, 0
2, 960, Note_on_c, 0, 59, 100
2, 960, Note_on_c, 0, 43, 110
2, 1008, Note_on_c, 0, 55, 100
2, 1056, Note_on_c, 0, 59, 0
2, 1056, Note_on_c, 0, 43, 0
2, 1056, Note_on_c, 0, 60, 100
2, 1056, Note_on_c, 0, 45, 110
2, 1104, Note_on_c, 0, 55, 0
2, 1104, Note_on_c, 0, 55, 100
2, 1152, Note_on_c, 0, 60, 0
2, 1152, Note_on_c, 0, 45, 0
2, 1152, Note_on_c, 0, 47, 110
2, 1152, Note_on_c, 0, 62, 100
2, 1176, Note_on_c, 0, 63, 60
2, 1184, Note_on_c, 0, 47, 66
2, 1188, Note_on_c, 0, 63, 0
2, 1188, Note_on_c, 0, 64, 60
2, 1192, Note_on_c, 0, 47, 0
2, 1192, Note_on_c, 0, 48, 66
2, 1199, Note_on_c, 0, 62, 0
2, 1199, Note_on_c, 0, 47, 0
2, 1200, Note_on_c, 0, 64, 0
2, 1200, Note_on_c, 0, 48, 0
2, 1200, Note_on_c, 0, 49, 66
2, 1200, Note_on_c, 0, 65, 60
2, 1208, Note_on_c, 0, 49, 0
2, 1208, Note_on_c, 0, 65, 0
2, 1208, Note_on_c, 0, 50, 66
2, 1208, Note_on_c, 0, 66, 60
2, 1216, Note_on_c, 0, 50, 0
2, 1216, Note_on_c, 0, 66, 0
2, 1216, Note_on_c, 0, 51, 66
2, 1216, Note_on_c, 0, 67, 60
2, 1224, Note_on_c, 0, 51, 0
2, 1224, Note_on_c, 0, 67, 0
2, 1224, Note_on_c, 0, 68, 60
2, 1224, Note_on_c, 0, 52, 66
2, 1232, Note_on_c, 0, 68, 0
2, 1232, Note_on_c, 0, 52, 0
2, 1232, Note_on_c, 0, 69, 60
2, 1232, Note_on_c, 0, 53, 66
2, 1240, Note_on_c, 0, 69, 0
2, 1240, Note_on_c, 0, 53, 0
2, 1240, Note_on_c, 0, 70, 60
2, 1240, Note_on_c, 0, 54, 66
2, 1248, Note_on_c, 0, 55, 0
2, 1248, Note_on_c, 0, 70, 0
2, 1248, Note_on_c, 0, 54, 0
2, 1248, Note_on_c, 0, 55, 100
2, 1248, Note_on_c, 0, 71, 100
2, 1296, Note_on_c, 0, 55, 0
2, 1296, Note_on_c, 0, 55, 100
2, 1320, Note_on_c, 0, 71, 0
2, 1320, Note_on_c, 0, 71, 100
2, 1344, Note_on_c, 0, 55, 0
2, 1344, Note_on_c, 0, 55, 100
2, 1368, Note_on_c, 0, 71, 0
2, 1368, Note_on_c, 0, 71, 100
2, 1392, Note_on_c, 0, 55, 0
2, 1392, Note_on_c, 0, 55, 100
2, 1440, Note_on_c, 0, 71, 0
2, 1440, Note_on_c, 0, 55, 0
2, 1440, Note_on_c, 0, 55, 100
2, 1440, Note_on_c, 0, 71, 100
2, 1488, Note_on_c, 0, 55, 0
2, 1488, Note_on_c, 0, 55, 100
2, 1512, Note_on_c, 0, 71, 0
2, 1512, Note_on_c, 0, 71, 100
2, 1536, Note_on_c, 0, 55, 0
2, 1536, Note_on_c, 0, 55, 100
2, 1560, Note_on_c, 0, 71, 0
2, 1560, Note_on_c, 0, 71, 100
2, 1584, Note_on_c, 0, 55, 0
2, 1584, Note_on_c, 0, 55, 100
2, 1632, Note_on_c, 0, 71, 0
2, 1632, Note_on_c, 0, 55, 0
2, 1632, Note_on_c, 0, 48, 110
2, 1632, Note_on_c, 0, 64, 100
2, 1680, Note_on_c, 0, 55, 100
2, 1728, Note_on_c, 0, 48, 0
2, 1728, Note_on_c, 0, 64, 0
2, 1728, Note_on_c, 0, 49, 110
2, 1728, Note_on_c, 0, 67, 100
2, 1776, Note_on_c, 0, 55, 0
2, 1776, Note_on_c, 0, 55, 100
2, 1824, Note_on_c, 0, 49, 0
2, 1824, Note_on_c, 0, 67, 0
2, 1824, Note_on_c, 0, 66, 100
2, 1824, Note_on_c, 0, 50, 110
2, 1872, Note_on_c, 0, 55, 0
2, 1872, Note_on_c, 0, 55, 100
2, 1920, Note_on_c, 0, 66, 0
2, 1920, Note_on_c, 0, 50, 0
2, 1920, Note_on_c, 0, 69, 100
2, 1920, Note_on_c, 0, 51, 110
2, 1968, Note_on_c, 0, 55, 0
2, 1968, Note_on_c, 0, 55, 100
2, 2016, Note_on_c, 0, 69, 0
2, 2016, Note_on_c, 0, 51, 0
2, 2016, Note_on_c, 0, 67, 100
2, 2016, Note_on_c, 0, 52, 110
2, 2064, Note_on_c, 0, 55, 0
2, 2064, Note_on_c, 0, 55, 100
2, 2088, Note_on_c, 0, 67, 0
2, 2088, Note_on_c, 0, 67, 100
2, 2112, Note_on_c, 0, 52, 0
2, 2112, Note_on_c, 0, 52, 110
2, 2136, Note_on_c, 0, 67, 0
2, 2136, Note_on_c, 0, 67, 100
2, 2160, Note_on_c, 0, 55, 0
2, 2160, Note_on_c, 0, 55, 100
2, 2208, Note_on_c, 0, 52, 0
2, 2208, Note_on_c, 0, 67, 0
2, 2208, Note_on_c, 0, 67, 100
2, 2208, Note_on_c, 0, 51, 110
2, 2256, Note_on_c, 0, 55, 0
2, 2256, Note_on_c, 0, 55, 100
2, 2280, Note_on_c, 0, 67, 0
2, 2280, Note_on_c, 0, 67, 100
2, 2304, Note_on_c, 0, 51, 0
2, 2304, Note_on_c, 0, 51, 110
2, 2328, Note_on_c, 0, 67, 0
2, 2328, Note_on_c, 0, 67, 100
2, 2352, Note_on_c, 0, 55, 0
2, 2352, Note_on_c, 0, 55, 100
2, 2400, Note_on_c, 0, 51, 0
2, 2400, Note_on_c, 0, 67, 0
2, 2400, Note_on_c, 0, 66, 100
2, 2400, Note_on_c, 0, 50, 110
2, 2448, Note_on_c, 0, 55, 0
2, 2448, Note_on_c, 0, 55, 100
2, 2496, Note_on_c, 0, 66, 0
2, 2496, Note_on_c, 0, 50, 0
2, 2496, Note_on_c, 0, 67, 100
2, 2496, Note_on_c, 0, 49, 110
2, 2544, Note_on_c, 0, 55, 0
2, 2544, Note_on_c, 0, 55, 100
2, 2592, Note_on_c, 0, 67, 0
2, 2592, Note_on_c, 0, 49, 0
2, 2592, Note_on_c, 0, 48, 110
2, 2592, Note_on_c, 0, 64, 100
2, 2640, Note_on_c, 0, 55, 0
2, 2640, Note_on_c, 0, 55, 100
2, 2664, Note_on_c, 0, 64, 0
2, 2664, Note_on_c, 0, 64, 100
2, 2688, Note_on_c, 0, 48, 0
2, 2688, Note_on_c, 0, 48, 110
2, 2712, Note_on_c, 0, 64, 0
2, 2712, Note_on_c, 0, 64, 100
2, 2736, Note_on_c, 0, 55, 0
2, 2736, Note_on_c, 0, 55, 100
2, 2784, Note_on_c, 0, 48, 0
2, 2784, Note_on_c, 0, 64, 0
2, 2784, Note_on_c, 0, 48, 110
2, 2784, Note_on_c, 0, 63, 100
2, 2832, Note_on_c, 0, 55, 0
2, 2832, Note_on_c, 0, 55, 100
2, 2856, Note_on_c, 0, 63, 0
2, 2856, Note_on_c, 0, 63, 100
2, 2880, Note_on_c, 0, 48, 0
2, 2880, Note_on_c, 0, 48, 110
2, 2904, Note_on_c, 0, 63, 0
2, 2904, Note_on_c, 0, 63, 100
2, 2928, Note_on_c, 0, 55, 0
2, 2928, Note_on_c, 0, 55, 100
2, 2976, Note_on_c, 0, 48, 0
2, 2976, Note_on_c, 0, 63, 0
2, 2976, Note_on_c, 0, 62, 100
2, 2976, Note_on_c, 0, 47, 110
2, 3024, Note_on_c, 0, 55, 0
2, 3024, Note_on_c, 0, 55, 100
2, 3048, Note_on_c, 0, 62, 0
2, 3048, Note_on_c, 0, 62, 100
2, 3072, Note_on_c, 0, 47, 0
2, 3072, Note_on_c, 0, 47, 110
2, 3096, Note_on_c, 0, 62, 0
2, 3096, Note_on_c, 0, 62, 100
2, 3120, Note_on_c, 0, 55, 0
2, 3120, Note_on_c, 0, 55, 100
2, 3168, Note_on_c, 0, 47, 0
2, 3168, Note_on_c, 0, 62, 0
2, 3168, Note_on_c, 0, 61, 100
2, 3168, Note_on_c, 0, 45, 110
2, 3216, Note_on_c, 0, 55, 0
2, 3216, Note_on_c, 0, 55, 100
2, 3240, Note_on_c, 0, 61, 0
2, 3240, Note_on_c, 0, 61, 100
2, 3264, Note_on_c, 0, 45, 0
2, 3264, Note_on_c, 0, 45, 110
2, 3288, Note_on_c, 0, 61, 0
2, 3288, Note_on_c, 0, 61, 100
2, 3312, Note_on_c, 0, 55, 0
2, 3312, Note_on_c, 0, 55, 100
2, 3360, Note_on_c, 0, 45, 0
2, 3360, Note_on_c, 0, 61, 0
2, 3360, Note_on_c, 0, 50, 110
2, 3360, Note_on_c, 0, 60, 100
2, 3408, Note_on_c, 0, 55, 0
2, 3408, Note_on_c, 0, 55, 100
2, 3432, Note_on_c, 0, 60, 0
2, 3432, Note_on_c, 0, 60, 100
2, 3456, Note_on_c, 0, 50, 0
2, 3456, Note_on_c, 0, 50, 110
2, 3480, Note_on_c, 0, 60, 0
2, 3480, Note_on_c, 0, 60, 100
2, 3504, Note_on_c, 0, 55, 0
2, 3504, Note_on_c, 0, 55, 100
2, 3552, Note_on_c, 0, 50, 0
2, 3552, Note_on_c, 0, 60, 0
2, 3552, Note_on_c, 0, 59, 100
2, 3552, Note_on_c, 0, 43, 110
2, 3600, Note_on_c, 0, 55, 0
2, 3600, Note_on_c, 0, 55, 100
2, 3624, Note_on_c, 0, 59, 0
2, 3624, Note_on_c, 0, 59, 100
2, 3648, Note_on_c, 0, 43, 0
2, 3648, Note_on_c, 0, 43, 110
2, 3672, Note_on_c, 0, 59, 0
2, 3672, Note_on_c, 0, 59, 100
2, 3696, Note_on_c, 0, 55, 0
2, 3696, Note_on_c, 0, 55, 100
2, 3744, Note_on_c, 0, 43, 0
2, 3744, Note_on_c, 0, 59, 0
2, 3744, Note_on_c, 0, 48, 110
2, 3744, Note_on_c, 0, 64, 100
2, 3792, Note_on_c, 0, 55, 0
2, 3792, Note_on_c, 0, 55, 100
2, 3840, Note_on_c, 0, 48, 0
2, 3840, Note_on_c, 0, 64, 0
2, 3840, Note_on_c, 0, 47, 110
2, 3840, Note_on_c, 0, 62, 100
2, 3888, Note_on_c, 0, 55, 0
2, 3888, Note_on_c, 0, 55, 100
2, 3936, Note_on_c, 0, 47, 0
2, 3936, Note_on_c, 0, 62, 0
2, 3936, Note_on_c, 0, 61, 100
2, 3936, Note_on_c, 0, 45, 110
2, 3984, Note_on_c, 0, 55, 0
2, 3984, Note_on_c, 0, 55, 100
2, 4008, Note_on_c, 0, 61, 0
2, 4008, Note_on_c, 0, 61, 100
2, 4032, Note_on_c, 0, 45, 0
2, 4032, Note_on_c, 0, 45, 110
2, 4056, Note_on_c, 0, 61, 0
2, 4056, Note_on_c, 0, 61, 100
2, 4080, Note_on_c, 0, 55, 0
2, 4080, Note_on_c, 0, 55, 100
2, 4128, Note_on_c, 0, 45, 0
2, 4128, Note_on_c, 0, 61, 0
2, 4128, Note_on_c, 0, 60, 100
2, 4128, Note_on_c, 0, 50, 110
2, 4176, Note_on_c, 0, 55, 0
2, 4176, Note_on_c, 0, 55, 100
2, 4200, Note_on_c, 0, 60, 0
2, 4200, Note_on_c, 0, 60, 100
2, 4224, Note_on_c, 0, 50, 0
2, 4224, Note_on_c, 0, 50, 110
2, 4248, Note_on_c, 0, 60, 0
2, 4248, Note_on_c, 0, 60, 100
2, 4272, Note_on_c, 0, 55, 0
2, 4272, Note_on_c, 0, 55, 100
2, 4320, Note_on_c, 0, 50, 0
2, 4320, Note_on_c, 0, 60, 0
2, 4320, Note_on_c, 0, 59, 100
2, 4320, Note_on_c, 0, 43, 110
2, 4368, Note_on_c, 0, 55, 0
2, 4368, Note_on_c, 0, 55, 100
2, 4392, Note_on_c, 0, 59, 0
2, 4392, Note_on_c, 0, 59, 100
2, 4416, Note_on_c, 0, 43, 0
2, 4416, Note_on_c, 0, 43, 110
2, 4440, Note_on_c, 0, 59, 0
2, 4440, Note_on_c, 0, 59, 100
2, 4464, Note_on_c, 0, 55, 0
2, 4464, Note_on_c, 0, 55, 100
2, 4512, Note_on_c, 0, 43, 0
2, 4512, Note_on_c, 0, 59, 0
2, 4512, Note_on_c, 0, 55, 0
2, 4512, Note_on_c, 0, 43, 110
2, 4512, Note_on_c, 0, 59, 100
2, 4560, Note_on_c, 0, 55, 100
2, 4608, Note_on_c, 0, 43, 0
2, 4608, Note_on_c, 0, 59, 0
2, 4608, Note_on_c, 0, 45, 110
2, 4608, Note_on_c, 0, 60, 100
2, 4656, Note_on_c, 0, 55, 0
2, 4656, Note_on_c, 0, 55, 100
2, 4704, Note_on_c, 0, 45, 0
2, 4704, Note_on_c, 0, 60, 0
2, 4704, Note_on_c, 0, 62, 100
2, 4704, Note_on_c, 0, 47, 110
2, 4728, Note_on_c, 0, 63, 60
2, 4736, Note_on_c, 0, 47, 66
2, 4740, Note_on_c, 0, 63, 0
2, 4740, Note_on_c, 0, 64, 60
2, 4744, Note_on_c, 0, 47, 0
2, 4744, Note_on_c, 0, 48, 66
2, 4752, Note_on_c, 0, 62, 0
2, 4752, Note_on_c, 0, 64, 0
2, 4752, Note_on_c, 0, 48, 0
2, 4752, Note_on_c, 0, 65, 60
2, 4752, Note_on_c, 0, 49, 66
2, 4760, Note_on_c, 0, 65, 0
2, 4760, Note_on_c, 0, 49, 0
2, 4760, Note_on_c, 0, 50, 66
2, 4760, Note_on_c, 0, 66, 60
2, 4768, Note_on_c, 0, 47, 0
2, 4768, Note_on_c, 0, 50, 0
2, 4768, Note_on_c, 0, 66, 0
2, 4768, Note_on_c, 0, 51, 66
2, 4768, Note_on_c, 0, 67, 60
2, 4776, Note_on_c, 0, 51, 0
2, 4776, Note_on_c, 0, 67, 0
2, 4776, Note_on_c, 0, 68, 60
2, 4776, Note_on_c, 0, 52, 66
2, 4784, Note_on_c, 0, 68, 0
2, 4784, Note_on_c, 0, 52, 0
2, 4784, Note_on_c, 0, 69, 60
2, 4784, Note_on_c, 0, 53, 66
2, 4792, Note_on_c, 0, 69, 0
2, 4792, Note_on_c, 0, 53, 0
2, 4792, Note_on_c, 0, 54, 66
2, 4792, Note_on_c, 0, 70, 60
2, 4800, Note_on_c, 0, 55, 0
2, 4800, Note_on_c, 0, 54, 0
2, 4800, Note_on_c, 0, 70, 0
2, 4800, Note_on_c, 0, 71, 100
2, 4800, Note_on_c, 0, 55, 100
2, 4848, Note_on_c, 0, 55, 0
2, 4848, Note_on_c, 0, 55, 100
2, 4872, Note_on_c, 0, 71, 0
2, 4872, Note_on_c, 0, 71, 100
2, 4896, Note_on_c, 0, 55, 0
2, 4896, Note_on_c, 0, 55, 100
2, 4920, Note_on_c, 0, 71, 0
2, 4920, Note_on_c, 0, 71, 100
2, 4944, Note_on_c, 0, 55, 0
2, 4944, Note_on_c, 0, 55, 100
2, 4992, Note_on_c, 0, 71, 0
2, 4992, Note_on_c, 0, 55, 0
2, 4992, Note_on_c, 0, 55, 100
2, 4992, Note_on_c, 0, 71, 100
2, 5040, Note_on_c, 0, 55, 0
2, 5040, Note_on_c, 0, 55, 100
2, 5064, Note_on_c, 0, 71, 0
2, 5064, Note_on_c, 0, 71, 100
2, 5088, Note_on_c, 0, 55, 0
2, 5088, Note_on_c, 0, 55, 100
2, 5112, Note_on_c, 0, 71, 0
2, 5112, Note_on_c, 0, 71, 100
2, 5136, Note_on_c, 0, 55, 0
2, 5136, Note_on_c, 0, 55, 100
2, 5184, Note_on_c, 0, 71, 0
2, 5184, Note_on_c, 0, 55, 0
2, 5184, Note_on_c, 0, 48, 110
2, 5184, Note_on_c, 0, 64, 100
2, 5232, Note_on_c, 0, 55, 100
2, 5280, Note_on_c, 0, 48, 0
2, 5280, Note_on_c, 0, 64, 0
2, 5280, Note_on_c, 0, 49, 110
2, 5280, Note_on_c, 0, 67, 100
2, 5328, Note_on_c, 0, 55, 0
2, 5328, Note_on_c, 0, 55, 100
2, 5376, Note_on_c, 0, 49, 0
2, 5376, Note_on_c, 0, 67, 0
2, 5376, Note_on_c, 0, 66, 100
2, 5376, Note_on_c, 0, 50, 110
2, 5424, Note_on_c, 0, 55, 0
2, 5424, Note_on_c, 0, 55, 100
2, 5472, Note_on_c, 0, 66, 0
2, 5472, Note_on_c, 0, 50, 0
2, 5472, Note_on_c, 0, 69, 100
2, 5472, Note_on_c, 0, 51, 110
2, 5520, Note_on_c, 0, 55, 0
2, 5520, Note_on_c, 0, 55, 100
2, 5568, Note_on_c, 0, 69, 0
2, 5568, Note_on_c, 0, 51, 0
2, 5568, Note_on_c, 0, 67, 100
2, 5568, Note_on_c, 0, 52, 110
2, 5616, Note_on_c, 0, 55, 0
2, 5616, Note_on_c, 0, 55, 100
2, 5640, Note_on_c, 0, 67, 0
2, 5640, Note_on_c, 0, 67, 100
2, 5664, Note_on_c, 0, 52, 0
2, 5664, Note_on_c, 0, 52, 110
2, 5688, Note_on_c, 0, 67, 0
2, 5688, Note_on_c, 0, 67, 100
2, 5712, Note_on_c, 0, 55, 0
2, 5712, Note_on_c, 0, 55, 100
2, 5760, Note_on_c, 0, 52, 0
2, 5760, Note_on_c, 0, 67, 0
2, 5760, Note_on_c, 0, 67, 100
2, 5760, Note_on_c, 0, 51, 110
2, 5808, Note_on_c, 0, 55, 0
2, 5808, Note_on_c, 0, 55, 100
2, 5832, Note_on_c, 0, 67, 0
2, 5832, Note_on_c, 0, 67, 100
2, 5856, Note_on_c, 0, 51, 0
2, 5856, Note_on_c, 0, 51, 110
2, 5880, Note_on_c, 0, 67, 0
2, 5880, Note_on_c, 0, 67, 100
2, 5904, Note_on_c, 0, 55, 0
2, 5904, Note_on_c, 0, 55, 100
2, 5952, Note_on_c, 0, 51, 0
2, 5952, Note_on_c, 0, 67, 0
2, 5952, Note_on_c, 0, 50, 110
2, 5952, Note_on_c, 0, 66, 100
2, 6000, Note_on_c, 0, 55, 0
2, 6000, Note_on_c, 0, 55, 100
2, 6048, Note_on_c, 0, 50, 0
2, 6048, Note_on_c, 0, 66, 0
2, 6048, Note_on_c, 0, 49, 110
2, 6048, Note_on_c, 0, 67, 100
2, 6096, Note_on_c, 0, 55, 0
2, 6096, Note_on_c, 0, 55, 100
2, 6144, Note_on_c, 0, 49, 0
2, 6144, Note_on_c, 0, 67, 0
2, 6144, Note_on_c, 0, 48, 110
2, 6144, Note_on_c, 0, 64, 100
2, 6192, Note_on_c, 0, 55, 0
2, 6192, Note_on_c, 0, 55, 100
2, 6216, Note_on_c, 0, 64, 0
2, 6216, Note_on_c, 0, 64, 100
2, 6240, Note_on_c, 0, 48, 0
2, 6240, Note_on_c, 0, 48, 110
2, 6264, Note_on_c, 0, 64, 0
2, 6264, Note_on_c, 0, 64, 100
2, 6288, Note_on_c, 0, 55, 0
2, 6288, Note_on_c, 0, 55, 100
2, 6336, Note_on_c, 0, 48, 0
2, 6336, Note_on_c, 0, 64, 0
2, 6336, Note_on_c, 0, 63, 100
2, 6336, Note_on_c, 0, 48, 110
2, 6384, Note_on_c, 0, 55, 0
2, 6384, Note_on_c, 0, 55, 100
2, 6408, Note_on_c, 0, 63, 0
2, 6408, Note_on_c, 0, 63, 100
2, 6432, Note_on_c, 0, 48, 0
2, 6432, Note_on_c, 0, 48, 110
2, 6456, Note_on_c, 0, 63, 0
2, 6456, Note_on_c, 0, 63, 100
2, 6480, Note_on_c, 0, 55, 0
2, 6480, Note_on_c, 0, 55, 100
2, 6528, Note_on_c, 0, 48, 0
2, 6528, Note_on_c, 0, 63, 0
2, 6528, Note_on_c, 0, 47, 110
2, 6528, Note_on_c, 0, 62, 100
2, 6576, Note_on_c, 0, 55, 0
2, 6576, Note_on_c, 0, 55, 100
2, 6600, Note_on_c, 0, 62, 0
2, 6600, Note_on_c, 0, 62, 100
2, 6624, Note_on_c, 0, 47, 0
2, 6624, Note_on_c, 0, 47, 110
2, 6648, Note_on_c, 0, 62, 0
2, 6648, Note_on_c, 0, 62, 100
2, 6672, Note_on_c, 0, 55, 0
2, 6672, Note_on_c, 0, 55, 100
2, 6720, Note_on_c, 0, 47, 0
2, 6720, Note_on_c, 0, 62, 0
2, 6720, Note_on_c, 0, 45, 110
2, 6720, Note_on_c, 0, 61, 100
2, 6768, Note_on_c, 0, 55, 0
2, 6768, Note_on_c, 0, 55, 100
2, 6792, Note_on_c, 0, 61, 0
2, 6792, Note_on_c, 0, 61, 100
2, 6816, Note_on_c, 0, 45, 0
2, 6816, Note_on_c, 0, 45, 110
2, 6840, Note_on_c, 0, 61, 0
2, 6840, Note_on_c, 0, 61, 100
2, 6864, Note_on_c, 0, 55, 0
2, 6864, Note_on_c, 0, 55, 100
2, 6912, Note_on_c, 0, 45, 0
2, 6912, Note_on_c, 0, 61, 0
2, 6912, Note_on_c, 0, 50, 110
2, 6912, Note_on_c, 0, 60, 100
2, 6960, Note_on_c, 0, 55, 0
2, 6960, Note_on_c, 0, 55, 100
2, 6984, Note_on_c, 0, 60, 0
2, 6984, Note_on_c, 0, 60, 100
2, 7008, Note_on_c, 0, 50, 0
2, 7008, Note_on_c, 0, 50, 110
2, 7032, Note_on_c, 0, 60, 0
2, 7032, Note_on_c, 0, 60, 100
2, 7056, Note_on_c, 0, 55, 0
2, 7056, Note_on_c, 0, 55, 100
2, 7104, Note_on_c, 0, 50, 0
2, 7104, Note_on_c, 0, 60, 0
2, 7104, Note_on_c, 0, 59, 100
2, 7104, Note_on_c, 0, 43, 110
2, 7152, Note_on_c, 0, 55, 0
2, 7152, Note_on_c, 0, 55, 100
2, 7176, Note_on_c, 0, 59, 0
2, 7176, Note_on_c, 0, 59, 100
2, 7200, Note_on_c, 0, 43, 0
2, 7200, Note_on_c, 0, 43, 110
2, 7224, Note_on_c, 0, 59, 0
2, 7224, Note_on_c, 0, 59, 100
2, 7248, Note_on_c, 0, 55, 0
2, 7248, Note_on_c, 0, 55, 100
2, 7296, Note_on_c, 0, 43, 0
2, 7296, Note_on_c, 0, 59, 0
2, 7296, Note_on_c, 0, 53, 110
2, 7296, Note_on_c, 0, 69, 100
2, 7344, Note_on_c, 0, 55, 0
2, 7344, Note_on_c, 0, 55, 100
2, 7392, Note_on_c, 0, 53, 0
2, 7392, Note_on_c, 0, 69, 0
2, 7392, Note_on_c, 0, 52, 110
2, 7392, Note_on_c, 0, 67, 100
2, 7440, Note_on_c, 0, 55, 0
2, 7440, Note_on_c, 0, 55, 100
2, 7488, Note_on_c, 0, 52, 0
2, 7488, Note_on_c, 0, 67, 0
2, 7488, Note_on_c, 0, 65, 100
2, 7488, Note_on_c, 0, 50, 110
2, 7536, Note_on_c, 0, 55, 0
2, 7536, Note_on_c, 0, 55, 100
2, 7584, Note_on_c, 0, 65, 0
2, 7584, Note_on_c, 0, 50, 0
2, 7584, Note_on_c, 0, 48, 110
2, 7584, Note_on_c, 0, 64, 100
2, 7632, Note_on_c, 0, 55, 0
2, 7632, Note_on_c, 0, 55, 100
2, 7680, Note_on_c, 0, 48, 0
2, 7680, Note_on_c, 0, 64, 0
2, 7680, Note_on_c, 0, 62, 100
2, 7680, Note_on_c, 0, 46, 110
2, 7728, Note_on_c, 0, 55, 0
2, 7728, Note_on_c, 0, 55, 100
2, 7752, Note_on_c, 0, 62, 0
2, 7752, Note_on_c, 0, 62, 100
2, 7776, Note_on_c, 0, 46, 0
2, 7776, Note_on_c, 0, 46, 110
2, 7800, Note_on_c, 0, 62, 0
2, 7800, Note_on_c, 0, 62, 100
2, 7824, Note_on_c, 0, 55, 0
2, 7824, Note_on_c, 0, 55, 100
2, 7872, Note_on_c, 0, 46, 0
2, 7872, Note_on_c, 0, 62, 0
2, 7872, Note_on_c, 0, 64, 100
2, 7872, Note_on_c, 0, 48, 110
2, 7920, Note_on_c, 0, 55, 0
2, 7920, Note_on_c, 0, 55, 100
2, 7944, Note_on_c, 0, 64, 0
2, 7944, Note_on_c, 0, 64, 100
2, 7968, Note_on_c, 0, 48, 0
2, 7968, Note_on_c, 0, 48, 110
2, 7992, Note_on_c, 0, 64, 0
2, 7992, Note_on_c, 0, 64, 100
2, 8016, Note_on_c, 0, 55, 0
2, 8016, Note_on_c, 0, 55, 100
2, 8064, Note_on_c, 0, 48, 0
2, 8064, Note_on_c, 0, 64, 0
2, 8064, Note_on_c, 0, 69, 100
2, 8064, Note_on_c, 0, 53, 110
2, 8112, Note_on_c, 0, 55, 0
2, 8112, Note_on_c, 0, 55, 100
2, 8160, Note_on_c, 0, 69, 0
2, 8160, Note_on_c, 0, 53, 0
2, 8160, Note_on_c, 0, 52, 110
2, 8160, Note_on_c, 0, 67, 100
2, 8208, Note_on_c, 0, 55, 0
2, 8208, Note_on_c, 0, 55, 100
2, 8256, Note_on_c, 0, 52, 0
2, 8256, Note_on_c, 0, 67, 0
2, 8256, Note_on_c, 0, 65, 100
2, 8256, Note_on_c, 0, 50, 110
2, 8304, Note_on_c, 0, 55, 0
2, 8304, Note_on_c, 0, 55, 100
2, 8352, Note_on_c, 0, 65, 0
2, 8352, Note_on_c, 0, 50, 0
2, 8352, Note_on_c, 0, 64, 100
2, 8352, Note_on_c, 0, 48, 110
2, 8400, Note_on_c, 0, 55, 0
2, 8400, Note_on_c, 0, 55, 100
2, 8448, Note_on_c, 0, 64, 0
2, 8448, Note_on_c, 0, 48, 0
2, 8448, Note_on_c, 0, 62, 100
2, 8448, Note_on_c, 0, 46, 110
2, 8496, Note_on_c, 0, 55, 0
2, 8496, Note_on_c, 0, 55, 100
2, 8520, Note_on_c, 0, 62, 0
2, 8520, Note_on_c, 0, 62, 100
2, 8544, Note_on_c, 0, 46, 0
2, 8544, Note_on_c, 0, 46, 110
2, 8568, Note_on_c, 0, 62, 0
2, 8568, Note_on_c, 0, 62, 100
2, 8592, Note_on_c, 0, 55, 0
2, 8592, Note_on_c, 0, 55, 100
2, 8640, Note_on_c, 0, 46, 0
2, 8640, Note_on_c, 0, 62, 0
2, 8640, Note_on_c, 0, 61, 100
2, 8640, Note_on_c, 0, 45, 110
2, 8688, Note_on_c, 0, 55, 0
2, 8688, Note_on_c, 0, 55, 100
2, 8712, Note_on_c, 0, 61, 0
2, 8712, Note_on_c, 0, 61, 100
2, 8736, Note_on_c, 0, 45, 0
2, 8736, Note_on_c, 0, 45, 110
2, 8760, Note_on_c, 0, 61, 0
2, 8760, Note_on_c, 0, 61, 100
2, 8784, Note_on_c, 0, 55, 0
2, 8784, Note_on_c, 0, 55, 100
2, 8832, Note_on_c, 0, 45, 0
2, 8832, Note_on_c, 0, 61, 0
2, 8832, Note_on_c, 0, 60, 100
2, 8832, Note_on_c, 0, 50, 110
2, 8880, Note_on_c, 0, 55, 0
2, 8880, Note_on_c, 0, 55, 100
2, 8904, Note_on_c, 0, 60, 0
2, 8904, Note_on_c, 0, 60, 100
2, 8928, Note_on_c, 0, 50, 0
2, 8928, Note_on_c, 0, 50, 110
2, 8952, Note_on_c, 0, 60, 0
2, 8952, Note_on_c, 0, 60, 100
2, 8976, Note_on_c, 0, 55, 0
2, 8976, Note_on_c, 0, 55, 100
2, 9024, Note_on_c, 0, 50, 0
2, 9024, Note_on_c, 0, 60, 0
2, 9024, Note_on_c, 0, 55, 0
2, 9024, Note_on_c, 0, 59, 100
2, 9024, Note_on_c, 0, 43, 110
2, 9072, Note_on_c, 0, 55, 100
2, 9120, Note_on_c, 0, 59, 0
2, 9120, Note_on_c, 0, 43, 0
2, 9120, Note_on_c, 0, 45, 110
2, 9120, Note_on_c, 0, 60, 100
2, 9168, Note_on_c, 0, 55, 0
2, 9168, Note_on_c, 0, 55, 100
2, 9216, Note_on_c, 0, 45, 0
2, 9216, Note_on_c, 0, 60, 0
2, 9216, Note_on_c, 0, 47, 110
2, 9216, Note_on_c, 0, 62, 100
2, 9240, Note_on_c, 0, 63, 60
2, 9248, Note_on_c, 0, 47, 66
2, 9252, Note_on_c, 0, 63, 0
2, 9252, Note_on_c, 0, 64, 60
2, 9256, Note_on_c, 0, 47, 0
2, 9256, Note_on_c, 0, 48, 66
2, 9264, Note_on_c, 0, 62, 0
2, 9264, Note_on_c, 0, 64, 0
2, 9264, Note_on_c, 0, 48, 0
2, 9264, Note_on_c, 0, 49, 66
2, 9264, Note_on_c, 0, 65, 60
2, 9272, Note_on_c, 0, 49, 0
2, 9272, Note_on_c, 0, 65, 0
2, 9272, Note_on_c, 0, 50, 66
2, 9272, Note_on_c, 0, 66, 60
2, 9280, Note_on_c, 0, 47, 0
2, 9280, Note_on_c, 0, 50, 0
2, 9280, Note_on_c, 0, 66, 0
2, 9280, Note_on_c, 0, 67, 60
2, 9280, Note_on_c, 0, 51, 66
2, 9288, Note_on_c, 0, 67, 0
2, 9288, Note_on_c, 0, 51, 0
2, 9288, Note_on_c, 0, 68, 60
2, 9288, Note_on_c, 0, 52, 66
2, 9296, Note_on_c, 0, 68, 0
2, 9296, Note_on_c, 0, 52, 0
2, 9296, Note_on_c, 0, 69, 60
2, 9296, Note_on_c, 0, 53, 66
2, 9304, Note_on_c, 0, 69, 0
2, 9304, Note_on_c, 0, 53, 0
2, 9304, Note_on_c, 0, 70, 60
2, 9304, Note_on_c, 0, 54, 66
2, 9312, Note_on_c, 0, 55, 0
2, 9312, Note_on_c, 0, 70, 0
2, 9312, Note_on_c, 0, 54, 0
2, 9312, Note_on_c, 0, 55, 100
2, 9312, Note_on_c, 0, 71, 100
2, 9360, Note_on_c, 0, 55, 0
2, 9360, Note_on_c, 0, 55, 100
2, 9384, Note_on_c, 0, 71, 0
2, 9384, Note_on_c, 0, 71, 100
2, 9408, Note_on_c, 0, 55, 0
2, 9408, Note_on_c, 0, 55, 100
2, 9432, Note_on_c, 0, 71, 0
2, 9432, Note_on_c, 0, 71, 100
2, 9456, Note_on_c, 0, 55, 0
2, 9456, Note_on_c, 0, 55, 100
2, 9504, Note_on_c, 0, 71, 0
2, 9504, Note_on_c, 0, 55, 0
2, 9504, Note_on_c, 0, 55, 100
2, 9504, Note_on_c, 0, 71, 100
2, 9552, Note_on_c, 0, 55, 0
2, 9552, Note_on_c, 0, 55, 100
2, 9600, Note_on_c, 0, 71, 0
2, 9600, Note_on_c, 0, 55, 0
2, 9600, Note_on_c, 0, 71, 100
2, 9600, Note_on_c, 0, 55, 110
2, 9624, Note_on_c, 0, 70, 60
2, 9624, Note_on_c, 0, 53, 66
2, 9636, Note_on_c, 0, 70, 0
2, 9636, Note_on_c, 0, 53, 0
2, 9636, Note_on_c, 0, 69, 60
2, 9636, Note_on_c, 0, 54, 66
2, 9648, Note_on_c, 0, 71, 0
2, 9648, Note_on_c, 0, 55, 0
2, 9648, Note_on_c, 0, 69, 0
2, 9648, Note_on_c, 0, 54, 0
2, 9648, Note_on_c, 0, 68, 60
2, 9648, Note_on_c, 0, 52, 66
2, 9660, Note_on_c, 0, 68, 0
2, 9660, Note_on_c, 0, 52, 0
2, 9660, Note_on_c, 0, 67, 60
2, 9660, Note_on_c, 0, 51, 66
2, 9672, Note_on_c, 0, 67, 0
2, 9672, Note_on_c, 0, 51, 0
2, 9672, Note_on_c, 0, 66, 60
2, 9672, Note_on_c, 0, 50, 66
2, 9684, Note_on_c, 0, 66, 0
2, 9684, Note_on_c, 0, 50, 0
2, 9684, Note_on_c, 0, 47, 66
2, 9684, Note_on_c, 0, 65, 60
2, 9696, Note_on_c, 0, 47, 0
2, 9696, Note_on_c, 0, 65, 0
2, 9696, Note_on_c, 0, 64, 100
2, 9696, Note_on_c, 0, 48, 110
2, 9744, Note_on_c, 0, 55, 100
2, 9792, Note_on_c, 0, 64, 0
2, 9792, Note_on_c, 0, 48, 0
2, 9792, Note_on_c, 0, 67, 100
2, 9792, Note_on_c, 0, 49, 110
2, 9840, Note_on_c, 0, 55, 0
2, 9840, Note_on_c, 0, 55, 100
2, 9888, Note_on_c, 0, 67, 0
2, 9888, Note_on_c, 0, 49, 0
2, 9888, Note_on_c, 0, 50, 110
2, 9888, Note_on_c, 0, 66, 100
2, 9936, Note_on_c, 0, 55, 0
2, 9936, Note_on_c, 0, 55, 100
2, 9984, Note_on_c, 0, 50, 0
2, 9984, Note_on_c, 0, 66, 0
2, 9984, Note_on_c, 0, 51, 110
2, 9984, Note_on_c, 0, 69, 100
2, 10032, Note_on_c, 0, 55, 0
2, 10032, Note_on_c, 0, 55, 100
2, 10080, Note_on_c, 0, 51, 0
2, 10080, Note_on_c, 0, 69, 0
2, 10080, Note_on_c, 0, 52, 110
2, 10080, Note_on_c, 0, 67, 100
2, 10128, Note_on_c, 0, 55, 0
2, 10128, Note_on_c, 0, 55, 100
2, 10152, Note_on_c, 0, 67, 0
2, 10152, Note_on_c, 0, 67, 100
2, 10176, Note_on_c, 0, 52, 0
2, 10176, Note_on_c, 0, 52, 110
2, 10200, Note_on_c, 0, 67, 0
2, 10200, Note_on_c, 0, 67, 100
2, 10224, Note_on_c, 0, 55, 0
2, 10224, Note_on_c, 0, 55, 100
2, 10272, Note_on_c, 0, 52, 0
2, 10272, Note_on_c, 0, 67, 0
2, 10272, Note_on_c, 0, 51, 110
2, 10272, Note_on_c, 0, 67, 100
2, 10320, Note_on_c, 0, 55, 0
2, 10320, Note_on_c, 0, 55, 100
2, 10344, Note_on_c, 0, 67, 0
2, 10344, Note_on_c, 0, 67, 100
2, 10368, Note_on_c, 0, 51, 0
2, 10368, Note_on_c, 0, 51, 110
2, 10392, Note_on_c, 0, 67, 0
2, 10392, Note_on_c, 0, 67, 100
2, 10416, Note_on_c, 0, 55, 0
2, 10416, Note_on_c, 0, 55, 100
2, 10464, Note_on_c, 0, 51, 0
2, 10464, Note_on_c, 0, 67, 0
2, 10464, Note_on_c, 0, 66, 100
2, 10464, Note_on_c, 0, 50, 110
2, 10512, Note_on_c, 0, 55, 0
2, 10512, Note_on_c, 0, 55, 100
2, 10560, Note_on_c, 0, 66, 0
2, 10560, Note_on_c, 0, 50, 0
2, 10560, Note_on_c, 0, 49, 110
2, 10560, Note_on_c, 0, 67, 100
2, 10608, Note_on_c, 0, 55, 0
2, 10608, Note_on_c, 0, 55, 100
2, 10656, Note_on_c, 0, 49, 0
2, 10656, Note_on_c, 0, 67, 0
2, 10656, Note_on_c, 0, 48, 110
2, 10656, Note_on_c, 0, 64, 100
2, 10704, Note_on_c, 0, 55, 0
2, 10704, Note_on_c, 0, 55, 100
2, 10728, Note_on_c, 0, 64, 0
2, 10728, Note_on_c, 0, 64, 100
2, 10752, Note_on_c, 0, 48, 0
2, 10752, Note_on_c, 0, 48, 110
2, 10776, Note_on_c, 0, 64, 0
2, 10776, Note_on_c, 0, 64, 100
2, 10800, Note_on_c, 0, 55, 0
2, 10800, Note_on_c, 0, 55, 100
2, 10848, Note_on_c, 0, 48, 0
2, 10848, Note_on_c, 0, 64, 0
2, 10848, Note_on_c, 0, 48, 110
2, 10848, Note_on_c, 0, 63, 100
2, 10896, Note_on_c, 0, 55, 0
2, 10896, Note_on_c, 0, 55, 100
2, 10920, Note_on_c, 0, 63, 0
2, 10920, Note_on_c, 0, 63, 100
2, 10944, Note_on_c, 0, 48, 0
2, 10944, Note_on_c, 0, 48, 110
2, 10968, Note_on_c, 0, 63, 0
2, 10968, Note_on_c, 0, 63, 100
2, 10992, Note_on_c, 0, 55, 0
2, 10992, Note_on_c, 0, 55, 100
2, 11040, Note_on_c, 0, 48, 0
2, 11040, Note_on_c, 0, 63, 0
2, 11040, Note_on_c, 0, 47, 110
2, 11040, Note_on_c, 0, 62, 100
2, 11088, Note_on_c, 0, 55, 0
2, 11088, Note_on_c, 0, 55, 100
2, 11112, Note_on_c, 0, 62, 0
2, 11112, Note_on_c, 0, 62, 100
2, 11136, Note_on_c, 0, 47, 0
2, 11136, Note_on_c, 0, 47, 110
2, 11160, Note_on_c, 0, 62, 0
2, 11160, Note_on_c, 0, 62, 100
2, 11184, Note_on_c, 0, 55, 0
2, 11184, Note_on_c, 0, 55, 100
2, 11232, Note_on_c, 0, 47, 0
2, 11232, Note_on_c, 0, 62, 0
2, 11232, Note_on_c, 0, 45, 110
2, 11232, Note_on_c, 0, 61, 100
2, 11280, Note_on_c, 0, 55, 0
2, 11280, Note_on_c, 0, 55, 100
2, 11304, Note_on_c, 0, 61, 0
2, 11304, Note_on_c, 0, 61, 100
2, 11328, Note_on_c, 0, 45, 0
2, 11328, Note_on_c, 0, 45, 110
2, 11352, Note_on_c, 0, 61, 0
2, 11352, Note_on_c, 0, 61, 100
2, 11376, Note_on_c, 0, 55, 0
2, 11376, Note_on_c, 0, 55, 100
2, 11424, Note_on_c, 0, 45, 0
2, 11424, Note_on_c, 0, 61, 0
2, 11424, Note_on_c, 0, 60, 100
2, 11424, Note_on_c, 0, 50, 110
2, 11472, Note_on_c, 0, 55, 0
2, 11472, Note_on_c, 0, 55, 100
2, 11496, Note_on_c, 0, 60, 0
2, 11496, Note_on_c, 0, 60, 100
2, 11520, Note_on_c, 0, 50, 0
2, 11520, Note_on_c, 0, 50, 110
2, 11544, Note_on_c, 0, 60, 0
2, 11544, Note_on_c, 0, 60, 100
2, 11568, Note_on_c, 0, 55, 0
2, 11568, Note_on_c, 0, 55, 100
2, 11616, Note_on_c, 0, 50, 0
2, 11616, Note_on_c, 0, 60, 0
2, 11616, Note_on_c, 0, 59, 100
2, 11616, Note_on_c, 0, 43, 110
2, 11664, Note_on_c, 0, 55, 0
2, 11664, Note_on_c, 0, 55, 100
2, 11688, Note_on_c, 0, 59, 0
2, 11688, Note_on_c, 0, 59, 100
2, 11712, Note_on_c, 0, 43, 0
2, 11712, Note_on_c, 0, 43, 110
2, 11736, Note_on_c, 0, 59, 0
2, 11736, Note_on_c, 0, 59, 100
2, 11760, Note_on_c, 0, 55, 0
2, 11760, Note_on_c, 0, 55, 100
2, 11808, Note_on_c, 0, 43, 0
2, 11808, Note_on_c, 0, 59, 0
2, 11808, Note_on_c, 0, 69, 100
2, 11808, Note_on_c, 0, 53, 110
2, 11856, Note_on_c, 0, 55, 0
2, 11856, Note_on_c, 0, 55, 100
2, 11904, Note_on_c, 0, 69, 0
2, 11904, Note_on_c, 0, 53, 0
2, 11904, Note_on_c, 0, 67, 100
2, 11904, Note_on_c, 0, 52, 110
2, 11952, Note_on_c, 0, 55, 0
2, 11952, Note_on_c, 0, 55, 100
2, 12000, Note_on_c, 0, 67, 0
2, 12000, Note_on_c, 0, 52, 0
2, 12000, Note_on_c, 0, 65, 100
2, 12000, Note_on_c, 0, 50, 110
2, 12048, Note_on_c, 0, 55, 0
2, 12048, Note_on_c, 0, 55, 100
2, 12096, Note_on_c, 0, 65, 0
2, 12096, Note_on_c, 0, 50, 0
2, 12096, Note_on_c, 0, 64, 100
2, 12096, Note_on_c, 0, 48, 110
2, 12144, Note_on_c, 0, 55, 0
2, 12144, Note_on_c, 0, 55, 100
2, 12192, Note_on_c, 0, 64, 0
2, 12192, Note_on_c, 0, 48, 0
2, 12192, Note_on_c, 0, 46, 110
2, 12192, Note_on_c, 0, 62, 100
2, 12240, Note_on_c, 0, 55, 0
2, 12240, Note_on_c, 0, 55, 100
2, 12264, Note_on_c, 0, 62, 0
2, 12264, Note_on_c, 0, 62, 100
2, 12288, Note_on_c, 0, 46, 0
2, 12288, Note_on_c, 0, 46, 110
2, 12312, Note_on_c, 0, 62, 0
2, 12312, Note_on_c, 0, 62, 100
2, 12336, Note_on_c, 0, 55, 0
2, 12336, Note_on_c, 0, 55, 100
2, 12384, Note_on_c, 0, 46, 0
2, 12384, Note_on_c, 0, 62, 0
2, 12384, Note_on_c, 0, 64, 100
2, 12384, Note_on_c, 0, 48, 110
2, 12432, Note_on_c, 0, 55, 0
2, 12432, Note_on_c, 0, 55, 100
2, 12456, Note_on_c, 0, 64, 0
2, 12456, Note_on_c, 0, 64, 100
2, 12480, Note_on_c, 0, 48, 0
2, 12480, Note_on_c, 0, 48, 110
2, 12504, Note_on_c, 0, 64, 0
2, 12504, Note_on_c, 0, 64, 100
2, 12528, Note_on_c, 0, 55, 0
2, 12528, Note_on_c, 0, 55, 100
2, 12576, Note_on_c, 0, 48, 0
2, 12576, Note_on_c, 0, 64, 0
2, 12576, Note_on_c, 0, 69, 100
2, 12576, Note_on_c, 0, 53, 110
2, 12624, Note_on_c, 0, 55, 0
2, 12624, Note_on_c, 0, 55, 100
2, 12672, Note_on_c, 0, 69, 0
2, 12672, Note_on_c, 0, 53, 0
2, 12672, Note_on_c, 0, 67, 100
2, 12672, Note_on_c, 0, 52, 110
2, 12720, Note_on_c, 0, 55, 0
2, 12720, Note_on_c, 0, 55, 100
2, 12768, Note_on_c, 0, 67, 0
2, 12768, Note_on_c, 0, 52, 0
2, 12768, Note_on_c, 0, 65, 100
2, 12768, Note_on_c, 0, 50, 110
2, 12816, Note_on_c, 0, 55, 0
2, 12816, Note_on_c, 0, 55, 100
2, 12864, Note_on_c, 0, 65, 0
2, 12864, Note_on_c, 0, 50, 0
2, 12864, Note_on_c, 0, 64, 100
2, 12864, Note_on_c, 0, 48, 110
2, 12912, Note_on_c, 0, 55, 0
2, 12912, Note_on_c, 0, 55, 100
2, 12960, Note_on_c, 0, 64, 0
2, 12960, Note_on_c, 0, 48, 0
2, 12960, Note_on_c, 0, 46, 110
2, 12960, Note_on_c, 0, 62, 100
2, 13008, Note_on_c, 0, 55, 0
2, 13008, Note_on_c, 0, 55, 100
2, 13032, Note_on_c, 0, 62, 0
2, 13032, Note_on_c, 0, 62, 100
2, 13056, Note_on_c, 0, 46, 0
2, 13056, Note_on_c, 0, 46, 110
2, 13080, Note_on_c, 0, 62, 0
2, 13080, Note_on_c, 0, 62, 100
2, 13104, Note_on_c, 0, 55, 0
2, 13104, Note_on_c, 0, 55, 100
2, 13152, Note_on_c, 0, 46, 0
2, 13152, Note_on_c, 0, 62, 0
2, 13152, Note_on_c, 0, 61, 100
2, 13152, Note_on_c, 0, 45, 110
2, 13200, Note_on_c, 0, 55, 0
2, 13200, Note_on_c, 0, 55, 100
2, 13224, Note_on_c, 0, 61, 0
2, 13224, Note_on_c, 0, 61, 100
2, 13248, Note_on_c, 0, 45, 0
2, 13248, Note_on_c, 0, 45, 110
2, 13272, Note_on_c, 0, 61, 0
2, 13272, Note_on_c, 0, 61, 100
2, 13296, Note_on_c, 0, 55, 0
2, 13296, Note_on_c, 0, 55, 100
2, 13344, Note_on_c, 0, 45, 0
2, 13344, Note_on_c, 0, 61, 0
2, 13344, Note_on_c, 0, 60, 100
2, 13344, Note_on_c, 0, 50, 110
2, 13392, Note_on_c, 0, 55, 0
2, 13392, Note_on_c, 0, 55, 100
2, 13416, Note_on_c, 0, 60, 0
2, 13416, Note_on_c, 0, 60, 100
2, 13440, Note_on_c, 0, 50, 0
2, 13440, Note_on_c, 0, 50, 110
2, 13464, Note_on_c, 0, 60, 0
2, 13464, Note_on_c, 0, 60, 100
2, 13488, Note_on_c, 0, 55, 0
2, 13488, Note_on_c, 0, 55, 100
2, 13536, Note_on_c, 0, 50, 0
2, 13536, Note_on_c, 0, 60, 0
2, 13536, Note_on_c, 0, 55, 0
2, 13536, Note_on_c, 0, 59, 100
2, 13536, Note_on_c, 0, 43, 110
2, 13584, Note_on_c, 0, 55, 100
2, 13632, Note_on_c, 0, 59, 0
2, 13632, Note_on_c, 0, 43, 0
2, 13632, Note_on_c, 0, 60, 100
2, 13632, Note_on_c, 0, 45, 110
2, 13680, Note_on_c, 0, 55, 0
2, 13680, Note_on_c, 0, 55, 100
2, 13728, Note_on_c, 0, 60, 0
2, 13728, Note_on_c, 0, 45, 0
2, 13728, Note_on_c, 0, 62, 100
2, 13728, Note_on_c, 0, 47, 110
2, 13752, Note_on_c, 0, 63, 60
2, 13760, Note_on_c, 0, 47, 66
2, 13764, Note_on_c, 0, 63, 0
2, 13764, Note_on_c, 0, 64, 60
2, 13768, Note_on_c, 0, 47, 0
2, 13768, Note_on_c, 0, 48, 66
2, 13776, Note_on_c, 0, 62, 0
2, 13776, Note_on_c, 0, 64, 0
2, 13776, Note_on_c, 0, 48, 0
2, 13776, Note_on_c, 0, 49, 66
2, 13776, Note_on_c, 0, 65, 60
2, 13784, Note_on_c, 0, 49, 0
2, 13784, Note_on_c, 0, 65, 0
2, 13784, Note_on_c, 0, 66, 60
2, 13784, Note_on_c, 0, 50, 66
2, 13792, Note_on_c, 0, 47, 0
2, 13792, Note_on_c, 0, 66, 0
2, 13792, Note_on_c, 0, 50, 0
2, 13792, Note_on_c, 0, 51, 66
2, 13792, Note_on_c, 0, 67, 60
2, 13800, Note_on_c, 0, 51, 0
2, 13800, Note_on_c, 0, 67, 0
2, 13800, Note_on_c, 0, 68, 60
2, 13800, Note_on_c, 0, 52, 66
2, 13808, Note_on_c, 0, 68, 0
2, 13808, Note_on_c, 0, 52, 0
2, 13808, Note_on_c, 0, 69, 60
2, 13808, Note_on_c, 0, 53, 66
2, 13816, Note_on_c, 0, 69, 0
2, 13816, Note_on_c, 0, 53, 0
2, 13816, Note_on_c, 0, 54, 66
2, 13816, Note_on_c, 0, 70, 60
2, 13824, Note_on_c, 0, 55, 0
2, 13824, Note_on_c, 0, 54, 0
2, 13824, Note_on_c, 0, 70, 0
2, 13824, Note_on_c, 0, 55, 100
2, 13824, Note_on_c, 0, 71, 100
2, 13872, Note_on_c, 0, 55, 0
2, 13872, Note_on_c, 0, 55, 100
2, 13896, Note_on_c, 0, 71, 0
2, 13896, Note_on_c, 0, 71, 100
2, 13920, Note_on_c, 0, 55, 0
2, 13920, Note_on_c, 0, 55, 100
2, 13944, Note_on_c, 0, 71, 0
2, 13944, Note_on_c, 0, 71, 100
2, 13968, Note_on_c, 0, 55, 0
2, 13968, Note_on_c, 0, 55, 100
2, 14016, Note_on_c, 0, 71, 0
2, 14016, Note_on_c, 0, 55, 0
2, 14016, Note_on_c, 0, 55, 100
2, 14016, Note_on_c, 0, 71, 100
2, 14064, Note_on_c, 0, 55, 0
2, 14064, Note_on_c, 0, 55, 100
2, 14112, Note_on_c, 0, 55, 0
2, 14112, Note_on_c, 0, 55, 100
2, 14136, Note_on_c, 0, 71, 0
2, 14136, Note_on_c, 0, 71, 100
2, 14160, Note_on_c, 0, 55, 0
2, 14160, Note_on_c, 0, 55, 100
2, 14208, Note_on_c, 0, 71, 0
2, 14208, Note_on_c, 0, 55, 0
2, 14208, Note_on_c, 0, 71, 100
2, 14208, Note_on_c, 0, 55, 100
2, 14256, Note_on_c, 0, 55, 0
2, 14256, Note_on_c, 0, 55, 100
2, 14280, Note_on_c, 0, 71, 0
2, 14280, Note_on_c, 0, 71, 100
2, 14304, Note_on_c, 0, 55, 0
2, 14304, Note_on_c, 0, 55, 100
2, 14328, Note_on_c, 0, 71, 0
2, 14328, Note_on_c, 0, 71, 100
2, 14352, Note_on_c, 0, 55, 0
2, 14352, Note_on_c, 0, 55, 100
2, 14400, Note_on_c, 0, 71, 0
2, 14400, Note_on_c, 0, 55, 0
2, 14400, Note_on_c, 0, 55, 100
2, 14400, Note_on_c, 0, 71, 100
2, 14448, Note_on_c, 0, 55, 0
2, 14448, Note_on_c, 0, 55, 100
2, 14472, Note_on_c, 0, 71, 0
2, 14472, Note_on_c, 0, 71, 100
2, 14496, Note_on_c, 0, 55, 0
2, 14496, Note_on_c, 0, 55, 100
2, 14520, Note_on_c, 0, 71, 0
2, 14520, Note_on_c, 0, 71, 100
2, 14544, Note_on_c, 0, 55, 0
2, 14544, Note_on_c, 0, 55, 100
2, 14592, Note_on_c, 0, 71, 0
2, 14592, Note_on_c, 0, 55, 0
2, 14592, Note_on_c, 0, 55, 100
2, 14592, Note_on_c, 0, 71, 100
2, 14640, Note_on_c, 0, 55, 0
2, 14640, Note_on_c, 0, 55, 100
2, 14688, Note_on_c, 0, 71, 0
2, 14688, Note_on_c, 0, 55, 0
2, 14688, Note_on_c, 0, 55, 100
2, 14688, Note_on_c, 0, 71, 100
2, 14736, Note_on_c, 0, 55, 0
2, 14736, Note_on_c, 0, 55, 100
2, 14784, Note_on_c, 0, 71, 0
2, 14784, Note_on_c, 0, 55, 0
2, 14784, Note_on_c, 0, 55, 100
2, 14784, Note_on_c, 0, 71, 100
2, 14832, Note_on_c, 0, 55, 0
2, 14832, Note_on_c, 0, 55, 100
2, 14880, Note_on_c, 0, 71, 0
2, 14880, Note_on_c, 0, 55, 0
2, 14880, Note_on_c, 0, 71, 100
2, 14880, Note_on_c, 0, 55, 110
2, 15072, Note_on_c, 0, 71, 0
2, 15072, Note_on_c, 0, 55, 0
2, 15072, Note_on_c, 0, 55, 110
2, 15072, Note_on_c, 0, 71, 100
2, 15096, Note_on_c, 0, 70, 60
2, 15096, Note_on_c, 0, 53, 66
2, 15108, Note_on_c, 0, 70, 0
2, 15108, Note_on_c, 0, 53, 0
2, 15108, Note_on_c, 0, 69, 60
2, 15108, Note_on_c, 0, 54, 66
2, 15120, Note_on_c, 0, 55, 0
2, 15120, Note_on_c, 0, 71, 0
2, 15120, Note_on_c, 0, 69, 0
2, 15120, Note_on_c, 0, 54, 0
2, 15120, Note_on_c, 0, 68, 60
2, 15120, Note_on_c, 0, 52, 66
2, 15132, Note_on_c, 0, 68, 0
2, 15132, Note_on_c, 0, 52, 0
2, 15132, Note_on_c, 0, 67, 60
2, 15132, Note_on_c, 0, 51, 66
2, 15144, Note_on_c, 0, 67, 0
2, 15144, Note_on_c, 0, 51, 0
2, 15144, Note_on_c, 0, 66, 60
2, 15144, Note_on_c, 0, 50, 66
2, 15156, Note_on_c, 0, 66, 0
2, 15156, Note_on_c, 0, 50, 0
2, 15156, Note_on_c, 0, 65, 60
2, 15156, Note_on_c, 0, 47, 66
2, 15168, Note_on_c, 0, 65, 0
2, 15168, Note_on_c, 0, 47, 0
2, 15168, Note_on_c, 0, 43, 110
2, 15168, Note_on_c, 0, 59, 100
2, 15216, Note_on_c, 0, 55, 100
2, 15264, Note_on_c, 0, 43, 0
2, 15264, Note_on_c, 0, 59, 0
2, 15264, Note_on_c, 0, 60, 100
2, 15264, Note_on_c, 0, 45, 110
2, 15312, Note_on_c, 0, 55, 0
2, 15312, Note_on_c, 0, 55, 100
2, 15360, Note_on_c, 0, 60, 0
2, 15360, Note_on_c, 0, 45, 0
2, 15360, Note_on_c, 0, 47, 110
2, 15360, Note_on_c, 0, 62, 100
2, 15408, Note_on_c, 0, 55, 0
2, 15408, Note_on_c, 0, 55, 100
2, 15456, Note_on_c, 0, 47, 0
2, 15456, Note_on_c, 0, 62, 0
2, 15456, Note_on_c, 0, 64, 100
2, 15456, Note_on_c, 0, 48, 110
2, 15504, Note_on_c, 0, 55, 0
2, 15504, Note_on_c, 0, 55, 100
2, 15552, Note_on_c, 0, 64, 0
2, 15552, Note_on_c, 0, 48, 0
2, 15552, Note_on_c, 0, 62, 100
2, 15552, Note_on_c, 0, 47, 110
2, 15600, Note_on_c, 0, 55, 0
2, 15600, Note_on_c, 0, 55, 100
2, 15648, Note_on_c, 0, 62, 0
2, 15648, Note_on_c, 0, 47, 0
2, 15648, Note_on_c, 0, 61, 100
2, 15648, Note_on_c, 0, 45, 110
2, 15696, Note_on_c, 0, 55, 0
2, 15696, Note_on_c, 0, 55, 100
2, 15744, Note_on_c, 0, 61, 0
2, 15744, Note_on_c, 0, 45, 0
2, 15744, Note_on_c, 0, 50, 110
2, 15744, Note_on_c, 0, 60, 100
2, 15792, Note_on_c, 0, 55, 0
2, 15792, Note_on_c, 0, 55, 100
2, 15816, Note_on_c, 0, 60, 0
2, 15816, Note_on_c, 0, 60, 100
2, 15840, Note_on_c, 0, 50, 0
2, 15840, Note_on_c, 0, 50, 110
2, 15864, Note_on_c, 0, 60, 0
2, 15864, Note_on_c, 0, 60, 100
2, 15888, Note_on_c, 0, 55, 0
2, 15888, Note_on_c, 0, 55, 100
2, 15936, Note_on_c, 0, 50, 0
2, 15936, Note_on_c, 0, 60, 0
2, 15936, Note_on_c, 0, 55, 0
2, 15936, Note_on_c, 0, 43, 110
2, 15936, Note_on_c, 0, 59, 100
2, 15984, Note_on_c, 0, 55, 100
2, 16032, Note_on_c, 0, 43, 0
2, 16032, Note_on_c, 0, 59, 0
2, 16032, Note_on_c, 0, 45, 110
2, 16032, Note_on_c, 0, 60, 100
2, 16080, Note_on_c, 0, 55, 0
2, 16080, Note_on_c, 0, 55, 100
2, 16128, Note_on_c, 0, 45, 0
2, 16128, Note_on_c, 0, 60, 0
2, 16128, Note_on_c, 0, 62, 100
2, 16128, Note_on_c, 0, 47, 110
2, 16152, Note_on_c, 0, 63, 60
2, 16160, Note_on_c, 0, 47, 66
2, 16164, Note_on_c, 0, 63, 0
2, 16164, Note_on_c, 0, 64, 60
2, 16168, Note_on_c, 0, 47, 0
2, 16168, Note_on_c, 0, 48, 66
2, 16176, Note_on_c, 0, 62, 0
2, 16176, Note_on_c, 0, 64, 0
2, 16176, Note_on_c, 0, 48, 0
2, 16176, Note_on_c, 0, 49, 66
2, 16176, Note_on_c, 0, 65, 60
2, 16184, Note_on_c, 0, 49, 0
2, 16184, Note_on_c, 0, 65, 0
2, 16184, Note_on_c, 0, 50, 66
2, 16184, Note_on_c, 0, 66, 60
2, 16192, Note_on_c, 0, 47, 0
2, 16192, Note_on_c, 0, 50, 0
2, 16192, Note_on_c, 0, 66, 0
2, 16192, Note_on_c, 0, 51, 66
2, 16192, Note_on_c, 0, 67, 60
2, 16200, Note_on_c, 0, 51, 0
2, 16200, Note_on_c, 0, 67, 0
2, 16200, Note_on_c, 0, 68, 60
2, 16200, Note_on_c, 0, 52, 66
2, 16208, Note_on_c, 0, 68, 0
2, 16208, Note_on_c, 0, 52, 0
2, 16208, Note_on_c, 0, 53, 66
2, 16208, Note_on_c, 0, 69, 60
2, 16216, Note_on_c, 0, 53, 0
2, 16216, Note_on_c, 0, 69, 0
2, 16216, Note_on_c, 0, 54, 66
2, 16216, Note_on_c, 0, 70, 60
2, 16224, Note_on_c, 0, 55, 0
2, 16224, Note_on_c, 0, 54, 0
2, 16224, Note_on_c, 0, 70, 0
2, 16224, Note_on_c, 0, 55, 100
2, 16224, Note_on_c, 0, 71, 100
2, 16272, Note_on_c, 0, 55, 0
2, 16272, Note_on_c, 0, 55, 100
2, 16296, Note_on_c, 0, 71, 0
2, 16296, Note_on_c, 0, 71, 100
2, 16320, Note_on_c, 0, 55, 0
2, 16320, Note_on_c, 0, 55, 100
2, 16344, Note_on_c, 0, 71, 0
2, 16344, Note_on_c, 0, 71, 100
2, 16368, Note_on_c, 0, 55, 0
2, 16368, Note_on_c, 0, 55, 100
2, 16416, Note_on_c, 0, 71, 0
2, 16416, Note_on_c, 0, 55, 0
2, 16416, Note_on_c, 0, 71, 100
2, 16416, Note_on_c, 0, 55, 100
2, 16464, Note_on_c, 0, 55, 0
2, 16464, Note_on_c, 0, 55, 100
2, 16488, Note_on_c, 0, 71, 0
2, 16488, Note_on_c, 0, 71, 100
2, 16512, Note_on_c, 0, 55, 0
2, 16512, Note_on_c, 0, 55, 100
2, 16536, Note_on_c, 0, 71, 0
2, 16536, Note_on_c, 0, 71, 100
2, 16560, Note_on_c, 0, 55, 0
2, 16560, Note_on_c, 0, 55, 100
2, 16608, Note_on_c, 0, 71, 0
2, 16608, Note_on_c, 0, 55, 0
2, 16608, Note_on_c, 0, 48, 110
2, 16608, Note_on_c, 0, 64, 100
2, 16656, Note_on_c, 0, 55, 100
2, 16704, Note_on_c, 0, 48, 0
2, 16704, Note_on_c, 0, 64, 0
2, 16704, Note_on_c, 0, 49, 110
2, 16704, Note_on_c, 0, 67, 100
2, 16752, Note_on_c, 0, 55, 0
2, 16752, Note_on_c, 0, 55, 100
2, 16800, Note_on_c, 0, 49, 0
2, 16800, Note_on_c, 0, 67, 0
2, 16800, Note_on_c, 0, 50, 110
2, 16800, Note_on_c, 0, 66, 100
2, 16848, Note_on_c, 0, 55, 0
2, 16848, Note_on_c, 0, 55, 100
2, 16896, Note_on_c, 0, 50, 0
2, 16896, Note_on_c, 0, 66, 0
2, 16896, Note_on_c, 0, 69, 100
2, 16896, Note_on_c, 0, 51, 110
2, 16944, Note_on_c, 0, 55, 0
2, 16944, Note_on_c, 0, 55, 100
2, 16992, Note_on_c, 0, 69, 0
2, 16992, Note_on_c, 0, 51, 0
2, 16992, Note_on_c, 0, 52, 110
2, 16992, Note_on_c, 0, 67, 100
2, 17040, Note_on_c, 0, 55, 0
2, 17040, Note_on_c, 0, 55, 100
2, 17064, Note_on_c, 0, 67, 0
2, 17064, Note_on_c, 0, 67, 100
2, 17088, Note_on_c, 0, 52, 0
2, 17088, Note_on_c, 0, 52, 110
2, 17112, Note_on_c, 0, 67, 0
2, 17112, Note_on_c, 0, 67, 100
2, 17136, Note_on_c, 0, 55, 0
2, 17136, Note_on_c, 0, 55, 100
2, 17184, Note_on_c, 0, 52, 0
2, 17184, Note_on_c, 0, 67, 0
2, 17184, Note_on_c, 0, 67, 100
2, 17184, Note_on_c, 0, 51, 110
2, 17232, Note_on_c, 0, 55, 0
2, 17232, Note_on_c, 0, 55, 100
2, 17256, Note_on_c, 0, 67, 0
2, 17256, Note_on_c, 0, 67, 100
2, 17280, Note_on_c, 0, 51, 0
2, 17280, Note_on_c, 0, 51, 110
2, 17304, Note_on_c, 0, 67, 0
2, 17304, Note_on_c, 0, 67, 100
2, 17328, Note_on_c, 0, 55, 0
2, 17328, Note_on_c, 0, 55, 100
2, 17376, Note_on_c, 0, 51, 0
2, 17376, Note_on_c, 0, 67, 0
2, 17376, Note_on_c, 0, 66, 100
2, 17376, Note_on_c, 0, 50, 110
2, 17424, Note_on_c, 0, 55, 0
2, 17424, Note_on_c, 0, 55, 100
2, 17472, Note_on_c, 0, 66, 0
2, 17472, Note_on_c, 0, 50, 0
2, 17472, Note_on_c, 0, 67, 100
2, 17472, Note_on_c, 0, 49, 110
2, 17520, Note_on_c, 0, 55, 0
2, 17520, Note_on_c, 0, 55, 100
2, 17568, Note_on_c, 0, 67, 0
2, 17568, Note_on_c, 0, 49, 0
2, 17568, Note_on_c, 0, 48, 110
2, 17568, Note_on_c, 0, 64, 100
2, 17616, Note_on_c, 0, 55, 0
2, 17616, Note_on_c, 0, 55, 100
2, 17640, Note_on_c, 0, 64, 0
2, 17640, Note_on_c, 0, 64, 100
2, 17664, Note_on_c, 0, 48, 0
2, 17664, Note_on_c, 0, 48, 110
2, 17688, Note_on_c, 0, 64, 0
2, 17688, Note_on_c, 0, 64, 100
2, 17712, Note_on_c, 0, 55, 0
2, 17712, Note_on_c, 0, 55, 100
2, 17760, Note_on_c, 0, 48, 0
2, 17760, Note_on_c, 0, 64, 0
2, 17760, Note_on_c, 0, 48, 110
2, 17760, Note_on_c, 0, 63, 100
2, 17808, Note_on_c, 0, 55, 0
2, 17808, Note_on_c, 0, 55, 100
2, 17832, Note_on_c, 0, 63, 0
2, 17832, Note_on_c, 0, 63, 100
2, 17856, Note_on_c, 0, 48, 0
2, 17856, Note_on_c, 0, 48, 110
2, 17880, Note_on_c, 0, 63, 0
2, 17880, Note_on_c, 0, 63, 100
2, 17904, Note_on_c, 0, 55, 0
2, 17904, Note_on_c, 0, 55, 100
2, 17952, Note_on_c, 0, 48, 0
2, 17952, Note_on_c, 0, 63, 0
2, 17952, Note_on_c, 0, 47, 110
2, 17952, Note_on_c, 0, 62, 100
2, 18000, Note_on_c, 0, 55, 0
2, 18000, Note_on_c, 0, 55, 100
2, 18024, Note_on_c, 0, 62, 0
2, 18024, Note_on_c, 0, 62, 100
2, 18048, Note_on_c, 0, 47, 0
2, 18048, Note_on_c, 0, 47, 110
2, 18072, Note_on_c, 0, 62, 0
2, 18072, Note_on_c, 0, 62, 100
2, 18096, Note_on_c, 0, 55, 0
2, 18096, Note_on_c, 0, 55, 100
2, 18144, Note_on_c, 0, 47, 0
2, 18144, Note_on_c, 0, 62, 0
2, 18144, Note_on_c, 0, 61, 100
2, 18144, Note_on_c, 0, 45, 110
2, 18192, Note_on_c, 0, 55, 0
2, 18192, Note_on_c, 0, 55, 100
2, 18216, Note_on_c, 0, 61, 0
2, 18216, Note_on_c, 0, 61, 100
2, 18240, Note_on_c, 0, 45, 0
2, 18240, Note_on_c, 0, 45, 110
2, 18264, Note_on_c, 0, 61, 0
2, 18264, Note_on_c, 0, 61, 100
2, 18288, Note_on_c, 0, 55, 0
2, 18288, Note_on_c, 0, 55, 100
2, 18336, Note_on_c, 0, 45, 0
2, 18336, Note_on_c, 0, 61, 0
2, 18336, Note_on_c, 0, 60, 100
2, 18336, Note_on_c, 0, 50, 110
2, 18384, Note_on_c, 0, 55, 0
2, 18384, Note_on_c, 0, 55, 100
2, 18408, Note_on_c, 0, 60, 0
2, 18408, Note_on_c, 0, 60, 100
2, 18432, Note_on_c, 0, 50, 0
2, 18432, Note_on_c, 0, 50, 110
2, 18456, Note_on_c, 0, 60, 0
2, 18456, Note_on_c, 0, 60, 100
2, 18480, Note_on_c, 0, 55, 0
2, 18480, Note_on_c, 0, 55, 100
2, 18528, Note_on_c, 0, 50, 0
2, 18528, Note_on_c, 0, 60, 0
2, 18528, Note_on_c, 0, 59, 100
2, 18528, Note_on_c, 0, 43, 110
2, 18576, Note_on_c, 0, 55, 0
2, 18576, Note_on_c, 0, 55, 100
2, 18600, Note_on_c, 0, 59, 0
2, 18600, Note_on_c, 0, 59, 100
2, 18624, Note_on_c, 0, 43, 0
2, 18624, Note_on_c, 0, 43, 110
2, 18648, Note_on_c, 0, 59, 0
2, 18648, Note_on_c, 0, 59, 100
2, 18672, Note_on_c, 0, 55, 0
2, 18672, Note_on_c, 0, 55, 100
2, 18720, Note_on_c, 0, 43, 0
2, 18720, Note_on_c, 0, 59, 0
2, 18720, Note_on_c, 0, 64, 100
2, 18720, Note_on_c, 0, 48, 110
2, 18768, Note_on_c, 0, 55, 0
2, 18768, Note_on_c, 0, 55, 100
2, 18816, Note_on_c, 0, 64, 0
2, 18816, Note_on_c, 0, 48, 0
2, 18816, Note_on_c, 0, 47, 110
2, 18816, Note_on_c, 0, 62, 100
2, 18864, Note_on_c, 0, 55, 0
2, 18864, Note_on_c, 0, 55, 100
2, 18912, Note_on_c, 0, 47, 0
2, 18912, Note_on_c, 0, 62, 0
2, 18912, Note_on_c, 0, 45, 110
2, 18912, Note_on_c, 0, 61, 100
2, 18960, Note_on_c, 0, 55, 0
2, 18960, Note_on_c, 0, 55, 100
2, 18984, Note_on_c, 0, 61, 0
2, 18984, Note_on_c, 0, 61, 100
2, 19008, Note_on_c, 0, 45, 0
2, 19008, Note_on_c, 0, 45, 110
2, 19032, Note_on_c, 0, 61, 0
2, 19032, Note_on_c, 0, 61, 100
2, 19056, Note_on_c, 0, 55, 0
2, 19056, Note_on_c, 0, 55, 100
2, 19104, Note_on_c, 0, 45, 0
2, 19104, Note_on_c, 0, 61, 0
2, 19104, Note_on_c, 0, 60, 100
2, 19104, Note_on_c, 0, 50, 110
2, 19152, Note_on_c, 0, 55, 0
2, 19152, Note_on_c, 0, 55, 100
2, 19176, Note_on_c, 0, 60, 0
2, 19176, Note_on_c, 0, 60, 100
2, 19200, Note_on_c, 0, 50, 0
2, 19200, Note_on_c, 0, 50, 110
2, 19224, Note_on_c, 0, 60, 0
2, 19224, Note_on_c, 0, 60, 100
2, 19248, Note_on_c, 0, 55, 0
2, 19248, Note_on_c, 0, 55, 100
2, 19296, Note_on_c, 0, 50, 0
2, 19296, Note_on_c, 0, 60, 0
2, 19296, Note_on_c, 0, 59, 100
2, 19296, Note_on_c, 0, 43, 110
2, 19344, Note_on_c, 0, 55, 0
2, 19344, Note_on_c, 0, 55, 100
2, 19368, Note_on_c, 0, 59, 0
2, 19368, Note_on_c, 0, 59, 100
2, 19392, Note_on_c, 0, 43, 0
2, 19392, Note_on_c, 0, 43, 110
2, 19416, Note_on_c, 0, 59, 0
2, 19416, Note_on_c, 0, 59, 100
2, 19440, Note_on_c, 0, 55, 0
2, 19440, Note_on_c, 0, 55, 100
2, 19488, Note_on_c, 0, 43, 0
2, 19488, Note_on_c, 0, 59, 0
2, 19488, Note_on_c, 0, 64, 100
2, 19488, Note_on_c, 0, 48, 110
2, 19536, Note_on_c, 0, 55, 0
2, 19536, Note_on_c, 0, 55, 100
2, 19584, Note_on_c, 0, 64, 0
2, 19584, Note_on_c, 0, 48, 0
2, 19584, Note_on_c, 0, 47, 110
2, 19584, Note_on_c, 0, 62, 100
2, 19632, Note_on_c, 0, 55, 0
2, 19632, Note_on_c, 0, 55, 100
2, 19680, Note_on_c, 0, 47, 0
2, 19680, Note_on_c, 0, 62, 0
2, 19680, Note_on_c, 0, 61, 100
2, 19680, Note_on_c, 0, 45, 110
2, 19728, Note_on_c, 0, 55, 0
2, 19728, Note_on_c, 0, 55, 100
2, 19752, Note_on_c, 0, 61, 0
2, 19752, Note_on_c, 0, 61, 100
2, 19776, Note_on_c, 0, 45, 0
2, 19776, Note_on_c, 0, 45, 110
2, 19800, Note_on_c, 0, 61, 0
2, 19800, Note_on_c, 0, 61, 100
2, 19824, Note_on_c, 0, 55, 0
2, 19824, Note_on_c, 0, 55, 100
2, 19872, Note_on_c, 0, 45, 0
2, 19872, Note_on_c, 0, 61, 0
2, 19872, Note_on_c, 0, 60, 100
2, 19872, Note_on_c, 0, 50, 110
2, 19920, Note_on_c, 0, 55, 0
2, 19920, Note_on_c, 0, 55, 100
2, 19944, Note_on_c, 0, 60, 0
2, 19944, Note_on_c, 0, 60, 100
2, 19968, Note_on_c, 0, 50, 0
2, 19968, Note_on_c, 0, 50, 110
2, 19992, Note_on_c, 0, 60, 0
2, 19992, Note_on_c, 0, 60, 100
2, 20016, Note_on_c, 0, 55, 0
2, 20016, Note_on_c, 0, 55, 100
2, 20064, Note_on_c, 0, 50, 0
2, 20064, Note_on_c, 0, 60, 0
2, 20064, Note_on_c, 0, 43, 110
2, 20064, Note_on_c, 0, 59, 100
2, 20112, Note_on_c, 0, 55, 0
2, 20112, Note_on_c, 0, 59, 0
2, 20112, Note_on_c, 0, 59, 95
2, 20112, Note_on_c, 0, 55, 95
2, 20112, Note_on_c, 0, 50, 95
2, 20112, Note_on_c, 0, 67, 95
2, 20400, Note_on_c, 0, 59, 0
2, 20400, Note_on_c, 0, 55, 0
2, 20400, Note_on_c, 0, 50, 0
2, 20400, Note_on_c, 0, 67, 0
2, 20544, Note_on_c, 0, 43, 0
2, 20544, End_track
3, 0, Start_track
3, 0, Title_t, "Flute"
3, 0, Instrument_name_t, "     ""The Beatles"""
3, 0, MIDI_port, 0
3, 96, Control_c, 1, 121, 0
3, 96, Control_c, 1, 7, 110
3, 97, Control_c, 1, 10, 74
3, 98, Control_c, 1, 91, 59
3, 99, Control_c, 1, 93, 6
3, 100, Control_c, 1, 32, 0
3, 100, Control_c, 1, 0, 0
3, 100, Program_c, 1, 73
3, 102, Text_t, "VIBR DEPTH"
3, 103, Control_c, 1, 99, 1
3, 104, Control_c, 1, 98, 9
3, 105, Control_c, 1, 6, 73
3, 106, Text_t, "VIBR SPEED"
3, 107, Control_c, 1, 99, 1
3, 108, Control_c, 1, 98, 8
3, 109, Control_c, 1, 6, 56
3, 110, Text_t, "VIBR DELAY"
3, 111, Control_c, 1, 99, 1
3, 112, Control_c, 1, 98, 10
3, 113, Control_c, 1, 6, 67
3, 960, Note_on_c, 1, 67, 100
3, 1007, Note_on_c, 1, 67, 0
3, 1008, Note_on_c, 1, 67, 100
3, 1055, Note_on_c, 1, 67, 0
3, 1056, Note_on_c, 1, 67, 100
3, 1079, Note_on_c, 1, 67, 0
3, 1080, Note_on_c, 1, 67, 100
3, 1103, Note_on_c, 1, 67, 0
3, 1104, Note_on_c, 1, 67, 100
3, 1127, Note_on_c, 1, 67, 0
3, 1128, Note_on_c, 1, 62, 100
3, 1151, Note_on_c, 1, 62, 0
3, 1152, Note_on_c, 1, 67, 100
3, 1175, Note_on_c, 1, 67, 0
3, 1176, Note_on_c, 1, 74, 100
3, 1247, Note_on_c, 1, 74, 0
3, 1248, Note_on_c, 1, 74, 100
3, 1535, Note_on_c, 1, 74, 0
3, 1632, Note_on_c, 1, 71, 100
3, 1679, Note_on_c, 1, 71, 0
3, 1680, Note_on_c, 1, 67, 100
3, 1727, Note_on_c, 1, 67, 0
3, 1728, Note_on_c, 1, 69, 100
3, 1751, Note_on_c, 1, 69, 0
3, 1752, Note_on_c, 1, 69, 100
3, 1775, Note_on_c, 1, 69, 0
3, 1776, Note_on_c, 1, 69, 100
3, 1871, Note_on_c, 1, 69, 0
3, 1872, Note_on_c, 1, 66, 100
3, 1919, Note_on_c, 1, 66, 0
3, 1920, Note_on_c, 1, 72, 100
3, 1967, Note_on_c, 1, 72, 0
3, 1968, Note_on_c, 1, 74, 100
3, 1991, Note_on_c, 1, 74, 0
3, 1992, Note_on_c, 1, 71, 100
3, 2207, Note_on_c, 1, 71, 0
3, 2400, Note_on_c, 1, 69, 100
3, 2495, Note_on_c, 1, 69, 0
3, 2496, Note_on_c, 1, 71, 100
3, 2543, Note_on_c, 1, 71, 0
3, 2544, Note_on_c, 1, 67, 100
3, 2783, Note_on_c, 1, 67, 0
3, 2976, Note_on_c, 1, 67, 100
3, 3023, Note_on_c, 1, 67, 0
3, 3024, Note_on_c, 1, 67, 100
3, 3071, Note_on_c, 1, 67, 0
3, 3072, Note_on_c, 1, 67, 100
3, 3119, Note_on_c, 1, 67, 0
3, 3120, Note_on_c, 1, 69, 100
3, 3143, Note_on_c, 1, 69, 0
3, 3144, Note_on_c, 1, 71, 100
3, 3191, Note_on_c, 1, 71, 0
3, 3192, Note_on_c, 1, 69, 100
3, 3215, Note_on_c, 1, 69, 0
3, 3264, Note_on_c, 1, 67, 100
3, 3287, Note_on_c, 1, 67, 0
3, 3288, Note_on_c, 1, 64, 100
3, 3335, Note_on_c, 1, 64, 0
3, 3336, Note_on_c, 1, 69, 100
3, 3407, Note_on_c, 1, 69, 0
3, 3408, Note_on_c, 1, 67, 100
3, 3455, Note_on_c, 1, 67, 0
3, 3456, Note_on_c, 1, 71, 100
3, 3479, Note_on_c, 1, 71, 0
3, 3480, Note_on_c, 1, 69, 100
3, 3527, Note_on_c, 1, 69, 0
3, 3528, Note_on_c, 1, 67, 100
3, 3743, Note_on_c, 1, 67, 0
3, 4512, Note_on_c, 1, 67, 100
3, 4559, Note_on_c, 1, 67, 0
3, 4560, Note_on_c, 1, 67, 100
3, 4607, Note_on_c, 1, 67, 0
3, 4608, Note_on_c, 1, 67, 100
3, 4631, Note_on_c, 1, 67, 0
3, 4632, Note_on_c, 1, 67, 100
3, 4655, Note_on_c, 1, 67, 0
3, 4656, Note_on_c, 1, 67, 100
3, 4679, Note_on_c, 1, 67, 0
3, 4680, Note_on_c, 1, 62, 100
3, 4703, Note_on_c, 1, 62, 0
3, 4704, Note_on_c, 1, 67, 100
3, 4727, Note_on_c, 1, 67, 0
3, 4728, Note_on_c, 1, 74, 100
3, 4799, Note_on_c, 1, 74, 0
3, 4800, Note_on_c, 1, 74, 100
3, 5087, Note_on_c, 1, 74, 0
3, 5184, Note_on_c, 1, 71, 100
3, 5231, Note_on_c, 1, 71, 0
3, 5232, Note_on_c, 1, 67, 100
3, 5279, Note_on_c, 1, 67, 0
3, 5280, Note_on_c, 1, 69, 100
3, 5303, Note_on_c, 1, 69, 0
3, 5304, Note_on_c, 1, 69, 100
3, 5327, Note_on_c, 1, 69, 0
3, 5328, Note_on_c, 1, 69, 100
3, 5423, Note_on_c, 1, 69, 0
3, 5424, Note_on_c, 1, 66, 100
3, 5471, Note_on_c, 1, 66, 0
3, 5472, Note_on_c, 1, 72, 100
3, 5519, Note_on_c, 1, 72, 0
3, 5520, Note_on_c, 1, 74, 100
3, 5543, Note_on_c, 1, 74, 0
3, 5544, Note_on_c, 1, 71, 100
3, 5759, Note_on_c, 1, 71, 0
3, 5952, Note_on_c, 1, 69, 100
3, 6047, Note_on_c, 1, 69, 0
3, 6048, Note_on_c, 1, 71, 100
3, 6095, Note_on_c, 1, 71, 0
3, 6096, Note_on_c, 1, 67, 100
3, 6335, Note_on_c, 1, 67, 0
3, 6528, Note_on_c, 1, 67, 100
3, 6575, Note_on_c, 1, 67, 0
3, 6576, Note_on_c, 1, 67, 100
3, 6623, Note_on_c, 1, 67, 0
3, 6624, Note_on_c, 1, 67, 100
3, 6671, Note_on_c, 1, 67, 0
3, 6672, Note_on_c, 1, 64, 100
3, 6695, Note_on_c, 1, 64, 0
3, 6696, Note_on_c, 1, 71, 100
3, 6743, Note_on_c, 1, 71, 0
3, 6744, Note_on_c, 1, 69, 100
3, 6767, Note_on_c, 1, 69, 0
3, 6816, Note_on_c, 1, 67, 100
3, 6839, Note_on_c, 1, 67, 0
3, 6840, Note_on_c, 1, 64, 100
3, 6887, Note_on_c, 1, 64, 0
3, 6888, Note_on_c, 1, 69, 100
3, 6959, Note_on_c, 1, 69, 0
3, 6960, Note_on_c, 1, 67, 100
3, 7007, Note_on_c, 1, 67, 0
3, 7008, Note_on_c, 1, 71, 100
3, 7031, Note_on_c, 1, 71, 0
3, 7032, Note_on_c, 1, 64, 100
3, 7079, Note_on_c, 1, 64, 0
3, 7080, Note_on_c, 1, 67, 100
3, 7295, Note_on_c, 1, 67, 0
3, 7296, Note_on_c, 1, 72, 100
3, 7439, Note_on_c, 1, 72, 0
3, 7440, Note_on_c, 1, 67, 100
3, 7631, Note_on_c, 1, 67, 0
3, 7632, Note_on_c, 1, 67, 100
3, 7967, Note_on_c, 1, 67, 0
3, 8064, Note_on_c, 1, 72, 100
3, 8207, Note_on_c, 1, 72, 0
3, 8208, Note_on_c, 1, 67, 100
3, 8399, Note_on_c, 1, 67, 0
3, 8400, Note_on_c, 1, 67, 100
3, 8639, Note_on_c, 1, 67, 0
3, 8712, Note_on_c, 1, 79, 100
3, 8759, Note_on_c, 1, 79, 0
3, 8760, Note_on_c, 1, 77, 100
3, 8783, Note_on_c, 1, 77, 0
3, 8784, Note_on_c, 1, 76, 100
3, 8807, Note_on_c, 1, 76, 0
3, 8808, Note_on_c, 1, 77, 100
3, 8879, Note_on_c, 1, 77, 0
3, 8880, Note_on_c, 1, 74, 100
3, 8903, Note_on_c, 1, 74, 0
3, 8904, Note_on_c, 1, 74, 100
3, 8927, Note_on_c, 1, 74, 0
3, 8928, Note_on_c, 1, 72, 100
3, 8975, Note_on_c, 1, 72, 0
3, 8976, Note_on_c, 1, 71, 100
3, 8999, Note_on_c, 1, 71, 0
3, 9000, Note_on_c, 1, 65, 100
3, 9071, Note_on_c, 1, 65, 0
3, 9072, Note_on_c, 1, 67, 100
3, 9311, Note_on_c, 1, 67, 0
3, 11808, Note_on_c, 1, 72, 100
3, 11951, Note_on_c, 1, 72, 0
3, 11952, Note_on_c, 1, 67, 100
3, 12143, Note_on_c, 1, 67, 0
3, 12144, Note_on_c, 1, 67, 100
3, 12479, Note_on_c, 1, 67, 0
3, 12576, Note_on_c, 1, 72, 100
3, 12719, Note_on_c, 1, 72, 0
3, 12720, Note_on_c, 1, 67, 100
3, 12911, Note_on_c, 1, 67, 0
3, 12912, Note_on_c, 1, 67, 100
3, 13151, Note_on_c, 1, 67, 0
3, 13224, Note_on_c, 1, 79, 100
3, 13271, Note_on_c, 1, 79, 0
3, 13272, Note_on_c, 1, 77, 100
3, 13295, Note_on_c, 1, 77, 0
3, 13296, Note_on_c, 1, 76, 100
3, 13319, Note_on_c, 1, 76, 0
3, 13320, Note_on_c, 1, 77, 100
3, 13391, Note_on_c, 1, 77, 0
3, 13392, Note_on_c, 1, 74, 100
3, 13415, Note_on_c, 1, 74, 0
3, 13416, Note_on_c, 1, 74, 100
3, 13439, Note_on_c, 1, 74, 0
3, 13440, Note_on_c, 1, 72, 100
3, 13487, Note_on_c, 1, 72, 0
3, 13488, Note_on_c, 1, 71, 100
3, 13511, Note_on_c, 1, 71, 0
3, 13512, Note_on_c, 1, 65, 100
3, 13583, Note_on_c, 1, 65, 0
3, 13584, Note_on_c, 1, 67, 100
3, 13823, Note_on_c, 1, 67, 0
3, 15936, Note_on_c, 1, 67, 100
3, 15983, Note_on_c, 1, 67, 0
3, 15984, Note_on_c, 1, 67, 100
3, 16031, Note_on_c, 1, 67, 0
3, 16032, Note_on_c, 1, 67, 100
3, 16055, Note_on_c, 1, 67, 0
3, 16056, Note_on_c, 1, 67, 100
3, 16079, Note_on_c, 1, 67, 0
3, 16080, Note_on_c, 1, 67, 100
3, 16103, Note_on_c, 1, 67, 0
3, 16104, Note_on_c, 1, 62, 100
3, 16127, Note_on_c, 1, 62, 0
3, 16128, Note_on_c, 1, 67, 100
3, 16151, Note_on_c, 1, 67, 0
3, 16152, Note_on_c, 1, 74, 100
3, 16223, Note_on_c, 1, 74, 0
3, 16224, Note_on_c, 1, 74, 100
3, 16511, Note_on_c, 1, 74, 0
3, 16608, Note_on_c, 1, 71, 100
3, 16655, Note_on_c, 1, 71, 0
3, 16656, Note_on_c, 1, 67, 100
3, 16703, Note_on_c, 1, 67, 0
3, 16704, Note_on_c, 1, 69, 100
3, 16727, Note_on_c, 1, 69, 0
3, 16728, Note_on_c, 1, 69, 100
3, 16751, Note_on_c, 1, 69, 0
3, 16752, Note_on_c, 1, 69, 100
3, 16847, Note_on_c, 1, 69, 0
3, 16848, Note_on_c, 1, 66, 100
3, 16895, Note_on_c, 1, 66, 0
3, 16896, Note_on_c, 1, 72, 100
3, 16943, Note_on_c, 1, 72, 0
3, 16944, Note_on_c, 1, 74, 100
3, 16967, Note_on_c, 1, 74, 0
3, 16968, Note_on_c, 1, 71, 100
3, 17183, Note_on_c, 1, 71, 0
3, 17376, Note_on_c, 1, 69, 100
3, 17471, Note_on_c, 1, 69, 0
3, 17472, Note_on_c, 1, 71, 100
3, 17519, Note_on_c, 1, 71, 0
3, 17520, Note_on_c, 1, 67, 100
3, 17759, Note_on_c, 1, 67, 0
3, 17952, Note_on_c, 1, 67, 100
3, 17999, Note_on_c, 1, 67, 0
3, 18000, Note_on_c, 1, 67, 100
3, 18047, Note_on_c, 1, 67, 0
3, 18048, Note_on_c, 1, 67, 100
3, 18095, Note_on_c, 1, 67, 0
3, 18096, Note_on_c, 1, 64, 100
3, 18119, Note_on_c, 1, 64, 0
3, 18120, Note_on_c, 1, 71, 100
3, 18167, Note_on_c, 1, 71, 0
3, 18168, Note_on_c, 1, 69, 100
3, 18191, Note_on_c, 1, 69, 0
3, 18240, Note_on_c, 1, 67, 100
3, 18263, Note_on_c, 1, 67, 0
3, 18264, Note_on_c, 1, 64, 100
3, 18311, Note_on_c, 1, 64, 0
3, 18312, Note_on_c, 1, 69, 100
3, 18383, Note_on_c, 1, 69, 0
3, 18384, Note_on_c, 1, 67, 100
3, 18431, Note_on_c, 1, 67, 0
3, 18432, Note_on_c, 1, 71, 100
3, 18455, Note_on_c, 1, 71, 0
3, 18456, Note_on_c, 1, 64, 100
3, 18503, Note_on_c, 1, 64, 0
3, 18504, Note_on_c, 1, 67, 100
3, 18695, Note_on_c, 1, 67, 0
3, 18720, Note_on_c, 1, 67, 100
3, 18767, Note_on_c, 1, 67, 0
3, 18768, Note_on_c, 1, 67, 100
3, 18815, Note_on_c, 1, 67, 0
3, 18816, Note_on_c, 1, 67, 100
3, 18863, Note_on_c, 1, 67, 0
3, 18864, Note_on_c, 1, 69, 100
3, 18911, Note_on_c, 1, 69, 0
3, 18912, Note_on_c, 1, 71, 100
3, 18935, Note_on_c, 1, 71, 0
3, 18936, Note_on_c, 1, 69, 100
3, 18959, Note_on_c, 1, 69, 0
3, 19008, Note_on_c, 1, 67, 100
3, 19031, Note_on_c, 1, 67, 0
3, 19032, Note_on_c, 1, 64, 100
3, 19079, Note_on_c, 1, 64, 0
3, 19080, Note_on_c, 1, 69, 100
3, 19151, Note_on_c, 1, 69, 0
3, 19152, Note_on_c, 1, 71, 100
3, 19199, Note_on_c, 1, 71, 0
3, 19200, Note_on_c, 1, 69, 100
3, 19223, Note_on_c, 1, 69, 0
3, 19224, Note_on_c, 1, 67, 100
3, 19271, Note_on_c, 1, 67, 0
3, 19272, Note_on_c, 1, 67, 100
3, 19463, Note_on_c, 1, 67, 0
3, 19488, Note_on_c, 1, 67, 100
3, 19535, Note_on_c, 1, 67, 0
3, 19536, Note_on_c, 1, 67, 100
3, 19583, Note_on_c, 1, 67, 0
3, 19584, Note_on_c, 1, 67, 100
3, 19607, Note_on_c, 1, 67, 0
3, 19608, Note_on_c, 1, 67, 100
3, 19631, Note_on_c, 1, 67, 0
3, 19632, Note_on_c, 1, 71, 100
3, 19655, Note_on_c, 1, 71, 0
3, 19656, Note_on_c, 1, 69, 100
3, 19727, Note_on_c, 1, 69, 0
3, 19776, Note_on_c, 1, 67, 100
3, 19799, Note_on_c, 1, 67, 0
3, 19800, Note_on_c, 1, 64, 100
3, 19847, Note_on_c, 1, 64, 0
3, 19848, Note_on_c, 1, 69, 100
3, 19919, Note_on_c, 1, 69, 0
3, 19920, Note_on_c, 1, 67, 100
3, 19967, Note_on_c, 1, 67, 0
3, 19968, Note_on_c, 1, 71, 100
3, 19991, Note_on_c, 1, 71, 0
3, 19992, Note_on_c, 1, 69, 100
3, 20015, Note_on_c, 1, 69, 0
3, 20016, Note_on_c, 1, 67, 100
3, 20039, Note_on_c, 1, 67, 0
3, 20040, Note_on_c, 1, 69, 100
3, 20063, Note_on_c, 1, 69, 0
3, 20064, Note_on_c, 1, 67, 100
3, 20231, Note_on_c, 1, 67, 0
3, 20231, End_track
4, 0, Start_track
4, 0, Title_t, "SFX Set Footsteps"
4, 0, Instrument_name_t, "     (White Album)"
4, 0, MIDI_port, 0
4, 96, Control_c, 9, 7, 100
4, 96, Control_c, 9, 121, 0
4, 97, Control_c, 9, 10, 64
4, 98, Control_c, 9, 91, 80
4, 99, Control_c, 9, 93, 11
4, 100, Control_c, 9, 32, 0
4, 100, Control_c, 9, 0, 0
4, 100, Program_c, 9, 56
4, 288, Note_on_c, 9, 56, 110
4, 335, Note_on_c, 9, 56, 0
4, 384, Note_on_c, 9, 56, 110
4, 431, Note_on_c, 9, 56, 0
4, 480, Note_on_c, 9, 56, 110
4, 527, Note_on_c, 9, 56, 0
4, 576, Note_on_c, 9, 56, 110
4, 623, Note_on_c, 9, 56, 0
4, 672, Note_on_c, 9, 56, 110
4, 719, Note_on_c, 9, 56, 0
4, 768, Note_on_c, 9, 56, 110
4, 815, Note_on_c, 9, 56, 0
4, 864, Note_on_c, 9, 56, 110
4, 911, Note_on_c, 9, 56, 0
4, 960, Note_on_c, 9, 56, 110
4, 1007, Note_on_c, 9, 56, 0
4, 1056, Note_on_c, 9, 56, 110
4, 1103, Note_on_c, 9, 56, 0
4, 1152, Note_on_c, 9, 56, 110
4, 1199, Note_on_c, 9, 56, 0
4, 1248, Note_on_c, 9, 56, 110
4, 1295, Note_on_c, 9, 56, 0
4, 1344, Note_on_c, 9, 56, 110
4, 1391, Note_on_c, 9, 56, 0
4, 1440, Note_on_c, 9, 56, 110
4, 1487, Note_on_c, 9, 56, 0
4, 1536, Note_on_c, 9, 56, 110
4, 1583, Note_on_c, 9, 56, 0
4, 1632, Note_on_c, 9, 56, 110
4, 1679, Note_on_c, 9, 56, 0
4, 1728, Note_on_c, 9, 56, 110
4, 1775, Note_on_c, 9, 56, 0
4, 1824, Note_on_c, 9, 56, 110
4, 1871, Note_on_c, 9, 56, 0
4, 1920, Note_on_c, 9, 56, 110
4, 1967, Note_on_c, 9, 56, 0
4, 2016, Note_on_c, 9, 56, 110
4, 2063, Note_on_c, 9, 56, 0
4, 2112, Note_on_c, 9, 56, 110
4, 2159, Note_on_c, 9, 56, 0
4, 2208, Note_on_c, 9, 56, 110
4, 2255, Note_on_c, 9, 56, 0
4, 2304, Note_on_c, 9, 56, 110
4, 2351, Note_on_c, 9, 56, 0
4, 2400, Note_on_c, 9, 56, 110
4, 2447, Note_on_c, 9, 56, 0
4, 2496, Note_on_c, 9, 56, 110
4, 2543, Note_on_c, 9, 56, 0
4, 2592, Note_on_c, 9, 56, 110
4, 2639, Note_on_c, 9, 56, 0
4, 2688, Note_on_c, 9, 56, 110
4, 2735, Note_on_c, 9, 56, 0
4, 2784, Note_on_c, 9, 56, 110
4, 2831, Note_on_c, 9, 56, 0
4, 2880, Note_on_c, 9, 56, 110
4, 2927, Note_on_c, 9, 56, 0
4, 2976, Note_on_c, 9, 56, 110
4, 3023, Note_on_c, 9, 56, 0
4, 3072, Note_on_c, 9, 56, 110
4, 3119, Note_on_c, 9, 56, 0
4, 3168, Note_on_c, 9, 56, 110
4, 3215, Note_on_c, 9, 56, 0
4, 3264, Note_on_c, 9, 56, 110
4, 3311, Note_on_c, 9, 56, 0
4, 3360, Note_on_c, 9, 56, 110
4, 3407, Note_on_c, 9, 56, 0
4, 3456, Note_on_c, 9, 56, 110
4, 3503, Note_on_c, 9, 56, 0
4, 3552, Note_on_c, 9, 56, 110
4, 3599, Note_on_c, 9, 56, 0
4, 3648, Note_on_c, 9, 56, 110
4, 3695, Note_on_c, 9, 56, 0
4, 3744, Note_on_c, 9, 56, 110
4, 3791, Note_on_c, 9, 56, 0
4, 3840, Note_on_c, 9, 56, 110
4, 3887, Note_on_c, 9, 56, 0
4, 3936, Note_on_c, 9, 56, 110
4, 3983, Note_on_c, 9, 56, 0
4, 4032, Note_on_c, 9, 56, 110
4, 4079, Note_on_c, 9, 56, 0
4, 4128, Note_on_c, 9, 56, 110
4, 4175, Note_on_c, 9, 56, 0
4, 4224, Note_on_c, 9, 56, 110
4, 4271, Note_on_c, 9, 56, 0
4, 4320, Note_on_c, 9, 56, 110
4, 4367, Note_on_c, 9, 56, 0
4, 4416, Note_on_c, 9, 56, 110
4, 4463, Note_on_c, 9, 56, 0
4, 4512, Note_on_c, 9, 56, 110
4, 4559, Note_on_c, 9, 56, 0
4, 4608, Note_on_c, 9, 56, 110
4, 4655, Note_on_c, 9, 56, 0
4, 4704, Note_on_c, 9, 56, 110
4, 4751, Note_on_c, 9, 56, 0
4, 4800, Note_on_c, 9, 56, 110
4, 4847, Note_on_c, 9, 56, 0
4, 4896, Note_on_c, 9, 56, 110
4, 4943, Note_on_c, 9, 56, 0
4, 4992, Note_on_c, 9, 56, 110
4, 5039, Note_on_c, 9, 56, 0
4, 5088, Note_on_c, 9, 56, 110
4, 5135, Note_on_c, 9, 56, 0
4, 5184, Note_on_c, 9, 56, 110
4, 5231, Note_on_c, 9, 56, 0
4, 5280, Note_on_c, 9, 56, 110
4, 5327, Note_on_c, 9, 56, 0
4, 5376, Note_on_c, 9, 56, 110
4, 5423, Note_on_c, 9, 56, 0
4, 5472, Note_on_c, 9, 56, 110
4, 5519, Note_on_c, 9, 56, 0
4, 5568, Note_on_c, 9, 56, 110
4, 5615, Note_on_c, 9, 56, 0
4, 5664, Note_on_c, 9, 56, 110
4, 5711, Note_on_c, 9, 56, 0
4, 5760, Note_on_c, 9, 56, 110
4, 5807, Note_on_c, 9, 56, 0
4, 5856, Note_on_c, 9, 56, 110
4, 5903, Note_on_c, 9, 56, 0
4, 5952, Note_on_c, 9, 56, 110
4, 5999, Note_on_c, 9, 56, 0
4, 6048, Note_on_c, 9, 56, 110
4, 6095, Note_on_c, 9, 56, 0
4, 6144, Note_on_c, 9, 56, 110
4, 6191, Note_on_c, 9, 56, 0
4, 6240, Note_on_c, 9, 56, 110
4, 6287, Note_on_c, 9, 56, 0
4, 6336, Note_on_c, 9, 56, 110
4, 6383, Note_on_c, 9, 56, 0
4, 6432, Note_on_c, 9, 56, 110
4, 6479, Note_on_c, 9, 56, 0
4, 6528, Note_on_c, 9, 56, 110
4, 6575, Note_on_c, 9, 56, 0
4, 6624, Note_on_c, 9, 56, 110
4, 6671, Note_on_c, 9, 56, 0
4, 6720, Note_on_c, 9, 56, 110
4, 6767, Note_on_c, 9, 56, 0
4, 6816, Note_on_c, 9, 56, 110
4, 6863, Note_on_c, 9, 56, 0
4, 6912, Note_on_c, 9, 56, 110
4, 6959, Note_on_c, 9, 56, 0
4, 7008, Note_on_c, 9, 56, 110
4, 7055, Note_on_c, 9, 56, 0
4, 7104, Note_on_c, 9, 56, 110
4, 7151, Note_on_c, 9, 56, 0
4, 7200, Note_on_c, 9, 56, 110
4, 7247, Note_on_c, 9, 56, 0
4, 7296, Note_on_c, 9, 56, 110
4, 7343, Note_on_c, 9, 56, 0
4, 7392, Note_on_c, 9, 56, 110
4, 7439, Note_on_c, 9, 56, 0
4, 7488, Note_on_c, 9, 56, 110
4, 7535, Note_on_c, 9, 56, 0
4, 7584, Note_on_c, 9, 56, 110
4, 7631, Note_on_c, 9, 56, 0
4, 7680, Note_on_c, 9, 56, 110
4, 7727, Note_on_c, 9, 56, 0
4, 7776, Note_on_c, 9, 56, 110
4, 7823, Note_on_c, 9, 56, 0
4, 7872, Note_on_c, 9, 56, 110
4, 7919, Note_on_c, 9, 56, 0
4, 7968, Note_on_c, 9, 56, 110
4, 8015, Note_on_c, 9, 56, 0
4, 8064, Note_on_c, 9, 56, 110
4, 8111, Note_on_c, 9, 56, 0
4, 8160, Note_on_c, 9, 56, 110
4, 8207, Note_on_c, 9, 56, 0
4, 8256, Note_on_c, 9, 56, 110
4, 8303, Note_on_c, 9, 56, 0
4, 8352, Note_on_c, 9, 56, 110
4, 8399, Note_on_c, 9, 56, 0
4, 8448, Note_on_c, 9, 56, 110
4, 8495, Note_on_c, 9, 56, 0
4, 8544, Note_on_c, 9, 56, 110
4, 8591, Note_on_c, 9, 56, 0
4, 8640, Note_on_c, 9, 56, 110
4, 8687, Note_on_c, 9, 56, 0
4, 8736, Note_on_c, 9, 56, 110
4, 8783, Note_on_c, 9, 56, 0
4, 8832, Note_on_c, 9, 56, 110
4, 8879, Note_on_c, 9, 56, 0
4, 8928, Note_on_c, 9, 56, 110
4, 8975, Note_on_c, 9, 56, 0
4, 9024, Note_on_c, 9, 56, 110
4, 9071, Note_on_c, 9, 56, 0
4, 9120, Note_on_c, 9, 56, 110
4, 9167, Note_on_c, 9, 56, 0
4, 9216, Note_on_c, 9, 56, 110
4, 9263, Note_on_c, 9, 56, 0
4, 9312, Note_on_c, 9, 56, 110
4, 9359, Note_on_c, 9, 56, 0
4, 9408, Note_on_c, 9, 56, 110
4, 9455, Note_on_c, 9, 56, 0
4, 9504, Note_on_c, 9, 56, 110
4, 9551, Note_on_c, 9, 56, 0
4, 9600, Note_on_c, 9, 56, 110
4, 9647, Note_on_c, 9, 56, 0
4, 9696, Note_on_c, 9, 56, 110
4, 9743, Note_on_c, 9, 56, 0
4, 9792, Note_on_c, 9, 56, 110
4, 9839, Note_on_c, 9, 56, 0
4, 9888, Note_on_c, 9, 56, 110
4, 9935, Note_on_c, 9, 56, 0
4, 9984, Note_on_c, 9, 56, 110
4, 10031, Note_on_c, 9, 56, 0
4, 10080, Note_on_c, 9, 56, 110
4, 10127, Note_on_c, 9, 56, 0
4, 10176, Note_on_c, 9, 56, 110
4, 10223, Note_on_c, 9, 56, 0
4, 10272, Note_on_c, 9, 56, 110
4, 10319, Note_on_c, 9, 56, 0
4, 10368, Note_on_c, 9, 56, 110
4, 10415, Note_on_c, 9, 56, 0
4, 10464, Note_on_c, 9, 56, 110
4, 10511, Note_on_c, 9, 56, 0
4, 10560, Note_on_c, 9, 56, 110
4, 10607, Note_on_c, 9, 56, 0
4, 10656, Note_on_c, 9, 56, 110
4, 10703, Note_on_c, 9, 56, 0
4, 10752, Note_on_c, 9, 56, 110
4, 10799, Note_on_c, 9, 56, 0
4, 10848, Note_on_c, 9, 56, 110
4, 10895, Note_on_c, 9, 56, 0
4, 10944, Note_on_c, 9, 56, 110
4, 10991, Note_on_c, 9, 56, 0
4, 11040, Note_on_c, 9, 56, 110
4, 11087, Note_on_c, 9, 56, 0
4, 11136, Note_on_c, 9, 56, 110
4, 11183, Note_on_c, 9, 56, 0
4, 11232, Note_on_c, 9, 56, 110
4, 11279, Note_on_c, 9, 56, 0
4, 11328, Note_on_c, 9, 56, 110
4, 11375, Note_on_c, 9, 56, 0
4, 11424, Note_on_c, 9, 56, 110
4, 11471, Note_on_c, 9, 56, 0
4, 11520, Note_on_c, 9, 56, 110
4, 11567, Note_on_c, 9, 56, 0
4, 11616, Note_on_c, 9, 56, 110
4, 11663, Note_on_c, 9, 56, 0
4, 11712, Note_on_c, 9, 56, 110
4, 11759, Note_on_c, 9, 56, 0
4, 11808, Note_on_c, 9, 56, 110
4, 11855, Note_on_c, 9, 56, 0
4, 11904, Note_on_c, 9, 56, 110
4, 11951, Note_on_c, 9, 56, 0
4, 12000, Note_on_c, 9, 56, 110
4, 12047, Note_on_c, 9, 56, 0
4, 12096, Note_on_c, 9, 56, 110
4, 12143, Note_on_c, 9, 56, 0
4, 12192, Note_on_c, 9, 56, 110
4, 12239, Note_on_c, 9, 56, 0
4, 12288, Note_on_c, 9, 56, 110
4, 12335, Note_on_c, 9, 56, 0
4, 12384, Note_on_c, 9, 56, 110
4, 12431, Note_on_c, 9, 56, 0
4, 12480, Note_on_c, 9, 56, 110
4, 12527, Note_on_c, 9, 56, 0
4, 12576, Note_on_c, 9, 56, 110
4, 12623, Note_on_c, 9, 56, 0
4, 12672, Note_on_c, 9, 56, 110
4, 12719, Note_on_c, 9, 56, 0
4, 12768, Note_on_c, 9, 56, 110
4, 12815, Note_on_c, 9, 56, 0
4, 12864, Note_on_c, 9, 56, 110
4, 12911, Note_on_c, 9, 56, 0
4, 12960, Note_on_c, 9, 56, 110
4, 13007, Note_on_c, 9, 56, 0
4, 13056, Note_on_c, 9, 56, 110
4, 13103, Note_on_c, 9, 56, 0
4, 13152, Note_on_c, 9, 56, 110
4, 13199, Note_on_c, 9, 56, 0
4, 13248, Note_on_c, 9, 56, 110
4, 13295, Note_on_c, 9, 56, 0
4, 13344, Note_on_c, 9, 56, 110
4, 13391, Note_on_c, 9, 56, 0
4, 13440, Note_on_c, 9, 56, 110
4, 13487, Note_on_c, 9, 56, 0
4, 13536, Note_on_c, 9, 56, 110
4, 13583, Note_on_c, 9, 56, 0
4, 13632, Note_on_c, 9, 56, 110
4, 13679, Note_on_c, 9, 56, 0
4, 13728, Note_on_c, 9, 56, 110
4, 13775, Note_on_c, 9, 56, 0
4, 13824, Note_on_c, 9, 56, 110
4, 13871, Note_on_c, 9, 56, 0
4, 13920, Note_on_c, 9, 56, 110
4, 13967, Note_on_c, 9, 56, 0
4, 14016, Note_on_c, 9, 56, 110
4, 14063, Note_on_c, 9, 56, 0
4, 14112, Note_on_c, 9, 56, 110
4, 14159, Note_on_c, 9, 56, 0
4, 14208, Note_on_c, 9, 56, 110
4, 14255, Note_on_c, 9, 56, 0
4, 14304, Note_on_c, 9, 56, 110
4, 14351, Note_on_c, 9, 56, 0
4, 14400, Note_on_c, 9, 56, 110
4, 14447, Note_on_c, 9, 56, 0
4, 15168, Note_on_c, 9, 56, 110
4, 15215, Note_on_c, 9, 56, 0
4, 15264, Note_on_c, 9, 56, 110
4, 15311, Note_on_c, 9, 56, 0
4, 15360, Note_on_c, 9, 56, 110
4, 15407, Note_on_c, 9, 56, 0
4, 15456, Note_on_c, 9, 56, 110
4, 15503, Note_on_c, 9, 56, 0
4, 15552, Note_on_c, 9, 56, 110
4, 15599, Note_on_c, 9, 56, 0
4, 15648, Note_on_c, 9, 56, 110
4, 15695, Note_on_c, 9, 56, 0
4, 15744, Note_on_c, 9, 56, 110
4, 15791, Note_on_c, 9, 56, 0
4, 15840, Note_on_c, 9, 56, 110
4, 15887, Note_on_c, 9, 56, 0
4, 15936, Note_on_c, 9, 56, 110
4, 15983, Note_on_c, 9, 56, 0
4, 16032, Note_on_c, 9, 56, 110
4, 16079, Note_on_c, 9, 56, 0
4, 16128, Note_on_c, 9, 56, 110
4, 16175, Note_on_c, 9, 56, 0
4, 16224, Note_on_c, 9, 56, 110
4, 16271, Note_on_c, 9, 56, 0
4, 16320, Note_on_c, 9, 56, 110
4, 16367, Note_on_c, 9, 56, 0
4, 16416, Note_on_c, 9, 56, 110
4, 16463, Note_on_c, 9, 56, 0
4, 16512, Note_on_c, 9, 56, 110
4, 16559, Note_on_c, 9, 56, 0
4, 16608, Note_on_c, 9, 56, 110
4, 16655, Note_on_c, 9, 56, 0
4, 16704, Note_on_c, 9, 56, 110
4, 16751, Note_on_c, 9, 56, 0
4, 16800, Note_on_c, 9, 56, 110
4, 16847, Note_on_c, 9, 56, 0
4, 16896, Note_on_c, 9, 56, 110
4, 16943, Note_on_c, 9, 56, 0
4, 16992, Note_on_c, 9, 56, 110
4, 17039, Note_on_c, 9, 56, 0
4, 17088, Note_on_c, 9, 56, 110
4, 17135, Note_on_c, 9, 56, 0
4, 17184, Note_on_c, 9, 56, 110
4, 17231, Note_on_c, 9, 56, 0
4, 17280, Note_on_c, 9, 56, 110
4, 17327, Note_on_c, 9, 56, 0
4, 17376, Note_on_c, 9, 56, 110
4, 17423, Note_on_c, 9, 56, 0
4, 17472, Note_on_c, 9, 56, 110
4, 17519, Note_on_c, 9, 56, 0
4, 17568, Note_on_c, 9, 56, 110
4, 17615, Note_on_c, 9, 56, 0
4, 17664, Note_on_c, 9, 56, 110
4, 17711, Note_on_c, 9, 56, 0
4, 17760, Note_on_c, 9, 56, 110
4, 17807, Note_on_c, 9, 56, 0
4, 17856, Note_on_c, 9, 56, 110
4, 17903, Note_on_c, 9, 56, 0
4, 17952, Note_on_c, 9, 56, 110
4, 17999, Note_on_c, 9, 56, 0
4, 18048, Note_on_c, 9, 56, 110
4, 18095, Note_on_c, 9, 56, 0
4, 18144, Note_on_c, 9, 56, 110
4, 18191, Note_on_c, 9, 56, 0
4, 18240, Note_on_c, 9, 56, 110
4, 18287, Note_on_c, 9, 56, 0
4, 18336, Note_on_c, 9, 56, 110
4, 18383, Note_on_c, 9, 56, 0
4, 18432, Note_on_c, 9, 56, 110
4, 18479, Note_on_c, 9, 56, 0
4, 18528, Note_on_c, 9, 56, 110
4, 18575, Note_on_c, 9, 56, 0
4, 18624, Note_on_c, 9, 56, 110
4, 18671, Note_on_c, 9, 56, 0
4, 18720, Note_on_c, 9, 56, 110
4, 18767, Note_on_c, 9, 56, 0
4, 18816, Note_on_c, 9, 56, 110
4, 18863, Note_on_c, 9, 56, 0
4, 18912, Note_on_c, 9, 56, 110
4, 18959, Note_on_c, 9, 56, 0
4, 19008, Note_on_c, 9, 56, 110
4, 19055, Note_on_c, 9, 56, 0
4, 19104, Note_on_c, 9, 56, 110
4, 19151, Note_on_c, 9, 56, 0
4, 19200, Note_on_c, 9, 56, 110
4, 19247, Note_on_c, 9, 56, 0
4, 19296, Note_on_c, 9, 56, 110
4, 19343, Note_on_c, 9, 56, 0
4, 19392, Note_on_c, 9, 56, 110
4, 19439, Note_on_c, 9, 56, 0
4, 19488, Note_on_c, 9, 56, 110
4, 19535, Note_on_c, 9, 56, 0
4, 19584, Note_on_c, 9, 56, 110
4, 19631, Note_on_c, 9, 56, 0
4, 19680, Note_on_c, 9, 56, 110
4, 19727, Note_on_c, 9, 56, 0
4, 19776, Note_on_c, 9, 56, 110
4, 19823, Note_on_c, 9, 56, 0
4, 19872, Note_on_c, 9, 56, 110
4, 19919, Note_on_c, 9, 56, 0
4, 19919, End_track
5, 0, Start_track
5, 0, Title_t, "SFX Set Birds"
5, 0, MIDI_port, 0
5, 14870, Note_on_c, 9, 78, 100
5, 15031, Note_on_c, 9, 78, 0
5, 15048, Note_on_c, 9, 78, 94
5, 15466, Note_on_c, 9, 78, 0
5, 15541, Note_on_c, 9, 78, 96
5, 15899, Note_on_c, 9, 78, 0
5, 15910, Note_on_c, 9, 78, 98
5, 16266, Note_on_c, 9, 78, 0
5, 16272, Note_on_c, 9, 78, 90
5, 16676, Note_on_c, 9, 78, 0
5, 16680, Note_on_c, 9, 78, 111
5, 17067, Note_on_c, 9, 78, 0
5, 17073, Note_on_c, 9, 78, 78
5, 17447, Note_on_c, 9, 78, 0
5, 17460, Note_on_c, 9, 78, 81
5, 17603, Note_on_c, 9, 78, 0
5, 17616, Note_on_c, 9, 78, 72
5, 17694, Note_on_c, 9, 78, 0
5, 17712, Note_on_c, 9, 78, 101
5, 17868, Note_on_c, 9, 78, 0
5, 17900, Note_on_c, 9, 78, 63
5, 18254, Note_on_c, 9, 78, 0
5, 18276, Note_on_c, 9, 78, 86
5, 18401, Note_on_c, 9, 78, 0
5, 18408, Note_on_c, 9, 78, 100
5, 18551, Note_on_c, 9, 78, 0
5, 18564, Note_on_c, 9, 78, 60
5, 18981, Note_on_c, 9, 78, 0
5, 19008, Note_on_c, 9, 78, 57
5, 19079, Note_on_c, 9, 78, 0
5, 19116, Note_on_c, 9, 78, 69
5, 19187, Note_on_c, 9, 78, 0
5, 19220, Note_on_c, 9, 78, 72
5, 19348, Note_on_c, 9, 78, 0
5, 19356, Note_on_c, 9, 78, 100
5, 19427, Note_on_c, 9, 78, 0
5, 19437, Note_on_c, 9, 78, 79
5, 19664, Note_on_c, 9, 78, 0
5, 19728, Note_on_c, 9, 78, 93
5, 20147, Note_on_c, 9, 78, 0
5, 20172, Note_on_c, 9, 78, 92
5, 20373, Note_on_c, 9, 78, 0
5, 20373, End_track
6, 0, Start_track
6, 0, Title_t, "Note: If you don't "
6, 0, MIDI_port, 0
6, 0, End_track
7, 0, Start_track
7, 0, Title_t, "have these SFX, "
7, 0, MIDI_port, 0
7, 0, End_track
8, 0, Start_track
8, 0, Title_t, "strip out Tracks 3 & 4"
8, 0, MIDI_port, 0
8, 0, End_track
9, 0, Start_track
9, 0, Title_t, "================="
9, 0, MIDI_port, 0
9, 0, End_track
10, 0, Start_track
10, 0, Title_t, "MUSIC & WORDS by:"
10, 0, MIDI_port, 0
10, 0, End_track
11, 0, Start_track
11, 0, Title_t, "John Lennon"
11, 0, MIDI_port, 0
11, 0, End_track
12, 0, Start_track
12, 0, Title_t, "Paul McCartney"
12, 0, MIDI_port, 0
12, 0, End_track
13, 0, Start_track
13, 0, Title_t, "SEQUENCED by:"
13, 0, MIDI_port, 0
13, 0, End_track
14, 0, Start_track
14, 0, Title_t, "D.W.Barnes 2/25/95"
14, 0, MIDI_port, 0
14, 0, Copyright_t, "MIDI File Copyright 1995, DWBarnes"
14, 0, Text_t, "For Personal Use Only"
14, 1, Text_t, "Modification without MIDI File"
14, 2, Text_t, "author's permission is prohibited."
14, 4, Text_t, "Comments?"
14, 4, Text_t, "Email: DavidB7170@aol.com"
14, 4, End_track
15, 0, Start_track
15, 0, Title_t, "================="
15, 0, MIDI_port, 0
15, 0, End_track
0, 0, End_of_file