0, 0, Header, 1, 7, 384
1, 0, Start_track
1, 0, Time_signature, 4, 2, 24, 8
1, 0, Tempo, 480000
1, 0, Title_t, "Electric Drum Kit"
1, 0, Program_c, 9, 0
1, 1728, Note_on_c, 9, 46, 37
1, 1920, Note_off_c, 9, 46, 0
1, 1920, Note_on_c, 9, 40, 37
1, 1920, Note_on_c, 9, 35, 37
1, 1920, Note_on_c, 9, 39, 37
1, 2112, Note_off_c, 9, 39, 0
1, 2112, Note_off_c, 9, 35, 0
1, 2112, Note_off_c, 9, 40, 0
1, 2112, Note_on_c, 9, 46, 37
1, 2304, Note_off_c, 9, 46, 0
1, 2304, Note_on_c, 9, 35, 37
1, 2496, Note_off_c, 9, 35, 0
1, 2496, Note_on_c, 9, 46, 37
1, 2688, Note_off_c, 9, 46, 0
1, 2688, Note_on_c, 9, 40, 37
1, 2688, Note_on_c, 9, 39, 37
1, 2688, Note_on_c, 9, 35, 37
1, 2880, Note_off_c, 9, 35, 0
1, 2880, Note_off_c, 9, 39, 0
1, 2880, Note_off_c, 9, 40, 0
1, 2880, Note_on_c, 9, 46, 37
1, 3072, Note_off_c, 9, 46, 0
1, 3072, Note_on_c, 9, 49, 37
1, 3168, Note_off_c, 9, 49, 0
1, 3264, Note_on_c, 9, 46, 37
1, 3456, Note_off_c, 9, 46, 0
1, 3456, Note_on_c, 9, 40, 37
1, 3456, Note_on_c, 9, 35, 37
1, 3456, Note_on_c, 9, 39, 37
1, 3648, Note_off_c, 9, 39, 0
1, 3648, Note_off_c, 9, 35, 0
1, 3648, Note_off_c, 9, 40, 0
1, 3648, Note_on_c, 9, 46, 37
1, 3840, Note_off_c, 9, 46, 0
1, 3840, Note_on_c, 9, 35, 37
1, 4032, Note_off_c, 9, 35, 0
1, 4032, Note_on_c, 9, 46, 37
1, 4224, Note_off_c, 9, 46, 0
1, 4224, Note_on_c, 9, 40, 37
1, 4224, Note_on_c, 9, 39, 37
1, 4224, Note_on_c, 9, 35, 37
1, 4416, Note_off_c, 9, 35, 0
1, 4416, Note_off_c, 9, 39, 0
1, 4416, Note_off_c, 9, 40, 0
1, 4416, Note_on_c, 9, 46, 37
1, 4608, Note_off_c, 9, 46, 0
1, 4608, Note_on_c, 9, 35, 37
1, 4800, Note_off_c, 9, 35, 0
1, 4800, Note_on_c, 9, 46, 37
1, 4992, Note_off_c, 9, 46, 0
1, 4992, Note_on_c, 9, 40, 37
1, 4992, Note_on_c, 9, 39, 37
1, 4992, Note_on_c, 9, 35, 37
1, 5184, Note_off_c, 9, 35, 0
1, 5184, Note_off_c, 9, 39, 0
1, 5184, Note_off_c, 9, 40, 0
1, 5184, Note_on_c, 9, 46, 37
1, 5376, Note_off_c, 9, 46, 0
1, 5376, Note_on_c, 9, 35, 37
1, 5568, Note_off_c, 9, 35, 0
1, 5568, Note_on_c, 9, 46, 37
1, 5760, Note_off_c, 9, 46, 0
1, 5760, Note_on_c, 9, 35, 37
1, 5760, Note_on_c, 9, 39, 37
1, 5760, Note_on_c, 9, 40, 37
1, 5952, Note_off_c, 9, 40, 0
1, 5952, Note_off_c, 9, 39, 0
1, 5952, Note_off_c, 9, 35, 0
1, 5952, Note_on_c, 9, 46, 37
1, 6144, Note_off_c, 9, 46, 0
1, 6144, Note_on_c, 9, 35, 37
1, 6336, Note_off_c, 9, 35, 0
1, 6336, Note_on_c, 9, 46, 37
1, 6528, Note_off_c, 9, 46, 0
1, 6528, Note_on_c, 9, 39, 37
1, 6528, Note_on_c, 9, 35, 37
1, 6528, Note_on_c, 9, 40, 37
1, 6720, Note_off_c, 9, 40, 0
1, 6720, Note_off_c, 9, 35, 0
1, 6720, Note_off_c, 9, 39, 0
1, 6720, Note_on_c, 9, 46, 37
1, 6912, Note_off_c, 9, 46, 0
1, 6912, Note_on_c, 9, 35, 37
1, 7104, Note_off_c, 9, 35, 0
1, 7104, Note_on_c, 9, 46, 37
1, 7296, Note_off_c, 9, 46, 0
1, 7296, Note_on_c, 9, 40, 37
1, 7296, Note_on_c, 9, 35, 37
1, 7296, Note_on_c, 9, 39, 37
1, 7488, Note_off_c, 9, 39, 0
1, 7488, Note_off_c, 9, 35, 0
1, 7488, Note_off_c, 9, 40, 0
1, 7488, Note_on_c, 9, 46, 37
1, 7680, Note_off_c, 9, 46, 0
1, 7680, Note_on_c, 9, 35, 37
1, 7872, Note_off_c, 9, 35, 0
1, 7872, Note_on_c, 9, 46, 37
1, 8064, Note_off_c, 9, 46, 0
1, 8064, Note_on_c, 9, 40, 37
1, 8064, Note_on_c, 9, 39, 37
1, 8064, Note_on_c, 9, 35, 37
1, 8256, Note_off_c, 9, 35, 0
1, 8256, Note_off_c, 9, 39, 0
1, 8256, Note_off_c, 9, 40, 0
1, 8256, Note_on_c, 9, 46, 37
1, 8448, Note_off_c, 9, 46, 0
1, 8448, Note_on_c, 9, 35, 37
1, 8640, Note_off_c, 9, 35, 0
1, 8640, Note_on_c, 9, 46, 37
1, 8832, Note_off_c, 9, 46, 0
1, 8832, Note_on_c, 9, 35, 37
1, 8832, Note_on_c, 9, 39, 37
1, 8832, Note_on_c, 9, 40, 37
1, 8928, Note_off_c, 9, 35, 0
1, 9024, Note_off_c, 9, 40, 0
1, 9024, Note_off_c, 9, 39, 0
1, 9024, Note_on_c, 9, 35, 37
1, 9024, Note_on_c, 9, 46, 37
1, 9120, Note_off_c, 9, 35, 0
1, 9216, Note_off_c, 9, 46, 0
1, 9216, Note_on_c, 9, 35, 37
1, 9408, Note_off_c, 9, 35, 0
1, 9408, Note_on_c, 9, 46, 37
1, 9600, Note_off_c, 9, 46, 0
1, 9600, Note_on_c, 9, 39, 37
1, 9600, Note_on_c, 9, 35, 37
1, 9600, Note_on_c, 9, 40, 37
1, 9792, Note_off_c, 9, 40, 0
1, 9792, Note_off_c, 9, 35, 0
1, 9792, Note_off_c, 9, 39, 0
1, 9792, Note_on_c, 9, 46, 37
1, 9984, Note_off_c, 9, 46, 0
1, 9984, Note_on_c, 9, 35, 37
1, 10176, Note_off_c, 9, 35, 0
1, 10176, Note_on_c, 9, 46, 37
1, 10368, Note_off_c, 9, 46, 0
1, 10368, Note_on_c, 9, 35, 37
1, 10368, Note_on_c, 9, 40, 37
1, 10368, Note_on_c, 9, 39, 37
1, 10464, Note_off_c, 9, 35, 0
1, 10464, Note_on_c, 9, 35, 37
1, 10560, Note_off_c, 9, 35, 0
1, 10560, Note_off_c, 9, 39, 0
1, 10560, Note_off_c, 9, 40, 0
1, 10560, Note_on_c, 9, 35, 37
1, 10560, Note_on_c, 9, 46, 37
1, 10656, Note_off_c, 9, 35, 0
1, 10656, Note_on_c, 9, 35, 37
1, 10752, Note_off_c, 9, 35, 0
1, 10752, Note_off_c, 9, 46, 0
1, 10752, Note_on_c, 9, 55, 37
1, 10752, Note_on_c, 9, 35, 37
1, 10848, Note_off_c, 9, 55, 0
1, 10944, Note_off_c, 9, 35, 0
1, 10944, Note_on_c, 9, 46, 37
1, 11136, Note_off_c, 9, 46, 0
1, 11136, Note_on_c, 9, 40, 37
1, 11136, Note_on_c, 9, 35, 37
1, 11136, Note_on_c, 9, 39, 37
1, 11328, Note_off_c, 9, 39, 0
1, 11328, Note_off_c, 9, 35, 0
1, 11328, Note_off_c, 9, 40, 0
1, 11328, Note_on_c, 9, 46, 37
1, 11520, Note_off_c, 9, 46, 0
1, 11520, Note_on_c, 9, 35, 37
1, 11712, Note_off_c, 9, 35, 0
1, 11712, Note_on_c, 9, 46, 37
1, 11904, Note_off_c, 9, 46, 0
1, 11904, Note_on_c, 9, 39, 37
1, 11904, Note_on_c, 9, 35, 37
1, 11904, Note_on_c, 9, 40, 37
1, 12096, Note_off_c, 9, 40, 0
1, 12096, Note_off_c, 9, 35, 0
1, 12096, Note_off_c, 9, 39, 0
1, 12096, Note_on_c, 9, 46, 37
1, 12288, Note_off_c, 9, 46, 0
1, 12288, Note_on_c, 9, 35, 37
1, 12480, Note_off_c, 9, 35, 0
1, 12480, Note_on_c, 9, 46, 37
1, 12672, Note_off_c, 9, 46, 0
1, 12672, Note_on_c, 9, 40, 37
1, 12672, Note_on_c, 9, 35, 37
1, 12672, Note_on_c, 9, 39, 37
1, 12864, Note_off_c, 9, 39, 0
1, 12864, Note_off_c, 9, 35, 0
1, 12864, Note_off_c, 9, 40, 0
1, 12864, Note_on_c, 9, 46, 37
1, 13056, Note_off_c, 9, 46, 0
1, 13056, Note_on_c, 9, 35, 37
1, 13248, Note_off_c, 9, 35, 0
1, 13248, Note_on_c, 9, 46, 37
1, 13440, Note_off_c, 9, 46, 0
1, 13440, Note_on_c, 9, 35, 37
1, 13440, Note_on_c, 9, 39, 37
1, 13440, Note_on_c, 9, 40, 37
1, 13632, Note_off_c, 9, 40, 0
1, 13632, Note_off_c, 9, 39, 0
1, 13632, Note_off_c, 9, 35, 0
1, 13632, Note_on_c, 9, 46, 37
1, 13824, Note_off_c, 9, 46, 0
1, 13824, Note_on_c, 9, 35, 37
1, 14016, Note_off_c, 9, 35, 0
1, 14016, Note_on_c, 9, 46, 37
1, 14208, Note_off_c, 9, 46, 0
1, 14208, Note_on_c, 9, 39, 37
1, 14208, Note_on_c, 9, 35, 37
1, 14208, Note_on_c, 9, 40, 37
1, 14400, Note_off_c, 9, 40, 0
1, 14400, Note_off_c, 9, 35, 0
1, 14400, Note_off_c, 9, 39, 0
1, 14400, Note_on_c, 9, 46, 37
1, 14592, Note_off_c, 9, 46, 0
1, 14592, Note_on_c, 9, 35, 37
1, 14784, Note_off_c, 9, 35, 0
1, 14784, Note_on_c, 9, 46, 37
1, 14976, Note_off_c, 9, 46, 0
1, 14976, Note_on_c, 9, 39, 37
1, 14976, Note_on_c, 9, 35, 37
1, 14976, Note_on_c, 9, 40, 37
1, 15168, Note_off_c, 9, 40, 0
1, 15168, Note_off_c, 9, 35, 0
1, 15168, Note_off_c, 9, 39, 0
1, 15168, Note_on_c, 9, 46, 37
1, 15360, Note_off_c, 9, 46, 0
1, 15360, Note_on_c, 9, 35, 37
1, 15552, Note_off_c, 9, 35, 0
1, 15552, Note_on_c, 9, 46, 37
1, 15744, Note_off_c, 9, 46, 0
1, 15744, Note_on_c, 9, 40, 37
1, 15744, Note_on_c, 9, 39, 37
1, 15744, Note_on_c, 9, 35, 37
1, 15936, Note_off_c, 9, 35, 0
1, 15936, Note_off_c, 9, 39, 0
1, 15936, Note_off_c, 9, 40, 0
1, 15936, Note_on_c, 9, 46, 37
1, 16128, Note_off_c, 9, 46, 0
1, 16128, Note_on_c, 9, 35, 37
1, 16320, Note_off_c, 9, 35, 0
1, 16320, Note_on_c, 9, 46, 37
1, 16512, Note_off_c, 9, 46, 0
1, 16512, Note_on_c, 9, 35, 37
1, 16512, Note_on_c, 9, 40, 37
1, 16512, Note_on_c, 9, 39, 37
1, 16608, Note_off_c, 9, 35, 0
1, 16704, Note_off_c, 9, 39, 0
1, 16704, Note_off_c, 9, 40, 0
1, 16704, Note_on_c, 9, 35, 37
1, 16704, Note_on_c, 9, 46, 37
1, 16800, Note_off_c, 9, 35, 0
1, 16896, Note_off_c, 9, 46, 0
1, 16896, Note_on_c, 9, 35, 37
1, 16992, Note_off_c, 9, 35, 0
1, 17088, Note_on_c, 9, 46, 37
1, 17280, Note_off_c, 9, 46, 0
1, 17280, Note_on_c, 9, 35, 37
1, 17280, Note_on_c, 9, 39, 37
1, 17280, Note_on_c, 9, 40, 37
1, 17472, Note_off_c, 9, 40, 0
1, 17472, Note_off_c, 9, 39, 0
1, 17472, Note_off_c, 9, 35, 0
1, 17472, Note_on_c, 9, 46, 37
1, 17664, Note_off_c, 9, 46, 0
1, 17664, Note_on_c, 9, 35, 37
1, 17856, Note_off_c, 9, 35, 0
1, 17856, Note_on_c, 9, 46, 37
1, 18048, Note_off_c, 9, 46, 0
1, 18048, Note_on_c, 9, 35, 37
1, 18048, Note_on_c, 9, 40, 37
1, 18048, Note_on_c, 9, 39, 37
1, 18144, Note_off_c, 9, 35, 0
1, 18144, Note_on_c, 9, 35, 37
1, 18240, Note_off_c, 9, 35, 0
1, 18240, Note_off_c, 9, 39, 0
1, 18240, Note_off_c, 9, 40, 0
1, 18240, Note_on_c, 9, 35, 37
1, 18240, Note_on_c, 9, 46, 37
1, 18336, Note_off_c, 9, 35, 0
1, 18336, Note_on_c, 9, 35, 37
1, 18432, Note_off_c, 9, 35, 0
1, 18432, Note_off_c, 9, 46, 0
1, 18432, Note_on_c, 9, 49, 37
1, 18432, Note_on_c, 9, 35, 37
1, 18528, Note_off_c, 9, 49, 0
1, 18624, Note_off_c, 9, 35, 0
1, 18624, Note_on_c, 9, 46, 37
1, 18816, Note_off_c, 9, 46, 0
1, 18816, Note_on_c, 9, 40, 37
1, 18816, Note_on_c, 9, 35, 37
1, 18816, Note_on_c, 9, 39, 37
1, 19008, Note_off_c, 9, 39, 0
1, 19008, Note_off_c, 9, 35, 0
1, 19008, Note_off_c, 9, 40, 0
1, 19008, Note_on_c, 9, 46, 37
1, 19200, Note_off_c, 9, 46, 0
1, 19200, Note_on_c, 9, 35, 37
1, 19392, Note_off_c, 9, 35, 0
1, 19392, Note_on_c, 9, 46, 37
1, 19584, Note_off_c, 9, 46, 0
1, 19584, Note_on_c, 9, 39, 37
1, 19584, Note_on_c, 9, 35, 37
1, 19584, Note_on_c, 9, 40, 37
1, 19776, Note_off_c, 9, 40, 0
1, 19776, Note_off_c, 9, 35, 0
1, 19776, Note_off_c, 9, 39, 0
1, 19776, Note_on_c, 9, 46, 37
1, 19968, Note_off_c, 9, 46, 0
1, 19968, Note_on_c, 9, 35, 37
1, 20160, Note_off_c, 9, 35, 0
1, 20160, Note_on_c, 9, 46, 37
1, 20352, Note_off_c, 9, 46, 0
1, 20352, Note_on_c, 9, 40, 37
1, 20352, Note_on_c, 9, 39, 37
1, 20352, Note_on_c, 9, 35, 37
1, 20544, Note_off_c, 9, 35, 0
1, 20544, Note_off_c, 9, 39, 0
1, 20544, Note_off_c, 9, 40, 0
1, 20544, Note_on_c, 9, 46, 37
1, 20736, Note_off_c, 9, 46, 0
1, 20736, Note_on_c, 9, 35, 37
1, 20928, Note_off_c, 9, 35, 0
1, 20928, Note_on_c, 9, 46, 37
1, 21120, Note_off_c, 9, 46, 0
1, 21120, Note_on_c, 9, 35, 37
1, 21120, Note_on_c, 9, 40, 37
1, 21120, Note_on_c, 9, 39, 37
1, 21216, Note_off_c, 9, 35, 0
1, 21312, Note_off_c, 9, 39, 0
1, 21312, Note_off_c, 9, 40, 0
1, 21312, Note_on_c, 9, 35, 37
1, 21312, Note_on_c, 9, 46, 37
1, 21408, Note_off_c, 9, 35, 0
1, 21504, Note_off_c, 9, 46, 0
1, 21504, Note_on_c, 9, 35, 37
1, 21696, Note_off_c, 9, 35, 0
1, 21696, Note_on_c, 9, 46, 37
1, 21888, Note_off_c, 9, 46, 0
1, 21888, Note_on_c, 9, 40, 37
1, 21888, Note_on_c, 9, 39, 37
1, 21888, Note_on_c, 9, 35, 37
1, 22080, Note_off_c, 9, 35, 0
1, 22080, Note_off_c, 9, 39, 0
1, 22080, Note_off_c, 9, 40, 0
1, 22080, Note_on_c, 9, 46, 37
1, 22272, Note_off_c, 9, 46, 0
1, 22272, Note_on_c, 9, 35, 37
1, 22464, Note_off_c, 9, 35, 0
1, 22464, Note_on_c, 9, 46, 37
1, 22656, Note_off_c, 9, 46, 0
1, 22656, Note_on_c, 9, 40, 37
1, 22656, Note_on_c, 9, 39, 37
1, 22656, Note_on_c, 9, 35, 37
1, 22848, Note_off_c, 9, 35, 0
1, 22848, Note_off_c, 9, 39, 0
1, 22848, Note_off_c, 9, 40, 0
1, 22848, Note_on_c, 9, 46, 37
1, 23040, Note_off_c, 9, 46, 0
1, 23040, Note_on_c, 9, 35, 37
1, 23232, Note_off_c, 9, 35, 0
1, 23232, Note_on_c, 9, 46, 37
1, 23424, Note_off_c, 9, 46, 0
1, 23424, Note_on_c, 9, 35, 37
1, 23424, Note_on_c, 9, 40, 37
1, 23424, Note_on_c, 9, 39, 37
1, 23616, Note_off_c, 9, 39, 0
1, 23616, Note_off_c, 9, 40, 0
1, 23616, Note_off_c, 9, 35, 0
1, 23616, Note_on_c, 9, 46, 37
1, 23808, Note_off_c, 9, 46, 0
1, 23808, Note_on_c, 9, 35, 37
1, 24000, Note_off_c, 9, 35, 0
1, 24000, Note_on_c, 9, 46, 37
1, 24192, Note_off_c, 9, 46, 0
1, 24192, Note_on_c, 9, 35, 37
1, 24192, Note_on_c, 9, 39, 37
1, 24192, Note_on_c, 9, 40, 37
1, 24288, Note_off_c, 9, 35, 0
1, 24288, Note_on_c, 9, 35, 37
1, 24384, Note_off_c, 9, 35, 0
1, 24384, Note_off_c, 9, 40, 0
1, 24384, Note_off_c, 9, 39, 0
1, 24384, Note_on_c, 9, 35, 37
1, 24384, Note_on_c, 9, 46, 37
1, 24480, Note_off_c, 9, 35, 0
1, 24480, Note_on_c, 9, 35, 37
1, 24576, Note_off_c, 9, 35, 0
1, 24576, Note_off_c, 9, 46, 0
1, 24576, Note_on_c, 9, 49, 37
1, 24576, Note_on_c, 9, 35, 37
1, 24672, Note_off_c, 9, 49, 0
1, 24768, Note_off_c, 9, 35, 0
1, 24768, Note_on_c, 9, 46, 37
1, 24960, Note_off_c, 9, 46, 0
1, 24960, Note_on_c, 9, 40, 37
1, 24960, Note_on_c, 9, 39, 37
1, 24960, Note_on_c, 9, 35, 37
1, 25152, Note_off_c, 9, 35, 0
1, 25152, Note_off_c, 9, 39, 0
1, 25152, Note_off_c, 9, 40, 0
1, 25152, Note_on_c, 9, 46, 37
1, 25344, Note_off_c, 9, 46, 0
1, 25344, Note_on_c, 9, 35, 37
1, 25536, Note_off_c, 9, 35, 0
1, 25536, Note_on_c, 9, 46, 37
1, 25728, Note_off_c, 9, 46, 0
1, 25728, Note_on_c, 9, 40, 37
1, 25728, Note_on_c, 9, 39, 37
1, 25728, Note_on_c, 9, 35, 37
1, 25920, Note_off_c, 9, 35, 0
1, 25920, Note_off_c, 9, 39, 0
1, 25920, Note_off_c, 9, 40, 0
1, 25920, Note_on_c, 9, 46, 37
1, 26112, Note_off_c, 9, 46, 0
1, 26112, Note_on_c, 9, 35, 37
1, 26304, Note_off_c, 9, 35, 0
1, 26304, Note_on_c, 9, 46, 37
1, 26496, Note_off_c, 9, 46, 0
1, 26496, Note_on_c, 9, 40, 37
1, 26496, Note_on_c, 9, 35, 37
1, 26496, Note_on_c, 9, 39, 37
1, 26688, Note_off_c, 9, 39, 0
1, 26688, Note_off_c, 9, 35, 0
1, 26688, Note_off_c, 9, 40, 0
1, 26688, Note_on_c, 9, 46, 37
1, 26880, Note_off_c, 9, 46, 0
1, 26880, Note_on_c, 9, 35, 37
1, 27072, Note_off_c, 9, 35, 0
1, 27072, Note_on_c, 9, 46, 37
1, 27264, Note_off_c, 9, 46, 0
1, 27264, Note_on_c, 9, 35, 37
1, 27264, Note_on_c, 9, 39, 37
1, 27264, Note_on_c, 9, 40, 37
1, 27360, Note_off_c, 9, 35, 0
1, 27456, Note_off_c, 9, 40, 0
1, 27456, Note_off_c, 9, 39, 0
1, 27456, Note_on_c, 9, 35, 37
1, 27456, Note_on_c, 9, 46, 37
1, 27552, Note_off_c, 9, 35, 0
1, 27648, Note_off_c, 9, 46, 0
1, 27648, Note_on_c, 9, 35, 37
1, 27840, Note_off_c, 9, 35, 0
1, 27840, Note_on_c, 9, 46, 37
1, 28032, Note_off_c, 9, 46, 0
1, 28032, Note_on_c, 9, 39, 37
1, 28032, Note_on_c, 9, 40, 37
1, 28032, Note_on_c, 9, 35, 37
1, 28224, Note_off_c, 9, 35, 0
1, 28224, Note_off_c, 9, 40, 0
1, 28224, Note_off_c, 9, 39, 0
1, 28224, Note_on_c, 9, 46, 37
1, 28416, Note_off_c, 9, 46, 0
1, 28416, Note_on_c, 9, 35, 37
1, 28608, Note_off_c, 9, 35, 0
1, 28608, Note_on_c, 9, 46, 37
1, 28800, Note_off_c, 9, 46, 0
1, 28800, Note_on_c, 9, 35, 37
1, 28800, Note_on_c, 9, 40, 37
1, 28800, Note_on_c, 9, 39, 37
1, 28992, Note_off_c, 9, 39, 0
1, 28992, Note_off_c, 9, 40, 0
1, 28992, Note_off_c, 9, 35, 0
1, 28992, Note_on_c, 9, 46, 37
1, 29184, Note_off_c, 9, 46, 0
1, 29184, Note_on_c, 9, 35, 37
1, 29376, Note_off_c, 9, 35, 0
1, 29376, Note_on_c, 9, 46, 37
1, 29568, Note_off_c, 9, 46, 0
1, 29568, Note_on_c, 9, 40, 37
1, 29568, Note_on_c, 9, 39, 37
1, 29568, Note_on_c, 9, 35, 37
1, 29760, Note_off_c, 9, 35, 0
1, 29760, Note_off_c, 9, 39, 0
1, 29760, Note_off_c, 9, 40, 0
1, 29760, Note_on_c, 9, 46, 37
1, 29952, Note_off_c, 9, 46, 0
1, 29952, Note_on_c, 9, 35, 37
1, 30144, Note_off_c, 9, 35, 0
1, 30144, Note_on_c, 9, 46, 37
1, 30336, Note_off_c, 9, 46, 0
1, 30336, Note_on_c, 9, 35, 37
1, 30336, Note_on_c, 9, 40, 37
1, 30336, Note_on_c, 9, 39, 37
1, 30432, Note_off_c, 9, 35, 0
1, 30432, Note_on_c, 9, 35, 37
1, 30528, Note_off_c, 9, 35, 0
1, 30528, Note_off_c, 9, 39, 0
1, 30528, Note_off_c, 9, 40, 0
1, 30528, Note_on_c, 9, 35, 37
1, 30528, Note_on_c, 9, 46, 37
1, 30624, Note_off_c, 9, 35, 0
1, 30624, Note_on_c, 9, 35, 37
1, 30720, Note_off_c, 9, 35, 0
1, 30720, Note_off_c, 9, 46, 0
1, 30720, Note_on_c, 9, 49, 37
1, 30720, Note_on_c, 9, 39, 37
1, 30720, Note_on_c, 9, 35, 37
1, 30816, Note_off_c, 9, 49, 0
1, 30912, Note_off_c, 9, 35, 0
1, 30912, Note_off_c, 9, 39, 0
1, 30912, Note_on_c, 9, 46, 37
1, 31104, Note_off_c, 9, 46, 0
1, 31104, Note_on_c, 9, 39, 37
1, 31104, Note_on_c, 9, 35, 37
1, 31296, Note_off_c, 9, 35, 0
1, 31296, Note_off_c, 9, 39, 0
1, 31296, Note_on_c, 9, 46, 37
1, 31488, Note_off_c, 9, 46, 0
1, 31488, Note_on_c, 9, 39, 37
1, 31488, Note_on_c, 9, 35, 37
1, 31680, Note_off_c, 9, 35, 0
1, 31680, Note_off_c, 9, 39, 0
1, 31680, Note_on_c, 9, 46, 37
1, 31872, Note_off_c, 9, 46, 0
1, 31872, Note_on_c, 9, 35, 37
1, 31872, Note_on_c, 9, 39, 37
1, 31968, Note_off_c, 9, 35, 0
1, 31968, Note_on_c, 9, 35, 37
1, 32064, Note_off_c, 9, 35, 0
1, 32064, Note_off_c, 9, 39, 0
1, 32064, Note_on_c, 9, 35, 37
1, 32064, Note_on_c, 9, 46, 37
1, 32160, Note_off_c, 9, 35, 0
1, 32160, Note_on_c, 9, 35, 37
1, 32256, Note_off_c, 9, 35, 0
1, 32256, Note_off_c, 9, 46, 0
1, 32256, Note_on_c, 9, 39, 37
1, 32256, Note_on_c, 9, 35, 37
1, 32448, Note_off_c, 9, 35, 0
1, 32448, Note_off_c, 9, 39, 0
1, 32448, Note_on_c, 9, 46, 37
1, 32640, Note_off_c, 9, 46, 0
1, 32640, Note_on_c, 9, 39, 37
1, 32640, Note_on_c, 9, 35, 37
1, 32832, Note_off_c, 9, 35, 0
1, 32832, Note_off_c, 9, 39, 0
1, 32832, Note_on_c, 9, 46, 37
1, 33024, Note_off_c, 9, 46, 0
1, 33024, Note_on_c, 9, 39, 37
1, 33024, Note_on_c, 9, 35, 37
1, 33216, Note_off_c, 9, 35, 0
1, 33216, Note_off_c, 9, 39, 0
1, 33216, Note_on_c, 9, 46, 37
1, 33408, Note_off_c, 9, 46, 0
1, 33408, Note_on_c, 9, 35, 37
1, 33408, Note_on_c, 9, 39, 37
1, 33600, Note_off_c, 9, 39, 0
1, 33600, Note_off_c, 9, 35, 0
1, 33600, Note_on_c, 9, 46, 37
1, 33792, Note_off_c, 9, 46, 0
1, 33792, Note_on_c, 9, 39, 37
1, 33792, Note_on_c, 9, 35, 37
1, 33984, Note_off_c, 9, 35, 0
1, 33984, Note_off_c, 9, 39, 0
1, 33984, Note_on_c, 9, 46, 37
1, 34176, Note_off_c, 9, 46, 0
1, 34176, Note_on_c, 9, 39, 37
1, 34176, Note_on_c, 9, 35, 37
1, 34368, Note_off_c, 9, 35, 0
1, 34368, Note_off_c, 9, 39, 0
1, 34368, Note_on_c, 9, 46, 37
1, 34560, Note_off_c, 9, 46, 0
1, 34560, Note_on_c, 9, 35, 37
1, 34560, Note_on_c, 9, 39, 37
1, 34752, Note_off_c, 9, 39, 0
1, 34752, Note_off_c, 9, 35, 0
1, 34752, Note_on_c, 9, 46, 37
1, 34944, Note_off_c, 9, 46, 0
1, 34944, Note_on_c, 9, 35, 37
1, 34944, Note_on_c, 9, 39, 37
1, 35040, Note_off_c, 9, 35, 0
1, 35040, Note_on_c, 9, 35, 37
1, 35136, Note_off_c, 9, 35, 0
1, 35136, Note_off_c, 9, 39, 0
1, 35136, Note_on_c, 9, 35, 37
1, 35136, Note_on_c, 9, 46, 37
1, 35232, Note_off_c, 9, 35, 0
1, 35232, Note_on_c, 9, 35, 37
1, 35328, Note_off_c, 9, 35, 0
1, 35328, Note_off_c, 9, 46, 0
1, 35328, Note_on_c, 9, 35, 37
1, 35328, Note_on_c, 9, 39, 37
1, 35424, Note_off_c, 9, 35, 0
1, 35520, Note_off_c, 9, 39, 0
1, 35520, Note_on_c, 9, 46, 37
1, 35712, Note_off_c, 9, 46, 0
1, 35712, Note_on_c, 9, 35, 37
1, 35712, Note_on_c, 9, 39, 37
1, 35904, Note_off_c, 9, 39, 0
1, 35904, Note_off_c, 9, 35, 0
1, 35904, Note_on_c, 9, 46, 37
1, 36096, Note_off_c, 9, 46, 0
1, 36096, Note_on_c, 9, 39, 37
1, 36096, Note_on_c, 9, 35, 37
1, 36288, Note_off_c, 9, 35, 0
1, 36288, Note_off_c, 9, 39, 0
1, 36288, Note_on_c, 9, 46, 37
1, 36480, Note_off_c, 9, 46, 0
1, 36480, Note_on_c, 9, 39, 37
1, 36480, Note_on_c, 9, 35, 37
1, 36672, Note_off_c, 9, 35, 0
1, 36672, Note_off_c, 9, 39, 0
1, 36672, Note_on_c, 9, 46, 37
1, 36864, Note_off_c, 9, 46, 0
1, 36864, Note_on_c, 9, 49, 37
1, 36864, Note_on_c, 9, 39, 37
1, 36864, Note_on_c, 9, 35, 37
1, 36960, Note_off_c, 9, 49, 0
1, 37056, Note_off_c, 9, 35, 0
1, 37056, Note_off_c, 9, 39, 0
1, 37056, Note_on_c, 9, 46, 37
1, 37248, Note_off_c, 9, 46, 0
1, 37248, Note_on_c, 9, 35, 37
1, 37248, Note_on_c, 9, 39, 37
1, 37440, Note_off_c, 9, 39, 0
1, 37440, Note_off_c, 9, 35, 0
1, 37440, Note_on_c, 9, 46, 37
1, 37632, Note_off_c, 9, 46, 0
1, 37632, Note_on_c, 9, 39, 37
1, 37632, Note_on_c, 9, 35, 37
1, 37824, Note_off_c, 9, 35, 0
1, 37824, Note_off_c, 9, 39, 0
1, 37824, Note_on_c, 9, 46, 37
1, 38016, Note_off_c, 9, 46, 0
1, 38016, Note_on_c, 9, 35, 37
1, 38016, Note_on_c, 9, 39, 37
1, 38112, Note_off_c, 9, 35, 0
1, 38112, Note_on_c, 9, 35, 37
1, 38208, Note_off_c, 9, 35, 0
1, 38208, Note_off_c, 9, 39, 0
1, 38208, Note_on_c, 9, 35, 37
1, 38208, Note_on_c, 9, 46, 37
1, 38304, Note_off_c, 9, 35, 0
1, 38304, Note_on_c, 9, 35, 37
1, 38400, Note_off_c, 9, 35, 0
1, 38400, Note_off_c, 9, 46, 0
1, 38400, Note_on_c, 9, 39, 37
1, 38400, Note_on_c, 9, 35, 37
1, 38592, Note_off_c, 9, 35, 0
1, 38592, Note_off_c, 9, 39, 0
1, 38592, Note_on_c, 9, 46, 37
1, 38784, Note_off_c, 9, 46, 0
1, 38784, Note_on_c, 9, 39, 37
1, 38784, Note_on_c, 9, 35, 37
1, 38976, Note_off_c, 9, 35, 0
1, 38976, Note_off_c, 9, 39, 0
1, 38976, Note_on_c, 9, 46, 37
1, 39168, Note_off_c, 9, 46, 0
1, 39168, Note_on_c, 9, 39, 37
1, 39168, Note_on_c, 9, 35, 37
1, 39360, Note_off_c, 9, 35, 0
1, 39360, Note_off_c, 9, 39, 0
1, 39360, Note_on_c, 9, 46, 37
1, 39552, Note_off_c, 9, 46, 0
1, 39552, Note_on_c, 9, 39, 37
1, 39552, Note_on_c, 9, 35, 37
1, 39744, Note_off_c, 9, 35, 0
1, 39744, Note_off_c, 9, 39, 0
1, 39744, Note_on_c, 9, 46, 37
1, 39936, Note_off_c, 9, 46, 0
1, 39936, Note_on_c, 9, 39, 37
1, 39936, Note_on_c, 9, 35, 37
1, 40128, Note_off_c, 9, 35, 0
1, 40128, Note_off_c, 9, 39, 0
1, 40128, Note_on_c, 9, 46, 37
1, 40320, Note_off_c, 9, 46, 0
1, 40320, Note_on_c, 9, 35, 37
1, 40320, Note_on_c, 9, 39, 37
1, 40512, Note_off_c, 9, 39, 0
1, 40512, Note_off_c, 9, 35, 0
1, 40512, Note_on_c, 9, 46, 37
1, 40704, Note_off_c, 9, 46, 0
1, 40704, Note_on_c, 9, 39, 37
1, 40704, Note_on_c, 9, 35, 37
1, 40896, Note_off_c, 9, 35, 0
1, 40896, Note_off_c, 9, 39, 0
1, 40896, Note_on_c, 9, 46, 37
1, 41088, Note_off_c, 9, 46, 0
1, 41088, Note_on_c, 9, 35, 37
1, 41088, Note_on_c, 9, 39, 37
1, 41184, Note_off_c, 9, 35, 0
1, 41184, Note_on_c, 9, 35, 37
1, 41280, Note_off_c, 9, 35, 0
1, 41280, Note_off_c, 9, 39, 0
1, 41280, Note_on_c, 9, 35, 37
1, 41280, Note_on_c, 9, 46, 37
1, 41376, Note_off_c, 9, 35, 0
1, 41376, Note_on_c, 9, 35, 37
1, 41472, Note_off_c, 9, 35, 0
1, 41472, Note_off_c, 9, 46, 0
1, 41472, Note_on_c, 9, 39, 37
1, 41472, Note_on_c, 9, 35, 37
1, 41664, Note_off_c, 9, 35, 0
1, 41664, Note_off_c, 9, 39, 0
1, 41664, Note_on_c, 9, 46, 37
1, 41856, Note_off_c, 9, 46, 0
1, 41856, Note_on_c, 9, 39, 37
1, 41856, Note_on_c, 9, 35, 37
1, 42048, Note_off_c, 9, 35, 0
1, 42048, Note_off_c, 9, 39, 0
1, 42048, Note_on_c, 9, 46, 37
1, 42240, Note_off_c, 9, 46, 0
1, 42240, Note_on_c, 9, 39, 37
1, 42240, Note_on_c, 9, 35, 37
1, 42432, Note_off_c, 9, 35, 0
1, 42432, Note_off_c, 9, 39, 0
1, 42432, Note_on_c, 9, 46, 37
1, 42624, Note_off_c, 9, 46, 0
1, 42624, Note_on_c, 9, 39, 37
1, 42624, Note_on_c, 9, 35, 37
1, 42816, Note_off_c, 9, 35, 0
1, 42816, Note_off_c, 9, 39, 0
1, 42816, Note_on_c, 9, 46, 37
1, 43008, Note_off_c, 9, 46, 0
1, 43200, Note_on_c, 9, 46, 37
1, 43392, Note_off_c, 9, 46, 0
1, 43392, Note_on_c, 9, 40, 37
1, 43392, Note_on_c, 9, 35, 37
1, 43392, Note_on_c, 9, 39, 37
1, 43584, Note_off_c, 9, 39, 0
1, 43584, Note_off_c, 9, 35, 0
1, 43584, Note_off_c, 9, 40, 0
1, 43584, Note_on_c, 9, 46, 37
1, 43776, Note_off_c, 9, 46, 0
1, 43776, Note_on_c, 9, 35, 37
1, 43968, Note_off_c, 9, 35, 0
1, 43968, Note_on_c, 9, 46, 37
1, 44160, Note_off_c, 9, 46, 0
1, 44160, Note_on_c, 9, 40, 37
1, 44160, Note_on_c, 9, 39, 37
1, 44160, Note_on_c, 9, 35, 37
1, 44352, Note_off_c, 9, 35, 0
1, 44352, Note_off_c, 9, 39, 0
1, 44352, Note_off_c, 9, 40, 0
1, 44352, Note_on_c, 9, 46, 37
1, 44544, Note_off_c, 9, 46, 0
1, 44544, Note_on_c, 9, 49, 37
1, 44640, Note_off_c, 9, 49, 0
1, 44736, Note_on_c, 9, 46, 37
1, 44928, Note_off_c, 9, 46, 0
1, 44928, Note_on_c, 9, 40, 37
1, 44928, Note_on_c, 9, 35, 37
1, 44928, Note_on_c, 9, 39, 37
1, 45120, Note_off_c, 9, 39, 0
1, 45120, Note_off_c, 9, 35, 0
1, 45120, Note_off_c, 9, 40, 0
1, 45120, Note_on_c, 9, 46, 37
1, 45312, Note_off_c, 9, 46, 0
1, 45312, Note_on_c, 9, 35, 37
1, 45504, Note_off_c, 9, 35, 0
1, 45504, Note_on_c, 9, 46, 37
1, 45696, Note_off_c, 9, 46, 0
1, 45696, Note_on_c, 9, 40, 37
1, 45696, Note_on_c, 9, 39, 37
1, 45696, Note_on_c, 9, 35, 37
1, 45888, Note_off_c, 9, 35, 0
1, 45888, Note_off_c, 9, 39, 0
1, 45888, Note_off_c, 9, 40, 0
1, 45888, Note_on_c, 9, 46, 37
1, 46080, Note_off_c, 9, 46, 0
1, 46080, Note_on_c, 9, 35, 37
1, 46272, Note_off_c, 9, 35, 0
1, 46272, Note_on_c, 9, 46, 37
1, 46464, Note_off_c, 9, 46, 0
1, 46464, Note_on_c, 9, 40, 37
1, 46464, Note_on_c, 9, 39, 37
1, 46464, Note_on_c, 9, 35, 37
1, 46656, Note_off_c, 9, 35, 0
1, 46656, Note_off_c, 9, 39, 0
1, 46656, Note_off_c, 9, 40, 0
1, 46656, Note_on_c, 9, 46, 37
1, 46848, Note_off_c, 9, 46, 0
1, 46848, Note_on_c, 9, 35, 37
1, 47040, Note_off_c, 9, 35, 0
1, 47040, Note_on_c, 9, 46, 37
1, 47232, Note_off_c, 9, 46, 0
1, 47232, Note_on_c, 9, 35, 37
1, 47232, Note_on_c, 9, 39, 37
1, 47232, Note_on_c, 9, 40, 37
1, 47424, Note_off_c, 9, 40, 0
1, 47424, Note_off_c, 9, 39, 0
1, 47424, Note_off_c, 9, 35, 0
1, 47424, Note_on_c, 9, 46, 37
1, 47616, Note_off_c, 9, 46, 0
1, 47616, Note_on_c, 9, 35, 37
1, 47808, Note_off_c, 9, 35, 0
1, 47808, Note_on_c, 9, 46, 37
1, 48000, Note_off_c, 9, 46, 0
1, 48000, Note_on_c, 9, 39, 37
1, 48000, Note_on_c, 9, 35, 37
1, 48000, Note_on_c, 9, 40, 37
1, 48192, Note_off_c, 9, 40, 0
1, 48192, Note_off_c, 9, 35, 0
1, 48192, Note_off_c, 9, 39, 0
1, 48192, Note_on_c, 9, 46, 37
1, 48384, Note_off_c, 9, 46, 0
1, 48384, Note_on_c, 9, 35, 37
1, 48576, Note_off_c, 9, 35, 0
1, 48576, Note_on_c, 9, 46, 37
1, 48768, Note_off_c, 9, 46, 0
1, 48768, Note_on_c, 9, 40, 37
1, 48768, Note_on_c, 9, 35, 37
1, 48768, Note_on_c, 9, 39, 37
1, 48960, Note_off_c, 9, 39, 0
1, 48960, Note_off_c, 9, 35, 0
1, 48960, Note_off_c, 9, 40, 0
1, 48960, Note_on_c, 9, 46, 37
1, 49152, Note_off_c, 9, 46, 0
1, 49152, Note_on_c, 9, 35, 37
1, 49344, Note_off_c, 9, 35, 0
1, 49344, Note_on_c, 9, 46, 37
1, 49536, Note_off_c, 9, 46, 0
1, 49536, Note_on_c, 9, 40, 37
1, 49536, Note_on_c, 9, 39, 37
1, 49536, Note_on_c, 9, 35, 37
1, 49728, Note_off_c, 9, 35, 0
1, 49728, Note_off_c, 9, 39, 0
1, 49728, Note_off_c, 9, 40, 0
1, 49728, Note_on_c, 9, 46, 37
1, 49920, Note_off_c, 9, 46, 0
1, 49920, Note_on_c, 9, 35, 37
1, 50112, Note_off_c, 9, 35, 0
1, 50112, Note_on_c, 9, 46, 37
1, 50304, Note_off_c, 9, 46, 0
1, 50304, Note_on_c, 9, 35, 37
1, 50304, Note_on_c, 9, 39, 37
1, 50304, Note_on_c, 9, 40, 37
1, 50400, Note_off_c, 9, 35, 0
1, 50496, Note_off_c, 9, 40, 0
1, 50496, Note_off_c, 9, 39, 0
1, 50496, Note_on_c, 9, 35, 37
1, 50496, Note_on_c, 9, 46, 37
1, 50592, Note_off_c, 9, 35, 0
1, 50688, Note_off_c, 9, 46, 0
1, 50688, Note_on_c, 9, 35, 37
1, 50880, Note_off_c, 9, 35, 0
1, 50880, Note_on_c, 9, 46, 37
1, 51072, Note_off_c, 9, 46, 0
1, 51072, Note_on_c, 9, 39, 37
1, 51072, Note_on_c, 9, 35, 37
1, 51072, Note_on_c, 9, 40, 37
1, 51264, Note_off_c, 9, 40, 0
1, 51264, Note_off_c, 9, 35, 0
1, 51264, Note_off_c, 9, 39, 0
1, 51264, Note_on_c, 9, 46, 37
1, 51456, Note_off_c, 9, 46, 0
1, 51456, Note_on_c, 9, 35, 37
1, 51648, Note_off_c, 9, 35, 0
1, 51648, Note_on_c, 9, 46, 37
1, 51840, Note_off_c, 9, 46, 0
1, 51840, Note_on_c, 9, 35, 37
1, 51840, Note_on_c, 9, 40, 37
1, 51840, Note_on_c, 9, 39, 37
1, 51936, Note_off_c, 9, 35, 0
1, 51936, Note_on_c, 9, 35, 37
1, 52032, Note_off_c, 9, 35, 0
1, 52032, Note_off_c, 9, 39, 0
1, 52032, Note_off_c, 9, 40, 0
1, 52032, Note_on_c, 9, 35, 37
1, 52032, Note_on_c, 9, 46, 37
1, 52128, Note_off_c, 9, 35, 0
1, 52128, Note_on_c, 9, 35, 37
1, 52224, Note_off_c, 9, 35, 0
1, 52224, Note_off_c, 9, 46, 0
1, 52224, Note_on_c, 9, 55, 37
1, 52224, Note_on_c, 9, 35, 37
1, 52320, Note_off_c, 9, 55, 0
1, 52416, Note_off_c, 9, 35, 0
1, 52416, Note_on_c, 9, 46, 37
1, 52608, Note_off_c, 9, 46, 0
1, 52608, Note_on_c, 9, 40, 37
1, 52608, Note_on_c, 9, 35, 37
1, 52608, Note_on_c, 9, 39, 37
1, 52800, Note_off_c, 9, 39, 0
1, 52800, Note_off_c, 9, 35, 0
1, 52800, Note_off_c, 9, 40, 0
1, 52800, Note_on_c, 9, 46, 37
1, 52992, Note_off_c, 9, 46, 0
1, 52992, Note_on_c, 9, 35, 37
1, 53184, Note_off_c, 9, 35, 0
1, 53184, Note_on_c, 9, 46, 37
1, 53376, Note_off_c, 9, 46, 0
1, 53376, Note_on_c, 9, 39, 37
1, 53376, Note_on_c, 9, 35, 37
1, 53376, Note_on_c, 9, 40, 37
1, 53568, Note_off_c, 9, 40, 0
1, 53568, Note_off_c, 9, 35, 0
1, 53568, Note_off_c, 9, 39, 0
1, 53568, Note_on_c, 9, 46, 37
1, 53760, Note_off_c, 9, 46, 0
1, 53760, Note_on_c, 9, 35, 37
1, 53952, Note_off_c, 9, 35, 0
1, 53952, Note_on_c, 9, 46, 37
1, 54144, Note_off_c, 9, 46, 0
1, 54144, Note_on_c, 9, 40, 37
1, 54144, Note_on_c, 9, 35, 37
1, 54144, Note_on_c, 9, 39, 37
1, 54336, Note_off_c, 9, 39, 0
1, 54336, Note_off_c, 9, 35, 0
1, 54336, Note_off_c, 9, 40, 0
1, 54336, Note_on_c, 9, 46, 37
1, 54528, Note_off_c, 9, 46, 0
1, 54528, Note_on_c, 9, 35, 37
1, 54720, Note_off_c, 9, 35, 0
1, 54720, Note_on_c, 9, 46, 37
1, 54912, Note_off_c, 9, 46, 0
1, 54912, Note_on_c, 9, 35, 37
1, 54912, Note_on_c, 9, 39, 37
1, 54912, Note_on_c, 9, 40, 37
1, 55104, Note_off_c, 9, 40, 0
1, 55104, Note_off_c, 9, 39, 0
1, 55104, Note_off_c, 9, 35, 0
1, 55104, Note_on_c, 9, 46, 37
1, 55296, Note_off_c, 9, 46, 0
1, 55296, Note_on_c, 9, 35, 37
1, 55488, Note_off_c, 9, 35, 0
1, 55488, Note_on_c, 9, 46, 37
1, 55680, Note_off_c, 9, 46, 0
1, 55680, Note_on_c, 9, 39, 37
1, 55680, Note_on_c, 9, 35, 37
1, 55680, Note_on_c, 9, 40, 37
1, 55872, Note_off_c, 9, 40, 0
1, 55872, Note_off_c, 9, 35, 0
1, 55872, Note_off_c, 9, 39, 0
1, 55872, Note_on_c, 9, 46, 37
1, 56064, Note_off_c, 9, 46, 0
1, 56064, Note_on_c, 9, 35, 37
1, 56256, Note_off_c, 9, 35, 0
1, 56256, Note_on_c, 9, 46, 37
1, 56448, Note_off_c, 9, 46, 0
1, 56448, Note_on_c, 9, 39, 37
1, 56448, Note_on_c, 9, 35, 37
1, 56448, Note_on_c, 9, 40, 37
1, 56640, Note_off_c, 9, 40, 0
1, 56640, Note_off_c, 9, 35, 0
1, 56640, Note_off_c, 9, 39, 0
1, 56640, Note_on_c, 9, 46, 37
1, 56832, Note_off_c, 9, 46, 0
1, 56832, Note_on_c, 9, 35, 37
1, 57024, Note_off_c, 9, 35, 0
1, 57024, Note_on_c, 9, 46, 37
1, 57216, Note_off_c, 9, 46, 0
1, 57216, Note_on_c, 9, 40, 37
1, 57216, Note_on_c, 9, 39, 37
1, 57216, Note_on_c, 9, 35, 37
1, 57408, Note_off_c, 9, 35, 0
1, 57408, Note_off_c, 9, 39, 0
1, 57408, Note_off_c, 9, 40, 0
1, 57408, Note_on_c, 9, 46, 37
1, 57600, Note_off_c, 9, 46, 0
1, 57600, Note_on_c, 9, 35, 37
1, 57792, Note_off_c, 9, 35, 0
1, 57792, Note_on_c, 9, 46, 37
1, 57984, Note_off_c, 9, 46, 0
1, 57984, Note_on_c, 9, 35, 37
1, 57984, Note_on_c, 9, 40, 37
1, 57984, Note_on_c, 9, 39, 37
1, 58080, Note_off_c, 9, 35, 0
1, 58176, Note_off_c, 9, 39, 0
1, 58176, Note_off_c, 9, 40, 0
1, 58176, Note_on_c, 9, 35, 37
1, 58176, Note_on_c, 9, 46, 37
1, 58272, Note_off_c, 9, 35, 0
1, 58368, Note_off_c, 9, 46, 0
1, 58368, Note_on_c, 9, 35, 37
1, 58464, Note_off_c, 9, 35, 0
1, 58560, Note_on_c, 9, 46, 37
1, 58752, Note_off_c, 9, 46, 0
1, 58752, Note_on_c, 9, 35, 37
1, 58752, Note_on_c, 9, 39, 37
1, 58752, Note_on_c, 9, 40, 37
1, 58944, Note_off_c, 9, 40, 0
1, 58944, Note_off_c, 9, 39, 0
1, 58944, Note_off_c, 9, 35, 0
1, 58944, Note_on_c, 9, 46, 37
1, 59136, Note_off_c, 9, 46, 0
1, 59136, Note_on_c, 9, 35, 37
1, 59328, Note_off_c, 9, 35, 0
1, 59328, Note_on_c, 9, 46, 37
1, 59520, Note_off_c, 9, 46, 0
1, 59520, Note_on_c, 9, 35, 37
1, 59520, Note_on_c, 9, 40, 37
1, 59520, Note_on_c, 9, 39, 37
1, 59616, Note_off_c, 9, 35, 0
1, 59616, Note_on_c, 9, 35, 37
1, 59712, Note_off_c, 9, 35, 0
1, 59712, Note_off_c, 9, 39, 0
1, 59712, Note_off_c, 9, 40, 0
1, 59712, Note_on_c, 9, 35, 37
1, 59712, Note_on_c, 9, 46, 37
1, 59808, Note_off_c, 9, 35, 0
1, 59808, Note_on_c, 9, 35, 37
1, 59904, Note_off_c, 9, 35, 0
1, 59904, Note_off_c, 9, 46, 0
1, 59904, Note_on_c, 9, 49, 37
1, 59904, Note_on_c, 9, 35, 37
1, 60000, Note_off_c, 9, 49, 0
1, 60096, Note_off_c, 9, 35, 0
1, 60096, Note_on_c, 9, 46, 37
1, 60288, Note_off_c, 9, 46, 0
1, 60288, Note_on_c, 9, 40, 37
1, 60288, Note_on_c, 9, 35, 37
1, 60288, Note_on_c, 9, 39, 37
1, 60480, Note_off_c, 9, 39, 0
1, 60480, Note_off_c, 9, 35, 0
1, 60480, Note_off_c, 9, 40, 0
1, 60480, Note_on_c, 9, 46, 37
1, 60672, Note_off_c, 9, 46, 0
1, 60672, Note_on_c, 9, 35, 37
1, 60864, Note_off_c, 9, 35, 0
1, 60864, Note_on_c, 9, 46, 37
1, 61056, Note_off_c, 9, 46, 0
1, 61056, Note_on_c, 9, 39, 37
1, 61056, Note_on_c, 9, 35, 37
1, 61056, Note_on_c, 9, 40, 37
1, 61248, Note_off_c, 9, 40, 0
1, 61248, Note_off_c, 9, 35, 0
1, 61248, Note_off_c, 9, 39, 0
1, 61248, Note_on_c, 9, 46, 37
1, 61440, Note_off_c, 9, 46, 0
1, 61440, Note_on_c, 9, 35, 37
1, 61632, Note_off_c, 9, 35, 0
1, 61632, Note_on_c, 9, 46, 37
1, 61824, Note_off_c, 9, 46, 0
1, 61824, Note_on_c, 9, 40, 37
1, 61824, Note_on_c, 9, 39, 37
1, 61824, Note_on_c, 9, 35, 37
1, 62016, Note_off_c, 9, 35, 0
1, 62016, Note_off_c, 9, 39, 0
1, 62016, Note_off_c, 9, 40, 0
1, 62016, Note_on_c, 9, 46, 37
1, 62208, Note_off_c, 9, 46, 0
1, 62208, Note_on_c, 9, 35, 37
1, 62400, Note_off_c, 9, 35, 0
1, 62400, Note_on_c, 9, 46, 37
1, 62592, Note_off_c, 9, 46, 0
1, 62592, Note_on_c, 9, 35, 37
1, 62592, Note_on_c, 9, 40, 37
1, 62592, Note_on_c, 9, 39, 37
1, 62688, Note_off_c, 9, 35, 0
1, 62784, Note_off_c, 9, 39, 0
1, 62784, Note_off_c, 9, 40, 0
1, 62784, Note_on_c, 9, 35, 37
1, 62784, Note_on_c, 9, 46, 37
1, 62880, Note_off_c, 9, 35, 0
1, 62976, Note_off_c, 9, 46, 0
1, 62976, Note_on_c, 9, 35, 37
1, 63168, Note_off_c, 9, 35, 0
1, 63168, Note_on_c, 9, 46, 37
1, 63360, Note_off_c, 9, 46, 0
1, 63360, Note_on_c, 9, 40, 37
1, 63360, Note_on_c, 9, 39, 37
1, 63360, Note_on_c, 9, 35, 37
1, 63552, Note_off_c, 9, 35, 0
1, 63552, Note_off_c, 9, 39, 0
1, 63552, Note_off_c, 9, 40, 0
1, 63552, Note_on_c, 9, 46, 37
1, 63744, Note_off_c, 9, 46, 0
1, 63744, Note_on_c, 9, 35, 37
1, 63936, Note_off_c, 9, 35, 0
1, 63936, Note_on_c, 9, 46, 37
1, 64128, Note_off_c, 9, 46, 0
1, 64128, Note_on_c, 9, 40, 37
1, 64128, Note_on_c, 9, 39, 37
1, 64128, Note_on_c, 9, 35, 37
1, 64320, Note_off_c, 9, 35, 0
1, 64320, Note_off_c, 9, 39, 0
1, 64320, Note_off_c, 9, 40, 0
1, 64320, Note_on_c, 9, 46, 37
1, 64512, Note_off_c, 9, 46, 0
1, 64512, Note_on_c, 9, 35, 37
1, 64704, Note_off_c, 9, 35, 0
1, 64704, Note_on_c, 9, 46, 37
1, 64896, Note_off_c, 9, 46, 0
1, 64896, Note_on_c, 9, 35, 37
1, 64896, Note_on_c, 9, 40, 37
1, 64896, Note_on_c, 9, 39, 37
1, 65088, Note_off_c, 9, 39, 0
1, 65088, Note_off_c, 9, 40, 0
1, 65088, Note_off_c, 9, 35, 0
1, 65088, Note_on_c, 9, 46, 37
1, 65280, Note_off_c, 9, 46, 0
1, 65280, Note_on_c, 9, 35, 37
1, 65472, Note_off_c, 9, 35, 0
1, 65472, Note_on_c, 9, 46, 37
1, 65664, Note_off_c, 9, 46, 0
1, 65664, Note_on_c, 9, 35, 37
1, 65664, Note_on_c, 9, 39, 37
1, 65664, Note_on_c, 9, 40, 37
1, 65760, Note_off_c, 9, 35, 0
1, 65760, Note_on_c, 9, 35, 37
1, 65856, Note_off_c, 9, 35, 0
1, 65856, Note_off_c, 9, 40, 0
1, 65856, Note_off_c, 9, 39, 0
1, 65856, Note_on_c, 9, 35, 37
1, 65856, Note_on_c, 9, 46, 37
1, 65952, Note_off_c, 9, 35, 0
1, 65952, Note_on_c, 9, 35, 37
1, 66048, Note_off_c, 9, 35, 0
1, 66048, Note_off_c, 9, 46, 0
1, 66048, Note_on_c, 9, 49, 37
1, 66048, Note_on_c, 9, 35, 37
1, 66144, Note_off_c, 9, 49, 0
1, 66240, Note_off_c, 9, 35, 0
1, 66240, Note_on_c, 9, 46, 37
1, 66432, Note_off_c, 9, 46, 0
1, 66432, Note_on_c, 9, 40, 37
1, 66432, Note_on_c, 9, 39, 37
1, 66432, Note_on_c, 9, 35, 37
1, 66624, Note_off_c, 9, 35, 0
1, 66624, Note_off_c, 9, 39, 0
1, 66624, Note_off_c, 9, 40, 0
1, 66624, Note_on_c, 9, 46, 37
1, 66816, Note_off_c, 9, 46, 0
1, 66816, Note_on_c, 9, 35, 37
1, 67008, Note_off_c, 9, 35, 0
1, 67008, Note_on_c, 9, 46, 37
1, 67200, Note_off_c, 9, 46, 0
1, 67200, Note_on_c, 9, 40, 37
1, 67200, Note_on_c, 9, 39, 37
1, 67200, Note_on_c, 9, 35, 37
1, 67392, Note_off_c, 9, 35, 0
1, 67392, Note_off_c, 9, 39, 0
1, 67392, Note_off_c, 9, 40, 0
1, 67392, Note_on_c, 9, 46, 37
1, 67584, Note_off_c, 9, 46, 0
1, 67584, Note_on_c, 9, 35, 37
1, 67776, Note_off_c, 9, 35, 0
1, 67776, Note_on_c, 9, 46, 37
1, 67968, Note_off_c, 9, 46, 0
1, 67968, Note_on_c, 9, 40, 37
1, 67968, Note_on_c, 9, 35, 37
1, 67968, Note_on_c, 9, 39, 37
1, 68160, Note_off_c, 9, 39, 0
1, 68160, Note_off_c, 9, 35, 0
1, 68160, Note_off_c, 9, 40, 0
1, 68160, Note_on_c, 9, 46, 37
1, 68352, Note_off_c, 9, 46, 0
1, 68352, Note_on_c, 9, 35, 37
1, 68544, Note_off_c, 9, 35, 0
1, 68544, Note_on_c, 9, 46, 37
1, 68736, Note_off_c, 9, 46, 0
1, 68736, Note_on_c, 9, 35, 37
1, 68736, Note_on_c, 9, 39, 37
1, 68736, Note_on_c, 9, 40, 37
1, 68832, Note_off_c, 9, 35, 0
1, 68928, Note_off_c, 9, 40, 0
1, 68928, Note_off_c, 9, 39, 0
1, 68928, Note_on_c, 9, 35, 37
1, 68928, Note_on_c, 9, 46, 37
1, 69024, Note_off_c, 9, 35, 0
1, 69120, Note_off_c, 9, 46, 0
1, 69120, Note_on_c, 9, 35, 37
1, 69312, Note_off_c, 9, 35, 0
1, 69312, Note_on_c, 9, 46, 37
1, 69504, Note_off_c, 9, 46, 0
1, 69504, Note_on_c, 9, 39, 37
1, 69504, Note_on_c, 9, 40, 37
1, 69504, Note_on_c, 9, 35, 37
1, 69696, Note_off_c, 9, 35, 0
1, 69696, Note_off_c, 9, 40, 0
1, 69696, Note_off_c, 9, 39, 0
1, 69696, Note_on_c, 9, 46, 37
1, 69888, Note_off_c, 9, 46, 0
1, 69888, Note_on_c, 9, 35, 37
1, 70080, Note_off_c, 9, 35, 0
1, 70080, Note_on_c, 9, 46, 37
1, 70272, Note_off_c, 9, 46, 0
1, 70272, Note_on_c, 9, 35, 37
1, 70272, Note_on_c, 9, 40, 37
1, 70272, Note_on_c, 9, 39, 37
1, 70464, Note_off_c, 9, 39, 0
1, 70464, Note_off_c, 9, 40, 0
1, 70464, Note_off_c, 9, 35, 0
1, 70464, Note_on_c, 9, 46, 37
1, 70656, Note_off_c, 9, 46, 0
1, 70656, Note_on_c, 9, 35, 37
1, 70848, Note_off_c, 9, 35, 0
1, 70848, Note_on_c, 9, 46, 37
1, 71040, Note_off_c, 9, 46, 0
1, 71040, Note_on_c, 9, 40, 37
1, 71040, Note_on_c, 9, 39, 37
1, 71040, Note_on_c, 9, 35, 37
1, 71232, Note_off_c, 9, 35, 0
1, 71232, Note_off_c, 9, 39, 0
1, 71232, Note_off_c, 9, 40, 0
1, 71232, Note_on_c, 9, 46, 37
1, 71424, Note_off_c, 9, 46, 0
1, 71424, Note_on_c, 9, 35, 37
1, 71616, Note_off_c, 9, 35, 0
1, 71616, Note_on_c, 9, 46, 37
1, 71808, Note_off_c, 9, 46, 0
1, 71808, Note_on_c, 9, 35, 37
1, 71808, Note_on_c, 9, 40, 37
1, 71808, Note_on_c, 9, 39, 37
1, 71904, Note_off_c, 9, 35, 0
1, 71904, Note_on_c, 9, 35, 37
1, 72000, Note_off_c, 9, 35, 0
1, 72000, Note_off_c, 9, 39, 0
1, 72000, Note_off_c, 9, 40, 0
1, 72000, Note_on_c, 9, 35, 37
1, 72000, Note_on_c, 9, 46, 37
1, 72096, Note_off_c, 9, 35, 0
1, 72096, Note_on_c, 9, 35, 37
1, 72192, Note_off_c, 9, 35, 0
1, 72192, Note_off_c, 9, 46, 0
1, 72192, Note_on_c, 9, 49, 37
1, 72192, Note_on_c, 9, 39, 37
1, 72192, Note_on_c, 9, 35, 37
1, 72288, Note_off_c, 9, 49, 0
1, 72384, Note_off_c, 9, 35, 0
1, 72384, Note_off_c, 9, 39, 0
1, 72384, Note_on_c, 9, 46, 37
1, 72576, Note_off_c, 9, 46, 0
1, 72576, Note_on_c, 9, 39, 37
1, 72576, Note_on_c, 9, 35, 37
1, 72768, Note_off_c, 9, 35, 0
1, 72768, Note_off_c, 9, 39, 0
1, 72768, Note_on_c, 9, 46, 37
1, 72960, Note_off_c, 9, 46, 0
1, 72960, Note_on_c, 9, 39, 37
1, 72960, Note_on_c, 9, 35, 37
1, 73152, Note_off_c, 9, 35, 0
1, 73152, Note_off_c, 9, 39, 0
1, 73152, Note_on_c, 9, 46, 37
1, 73344, Note_off_c, 9, 46, 0
1, 73344, Note_on_c, 9, 35, 37
1, 73344, Note_on_c, 9, 39, 37
1, 73440, Note_off_c, 9, 35, 0
1, 73440, Note_on_c, 9, 35, 37
1, 73536, Note_off_c, 9, 35, 0
1, 73536, Note_off_c, 9, 39, 0
1, 73536, Note_on_c, 9, 35, 37
1, 73536, Note_on_c, 9, 46, 37
1, 73632, Note_off_c, 9, 35, 0
1, 73632, Note_on_c, 9, 35, 37
1, 73728, Note_off_c, 9, 35, 0
1, 73728, Note_off_c, 9, 46, 0
1, 73728, Note_on_c, 9, 39, 37
1, 73728, Note_on_c, 9, 35, 37
1, 73920, Note_off_c, 9, 35, 0
1, 73920, Note_off_c, 9, 39, 0
1, 73920, Note_on_c, 9, 46, 37
1, 74112, Note_off_c, 9, 46, 0
1, 74112, Note_on_c, 9, 39, 37
1, 74112, Note_on_c, 9, 35, 37
1, 74304, Note_off_c, 9, 35, 0
1, 74304, Note_off_c, 9, 39, 0
1, 74304, Note_on_c, 9, 46, 37
1, 74496, Note_off_c, 9, 46, 0
1, 74496, Note_on_c, 9, 39, 37
1, 74496, Note_on_c, 9, 35, 37
1, 74688, Note_off_c, 9, 35, 0
1, 74688, Note_off_c, 9, 39, 0
1, 74688, Note_on_c, 9, 46, 37
1, 74880, Note_off_c, 9, 46, 0
1, 74880, Note_on_c, 9, 35, 37
1, 74880, Note_on_c, 9, 39, 37
1, 75072, Note_off_c, 9, 39, 0
1, 75072, Note_off_c, 9, 35, 0
1, 75072, Note_on_c, 9, 46, 37
1, 75264, Note_off_c, 9, 46, 0
1, 75264, Note_on_c, 9, 39, 37
1, 75264, Note_on_c, 9, 35, 37
1, 75456, Note_off_c, 9, 35, 0
1, 75456, Note_off_c, 9, 39, 0
1, 75456, Note_on_c, 9, 46, 37
1, 75648, Note_off_c, 9, 46, 0
1, 75648, Note_on_c, 9, 39, 37
1, 75648, Note_on_c, 9, 35, 37
1, 75840, Note_off_c, 9, 35, 0
1, 75840, Note_off_c, 9, 39, 0
1, 75840, Note_on_c, 9, 46, 37
1, 76032, Note_off_c, 9, 46, 0
1, 76032, Note_on_c, 9, 35, 37
1, 76032, Note_on_c, 9, 39, 37
1, 76224, Note_off_c, 9, 39, 0
1, 76224, Note_off_c, 9, 35, 0
1, 76224, Note_on_c, 9, 46, 37
1, 76416, Note_off_c, 9, 46, 0
1, 76416, Note_on_c, 9, 35, 37
1, 76416, Note_on_c, 9, 39, 37
1, 76512, Note_off_c, 9, 35, 0
1, 76512, Note_on_c, 9, 35, 37
1, 76608, Note_off_c, 9, 35, 0
1, 76608, Note_off_c, 9, 39, 0
1, 76608, Note_on_c, 9, 35, 37
1, 76608, Note_on_c, 9, 46, 37
1, 76704, Note_off_c, 9, 35, 0
1, 76704, Note_on_c, 9, 35, 37
1, 76800, Note_off_c, 9, 35, 0
1, 76800, Note_off_c, 9, 46, 0
1, 76800, Note_on_c, 9, 35, 37
1, 76800, Note_on_c, 9, 39, 37
1, 76896, Note_off_c, 9, 35, 0
1, 76992, Note_off_c, 9, 39, 0
1, 76992, Note_on_c, 9, 46, 37
1, 77184, Note_off_c, 9, 46, 0
1, 77184, Note_on_c, 9, 35, 37
1, 77184, Note_on_c, 9, 39, 37
1, 77376, Note_off_c, 9, 39, 0
1, 77376, Note_off_c, 9, 35, 0
1, 77376, Note_on_c, 9, 46, 37
1, 77568, Note_off_c, 9, 46, 0
1, 77568, Note_on_c, 9, 39, 37
1, 77568, Note_on_c, 9, 35, 37
1, 77760, Note_off_c, 9, 35, 0
1, 77760, Note_off_c, 9, 39, 0
1, 77760, Note_on_c, 9, 46, 37
1, 77952, Note_off_c, 9, 46, 0
1, 77952, Note_on_c, 9, 39, 37
1, 77952, Note_on_c, 9, 35, 37
1, 78144, Note_off_c, 9, 35, 0
1, 78144, Note_off_c, 9, 39, 0
1, 78144, Note_on_c, 9, 46, 37
1, 78336, Note_off_c, 9, 46, 0
1, 78336, Note_on_c, 9, 49, 37
1, 78336, Note_on_c, 9, 39, 37
1, 78336, Note_on_c, 9, 35, 37
1, 78432, Note_off_c, 9, 49, 0
1, 78528, Note_off_c, 9, 35, 0
1, 78528, Note_off_c, 9, 39, 0
1, 78528, Note_on_c, 9, 46, 37
1, 78720, Note_off_c, 9, 46, 0
1, 78720, Note_on_c, 9, 35, 37
1, 78720, Note_on_c, 9, 39, 37
1, 78912, Note_off_c, 9, 39, 0
1, 78912, Note_off_c, 9, 35, 0
1, 78912, Note_on_c, 9, 46, 37
1, 79104, Note_off_c, 9, 46, 0
1, 79104, Note_on_c, 9, 39, 37
1, 79104, Note_on_c, 9, 35, 37
1, 79296, Note_off_c, 9, 35, 0
1, 79296, Note_off_c, 9, 39, 0
1, 79296, Note_on_c, 9, 46, 37
1, 79488, Note_off_c, 9, 46, 0
1, 79488, Note_on_c, 9, 35, 37
1, 79488, Note_on_c, 9, 39, 37
1, 79584, Note_off_c, 9, 35, 0
1, 79584, Note_on_c, 9, 35, 37
1, 79680, Note_off_c, 9, 35, 0
1, 79680, Note_off_c, 9, 39, 0
1, 79680, Note_on_c, 9, 35, 37
1, 79680, Note_on_c, 9, 46, 37
1, 79776, Note_off_c, 9, 35, 0
1, 79776, Note_on_c, 9, 35, 37
1, 79872, Note_off_c, 9, 35, 0
1, 79872, Note_off_c, 9, 46, 0
1, 79872, Note_on_c, 9, 39, 37
1, 79872, Note_on_c, 9, 35, 37
1, 80064, Note_off_c, 9, 35, 0
1, 80064, Note_off_c, 9, 39, 0
1, 80064, Note_on_c, 9, 46, 37
1, 80256, Note_off_c, 9, 46, 0
1, 80256, Note_on_c, 9, 39, 37
1, 80256, Note_on_c, 9, 35, 37
1, 80448, Note_off_c, 9, 35, 0
1, 80448, Note_off_c, 9, 39, 0
1, 80448, Note_on_c, 9, 46, 37
1, 80640, Note_off_c, 9, 46, 0
1, 80640, Note_on_c, 9, 39, 37
1, 80640, Note_on_c, 9, 35, 37
1, 80832, Note_off_c, 9, 35, 0
1, 80832, Note_off_c, 9, 39, 0
1, 80832, Note_on_c, 9, 46, 37
1, 81024, Note_off_c, 9, 46, 0
1, 81024, Note_on_c, 9, 39, 37
1, 81024, Note_on_c, 9, 35, 37
1, 81216, Note_off_c, 9, 35, 0
1, 81216, Note_off_c, 9, 39, 0
1, 81216, Note_on_c, 9, 46, 37
1, 81408, Note_off_c, 9, 46, 0
1, 81408, Note_on_c, 9, 39, 37
1, 81408, Note_on_c, 9, 35, 37
1, 81600, Note_off_c, 9, 35, 0
1, 81600, Note_off_c, 9, 39, 0
1, 81600, Note_on_c, 9, 46, 37
1, 81792, Note_off_c, 9, 46, 0
1, 81792, Note_on_c, 9, 35, 37
1, 81792, Note_on_c, 9, 39, 37
1, 81984, Note_off_c, 9, 39, 0
1, 81984, Note_off_c, 9, 35, 0
1, 81984, Note_on_c, 9, 46, 37
1, 82176, Note_off_c, 9, 46, 0
1, 82176, Note_on_c, 9, 39, 37
1, 82176, Note_on_c, 9, 35, 37
1, 82368, Note_off_c, 9, 35, 0
1, 82368, Note_off_c, 9, 39, 0
1, 82368, Note_on_c, 9, 46, 37
1, 82560, Note_off_c, 9, 46, 0
1, 82560, Note_on_c, 9, 35, 37
1, 82560, Note_on_c, 9, 39, 37
1, 82656, Note_off_c, 9, 35, 0
1, 82656, Note_on_c, 9, 35, 37
1, 82752, Note_off_c, 9, 35, 0
1, 82752, Note_off_c, 9, 39, 0
1, 82752, Note_on_c, 9, 35, 37
1, 82752, Note_on_c, 9, 46, 37
1, 82848, Note_off_c, 9, 35, 0
1, 82848, Note_on_c, 9, 35, 37
1, 82944, Note_off_c, 9, 35, 0
1, 82944, Note_off_c, 9, 46, 0
1, 82944, Note_on_c, 9, 39, 37
1, 82944, Note_on_c, 9, 35, 37
1, 83136, Note_off_c, 9, 35, 0
1, 83136, Note_off_c, 9, 39, 0
1, 83136, Note_on_c, 9, 46, 37
1, 83328, Note_off_c, 9, 46, 0
1, 83328, Note_on_c, 9, 39, 37
1, 83328, Note_on_c, 9, 35, 37
1, 83520, Note_off_c, 9, 35, 0
1, 83520, Note_off_c, 9, 39, 0
1, 83520, Note_on_c, 9, 46, 37
1, 83712, Note_off_c, 9, 46, 0
1, 83712, Note_on_c, 9, 39, 37
1, 83712, Note_on_c, 9, 35, 37
1, 83904, Note_off_c, 9, 35, 0
1, 83904, Note_off_c, 9, 39, 0
1, 83904, Note_on_c, 9, 46, 37
1, 84096, Note_off_c, 9, 46, 0
1, 84096, Note_on_c, 9, 39, 37
1, 84096, Note_on_c, 9, 35, 37
1, 84288, Note_off_c, 9, 35, 0
1, 84288, Note_off_c, 9, 39, 0
1, 84288, Note_on_c, 9, 46, 37
1, 84480, Note_off_c, 9, 46, 0
1, 84480, End_track
2, 0, Start_track
2, 0, Title_t, "Bass Guitar (Classic)"
2, 0, Program_c, 0, 32
2, 1536, Note_on_c, 0, 36, 63
2, 1728, Note_off_c, 0, 36, 0
2, 1728, Note_on_c, 0, 48, 63
2, 1920, Note_off_c, 0, 48, 0
2, 1920, Note_on_c, 0, 36, 63
2, 2112, Note_off_c, 0, 36, 0
2, 2112, Note_on_c, 0, 48, 63
2, 2304, Note_off_c, 0, 48, 0
2, 2304, Note_on_c, 0, 36, 63
2, 2496, Note_off_c, 0, 36, 0
2, 2496, Note_on_c, 0, 48, 63
2, 2688, Note_off_c, 0, 48, 0
2, 2688, Note_on_c, 0, 36, 63
2, 2880, Note_off_c, 0, 36, 0
2, 2880, Note_on_c, 0, 48, 63
2, 3072, Note_off_c, 0, 48, 0
2, 3072, Note_on_c, 0, 36, 63
2, 3264, Note_off_c, 0, 36, 0
2, 3264, Note_on_c, 0, 48, 63
2, 3456, Note_off_c, 0, 48, 0
2, 3456, Note_on_c, 0, 36, 63
2, 3648, Note_off_c, 0, 36, 0
2, 3648, Note_on_c, 0, 48, 63
2, 3840, Note_off_c, 0, 48, 0
2, 3840, Note_on_c, 0, 36, 63
2, 4032, Note_off_c, 0, 36, 0
2, 4032, Note_on_c, 0, 48, 63
2, 4224, Note_off_c, 0, 48, 0
2, 4224, Note_on_c, 0, 36, 63
2, 4416, Note_off_c, 0, 36, 0
2, 4416, Note_on_c, 0, 48, 63
2, 4608, Note_off_c, 0, 48, 0
2, 4608, Note_on_c, 0, 36, 63
2, 4800, Note_off_c, 0, 36, 0
2, 4800, Note_on_c, 0, 48, 63
2, 4992, Note_off_c, 0, 48, 0
2, 4992, Note_on_c, 0, 36, 63
2, 5184, Note_off_c, 0, 36, 0
2, 5184, Note_on_c, 0, 48, 63
2, 5376, Note_off_c, 0, 48, 0
2, 5376, Note_on_c, 0, 36, 63
2, 5568, Note_off_c, 0, 36, 0
2, 5568, Note_on_c, 0, 48, 63
2, 5760, Note_off_c, 0, 48, 0
2, 5760, Note_on_c, 0, 36, 63
2, 5952, Note_off_c, 0, 36, 0
2, 5952, Note_on_c, 0, 48, 63
2, 6144, Note_off_c, 0, 48, 0
2, 6144, Note_on_c, 0, 36, 63
2, 6336, Note_off_c, 0, 36, 0
2, 6336, Note_on_c, 0, 48, 63
2, 6528, Note_off_c, 0, 48, 0
2, 6528, Note_on_c, 0, 36, 63
2, 6720, Note_off_c, 0, 36, 0
2, 6720, Note_on_c, 0, 48, 63
2, 6912, Note_off_c, 0, 48, 0
2, 6912, Note_on_c, 0, 36, 63
2, 7104, Note_off_c, 0, 36, 0
2, 7104, Note_on_c, 0, 48, 63
2, 7296, Note_off_c, 0, 48, 0
2, 7296, Note_on_c, 0, 36, 63
2, 7488, Note_off_c, 0, 36, 0
2, 7488, Note_on_c, 0, 48, 63
2, 7680, Note_off_c, 0, 48, 0
2, 7680, Note_on_c, 0, 29, 63
2, 7872, Note_off_c, 0, 29, 0
2, 7872, Note_on_c, 0, 41, 63
2, 8064, Note_off_c, 0, 41, 0
2, 8064, Note_on_c, 0, 29, 63
2, 8256, Note_off_c, 0, 29, 0
2, 8256, Note_on_c, 0, 41, 63
2, 8448, Note_off_c, 0, 41, 0
2, 8448, Note_on_c, 0, 29, 63
2, 8640, Note_off_c, 0, 29, 0
2, 8640, Note_on_c, 0, 41, 63
2, 8832, Note_off_c, 0, 41, 0
2, 8832, Note_on_c, 0, 29, 63
2, 9216, Note_off_c, 0, 29, 0
2, 10752, Note_on_c, 0, 36, 63
2, 10944, Note_off_c, 0, 36, 0
2, 10944, Note_on_c, 0, 48, 63
2, 11136, Note_off_c, 0, 48, 0
2, 11136, Note_on_c, 0, 36, 63
2, 11328, Note_off_c, 0, 36, 0
2, 11328, Note_on_c, 0, 48, 63
2, 11520, Note_off_c, 0, 48, 0
2, 11520, Note_on_c, 0, 36, 63
2, 11712, Note_off_c, 0, 36, 0
2, 11712, Note_on_c, 0, 48, 63
2, 11904, Note_off_c, 0, 48, 0
2, 11904, Note_on_c, 0, 36, 63
2, 12096, Note_off_c, 0, 36, 0
2, 12096, Note_on_c, 0, 48, 63
2, 12288, Note_off_c, 0, 48, 0
2, 12288, Note_on_c, 0, 36, 63
2, 12480, Note_off_c, 0, 36, 0
2, 12480, Note_on_c, 0, 48, 63
2, 12672, Note_off_c, 0, 48, 0
2, 12672, Note_on_c, 0, 36, 63
2, 12864, Note_off_c, 0, 36, 0
2, 12864, Note_on_c, 0, 48, 63
2, 13056, Note_off_c, 0, 48, 0
2, 13056, Note_on_c, 0, 36, 63
2, 13248, Note_off_c, 0, 36, 0
2, 13248, Note_on_c, 0, 48, 63
2, 13440, Note_off_c, 0, 48, 0
2, 13440, Note_on_c, 0, 36, 63
2, 13632, Note_off_c, 0, 36, 0
2, 13632, Note_on_c, 0, 48, 63
2, 13824, Note_off_c, 0, 48, 0
2, 13824, Note_on_c, 0, 36, 63
2, 14016, Note_off_c, 0, 36, 0
2, 14016, Note_on_c, 0, 48, 63
2, 14208, Note_off_c, 0, 48, 0
2, 14208, Note_on_c, 0, 36, 63
2, 14400, Note_off_c, 0, 36, 0
2, 14400, Note_on_c, 0, 48, 63
2, 14592, Note_off_c, 0, 48, 0
2, 14592, Note_on_c, 0, 36, 63
2, 14784, Note_off_c, 0, 36, 0
2, 14784, Note_on_c, 0, 48, 63
2, 14976, Note_off_c, 0, 48, 0
2, 14976, Note_on_c, 0, 36, 63
2, 15168, Note_off_c, 0, 36, 0
2, 15168, Note_on_c, 0, 48, 63
2, 15360, Note_off_c, 0, 48, 0
2, 15360, Note_on_c, 0, 29, 63
2, 15552, Note_off_c, 0, 29, 0
2, 15552, Note_on_c, 0, 41, 63
2, 15744, Note_off_c, 0, 41, 0
2, 15744, Note_on_c, 0, 29, 63
2, 15936, Note_off_c, 0, 29, 0
2, 15936, Note_on_c, 0, 41, 63
2, 16128, Note_off_c, 0, 41, 0
2, 16128, Note_on_c, 0, 29, 63
2, 16320, Note_off_c, 0, 29, 0
2, 16320, Note_on_c, 0, 41, 63
2, 16512, Note_off_c, 0, 41, 0
2, 16512, Note_on_c, 0, 29, 63
2, 16896, Note_off_c, 0, 29, 0
2, 18432, Note_on_c, 0, 36, 63
2, 18624, Note_off_c, 0, 36, 0
2, 18624, Note_on_c, 0, 48, 63
2, 18816, Note_off_c, 0, 48, 0
2, 18816, Note_on_c, 0, 36, 63
2, 19008, Note_off_c, 0, 36, 0
2, 19008, Note_on_c, 0, 48, 63
2, 19200, Note_off_c, 0, 48, 0
2, 19200, Note_on_c, 0, 36, 63
2, 19392, Note_off_c, 0, 36, 0
2, 19392, Note_on_c, 0, 48, 63
2, 19584, Note_off_c, 0, 48, 0
2, 19584, Note_on_c, 0, 36, 63
2, 19776, Note_off_c, 0, 36, 0
2, 19776, Note_on_c, 0, 48, 63
2, 19968, Note_off_c, 0, 48, 0
2, 19968, Note_on_c, 0, 36, 63
2, 20160, Note_off_c, 0, 36, 0
2, 20160, Note_on_c, 0, 48, 63
2, 20352, Note_off_c, 0, 48, 0
2, 20352, Note_on_c, 0, 36, 63
2, 20544, Note_off_c, 0, 36, 0
2, 20544, Note_on_c, 0, 48, 63
2, 20736, Note_off_c, 0, 48, 0
2, 20736, Note_on_c, 0, 36, 63
2, 20928, Note_off_c, 0, 36, 0
2, 20928, Note_on_c, 0, 48, 63
2, 21120, Note_off_c, 0, 48, 0
2, 21120, Note_on_c, 0, 36, 63
2, 21312, Note_off_c, 0, 36, 0
2, 21312, Note_on_c, 0, 48, 63
2, 21504, Note_off_c, 0, 48, 0
2, 21504, Note_on_c, 0, 29, 63
2, 21696, Note_off_c, 0, 29, 0
2, 21696, Note_on_c, 0, 41, 63
2, 21888, Note_off_c, 0, 41, 0
2, 21888, Note_on_c, 0, 29, 63
2, 22080, Note_off_c, 0, 29, 0
2, 22080, Note_on_c, 0, 41, 63
2, 22272, Note_off_c, 0, 41, 0
2, 22272, Note_on_c, 0, 29, 63
2, 22464, Note_off_c, 0, 29, 0
2, 22464, Note_on_c, 0, 41, 63
2, 22656, Note_off_c, 0, 41, 0
2, 22656, Note_on_c, 0, 29, 63
2, 22848, Note_off_c, 0, 29, 0
2, 22848, Note_on_c, 0, 41, 63
2, 23040, Note_off_c, 0, 41, 0
2, 23040, Note_on_c, 0, 36, 63
2, 23232, Note_off_c, 0, 36, 0
2, 23232, Note_on_c, 0, 48, 63
2, 23424, Note_off_c, 0, 48, 0
2, 23424, Note_on_c, 0, 36, 63
2, 23616, Note_off_c, 0, 36, 0
2, 23616, Note_on_c, 0, 48, 63
2, 23808, Note_off_c, 0, 48, 0
2, 23808, Note_on_c, 0, 36, 63
2, 24000, Note_off_c, 0, 36, 0
2, 24000, Note_on_c, 0, 48, 63
2, 24192, Note_off_c, 0, 48, 0
2, 24192, Note_on_c, 0, 36, 63
2, 24384, Note_off_c, 0, 36, 0
2, 24384, Note_on_c, 0, 48, 63
2, 24576, Note_off_c, 0, 48, 0
2, 24576, Note_on_c, 0, 36, 63
2, 24768, Note_off_c, 0, 36, 0
2, 24768, Note_on_c, 0, 48, 63
2, 24960, Note_off_c, 0, 48, 0
2, 24960, Note_on_c, 0, 36, 63
2, 25152, Note_off_c, 0, 36, 0
2, 25152, Note_on_c, 0, 48, 63
2, 25344, Note_off_c, 0, 48, 0
2, 25344, Note_on_c, 0, 36, 63
2, 25536, Note_off_c, 0, 36, 0
2, 25536, Note_on_c, 0, 48, 63
2, 25728, Note_off_c, 0, 48, 0
2, 25728, Note_on_c, 0, 36, 63
2, 25920, Note_off_c, 0, 36, 0
2, 25920, Note_on_c, 0, 48, 63
2, 26112, Note_off_c, 0, 48, 0
2, 26112, Note_on_c, 0, 36, 63
2, 26304, Note_off_c, 0, 36, 0
2, 26304, Note_on_c, 0, 48, 63
2, 26496, Note_off_c, 0, 48, 0
2, 26496, Note_on_c, 0, 36, 63
2, 26688, Note_off_c, 0, 36, 0
2, 26688, Note_on_c, 0, 48, 63
2, 26880, Note_off_c, 0, 48, 0
2, 26880, Note_on_c, 0, 36, 63
2, 27072, Note_off_c, 0, 36, 0
2, 27072, Note_on_c, 0, 48, 63
2, 27264, Note_off_c, 0, 48, 0
2, 27264, Note_on_c, 0, 36, 63
2, 27456, Note_off_c, 0, 36, 0
2, 27456, Note_on_c, 0, 48, 63
2, 27648, Note_off_c, 0, 48, 0
2, 27648, Note_on_c, 0, 29, 63
2, 27840, Note_off_c, 0, 29, 0
2, 27840, Note_on_c, 0, 41, 63
2, 28032, Note_off_c, 0, 41, 0
2, 28032, Note_on_c, 0, 29, 63
2, 28224, Note_off_c, 0, 29, 0
2, 28224, Note_on_c, 0, 41, 63
2, 28416, Note_off_c, 0, 41, 0
2, 28416, Note_on_c, 0, 29, 63
2, 28608, Note_off_c, 0, 29, 0
2, 28608, Note_on_c, 0, 41, 63
2, 28800, Note_off_c, 0, 41, 0
2, 28800, Note_on_c, 0, 29, 63
2, 28992, Note_off_c, 0, 29, 0
2, 28992, Note_on_c, 0, 41, 63
2, 29184, Note_off_c, 0, 41, 0
2, 29184, Note_on_c, 0, 36, 63
2, 29376, Note_off_c, 0, 36, 0
2, 29376, Note_on_c, 0, 48, 63
2, 29568, Note_off_c, 0, 48, 0
2, 29568, Note_on_c, 0, 36, 63
2, 29760, Note_off_c, 0, 36, 0
2, 29760, Note_on_c, 0, 48, 63
2, 29952, Note_off_c, 0, 48, 0
2, 29952, Note_on_c, 0, 36, 63
2, 30144, Note_off_c, 0, 36, 0
2, 30144, Note_on_c, 0, 48, 63
2, 30336, Note_off_c, 0, 48, 0
2, 30336, Note_on_c, 0, 36, 63
2, 30528, Note_off_c, 0, 36, 0
2, 30528, Note_on_c, 0, 48, 63
2, 30720, Note_off_c, 0, 48, 0
2, 36864, Note_on_c, 0, 36, 63
2, 37056, Note_off_c, 0, 36, 0
2, 37056, Note_on_c, 0, 48, 63
2, 37248, Note_off_c, 0, 48, 0
2, 37248, Note_on_c, 0, 36, 63
2, 37440, Note_off_c, 0, 36, 0
2, 37440, Note_on_c, 0, 48, 63
2, 37632, Note_off_c, 0, 48, 0
2, 37632, Note_on_c, 0, 36, 63
2, 37824, Note_off_c, 0, 36, 0
2, 37824, Note_on_c, 0, 48, 63
2, 38016, Note_off_c, 0, 48, 0
2, 38016, Note_on_c, 0, 36, 63
2, 38208, Note_off_c, 0, 36, 0
2, 38208, Note_on_c, 0, 48, 63
2, 38400, Note_off_c, 0, 48, 0
2, 38400, Note_on_c, 0, 36, 63
2, 38592, Note_off_c, 0, 36, 0
2, 38592, Note_on_c, 0, 48, 63
2, 38784, Note_off_c, 0, 48, 0
2, 38784, Note_on_c, 0, 36, 63
2, 38976, Note_off_c, 0, 36, 0
2, 38976, Note_on_c, 0, 48, 63
2, 39168, Note_off_c, 0, 48, 0
2, 39168, Note_on_c, 0, 36, 63
2, 39360, Note_off_c, 0, 36, 0
2, 39360, Note_on_c, 0, 48, 63
2, 39552, Note_off_c, 0, 48, 0
2, 39552, Note_on_c, 0, 36, 63
2, 39744, Note_off_c, 0, 36, 0
2, 39744, Note_on_c, 0, 48, 63
2, 39936, Note_off_c, 0, 48, 0
2, 39936, Note_on_c, 0, 29, 63
2, 40128, Note_off_c, 0, 29, 0
2, 40128, Note_on_c, 0, 41, 63
2, 40320, Note_off_c, 0, 41, 0
2, 40320, Note_on_c, 0, 29, 63
2, 40512, Note_off_c, 0, 29, 0
2, 40512, Note_on_c, 0, 41, 63
2, 40704, Note_off_c, 0, 41, 0
2, 40704, Note_on_c, 0, 29, 63
2, 40896, Note_off_c, 0, 29, 0
2, 40896, Note_on_c, 0, 41, 63
2, 41088, Note_off_c, 0, 41, 0
2, 41088, Note_on_c, 0, 29, 63
2, 41280, Note_off_c, 0, 29, 0
2, 41280, Note_on_c, 0, 41, 63
2, 41472, Note_off_c, 0, 41, 0
2, 41472, Note_on_c, 0, 29, 63
2, 41664, Note_off_c, 0, 29, 0
2, 41664, Note_on_c, 0, 41, 63
2, 41856, Note_off_c, 0, 41, 0
2, 41856, Note_on_c, 0, 29, 63
2, 42048, Note_off_c, 0, 29, 0
2, 42048, Note_on_c, 0, 41, 63
2, 42240, Note_off_c, 0, 41, 0
2, 42240, Note_on_c, 0, 29, 63
2, 42432, Note_off_c, 0, 29, 0
2, 42432, Note_on_c, 0, 41, 63
2, 42624, Note_off_c, 0, 41, 0
2, 42624, Note_on_c, 0, 29, 63
2, 42816, Note_off_c, 0, 29, 0
2, 42816, Note_on_c, 0, 41, 63
2, 43008, Note_off_c, 0, 41, 0
2, 43008, Note_on_c, 0, 36, 63
2, 43200, Note_off_c, 0, 36, 0
2, 43200, Note_on_c, 0, 48, 63
2, 43392, Note_off_c, 0, 48, 0
2, 43392, Note_on_c, 0, 36, 63
2, 43584, Note_off_c, 0, 36, 0
2, 43584, Note_on_c, 0, 48, 63
2, 43776, Note_off_c, 0, 48, 0
2, 43776, Note_on_c, 0, 36, 63
2, 43968, Note_off_c, 0, 36, 0
2, 43968, Note_on_c, 0, 48, 63
2, 44160, Note_off_c, 0, 48, 0
2, 44160, Note_on_c, 0, 36, 63
2, 44352, Note_off_c, 0, 36, 0
2, 44352, Note_on_c, 0, 48, 63
2, 44544, Note_off_c, 0, 48, 0
2, 44544, Note_on_c, 0, 36, 63
2, 44736, Note_off_c, 0, 36, 0
2, 44736, Note_on_c, 0, 48, 63
2, 44928, Note_off_c, 0, 48, 0
2, 44928, Note_on_c, 0, 36, 63
2, 45120, Note_off_c, 0, 36, 0
2, 45120, Note_on_c, 0, 48, 63
2, 45312, Note_off_c, 0, 48, 0
2, 45312, Note_on_c, 0, 36, 63
2, 45504, Note_off_c, 0, 36, 0
2, 45504, Note_on_c, 0, 48, 63
2, 45696, Note_off_c, 0, 48, 0
2, 45696, Note_on_c, 0, 36, 63
2, 45888, Note_off_c, 0, 36, 0
2, 45888, Note_on_c, 0, 48, 63
2, 46080, Note_off_c, 0, 48, 0
2, 46080, Note_on_c, 0, 36, 63
2, 46272, Note_off_c, 0, 36, 0
2, 46272, Note_on_c, 0, 48, 63
2, 46464, Note_off_c, 0, 48, 0
2, 46464, Note_on_c, 0, 36, 63
2, 46656, Note_off_c, 0, 36, 0
2, 46656, Note_on_c, 0, 48, 63
2, 46848, Note_off_c, 0, 48, 0
2, 46848, Note_on_c, 0, 36, 63
2, 47040, Note_off_c, 0, 36, 0
2, 47040, Note_on_c, 0, 48, 63
2, 47232, Note_off_c, 0, 48, 0
2, 47232, Note_on_c, 0, 36, 63
2, 47424, Note_off_c, 0, 36, 0
2, 47424, Note_on_c, 0, 48, 63
2, 47616, Note_off_c, 0, 48, 0
2, 47616, Note_on_c, 0, 36, 63
2, 47808, Note_off_c, 0, 36, 0
2, 47808, Note_on_c, 0, 48, 63
2, 48000, Note_off_c, 0, 48, 0
2, 48000, Note_on_c, 0, 36, 63
2, 48192, Note_off_c, 0, 36, 0
2, 48192, Note_on_c, 0, 48, 63
2, 48384, Note_off_c, 0, 48, 0
2, 48384, Note_on_c, 0, 36, 63
2, 48576, Note_off_c, 0, 36, 0
2, 48576, Note_on_c, 0, 48, 63
2, 48768, Note_off_c, 0, 48, 0
2, 48768, Note_on_c, 0, 36, 63
2, 48960, Note_off_c, 0, 36, 0
2, 48960, Note_on_c, 0, 48, 63
2, 49152, Note_off_c, 0, 48, 0
2, 49152, Note_on_c, 0, 29, 63
2, 49344, Note_off_c, 0, 29, 0
2, 49344, Note_on_c, 0, 41, 63
2, 49536, Note_off_c, 0, 41, 0
2, 49536, Note_on_c, 0, 29, 63
2, 49728, Note_off_c, 0, 29, 0
2, 49728, Note_on_c, 0, 41, 63
2, 49920, Note_off_c, 0, 41, 0
2, 49920, Note_on_c, 0, 29, 63
2, 50112, Note_off_c, 0, 29, 0
2, 50112, Note_on_c, 0, 41, 63
2, 50304, Note_off_c, 0, 41, 0
2, 50304, Note_on_c, 0, 29, 63
2, 50688, Note_off_c, 0, 29, 0
2, 52224, Note_on_c, 0, 36, 63
2, 52416, Note_off_c, 0, 36, 0
2, 52416, Note_on_c, 0, 48, 63
2, 52608, Note_off_c, 0, 48, 0
2, 52608, Note_on_c, 0, 36, 63
2, 52800, Note_off_c, 0, 36, 0
2, 52800, Note_on_c, 0, 48, 63
2, 52992, Note_off_c, 0, 48, 0
2, 52992, Note_on_c, 0, 36, 63
2, 53184, Note_off_c, 0, 36, 0
2, 53184, Note_on_c, 0, 48, 63
2, 53376, Note_off_c, 0, 48, 0
2, 53376, Note_on_c, 0, 36, 63
2, 53568, Note_off_c, 0, 36, 0
2, 53568, Note_on_c, 0, 48, 63
2, 53760, Note_off_c, 0, 48, 0
2, 53760, Note_on_c, 0, 36, 63
2, 53952, Note_off_c, 0, 36, 0
2, 53952, Note_on_c, 0, 48, 63
2, 54144, Note_off_c, 0, 48, 0
2, 54144, Note_on_c, 0, 36, 63
2, 54336, Note_off_c, 0, 36, 0
2, 54336, Note_on_c, 0, 48, 63
2, 54528, Note_off_c, 0, 48, 0
2, 54528, Note_on_c, 0, 36, 63
2, 54720, Note_off_c, 0, 36, 0
2, 54720, Note_on_c, 0, 48, 63
2, 54912, Note_off_c, 0, 48, 0
2, 54912, Note_on_c, 0, 36, 63
2, 55104, Note_off_c, 0, 36, 0
2, 55104, Note_on_c, 0, 48, 63
2, 55296, Note_off_c, 0, 48, 0
2, 55296, Note_on_c, 0, 36, 63
2, 55488, Note_off_c, 0, 36, 0
2, 55488, Note_on_c, 0, 48, 63
2, 55680, Note_off_c, 0, 48, 0
2, 55680, Note_on_c, 0, 36, 63
2, 55872, Note_off_c, 0, 36, 0
2, 55872, Note_on_c, 0, 48, 63
2, 56064, Note_off_c, 0, 48, 0
2, 56064, Note_on_c, 0, 36, 63
2, 56256, Note_off_c, 0, 36, 0
2, 56256, Note_on_c, 0, 48, 63
2, 56448, Note_off_c, 0, 48, 0
2, 56448, Note_on_c, 0, 36, 63
2, 56640, Note_off_c, 0, 36, 0
2, 56640, Note_on_c, 0, 48, 63
2, 56832, Note_off_c, 0, 48, 0
2, 56832, Note_on_c, 0, 29, 63
2, 57024, Note_off_c, 0, 29, 0
2, 57024, Note_on_c, 0, 41, 63
2, 57216, Note_off_c, 0, 41, 0
2, 57216, Note_on_c, 0, 29, 63
2, 57408, Note_off_c, 0, 29, 0
2, 57408, Note_on_c, 0, 41, 63
2, 57600, Note_off_c, 0, 41, 0
2, 57600, Note_on_c, 0, 29, 63
2, 57792, Note_off_c, 0, 29, 0
2, 57792, Note_on_c, 0, 41, 63
2, 57984, Note_off_c, 0, 41, 0
2, 57984, Note_on_c, 0, 29, 63
2, 58368, Note_off_c, 0, 29, 0
2, 59904, Note_on_c, 0, 36, 63
2, 60096, Note_off_c, 0, 36, 0
2, 60096, Note_on_c, 0, 48, 63
2, 60288, Note_off_c, 0, 48, 0
2, 60288, Note_on_c, 0, 36, 63
2, 60480, Note_off_c, 0, 36, 0
2, 60480, Note_on_c, 0, 48, 63
2, 60672, Note_off_c, 0, 48, 0
2, 60672, Note_on_c, 0, 36, 63
2, 60864, Note_off_c, 0, 36, 0
2, 60864, Note_on_c, 0, 48, 63
2, 61056, Note_off_c, 0, 48, 0
2, 61056, Note_on_c, 0, 36, 63
2, 61248, Note_off_c, 0, 36, 0
2, 61248, Note_on_c, 0, 48, 63
2, 61440, Note_off_c, 0, 48, 0
2, 61440, Note_on_c, 0, 36, 63
2, 61632, Note_off_c, 0, 36, 0
2, 61632, Note_on_c, 0, 48, 63
2, 61824, Note_off_c, 0, 48, 0
2, 61824, Note_on_c, 0, 36, 63
2, 62016, Note_off_c, 0, 36, 0
2, 62016, Note_on_c, 0, 48, 63
2, 62208, Note_off_c, 0, 48, 0
2, 62208, Note_on_c, 0, 36, 63
2, 62400, Note_off_c, 0, 36, 0
2, 62400, Note_on_c, 0, 48, 63
2, 62592, Note_off_c, 0, 48, 0
2, 62592, Note_on_c, 0, 36, 63
2, 62784, Note_off_c, 0, 36, 0
2, 62784, Note_on_c, 0, 48, 63
2, 62976, Note_off_c, 0, 48, 0
2, 62976, Note_on_c, 0, 29, 63
2, 63168, Note_off_c, 0, 29, 0
2, 63168, Note_on_c, 0, 41, 63
2, 63360, Note_off_c, 0, 41, 0
2, 63360, Note_on_c, 0, 29, 63
2, 63552, Note_off_c, 0, 29, 0
2, 63552, Note_on_c, 0, 41, 63
2, 63744, Note_off_c, 0, 41, 0
2, 63744, Note_on_c, 0, 29, 63
2, 63936, Note_off_c, 0, 29, 0
2, 63936, Note_on_c, 0, 41, 63
2, 64128, Note_off_c, 0, 41, 0
2, 64128, Note_on_c, 0, 29, 63
2, 64320, Note_off_c, 0, 29, 0
2, 64320, Note_on_c, 0, 41, 63
2, 64512, Note_off_c, 0, 41, 0
2, 64512, Note_on_c, 0, 36, 63
2, 64704, Note_off_c, 0, 36, 0
2, 64704, Note_on_c, 0, 48, 63
2, 64896, Note_off_c, 0, 48, 0
2, 64896, Note_on_c, 0, 36, 63
2, 65088, Note_off_c, 0, 36, 0
2, 65088, Note_on_c, 0, 48, 63
2, 65280, Note_off_c, 0, 48, 0
2, 65280, Note_on_c, 0, 36, 63
2, 65472, Note_off_c, 0, 36, 0
2, 65472, Note_on_c, 0, 48, 63
2, 65664, Note_off_c, 0, 48, 0
2, 65664, Note_on_c, 0, 36, 63
2, 65856, Note_off_c, 0, 36, 0
2, 65856, Note_on_c, 0, 48, 63
2, 66048, Note_off_c, 0, 48, 0
2, 66048, Note_on_c, 0, 36, 63
2, 66240, Note_off_c, 0, 36, 0
2, 66240, Note_on_c, 0, 48, 63
2, 66432, Note_off_c, 0, 48, 0
2, 66432, Note_on_c, 0, 36, 63
2, 66624, Note_off_c, 0, 36, 0
2, 66624, Note_on_c, 0, 48, 63
2, 66816, Note_off_c, 0, 48, 0
2, 66816, Note_on_c, 0, 36, 63
2, 67008, Note_off_c, 0, 36, 0
2, 67008, Note_on_c, 0, 48, 63
2, 67200, Note_off_c, 0, 48, 0
2, 67200, Note_on_c, 0, 36, 63
2, 67392, Note_off_c, 0, 36, 0
2, 67392, Note_on_c, 0, 48, 63
2, 67584, Note_off_c, 0, 48, 0
2, 67584, Note_on_c, 0, 36, 63
2, 67776, Note_off_c, 0, 36, 0
2, 67776, Note_on_c, 0, 48, 63
2, 67968, Note_off_c, 0, 48, 0
2, 67968, Note_on_c, 0, 36, 63
2, 68160, Note_off_c, 0, 36, 0
2, 68160, Note_on_c, 0, 48, 63
2, 68352, Note_off_c, 0, 48, 0
2, 68352, Note_on_c, 0, 36, 63
2, 68544, Note_off_c, 0, 36, 0
2, 68544, Note_on_c, 0, 48, 63
2, 68736, Note_off_c, 0, 48, 0
2, 68736, Note_on_c, 0, 36, 63
2, 68928, Note_off_c, 0, 36, 0
2, 68928, Note_on_c, 0, 48, 63
2, 69120, Note_off_c, 0, 48, 0
2, 69120, Note_on_c, 0, 29, 63
2, 69312, Note_off_c, 0, 29, 0
2, 69312, Note_on_c, 0, 41, 63
2, 69504, Note_off_c, 0, 41, 0
2, 69504, Note_on_c, 0, 29, 63
2, 69696, Note_off_c, 0, 29, 0
2, 69696, Note_on_c, 0, 41, 63
2, 69888, Note_off_c, 0, 41, 0
2, 69888, Note_on_c, 0, 29, 63
2, 70080, Note_off_c, 0, 29, 0
2, 70080, Note_on_c, 0, 41, 63
2, 70272, Note_off_c, 0, 41, 0
2, 70272, Note_on_c, 0, 29, 63
2, 70464, Note_off_c, 0, 29, 0
2, 70464, Note_on_c, 0, 41, 63
2, 70656, Note_off_c, 0, 41, 0
2, 70656, Note_on_c, 0, 36, 63
2, 70848, Note_off_c, 0, 36, 0
2, 70848, Note_on_c, 0, 48, 63
2, 71040, Note_off_c, 0, 48, 0
2, 71040, Note_on_c, 0, 36, 63
2, 71232, Note_off_c, 0, 36, 0
2, 71232, Note_on_c, 0, 48, 63
2, 71424, Note_off_c, 0, 48, 0
2, 71424, Note_on_c, 0, 36, 63
2, 71616, Note_off_c, 0, 36, 0
2, 71616, Note_on_c, 0, 48, 63
2, 71808, Note_off_c, 0, 48, 0
2, 71808, Note_on_c, 0, 36, 63
2, 72000, Note_off_c, 0, 36, 0
2, 72000, Note_on_c, 0, 48, 63
2, 72192, Note_off_c, 0, 48, 0
2, 78336, Note_on_c, 0, 36, 63
2, 78528, Note_off_c, 0, 36, 0
2, 78528, Note_on_c, 0, 48, 63
2, 78720, Note_off_c, 0, 48, 0
2, 78720, Note_on_c, 0, 36, 63
2, 78912, Note_off_c, 0, 36, 0
2, 78912, Note_on_c, 0, 48, 63
2, 79104, Note_off_c, 0, 48, 0
2, 79104, Note_on_c, 0, 36, 63
2, 79296, Note_off_c, 0, 36, 0
2, 79296, Note_on_c, 0, 48, 63
2, 79488, Note_off_c, 0, 48, 0
2, 79488, Note_on_c, 0, 36, 63
2, 79680, Note_off_c, 0, 36, 0
2, 79680, Note_on_c, 0, 48, 63
2, 79872, Note_off_c, 0, 48, 0
2, 79872, Note_on_c, 0, 36, 63
2, 80064, Note_off_c, 0, 36, 0
2, 80064, Note_on_c, 0, 48, 63
2, 80256, Note_off_c, 0, 48, 0
2, 80256, Note_on_c, 0, 36, 63
2, 80448, Note_off_c, 0, 36, 0
2, 80448, Note_on_c, 0, 48, 63
2, 80640, Note_off_c, 0, 48, 0
2, 80640, Note_on_c, 0, 36, 63
2, 80832, Note_off_c, 0, 36, 0
2, 80832, Note_on_c, 0, 48, 63
2, 81024, Note_off_c, 0, 48, 0
2, 81024, Note_on_c, 0, 36, 63
2, 81216, Note_off_c, 0, 36, 0
2, 81216, Note_on_c, 0, 48, 63
2, 81408, Note_off_c, 0, 48, 0
2, 81408, Note_on_c, 0, 29, 63
2, 81600, Note_off_c, 0, 29, 0
2, 81600, Note_on_c, 0, 41, 63
2, 81792, Note_off_c, 0, 41, 0
2, 81792, Note_on_c, 0, 29, 63
2, 81984, Note_off_c, 0, 29, 0
2, 81984, Note_on_c, 0, 41, 63
2, 82176, Note_off_c, 0, 41, 0
2, 82176, Note_on_c, 0, 29, 63
2, 82368, Note_off_c, 0, 29, 0
2, 82368, Note_on_c, 0, 41, 63
2, 82560, Note_off_c, 0, 41, 0
2, 82560, Note_on_c, 0, 29, 63
2, 82752, Note_off_c, 0, 29, 0
2, 82752, Note_on_c, 0, 41, 63
2, 82944, Note_off_c, 0, 41, 0
2, 82944, Note_on_c, 0, 29, 63
2, 83136, Note_off_c, 0, 29, 0
2, 83136, Note_on_c, 0, 41, 63
2, 83328, Note_off_c, 0, 41, 0
2, 83328, Note_on_c, 0, 29, 63
2, 83520, Note_off_c, 0, 29, 0
2, 83520, Note_on_c, 0, 41, 63
2, 83712, Note_off_c, 0, 41, 0
2, 83712, Note_on_c, 0, 29, 63
2, 83904, Note_off_c, 0, 29, 0
2, 83904, Note_on_c, 0, 41, 63
2, 84096, Note_off_c, 0, 41, 0
2, 84096, Note_on_c, 0, 29, 63
2, 84288, Note_off_c, 0, 29, 0
2, 84288, Note_on_c, 0, 41, 63
2, 84480, Note_off_c, 0, 41, 0
2, 84480, End_track
3, 0, Start_track
3, 0, Title_t, "Koto"
3, 0, Program_c, 1, 107
3, 3072, Note_on_c, 1, 60, 76
3, 3072, Note_on_c, 1, 72, 76
3, 3264, Note_off_c, 1, 72, 0
3, 3264, Note_off_c, 1, 60, 0
3, 3264, Note_on_c, 1, 72, 76
3, 3264, Note_on_c, 1, 60, 76
3, 3360, Note_off_c, 1, 60, 0
3, 3360, Note_off_c, 1, 72, 0
3, 3456, Note_on_c, 1, 61, 76
3, 3456, Note_on_c, 1, 73, 76
3, 3648, Note_off_c, 1, 73, 0
3, 3648, Note_off_c, 1, 61, 0
3, 3648, Note_on_c, 1, 60, 76
3, 3648, Note_on_c, 1, 72, 76
3, 3744, Note_off_c, 1, 72, 0
3, 3744, Note_off_c, 1, 60, 0
3, 3840, Note_on_c, 1, 70, 76
3, 3840, Note_on_c, 1, 58, 76
3, 3936, Note_off_c, 1, 58, 0
3, 3936, Note_off_c, 1, 70, 0
3, 4032, Note_on_c, 1, 72, 76
3, 4032, Note_on_c, 1, 60, 76
3, 4128, Note_off_c, 1, 60, 0
3, 4128, Note_off_c, 1, 72, 0
3, 4224, Note_on_c, 1, 61, 76
3, 4224, Note_on_c, 1, 73, 76
3, 4512, Note_off_c, 1, 73, 0
3, 4512, Note_off_c, 1, 61, 0
3, 4608, Note_on_c, 1, 72, 76
3, 4608, Note_on_c, 1, 60, 76
3, 4704, Note_off_c, 1, 60, 0
3, 4704, Note_off_c, 1, 72, 0
3, 4800, Note_on_c, 1, 72, 76
3, 4800, Note_on_c, 1, 60, 76
3, 4896, Note_off_c, 1, 60, 0
3, 4896, Note_off_c, 1, 72, 0
3, 4992, Note_on_c, 1, 72, 76
3, 4992, Note_on_c, 1, 60, 76
3, 5088, Note_off_c, 1, 60, 0
3, 5088, Note_off_c, 1, 72, 0
3, 5088, Note_on_c, 1, 60, 76
3, 5088, Note_on_c, 1, 72, 76
3, 5184, Note_off_c, 1, 72, 0
3, 5184, Note_off_c, 1, 60, 0
3, 5184, Note_on_c, 1, 72, 76
3, 5184, Note_on_c, 1, 60, 76
3, 5280, Note_off_c, 1, 60, 0
3, 5280, Note_off_c, 1, 72, 0
3, 5376, Note_on_c, 1, 58, 76
3, 5376, Note_on_c, 1, 70, 76
3, 5472, Note_off_c, 1, 70, 0
3, 5472, Note_off_c, 1, 58, 0
3, 5568, Note_on_c, 1, 72, 76
3, 5568, Note_on_c, 1, 60, 76
3, 5664, Note_off_c, 1, 60, 0
3, 5664, Note_off_c, 1, 72, 0
3, 5760, Note_on_c, 1, 73, 76
3, 5760, Note_on_c, 1, 61, 76
3, 6144, Note_off_c, 1, 61, 0
3, 6144, Note_off_c, 1, 73, 0
3, 6336, Note_on_c, 1, 72, 76
3, 6336, Note_on_c, 1, 60, 76
3, 6432, Note_off_c, 1, 60, 0
3, 6432, Note_off_c, 1, 72, 0
3, 6432, Note_on_c, 1, 72, 76
3, 6432, Note_on_c, 1, 60, 76
3, 6528, Note_off_c, 1, 60, 0
3, 6528, Note_off_c, 1, 72, 0
3, 6528, Note_on_c, 1, 72, 76
3, 6528, Note_on_c, 1, 60, 76
3, 6624, Note_off_c, 1, 60, 0
3, 6624, Note_off_c, 1, 72, 0
3, 6720, Note_on_c, 1, 72, 76
3, 6720, Note_on_c, 1, 60, 76
3, 6816, Note_off_c, 1, 60, 0
3, 6816, Note_off_c, 1, 72, 0
3, 6912, Note_on_c, 1, 72, 76
3, 6912, Note_on_c, 1, 60, 76
3, 7008, Note_off_c, 1, 60, 0
3, 7008, Note_off_c, 1, 72, 0
3, 7104, Note_on_c, 1, 72, 76
3, 7104, Note_on_c, 1, 60, 76
3, 7200, Note_off_c, 1, 60, 0
3, 7200, Note_off_c, 1, 72, 0
3, 7296, Note_on_c, 1, 73, 76
3, 7296, Note_on_c, 1, 61, 76
3, 7488, Note_off_c, 1, 61, 0
3, 7488, Note_off_c, 1, 73, 0
3, 7488, Note_on_c, 1, 72, 76
3, 7488, Note_on_c, 1, 60, 76
3, 7680, Note_off_c, 1, 60, 0
3, 7680, Note_off_c, 1, 72, 0
3, 7680, Note_on_c, 1, 72, 76
3, 7680, Note_on_c, 1, 60, 76
3, 7776, Note_off_c, 1, 60, 0
3, 7776, Note_off_c, 1, 72, 0
3, 7872, Note_on_c, 1, 72, 76
3, 7872, Note_on_c, 1, 60, 76
3, 7968, Note_off_c, 1, 60, 0
3, 7968, Note_off_c, 1, 72, 0
3, 8064, Note_on_c, 1, 73, 76
3, 8064, Note_on_c, 1, 61, 76
3, 8160, Note_off_c, 1, 61, 0
3, 8160, Note_off_c, 1, 73, 0
3, 8256, Note_on_c, 1, 60, 76
3, 8256, Note_on_c, 1, 72, 76
3, 8352, Note_off_c, 1, 72, 0
3, 8352, Note_off_c, 1, 60, 0
3, 8448, Note_on_c, 1, 70, 76
3, 8448, Note_on_c, 1, 58, 76
3, 8544, Note_off_c, 1, 58, 0
3, 8544, Note_off_c, 1, 70, 0
3, 8640, Note_on_c, 1, 68, 76
3, 8640, Note_on_c, 1, 56, 76
3, 8736, Note_off_c, 1, 56, 0
3, 8736, Note_off_c, 1, 68, 0
3, 8832, Note_on_c, 1, 72, 76
3, 8832, Note_on_c, 1, 60, 76
3, 9120, Note_off_c, 1, 60, 0
3, 9120, Note_off_c, 1, 72, 0
3, 10752, Note_on_c, 1, 72, 76
3, 10752, Note_on_c, 1, 60, 76
3, 10944, Note_off_c, 1, 60, 0
3, 10944, Note_off_c, 1, 72, 0
3, 10944, Note_on_c, 1, 72, 76
3, 10944, Note_on_c, 1, 60, 76
3, 11040, Note_off_c, 1, 60, 0
3, 11040, Note_off_c, 1, 72, 0
3, 11136, Note_on_c, 1, 73, 76
3, 11136, Note_on_c, 1, 61, 76
3, 11328, Note_off_c, 1, 61, 0
3, 11328, Note_off_c, 1, 73, 0
3, 11328, Note_on_c, 1, 72, 76
3, 11328, Note_on_c, 1, 60, 76
3, 11424, Note_off_c, 1, 60, 0
3, 11424, Note_off_c, 1, 72, 0
3, 11520, Note_on_c, 1, 70, 76
3, 11520, Note_on_c, 1, 58, 76
3, 11616, Note_off_c, 1, 58, 0
3, 11616, Note_off_c, 1, 70, 0
3, 11712, Note_on_c, 1, 72, 76
3, 11712, Note_on_c, 1, 60, 76
3, 11808, Note_off_c, 1, 60, 0
3, 11808, Note_off_c, 1, 72, 0
3, 11904, Note_on_c, 1, 73, 76
3, 11904, Note_on_c, 1, 61, 76
3, 12192, Note_off_c, 1, 61, 0
3, 12192, Note_off_c, 1, 73, 0
3, 12288, Note_on_c, 1, 72, 76
3, 12288, Note_on_c, 1, 60, 76
3, 12384, Note_off_c, 1, 60, 0
3, 12384, Note_off_c, 1, 72, 0
3, 12480, Note_on_c, 1, 72, 76
3, 12480, Note_on_c, 1, 60, 76
3, 12576, Note_off_c, 1, 60, 0
3, 12576, Note_off_c, 1, 72, 0
3, 12672, Note_on_c, 1, 72, 76
3, 12672, Note_on_c, 1, 60, 76
3, 12768, Note_off_c, 1, 60, 0
3, 12768, Note_off_c, 1, 72, 0
3, 12768, Note_on_c, 1, 72, 76
3, 12768, Note_on_c, 1, 60, 76
3, 12864, Note_off_c, 1, 60, 0
3, 12864, Note_off_c, 1, 72, 0
3, 12864, Note_on_c, 1, 72, 76
3, 12864, Note_on_c, 1, 60, 76
3, 12960, Note_off_c, 1, 60, 0
3, 12960, Note_off_c, 1, 72, 0
3, 13056, Note_on_c, 1, 70, 76
3, 13056, Note_on_c, 1, 58, 76
3, 13152, Note_off_c, 1, 58, 0
3, 13152, Note_off_c, 1, 70, 0
3, 13248, Note_on_c, 1, 60, 76
3, 13248, Note_on_c, 1, 72, 76
3, 13344, Note_off_c, 1, 72, 0
3, 13344, Note_off_c, 1, 60, 0
3, 13440, Note_on_c, 1, 73, 76
3, 13440, Note_on_c, 1, 61, 76
3, 13824, Note_off_c, 1, 61, 0
3, 13824, Note_off_c, 1, 73, 0
3, 14016, Note_on_c, 1, 72, 76
3, 14016, Note_on_c, 1, 60, 76
3, 14112, Note_off_c, 1, 60, 0
3, 14112, Note_off_c, 1, 72, 0
3, 14112, Note_on_c, 1, 72, 76
3, 14112, Note_on_c, 1, 60, 76
3, 14208, Note_off_c, 1, 60, 0
3, 14208, Note_off_c, 1, 72, 0
3, 14208, Note_on_c, 1, 72, 76
3, 14208, Note_on_c, 1, 60, 76
3, 14304, Note_off_c, 1, 60, 0
3, 14304, Note_off_c, 1, 72, 0
3, 14400, Note_on_c, 1, 72, 76
3, 14400, Note_on_c, 1, 60, 76
3, 14496, Note_off_c, 1, 60, 0
3, 14496, Note_off_c, 1, 72, 0
3, 14592, Note_on_c, 1, 72, 76
3, 14592, Note_on_c, 1, 60, 76
3, 14688, Note_off_c, 1, 60, 0
3, 14688, Note_off_c, 1, 72, 0
3, 14784, Note_on_c, 1, 72, 76
3, 14784, Note_on_c, 1, 60, 76
3, 14880, Note_off_c, 1, 60, 0
3, 14880, Note_off_c, 1, 72, 0
3, 14976, Note_on_c, 1, 73, 76
3, 14976, Note_on_c, 1, 61, 76
3, 15168, Note_off_c, 1, 61, 0
3, 15168, Note_off_c, 1, 73, 0
3, 15168, Note_on_c, 1, 60, 76
3, 15168, Note_on_c, 1, 72, 76
3, 15360, Note_off_c, 1, 72, 0
3, 15360, Note_off_c, 1, 60, 0
3, 15360, Note_on_c, 1, 72, 76
3, 15360, Note_on_c, 1, 60, 76
3, 15456, Note_off_c, 1, 60, 0
3, 15456, Note_off_c, 1, 72, 0
3, 15552, Note_on_c, 1, 72, 76
3, 15552, Note_on_c, 1, 60, 76
3, 15648, Note_off_c, 1, 60, 0
3, 15648, Note_off_c, 1, 72, 0
3, 15744, Note_on_c, 1, 73, 76
3, 15744, Note_on_c, 1, 61, 76
3, 15840, Note_off_c, 1, 61, 0
3, 15840, Note_off_c, 1, 73, 0
3, 15936, Note_on_c, 1, 60, 76
3, 15936, Note_on_c, 1, 72, 76
3, 16032, Note_off_c, 1, 72, 0
3, 16032, Note_off_c, 1, 60, 0
3, 16128, Note_on_c, 1, 70, 76
3, 16128, Note_on_c, 1, 58, 76
3, 16224, Note_off_c, 1, 58, 0
3, 16224, Note_off_c, 1, 70, 0
3, 16320, Note_on_c, 1, 56, 76
3, 16320, Note_on_c, 1, 68, 76
3, 16416, Note_off_c, 1, 68, 0
3, 16416, Note_off_c, 1, 56, 0
3, 16512, Note_on_c, 1, 72, 76
3, 16512, Note_on_c, 1, 60, 76
3, 16800, Note_off_c, 1, 60, 0
3, 16800, Note_off_c, 1, 72, 0
3, 30720, Note_on_c, 1, 67, 76
3, 30912, Note_off_c, 1, 67, 0
3, 30912, Note_on_c, 1, 69, 76
3, 31008, Note_off_c, 1, 69, 0
3, 31104, Note_on_c, 1, 72, 76
3, 31296, Note_off_c, 1, 72, 0
3, 31296, Note_on_c, 1, 73, 76
3, 31392, Note_off_c, 1, 73, 0
3, 31392, Note_on_c, 1, 72, 76
3, 31488, Note_off_c, 1, 72, 0
3, 32256, Note_on_c, 1, 67, 76
3, 32448, Note_off_c, 1, 67, 0
3, 32448, Note_on_c, 1, 69, 76
3, 32544, Note_off_c, 1, 69, 0
3, 32640, Note_on_c, 1, 72, 76
3, 32832, Note_off_c, 1, 72, 0
3, 32832, Note_on_c, 1, 73, 76
3, 32928, Note_off_c, 1, 73, 0
3, 32928, Note_on_c, 1, 72, 76
3, 33024, Note_off_c, 1, 72, 0
3, 33792, Note_on_c, 1, 67, 76
3, 33984, Note_off_c, 1, 67, 0
3, 33984, Note_on_c, 1, 69, 76
3, 34080, Note_off_c, 1, 69, 0
3, 34176, Note_on_c, 1, 72, 76
3, 34368, Note_off_c, 1, 72, 0
3, 34368, Note_on_c, 1, 73, 76
3, 34464, Note_off_c, 1, 73, 0
3, 34464, Note_on_c, 1, 72, 76
3, 34560, Note_off_c, 1, 72, 0
3, 35328, Note_on_c, 1, 67, 76
3, 35520, Note_off_c, 1, 67, 0
3, 35520, Note_on_c, 1, 69, 76
3, 35616, Note_off_c, 1, 69, 0
3, 35712, Note_on_c, 1, 72, 76
3, 35904, Note_off_c, 1, 72, 0
3, 35904, Note_on_c, 1, 73, 76
3, 36000, Note_off_c, 1, 73, 0
3, 36000, Note_on_c, 1, 72, 76
3, 36096, Note_off_c, 1, 72, 0
3, 36864, Note_on_c, 1, 67, 76
3, 36864, Note_on_c, 1, 55, 76
3, 37056, Note_off_c, 1, 55, 0
3, 37056, Note_off_c, 1, 67, 0
3, 37056, Note_on_c, 1, 69, 76
3, 37056, Note_on_c, 1, 57, 76
3, 37152, Note_off_c, 1, 57, 0
3, 37152, Note_off_c, 1, 69, 0
3, 37248, Note_on_c, 1, 72, 76
3, 37248, Note_on_c, 1, 60, 76
3, 37440, Note_off_c, 1, 60, 0
3, 37440, Note_off_c, 1, 72, 0
3, 37440, Note_on_c, 1, 61, 76
3, 37440, Note_on_c, 1, 73, 76
3, 37536, Note_off_c, 1, 73, 0
3, 37536, Note_off_c, 1, 61, 0
3, 37536, Note_on_c, 1, 72, 76
3, 37536, Note_on_c, 1, 60, 76
3, 37632, Note_off_c, 1, 60, 0
3, 37632, Note_off_c, 1, 72, 0
3, 37824, Note_on_c, 1, 60, 76
3, 37824, Note_on_c, 1, 72, 76
3, 37920, Note_off_c, 1, 72, 0
3, 37920, Note_off_c, 1, 60, 0
3, 37920, Note_on_c, 1, 72, 76
3, 37920, Note_on_c, 1, 60, 76
3, 38016, Note_off_c, 1, 60, 0
3, 38016, Note_off_c, 1, 72, 0
3, 38016, Note_on_c, 1, 60, 76
3, 38016, Note_on_c, 1, 72, 76
3, 38112, Note_off_c, 1, 72, 0
3, 38112, Note_off_c, 1, 60, 0
3, 38208, Note_on_c, 1, 60, 76
3, 38208, Note_on_c, 1, 72, 76
3, 38304, Note_off_c, 1, 72, 0
3, 38304, Note_off_c, 1, 60, 0
3, 38400, Note_on_c, 1, 67, 76
3, 38400, Note_on_c, 1, 55, 76
3, 38592, Note_off_c, 1, 55, 0
3, 38592, Note_off_c, 1, 67, 0
3, 38592, Note_on_c, 1, 69, 76
3, 38592, Note_on_c, 1, 57, 76
3, 38688, Note_off_c, 1, 57, 0
3, 38688, Note_off_c, 1, 69, 0
3, 38784, Note_on_c, 1, 72, 76
3, 38784, Note_on_c, 1, 60, 76
3, 38976, Note_off_c, 1, 60, 0
3, 38976, Note_off_c, 1, 72, 0
3, 38976, Note_on_c, 1, 73, 76
3, 38976, Note_on_c, 1, 61, 76
3, 39072, Note_off_c, 1, 61, 0
3, 39072, Note_off_c, 1, 73, 0
3, 39072, Note_on_c, 1, 72, 76
3, 39072, Note_on_c, 1, 60, 76
3, 39168, Note_off_c, 1, 60, 0
3, 39168, Note_off_c, 1, 72, 0
3, 39360, Note_on_c, 1, 60, 76
3, 39360, Note_on_c, 1, 72, 76
3, 39456, Note_off_c, 1, 72, 0
3, 39456, Note_off_c, 1, 60, 0
3, 39456, Note_on_c, 1, 72, 76
3, 39456, Note_on_c, 1, 60, 76
3, 39552, Note_off_c, 1, 60, 0
3, 39552, Note_off_c, 1, 72, 0
3, 39552, Note_on_c, 1, 72, 76
3, 39552, Note_on_c, 1, 60, 76
3, 39648, Note_off_c, 1, 60, 0
3, 39648, Note_off_c, 1, 72, 0
3, 39744, Note_on_c, 1, 72, 76
3, 39744, Note_on_c, 1, 60, 76
3, 39840, Note_off_c, 1, 60, 0
3, 39840, Note_off_c, 1, 72, 0
3, 39936, Note_on_c, 1, 67, 76
3, 39936, Note_on_c, 1, 55, 76
3, 40128, Note_off_c, 1, 55, 0
3, 40128, Note_off_c, 1, 67, 0
3, 40128, Note_on_c, 1, 69, 76
3, 40128, Note_on_c, 1, 57, 76
3, 40224, Note_off_c, 1, 57, 0
3, 40224, Note_off_c, 1, 69, 0
3, 40320, Note_on_c, 1, 72, 76
3, 40320, Note_on_c, 1, 60, 76
3, 40512, Note_off_c, 1, 60, 0
3, 40512, Note_off_c, 1, 72, 0
3, 40512, Note_on_c, 1, 61, 76
3, 40512, Note_on_c, 1, 73, 76
3, 40608, Note_off_c, 1, 73, 0
3, 40608, Note_off_c, 1, 61, 0
3, 40608, Note_on_c, 1, 72, 76
3, 40608, Note_on_c, 1, 60, 76
3, 40704, Note_off_c, 1, 60, 0
3, 40704, Note_off_c, 1, 72, 0
3, 40896, Note_on_c, 1, 60, 76
3, 40896, Note_on_c, 1, 72, 76
3, 40992, Note_off_c, 1, 72, 0
3, 40992, Note_off_c, 1, 60, 0
3, 40992, Note_on_c, 1, 72, 76
3, 40992, Note_on_c, 1, 60, 76
3, 41088, Note_off_c, 1, 60, 0
3, 41088, Note_off_c, 1, 72, 0
3, 41088, Note_on_c, 1, 72, 76
3, 41088, Note_on_c, 1, 60, 76
3, 41184, Note_off_c, 1, 60, 0
3, 41184, Note_off_c, 1, 72, 0
3, 41280, Note_on_c, 1, 72, 76
3, 41280, Note_on_c, 1, 60, 76
3, 41472, Note_off_c, 1, 60, 0
3, 41472, Note_off_c, 1, 72, 0
3, 41472, Note_on_c, 1, 57, 76
3, 41472, Note_on_c, 1, 71, 76
3, 41568, Note_off_c, 1, 71, 0
3, 41568, Note_off_c, 1, 57, 0
3, 41568, Note_on_c, 1, 72, 76
3, 41568, Note_on_c, 1, 60, 76
3, 41664, Note_off_c, 1, 60, 0
3, 41664, Note_off_c, 1, 72, 0
3, 41664, Note_on_c, 1, 73, 76
3, 41664, Note_on_c, 1, 57, 76
3, 41760, Note_off_c, 1, 57, 0
3, 41760, Note_off_c, 1, 73, 0
3, 41760, Note_on_c, 1, 72, 76
3, 41760, Note_on_c, 1, 60, 76
3, 41856, Note_off_c, 1, 60, 0
3, 41856, Note_off_c, 1, 72, 0
3, 41856, Note_on_c, 1, 57, 76
3, 41856, Note_on_c, 1, 71, 76
3, 41952, Note_off_c, 1, 71, 0
3, 41952, Note_off_c, 1, 57, 0
3, 41952, Note_on_c, 1, 72, 76
3, 41952, Note_on_c, 1, 60, 76
3, 42048, Note_off_c, 1, 60, 0
3, 42048, Note_off_c, 1, 72, 0
3, 42048, Note_on_c, 1, 57, 76
3, 42048, Note_on_c, 1, 73, 76
3, 42144, Note_off_c, 1, 73, 0
3, 42144, Note_off_c, 1, 57, 0
3, 42144, Note_on_c, 1, 72, 76
3, 42144, Note_on_c, 1, 60, 76
3, 42240, Note_off_c, 1, 60, 0
3, 42240, Note_off_c, 1, 72, 0
3, 42240, Note_on_c, 1, 72, 76
3, 42240, Note_on_c, 1, 57, 76
3, 42336, Note_off_c, 1, 57, 0
3, 42336, Note_off_c, 1, 72, 0
3, 42336, Note_on_c, 1, 73, 76
3, 42336, Note_on_c, 1, 60, 76
3, 42432, Note_off_c, 1, 60, 0
3, 42432, Note_off_c, 1, 73, 0
3, 42432, Note_on_c, 1, 74, 76
3, 42432, Note_on_c, 1, 57, 76
3, 42528, Note_off_c, 1, 57, 0
3, 42528, Note_off_c, 1, 74, 0
3, 42528, Note_on_c, 1, 72, 76
3, 42528, Note_on_c, 1, 60, 76
3, 42624, Note_off_c, 1, 60, 0
3, 42624, Note_off_c, 1, 72, 0
3, 42624, Note_on_c, 1, 72, 76
3, 43008, Note_off_c, 1, 72, 0
3, 44544, Note_on_c, 1, 60, 76
3, 44544, Note_on_c, 1, 72, 76
3, 44736, Note_off_c, 1, 72, 0
3, 44736, Note_off_c, 1, 60, 0
3, 44736, Note_on_c, 1, 72, 76
3, 44736, Note_on_c, 1, 60, 76
3, 44832, Note_off_c, 1, 60, 0
3, 44832, Note_off_c, 1, 72, 0
3, 44928, Note_on_c, 1, 61, 76
3, 44928, Note_on_c, 1, 73, 76
3, 45120, Note_off_c, 1, 73, 0
3, 45120, Note_off_c, 1, 61, 0
3, 45120, Note_on_c, 1, 60, 76
3, 45120, Note_on_c, 1, 72, 76
3, 45216, Note_off_c, 1, 72, 0
3, 45216, Note_off_c, 1, 60, 0
3, 45312, Note_on_c, 1, 70, 76
3, 45312, Note_on_c, 1, 58, 76
3, 45408, Note_off_c, 1, 58, 0
3, 45408, Note_off_c, 1, 70, 0
3, 45504, Note_on_c, 1, 72, 76
3, 45504, Note_on_c, 1, 60, 76
3, 45600, Note_off_c, 1, 60, 0
3, 45600, Note_off_c, 1, 72, 0
3, 45696, Note_on_c, 1, 61, 76
3, 45696, Note_on_c, 1, 73, 76
3, 45984, Note_off_c, 1, 73, 0
3, 45984, Note_off_c, 1, 61, 0
3, 46080, Note_on_c, 1, 72, 76
3, 46080, Note_on_c, 1, 60, 76
3, 46176, Note_off_c, 1, 60, 0
3, 46176, Note_off_c, 1, 72, 0
3, 46272, Note_on_c, 1, 72, 76
3, 46272, Note_on_c, 1, 60, 76
3, 46368, Note_off_c, 1, 60, 0
3, 46368, Note_off_c, 1, 72, 0
3, 46464, Note_on_c, 1, 72, 76
3, 46464, Note_on_c, 1, 60, 76
3, 46560, Note_off_c, 1, 60, 0
3, 46560, Note_off_c, 1, 72, 0
3, 46560, Note_on_c, 1, 60, 76
3, 46560, Note_on_c, 1, 72, 76
3, 46656, Note_off_c, 1, 72, 0
3, 46656, Note_off_c, 1, 60, 0
3, 46656, Note_on_c, 1, 72, 76
3, 46656, Note_on_c, 1, 60, 76
3, 46752, Note_off_c, 1, 60, 0
3, 46752, Note_off_c, 1, 72, 0
3, 46848, Note_on_c, 1, 58, 76
3, 46848, Note_on_c, 1, 70, 76
3, 46944, Note_off_c, 1, 70, 0
3, 46944, Note_off_c, 1, 58, 0
3, 47040, Note_on_c, 1, 72, 76
3, 47040, Note_on_c, 1, 60, 76
3, 47136, Note_off_c, 1, 60, 0
3, 47136, Note_off_c, 1, 72, 0
3, 47232, Note_on_c, 1, 73, 76
3, 47232, Note_on_c, 1, 61, 76
3, 47616, Note_off_c, 1, 61, 0
3, 47616, Note_off_c, 1, 73, 0
3, 47808, Note_on_c, 1, 72, 76
3, 47808, Note_on_c, 1, 60, 76
3, 47904, Note_off_c, 1, 60, 0
3, 47904, Note_off_c, 1, 72, 0
3, 47904, Note_on_c, 1, 72, 76
3, 47904, Note_on_c, 1, 60, 76
3, 48000, Note_off_c, 1, 60, 0
3, 48000, Note_off_c, 1, 72, 0
3, 48000, Note_on_c, 1, 72, 76
3, 48000, Note_on_c, 1, 60, 76
3, 48096, Note_off_c, 1, 60, 0
3, 48096, Note_off_c, 1, 72, 0
3, 48192, Note_on_c, 1, 72, 76
3, 48192, Note_on_c, 1, 60, 76
3, 48288, Note_off_c, 1, 60, 0
3, 48288, Note_off_c, 1, 72, 0
3, 48384, Note_on_c, 1, 72, 76
3, 48384, Note_on_c, 1, 60, 76
3, 48480, Note_off_c, 1, 60, 0
3, 48480, Note_off_c, 1, 72, 0
3, 48576, Note_on_c, 1, 72, 76
3, 48576, Note_on_c, 1, 60, 76
3, 48672, Note_off_c, 1, 60, 0
3, 48672, Note_off_c, 1, 72, 0
3, 48768, Note_on_c, 1, 73, 76
3, 48768, Note_on_c, 1, 61, 76
3, 48960, Note_off_c, 1, 61, 0
3, 48960, Note_off_c, 1, 73, 0
3, 48960, Note_on_c, 1, 72, 76
3, 48960, Note_on_c, 1, 60, 76
3, 49152, Note_off_c, 1, 60, 0
3, 49152, Note_off_c, 1, 72, 0
3, 49152, Note_on_c, 1, 72, 76
3, 49152, Note_on_c, 1, 60, 76
3, 49248, Note_off_c, 1, 60, 0
3, 49248, Note_off_c, 1, 72, 0
3, 49344, Note_on_c, 1, 72, 76
3, 49344, Note_on_c, 1, 60, 76
3, 49440, Note_off_c, 1, 60, 0
3, 49440, Note_off_c, 1, 72, 0
3, 49536, Note_on_c, 1, 73, 76
3, 49536, Note_on_c, 1, 61, 76
3, 49632, Note_off_c, 1, 61, 0
3, 49632, Note_off_c, 1, 73, 0
3, 49728, Note_on_c, 1, 60, 76
3, 49728, Note_on_c, 1, 72, 76
3, 49824, Note_off_c, 1, 72, 0
3, 49824, Note_off_c, 1, 60, 0
3, 49920, Note_on_c, 1, 70, 76
3, 49920, Note_on_c, 1, 58, 76
3, 50016, Note_off_c, 1, 58, 0
3, 50016, Note_off_c, 1, 70, 0
3, 50112, Note_on_c, 1, 68, 76
3, 50112, Note_on_c, 1, 56, 76
3, 50208, Note_off_c, 1, 56, 0
3, 50208, Note_off_c, 1, 68, 0
3, 50304, Note_on_c, 1, 72, 76
3, 50304, Note_on_c, 1, 60, 76
3, 50592, Note_off_c, 1, 60, 0
3, 50592, Note_off_c, 1, 72, 0
3, 52224, Note_on_c, 1, 72, 76
3, 52224, Note_on_c, 1, 60, 76
3, 52416, Note_off_c, 1, 60, 0
3, 52416, Note_off_c, 1, 72, 0
3, 52416, Note_on_c, 1, 72, 76
3, 52416, Note_on_c, 1, 60, 76
3, 52512, Note_off_c, 1, 60, 0
3, 52512, Note_off_c, 1, 72, 0
3, 52608, Note_on_c, 1, 73, 76
3, 52608, Note_on_c, 1, 61, 76
3, 52800, Note_off_c, 1, 61, 0
3, 52800, Note_off_c, 1, 73, 0
3, 52800, Note_on_c, 1, 72, 76
3, 52800, Note_on_c, 1, 60, 76
3, 52896, Note_off_c, 1, 60, 0
3, 52896, Note_off_c, 1, 72, 0
3, 52992, Note_on_c, 1, 70, 76
3, 52992, Note_on_c, 1, 58, 76
3, 53088, Note_off_c, 1, 58, 0
3, 53088, Note_off_c, 1, 70, 0
3, 53184, Note_on_c, 1, 72, 76
3, 53184, Note_on_c, 1, 60, 76
3, 53280, Note_off_c, 1, 60, 0
3, 53280, Note_off_c, 1, 72, 0
3, 53376, Note_on_c, 1, 73, 76
3, 53376, Note_on_c, 1, 61, 76
3, 53664, Note_off_c, 1, 61, 0
3, 53664, Note_off_c, 1, 73, 0
3, 53760, Note_on_c, 1, 72, 76
3, 53760, Note_on_c, 1, 60, 76
3, 53856, Note_off_c, 1, 60, 0
3, 53856, Note_off_c, 1, 72, 0
3, 53952, Note_on_c, 1, 72, 76
3, 53952, Note_on_c, 1, 60, 76
3, 54048, Note_off_c, 1, 60, 0
3, 54048, Note_off_c, 1, 72, 0
3, 54144, Note_on_c, 1, 72, 76
3, 54144, Note_on_c, 1, 60, 76
3, 54240, Note_off_c, 1, 60, 0
3, 54240, Note_off_c, 1, 72, 0
3, 54240, Note_on_c, 1, 72, 76
3, 54240, Note_on_c, 1, 60, 76
3, 54336, Note_off_c, 1, 60, 0
3, 54336, Note_off_c, 1, 72, 0
3, 54336, Note_on_c, 1, 72, 76
3, 54336, Note_on_c, 1, 60, 76
3, 54432, Note_off_c, 1, 60, 0
3, 54432, Note_off_c, 1, 72, 0
3, 54528, Note_on_c, 1, 70, 76
3, 54528, Note_on_c, 1, 58, 76
3, 54624, Note_off_c, 1, 58, 0
3, 54624, Note_off_c, 1, 70, 0
3, 54720, Note_on_c, 1, 60, 76
3, 54720, Note_on_c, 1, 72, 76
3, 54816, Note_off_c, 1, 72, 0
3, 54816, Note_off_c, 1, 60, 0
3, 54912, Note_on_c, 1, 73, 76
3, 54912, Note_on_c, 1, 61, 76
3, 55296, Note_off_c, 1, 61, 0
3, 55296, Note_off_c, 1, 73, 0
3, 55488, Note_on_c, 1, 72, 76
3, 55488, Note_on_c, 1, 60, 76
3, 55584, Note_off_c, 1, 60, 0
3, 55584, Note_off_c, 1, 72, 0
3, 55584, Note_on_c, 1, 72, 76
3, 55584, Note_on_c, 1, 60, 76
3, 55680, Note_off_c, 1, 60, 0
3, 55680, Note_off_c, 1, 72, 0
3, 55680, Note_on_c, 1, 72, 76
3, 55680, Note_on_c, 1, 60, 76
3, 55776, Note_off_c, 1, 60, 0
3, 55776, Note_off_c, 1, 72, 0
3, 55872, Note_on_c, 1, 72, 76
3, 55872, Note_on_c, 1, 60, 76
3, 55968, Note_off_c, 1, 60, 0
3, 55968, Note_off_c, 1, 72, 0
3, 56064, Note_on_c, 1, 72, 76
3, 56064, Note_on_c, 1, 60, 76
3, 56160, Note_off_c, 1, 60, 0
3, 56160, Note_off_c, 1, 72, 0
3, 56256, Note_on_c, 1, 72, 76
3, 56256, Note_on_c, 1, 60, 76
3, 56352, Note_off_c, 1, 60, 0
3, 56352, Note_off_c, 1, 72, 0
3, 56448, Note_on_c, 1, 73, 76
3, 56448, Note_on_c, 1, 61, 76
3, 56640, Note_off_c, 1, 61, 0
3, 56640, Note_off_c, 1, 73, 0
3, 56640, Note_on_c, 1, 60, 76
3, 56640, Note_on_c, 1, 72, 76
3, 56832, Note_off_c, 1, 72, 0
3, 56832, Note_off_c, 1, 60, 0
3, 56832, Note_on_c, 1, 72, 76
3, 56832, Note_on_c, 1, 60, 76
3, 56928, Note_off_c, 1, 60, 0
3, 56928, Note_off_c, 1, 72, 0
3, 57024, Note_on_c, 1, 72, 76
3, 57024, Note_on_c, 1, 60, 76
3, 57120, Note_off_c, 1, 60, 0
3, 57120, Note_off_c, 1, 72, 0
3, 57216, Note_on_c, 1, 73, 76
3, 57216, Note_on_c, 1, 61, 76
3, 57312, Note_off_c, 1, 61, 0
3, 57312, Note_off_c, 1, 73, 0
3, 57408, Note_on_c, 1, 60, 76
3, 57408, Note_on_c, 1, 72, 76
3, 57504, Note_off_c, 1, 72, 0
3, 57504, Note_off_c, 1, 60, 0
3, 57600, Note_on_c, 1, 70, 76
3, 57600, Note_on_c, 1, 58, 76
3, 57696, Note_off_c, 1, 58, 0
3, 57696, Note_off_c, 1, 70, 0
3, 57792, Note_on_c, 1, 56, 76
3, 57792, Note_on_c, 1, 68, 76
3, 57888, Note_off_c, 1, 68, 0
3, 57888, Note_off_c, 1, 56, 0
3, 57984, Note_on_c, 1, 72, 76
3, 57984, Note_on_c, 1, 60, 76
3, 58272, Note_off_c, 1, 60, 0
3, 58272, Note_off_c, 1, 72, 0
3, 72192, Note_on_c, 1, 67, 76
3, 72384, Note_off_c, 1, 67, 0
3, 72384, Note_on_c, 1, 69, 76
3, 72480, Note_off_c, 1, 69, 0
3, 72576, Note_on_c, 1, 72, 76
3, 72768, Note_off_c, 1, 72, 0
3, 72768, Note_on_c, 1, 73, 76
3, 72864, Note_off_c, 1, 73, 0
3, 72864, Note_on_c, 1, 72, 76
3, 72960, Note_off_c, 1, 72, 0
3, 73728, Note_on_c, 1, 67, 76
3, 73920, Note_off_c, 1, 67, 0
3, 73920, Note_on_c, 1, 69, 76
3, 74016, Note_off_c, 1, 69, 0
3, 74112, Note_on_c, 1, 72, 76
3, 74304, Note_off_c, 1, 72, 0
3, 74304, Note_on_c, 1, 73, 76
3, 74400, Note_off_c, 1, 73, 0
3, 74400, Note_on_c, 1, 72, 76
3, 74496, Note_off_c, 1, 72, 0
3, 75264, Note_on_c, 1, 67, 76
3, 75456, Note_off_c, 1, 67, 0
3, 75456, Note_on_c, 1, 69, 76
3, 75552, Note_off_c, 1, 69, 0
3, 75648, Note_on_c, 1, 72, 76
3, 75840, Note_off_c, 1, 72, 0
3, 75840, Note_on_c, 1, 73, 76
3, 75936, Note_off_c, 1, 73, 0
3, 75936, Note_on_c, 1, 72, 76
3, 76032, Note_off_c, 1, 72, 0
3, 76800, Note_on_c, 1, 67, 76
3, 76992, Note_off_c, 1, 67, 0
3, 76992, Note_on_c, 1, 69, 76
3, 77088, Note_off_c, 1, 69, 0
3, 77184, Note_on_c, 1, 72, 76
3, 77376, Note_off_c, 1, 72, 0
3, 77376, Note_on_c, 1, 73, 76
3, 77472, Note_off_c, 1, 73, 0
3, 77472, Note_on_c, 1, 72, 76
3, 77568, Note_off_c, 1, 72, 0
3, 78336, Note_on_c, 1, 67, 76
3, 78336, Note_on_c, 1, 55, 76
3, 78528, Note_off_c, 1, 55, 0
3, 78528, Note_off_c, 1, 67, 0
3, 78528, Note_on_c, 1, 69, 76
3, 78528, Note_on_c, 1, 57, 76
3, 78624, Note_off_c, 1, 57, 0
3, 78624, Note_off_c, 1, 69, 0
3, 78720, Note_on_c, 1, 72, 76
3, 78720, Note_on_c, 1, 60, 76
3, 78912, Note_off_c, 1, 60, 0
3, 78912, Note_off_c, 1, 72, 0
3, 78912, Note_on_c, 1, 61, 76
3, 78912, Note_on_c, 1, 73, 76
3, 79008, Note_off_c, 1, 73, 0
3, 79008, Note_off_c, 1, 61, 0
3, 79008, Note_on_c, 1, 72, 76
3, 79008, Note_on_c, 1, 60, 76
3, 79104, Note_off_c, 1, 60, 0
3, 79104, Note_off_c, 1, 72, 0
3, 79296, Note_on_c, 1, 60, 76
3, 79296, Note_on_c, 1, 72, 76
3, 79392, Note_off_c, 1, 72, 0
3, 79392, Note_off_c, 1, 60, 0
3, 79392, Note_on_c, 1, 72, 76
3, 79392, Note_on_c, 1, 60, 76
3, 79488, Note_off_c, 1, 60, 0
3, 79488, Note_off_c, 1, 72, 0
3, 79488, Note_on_c, 1, 60, 76
3, 79488, Note_on_c, 1, 72, 76
3, 79584, Note_off_c, 1, 72, 0
3, 79584, Note_off_c, 1, 60, 0
3, 79680, Note_on_c, 1, 60, 76
3, 79680, Note_on_c, 1, 72, 76
3, 79776, Note_off_c, 1, 72, 0
3, 79776, Note_off_c, 1, 60, 0
3, 79872, Note_on_c, 1, 67, 76
3, 79872, Note_on_c, 1, 55, 76
3, 80064, Note_off_c, 1, 55, 0
3, 80064, Note_off_c, 1, 67, 0
3, 80064, Note_on_c, 1, 69, 76
3, 80064, Note_on_c, 1, 57, 76
3, 80160, Note_off_c, 1, 57, 0
3, 80160, Note_off_c, 1, 69, 0
3, 80256, Note_on_c, 1, 72, 76
3, 80256, Note_on_c, 1, 60, 76
3, 80448, Note_off_c, 1, 60, 0
3, 80448, Note_off_c, 1, 72, 0
3, 80448, Note_on_c, 1, 73, 76
3, 80448, Note_on_c, 1, 61, 76
3, 80544, Note_off_c, 1, 61, 0
3, 80544, Note_off_c, 1, 73, 0
3, 80544, Note_on_c, 1, 72, 76
3, 80544, Note_on_c, 1, 60, 76
3, 80640, Note_off_c, 1, 60, 0
3, 80640, Note_off_c, 1, 72, 0
3, 80832, Note_on_c, 1, 60, 76
3, 80832, Note_on_c, 1, 72, 76
3, 80928, Note_off_c, 1, 72, 0
3, 80928, Note_off_c, 1, 60, 0
3, 80928, Note_on_c, 1, 72, 76
3, 80928, Note_on_c, 1, 60, 76
3, 81024, Note_off_c, 1, 60, 0
3, 81024, Note_off_c, 1, 72, 0
3, 81024, Note_on_c, 1, 72, 76
3, 81024, Note_on_c, 1, 60, 76
3, 81120, Note_off_c, 1, 60, 0
3, 81120, Note_off_c, 1, 72, 0
3, 81216, Note_on_c, 1, 72, 76
3, 81216, Note_on_c, 1, 60, 76
3, 81312, Note_off_c, 1, 60, 0
3, 81312, Note_off_c, 1, 72, 0
3, 81408, Note_on_c, 1, 67, 76
3, 81408, Note_on_c, 1, 55, 76
3, 81600, Note_off_c, 1, 55, 0
3, 81600, Note_off_c, 1, 67, 0
3, 81600, Note_on_c, 1, 69, 76
3, 81600, Note_on_c, 1, 57, 76
3, 81696, Note_off_c, 1, 57, 0
3, 81696, Note_off_c, 1, 69, 0
3, 81792, Note_on_c, 1, 72, 76
3, 81792, Note_on_c, 1, 60, 76
3, 81984, Note_off_c, 1, 60, 0
3, 81984, Note_off_c, 1, 72, 0
3, 81984, Note_on_c, 1, 61, 76
3, 81984, Note_on_c, 1, 73, 76
3, 82080, Note_off_c, 1, 73, 0
3, 82080, Note_off_c, 1, 61, 0
3, 82080, Note_on_c, 1, 72, 76
3, 82080, Note_on_c, 1, 60, 76
3, 82176, Note_off_c, 1, 60, 0
3, 82176, Note_off_c, 1, 72, 0
3, 82368, Note_on_c, 1, 60, 76
3, 82368, Note_on_c, 1, 72, 76
3, 82464, Note_off_c, 1, 72, 0
3, 82464, Note_off_c, 1, 60, 0
3, 82464, Note_on_c, 1, 72, 76
3, 82464, Note_on_c, 1, 60, 76
3, 82560, Note_off_c, 1, 60, 0
3, 82560, Note_off_c, 1, 72, 0
3, 82560, Note_on_c, 1, 72, 76
3, 82560, Note_on_c, 1, 60, 76
3, 82656, Note_off_c, 1, 60, 0
3, 82656, Note_off_c, 1, 72, 0
3, 82752, Note_on_c, 1, 72, 76
3, 82752, Note_on_c, 1, 60, 76
3, 82944, Note_off_c, 1, 60, 0
3, 82944, Note_off_c, 1, 72, 0
3, 82944, Note_on_c, 1, 57, 76
3, 82944, Note_on_c, 1, 71, 76
3, 83040, Note_off_c, 1, 71, 0
3, 83040, Note_off_c, 1, 57, 0
3, 83040, Note_on_c, 1, 72, 76
3, 83040, Note_on_c, 1, 60, 76
3, 83136, Note_off_c, 1, 60, 0
3, 83136, Note_off_c, 1, 72, 0
3, 83136, Note_on_c, 1, 73, 76
3, 83136, Note_on_c, 1, 57, 76
3, 83232, Note_off_c, 1, 57, 0
3, 83232, Note_off_c, 1, 73, 0
3, 83232, Note_on_c, 1, 72, 76
3, 83232, Note_on_c, 1, 60, 76
3, 83328, Note_off_c, 1, 60, 0
3, 83328, Note_off_c, 1, 72, 0
3, 83328, Note_on_c, 1, 57, 76
3, 83328, Note_on_c, 1, 71, 76
3, 83424, Note_off_c, 1, 71, 0
3, 83424, Note_off_c, 1, 57, 0
3, 83424, Note_on_c, 1, 72, 76
3, 83424, Note_on_c, 1, 60, 76
3, 83520, Note_off_c, 1, 60, 0
3, 83520, Note_off_c, 1, 72, 0
3, 83520, Note_on_c, 1, 57, 76
3, 83520, Note_on_c, 1, 73, 76
3, 83616, Note_off_c, 1, 73, 0
3, 83616, Note_off_c, 1, 57, 0
3, 83616, Note_on_c, 1, 72, 76
3, 83616, Note_on_c, 1, 60, 76
3, 83712, Note_off_c, 1, 60, 0
3, 83712, Note_off_c, 1, 72, 0
3, 83712, Note_on_c, 1, 72, 76
3, 83712, Note_on_c, 1, 57, 76
3, 83808, Note_off_c, 1, 57, 0
3, 83808, Note_off_c, 1, 72, 0
3, 83808, Note_on_c, 1, 73, 76
3, 83808, Note_on_c, 1, 60, 76
3, 83904, Note_off_c, 1, 60, 0
3, 83904, Note_off_c, 1, 73, 0
3, 83904, Note_on_c, 1, 74, 76
3, 83904, Note_on_c, 1, 57, 76
3, 84000, Note_off_c, 1, 57, 0
3, 84000, Note_off_c, 1, 74, 0
3, 84000, Note_on_c, 1, 72, 76
3, 84000, Note_on_c, 1, 60, 76
3, 84096, Note_off_c, 1, 60, 0
3, 84096, Note_off_c, 1, 72, 0
3, 84096, Note_on_c, 1, 72, 76
3, 84480, Note_off_c, 1, 72, 0
3, 84480, End_track
4, 0, Start_track
4, 0, Title_t, "Scifi"
4, 0, Program_c, 2, 99
4, 9216, Note_on_c, 2, 72, 60
4, 9216, Note_on_c, 2, 60, 60
4, 9312, Note_off_c, 2, 60, 0
4, 9312, Note_off_c, 2, 72, 0
4, 9408, Note_on_c, 2, 72, 60
4, 9408, Note_on_c, 2, 60, 60
4, 9504, Note_off_c, 2, 60, 0
4, 9504, Note_off_c, 2, 72, 0
4, 9600, Note_on_c, 2, 73, 60
4, 9600, Note_on_c, 2, 61, 60
4, 9696, Note_off_c, 2, 61, 0
4, 9696, Note_off_c, 2, 73, 0
4, 9792, Note_on_c, 2, 72, 60
4, 9792, Note_on_c, 2, 60, 60
4, 9888, Note_off_c, 2, 60, 0
4, 9888, Note_off_c, 2, 72, 0
4, 9984, Note_on_c, 2, 70, 60
4, 9984, Note_on_c, 2, 58, 60
4, 10080, Note_off_c, 2, 58, 0
4, 10080, Note_off_c, 2, 70, 0
4, 10176, Note_on_c, 2, 68, 60
4, 10176, Note_on_c, 2, 56, 60
4, 10272, Note_off_c, 2, 56, 0
4, 10272, Note_off_c, 2, 68, 0
4, 10368, Note_on_c, 2, 60, 60
4, 10368, Note_on_c, 2, 72, 60
4, 10656, Note_off_c, 2, 72, 0
4, 10656, Note_off_c, 2, 60, 0
4, 16896, Note_on_c, 2, 60, 60
4, 16896, Note_on_c, 2, 72, 60
4, 16992, Note_off_c, 2, 72, 0
4, 16992, Note_off_c, 2, 60, 0
4, 17088, Note_on_c, 2, 60, 60
4, 17088, Note_on_c, 2, 72, 60
4, 17184, Note_off_c, 2, 72, 0
4, 17184, Note_off_c, 2, 60, 0
4, 17280, Note_on_c, 2, 73, 60
4, 17280, Note_on_c, 2, 61, 60
4, 17376, Note_off_c, 2, 61, 0
4, 17376, Note_off_c, 2, 73, 0
4, 17472, Note_on_c, 2, 72, 60
4, 17472, Note_on_c, 2, 60, 60
4, 17568, Note_off_c, 2, 60, 0
4, 17568, Note_off_c, 2, 72, 0
4, 17664, Note_on_c, 2, 70, 60
4, 17664, Note_on_c, 2, 58, 60
4, 17760, Note_off_c, 2, 58, 0
4, 17760, Note_off_c, 2, 70, 0
4, 17856, Note_on_c, 2, 68, 60
4, 17856, Note_on_c, 2, 56, 60
4, 17952, Note_off_c, 2, 56, 0
4, 17952, Note_off_c, 2, 68, 0
4, 18048, Note_on_c, 2, 72, 60
4, 18048, Note_on_c, 2, 60, 60
4, 18336, Note_off_c, 2, 60, 0
4, 18336, Note_off_c, 2, 72, 0
4, 24000, Note_on_c, 2, 72, 60
4, 24096, Note_off_c, 2, 72, 0
4, 24192, Note_on_c, 2, 72, 60
4, 24288, Note_off_c, 2, 72, 0
4, 24384, Note_on_c, 2, 72, 60
4, 24576, Note_off_c, 2, 72, 0
4, 30144, Note_on_c, 2, 72, 60
4, 30240, Note_off_c, 2, 72, 0
4, 30336, Note_on_c, 2, 72, 60
4, 30432, Note_off_c, 2, 72, 0
4, 30528, Note_on_c, 2, 72, 60
4, 30720, Note_off_c, 2, 72, 0
4, 31680, Note_on_c, 2, 72, 60
4, 31680, Note_on_c, 2, 60, 60
4, 31776, Note_off_c, 2, 60, 0
4, 31776, Note_off_c, 2, 72, 0
4, 31776, Note_on_c, 2, 72, 60
4, 31776, Note_on_c, 2, 60, 60
4, 31872, Note_off_c, 2, 60, 0
4, 31872, Note_off_c, 2, 72, 0
4, 31872, Note_on_c, 2, 72, 60
4, 31872, Note_on_c, 2, 60, 60
4, 31968, Note_off_c, 2, 60, 0
4, 31968, Note_off_c, 2, 72, 0
4, 32064, Note_on_c, 2, 72, 60
4, 32064, Note_on_c, 2, 60, 60
4, 32256, Note_off_c, 2, 60, 0
4, 32256, Note_off_c, 2, 72, 0
4, 33216, Note_on_c, 2, 72, 60
4, 33216, Note_on_c, 2, 60, 60
4, 33312, Note_off_c, 2, 60, 0
4, 33312, Note_off_c, 2, 72, 0
4, 33408, Note_on_c, 2, 72, 60
4, 33408, Note_on_c, 2, 60, 60
4, 33504, Note_off_c, 2, 60, 0
4, 33504, Note_off_c, 2, 72, 0
4, 33600, Note_on_c, 2, 72, 60
4, 33600, Note_on_c, 2, 60, 60
4, 33792, Note_off_c, 2, 60, 0
4, 33792, Note_off_c, 2, 72, 0
4, 34752, Note_on_c, 2, 72, 60
4, 34752, Note_on_c, 2, 60, 60
4, 34848, Note_off_c, 2, 60, 0
4, 34848, Note_off_c, 2, 72, 0
4, 34848, Note_on_c, 2, 72, 60
4, 34848, Note_on_c, 2, 60, 60
4, 34944, Note_off_c, 2, 60, 0
4, 34944, Note_off_c, 2, 72, 0
4, 34944, Note_on_c, 2, 72, 60
4, 34944, Note_on_c, 2, 60, 60
4, 35040, Note_off_c, 2, 60, 0
4, 35040, Note_off_c, 2, 72, 0
4, 35136, Note_on_c, 2, 72, 60
4, 35136, Note_on_c, 2, 60, 60
4, 35328, Note_off_c, 2, 60, 0
4, 35328, Note_off_c, 2, 72, 0
4, 36288, Note_on_c, 2, 72, 60
4, 36288, Note_on_c, 2, 60, 60
4, 36384, Note_off_c, 2, 60, 0
4, 36384, Note_off_c, 2, 72, 0
4, 36480, Note_on_c, 2, 60, 60
4, 36480, Note_on_c, 2, 72, 60
4, 36576, Note_off_c, 2, 72, 0
4, 36576, Note_off_c, 2, 60, 0
4, 36672, Note_on_c, 2, 72, 60
4, 36672, Note_on_c, 2, 60, 60
4, 36864, Note_off_c, 2, 60, 0
4, 36864, Note_off_c, 2, 72, 0
4, 37824, Note_on_c, 2, 72, 60
4, 37824, Note_on_c, 2, 60, 60
4, 37920, Note_off_c, 2, 60, 0
4, 37920, Note_off_c, 2, 72, 0
4, 37920, Note_on_c, 2, 72, 60
4, 37920, Note_on_c, 2, 60, 60
4, 38016, Note_off_c, 2, 60, 0
4, 38016, Note_off_c, 2, 72, 0
4, 38016, Note_on_c, 2, 60, 60
4, 38016, Note_on_c, 2, 72, 60
4, 38112, Note_off_c, 2, 72, 0
4, 38112, Note_off_c, 2, 60, 0
4, 38208, Note_on_c, 2, 72, 60
4, 38208, Note_on_c, 2, 60, 60
4, 38400, Note_off_c, 2, 60, 0
4, 38400, Note_off_c, 2, 72, 0
4, 39360, Note_on_c, 2, 72, 60
4, 39360, Note_on_c, 2, 60, 60
4, 39456, Note_off_c, 2, 60, 0
4, 39456, Note_off_c, 2, 72, 0
4, 39552, Note_on_c, 2, 72, 60
4, 39552, Note_on_c, 2, 60, 60
4, 39648, Note_off_c, 2, 60, 0
4, 39648, Note_off_c, 2, 72, 0
4, 39744, Note_on_c, 2, 72, 60
4, 39744, Note_on_c, 2, 60, 60
4, 39936, Note_off_c, 2, 60, 0
4, 39936, Note_off_c, 2, 72, 0
4, 40896, Note_on_c, 2, 72, 60
4, 40896, Note_on_c, 2, 60, 60
4, 40992, Note_off_c, 2, 60, 0
4, 40992, Note_off_c, 2, 72, 0
4, 40992, Note_on_c, 2, 72, 60
4, 40992, Note_on_c, 2, 60, 60
4, 41088, Note_off_c, 2, 60, 0
4, 41088, Note_off_c, 2, 72, 0
4, 41088, Note_on_c, 2, 72, 60
4, 41088, Note_on_c, 2, 60, 60
4, 41184, Note_off_c, 2, 60, 0
4, 41184, Note_off_c, 2, 72, 0
4, 41280, Note_on_c, 2, 72, 60
4, 41280, Note_on_c, 2, 60, 60
4, 41472, Note_off_c, 2, 60, 0
4, 41472, Note_off_c, 2, 72, 0
4, 42432, Note_on_c, 2, 72, 60
4, 42432, Note_on_c, 2, 60, 60
4, 42528, Note_off_c, 2, 60, 0
4, 42528, Note_off_c, 2, 72, 0
4, 42624, Note_on_c, 2, 72, 60
4, 42624, Note_on_c, 2, 60, 60
4, 42720, Note_off_c, 2, 60, 0
4, 42720, Note_off_c, 2, 72, 0
4, 42816, Note_on_c, 2, 72, 60
4, 42816, Note_on_c, 2, 60, 60
4, 43008, Note_off_c, 2, 60, 0
4, 43008, Note_off_c, 2, 72, 0
4, 50688, Note_on_c, 2, 72, 60
4, 50688, Note_on_c, 2, 60, 60
4, 50784, Note_off_c, 2, 60, 0
4, 50784, Note_off_c, 2, 72, 0
4, 50880, Note_on_c, 2, 72, 60
4, 50880, Note_on_c, 2, 60, 60
4, 50976, Note_off_c, 2, 60, 0
4, 50976, Note_off_c, 2, 72, 0
4, 51072, Note_on_c, 2, 73, 60
4, 51072, Note_on_c, 2, 61, 60
4, 51168, Note_off_c, 2, 61, 0
4, 51168, Note_off_c, 2, 73, 0
4, 51264, Note_on_c, 2, 72, 60
4, 51264, Note_on_c, 2, 60, 60
4, 51360, Note_off_c, 2, 60, 0
4, 51360, Note_off_c, 2, 72, 0
4, 51456, Note_on_c, 2, 70, 60
4, 51456, Note_on_c, 2, 58, 60
4, 51552, Note_off_c, 2, 58, 0
4, 51552, Note_off_c, 2, 70, 0
4, 51648, Note_on_c, 2, 68, 60
4, 51648, Note_on_c, 2, 56, 60
4, 51744, Note_off_c, 2, 56, 0
4, 51744, Note_off_c, 2, 68, 0
4, 51840, Note_on_c, 2, 60, 60
4, 51840, Note_on_c, 2, 72, 60
4, 52128, Note_off_c, 2, 72, 0
4, 52128, Note_off_c, 2, 60, 0
4, 58368, Note_on_c, 2, 60, 60
4, 58368, Note_on_c, 2, 72, 60
4, 58464, Note_off_c, 2, 72, 0
4, 58464, Note_off_c, 2, 60, 0
4, 58560, Note_on_c, 2, 60, 60
4, 58560, Note_on_c, 2, 72, 60
4, 58656, Note_off_c, 2, 72, 0
4, 58656, Note_off_c, 2, 60, 0
4, 58752, Note_on_c, 2, 73, 60
4, 58752, Note_on_c, 2, 61, 60
4, 58848, Note_off_c, 2, 61, 0
4, 58848, Note_off_c, 2, 73, 0
4, 58944, Note_on_c, 2, 72, 60
4, 58944, Note_on_c, 2, 60, 60
4, 59040, Note_off_c, 2, 60, 0
4, 59040, Note_off_c, 2, 72, 0
4, 59136, Note_on_c, 2, 70, 60
4, 59136, Note_on_c, 2, 58, 60
4, 59232, Note_off_c, 2, 58, 0
4, 59232, Note_off_c, 2, 70, 0
4, 59328, Note_on_c, 2, 68, 60
4, 59328, Note_on_c, 2, 56, 60
4, 59424, Note_off_c, 2, 56, 0
4, 59424, Note_off_c, 2, 68, 0
4, 59520, Note_on_c, 2, 72, 60
4, 59520, Note_on_c, 2, 60, 60
4, 59808, Note_off_c, 2, 60, 0
4, 59808, Note_off_c, 2, 72, 0
4, 64512, Note_on_c, 2, 74, 60
4, 64512, Note_on_c, 2, 62, 60
4, 64608, Note_off_c, 2, 62, 0
4, 64608, Note_off_c, 2, 74, 0
4, 64704, Note_on_c, 2, 74, 60
4, 64704, Note_on_c, 2, 62, 60
4, 64800, Note_off_c, 2, 62, 0
4, 64800, Note_off_c, 2, 74, 0
4, 64896, Note_on_c, 2, 74, 60
4, 64896, Note_on_c, 2, 62, 60
4, 64992, Note_off_c, 2, 62, 0
4, 64992, Note_off_c, 2, 74, 0
4, 65088, Note_on_c, 2, 74, 60
4, 65088, Note_on_c, 2, 62, 60
4, 65184, Note_off_c, 2, 62, 0
4, 65184, Note_off_c, 2, 74, 0
4, 65280, Note_on_c, 2, 74, 60
4, 65280, Note_on_c, 2, 62, 60
4, 65376, Note_off_c, 2, 62, 0
4, 65376, Note_off_c, 2, 74, 0
4, 65472, Note_on_c, 2, 74, 60
4, 65472, Note_on_c, 2, 62, 60
4, 65568, Note_off_c, 2, 62, 0
4, 65568, Note_off_c, 2, 74, 0
4, 65664, Note_on_c, 2, 74, 60
4, 65664, Note_on_c, 2, 62, 60
4, 65760, Note_off_c, 2, 62, 0
4, 65760, Note_off_c, 2, 74, 0
4, 65856, Note_on_c, 2, 74, 60
4, 65856, Note_on_c, 2, 62, 60
4, 65952, Note_off_c, 2, 62, 0
4, 65952, Note_off_c, 2, 74, 0
4, 70656, Note_on_c, 2, 74, 60
4, 70656, Note_on_c, 2, 62, 60
4, 70752, Note_off_c, 2, 62, 0
4, 70752, Note_off_c, 2, 74, 0
4, 70848, Note_on_c, 2, 74, 60
4, 70848, Note_on_c, 2, 62, 60
4, 70944, Note_off_c, 2, 62, 0
4, 70944, Note_off_c, 2, 74, 0
4, 71040, Note_on_c, 2, 74, 60
4, 71040, Note_on_c, 2, 62, 60
4, 71136, Note_off_c, 2, 62, 0
4, 71136, Note_off_c, 2, 74, 0
4, 71232, Note_on_c, 2, 74, 60
4, 71232, Note_on_c, 2, 62, 60
4, 71328, Note_off_c, 2, 62, 0
4, 71328, Note_off_c, 2, 74, 0
4, 71424, Note_on_c, 2, 74, 60
4, 71424, Note_on_c, 2, 62, 60
4, 71520, Note_off_c, 2, 62, 0
4, 71520, Note_off_c, 2, 74, 0
4, 71616, Note_on_c, 2, 74, 60
4, 71616, Note_on_c, 2, 62, 60
4, 71712, Note_off_c, 2, 62, 0
4, 71712, Note_off_c, 2, 74, 0
4, 71808, Note_on_c, 2, 74, 60
4, 71808, Note_on_c, 2, 62, 60
4, 71904, Note_off_c, 2, 62, 0
4, 71904, Note_off_c, 2, 74, 0
4, 72000, Note_on_c, 2, 74, 60
4, 72000, Note_on_c, 2, 62, 60
4, 72096, Note_off_c, 2, 62, 0
4, 72096, Note_off_c, 2, 74, 0
4, 73152, Note_on_c, 2, 72, 60
4, 73152, Note_on_c, 2, 60, 60
4, 73248, Note_off_c, 2, 60, 0
4, 73248, Note_off_c, 2, 72, 0
4, 73248, Note_on_c, 2, 72, 60
4, 73248, Note_on_c, 2, 60, 60
4, 73344, Note_off_c, 2, 60, 0
4, 73344, Note_off_c, 2, 72, 0
4, 73344, Note_on_c, 2, 72, 60
4, 73344, Note_on_c, 2, 60, 60
4, 73440, Note_off_c, 2, 60, 0
4, 73440, Note_off_c, 2, 72, 0
4, 73536, Note_on_c, 2, 72, 60
4, 73536, Note_on_c, 2, 60, 60
4, 73728, Note_off_c, 2, 60, 0
4, 73728, Note_off_c, 2, 72, 0
4, 74688, Note_on_c, 2, 72, 60
4, 74688, Note_on_c, 2, 60, 60
4, 74784, Note_off_c, 2, 60, 0
4, 74784, Note_off_c, 2, 72, 0
4, 74880, Note_on_c, 2, 72, 60
4, 74880, Note_on_c, 2, 60, 60
4, 74976, Note_off_c, 2, 60, 0
4, 74976, Note_off_c, 2, 72, 0
4, 75072, Note_on_c, 2, 72, 60
4, 75072, Note_on_c, 2, 60, 60
4, 75264, Note_off_c, 2, 60, 0
4, 75264, Note_off_c, 2, 72, 0
4, 76224, Note_on_c, 2, 72, 60
4, 76224, Note_on_c, 2, 60, 60
4, 76320, Note_off_c, 2, 60, 0
4, 76320, Note_off_c, 2, 72, 0
4, 76320, Note_on_c, 2, 72, 60
4, 76320, Note_on_c, 2, 60, 60
4, 76416, Note_off_c, 2, 60, 0
4, 76416, Note_off_c, 2, 72, 0
4, 76416, Note_on_c, 2, 72, 60
4, 76416, Note_on_c, 2, 60, 60
4, 76512, Note_off_c, 2, 60, 0
4, 76512, Note_off_c, 2, 72, 0
4, 76608, Note_on_c, 2, 72, 60
4, 76608, Note_on_c, 2, 60, 60
4, 76800, Note_off_c, 2, 60, 0
4, 76800, Note_off_c, 2, 72, 0
4, 77760, Note_on_c, 2, 72, 60
4, 77760, Note_on_c, 2, 60, 60
4, 77856, Note_off_c, 2, 60, 0
4, 77856, Note_off_c, 2, 72, 0
4, 77952, Note_on_c, 2, 60, 60
4, 77952, Note_on_c, 2, 72, 60
4, 78048, Note_off_c, 2, 72, 0
4, 78048, Note_off_c, 2, 60, 0
4, 78144, Note_on_c, 2, 72, 60
4, 78144, Note_on_c, 2, 60, 60
4, 78336, Note_off_c, 2, 60, 0
4, 78336, Note_off_c, 2, 72, 0
4, 79296, Note_on_c, 2, 72, 60
4, 79296, Note_on_c, 2, 60, 60
4, 79392, Note_off_c, 2, 60, 0
4, 79392, Note_off_c, 2, 72, 0
4, 79392, Note_on_c, 2, 72, 60
4, 79392, Note_on_c, 2, 60, 60
4, 79488, Note_off_c, 2, 60, 0
4, 79488, Note_off_c, 2, 72, 0
4, 79488, Note_on_c, 2, 60, 60
4, 79488, Note_on_c, 2, 72, 60
4, 79584, Note_off_c, 2, 72, 0
4, 79584, Note_off_c, 2, 60, 0
4, 79680, Note_on_c, 2, 72, 60
4, 79680, Note_on_c, 2, 60, 60
4, 79872, Note_off_c, 2, 60, 0
4, 79872, Note_off_c, 2, 72, 0
4, 80832, Note_on_c, 2, 72, 60
4, 80832, Note_on_c, 2, 60, 60
4, 80928, Note_off_c, 2, 60, 0
4, 80928, Note_off_c, 2, 72, 0
4, 81024, Note_on_c, 2, 72, 60
4, 81024, Note_on_c, 2, 60, 60
4, 81120, Note_off_c, 2, 60, 0
4, 81120, Note_off_c, 2, 72, 0
4, 81216, Note_on_c, 2, 72, 60
4, 81216, Note_on_c, 2, 60, 60
4, 81408, Note_off_c, 2, 60, 0
4, 81408, Note_off_c, 2, 72, 0
4, 82368, Note_on_c, 2, 72, 60
4, 82368, Note_on_c, 2, 60, 60
4, 82464, Note_off_c, 2, 60, 0
4, 82464, Note_off_c, 2, 72, 0
4, 82464, Note_on_c, 2, 72, 60
4, 82464, Note_on_c, 2, 60, 60
4, 82560, Note_off_c, 2, 60, 0
4, 82560, Note_off_c, 2, 72, 0
4, 82560, Note_on_c, 2, 72, 60
4, 82560, Note_on_c, 2, 60, 60
4, 82656, Note_off_c, 2, 60, 0
4, 82656, Note_off_c, 2, 72, 0
4, 82752, Note_on_c, 2, 72, 60
4, 82752, Note_on_c, 2, 60, 60
4, 82944, Note_off_c, 2, 60, 0
4, 82944, Note_off_c, 2, 72, 0
4, 83904, Note_on_c, 2, 72, 60
4, 83904, Note_on_c, 2, 60, 60
4, 84000, Note_off_c, 2, 60, 0
4, 84000, Note_off_c, 2, 72, 0
4, 84096, Note_on_c, 2, 72, 60
4, 84096, Note_on_c, 2, 60, 60
4, 84192, Note_off_c, 2, 60, 0
4, 84192, Note_off_c, 2, 72, 0
4, 84288, Note_on_c, 2, 72, 60
4, 84288, Note_on_c, 2, 60, 60
4, 84480, Note_off_c, 2, 60, 0
4, 84480, Note_off_c, 2, 72, 0
4, 84480, End_track
5, 0, Start_track
5, 0, Title_t, "Synth Pluck"
5, 0, Program_c, 3, 87
5, 18432, Note_on_c, 3, 67, 82
5, 18432, Note_on_c, 3, 55, 82
5, 18624, Note_off_c, 3, 55, 0
5, 18624, Note_off_c, 3, 67, 0
5, 18624, Note_on_c, 3, 69, 82
5, 18624, Note_on_c, 3, 57, 82
5, 18720, Note_off_c, 3, 57, 0
5, 18720, Note_off_c, 3, 69, 0
5, 18816, Note_on_c, 3, 72, 82
5, 18816, Note_on_c, 3, 60, 82
5, 19008, Note_off_c, 3, 60, 0
5, 19008, Note_off_c, 3, 72, 0
5, 19008, Note_on_c, 3, 61, 82
5, 19008, Note_on_c, 3, 73, 82
5, 19104, Note_off_c, 3, 73, 0
5, 19104, Note_off_c, 3, 61, 0
5, 19104, Note_on_c, 3, 72, 82
5, 19104, Note_on_c, 3, 60, 82
5, 19200, Note_off_c, 3, 60, 0
5, 19200, Note_off_c, 3, 72, 0
5, 19392, Note_on_c, 3, 72, 82
5, 19392, Note_on_c, 3, 60, 82
5, 19488, Note_off_c, 3, 60, 0
5, 19488, Note_off_c, 3, 72, 0
5, 19488, Note_on_c, 3, 72, 82
5, 19488, Note_on_c, 3, 60, 82
5, 19584, Note_off_c, 3, 60, 0
5, 19584, Note_off_c, 3, 72, 0
5, 19584, Note_on_c, 3, 72, 82
5, 19584, Note_on_c, 3, 60, 82
5, 19680, Note_off_c, 3, 60, 0
5, 19680, Note_off_c, 3, 72, 0
5, 19776, Note_on_c, 3, 72, 82
5, 19776, Note_on_c, 3, 60, 82
5, 19872, Note_off_c, 3, 60, 0
5, 19872, Note_off_c, 3, 72, 0
5, 19968, Note_on_c, 3, 55, 82
5, 19968, Note_on_c, 3, 67, 82
5, 20160, Note_off_c, 3, 67, 0
5, 20160, Note_off_c, 3, 55, 0
5, 20160, Note_on_c, 3, 57, 82
5, 20160, Note_on_c, 3, 69, 82
5, 20256, Note_off_c, 3, 69, 0
5, 20256, Note_off_c, 3, 57, 0
5, 20352, Note_on_c, 3, 60, 82
5, 20352, Note_on_c, 3, 72, 82
5, 20544, Note_off_c, 3, 72, 0
5, 20544, Note_off_c, 3, 60, 0
5, 20544, Note_on_c, 3, 73, 82
5, 20544, Note_on_c, 3, 61, 82
5, 20640, Note_off_c, 3, 61, 0
5, 20640, Note_off_c, 3, 73, 0
5, 20640, Note_on_c, 3, 72, 82
5, 20640, Note_on_c, 3, 60, 82
5, 20736, Note_off_c, 3, 60, 0
5, 20736, Note_off_c, 3, 72, 0
5, 20928, Note_on_c, 3, 72, 82
5, 20928, Note_on_c, 3, 60, 82
5, 21024, Note_off_c, 3, 60, 0
5, 21024, Note_off_c, 3, 72, 0
5, 21024, Note_on_c, 3, 72, 82
5, 21024, Note_on_c, 3, 60, 82
5, 21120, Note_off_c, 3, 60, 0
5, 21120, Note_off_c, 3, 72, 0
5, 21120, Note_on_c, 3, 72, 82
5, 21120, Note_on_c, 3, 60, 82
5, 21216, Note_off_c, 3, 60, 0
5, 21216, Note_off_c, 3, 72, 0
5, 21312, Note_on_c, 3, 72, 82
5, 21312, Note_on_c, 3, 60, 82
5, 21408, Note_off_c, 3, 60, 0
5, 21408, Note_off_c, 3, 72, 0
5, 21504, Note_on_c, 3, 67, 82
5, 21504, Note_on_c, 3, 55, 82
5, 21696, Note_off_c, 3, 55, 0
5, 21696, Note_off_c, 3, 67, 0
5, 21696, Note_on_c, 3, 57, 82
5, 21696, Note_on_c, 3, 69, 82
5, 21792, Note_off_c, 3, 69, 0
5, 21792, Note_off_c, 3, 57, 0
5, 21888, Note_on_c, 3, 72, 82
5, 21888, Note_on_c, 3, 60, 82
5, 22080, Note_off_c, 3, 60, 0
5, 22080, Note_off_c, 3, 72, 0
5, 22080, Note_on_c, 3, 61, 82
5, 22080, Note_on_c, 3, 73, 82
5, 22176, Note_off_c, 3, 73, 0
5, 22176, Note_off_c, 3, 61, 0
5, 22176, Note_on_c, 3, 72, 82
5, 22176, Note_on_c, 3, 60, 82
5, 22272, Note_off_c, 3, 60, 0
5, 22272, Note_off_c, 3, 72, 0
5, 22464, Note_on_c, 3, 72, 82
5, 22464, Note_on_c, 3, 60, 82
5, 22560, Note_off_c, 3, 60, 0
5, 22560, Note_off_c, 3, 72, 0
5, 22560, Note_on_c, 3, 72, 82
5, 22560, Note_on_c, 3, 60, 82
5, 22656, Note_off_c, 3, 60, 0
5, 22656, Note_off_c, 3, 72, 0
5, 22656, Note_on_c, 3, 72, 82
5, 22656, Note_on_c, 3, 60, 82
5, 22752, Note_off_c, 3, 60, 0
5, 22752, Note_off_c, 3, 72, 0
5, 22848, Note_on_c, 3, 72, 82
5, 22848, Note_on_c, 3, 60, 82
5, 23040, Note_off_c, 3, 60, 0
5, 23040, Note_off_c, 3, 72, 0
5, 23040, Note_on_c, 3, 71, 82
5, 23040, Note_on_c, 3, 57, 82
5, 23136, Note_off_c, 3, 57, 0
5, 23136, Note_off_c, 3, 71, 0
5, 23136, Note_on_c, 3, 72, 82
5, 23136, Note_on_c, 3, 60, 82
5, 23232, Note_off_c, 3, 60, 0
5, 23232, Note_off_c, 3, 72, 0
5, 23232, Note_on_c, 3, 73, 82
5, 23232, Note_on_c, 3, 57, 82
5, 23328, Note_off_c, 3, 57, 0
5, 23328, Note_off_c, 3, 73, 0
5, 23328, Note_on_c, 3, 60, 82
5, 23328, Note_on_c, 3, 72, 82
5, 23424, Note_off_c, 3, 72, 0
5, 23424, Note_off_c, 3, 60, 0
5, 23424, Note_on_c, 3, 71, 82
5, 23424, Note_on_c, 3, 57, 82
5, 23520, Note_off_c, 3, 57, 0
5, 23520, Note_off_c, 3, 71, 0
5, 23520, Note_on_c, 3, 72, 82
5, 23520, Note_on_c, 3, 60, 82
5, 23616, Note_off_c, 3, 60, 0
5, 23616, Note_off_c, 3, 72, 0
5, 23616, Note_on_c, 3, 73, 82
5, 23616, Note_on_c, 3, 57, 82
5, 23712, Note_off_c, 3, 57, 0
5, 23712, Note_off_c, 3, 73, 0
5, 23712, Note_on_c, 3, 72, 82
5, 23712, Note_on_c, 3, 60, 82
5, 23808, Note_off_c, 3, 60, 0
5, 23808, Note_off_c, 3, 72, 0
5, 23808, Note_on_c, 3, 72, 82
5, 24576, Note_off_c, 3, 72, 0
5, 24576, Note_on_c, 3, 55, 82
5, 24576, Note_on_c, 3, 67, 82
5, 24768, Note_off_c, 3, 67, 0
5, 24768, Note_off_c, 3, 55, 0
5, 24768, Note_on_c, 3, 57, 82
5, 24768, Note_on_c, 3, 69, 82
5, 24864, Note_off_c, 3, 69, 0
5, 24864, Note_off_c, 3, 57, 0
5, 24960, Note_on_c, 3, 60, 82
5, 24960, Note_on_c, 3, 72, 82
5, 25152, Note_off_c, 3, 72, 0
5, 25152, Note_off_c, 3, 60, 0
5, 25152, Note_on_c, 3, 61, 82
5, 25152, Note_on_c, 3, 73, 82
5, 25248, Note_off_c, 3, 73, 0
5, 25248, Note_off_c, 3, 61, 0
5, 25248, Note_on_c, 3, 72, 82
5, 25248, Note_on_c, 3, 60, 82
5, 25344, Note_off_c, 3, 60, 0
5, 25344, Note_off_c, 3, 72, 0
5, 25536, Note_on_c, 3, 72, 82
5, 25536, Note_on_c, 3, 60, 82
5, 25632, Note_off_c, 3, 60, 0
5, 25632, Note_off_c, 3, 72, 0
5, 25632, Note_on_c, 3, 72, 82
5, 25632, Note_on_c, 3, 60, 82
5, 25728, Note_off_c, 3, 60, 0
5, 25728, Note_off_c, 3, 72, 0
5, 25728, Note_on_c, 3, 72, 82
5, 25728, Note_on_c, 3, 60, 82
5, 25824, Note_off_c, 3, 60, 0
5, 25824, Note_off_c, 3, 72, 0
5, 25920, Note_on_c, 3, 72, 82
5, 25920, Note_on_c, 3, 60, 82
5, 26016, Note_off_c, 3, 60, 0
5, 26016, Note_off_c, 3, 72, 0
5, 26112, Note_on_c, 3, 55, 82
5, 26112, Note_on_c, 3, 67, 82
5, 26304, Note_off_c, 3, 67, 0
5, 26304, Note_off_c, 3, 55, 0
5, 26304, Note_on_c, 3, 69, 82
5, 26304, Note_on_c, 3, 57, 82
5, 26400, Note_off_c, 3, 57, 0
5, 26400, Note_off_c, 3, 69, 0
5, 26496, Note_on_c, 3, 72, 82
5, 26496, Note_on_c, 3, 60, 82
5, 26688, Note_off_c, 3, 60, 0
5, 26688, Note_off_c, 3, 72, 0
5, 26688, Note_on_c, 3, 73, 82
5, 26688, Note_on_c, 3, 61, 82
5, 26784, Note_off_c, 3, 61, 0
5, 26784, Note_off_c, 3, 73, 0
5, 26784, Note_on_c, 3, 72, 82
5, 26784, Note_on_c, 3, 60, 82
5, 26880, Note_off_c, 3, 60, 0
5, 26880, Note_off_c, 3, 72, 0
5, 27072, Note_on_c, 3, 72, 82
5, 27072, Note_on_c, 3, 60, 82
5, 27168, Note_off_c, 3, 60, 0
5, 27168, Note_off_c, 3, 72, 0
5, 27168, Note_on_c, 3, 60, 82
5, 27168, Note_on_c, 3, 72, 82
5, 27264, Note_off_c, 3, 72, 0
5, 27264, Note_off_c, 3, 60, 0
5, 27264, Note_on_c, 3, 72, 82
5, 27264, Note_on_c, 3, 60, 82
5, 27360, Note_off_c, 3, 60, 0
5, 27360, Note_off_c, 3, 72, 0
5, 27456, Note_on_c, 3, 72, 82
5, 27456, Note_on_c, 3, 60, 82
5, 27552, Note_off_c, 3, 60, 0
5, 27552, Note_off_c, 3, 72, 0
5, 27648, Note_on_c, 3, 67, 82
5, 27648, Note_on_c, 3, 55, 82
5, 27840, Note_off_c, 3, 55, 0
5, 27840, Note_off_c, 3, 67, 0
5, 27840, Note_on_c, 3, 69, 82
5, 27840, Note_on_c, 3, 57, 82
5, 27936, Note_off_c, 3, 57, 0
5, 27936, Note_off_c, 3, 69, 0
5, 28032, Note_on_c, 3, 72, 82
5, 28032, Note_on_c, 3, 60, 82
5, 28224, Note_off_c, 3, 60, 0
5, 28224, Note_off_c, 3, 72, 0
5, 28224, Note_on_c, 3, 73, 82
5, 28224, Note_on_c, 3, 61, 82
5, 28320, Note_off_c, 3, 61, 0
5, 28320, Note_off_c, 3, 73, 0
5, 28320, Note_on_c, 3, 60, 82
5, 28320, Note_on_c, 3, 72, 82
5, 28416, Note_off_c, 3, 72, 0
5, 28416, Note_off_c, 3, 60, 0
5, 28608, Note_on_c, 3, 60, 82
5, 28608, Note_on_c, 3, 72, 82
5, 28704, Note_off_c, 3, 72, 0
5, 28704, Note_off_c, 3, 60, 0
5, 28704, Note_on_c, 3, 60, 82
5, 28704, Note_on_c, 3, 72, 82
5, 28800, Note_off_c, 3, 72, 0
5, 28800, Note_off_c, 3, 60, 0
5, 28800, Note_on_c, 3, 72, 82
5, 28800, Note_on_c, 3, 60, 82
5, 28896, Note_off_c, 3, 60, 0
5, 28896, Note_off_c, 3, 72, 0
5, 28992, Note_on_c, 3, 72, 82
5, 28992, Note_on_c, 3, 60, 82
5, 29184, Note_off_c, 3, 60, 0
5, 29184, Note_off_c, 3, 72, 0
5, 29184, Note_on_c, 3, 71, 82
5, 29184, Note_on_c, 3, 57, 82
5, 29280, Note_off_c, 3, 57, 0
5, 29280, Note_off_c, 3, 71, 0
5, 29280, Note_on_c, 3, 72, 82
5, 29280, Note_on_c, 3, 60, 82
5, 29376, Note_off_c, 3, 60, 0
5, 29376, Note_off_c, 3, 72, 0
5, 29376, Note_on_c, 3, 73, 82
5, 29376, Note_on_c, 3, 57, 82
5, 29472, Note_off_c, 3, 57, 0
5, 29472, Note_off_c, 3, 73, 0
5, 29472, Note_on_c, 3, 72, 82
5, 29472, Note_on_c, 3, 60, 82
5, 29568, Note_off_c, 3, 60, 0
5, 29568, Note_off_c, 3, 72, 0
5, 29568, Note_on_c, 3, 71, 82
5, 29568, Note_on_c, 3, 57, 82
5, 29664, Note_off_c, 3, 57, 0
5, 29664, Note_off_c, 3, 71, 0
5, 29664, Note_on_c, 3, 72, 82
5, 29664, Note_on_c, 3, 60, 82
5, 29760, Note_off_c, 3, 60, 0
5, 29760, Note_off_c, 3, 72, 0
5, 29760, Note_on_c, 3, 57, 82
5, 29760, Note_on_c, 3, 73, 82
5, 29856, Note_off_c, 3, 73, 0
5, 29856, Note_off_c, 3, 57, 0
5, 29856, Note_on_c, 3, 72, 82
5, 29856, Note_on_c, 3, 60, 82
5, 29952, Note_off_c, 3, 60, 0
5, 29952, Note_off_c, 3, 72, 0
5, 29952, Note_on_c, 3, 72, 82
5, 29952, Note_on_c, 3, 57, 82
5, 30048, Note_off_c, 3, 57, 0
5, 30048, Note_off_c, 3, 72, 0
5, 30048, Note_on_c, 3, 73, 82
5, 30048, Note_on_c, 3, 60, 82
5, 30144, Note_off_c, 3, 60, 0
5, 30144, Note_off_c, 3, 73, 0
5, 30144, Note_on_c, 3, 74, 82
5, 30144, Note_on_c, 3, 57, 82
5, 30240, Note_off_c, 3, 57, 0
5, 30240, Note_off_c, 3, 74, 0
5, 30240, Note_on_c, 3, 72, 82
5, 30240, Note_on_c, 3, 60, 82
5, 30336, Note_off_c, 3, 60, 0
5, 30336, Note_off_c, 3, 72, 0
5, 30336, Note_on_c, 3, 72, 82
5, 30720, Note_off_c, 3, 72, 0
5, 59904, Note_on_c, 3, 72, 82
5, 59904, Note_on_c, 3, 60, 82
5, 60000, Note_off_c, 3, 60, 0
5, 60000, Note_off_c, 3, 72, 0
5, 60000, Note_on_c, 3, 71, 82
5, 60000, Note_on_c, 3, 59, 82
5, 60096, Note_off_c, 3, 59, 0
5, 60096, Note_off_c, 3, 71, 0
5, 60096, Note_on_c, 3, 72, 82
5, 60096, Note_on_c, 3, 60, 82
5, 60192, Note_off_c, 3, 60, 0
5, 60192, Note_off_c, 3, 72, 0
5, 60192, Note_on_c, 3, 69, 82
5, 60192, Note_on_c, 3, 57, 82
5, 60288, Note_off_c, 3, 57, 0
5, 60288, Note_off_c, 3, 69, 0
5, 60288, Note_on_c, 3, 67, 82
5, 60288, Note_on_c, 3, 55, 82
5, 60384, Note_off_c, 3, 55, 0
5, 60384, Note_off_c, 3, 67, 0
5, 60384, Note_on_c, 3, 69, 82
5, 60384, Note_on_c, 3, 57, 82
5, 60480, Note_off_c, 3, 57, 0
5, 60480, Note_off_c, 3, 69, 0
5, 60480, Note_on_c, 3, 72, 82
5, 60480, Note_on_c, 3, 60, 82
5, 60576, Note_off_c, 3, 60, 0
5, 60576, Note_off_c, 3, 72, 0
5, 60576, Note_on_c, 3, 74, 82
5, 60576, Note_on_c, 3, 62, 82
5, 60672, Note_off_c, 3, 62, 0
5, 60672, Note_off_c, 3, 74, 0
5, 60672, Note_on_c, 3, 76, 82
5, 60672, Note_on_c, 3, 64, 82
5, 60768, Note_off_c, 3, 64, 0
5, 60768, Note_off_c, 3, 76, 0
5, 60768, Note_on_c, 3, 74, 82
5, 60768, Note_on_c, 3, 62, 82
5, 60864, Note_off_c, 3, 62, 0
5, 60864, Note_off_c, 3, 74, 0
5, 60864, Note_on_c, 3, 76, 82
5, 60864, Note_on_c, 3, 64, 82
5, 60960, Note_off_c, 3, 64, 0
5, 60960, Note_off_c, 3, 76, 0
5, 60960, Note_on_c, 3, 74, 82
5, 60960, Note_on_c, 3, 62, 82
5, 61056, Note_off_c, 3, 62, 0
5, 61056, Note_off_c, 3, 74, 0
5, 61056, Note_on_c, 3, 72, 82
5, 61056, Note_on_c, 3, 60, 82
5, 61152, Note_off_c, 3, 60, 0
5, 61152, Note_off_c, 3, 72, 0
5, 61344, Note_on_c, 3, 69, 82
5, 61344, Note_on_c, 3, 57, 82
5, 61440, Note_off_c, 3, 57, 0
5, 61440, Note_off_c, 3, 69, 0
5, 61440, Note_on_c, 3, 72, 82
5, 61440, Note_on_c, 3, 60, 82
5, 61536, Note_off_c, 3, 60, 0
5, 61536, Note_off_c, 3, 72, 0
5, 61536, Note_on_c, 3, 71, 82
5, 61536, Note_on_c, 3, 59, 82
5, 61632, Note_off_c, 3, 59, 0
5, 61632, Note_off_c, 3, 71, 0
5, 61632, Note_on_c, 3, 72, 82
5, 61632, Note_on_c, 3, 60, 82
5, 61728, Note_off_c, 3, 60, 0
5, 61728, Note_off_c, 3, 72, 0
5, 61728, Note_on_c, 3, 69, 82
5, 61728, Note_on_c, 3, 57, 82
5, 61824, Note_off_c, 3, 57, 0
5, 61824, Note_off_c, 3, 69, 0
5, 61824, Note_on_c, 3, 67, 82
5, 61824, Note_on_c, 3, 55, 82
5, 61920, Note_off_c, 3, 55, 0
5, 61920, Note_off_c, 3, 67, 0
5, 61920, Note_on_c, 3, 69, 82
5, 61920, Note_on_c, 3, 57, 82
5, 62016, Note_off_c, 3, 57, 0
5, 62016, Note_off_c, 3, 69, 0
5, 62016, Note_on_c, 3, 72, 82
5, 62016, Note_on_c, 3, 60, 82
5, 62112, Note_off_c, 3, 60, 0
5, 62112, Note_off_c, 3, 72, 0
5, 62112, Note_on_c, 3, 74, 82
5, 62112, Note_on_c, 3, 62, 82
5, 62208, Note_off_c, 3, 62, 0
5, 62208, Note_off_c, 3, 74, 0
5, 62208, Note_on_c, 3, 76, 82
5, 62208, Note_on_c, 3, 64, 82
5, 62304, Note_off_c, 3, 64, 0
5, 62304, Note_off_c, 3, 76, 0
5, 62304, Note_on_c, 3, 74, 82
5, 62304, Note_on_c, 3, 62, 82
5, 62400, Note_off_c, 3, 62, 0
5, 62400, Note_off_c, 3, 74, 0
5, 62400, Note_on_c, 3, 76, 82
5, 62400, Note_on_c, 3, 64, 82
5, 62496, Note_off_c, 3, 64, 0
5, 62496, Note_off_c, 3, 76, 0
5, 62496, Note_on_c, 3, 74, 82
5, 62496, Note_on_c, 3, 62, 82
5, 62592, Note_off_c, 3, 62, 0
5, 62592, Note_off_c, 3, 74, 0
5, 62592, Note_on_c, 3, 72, 82
5, 62592, Note_on_c, 3, 60, 82
5, 62688, Note_off_c, 3, 60, 0
5, 62688, Note_off_c, 3, 72, 0
5, 62880, Note_on_c, 3, 69, 82
5, 62880, Note_on_c, 3, 57, 82
5, 62976, Note_off_c, 3, 57, 0
5, 62976, Note_off_c, 3, 69, 0
5, 62976, Note_on_c, 3, 72, 82
5, 62976, Note_on_c, 3, 60, 82
5, 63072, Note_off_c, 3, 60, 0
5, 63072, Note_off_c, 3, 72, 0
5, 63072, Note_on_c, 3, 71, 82
5, 63072, Note_on_c, 3, 59, 82
5, 63168, Note_off_c, 3, 59, 0
5, 63168, Note_off_c, 3, 71, 0
5, 63168, Note_on_c, 3, 72, 82
5, 63168, Note_on_c, 3, 60, 82
5, 63264, Note_off_c, 3, 60, 0
5, 63264, Note_off_c, 3, 72, 0
5, 63264, Note_on_c, 3, 69, 82
5, 63264, Note_on_c, 3, 57, 82
5, 63360, Note_off_c, 3, 57, 0
5, 63360, Note_off_c, 3, 69, 0
5, 63360, Note_on_c, 3, 67, 82
5, 63360, Note_on_c, 3, 55, 82
5, 63456, Note_off_c, 3, 55, 0
5, 63456, Note_off_c, 3, 67, 0
5, 63456, Note_on_c, 3, 69, 82
5, 63456, Note_on_c, 3, 57, 82
5, 63552, Note_off_c, 3, 57, 0
5, 63552, Note_off_c, 3, 69, 0
5, 63552, Note_on_c, 3, 72, 82
5, 63552, Note_on_c, 3, 60, 82
5, 63648, Note_off_c, 3, 60, 0
5, 63648, Note_off_c, 3, 72, 0
5, 63648, Note_on_c, 3, 74, 82
5, 63648, Note_on_c, 3, 62, 82
5, 63744, Note_off_c, 3, 62, 0
5, 63744, Note_off_c, 3, 74, 0
5, 63744, Note_on_c, 3, 76, 82
5, 63744, Note_on_c, 3, 64, 82
5, 63840, Note_off_c, 3, 64, 0
5, 63840, Note_off_c, 3, 76, 0
5, 63840, Note_on_c, 3, 74, 82
5, 63840, Note_on_c, 3, 62, 82
5, 63936, Note_off_c, 3, 62, 0
5, 63936, Note_off_c, 3, 74, 0
5, 63936, Note_on_c, 3, 76, 82
5, 63936, Note_on_c, 3, 64, 82
5, 64032, Note_off_c, 3, 64, 0
5, 64032, Note_off_c, 3, 76, 0
5, 64032, Note_on_c, 3, 74, 82
5, 64032, Note_on_c, 3, 62, 82
5, 64128, Note_off_c, 3, 62, 0
5, 64128, Note_off_c, 3, 74, 0
5, 64128, Note_on_c, 3, 72, 82
5, 64128, Note_on_c, 3, 60, 82
5, 64224, Note_off_c, 3, 60, 0
5, 64224, Note_off_c, 3, 72, 0
5, 66048, Note_on_c, 3, 72, 82
5, 66048, Note_on_c, 3, 60, 82
5, 66144, Note_off_c, 3, 60, 0
5, 66144, Note_off_c, 3, 72, 0
5, 66144, Note_on_c, 3, 71, 82
5, 66144, Note_on_c, 3, 59, 82
5, 66240, Note_off_c, 3, 59, 0
5, 66240, Note_off_c, 3, 71, 0
5, 66240, Note_on_c, 3, 72, 82
5, 66240, Note_on_c, 3, 60, 82
5, 66336, Note_off_c, 3, 60, 0
5, 66336, Note_off_c, 3, 72, 0
5, 66336, Note_on_c, 3, 69, 82
5, 66336, Note_on_c, 3, 57, 82
5, 66432, Note_off_c, 3, 57, 0
5, 66432, Note_off_c, 3, 69, 0
5, 66432, Note_on_c, 3, 67, 82
5, 66432, Note_on_c, 3, 55, 82
5, 66528, Note_off_c, 3, 55, 0
5, 66528, Note_off_c, 3, 67, 0
5, 66528, Note_on_c, 3, 69, 82
5, 66528, Note_on_c, 3, 57, 82
5, 66624, Note_off_c, 3, 57, 0
5, 66624, Note_off_c, 3, 69, 0
5, 66624, Note_on_c, 3, 72, 82
5, 66624, Note_on_c, 3, 60, 82
5, 66720, Note_off_c, 3, 60, 0
5, 66720, Note_off_c, 3, 72, 0
5, 66720, Note_on_c, 3, 74, 82
5, 66720, Note_on_c, 3, 62, 82
5, 66816, Note_off_c, 3, 62, 0
5, 66816, Note_off_c, 3, 74, 0
5, 66816, Note_on_c, 3, 76, 82
5, 66816, Note_on_c, 3, 64, 82
5, 66912, Note_off_c, 3, 64, 0
5, 66912, Note_off_c, 3, 76, 0
5, 66912, Note_on_c, 3, 74, 82
5, 66912, Note_on_c, 3, 62, 82
5, 67008, Note_off_c, 3, 62, 0
5, 67008, Note_off_c, 3, 74, 0
5, 67008, Note_on_c, 3, 76, 82
5, 67008, Note_on_c, 3, 64, 82
5, 67104, Note_off_c, 3, 64, 0
5, 67104, Note_off_c, 3, 76, 0
5, 67104, Note_on_c, 3, 74, 82
5, 67104, Note_on_c, 3, 62, 82
5, 67200, Note_off_c, 3, 62, 0
5, 67200, Note_off_c, 3, 74, 0
5, 67200, Note_on_c, 3, 72, 82
5, 67200, Note_on_c, 3, 60, 82
5, 67296, Note_off_c, 3, 60, 0
5, 67296, Note_off_c, 3, 72, 0
5, 67488, Note_on_c, 3, 69, 82
5, 67488, Note_on_c, 3, 57, 82
5, 67584, Note_off_c, 3, 57, 0
5, 67584, Note_off_c, 3, 69, 0
5, 67584, Note_on_c, 3, 72, 82
5, 67584, Note_on_c, 3, 60, 82
5, 67680, Note_off_c, 3, 60, 0
5, 67680, Note_off_c, 3, 72, 0
5, 67680, Note_on_c, 3, 71, 82
5, 67680, Note_on_c, 3, 59, 82
5, 67776, Note_off_c, 3, 59, 0
5, 67776, Note_off_c, 3, 71, 0
5, 67776, Note_on_c, 3, 72, 82
5, 67776, Note_on_c, 3, 60, 82
5, 67872, Note_off_c, 3, 60, 0
5, 67872, Note_off_c, 3, 72, 0
5, 67872, Note_on_c, 3, 69, 82
5, 67872, Note_on_c, 3, 57, 82
5, 67968, Note_off_c, 3, 57, 0
5, 67968, Note_off_c, 3, 69, 0
5, 67968, Note_on_c, 3, 67, 82
5, 67968, Note_on_c, 3, 55, 82
5, 68064, Note_off_c, 3, 55, 0
5, 68064, Note_off_c, 3, 67, 0
5, 68064, Note_on_c, 3, 69, 82
5, 68064, Note_on_c, 3, 57, 82
5, 68160, Note_off_c, 3, 57, 0
5, 68160, Note_off_c, 3, 69, 0
5, 68160, Note_on_c, 3, 72, 82
5, 68160, Note_on_c, 3, 60, 82
5, 68256, Note_off_c, 3, 60, 0
5, 68256, Note_off_c, 3, 72, 0
5, 68256, Note_on_c, 3, 74, 82
5, 68256, Note_on_c, 3, 62, 82
5, 68352, Note_off_c, 3, 62, 0
5, 68352, Note_off_c, 3, 74, 0
5, 68352, Note_on_c, 3, 76, 82
5, 68352, Note_on_c, 3, 64, 82
5, 68448, Note_off_c, 3, 64, 0
5, 68448, Note_off_c, 3, 76, 0
5, 68448, Note_on_c, 3, 74, 82
5, 68448, Note_on_c, 3, 62, 82
5, 68544, Note_off_c, 3, 62, 0
5, 68544, Note_off_c, 3, 74, 0
5, 68544, Note_on_c, 3, 76, 82
5, 68544, Note_on_c, 3, 64, 82
5, 68640, Note_off_c, 3, 64, 0
5, 68640, Note_off_c, 3, 76, 0
5, 68640, Note_on_c, 3, 74, 82
5, 68640, Note_on_c, 3, 62, 82
5, 68736, Note_off_c, 3, 62, 0
5, 68736, Note_off_c, 3, 74, 0
5, 68736, Note_on_c, 3, 72, 82
5, 68736, Note_on_c, 3, 60, 82
5, 68832, Note_off_c, 3, 60, 0
5, 68832, Note_off_c, 3, 72, 0
5, 69024, Note_on_c, 3, 69, 82
5, 69024, Note_on_c, 3, 57, 82
5, 69120, Note_off_c, 3, 57, 0
5, 69120, Note_off_c, 3, 69, 0
5, 69120, Note_on_c, 3, 72, 82
5, 69120, Note_on_c, 3, 60, 82
5, 69216, Note_off_c, 3, 60, 0
5, 69216, Note_off_c, 3, 72, 0
5, 69216, Note_on_c, 3, 71, 82
5, 69216, Note_on_c, 3, 59, 82
5, 69312, Note_off_c, 3, 59, 0
5, 69312, Note_off_c, 3, 71, 0
5, 69312, Note_on_c, 3, 72, 82
5, 69312, Note_on_c, 3, 60, 82
5, 69408, Note_off_c, 3, 60, 0
5, 69408, Note_off_c, 3, 72, 0
5, 69408, Note_on_c, 3, 69, 82
5, 69408, Note_on_c, 3, 57, 82
5, 69504, Note_off_c, 3, 57, 0
5, 69504, Note_off_c, 3, 69, 0
5, 69504, Note_on_c, 3, 67, 82
5, 69504, Note_on_c, 3, 55, 82
5, 69600, Note_off_c, 3, 55, 0
5, 69600, Note_off_c, 3, 67, 0
5, 69600, Note_on_c, 3, 69, 82
5, 69600, Note_on_c, 3, 57, 82
5, 69696, Note_off_c, 3, 57, 0
5, 69696, Note_off_c, 3, 69, 0
5, 69696, Note_on_c, 3, 72, 82
5, 69696, Note_on_c, 3, 60, 82
5, 69792, Note_off_c, 3, 60, 0
5, 69792, Note_off_c, 3, 72, 0
5, 69792, Note_on_c, 3, 74, 82
5, 69792, Note_on_c, 3, 62, 82
5, 69888, Note_off_c, 3, 62, 0
5, 69888, Note_off_c, 3, 74, 0
5, 69888, Note_on_c, 3, 76, 82
5, 69888, Note_on_c, 3, 64, 82
5, 69984, Note_off_c, 3, 64, 0
5, 69984, Note_off_c, 3, 76, 0
5, 69984, Note_on_c, 3, 74, 82
5, 69984, Note_on_c, 3, 62, 82
5, 70080, Note_off_c, 3, 62, 0
5, 70080, Note_off_c, 3, 74, 0
5, 70080, Note_on_c, 3, 76, 82
5, 70080, Note_on_c, 3, 64, 82
5, 70176, Note_off_c, 3, 64, 0
5, 70176, Note_off_c, 3, 76, 0
5, 70176, Note_on_c, 3, 74, 82
5, 70176, Note_on_c, 3, 62, 82
5, 70272, Note_off_c, 3, 62, 0
5, 70272, Note_off_c, 3, 74, 0
5, 70272, Note_on_c, 3, 72, 82
5, 70272, Note_on_c, 3, 60, 82
5, 70368, Note_off_c, 3, 60, 0
5, 70368, Note_off_c, 3, 72, 0
5, 70560, Note_on_c, 3, 69, 82
5, 70560, Note_on_c, 3, 57, 82
5, 70656, Note_off_c, 3, 57, 0
5, 70656, Note_off_c, 3, 69, 0
5, 70656, End_track
6, 0, Start_track
6, 0, Title_t, "Grand Piano (Classic)"
6, 0, Program_c, 4, 0
6, 9216, Note_on_c, 4, 72, 73
6, 9216, Note_on_c, 4, 60, 73
6, 9312, Note_off_c, 4, 60, 0
6, 9312, Note_off_c, 4, 72, 0
6, 9408, Note_on_c, 4, 72, 73
6, 9408, Note_on_c, 4, 60, 73
6, 9504, Note_off_c, 4, 60, 0
6, 9504, Note_off_c, 4, 72, 0
6, 9600, Note_on_c, 4, 73, 73
6, 9600, Note_on_c, 4, 61, 73
6, 9696, Note_off_c, 4, 61, 0
6, 9696, Note_off_c, 4, 73, 0
6, 9792, Note_on_c, 4, 72, 73
6, 9792, Note_on_c, 4, 60, 73
6, 9888, Note_off_c, 4, 60, 0
6, 9888, Note_off_c, 4, 72, 0
6, 9984, Note_on_c, 4, 70, 73
6, 9984, Note_on_c, 4, 58, 73
6, 10080, Note_off_c, 4, 58, 0
6, 10080, Note_off_c, 4, 70, 0
6, 10176, Note_on_c, 4, 68, 73
6, 10176, Note_on_c, 4, 56, 73
6, 10272, Note_off_c, 4, 56, 0
6, 10272, Note_off_c, 4, 68, 0
6, 10368, Note_on_c, 4, 60, 73
6, 10368, Note_on_c, 4, 72, 73
6, 10656, Note_off_c, 4, 72, 0
6, 10656, Note_off_c, 4, 60, 0
6, 16896, Note_on_c, 4, 60, 73
6, 16896, Note_on_c, 4, 72, 73
6, 16992, Note_off_c, 4, 72, 0
6, 16992, Note_off_c, 4, 60, 0
6, 17088, Note_on_c, 4, 60, 73
6, 17088, Note_on_c, 4, 72, 73
6, 17184, Note_off_c, 4, 72, 0
6, 17184, Note_off_c, 4, 60, 0
6, 17280, Note_on_c, 4, 73, 73
6, 17280, Note_on_c, 4, 61, 73
6, 17376, Note_off_c, 4, 61, 0
6, 17376, Note_off_c, 4, 73, 0
6, 17472, Note_on_c, 4, 72, 73
6, 17472, Note_on_c, 4, 60, 73
6, 17568, Note_off_c, 4, 60, 0
6, 17568, Note_off_c, 4, 72, 0
6, 17664, Note_on_c, 4, 70, 73
6, 17664, Note_on_c, 4, 58, 73
6, 17760, Note_off_c, 4, 58, 0
6, 17760, Note_off_c, 4, 70, 0
6, 17856, Note_on_c, 4, 68, 73
6, 17856, Note_on_c, 4, 56, 73
6, 17952, Note_off_c, 4, 56, 0
6, 17952, Note_off_c, 4, 68, 0
6, 18048, Note_on_c, 4, 72, 73
6, 18048, Note_on_c, 4, 60, 73
6, 18336, Note_off_c, 4, 60, 0
6, 18336, Note_off_c, 4, 72, 0
6, 24000, Note_on_c, 4, 72, 73
6, 24096, Note_off_c, 4, 72, 0
6, 24192, Note_on_c, 4, 72, 73
6, 24288, Note_off_c, 4, 72, 0
6, 24384, Note_on_c, 4, 72, 73
6, 24576, Note_off_c, 4, 72, 0
6, 30144, Note_on_c, 4, 72, 73
6, 30240, Note_off_c, 4, 72, 0
6, 30336, Note_on_c, 4, 72, 73
6, 30432, Note_off_c, 4, 72, 0
6, 30528, Note_on_c, 4, 72, 73
6, 30720, Note_off_c, 4, 72, 0
6, 31680, Note_on_c, 4, 72, 73
6, 31680, Note_on_c, 4, 60, 73
6, 31776, Note_off_c, 4, 60, 0
6, 31776, Note_off_c, 4, 72, 0
6, 31776, Note_on_c, 4, 72, 73
6, 31776, Note_on_c, 4, 60, 73
6, 31872, Note_off_c, 4, 60, 0
6, 31872, Note_off_c, 4, 72, 0
6, 31872, Note_on_c, 4, 72, 73
6, 31872, Note_on_c, 4, 60, 73
6, 31968, Note_off_c, 4, 60, 0
6, 31968, Note_off_c, 4, 72, 0
6, 32064, Note_on_c, 4, 72, 73
6, 32064, Note_on_c, 4, 60, 73
6, 32256, Note_off_c, 4, 60, 0
6, 32256, Note_off_c, 4, 72, 0
6, 33216, Note_on_c, 4, 72, 73
6, 33216, Note_on_c, 4, 60, 73
6, 33312, Note_off_c, 4, 60, 0
6, 33312, Note_off_c, 4, 72, 0
6, 33408, Note_on_c, 4, 72, 73
6, 33408, Note_on_c, 4, 60, 73
6, 33504, Note_off_c, 4, 60, 0
6, 33504, Note_off_c, 4, 72, 0
6, 33600, Note_on_c, 4, 72, 73
6, 33600, Note_on_c, 4, 60, 73
6, 33792, Note_off_c, 4, 60, 0
6, 33792, Note_off_c, 4, 72, 0
6, 34752, Note_on_c, 4, 72, 73
6, 34752, Note_on_c, 4, 60, 73
6, 34848, Note_off_c, 4, 60, 0
6, 34848, Note_off_c, 4, 72, 0
6, 34848, Note_on_c, 4, 72, 73
6, 34848, Note_on_c, 4, 60, 73
6, 34944, Note_off_c, 4, 60, 0
6, 34944, Note_off_c, 4, 72, 0
6, 34944, Note_on_c, 4, 72, 73
6, 34944, Note_on_c, 4, 60, 73
6, 35040, Note_off_c, 4, 60, 0
6, 35040, Note_off_c, 4, 72, 0
6, 35136, Note_on_c, 4, 72, 73
6, 35136, Note_on_c, 4, 60, 73
6, 35328, Note_off_c, 4, 60, 0
6, 35328, Note_off_c, 4, 72, 0
6, 36288, Note_on_c, 4, 72, 73
6, 36288, Note_on_c, 4, 60, 73
6, 36384, Note_off_c, 4, 60, 0
6, 36384, Note_off_c, 4, 72, 0
6, 36480, Note_on_c, 4, 60, 73
6, 36480, Note_on_c, 4, 72, 73
6, 36576, Note_off_c, 4, 72, 0
6, 36576, Note_off_c, 4, 60, 0
6, 36672, Note_on_c, 4, 72, 73
6, 36672, Note_on_c, 4, 60, 73
6, 36864, Note_off_c, 4, 60, 0
6, 36864, Note_off_c, 4, 72, 0
6, 37824, Note_on_c, 4, 72, 73
6, 37824, Note_on_c, 4, 60, 73
6, 37920, Note_off_c, 4, 60, 0
6, 37920, Note_off_c, 4, 72, 0
6, 37920, Note_on_c, 4, 72, 73
6, 37920, Note_on_c, 4, 60, 73
6, 38016, Note_off_c, 4, 60, 0
6, 38016, Note_off_c, 4, 72, 0
6, 38016, Note_on_c, 4, 60, 73
6, 38016, Note_on_c, 4, 72, 73
6, 38112, Note_off_c, 4, 72, 0
6, 38112, Note_off_c, 4, 60, 0
6, 38208, Note_on_c, 4, 72, 73
6, 38208, Note_on_c, 4, 60, 73
6, 38400, Note_off_c, 4, 60, 0
6, 38400, Note_off_c, 4, 72, 0
6, 39360, Note_on_c, 4, 72, 73
6, 39360, Note_on_c, 4, 60, 73
6, 39456, Note_off_c, 4, 60, 0
6, 39456, Note_off_c, 4, 72, 0
6, 39552, Note_on_c, 4, 72, 73
6, 39552, Note_on_c, 4, 60, 73
6, 39648, Note_off_c, 4, 60, 0
6, 39648, Note_off_c, 4, 72, 0
6, 39744, Note_on_c, 4, 72, 73
6, 39744, Note_on_c, 4, 60, 73
6, 39936, Note_off_c, 4, 60, 0
6, 39936, Note_off_c, 4, 72, 0
6, 40896, Note_on_c, 4, 72, 73
6, 40896, Note_on_c, 4, 60, 73
6, 40992, Note_off_c, 4, 60, 0
6, 40992, Note_off_c, 4, 72, 0
6, 40992, Note_on_c, 4, 72, 73
6, 40992, Note_on_c, 4, 60, 73
6, 41088, Note_off_c, 4, 60, 0
6, 41088, Note_off_c, 4, 72, 0
6, 41088, Note_on_c, 4, 72, 73
6, 41088, Note_on_c, 4, 60, 73
6, 41184, Note_off_c, 4, 60, 0
6, 41184, Note_off_c, 4, 72, 0
6, 41280, Note_on_c, 4, 72, 73
6, 41280, Note_on_c, 4, 60, 73
6, 41472, Note_off_c, 4, 60, 0
6, 41472, Note_off_c, 4, 72, 0
6, 42432, Note_on_c, 4, 72, 73
6, 42432, Note_on_c, 4, 60, 73
6, 42528, Note_off_c, 4, 60, 0
6, 42528, Note_off_c, 4, 72, 0
6, 42624, Note_on_c, 4, 72, 73
6, 42624, Note_on_c, 4, 60, 73
6, 42720, Note_off_c, 4, 60, 0
6, 42720, Note_off_c, 4, 72, 0
6, 42816, Note_on_c, 4, 72, 73
6, 42816, Note_on_c, 4, 60, 73
6, 43008, Note_off_c, 4, 60, 0
6, 43008, Note_off_c, 4, 72, 0
6, 50688, Note_on_c, 4, 72, 73
6, 50688, Note_on_c, 4, 60, 73
6, 50784, Note_off_c, 4, 60, 0
6, 50784, Note_off_c, 4, 72, 0
6, 50880, Note_on_c, 4, 72, 73
6, 50880, Note_on_c, 4, 60, 73
6, 50976, Note_off_c, 4, 60, 0
6, 50976, Note_off_c, 4, 72, 0
6, 51072, Note_on_c, 4, 73, 73
6, 51072, Note_on_c, 4, 61, 73
6, 51168, Note_off_c, 4, 61, 0
6, 51168, Note_off_c, 4, 73, 0
6, 51264, Note_on_c, 4, 72, 73
6, 51264, Note_on_c, 4, 60, 73
6, 51360, Note_off_c, 4, 60, 0
6, 51360, Note_off_c, 4, 72, 0
6, 51456, Note_on_c, 4, 70, 73
6, 51456, Note_on_c, 4, 58, 73
6, 51552, Note_off_c, 4, 58, 0
6, 51552, Note_off_c, 4, 70, 0
6, 51648, Note_on_c, 4, 68, 73
6, 51648, Note_on_c, 4, 56, 73
6, 51744, Note_off_c, 4, 56, 0
6, 51744, Note_off_c, 4, 68, 0
6, 51840, Note_on_c, 4, 60, 73
6, 51840, Note_on_c, 4, 72, 73
6, 52128, Note_off_c, 4, 72, 0
6, 52128, Note_off_c, 4, 60, 0
6, 58368, Note_on_c, 4, 60, 73
6, 58368, Note_on_c, 4, 72, 73
6, 58464, Note_off_c, 4, 72, 0
6, 58464, Note_off_c, 4, 60, 0
6, 58560, Note_on_c, 4, 60, 73
6, 58560, Note_on_c, 4, 72, 73
6, 58656, Note_off_c, 4, 72, 0
6, 58656, Note_off_c, 4, 60, 0
6, 58752, Note_on_c, 4, 73, 73
6, 58752, Note_on_c, 4, 61, 73
6, 58848, Note_off_c, 4, 61, 0
6, 58848, Note_off_c, 4, 73, 0
6, 58944, Note_on_c, 4, 72, 73
6, 58944, Note_on_c, 4, 60, 73
6, 59040, Note_off_c, 4, 60, 0
6, 59040, Note_off_c, 4, 72, 0
6, 59136, Note_on_c, 4, 70, 73
6, 59136, Note_on_c, 4, 58, 73
6, 59232, Note_off_c, 4, 58, 0
6, 59232, Note_off_c, 4, 70, 0
6, 59328, Note_on_c, 4, 68, 73
6, 59328, Note_on_c, 4, 56, 73
6, 59424, Note_off_c, 4, 56, 0
6, 59424, Note_off_c, 4, 68, 0
6, 59520, Note_on_c, 4, 72, 73
6, 59520, Note_on_c, 4, 60, 73
6, 59808, Note_off_c, 4, 60, 0
6, 59808, Note_off_c, 4, 72, 0
6, 64512, Note_on_c, 4, 74, 73
6, 64512, Note_on_c, 4, 62, 73
6, 64608, Note_off_c, 4, 62, 0
6, 64608, Note_off_c, 4, 74, 0
6, 64704, Note_on_c, 4, 74, 73
6, 64704, Note_on_c, 4, 62, 73
6, 64800, Note_off_c, 4, 62, 0
6, 64800, Note_off_c, 4, 74, 0
6, 64896, Note_on_c, 4, 74, 73
6, 64896, Note_on_c, 4, 62, 73
6, 64992, Note_off_c, 4, 62, 0
6, 64992, Note_off_c, 4, 74, 0
6, 65088, Note_on_c, 4, 74, 73
6, 65088, Note_on_c, 4, 62, 73
6, 65184, Note_off_c, 4, 62, 0
6, 65184, Note_off_c, 4, 74, 0
6, 65280, Note_on_c, 4, 74, 73
6, 65280, Note_on_c, 4, 62, 73
6, 65376, Note_off_c, 4, 62, 0
6, 65376, Note_off_c, 4, 74, 0
6, 65472, Note_on_c, 4, 74, 73
6, 65472, Note_on_c, 4, 62, 73
6, 65568, Note_off_c, 4, 62, 0
6, 65568, Note_off_c, 4, 74, 0
6, 65664, Note_on_c, 4, 74, 73
6, 65664, Note_on_c, 4, 62, 73
6, 65760, Note_off_c, 4, 62, 0
6, 65760, Note_off_c, 4, 74, 0
6, 65856, Note_on_c, 4, 74, 73
6, 65856, Note_on_c, 4, 62, 73
6, 65952, Note_off_c, 4, 62, 0
6, 65952, Note_off_c, 4, 74, 0
6, 70656, Note_on_c, 4, 74, 73
6, 70656, Note_on_c, 4, 62, 73
6, 70752, Note_off_c, 4, 62, 0
6, 70752, Note_off_c, 4, 74, 0
6, 70848, Note_on_c, 4, 74, 73
6, 70848, Note_on_c, 4, 62, 73
6, 70944, Note_off_c, 4, 62, 0
6, 70944, Note_off_c, 4, 74, 0
6, 71040, Note_on_c, 4, 74, 73
6, 71040, Note_on_c, 4, 62, 73
6, 71136, Note_off_c, 4, 62, 0
6, 71136, Note_off_c, 4, 74, 0
6, 71232, Note_on_c, 4, 74, 73
6, 71232, Note_on_c, 4, 62, 73
6, 71328, Note_off_c, 4, 62, 0
6, 71328, Note_off_c, 4, 74, 0
6, 71424, Note_on_c, 4, 74, 73
6, 71424, Note_on_c, 4, 62, 73
6, 71520, Note_off_c, 4, 62, 0
6, 71520, Note_off_c, 4, 74, 0
6, 71616, Note_on_c, 4, 74, 73
6, 71616, Note_on_c, 4, 62, 73
6, 71712, Note_off_c, 4, 62, 0
6, 71712, Note_off_c, 4, 74, 0
6, 71808, Note_on_c, 4, 74, 73
6, 71808, Note_on_c, 4, 62, 73
6, 71904, Note_off_c, 4, 62, 0
6, 71904, Note_off_c, 4, 74, 0
6, 72000, Note_on_c, 4, 74, 73
6, 72000, Note_on_c, 4, 62, 73
6, 72096, Note_off_c, 4, 62, 0
6, 72096, Note_off_c, 4, 74, 0
6, 73152, Note_on_c, 4, 72, 73
6, 73152, Note_on_c, 4, 60, 73
6, 73248, Note_off_c, 4, 60, 0
6, 73248, Note_off_c, 4, 72, 0
6, 73248, Note_on_c, 4, 72, 73
6, 73248, Note_on_c, 4, 60, 73
6, 73344, Note_off_c, 4, 60, 0
6, 73344, Note_off_c, 4, 72, 0
6, 73344, Note_on_c, 4, 72, 73
6, 73344, Note_on_c, 4, 60, 73
6, 73440, Note_off_c, 4, 60, 0
6, 73440, Note_off_c, 4, 72, 0
6, 73536, Note_on_c, 4, 72, 73
6, 73536, Note_on_c, 4, 60, 73
6, 73728, Note_off_c, 4, 60, 0
6, 73728, Note_off_c, 4, 72, 0
6, 74688, Note_on_c, 4, 72, 73
6, 74688, Note_on_c, 4, 60, 73
6, 74784, Note_off_c, 4, 60, 0
6, 74784, Note_off_c, 4, 72, 0
6, 74880, Note_on_c, 4, 72, 73
6, 74880, Note_on_c, 4, 60, 73
6, 74976, Note_off_c, 4, 60, 0
6, 74976, Note_off_c, 4, 72, 0
6, 75072, Note_on_c, 4, 72, 73
6, 75072, Note_on_c, 4, 60, 73
6, 75264, Note_off_c, 4, 60, 0
6, 75264, Note_off_c, 4, 72, 0
6, 76224, Note_on_c, 4, 72, 73
6, 76224, Note_on_c, 4, 60, 73
6, 76320, Note_off_c, 4, 60, 0
6, 76320, Note_off_c, 4, 72, 0
6, 76320, Note_on_c, 4, 72, 73
6, 76320, Note_on_c, 4, 60, 73
6, 76416, Note_off_c, 4, 60, 0
6, 76416, Note_off_c, 4, 72, 0
6, 76416, Note_on_c, 4, 72, 73
6, 76416, Note_on_c, 4, 60, 73
6, 76512, Note_off_c, 4, 60, 0
6, 76512, Note_off_c, 4, 72, 0
6, 76608, Note_on_c, 4, 72, 73
6, 76608, Note_on_c, 4, 60, 73
6, 76800, Note_off_c, 4, 60, 0
6, 76800, Note_off_c, 4, 72, 0
6, 77760, Note_on_c, 4, 72, 73
6, 77760, Note_on_c, 4, 60, 73
6, 77856, Note_off_c, 4, 60, 0
6, 77856, Note_off_c, 4, 72, 0
6, 77952, Note_on_c, 4, 60, 73
6, 77952, Note_on_c, 4, 72, 73
6, 78048, Note_off_c, 4, 72, 0
6, 78048, Note_off_c, 4, 60, 0
6, 78144, Note_on_c, 4, 72, 73
6, 78144, Note_on_c, 4, 60, 73
6, 78336, Note_off_c, 4, 60, 0
6, 78336, Note_off_c, 4, 72, 0
6, 79296, Note_on_c, 4, 72, 73
6, 79296, Note_on_c, 4, 60, 73
6, 79392, Note_off_c, 4, 60, 0
6, 79392, Note_off_c, 4, 72, 0
6, 79392, Note_on_c, 4, 72, 73
6, 79392, Note_on_c, 4, 60, 73
6, 79488, Note_off_c, 4, 60, 0
6, 79488, Note_off_c, 4, 72, 0
6, 79488, Note_on_c, 4, 60, 73
6, 79488, Note_on_c, 4, 72, 73
6, 79584, Note_off_c, 4, 72, 0
6, 79584, Note_off_c, 4, 60, 0
6, 79680, Note_on_c, 4, 72, 73
6, 79680, Note_on_c, 4, 60, 73
6, 79872, Note_off_c, 4, 60, 0
6, 79872, Note_off_c, 4, 72, 0
6, 80832, Note_on_c, 4, 72, 73
6, 80832, Note_on_c, 4, 60, 73
6, 80928, Note_off_c, 4, 60, 0
6, 80928, Note_off_c, 4, 72, 0
6, 81024, Note_on_c, 4, 72, 73
6, 81024, Note_on_c, 4, 60, 73
6, 81120, Note_off_c, 4, 60, 0
6, 81120, Note_off_c, 4, 72, 0
6, 81216, Note_on_c, 4, 72, 73
6, 81216, Note_on_c, 4, 60, 73
6, 81408, Note_off_c, 4, 60, 0
6, 81408, Note_off_c, 4, 72, 0
6, 82368, Note_on_c, 4, 72, 73
6, 82368, Note_on_c, 4, 60, 73
6, 82464, Note_off_c, 4, 60, 0
6, 82464, Note_off_c, 4, 72, 0
6, 82464, Note_on_c, 4, 72, 73
6, 82464, Note_on_c, 4, 60, 73
6, 82560, Note_off_c, 4, 60, 0
6, 82560, Note_off_c, 4, 72, 0
6, 82560, Note_on_c, 4, 72, 73
6, 82560, Note_on_c, 4, 60, 73
6, 82656, Note_off_c, 4, 60, 0
6, 82656, Note_off_c, 4, 72, 0
6, 82752, Note_on_c, 4, 72, 73
6, 82752, Note_on_c, 4, 60, 73
6, 82944, Note_off_c, 4, 60, 0
6, 82944, Note_off_c, 4, 72, 0
6, 83904, Note_on_c, 4, 72, 73
6, 83904, Note_on_c, 4, 60, 73
6, 84000, Note_off_c, 4, 60, 0
6, 84000, Note_off_c, 4, 72, 0
6, 84096, Note_on_c, 4, 72, 73
6, 84096, Note_on_c, 4, 60, 73
6, 84192, Note_off_c, 4, 60, 0
6, 84192, Note_off_c, 4, 72, 0
6, 84288, Note_on_c, 4, 72, 73
6, 84288, Note_on_c, 4, 60, 73
6, 84480, Note_off_c, 4, 60, 0
6, 84480, Note_off_c, 4, 72, 0
6, 84480, End_track
7, 0, Start_track
7, 0, Title_t, "8-Bit Triangle"
7, 0, Program_c, 5, 87
7, 1536, Note_on_c, 5, 36, 50
7, 1536, Note_on_c, 5, 43, 50
7, 1536, Note_on_c, 5, 48, 50
7, 1536, Note_on_c, 5, 24, 50
7, 3072, Note_off_c, 5, 24, 0
7, 3072, Note_off_c, 5, 48, 0
7, 3072, Note_off_c, 5, 43, 0
7, 3072, Note_off_c, 5, 36, 0
7, 43008, Note_on_c, 5, 36, 50
7, 43008, Note_on_c, 5, 43, 50
7, 43008, Note_on_c, 5, 48, 50
7, 43008, Note_on_c, 5, 24, 50
7, 44544, Note_off_c, 5, 24, 0
7, 44544, Note_off_c, 5, 48, 0
7, 44544, Note_off_c, 5, 43, 0
7, 44544, Note_off_c, 5, 36, 0
7, 44544, End_track
0, 0, End_of_file