0, 0, Header, 1, 4, 480
1, 0, Start_track
1, 0, Tempo, 413793
1, 0, Title_t, "Tarrega_Gran_Vals"
1, 0, Time_signature, 1, 2, 6, 80
1, 480, Time_signature, 3, 2, 6, 80
1, 62520, Tempo, 500000
1, 62640, Tempo, 504201
1, 62760, Tempo, 504201
1, 62880, Tempo, 508474
1, 63000, Tempo, 508474
1, 63120, Tempo, 512820
1, 63240, Tempo, 512820
1, 63360, Tempo, 512820
1, 63480, Tempo, 517241
1, 63600, Tempo, 517241
1, 63720, Tempo, 521739
1, 63840, Tempo, 521739
1, 63840, Tempo, 413793
1, 111480, Tempo, 422535
1, 111600, Tempo, 428571
1, 111720, Tempo, 434782
1, 111840, Tempo, 444444
1, 111960, Tempo, 454545
1, 112080, Tempo, 461538
1, 112200, Tempo, 468750
1, 112320, Tempo, 480000
1, 112440, Tempo, 491803
1, 112560, Tempo, 500000
1, 112680, Tempo, 508474
1, 112800, Tempo, 521739
1, 112800, Tempo, 413793
1, 225240, Tempo, 416666
1, 225360, Tempo, 419580
1, 225480, Tempo, 419580
1, 225600, Tempo, 422535
1, 225720, Tempo, 425531
1, 225840, Tempo, 428571
1, 225960, Tempo, 428571
1, 226080, Tempo, 431654
1, 226200, Tempo, 434782
1, 226320, Tempo, 437956
1, 226440, Tempo, 441176
1, 226560, Tempo, 441176
1, 226680, Tempo, 444444
1, 226800, Tempo, 447761
1, 226920, Tempo, 451127
1, 227040, Tempo, 454545
1, 227160, Tempo, 454545
1, 227280, Tempo, 458015
1, 227400, Tempo, 461538
1, 227520, Tempo, 465116
1, 227640, Tempo, 465116
1, 227760, Tempo, 468750
1, 227880, Tempo, 472440
1, 228000, Tempo, 476190
1, 228120, Tempo, 480000
1, 228240, Tempo, 480000
1, 228360, Tempo, 483870
1, 228480, Tempo, 487804
1, 228600, Tempo, 491803
1, 228720, Tempo, 491803
1, 228840, Tempo, 495867
1, 228960, Tempo, 500000
1, 228960, End_track
2, 0, Start_track
2, 0, Title_t, "guitare nylon"
2, 0, Control_c, 0, 100, 0
2, 0, Control_c, 0, 101, 0
2, 0, Control_c, 0, 6, 8
2, 0, Pitch_bend_c, 0, 8192
2, 0, Control_c, 1, 100, 0
2, 0, Control_c, 1, 101, 0
2, 0, Control_c, 1, 6, 8
2, 0, Pitch_bend_c, 1, 8192
2, 0, Program_c, 0, 24
2, 0, Program_c, 1, 24
2, 0, Control_c, 0, 7, 120
2, 0, Control_c, 1, 7, 120
2, 0, Control_c, 0, 10, 64
2, 0, Control_c, 1, 10, 64
2, 0, Control_c, 0, 93, 0
2, 0, Control_c, 1, 93, 0
2, 0, Control_c, 0, 91, 127
2, 0, Control_c, 1, 91, 127
2, 0, Control_c, 0, 92, 0
2, 0, Control_c, 1, 92, 0
2, 0, Control_c, 0, 95, 0
2, 0, Control_c, 1, 95, 0
2, 0, Note_on_c, 1, 61, 111
2, 30, Pitch_bend_c, 1, 9216
2, 45, Pitch_bend_c, 1, 10240
2, 60, Note_off_c, 1, 61, 80
2, 60, Pitch_bend_c, 1, 8192
2, 60, Note_on_c, 0, 64, 89
2, 480, Note_off_c, 0, 64, 80
2, 480, Note_on_c, 0, 64, 111
2, 480, Note_on_c, 0, 45, 127
2, 1920, Note_off_c, 0, 64, 80
2, 1920, Note_off_c, 0, 45, 80
2, 1920, Note_on_c, 0, 66, 111
2, 1920, Note_on_c, 0, 40, 111
2, 3360, Note_off_c, 0, 66, 80
2, 3360, Note_off_c, 0, 40, 80
2, 3360, Note_on_c, 0, 66, 111
2, 3360, Note_on_c, 0, 45, 127
2, 4800, Note_off_c, 0, 66, 80
2, 4800, Note_off_c, 0, 45, 80
2, 4800, Note_on_c, 0, 68, 111
2, 4800, Note_on_c, 0, 40, 111
2, 6240, Note_off_c, 0, 68, 80
2, 6240, Note_off_c, 0, 40, 80
2, 6240, Note_on_c, 0, 68, 111
2, 7200, Note_off_c, 0, 68, 80
2, 7200, Note_on_c, 0, 69, 111
2, 7680, Note_off_c, 0, 69, 80
2, 7680, Note_on_c, 0, 69, 111
2, 8640, Note_off_c, 0, 69, 80
2, 8640, Note_on_c, 0, 68, 111
2, 9120, Note_off_c, 0, 68, 80
2, 9120, Note_on_c, 0, 68, 111
2, 9180, Note_off_c, 0, 68, 80
2, 9180, Note_on_c, 0, 66, 89
2, 10560, Note_off_c, 0, 66, 80
2, 10560, Note_on_c, 0, 47, 111
2, 11040, Note_off_c, 0, 47, 80
2, 11040, Note_on_c, 0, 49, 111
2, 11520, Note_off_c, 0, 49, 80
2, 11520, Note_on_c, 0, 50, 111
2, 12000, Note_off_c, 0, 50, 80
2, 12000, Note_on_c, 0, 66, 111
2, 12000, Note_on_c, 0, 40, 111
2, 13440, Note_off_c, 0, 66, 80
2, 13440, Note_off_c, 0, 40, 80
2, 13440, Note_on_c, 0, 68, 111
2, 14400, Note_off_c, 0, 68, 80
2, 14400, Note_on_c, 0, 69, 111
2, 14880, Note_off_c, 0, 69, 80
2, 14880, Note_on_c, 0, 73, 111
2, 14880, Note_on_c, 0, 40, 111
2, 16320, Note_off_c, 0, 73, 80
2, 16320, Note_off_c, 0, 40, 80
2, 16320, Note_on_c, 0, 71, 111
2, 16320, Note_on_c, 0, 52, 111
2, 17760, Note_off_c, 0, 71, 80
2, 17760, Note_off_c, 0, 52, 80
2, 17760, Note_on_c, 0, 76, 111
2, 18000, Note_off_c, 0, 76, 80
2, 18000, Note_on_c, 0, 74, 89
2, 18240, Note_off_c, 0, 74, 80
2, 18240, Note_on_c, 0, 66, 111
2, 18720, Note_off_c, 0, 66, 80
2, 18720, Note_on_c, 0, 68, 111
2, 19200, Note_off_c, 0, 68, 80
2, 19200, Note_on_c, 0, 73, 111
2, 19440, Note_off_c, 0, 73, 80
2, 19440, Note_on_c, 0, 71, 89
2, 19680, Note_off_c, 0, 71, 80
2, 19680, Note_on_c, 0, 62, 111
2, 20160, Note_off_c, 0, 62, 80
2, 20160, Note_on_c, 0, 64, 111
2, 20640, Note_off_c, 0, 64, 80
2, 20640, Note_on_c, 0, 71, 111
2, 20880, Note_off_c, 0, 71, 80
2, 20880, Note_on_c, 0, 69, 89
2, 21120, Note_off_c, 0, 69, 80
2, 21120, Note_on_c, 0, 61, 111
2, 21600, Note_off_c, 0, 61, 80
2, 21600, Note_on_c, 0, 64, 111
2, 22080, Note_off_c, 0, 64, 80
2, 22080, Note_on_c, 0, 57, 111
2, 23520, Note_off_c, 0, 57, 80
2, 23520, Note_on_c, 0, 64, 111
2, 23520, Note_on_c, 0, 45, 127
2, 24960, Note_off_c, 0, 64, 80
2, 24960, Note_off_c, 0, 45, 80
2, 24960, Note_on_c, 0, 66, 111
2, 24960, Note_on_c, 0, 40, 111
2, 26400, Note_off_c, 0, 66, 80
2, 26400, Note_off_c, 0, 40, 80
2, 26400, Note_on_c, 0, 66, 111
2, 26400, Note_on_c, 0, 45, 127
2, 27840, Note_off_c, 0, 66, 80
2, 27840, Note_off_c, 0, 45, 80
2, 27840, Note_on_c, 0, 68, 111
2, 27840, Note_on_c, 0, 40, 111
2, 29280, Note_off_c, 0, 68, 80
2, 29280, Note_off_c, 0, 40, 80
2, 29280, Note_on_c, 0, 68, 111
2, 29280, Note_on_c, 0, 45, 127
2, 30720, Note_off_c, 0, 68, 80
2, 30720, Note_off_c, 0, 45, 80
2, 30720, Note_on_c, 0, 69, 111
2, 30720, Note_on_c, 0, 45, 127
2, 32160, Note_off_c, 0, 69, 80
2, 32160, Note_off_c, 0, 45, 80
2, 32160, Note_on_c, 0, 76, 111
2, 32160, Note_on_c, 0, 50, 111
2, 33600, Note_off_c, 0, 76, 80
2, 33600, Note_off_c, 0, 50, 80
2, 33600, Note_on_c, 0, 74, 111
2, 33600, Note_on_c, 0, 50, 111
2, 35040, Note_off_c, 0, 74, 80
2, 35040, Note_off_c, 0, 50, 80
2, 35040, Note_on_c, 0, 71, 111
2, 35040, Note_on_c, 0, 47, 127
2, 36480, Note_off_c, 0, 71, 80
2, 36480, Note_off_c, 0, 47, 80
2, 36480, Note_on_c, 0, 74, 111
2, 36480, Note_on_c, 0, 50, 111
2, 37920, Note_off_c, 0, 74, 80
2, 37920, Note_off_c, 0, 50, 80
2, 37920, Note_on_c, 0, 73, 111
2, 37920, Note_on_c, 0, 52, 111
2, 39360, Note_off_c, 0, 73, 80
2, 39360, Note_off_c, 0, 52, 80
2, 39360, Note_on_c, 0, 64, 111
2, 39360, Note_on_c, 0, 40, 111
2, 40800, Note_off_c, 0, 64, 80
2, 40800, Note_off_c, 0, 40, 80
2, 40800, Note_on_c, 0, 66, 111
2, 40800, Note_on_c, 0, 40, 111
2, 42240, Note_off_c, 0, 66, 80
2, 42240, Note_off_c, 0, 40, 80
2, 42240, Note_on_c, 0, 71, 111
2, 42240, Note_on_c, 0, 52, 111
2, 43680, Note_off_c, 0, 71, 80
2, 43680, Note_off_c, 0, 52, 80
2, 43680, Note_on_c, 0, 69, 111
2, 43680, Note_on_c, 0, 64, 111
2, 43680, Note_on_c, 0, 61, 111
2, 45600, Note_off_c, 0, 69, 80
2, 45600, Note_off_c, 0, 64, 80
2, 45600, Note_off_c, 0, 61, 80
2, 45600, Note_on_c, 0, 76, 111
2, 45840, Note_off_c, 0, 76, 80
2, 45840, Note_on_c, 0, 75, 89
2, 46080, Note_off_c, 0, 75, 80
2, 46080, Note_on_c, 0, 78, 111
2, 46320, Note_off_c, 0, 78, 80
2, 46320, Note_on_c, 0, 76, 89
2, 46560, Note_off_c, 0, 76, 80
2, 46560, Note_on_c, 0, 73, 111
2, 46620, Note_off_c, 0, 73, 80
2, 46620, Note_on_c, 0, 75, 89
2, 46680, Note_off_c, 0, 75, 80
2, 46680, Note_on_c, 0, 73, 89
2, 47040, Note_off_c, 0, 73, 80
2, 47040, Note_on_c, 0, 71, 111
2, 47040, Note_on_c, 0, 68, 111
2, 47520, Note_off_c, 0, 71, 80
2, 47520, Note_off_c, 0, 68, 80
2, 47520, Note_on_c, 0, 71, 111
2, 47520, Note_on_c, 0, 68, 111
2, 47520, Note_on_c, 0, 64, 111
2, 48000, Note_off_c, 0, 71, 80
2, 48000, Note_off_c, 0, 68, 80
2, 48000, Note_off_c, 0, 64, 80
2, 48240, Note_on_c, 0, 59, 111
2, 48480, Note_off_c, 0, 59, 80
2, 48480, Note_on_c, 0, 64, 111
2, 48720, Note_off_c, 0, 64, 80
2, 48720, Note_on_c, 0, 68, 89
2, 48960, Note_off_c, 0, 68, 80
2, 48960, Note_on_c, 0, 64, 111
2, 49200, Note_off_c, 0, 64, 80
2, 49200, Note_on_c, 0, 68, 89
2, 49440, Note_off_c, 0, 68, 80
2, 49440, Note_on_c, 0, 69, 111
2, 49500, Note_off_c, 0, 69, 80
2, 49500, Note_on_c, 0, 71, 89
2, 49560, Note_off_c, 0, 71, 80
2, 49560, Note_on_c, 0, 69, 89
2, 49920, Note_off_c, 0, 69, 80
2, 49920, Note_on_c, 0, 63, 111
2, 49920, Note_on_c, 0, 59, 111
2, 50400, Note_off_c, 0, 63, 80
2, 50400, Note_off_c, 0, 59, 80
2, 50400, Note_on_c, 0, 63, 111
2, 50400, Note_on_c, 0, 59, 111
2, 50880, Note_off_c, 0, 63, 80
2, 50880, Note_off_c, 0, 59, 80
2, 51360, Note_on_c, 0, 78, 111
2, 51600, Note_off_c, 0, 78, 80
2, 51600, Note_on_c, 0, 75, 89
2, 51840, Note_off_c, 0, 75, 80
2, 51840, Note_on_c, 0, 76, 111
2, 52080, Note_off_c, 0, 76, 80
2, 52080, Note_on_c, 0, 73, 89
2, 52320, Note_off_c, 0, 73, 80
2, 52320, Note_on_c, 0, 76, 111
2, 52800, Note_off_c, 0, 76, 80
2, 52800, Note_on_c, 0, 75, 111
2, 52800, Note_on_c, 0, 69, 111
2, 52800, Note_on_c, 0, 59, 111
2, 53280, Note_off_c, 0, 75, 80
2, 53280, Note_off_c, 0, 69, 80
2, 53280, Note_off_c, 0, 59, 80
2, 53280, Note_on_c, 0, 75, 111
2, 53280, Note_on_c, 0, 69, 111
2, 53280, Note_on_c, 0, 59, 111
2, 53760, Note_off_c, 0, 75, 80
2, 53760, Note_off_c, 0, 69, 80
2, 53760, Note_off_c, 0, 59, 80
2, 54240, Note_on_c, 0, 75, 111
2, 54480, Note_off_c, 0, 75, 80
2, 54480, Note_on_c, 0, 71, 89
2, 54720, Note_off_c, 0, 71, 80
2, 54720, Note_on_c, 0, 73, 111
2, 54960, Note_off_c, 0, 73, 80
2, 54960, Note_on_c, 0, 69, 111
2, 55200, Note_off_c, 0, 69, 80
2, 55200, Note_on_c, 0, 73, 111
2, 55260, Note_off_c, 0, 73, 80
2, 55260, Note_on_c, 0, 75, 89
2, 55320, Note_off_c, 0, 75, 80
2, 55320, Note_on_c, 0, 73, 89
2, 55680, Note_off_c, 0, 73, 80
2, 55680, Note_on_c, 0, 71, 111
2, 55680, Note_on_c, 0, 68, 111
2, 56160, Note_off_c, 0, 71, 80
2, 56160, Note_off_c, 0, 68, 80
2, 56160, Note_on_c, 0, 71, 111
2, 56160, Note_on_c, 0, 68, 111
2, 56160, Note_on_c, 0, 64, 111
2, 56640, Note_off_c, 0, 71, 80
2, 56640, Note_off_c, 0, 68, 80
2, 56640, Note_off_c, 0, 64, 80
2, 57120, Note_on_c, 0, 76, 111
2, 57360, Note_off_c, 0, 76, 80
2, 57360, Note_on_c, 0, 75, 89
2, 57600, Note_off_c, 0, 75, 80
2, 57600, Note_on_c, 0, 78, 111
2, 57840, Note_off_c, 0, 78, 80
2, 57840, Note_on_c, 0, 76, 89
2, 58080, Note_off_c, 0, 76, 80
2, 58080, Note_on_c, 0, 73, 111
2, 58140, Note_off_c, 0, 73, 80
2, 58140, Note_on_c, 0, 75, 89
2, 58200, Note_off_c, 0, 75, 80
2, 58200, Note_on_c, 0, 73, 89
2, 58560, Note_off_c, 0, 73, 80
2, 58560, Note_on_c, 0, 71, 111
2, 58560, Note_on_c, 0, 68, 111
2, 59040, Note_off_c, 0, 71, 80
2, 59040, Note_off_c, 0, 68, 80
2, 59040, Note_on_c, 0, 71, 111
2, 59040, Note_on_c, 0, 68, 111
2, 59040, Note_on_c, 0, 64, 111
2, 59520, Note_off_c, 0, 71, 80
2, 59520, Note_off_c, 0, 68, 80
2, 59520, Note_off_c, 0, 64, 80
2, 59760, Note_on_c, 0, 52, 111
2, 60000, Note_off_c, 0, 52, 80
2, 60000, Note_on_c, 0, 56, 127
2, 60240, Note_off_c, 0, 56, 80
2, 60240, Note_on_c, 0, 59, 111
2, 60480, Note_off_c, 0, 59, 80
2, 60480, Note_on_c, 0, 64, 111
2, 60720, Note_off_c, 0, 64, 80
2, 60720, Note_on_c, 0, 71, 111
2, 60960, Note_off_c, 0, 71, 80
2, 60960, Note_on_c, 0, 71, 111
2, 61440, Note_off_c, 0, 71, 80
2, 61440, Note_on_c, 0, 61, 111
2, 61440, Note_on_c, 0, 57, 111
2, 61440, Note_on_c, 0, 54, 111
2, 61920, Note_off_c, 0, 61, 80
2, 61920, Note_off_c, 0, 57, 80
2, 61920, Note_off_c, 0, 54, 80
2, 61920, Note_on_c, 0, 61, 111
2, 61920, Note_on_c, 0, 57, 111
2, 61920, Note_on_c, 0, 54, 111
2, 62400, Note_off_c, 0, 61, 80
2, 62400, Note_off_c, 0, 57, 80
2, 62400, Note_off_c, 0, 54, 80
2, 62640, Note_on_c, 0, 54, 111
2, 62880, Note_off_c, 0, 54, 80
2, 62880, Note_on_c, 0, 56, 127
2, 63120, Note_off_c, 0, 56, 80
2, 63120, Note_on_c, 0, 57, 111
2, 63360, Note_off_c, 0, 57, 80
2, 63360, Note_on_c, 0, 59, 111
2, 63600, Note_off_c, 0, 59, 80
2, 63600, Note_on_c, 0, 61, 111
2, 63840, Note_off_c, 0, 61, 80
2, 63840, Note_on_c, 0, 61, 111
2, 63900, Note_off_c, 0, 61, 80
2, 63900, Note_on_c, 0, 63, 89
2, 63960, Note_off_c, 0, 63, 80
2, 63960, Note_on_c, 0, 61, 89
2, 64320, Note_off_c, 0, 61, 80
2, 64320, Note_on_c, 0, 64, 111
2, 64320, Note_on_c, 0, 59, 111
2, 64320, Note_on_c, 0, 56, 127
2, 64800, Note_off_c, 0, 64, 80
2, 64800, Note_off_c, 0, 59, 80
2, 64800, Note_off_c, 0, 56, 80
2, 64800, Note_on_c, 0, 73, 111
2, 64800, Note_on_c, 0, 61, 111
2, 64800, Note_on_c, 0, 57, 111
2, 64860, Note_off_c, 0, 73, 80
2, 64860, Note_off_c, 0, 61, 80
2, 64860, Note_off_c, 0, 57, 80
2, 64860, Note_on_c, 0, 76, 89
2, 64860, Note_on_c, 0, 64, 89
2, 64860, Note_on_c, 0, 61, 89
2, 65280, Note_off_c, 0, 76, 80
2, 65280, Note_off_c, 0, 64, 80
2, 65280, Note_off_c, 0, 61, 80
2, 65280, Note_on_c, 0, 75, 111
2, 65280, Note_on_c, 0, 63, 111
2, 65280, Note_on_c, 0, 59, 111
2, 65760, Note_off_c, 0, 75, 80
2, 65760, Note_off_c, 0, 63, 80
2, 65760, Note_off_c, 0, 59, 80
2, 65760, Note_on_c, 0, 73, 111
2, 65760, Note_on_c, 0, 61, 111
2, 65760, Note_on_c, 0, 57, 111
2, 66240, Note_off_c, 0, 73, 80
2, 66240, Note_off_c, 0, 61, 80
2, 66240, Note_off_c, 0, 57, 80
2, 66240, Note_on_c, 0, 63, 111
2, 66240, Note_on_c, 0, 57, 111
2, 66240, Note_on_c, 0, 54, 111
2, 66240, Note_on_c, 0, 47, 127
2, 66720, Note_off_c, 0, 63, 80
2, 66720, Note_off_c, 0, 57, 80
2, 66720, Note_off_c, 0, 54, 80
2, 66720, Note_off_c, 0, 47, 80
2, 66720, Note_on_c, 0, 56, 127
2, 66760, Note_on_c, 0, 59, 111
2, 66800, Note_on_c, 0, 64, 111
2, 68640, Note_off_c, 0, 56, 80
2, 68640, Note_off_c, 0, 59, 80
2, 68640, Note_off_c, 0, 64, 80
2, 68640, Note_on_c, 0, 76, 111
2, 68880, Note_off_c, 0, 76, 80
2, 68880, Note_on_c, 0, 75, 89
2, 69120, Note_off_c, 0, 75, 80
2, 69120, Note_on_c, 0, 78, 111
2, 69360, Note_off_c, 0, 78, 80
2, 69360, Note_on_c, 0, 76, 89
2, 69600, Note_off_c, 0, 76, 80
2, 69600, Note_on_c, 0, 73, 111
2, 69660, Note_off_c, 0, 73, 80
2, 69660, Note_on_c, 0, 75, 89
2, 69720, Note_off_c, 0, 75, 80
2, 69720, Note_on_c, 0, 73, 89
2, 70080, Note_off_c, 0, 73, 80
2, 70080, Note_on_c, 0, 71, 111
2, 70080, Note_on_c, 0, 68, 111
2, 70560, Note_off_c, 0, 71, 80
2, 70560, Note_off_c, 0, 68, 80
2, 70560, Note_on_c, 0, 71, 111
2, 70560, Note_on_c, 0, 68, 111
2, 70560, Note_on_c, 0, 64, 111
2, 71040, Note_off_c, 0, 71, 80
2, 71040, Note_off_c, 0, 68, 80
2, 71040, Note_off_c, 0, 64, 80
2, 71280, Note_on_c, 0, 59, 111
2, 71520, Note_off_c, 0, 59, 80
2, 71520, Note_on_c, 0, 64, 111
2, 71760, Note_off_c, 0, 64, 80
2, 71760, Note_on_c, 0, 68, 89
2, 72000, Note_off_c, 0, 68, 80
2, 72000, Note_on_c, 0, 64, 111
2, 72240, Note_off_c, 0, 64, 80
2, 72240, Note_on_c, 0, 68, 89
2, 72480, Note_off_c, 0, 68, 80
2, 72480, Note_on_c, 0, 69, 111
2, 72540, Note_off_c, 0, 69, 80
2, 72540, Note_on_c, 0, 71, 89
2, 72600, Note_off_c, 0, 71, 80
2, 72600, Note_on_c, 0, 69, 89
2, 72960, Note_off_c, 0, 69, 80
2, 72960, Note_on_c, 0, 63, 111
2, 72960, Note_on_c, 0, 59, 111
2, 73440, Note_off_c, 0, 63, 80
2, 73440, Note_off_c, 0, 59, 80
2, 73440, Note_on_c, 0, 63, 111
2, 73440, Note_on_c, 0, 59, 111
2, 73920, Note_off_c, 0, 63, 80
2, 73920, Note_off_c, 0, 59, 80
2, 74400, Note_on_c, 0, 78, 111
2, 74640, Note_off_c, 0, 78, 80
2, 74640, Note_on_c, 0, 75, 89
2, 74880, Note_off_c, 0, 75, 80
2, 74880, Note_on_c, 0, 76, 111
2, 75120, Note_off_c, 0, 76, 80
2, 75120, Note_on_c, 0, 73, 89
2, 75360, Note_off_c, 0, 73, 80
2, 75360, Note_on_c, 0, 76, 111
2, 75840, Note_off_c, 0, 76, 80
2, 75840, Note_on_c, 0, 75, 111
2, 75840, Note_on_c, 0, 69, 111
2, 75840, Note_on_c, 0, 59, 111
2, 76320, Note_off_c, 0, 75, 80
2, 76320, Note_off_c, 0, 69, 80
2, 76320, Note_off_c, 0, 59, 80
2, 76320, Note_on_c, 0, 75, 111
2, 76320, Note_on_c, 0, 69, 111
2, 76320, Note_on_c, 0, 59, 111
2, 76800, Note_off_c, 0, 75, 80
2, 76800, Note_off_c, 0, 69, 80
2, 76800, Note_off_c, 0, 59, 80
2, 77280, Note_on_c, 0, 75, 111
2, 77520, Note_off_c, 0, 75, 80
2, 77520, Note_on_c, 0, 71, 89
2, 77760, Note_off_c, 0, 71, 80
2, 77760, Note_on_c, 0, 73, 111
2, 78000, Note_off_c, 0, 73, 80
2, 78000, Note_on_c, 0, 69, 111
2, 78240, Note_off_c, 0, 69, 80
2, 78240, Note_on_c, 0, 73, 111
2, 78300, Note_off_c, 0, 73, 80
2, 78300, Note_on_c, 0, 75, 89
2, 78360, Note_off_c, 0, 75, 80
2, 78360, Note_on_c, 0, 73, 89
2, 78720, Note_off_c, 0, 73, 80
2, 78720, Note_on_c, 0, 71, 111
2, 78720, Note_on_c, 0, 68, 111
2, 79200, Note_off_c, 0, 71, 80
2, 79200, Note_off_c, 0, 68, 80
2, 79200, Note_on_c, 0, 71, 111
2, 79200, Note_on_c, 0, 68, 111
2, 79200, Note_on_c, 0, 64, 111
2, 79680, Note_off_c, 0, 71, 80
2, 79680, Note_off_c, 0, 68, 80
2, 79680, Note_off_c, 0, 64, 80
2, 80160, Note_on_c, 0, 76, 111
2, 80400, Note_off_c, 0, 76, 80
2, 80400, Note_on_c, 0, 75, 89
2, 80640, Note_off_c, 0, 75, 80
2, 80640, Note_on_c, 0, 78, 111
2, 80880, Note_off_c, 0, 78, 80
2, 80880, Note_on_c, 0, 76, 89
2, 81120, Note_off_c, 0, 76, 80
2, 81120, Note_on_c, 0, 73, 111
2, 81180, Note_off_c, 0, 73, 80
2, 81180, Note_on_c, 0, 75, 89
2, 81240, Note_off_c, 0, 75, 80
2, 81240, Note_on_c, 0, 73, 89
2, 81600, Note_off_c, 0, 73, 80
2, 81600, Note_on_c, 0, 71, 111
2, 81600, Note_on_c, 0, 68, 111
2, 82080, Note_off_c, 0, 71, 80
2, 82080, Note_off_c, 0, 68, 80
2, 82080, Note_on_c, 0, 71, 111
2, 82080, Note_on_c, 0, 68, 111
2, 82080, Note_on_c, 0, 64, 111
2, 82560, Note_off_c, 0, 71, 80
2, 82560, Note_off_c, 0, 68, 80
2, 82560, Note_off_c, 0, 64, 80
2, 82800, Note_on_c, 0, 52, 111
2, 83040, Note_off_c, 0, 52, 80
2, 83040, Note_on_c, 0, 56, 127
2, 83280, Note_off_c, 0, 56, 80
2, 83280, Note_on_c, 0, 59, 111
2, 83520, Note_off_c, 0, 59, 80
2, 83520, Note_on_c, 0, 64, 111
2, 83760, Note_off_c, 0, 64, 80
2, 83760, Note_on_c, 0, 71, 111
2, 84000, Note_off_c, 0, 71, 80
2, 84000, Note_on_c, 0, 71, 111
2, 84480, Note_off_c, 0, 71, 80
2, 84480, Note_on_c, 0, 61, 111
2, 84480, Note_on_c, 0, 57, 111
2, 84480, Note_on_c, 0, 54, 111
2, 84960, Note_off_c, 0, 61, 80
2, 84960, Note_off_c, 0, 57, 80
2, 84960, Note_off_c, 0, 54, 80
2, 84960, Note_on_c, 0, 61, 111
2, 84960, Note_on_c, 0, 57, 111
2, 84960, Note_on_c, 0, 54, 111
2, 85440, Note_off_c, 0, 61, 80
2, 85440, Note_off_c, 0, 57, 80
2, 85440, Note_off_c, 0, 54, 80
2, 85680, Note_on_c, 0, 54, 111
2, 85920, Note_off_c, 0, 54, 80
2, 85920, Note_on_c, 0, 56, 127
2, 86160, Note_off_c, 0, 56, 80
2, 86160, Note_on_c, 0, 57, 111
2, 86400, Note_off_c, 0, 57, 80
2, 86400, Note_on_c, 0, 59, 111
2, 86640, Note_off_c, 0, 59, 80
2, 86640, Note_on_c, 0, 61, 111
2, 86880, Note_off_c, 0, 61, 80
2, 86880, Note_on_c, 0, 61, 111
2, 86940, Note_off_c, 0, 61, 80
2, 86940, Note_on_c, 0, 63, 89
2, 87000, Note_off_c, 0, 63, 80
2, 87000, Note_on_c, 0, 61, 89
2, 87360, Note_off_c, 0, 61, 80
2, 87360, Note_on_c, 0, 64, 111
2, 87360, Note_on_c, 0, 59, 111
2, 87360, Note_on_c, 0, 56, 127
2, 87840, Note_off_c, 0, 64, 80
2, 87840, Note_off_c, 0, 59, 80
2, 87840, Note_off_c, 0, 56, 80
2, 87840, Note_on_c, 0, 73, 111
2, 87840, Note_on_c, 0, 61, 111
2, 87840, Note_on_c, 0, 57, 111
2, 87900, Note_off_c, 0, 73, 80
2, 87900, Note_off_c, 0, 61, 80
2, 87900, Note_off_c, 0, 57, 80
2, 87900, Note_on_c, 0, 76, 89
2, 87900, Note_on_c, 0, 64, 89
2, 87900, Note_on_c, 0, 61, 89
2, 88320, Note_off_c, 0, 76, 80
2, 88320, Note_off_c, 0, 64, 80
2, 88320, Note_off_c, 0, 61, 80
2, 88320, Note_on_c, 0, 75, 111
2, 88320, Note_on_c, 0, 63, 111
2, 88320, Note_on_c, 0, 59, 111
2, 88800, Note_off_c, 0, 75, 80
2, 88800, Note_off_c, 0, 63, 80
2, 88800, Note_off_c, 0, 59, 80
2, 88800, Note_on_c, 0, 73, 111
2, 88800, Note_on_c, 0, 61, 111
2, 88800, Note_on_c, 0, 57, 111
2, 89280, Note_off_c, 0, 73, 80
2, 89280, Note_off_c, 0, 61, 80
2, 89280, Note_off_c, 0, 57, 80
2, 89280, Note_on_c, 0, 63, 111
2, 89280, Note_on_c, 0, 57, 111
2, 89280, Note_on_c, 0, 54, 111
2, 89280, Note_on_c, 0, 47, 127
2, 89760, Note_off_c, 0, 63, 80
2, 89760, Note_off_c, 0, 57, 80
2, 89760, Note_off_c, 0, 54, 80
2, 89760, Note_off_c, 0, 47, 80
2, 89760, Note_on_c, 0, 56, 111
2, 89800, Note_on_c, 0, 59, 111
2, 89840, Note_on_c, 0, 64, 111
2, 91680, Note_off_c, 0, 56, 80
2, 91680, Note_off_c, 0, 59, 80
2, 91680, Note_off_c, 0, 64, 80
2, 93120, Note_on_c, 0, 66, 111
2, 93120, Note_on_c, 0, 63, 111
2, 93600, Note_off_c, 0, 66, 80
2, 93600, Note_off_c, 0, 63, 80
2, 93600, Note_on_c, 0, 66, 111
2, 93600, Note_on_c, 0, 63, 111
2, 94080, Note_off_c, 0, 66, 80
2, 94080, Note_off_c, 0, 63, 80
2, 94560, Note_on_c, 0, 66, 111
2, 94560, Note_on_c, 0, 63, 111
2, 95040, Note_off_c, 0, 66, 80
2, 95040, Note_off_c, 0, 63, 80
2, 95040, Note_on_c, 0, 66, 111
2, 95040, Note_on_c, 0, 63, 111
2, 95520, Note_off_c, 0, 66, 80
2, 95520, Note_off_c, 0, 63, 80
2, 96000, Note_on_c, 0, 66, 111
2, 96000, Note_on_c, 0, 61, 111
2, 96480, Note_off_c, 0, 66, 80
2, 96480, Note_off_c, 0, 61, 80
2, 96480, Note_on_c, 0, 66, 111
2, 96480, Note_on_c, 0, 61, 111
2, 96960, Note_off_c, 0, 66, 80
2, 96960, Note_off_c, 0, 61, 80
2, 97440, Note_on_c, 0, 56, 127
2, 97920, Note_off_c, 0, 56, 80
2, 97920, Note_on_c, 0, 54, 111
2, 98400, Note_off_c, 0, 54, 80
2, 98880, Note_on_c, 0, 66, 111
2, 98880, Note_on_c, 0, 63, 111
2, 99360, Note_off_c, 0, 66, 80
2, 99360, Note_off_c, 0, 63, 80
2, 99360, Note_on_c, 0, 66, 111
2, 99360, Note_on_c, 0, 63, 111
2, 99840, Note_off_c, 0, 66, 80
2, 99840, Note_off_c, 0, 63, 80
2, 100320, Note_on_c, 0, 66, 111
2, 100320, Note_on_c, 0, 63, 111
2, 100800, Note_off_c, 0, 66, 80
2, 100800, Note_off_c, 0, 63, 80
2, 100800, Note_on_c, 0, 66, 111
2, 100800, Note_on_c, 0, 63, 111
2, 101280, Note_off_c, 0, 66, 80
2, 101280, Note_off_c, 0, 63, 80
2, 101280, Note_on_c, 0, 58, 111
2, 101340, Note_off_c, 0, 58, 80
2, 101340, Note_on_c, 0, 59, 89
2, 101400, Note_off_c, 0, 59, 80
2, 101400, Note_on_c, 0, 58, 89
2, 101760, Note_off_c, 0, 58, 80
2, 101760, Note_on_c, 0, 56, 127
2, 102240, Note_off_c, 0, 56, 80
2, 102240, Note_on_c, 0, 58, 111
2, 102720, Note_off_c, 0, 58, 80
2, 103200, Note_on_c, 0, 68, 111
2, 103680, Note_off_c, 0, 68, 80
2, 103680, Note_on_c, 0, 66, 111
2, 104160, Note_off_c, 0, 66, 80
2, 104640, Note_on_c, 0, 59, 111
2, 104640, Note_on_c, 0, 54, 111
2, 105120, Note_off_c, 0, 59, 80
2, 105120, Note_off_c, 0, 54, 80
2, 105120, Note_on_c, 0, 59, 111
2, 105120, Note_on_c, 0, 54, 111
2, 105600, Note_off_c, 0, 59, 80
2, 105600, Note_off_c, 0, 54, 80
2, 106080, Note_on_c, 0, 61, 111
2, 106080, Note_on_c, 0, 55, 127
2, 106560, Note_off_c, 0, 61, 80
2, 106560, Note_off_c, 0, 55, 80
2, 106560, Note_on_c, 0, 61, 111
2, 106560, Note_on_c, 0, 55, 127
2, 107040, Note_off_c, 0, 61, 80
2, 107040, Note_off_c, 0, 55, 80
2, 107520, Note_on_c, 0, 59, 111
2, 107520, Note_on_c, 0, 56, 127
2, 108000, Note_off_c, 0, 59, 80
2, 108000, Note_off_c, 0, 56, 80
2, 108000, Note_on_c, 0, 59, 111
2, 108000, Note_on_c, 0, 56, 127
2, 108480, Note_off_c, 0, 59, 80
2, 108480, Note_off_c, 0, 56, 80
2, 108960, Note_on_c, 0, 64, 111
2, 108960, Note_on_c, 0, 61, 111
2, 109440, Note_off_c, 0, 64, 80
2, 109440, Note_off_c, 0, 61, 80
2, 109440, Note_on_c, 0, 68, 111
2, 109440, Note_on_c, 0, 64, 111
2, 109440, Note_on_c, 0, 61, 111
2, 109920, Note_off_c, 0, 68, 80
2, 109920, Note_off_c, 0, 64, 80
2, 109920, Note_off_c, 0, 61, 80
2, 109920, Note_on_c, 0, 66, 111
2, 109920, Note_on_c, 0, 63, 111
2, 109920, Note_on_c, 0, 54, 111
2, 110400, Note_off_c, 0, 66, 80
2, 110400, Note_off_c, 0, 63, 80
2, 110400, Note_off_c, 0, 54, 80
2, 110400, Note_on_c, 0, 59, 111
2, 110400, Note_on_c, 0, 51, 111
2, 110880, Note_off_c, 0, 59, 80
2, 110880, Note_off_c, 0, 51, 80
2, 110880, Note_on_c, 0, 64, 111
2, 110880, Note_on_c, 0, 56, 111
2, 111360, Note_off_c, 0, 64, 80
2, 111360, Note_off_c, 0, 56, 80
2, 111360, Note_on_c, 0, 63, 111
2, 111360, Note_on_c, 0, 42, 95
2, 112320, Note_off_c, 0, 63, 80
2, 112320, Note_off_c, 0, 42, 80
2, 112800, Note_on_c, 0, 47, 127
2, 112840, Note_on_c, 0, 51, 111
2, 112880, Note_on_c, 0, 54, 111
2, 112920, Note_on_c, 0, 59, 111
2, 114720, Note_off_c, 0, 47, 80
2, 114720, Note_off_c, 0, 51, 80
2, 114720, Note_off_c, 0, 54, 80
2, 114720, Note_off_c, 0, 59, 80
2, 116160, Note_on_c, 0, 66, 111
2, 116160, Note_on_c, 0, 63, 111
2, 116640, Note_off_c, 0, 66, 80
2, 116640, Note_off_c, 0, 63, 80
2, 116640, Note_on_c, 0, 66, 111
2, 116640, Note_on_c, 0, 63, 111
2, 117120, Note_off_c, 0, 66, 80
2, 117120, Note_off_c, 0, 63, 80
2, 117600, Note_on_c, 0, 66, 111
2, 117600, Note_on_c, 0, 63, 111
2, 118080, Note_off_c, 0, 66, 80
2, 118080, Note_off_c, 0, 63, 80
2, 118080, Note_on_c, 0, 66, 111
2, 118080, Note_on_c, 0, 63, 111
2, 118560, Note_off_c, 0, 66, 80
2, 118560, Note_off_c, 0, 63, 80
2, 119040, Note_on_c, 0, 66, 111
2, 119040, Note_on_c, 0, 61, 111
2, 119520, Note_off_c, 0, 66, 80
2, 119520, Note_off_c, 0, 61, 80
2, 119520, Note_on_c, 0, 66, 111
2, 119520, Note_on_c, 0, 61, 111
2, 120000, Note_off_c, 0, 66, 80
2, 120000, Note_off_c, 0, 61, 80
2, 120480, Note_on_c, 0, 56, 127
2, 120960, Note_off_c, 0, 56, 80
2, 120960, Note_on_c, 0, 54, 111
2, 121440, Note_off_c, 0, 54, 80
2, 121920, Note_on_c, 0, 66, 111
2, 121920, Note_on_c, 0, 63, 111
2, 122400, Note_off_c, 0, 66, 80
2, 122400, Note_off_c, 0, 63, 80
2, 122400, Note_on_c, 0, 66, 111
2, 122400, Note_on_c, 0, 63, 111
2, 122880, Note_off_c, 0, 66, 80
2, 122880, Note_off_c, 0, 63, 80
2, 123360, Note_on_c, 0, 66, 111
2, 123360, Note_on_c, 0, 63, 111
2, 123840, Note_off_c, 0, 66, 80
2, 123840, Note_off_c, 0, 63, 80
2, 123840, Note_on_c, 0, 66, 111
2, 123840, Note_on_c, 0, 63, 111
2, 124320, Note_off_c, 0, 66, 80
2, 124320, Note_off_c, 0, 63, 80
2, 124320, Note_on_c, 0, 58, 111
2, 124380, Note_off_c, 0, 58, 80
2, 124380, Note_on_c, 0, 59, 89
2, 124440, Note_off_c, 0, 59, 80
2, 124440, Note_on_c, 0, 58, 89
2, 124800, Note_off_c, 0, 58, 80
2, 124800, Note_on_c, 0, 56, 127
2, 125280, Note_off_c, 0, 56, 80
2, 125280, Note_on_c, 0, 58, 111
2, 125760, Note_off_c, 0, 58, 80
2, 126240, Note_on_c, 0, 68, 111
2, 126720, Note_off_c, 0, 68, 80
2, 126720, Note_on_c, 0, 66, 111
2, 127200, Note_off_c, 0, 66, 80
2, 127680, Note_on_c, 0, 59, 111
2, 127680, Note_on_c, 0, 54, 111
2, 128160, Note_off_c, 0, 59, 80
2, 128160, Note_off_c, 0, 54, 80
2, 128160, Note_on_c, 0, 59, 111
2, 128160, Note_on_c, 0, 54, 111
2, 128640, Note_off_c, 0, 59, 80
2, 128640, Note_off_c, 0, 54, 80
2, 129120, Note_on_c, 0, 61, 111
2, 129120, Note_on_c, 0, 55, 127
2, 129600, Note_off_c, 0, 61, 80
2, 129600, Note_off_c, 0, 55, 80
2, 129600, Note_on_c, 0, 61, 111
2, 129600, Note_on_c, 0, 55, 127
2, 130080, Note_off_c, 0, 61, 80
2, 130080, Note_off_c, 0, 55, 80
2, 130560, Note_on_c, 0, 59, 111
2, 130560, Note_on_c, 0, 56, 127
2, 131040, Note_off_c, 0, 59, 80
2, 131040, Note_off_c, 0, 56, 80
2, 131040, Note_on_c, 0, 59, 111
2, 131040, Note_on_c, 0, 56, 127
2, 131520, Note_off_c, 0, 59, 80
2, 131520, Note_off_c, 0, 56, 80
2, 132000, Note_on_c, 0, 64, 111
2, 132000, Note_on_c, 0, 61, 111
2, 132480, Note_off_c, 0, 64, 80
2, 132480, Note_off_c, 0, 61, 80
2, 132480, Note_on_c, 0, 68, 111
2, 132480, Note_on_c, 0, 64, 111
2, 132480, Note_on_c, 0, 61, 111
2, 132960, Note_off_c, 0, 68, 80
2, 132960, Note_off_c, 0, 64, 80
2, 132960, Note_off_c, 0, 61, 80
2, 132960, Note_on_c, 0, 66, 111
2, 132960, Note_on_c, 0, 63, 111
2, 132960, Note_on_c, 0, 54, 111
2, 133440, Note_off_c, 0, 66, 80
2, 133440, Note_off_c, 0, 63, 80
2, 133440, Note_off_c, 0, 54, 80
2, 133440, Note_on_c, 0, 59, 111
2, 133440, Note_on_c, 0, 51, 111
2, 133920, Note_off_c, 0, 59, 80
2, 133920, Note_off_c, 0, 51, 80
2, 133920, Note_on_c, 0, 64, 111
2, 133920, Note_on_c, 0, 56, 111
2, 134400, Note_off_c, 0, 64, 80
2, 134400, Note_off_c, 0, 56, 80
2, 134400, Note_on_c, 0, 63, 111
2, 134400, Note_on_c, 0, 42, 95
2, 135360, Note_off_c, 0, 63, 80
2, 135360, Note_off_c, 0, 42, 80
2, 135840, Note_on_c, 0, 51, 111
2, 135880, Note_on_c, 0, 54, 111
2, 135920, Note_on_c, 0, 59, 111
2, 138720, Note_off_c, 0, 51, 80
2, 138720, Note_off_c, 0, 54, 80
2, 138720, Note_off_c, 0, 59, 80
2, 138720, Note_on_c, 0, 71, 111
2, 138720, Note_on_c, 0, 64, 111
2, 140160, Note_off_c, 0, 71, 80
2, 140160, Note_off_c, 0, 64, 80
2, 140160, Note_on_c, 0, 71, 111
2, 140160, Note_on_c, 0, 59, 111
2, 141600, Note_off_c, 0, 71, 80
2, 141600, Note_off_c, 0, 59, 80
2, 141600, Note_on_c, 0, 71, 111
2, 141600, Note_on_c, 0, 66, 111
2, 143040, Note_off_c, 0, 71, 80
2, 143040, Note_off_c, 0, 66, 80
2, 143520, Note_on_c, 0, 75, 111
2, 143760, Note_off_c, 0, 75, 80
2, 143760, Note_on_c, 0, 76, 111
2, 144000, Note_off_c, 0, 76, 80
2, 144000, Note_on_c, 0, 77, 111
2, 144240, Note_off_c, 0, 77, 80
2, 144240, Note_on_c, 0, 78, 111
2, 144480, Note_off_c, 0, 78, 80
2, 144480, Note_on_c, 0, 76, 111
2, 144720, Note_off_c, 0, 76, 80
2, 144720, Note_on_c, 0, 75, 111
2, 144960, Note_off_c, 0, 75, 80
2, 144960, Note_on_c, 0, 69, 111
2, 144960, Note_on_c, 0, 59, 111
2, 145440, Note_off_c, 0, 69, 80
2, 145440, Note_off_c, 0, 59, 80
2, 145440, Note_on_c, 0, 69, 111
2, 145440, Note_on_c, 0, 59, 111
2, 145920, Note_off_c, 0, 69, 80
2, 145920, Note_off_c, 0, 59, 80
2, 146400, Note_on_c, 0, 66, 111
2, 146640, Note_off_c, 0, 66, 80
2, 146640, Note_on_c, 0, 63, 89
2, 146880, Note_off_c, 0, 63, 80
2, 146880, Note_on_c, 0, 64, 111
2, 147120, Note_off_c, 0, 64, 80
2, 147120, Note_on_c, 0, 61, 89
2, 147360, Note_off_c, 0, 61, 80
2, 147360, Note_on_c, 0, 64, 111
2, 147600, Note_off_c, 0, 64, 80
2, 147600, Note_on_c, 0, 63, 111
2, 147840, Note_off_c, 0, 63, 80
2, 147840, Note_on_c, 0, 56, 127
2, 148320, Note_off_c, 0, 56, 80
2, 148320, Note_on_c, 0, 56, 127
2, 148320, Note_on_c, 0, 52, 111
2, 148800, Note_off_c, 0, 56, 80
2, 148800, Note_off_c, 0, 52, 80
2, 148800, Note_on_c, 1, 44, 111
2, 148830, Pitch_bend_c, 1, 9216
2, 148845, Pitch_bend_c, 1, 10240
2, 148860, Note_off_c, 1, 44, 80
2, 148860, Pitch_bend_c, 1, 8192
2, 148860, Note_on_c, 0, 47, 89
2, 149760, Note_off_c, 0, 47, 80
2, 150240, Note_on_c, 0, 71, 111
2, 150240, Note_on_c, 0, 64, 111
2, 151680, Note_off_c, 0, 71, 80
2, 151680, Note_off_c, 0, 64, 80
2, 151680, Note_on_c, 0, 71, 111
2, 151680, Note_on_c, 0, 59, 111
2, 153120, Note_off_c, 0, 71, 80
2, 153120, Note_off_c, 0, 59, 80
2, 153120, Note_on_c, 0, 71, 111
2, 153120, Note_on_c, 0, 66, 111
2, 154560, Note_off_c, 0, 71, 80
2, 154560, Note_off_c, 0, 66, 80
2, 155040, Note_on_c, 0, 75, 111
2, 155280, Note_off_c, 0, 75, 80
2, 155280, Note_on_c, 0, 76, 111
2, 155520, Note_off_c, 0, 76, 80
2, 155520, Note_on_c, 0, 77, 111
2, 155760, Note_off_c, 0, 77, 80
2, 155760, Note_on_c, 0, 78, 111
2, 156000, Note_off_c, 0, 78, 80
2, 156000, Note_on_c, 0, 76, 111
2, 156240, Note_off_c, 0, 76, 80
2, 156240, Note_on_c, 0, 75, 89
2, 156480, Note_off_c, 0, 75, 80
2, 156480, Note_on_c, 0, 69, 111
2, 156480, Note_on_c, 0, 59, 111
2, 156960, Note_off_c, 0, 69, 80
2, 156960, Note_off_c, 0, 59, 80
2, 156960, Note_on_c, 0, 69, 111
2, 156960, Note_on_c, 0, 59, 111
2, 157440, Note_off_c, 0, 69, 80
2, 157440, Note_off_c, 0, 59, 80
2, 157440, Note_on_c, 0, 73, 111
2, 157680, Note_off_c, 0, 73, 80
2, 157680, Note_on_c, 0, 71, 89
2, 157920, Note_off_c, 0, 71, 80
2, 157920, Note_on_c, 0, 63, 111
2, 157920, Note_on_c, 0, 57, 111
2, 158400, Note_off_c, 0, 63, 80
2, 158400, Note_off_c, 0, 57, 80
2, 158400, Note_on_c, 0, 63, 111
2, 158400, Note_on_c, 0, 57, 111
2, 158880, Note_off_c, 0, 63, 80
2, 158880, Note_off_c, 0, 57, 80
2, 158880, Note_on_c, 0, 56, 127
2, 158920, Note_on_c, 0, 59, 111
2, 158960, Note_on_c, 0, 64, 111
2, 160800, Note_off_c, 0, 56, 80
2, 160800, Note_off_c, 0, 59, 80
2, 160800, Note_off_c, 0, 64, 80
2, 161280, Note_on_c, 1, 68, 111
2, 161310, Pitch_bend_c, 1, 9216
2, 161325, Pitch_bend_c, 1, 10240
2, 161340, Note_off_c, 1, 68, 80
2, 161340, Pitch_bend_c, 1, 8192
2, 161340, Note_on_c, 0, 71, 89
2, 161760, Note_off_c, 0, 71, 80
2, 161760, Note_on_c, 0, 71, 111
2, 161760, Note_on_c, 0, 64, 111
2, 163200, Note_off_c, 0, 71, 80
2, 163200, Note_off_c, 0, 64, 80
2, 163200, Note_on_c, 0, 71, 111
2, 163200, Note_on_c, 0, 59, 111
2, 164640, Note_off_c, 0, 71, 80
2, 164640, Note_off_c, 0, 59, 80
2, 164640, Note_on_c, 0, 71, 111
2, 164640, Note_on_c, 0, 66, 111
2, 166080, Note_off_c, 0, 71, 80
2, 166080, Note_off_c, 0, 66, 80
2, 166560, Note_on_c, 0, 75, 111
2, 166800, Note_off_c, 0, 75, 80
2, 166800, Note_on_c, 0, 76, 111
2, 167040, Note_off_c, 0, 76, 80
2, 167040, Note_on_c, 0, 77, 111
2, 167280, Note_off_c, 0, 77, 80
2, 167280, Note_on_c, 0, 78, 111
2, 167520, Note_off_c, 0, 78, 80
2, 167520, Note_on_c, 0, 76, 111
2, 167760, Note_off_c, 0, 76, 80
2, 167760, Note_on_c, 0, 75, 111
2, 168000, Note_off_c, 0, 75, 80
2, 168000, Note_on_c, 0, 69, 111
2, 168000, Note_on_c, 0, 59, 111
2, 168480, Note_off_c, 0, 69, 80
2, 168480, Note_off_c, 0, 59, 80
2, 168480, Note_on_c, 0, 69, 111
2, 168480, Note_on_c, 0, 59, 111
2, 168960, Note_off_c, 0, 69, 80
2, 168960, Note_off_c, 0, 59, 80
2, 169440, Note_on_c, 0, 66, 111
2, 169680, Note_off_c, 0, 66, 80
2, 169680, Note_on_c, 0, 63, 89
2, 169920, Note_off_c, 0, 63, 80
2, 169920, Note_on_c, 0, 64, 111
2, 170160, Note_off_c, 0, 64, 80
2, 170160, Note_on_c, 0, 61, 89
2, 170400, Note_off_c, 0, 61, 80
2, 170400, Note_on_c, 0, 64, 111
2, 170640, Note_off_c, 0, 64, 80
2, 170640, Note_on_c, 0, 63, 111
2, 170880, Note_off_c, 0, 63, 80
2, 170880, Note_on_c, 0, 56, 127
2, 171360, Note_off_c, 0, 56, 80
2, 171360, Note_on_c, 0, 56, 127
2, 171360, Note_on_c, 0, 52, 111
2, 171840, Note_off_c, 0, 56, 80
2, 171840, Note_off_c, 0, 52, 80
2, 171840, Note_on_c, 1, 44, 111
2, 171870, Pitch_bend_c, 1, 9216
2, 171885, Pitch_bend_c, 1, 10240
2, 171900, Note_off_c, 1, 44, 80
2, 171900, Pitch_bend_c, 1, 8192
2, 171900, Note_on_c, 0, 47, 89
2, 172800, Note_off_c, 0, 47, 80
2, 173280, Note_on_c, 0, 71, 111
2, 173280, Note_on_c, 0, 64, 111
2, 174720, Note_off_c, 0, 71, 80
2, 174720, Note_off_c, 0, 64, 80
2, 174720, Note_on_c, 0, 71, 111
2, 174720, Note_on_c, 0, 59, 111
2, 176160, Note_off_c, 0, 71, 80
2, 176160, Note_off_c, 0, 59, 80
2, 176160, Note_on_c, 0, 71, 111
2, 176160, Note_on_c, 0, 66, 111
2, 177600, Note_off_c, 0, 71, 80
2, 177600, Note_off_c, 0, 66, 80
2, 178080, Note_on_c, 0, 75, 111
2, 178320, Note_off_c, 0, 75, 80
2, 178320, Note_on_c, 0, 76, 111
2, 178560, Note_off_c, 0, 76, 80
2, 178560, Note_on_c, 0, 77, 111
2, 178800, Note_off_c, 0, 77, 80
2, 178800, Note_on_c, 0, 78, 111
2, 179040, Note_off_c, 0, 78, 80
2, 179040, Note_on_c, 0, 76, 111
2, 179280, Note_off_c, 0, 76, 80
2, 179280, Note_on_c, 0, 75, 89
2, 179520, Note_off_c, 0, 75, 80
2, 179520, Note_on_c, 0, 69, 111
2, 179520, Note_on_c, 0, 59, 111
2, 180000, Note_off_c, 0, 69, 80
2, 180000, Note_off_c, 0, 59, 80
2, 180000, Note_on_c, 0, 69, 111
2, 180000, Note_on_c, 0, 59, 111
2, 180480, Note_off_c, 0, 69, 80
2, 180480, Note_off_c, 0, 59, 80
2, 180480, Note_on_c, 0, 73, 111
2, 180720, Note_off_c, 0, 73, 80
2, 180720, Note_on_c, 0, 71, 89
2, 180960, Note_off_c, 0, 71, 80
2, 180960, Note_on_c, 0, 63, 111
2, 180960, Note_on_c, 0, 57, 111
2, 181440, Note_off_c, 0, 63, 80
2, 181440, Note_off_c, 0, 57, 80
2, 181440, Note_on_c, 0, 63, 111
2, 181440, Note_on_c, 0, 57, 111
2, 181920, Note_off_c, 0, 63, 80
2, 181920, Note_off_c, 0, 57, 80
2, 181920, Note_on_c, 0, 56, 127
2, 181960, Note_on_c, 0, 59, 111
2, 182000, Note_on_c, 0, 64, 111
2, 183840, Note_off_c, 0, 56, 80
2, 183840, Note_off_c, 0, 59, 80
2, 183840, Note_off_c, 0, 64, 80
2, 184320, Note_on_c, 1, 61, 111
2, 184350, Pitch_bend_c, 1, 9216
2, 184365, Pitch_bend_c, 1, 10240
2, 184380, Note_off_c, 1, 61, 80
2, 184380, Pitch_bend_c, 1, 8192
2, 184380, Note_on_c, 0, 64, 89
2, 184800, Note_off_c, 0, 64, 80
2, 184800, Note_on_c, 0, 64, 111
2, 184800, Note_on_c, 0, 45, 127
2, 186240, Note_off_c, 0, 64, 80
2, 186240, Note_off_c, 0, 45, 80
2, 186240, Note_on_c, 0, 66, 111
2, 186240, Note_on_c, 0, 40, 111
2, 187680, Note_off_c, 0, 66, 80
2, 187680, Note_off_c, 0, 40, 80
2, 187680, Note_on_c, 0, 66, 111
2, 187680, Note_on_c, 0, 45, 127
2, 189120, Note_off_c, 0, 66, 80
2, 189120, Note_off_c, 0, 45, 80
2, 189120, Note_on_c, 0, 68, 111
2, 189120, Note_on_c, 0, 40, 111
2, 190560, Note_off_c, 0, 68, 80
2, 190560, Note_off_c, 0, 40, 80
2, 190560, Note_on_c, 0, 68, 111
2, 191520, Note_off_c, 0, 68, 80
2, 191520, Note_on_c, 0, 69, 111
2, 192000, Note_off_c, 0, 69, 80
2, 192000, Note_on_c, 0, 69, 111
2, 192960, Note_off_c, 0, 69, 80
2, 192960, Note_on_c, 0, 68, 111
2, 193440, Note_off_c, 0, 68, 80
2, 193440, Note_on_c, 0, 68, 111
2, 193500, Note_off_c, 0, 68, 80
2, 193500, Note_on_c, 0, 66, 89
2, 194880, Note_off_c, 0, 66, 80
2, 194880, Note_on_c, 0, 47, 111
2, 195360, Note_off_c, 0, 47, 80
2, 195360, Note_on_c, 0, 49, 111
2, 195840, Note_off_c, 0, 49, 80
2, 195840, Note_on_c, 0, 50, 111
2, 196320, Note_off_c, 0, 50, 80
2, 196320, Note_on_c, 0, 66, 111
2, 196320, Note_on_c, 0, 40, 111
2, 197760, Note_off_c, 0, 66, 80
2, 197760, Note_off_c, 0, 40, 80
2, 197760, Note_on_c, 0, 68, 111
2, 198720, Note_off_c, 0, 68, 80
2, 198720, Note_on_c, 0, 69, 111
2, 198780, Note_off_c, 0, 69, 80
2, 198780, Note_on_c, 0, 73, 89
2, 199200, Note_off_c, 0, 73, 80
2, 199200, Note_on_c, 0, 73, 111
2, 199200, Note_on_c, 0, 40, 111
2, 200640, Note_off_c, 0, 73, 80
2, 200640, Note_off_c, 0, 40, 80
2, 200640, Note_on_c, 0, 71, 111
2, 200640, Note_on_c, 0, 52, 111
2, 202080, Note_off_c, 0, 71, 80
2, 202080, Note_off_c, 0, 52, 80
2, 202080, Note_on_c, 0, 76, 111
2, 202320, Note_off_c, 0, 76, 80
2, 202320, Note_on_c, 0, 74, 89
2, 202560, Note_off_c, 0, 74, 80
2, 202560, Note_on_c, 0, 66, 111
2, 203040, Note_off_c, 0, 66, 80
2, 203040, Note_on_c, 0, 68, 111
2, 203520, Note_off_c, 0, 68, 80
2, 203520, Note_on_c, 0, 73, 111
2, 203760, Note_off_c, 0, 73, 80
2, 203760, Note_on_c, 0, 71, 89
2, 204000, Note_off_c, 0, 71, 80
2, 204000, Note_on_c, 0, 62, 111
2, 204480, Note_off_c, 0, 62, 80
2, 204480, Note_on_c, 0, 64, 111
2, 204960, Note_off_c, 0, 64, 80
2, 204960, Note_on_c, 0, 71, 111
2, 205200, Note_off_c, 0, 71, 80
2, 205200, Note_on_c, 0, 69, 89
2, 205440, Note_off_c, 0, 69, 80
2, 205440, Note_on_c, 0, 61, 111
2, 205920, Note_off_c, 0, 61, 80
2, 205920, Note_on_c, 0, 64, 111
2, 206400, Note_off_c, 0, 64, 80
2, 206400, Note_on_c, 0, 57, 111
2, 207840, Note_off_c, 0, 57, 80
2, 207840, Note_on_c, 0, 64, 111
2, 207840, Note_on_c, 0, 45, 127
2, 209280, Note_off_c, 0, 64, 80
2, 209280, Note_off_c, 0, 45, 80
2, 209280, Note_on_c, 0, 66, 111
2, 209280, Note_on_c, 0, 40, 111
2, 210720, Note_off_c, 0, 66, 80
2, 210720, Note_off_c, 0, 40, 80
2, 210720, Note_on_c, 0, 66, 111
2, 210720, Note_on_c, 0, 45, 127
2, 212160, Note_off_c, 0, 66, 80
2, 212160, Note_off_c, 0, 45, 80
2, 212160, Note_on_c, 0, 68, 111
2, 212160, Note_on_c, 0, 40, 111
2, 213600, Note_off_c, 0, 68, 80
2, 213600, Note_off_c, 0, 40, 80
2, 213600, Note_on_c, 0, 68, 111
2, 213600, Note_on_c, 0, 45, 127
2, 215040, Note_off_c, 0, 68, 80
2, 215040, Note_off_c, 0, 45, 80
2, 215040, Note_on_c, 0, 69, 111
2, 215040, Note_on_c, 0, 45, 127
2, 216480, Note_off_c, 0, 69, 80
2, 216480, Note_off_c, 0, 45, 80
2, 216480, Note_on_c, 0, 76, 111
2, 216480, Note_on_c, 0, 50, 111
2, 217920, Note_off_c, 0, 76, 80
2, 217920, Note_off_c, 0, 50, 80
2, 217920, Note_on_c, 0, 74, 111
2, 217920, Note_on_c, 0, 50, 111
2, 219360, Note_off_c, 0, 74, 80
2, 219360, Note_off_c, 0, 50, 80
2, 219360, Note_on_c, 0, 66, 111
2, 219360, Note_on_c, 0, 47, 127
2, 220800, Note_off_c, 0, 66, 80
2, 220800, Note_off_c, 0, 47, 80
2, 220800, Note_on_c, 0, 74, 111
2, 220800, Note_on_c, 0, 50, 111
2, 222240, Note_off_c, 0, 74, 80
2, 222240, Note_off_c, 0, 50, 80
2, 222240, Note_on_c, 0, 73, 111
2, 222240, Note_on_c, 0, 52, 111
2, 223680, Note_off_c, 0, 73, 80
2, 223680, Note_off_c, 0, 52, 80
2, 223680, Note_on_c, 0, 64, 111
2, 223680, Note_on_c, 0, 40, 111
2, 225120, Note_off_c, 0, 64, 80
2, 225120, Note_off_c, 0, 40, 80
2, 225120, Note_on_c, 0, 66, 111
2, 225120, Note_on_c, 0, 40, 111
2, 226560, Note_off_c, 0, 66, 80
2, 226560, Note_off_c, 0, 40, 80
2, 226560, Note_on_c, 0, 71, 111
2, 226560, Note_on_c, 0, 52, 111
2, 228000, Note_off_c, 0, 71, 80
2, 228000, Note_off_c, 0, 52, 80
2, 228000, Note_on_c, 0, 69, 111
2, 228000, Note_on_c, 0, 64, 111
2, 228000, Note_on_c, 0, 61, 111
2, 230880, Note_off_c, 0, 69, 80
2, 230880, Note_off_c, 0, 64, 80
2, 230880, Note_off_c, 0, 61, 80
2, 230880, End_track
3, 0, Start_track
3, 0, Title_t, "guitare nylon"
3, 0, Control_c, 2, 100, 0
3, 0, Control_c, 2, 101, 0
3, 0, Control_c, 2, 6, 8
3, 0, Pitch_bend_c, 2, 8192
3, 0, Control_c, 3, 100, 0
3, 0, Control_c, 3, 101, 0
3, 0, Control_c, 3, 6, 8
3, 0, Pitch_bend_c, 3, 8192
3, 0, Program_c, 2, 24
3, 0, Program_c, 3, 24
3, 0, Control_c, 2, 7, 120
3, 0, Control_c, 3, 7, 120
3, 0, Control_c, 2, 10, 64
3, 0, Control_c, 3, 10, 64
3, 0, Control_c, 2, 93, 0
3, 0, Control_c, 3, 93, 0
3, 0, Control_c, 2, 91, 127
3, 0, Control_c, 3, 91, 127
3, 0, Control_c, 2, 92, 0
3, 0, Control_c, 3, 92, 0
3, 0, Control_c, 2, 95, 0
3, 0, Control_c, 3, 95, 0
3, 960, Note_on_c, 2, 61, 111
3, 960, Note_on_c, 2, 57, 111
3, 1440, Note_off_c, 2, 61, 80
3, 1440, Note_off_c, 2, 57, 80
3, 1440, Note_on_c, 2, 61, 111
3, 1440, Note_on_c, 2, 57, 111
3, 1920, Note_off_c, 2, 61, 80
3, 1920, Note_off_c, 2, 57, 80
3, 2400, Note_on_c, 2, 61, 111
3, 2400, Note_on_c, 2, 57, 111
3, 2880, Note_off_c, 2, 61, 80
3, 2880, Note_off_c, 2, 57, 80
3, 2880, Note_on_c, 2, 61, 111
3, 2880, Note_on_c, 2, 57, 111
3, 3360, Note_off_c, 2, 61, 80
3, 3360, Note_off_c, 2, 57, 80
3, 3840, Note_on_c, 2, 61, 111
3, 3840, Note_on_c, 2, 57, 111
3, 4320, Note_off_c, 2, 61, 80
3, 4320, Note_off_c, 2, 57, 80
3, 4320, Note_on_c, 2, 61, 111
3, 4320, Note_on_c, 2, 57, 111
3, 4800, Note_off_c, 2, 61, 80
3, 4800, Note_off_c, 2, 57, 80
3, 5280, Note_on_c, 2, 61, 111
3, 5280, Note_on_c, 2, 57, 111
3, 5760, Note_off_c, 2, 61, 80
3, 5760, Note_off_c, 2, 57, 80
3, 5760, Note_on_c, 2, 61, 111
3, 5760, Note_on_c, 2, 57, 111
3, 6240, Note_off_c, 2, 61, 80
3, 6240, Note_off_c, 2, 57, 80
3, 6720, Note_on_c, 2, 61, 111
3, 6720, Note_on_c, 2, 57, 111
3, 7200, Note_off_c, 2, 61, 80
3, 7200, Note_off_c, 2, 57, 80
3, 7200, Note_on_c, 2, 61, 111
3, 7200, Note_on_c, 2, 57, 111
3, 7680, Note_off_c, 2, 61, 80
3, 7680, Note_off_c, 2, 57, 80
3, 8160, Note_on_c, 2, 61, 111
3, 8160, Note_on_c, 2, 57, 111
3, 8640, Note_off_c, 2, 61, 80
3, 8640, Note_off_c, 2, 57, 80
3, 8640, Note_on_c, 2, 61, 111
3, 8640, Note_on_c, 2, 57, 111
3, 9120, Note_off_c, 2, 61, 80
3, 9120, Note_off_c, 2, 57, 80
3, 9600, Note_on_c, 2, 62, 111
3, 9600, Note_on_c, 2, 59, 111
3, 10080, Note_off_c, 2, 62, 80
3, 10080, Note_off_c, 2, 59, 80
3, 10080, Note_on_c, 2, 62, 111
3, 10080, Note_on_c, 2, 59, 111
3, 10560, Note_off_c, 2, 62, 80
3, 10560, Note_off_c, 2, 59, 80
3, 12480, Note_on_c, 2, 62, 111
3, 12480, Note_on_c, 2, 59, 111
3, 12960, Note_off_c, 2, 62, 80
3, 12960, Note_off_c, 2, 59, 80
3, 12960, Note_on_c, 2, 62, 111
3, 12960, Note_on_c, 2, 59, 111
3, 13440, Note_off_c, 2, 62, 80
3, 13440, Note_off_c, 2, 59, 80
3, 13920, Note_on_c, 2, 62, 111
3, 13920, Note_on_c, 2, 59, 111
3, 14400, Note_off_c, 2, 62, 80
3, 14400, Note_off_c, 2, 59, 80
3, 14400, Note_on_c, 2, 62, 111
3, 14400, Note_on_c, 2, 59, 111
3, 14880, Note_off_c, 2, 62, 80
3, 14880, Note_off_c, 2, 59, 80
3, 15360, Note_on_c, 2, 68, 111
3, 15360, Note_on_c, 2, 62, 111
3, 15840, Note_off_c, 2, 68, 80
3, 15840, Note_off_c, 2, 62, 80
3, 15840, Note_on_c, 2, 68, 111
3, 15840, Note_on_c, 2, 62, 111
3, 16320, Note_off_c, 2, 68, 80
3, 16320, Note_off_c, 2, 62, 80
3, 16800, Note_on_c, 2, 68, 111
3, 16800, Note_on_c, 2, 62, 111
3, 17280, Note_off_c, 2, 68, 80
3, 17280, Note_off_c, 2, 62, 80
3, 17280, Note_on_c, 2, 68, 111
3, 17280, Note_on_c, 2, 62, 111
3, 17760, Note_off_c, 2, 68, 80
3, 17760, Note_off_c, 2, 62, 80
3, 17760, Note_on_c, 2, 40, 111
3, 19200, Note_off_c, 2, 40, 80
3, 19200, Note_on_c, 2, 40, 111
3, 20640, Note_off_c, 2, 40, 80
3, 20640, Note_on_c, 2, 45, 127
3, 22080, Note_off_c, 2, 45, 80
3, 23040, Note_on_c, 2, 61, 111
3, 23100, Note_off_c, 2, 61, 80
3, 23100, Note_on_c, 2, 64, 89
3, 23520, Note_off_c, 2, 64, 80
3, 24000, Note_on_c, 2, 61, 111
3, 24000, Note_on_c, 2, 57, 111
3, 24480, Note_off_c, 2, 61, 80
3, 24480, Note_off_c, 2, 57, 80
3, 24480, Note_on_c, 2, 61, 111
3, 24480, Note_on_c, 2, 57, 111
3, 24960, Note_off_c, 2, 61, 80
3, 24960, Note_off_c, 2, 57, 80
3, 25440, Note_on_c, 2, 61, 111
3, 25440, Note_on_c, 2, 57, 111
3, 25920, Note_off_c, 2, 61, 80
3, 25920, Note_off_c, 2, 57, 80
3, 25920, Note_on_c, 2, 61, 111
3, 25920, Note_on_c, 2, 57, 111
3, 26400, Note_off_c, 2, 61, 80
3, 26400, Note_off_c, 2, 57, 80
3, 26880, Note_on_c, 2, 61, 111
3, 26880, Note_on_c, 2, 57, 111
3, 27360, Note_off_c, 2, 61, 80
3, 27360, Note_off_c, 2, 57, 80
3, 27360, Note_on_c, 2, 61, 111
3, 27360, Note_on_c, 2, 57, 111
3, 27840, Note_off_c, 2, 61, 80
3, 27840, Note_off_c, 2, 57, 80
3, 28320, Note_on_c, 2, 61, 111
3, 28320, Note_on_c, 2, 57, 111
3, 28800, Note_off_c, 2, 61, 80
3, 28800, Note_off_c, 2, 57, 80
3, 28800, Note_on_c, 2, 61, 111
3, 28800, Note_on_c, 2, 57, 111
3, 29280, Note_off_c, 2, 61, 80
3, 29280, Note_off_c, 2, 57, 80
3, 29760, Note_on_c, 2, 61, 111
3, 29760, Note_on_c, 2, 57, 111
3, 30240, Note_off_c, 2, 61, 80
3, 30240, Note_off_c, 2, 57, 80
3, 30240, Note_on_c, 2, 61, 111
3, 30240, Note_on_c, 2, 57, 111
3, 30720, Note_off_c, 2, 61, 80
3, 30720, Note_off_c, 2, 57, 80
3, 31200, Note_on_c, 2, 61, 111
3, 31200, Note_on_c, 2, 57, 111
3, 31680, Note_off_c, 2, 61, 80
3, 31680, Note_off_c, 2, 57, 80
3, 31680, Note_on_c, 2, 61, 111
3, 31680, Note_on_c, 2, 57, 111
3, 32160, Note_off_c, 2, 61, 80
3, 32160, Note_off_c, 2, 57, 80
3, 32640, Note_on_c, 2, 71, 111
3, 32640, Note_on_c, 2, 66, 111
3, 33120, Note_off_c, 2, 71, 80
3, 33120, Note_off_c, 2, 66, 80
3, 33120, Note_on_c, 2, 71, 111
3, 33120, Note_on_c, 2, 66, 111
3, 33600, Note_off_c, 2, 71, 80
3, 33600, Note_off_c, 2, 66, 80
3, 34080, Note_on_c, 2, 71, 111
3, 34080, Note_on_c, 2, 66, 111
3, 34560, Note_off_c, 2, 71, 80
3, 34560, Note_off_c, 2, 66, 80
3, 34560, Note_on_c, 2, 71, 111
3, 34560, Note_on_c, 2, 66, 111
3, 35040, Note_off_c, 2, 71, 80
3, 35040, Note_off_c, 2, 66, 80
3, 35520, Note_on_c, 2, 62, 111
3, 35520, Note_on_c, 2, 59, 111
3, 36000, Note_off_c, 2, 62, 80
3, 36000, Note_off_c, 2, 59, 80
3, 36000, Note_on_c, 2, 62, 111
3, 36000, Note_on_c, 2, 59, 111
3, 36480, Note_off_c, 2, 62, 80
3, 36480, Note_off_c, 2, 59, 80
3, 36960, Note_on_c, 2, 69, 111
3, 36960, Note_on_c, 2, 65, 111
3, 37440, Note_off_c, 2, 69, 80
3, 37440, Note_off_c, 2, 65, 80
3, 37440, Note_on_c, 2, 69, 111
3, 37440, Note_on_c, 2, 65, 111
3, 37920, Note_off_c, 2, 69, 80
3, 37920, Note_off_c, 2, 65, 80
3, 38400, Note_on_c, 2, 69, 111
3, 38400, Note_on_c, 2, 64, 111
3, 38880, Note_off_c, 2, 69, 80
3, 38880, Note_off_c, 2, 64, 80
3, 38880, Note_on_c, 2, 69, 111
3, 38880, Note_on_c, 2, 64, 111
3, 39360, Note_off_c, 2, 69, 80
3, 39360, Note_off_c, 2, 64, 80
3, 39840, Note_on_c, 2, 61, 111
3, 39840, Note_on_c, 2, 57, 111
3, 40320, Note_off_c, 2, 61, 80
3, 40320, Note_off_c, 2, 57, 80
3, 40320, Note_on_c, 2, 61, 111
3, 40320, Note_on_c, 2, 57, 111
3, 40800, Note_off_c, 2, 61, 80
3, 40800, Note_off_c, 2, 57, 80
3, 41280, Note_on_c, 2, 63, 111
3, 41280, Note_on_c, 2, 59, 111
3, 41760, Note_off_c, 2, 63, 80
3, 41760, Note_off_c, 2, 59, 80
3, 41760, Note_on_c, 2, 63, 111
3, 41760, Note_on_c, 2, 59, 111
3, 42240, Note_off_c, 2, 63, 80
3, 42240, Note_off_c, 2, 59, 80
3, 42720, Note_on_c, 2, 68, 111
3, 42720, Note_on_c, 2, 62, 111
3, 43200, Note_off_c, 2, 68, 80
3, 43200, Note_off_c, 2, 62, 80
3, 43200, Note_on_c, 2, 68, 111
3, 43200, Note_on_c, 2, 62, 111
3, 43680, Note_off_c, 2, 68, 80
3, 43680, Note_off_c, 2, 62, 80
3, 43680, Note_on_c, 2, 45, 127
3, 44160, Note_off_c, 2, 45, 80
3, 44160, Note_on_c, 2, 52, 111
3, 44640, Note_off_c, 2, 52, 80
3, 44640, Note_on_c, 2, 49, 111
3, 45120, Note_off_c, 2, 49, 80
3, 45120, Note_on_c, 2, 45, 127
3, 45600, Note_off_c, 2, 45, 80
3, 46560, Note_on_c, 2, 40, 111
3, 48000, Note_off_c, 2, 40, 80
3, 48000, Note_on_c, 2, 40, 111
3, 49440, Note_off_c, 2, 40, 80
3, 49440, Note_on_c, 2, 54, 111
3, 50880, Note_off_c, 2, 54, 80
3, 50880, Note_on_c, 3, 54, 111
3, 50910, Pitch_bend_c, 3, 9216
3, 50918, Pitch_bend_c, 3, 10240
3, 50925, Pitch_bend_c, 3, 11264
3, 50932, Pitch_bend_c, 3, 12288
3, 50940, Note_off_c, 3, 54, 80
3, 50940, Pitch_bend_c, 3, 8192
3, 50940, Note_on_c, 2, 59, 89
3, 51840, Note_off_c, 2, 59, 80
3, 52320, Note_on_c, 2, 54, 111
3, 53760, Note_off_c, 2, 54, 80
3, 53760, Note_on_c, 2, 47, 127
3, 55200, Note_off_c, 2, 47, 80
3, 55200, Note_on_c, 2, 40, 111
3, 56640, Note_off_c, 2, 40, 80
3, 56640, Note_on_c, 2, 40, 111
3, 58080, Note_off_c, 2, 40, 80
3, 58080, Note_on_c, 2, 40, 111
3, 59520, Note_off_c, 2, 40, 80
3, 59520, Note_on_c, 2, 40, 111
3, 60960, Note_off_c, 2, 40, 80
3, 60960, Note_on_c, 2, 45, 127
3, 62400, Note_off_c, 2, 45, 80
3, 62400, Note_on_c, 2, 45, 127
3, 63840, Note_off_c, 2, 45, 80
3, 63840, Note_on_c, 2, 47, 127
3, 65280, Note_off_c, 2, 47, 80
3, 66720, Note_on_c, 2, 52, 111
3, 67200, Note_off_c, 2, 52, 80
3, 67200, Note_on_c, 2, 47, 127
3, 67680, Note_off_c, 2, 47, 80
3, 67680, Note_on_c, 2, 44, 111
3, 68160, Note_off_c, 2, 44, 80
3, 68160, Note_on_c, 2, 40, 111
3, 69600, Note_off_c, 2, 40, 80
3, 69600, Note_on_c, 2, 40, 111
3, 71040, Note_off_c, 2, 40, 80
3, 71040, Note_on_c, 2, 40, 111
3, 72480, Note_off_c, 2, 40, 80
3, 72480, Note_on_c, 2, 54, 111
3, 73920, Note_off_c, 2, 54, 80
3, 73920, Note_on_c, 3, 54, 111
3, 73950, Pitch_bend_c, 3, 9216
3, 73958, Pitch_bend_c, 3, 10240
3, 73965, Pitch_bend_c, 3, 11264
3, 73972, Pitch_bend_c, 3, 12288
3, 73980, Note_off_c, 3, 54, 80
3, 73980, Pitch_bend_c, 3, 8192
3, 73980, Note_on_c, 2, 59, 89
3, 74880, Note_off_c, 2, 59, 80
3, 75360, Note_on_c, 2, 54, 111
3, 76800, Note_off_c, 2, 54, 80
3, 76800, Note_on_c, 2, 47, 127
3, 78240, Note_off_c, 2, 47, 80
3, 78240, Note_on_c, 2, 40, 111
3, 79680, Note_off_c, 2, 40, 80
3, 79680, Note_on_c, 2, 40, 111
3, 81120, Note_off_c, 2, 40, 80
3, 81120, Note_on_c, 2, 40, 111
3, 82560, Note_off_c, 2, 40, 80
3, 82560, Note_on_c, 2, 40, 111
3, 84000, Note_off_c, 2, 40, 80
3, 84000, Note_on_c, 2, 45, 127
3, 85440, Note_off_c, 2, 45, 80
3, 85440, Note_on_c, 2, 45, 127
3, 86880, Note_off_c, 2, 45, 80
3, 86880, Note_on_c, 2, 47, 127
3, 88320, Note_off_c, 2, 47, 80
3, 89760, Note_on_c, 2, 52, 111
3, 90240, Note_off_c, 2, 52, 80
3, 90240, Note_on_c, 2, 47, 127
3, 90720, Note_off_c, 2, 47, 80
3, 90720, Note_on_c, 2, 44, 111
3, 91200, Note_off_c, 2, 44, 80
3, 91200, Note_on_c, 2, 40, 111
3, 91680, Note_off_c, 2, 40, 80
3, 92640, Note_on_c, 2, 54, 111
3, 92640, Note_on_c, 2, 47, 127
3, 94080, Note_off_c, 2, 54, 80
3, 94080, Note_off_c, 2, 47, 80
3, 94080, Note_on_c, 2, 59, 111
3, 94080, Note_on_c, 2, 42, 95
3, 95520, Note_off_c, 2, 59, 80
3, 95520, Note_off_c, 2, 42, 80
3, 95520, Note_on_c, 2, 58, 111
3, 95520, Note_on_c, 2, 49, 111
3, 96960, Note_off_c, 2, 58, 80
3, 96960, Note_off_c, 2, 49, 80
3, 96960, Note_on_c, 2, 61, 111
3, 96960, Note_on_c, 2, 42, 95
3, 98400, Note_off_c, 2, 61, 80
3, 98400, Note_off_c, 2, 42, 80
3, 98400, Note_on_c, 2, 54, 111
3, 98400, Note_on_c, 2, 47, 127
3, 99840, Note_off_c, 2, 54, 80
3, 99840, Note_off_c, 2, 47, 80
3, 99840, Note_on_c, 2, 59, 111
3, 99840, Note_on_c, 2, 42, 95
3, 101280, Note_off_c, 2, 59, 80
3, 101280, Note_off_c, 2, 42, 80
3, 101280, Note_on_c, 2, 49, 111
3, 102720, Note_off_c, 2, 49, 80
3, 102720, Note_on_c, 2, 64, 111
3, 102720, Note_on_c, 2, 42, 95
3, 104160, Note_off_c, 2, 64, 80
3, 104160, Note_off_c, 2, 42, 80
3, 104160, Note_on_c, 2, 63, 111
3, 104160, Note_on_c, 2, 47, 127
3, 105600, Note_off_c, 2, 63, 80
3, 105600, Note_off_c, 2, 47, 80
3, 105600, Note_on_c, 2, 63, 111
3, 105600, Note_on_c, 2, 45, 127
3, 107040, Note_off_c, 2, 63, 80
3, 107040, Note_off_c, 2, 45, 80
3, 107040, Note_on_c, 2, 63, 111
3, 107040, Note_on_c, 2, 44, 111
3, 108480, Note_off_c, 2, 63, 80
3, 108480, Note_off_c, 2, 44, 80
3, 108480, Note_on_c, 2, 70, 111
3, 108480, Note_on_c, 2, 40, 111
3, 109920, Note_off_c, 2, 70, 80
3, 109920, Note_off_c, 2, 40, 80
3, 109920, Note_on_c, 2, 42, 95
3, 110880, Note_off_c, 2, 42, 80
3, 111360, Note_on_c, 2, 54, 111
3, 111840, Note_off_c, 2, 54, 80
3, 111840, Note_on_c, 2, 53, 111
3, 112320, Note_off_c, 2, 53, 80
3, 112320, Note_on_c, 2, 61, 111
3, 112320, Note_on_c, 2, 58, 111
3, 112320, Note_on_c, 2, 52, 111
3, 112320, Note_on_c, 2, 42, 95
3, 112800, Note_off_c, 2, 61, 80
3, 112800, Note_off_c, 2, 58, 80
3, 112800, Note_off_c, 2, 52, 80
3, 112800, Note_off_c, 2, 42, 80
3, 113280, Note_on_c, 2, 54, 111
3, 113760, Note_off_c, 2, 54, 80
3, 113760, Note_on_c, 2, 51, 111
3, 114240, Note_off_c, 2, 51, 80
3, 115680, Note_on_c, 2, 54, 111
3, 115680, Note_on_c, 2, 47, 127
3, 117120, Note_off_c, 2, 54, 80
3, 117120, Note_off_c, 2, 47, 80
3, 117120, Note_on_c, 2, 59, 111
3, 117120, Note_on_c, 2, 42, 95
3, 118560, Note_off_c, 2, 59, 80
3, 118560, Note_off_c, 2, 42, 80
3, 118560, Note_on_c, 2, 58, 111
3, 118560, Note_on_c, 2, 49, 111
3, 120000, Note_off_c, 2, 58, 80
3, 120000, Note_off_c, 2, 49, 80
3, 120000, Note_on_c, 2, 61, 111
3, 120000, Note_on_c, 2, 42, 95
3, 121440, Note_off_c, 2, 61, 80
3, 121440, Note_off_c, 2, 42, 80
3, 121440, Note_on_c, 2, 54, 111
3, 121440, Note_on_c, 2, 47, 127
3, 122880, Note_off_c, 2, 54, 80
3, 122880, Note_off_c, 2, 47, 80
3, 122880, Note_on_c, 2, 59, 111
3, 122880, Note_on_c, 2, 42, 95
3, 124320, Note_off_c, 2, 59, 80
3, 124320, Note_off_c, 2, 42, 80
3, 124320, Note_on_c, 2, 49, 111
3, 125760, Note_off_c, 2, 49, 80
3, 125760, Note_on_c, 2, 64, 111
3, 125760, Note_on_c, 2, 42, 95
3, 127200, Note_off_c, 2, 64, 80
3, 127200, Note_off_c, 2, 42, 80
3, 127200, Note_on_c, 2, 63, 111
3, 127200, Note_on_c, 2, 47, 127
3, 128640, Note_off_c, 2, 63, 80
3, 128640, Note_off_c, 2, 47, 80
3, 128640, Note_on_c, 2, 63, 111
3, 128640, Note_on_c, 2, 45, 127
3, 130080, Note_off_c, 2, 63, 80
3, 130080, Note_off_c, 2, 45, 80
3, 130080, Note_on_c, 2, 63, 111
3, 130080, Note_on_c, 2, 44, 111
3, 131520, Note_off_c, 2, 63, 80
3, 131520, Note_off_c, 2, 44, 80
3, 131520, Note_on_c, 2, 70, 111
3, 131520, Note_on_c, 2, 40, 111
3, 132960, Note_off_c, 2, 70, 80
3, 132960, Note_off_c, 2, 40, 80
3, 132960, Note_on_c, 2, 42, 95
3, 133920, Note_off_c, 2, 42, 80
3, 134400, Note_on_c, 2, 54, 111
3, 134880, Note_off_c, 2, 54, 80
3, 134880, Note_on_c, 2, 53, 111
3, 135360, Note_off_c, 2, 53, 80
3, 135360, Note_on_c, 2, 61, 111
3, 135360, Note_on_c, 2, 58, 111
3, 135360, Note_on_c, 2, 52, 111
3, 135360, Note_on_c, 2, 42, 95
3, 135840, Note_off_c, 2, 61, 80
3, 135840, Note_off_c, 2, 58, 80
3, 135840, Note_off_c, 2, 52, 80
3, 135840, Note_off_c, 2, 42, 80
3, 135840, Note_on_c, 2, 47, 127
3, 136320, Note_off_c, 2, 47, 80
3, 136320, Note_on_c, 2, 54, 111
3, 136800, Note_off_c, 2, 54, 80
3, 136800, Note_on_c, 2, 51, 111
3, 137280, Note_off_c, 2, 51, 80
3, 137280, Note_on_c, 2, 47, 127
3, 137760, Note_off_c, 2, 47, 80
3, 138240, Note_on_c, 3, 68, 111
3, 138270, Pitch_bend_c, 3, 9216
3, 138285, Pitch_bend_c, 3, 10240
3, 138300, Note_off_c, 3, 68, 80
3, 138300, Pitch_bend_c, 3, 8192
3, 138300, Note_on_c, 2, 71, 89
3, 138720, Note_off_c, 2, 71, 80
3, 139200, Note_on_c, 2, 68, 111
3, 139680, Note_off_c, 2, 68, 80
3, 139680, Note_on_c, 2, 68, 111
3, 140160, Note_off_c, 2, 68, 80
3, 140640, Note_on_c, 2, 68, 111
3, 141120, Note_off_c, 2, 68, 80
3, 141120, Note_on_c, 2, 68, 111
3, 141600, Note_off_c, 2, 68, 80
3, 142080, Note_on_c, 2, 69, 111
3, 142560, Note_off_c, 2, 69, 80
3, 142560, Note_on_c, 2, 69, 111
3, 143040, Note_off_c, 2, 69, 80
3, 143040, Note_on_c, 2, 59, 111
3, 144480, Note_off_c, 2, 59, 80
3, 144480, Note_on_c, 2, 54, 111
3, 145920, Note_off_c, 2, 54, 80
3, 145920, Note_on_c, 2, 47, 127
3, 147360, Note_off_c, 2, 47, 80
3, 147360, Note_on_c, 2, 40, 111
3, 148800, Note_off_c, 2, 40, 80
3, 149760, Note_on_c, 3, 68, 111
3, 149790, Pitch_bend_c, 3, 9216
3, 149805, Pitch_bend_c, 3, 10240
3, 149820, Note_off_c, 3, 68, 80
3, 149820, Pitch_bend_c, 3, 8192
3, 149820, Note_on_c, 2, 71, 89
3, 150240, Note_off_c, 2, 71, 80
3, 150720, Note_on_c, 2, 68, 111
3, 151200, Note_off_c, 2, 68, 80
3, 151200, Note_on_c, 2, 68, 111
3, 151680, Note_off_c, 2, 68, 80
3, 152160, Note_on_c, 2, 68, 111
3, 152640, Note_off_c, 2, 68, 80
3, 152640, Note_on_c, 2, 68, 111
3, 153120, Note_off_c, 2, 68, 80
3, 153600, Note_on_c, 2, 69, 111
3, 154080, Note_off_c, 2, 69, 80
3, 154080, Note_on_c, 2, 69, 111
3, 154560, Note_off_c, 2, 69, 80
3, 154560, Note_on_c, 2, 59, 111
3, 156000, Note_off_c, 2, 59, 80
3, 156000, Note_on_c, 2, 54, 111
3, 157440, Note_off_c, 2, 54, 80
3, 157440, Note_on_c, 2, 47, 127
3, 158880, Note_off_c, 2, 47, 80
3, 158880, Note_on_c, 2, 52, 111
3, 159360, Note_off_c, 2, 52, 80
3, 159360, Note_on_c, 2, 47, 127
3, 159840, Note_off_c, 2, 47, 80
3, 159840, Note_on_c, 2, 44, 111
3, 160320, Note_off_c, 2, 44, 80
3, 160320, Note_on_c, 2, 40, 111
3, 161280, Note_off_c, 2, 40, 80
3, 162240, Note_on_c, 2, 68, 111
3, 162720, Note_off_c, 2, 68, 80
3, 162720, Note_on_c, 2, 68, 111
3, 163200, Note_off_c, 2, 68, 80
3, 163680, Note_on_c, 2, 68, 111
3, 164160, Note_off_c, 2, 68, 80
3, 164160, Note_on_c, 2, 68, 111
3, 164640, Note_off_c, 2, 68, 80
3, 165120, Note_on_c, 2, 69, 111
3, 165600, Note_off_c, 2, 69, 80
3, 165600, Note_on_c, 2, 69, 111
3, 166080, Note_off_c, 2, 69, 80
3, 166080, Note_on_c, 2, 59, 111
3, 167520, Note_off_c, 2, 59, 80
3, 167520, Note_on_c, 2, 54, 111
3, 168960, Note_off_c, 2, 54, 80
3, 168960, Note_on_c, 2, 47, 127
3, 170400, Note_off_c, 2, 47, 80
3, 170400, Note_on_c, 2, 40, 111
3, 171840, Note_off_c, 2, 40, 80
3, 172800, Note_on_c, 3, 68, 111
3, 172830, Pitch_bend_c, 3, 9216
3, 172845, Pitch_bend_c, 3, 10240
3, 172860, Note_off_c, 3, 68, 80
3, 172860, Pitch_bend_c, 3, 8192
3, 172860, Note_on_c, 2, 71, 89
3, 173280, Note_off_c, 2, 71, 80
3, 173760, Note_on_c, 2, 68, 111
3, 174240, Note_off_c, 2, 68, 80
3, 174240, Note_on_c, 2, 68, 111
3, 174720, Note_off_c, 2, 68, 80
3, 175200, Note_on_c, 2, 68, 111
3, 175680, Note_off_c, 2, 68, 80
3, 175680, Note_on_c, 2, 68, 111
3, 176160, Note_off_c, 2, 68, 80
3, 176640, Note_on_c, 2, 69, 111
3, 177120, Note_off_c, 2, 69, 80
3, 177120, Note_on_c, 2, 69, 111
3, 177600, Note_off_c, 2, 69, 80
3, 177600, Note_on_c, 2, 59, 111
3, 179040, Note_off_c, 2, 59, 80
3, 179040, Note_on_c, 2, 54, 111
3, 180480, Note_off_c, 2, 54, 80
3, 180480, Note_on_c, 2, 47, 127
3, 181920, Note_off_c, 2, 47, 80
3, 181920, Note_on_c, 2, 52, 111
3, 182400, Note_off_c, 2, 52, 80
3, 182400, Note_on_c, 2, 47, 127
3, 182880, Note_off_c, 2, 47, 80
3, 182880, Note_on_c, 2, 44, 111
3, 183360, Note_off_c, 2, 44, 80
3, 183360, Note_on_c, 2, 40, 111
3, 184320, Note_off_c, 2, 40, 80
3, 185280, Note_on_c, 2, 61, 111
3, 185280, Note_on_c, 2, 57, 111
3, 185760, Note_off_c, 2, 61, 80
3, 185760, Note_off_c, 2, 57, 80
3, 185760, Note_on_c, 2, 61, 111
3, 185760, Note_on_c, 2, 57, 111
3, 186240, Note_off_c, 2, 61, 80
3, 186240, Note_off_c, 2, 57, 80
3, 186720, Note_on_c, 2, 61, 111
3, 186720, Note_on_c, 2, 57, 111
3, 187200, Note_off_c, 2, 61, 80
3, 187200, Note_off_c, 2, 57, 80
3, 187200, Note_on_c, 2, 61, 111
3, 187200, Note_on_c, 2, 57, 111
3, 187680, Note_off_c, 2, 61, 80
3, 187680, Note_off_c, 2, 57, 80
3, 188160, Note_on_c, 2, 61, 111
3, 188160, Note_on_c, 2, 57, 111
3, 188640, Note_off_c, 2, 61, 80
3, 188640, Note_off_c, 2, 57, 80
3, 188640, Note_on_c, 2, 61, 111
3, 188640, Note_on_c, 2, 57, 111
3, 189120, Note_off_c, 2, 61, 80
3, 189120, Note_off_c, 2, 57, 80
3, 189600, Note_on_c, 2, 61, 111
3, 189600, Note_on_c, 2, 57, 111
3, 190080, Note_off_c, 2, 61, 80
3, 190080, Note_off_c, 2, 57, 80
3, 190080, Note_on_c, 2, 61, 111
3, 190080, Note_on_c, 2, 57, 111
3, 190560, Note_off_c, 2, 61, 80
3, 190560, Note_off_c, 2, 57, 80
3, 191040, Note_on_c, 2, 61, 111
3, 191040, Note_on_c, 2, 57, 111
3, 191520, Note_off_c, 2, 61, 80
3, 191520, Note_off_c, 2, 57, 80
3, 191520, Note_on_c, 2, 61, 111
3, 191520, Note_on_c, 2, 57, 111
3, 192000, Note_off_c, 2, 61, 80
3, 192000, Note_off_c, 2, 57, 80
3, 192480, Note_on_c, 2, 61, 111
3, 192480, Note_on_c, 2, 57, 111
3, 192960, Note_off_c, 2, 61, 80
3, 192960, Note_off_c, 2, 57, 80
3, 192960, Note_on_c, 2, 61, 111
3, 192960, Note_on_c, 2, 57, 111
3, 193440, Note_off_c, 2, 61, 80
3, 193440, Note_off_c, 2, 57, 80
3, 193920, Note_on_c, 2, 62, 111
3, 193920, Note_on_c, 2, 59, 111
3, 194400, Note_off_c, 2, 62, 80
3, 194400, Note_off_c, 2, 59, 80
3, 194400, Note_on_c, 2, 62, 111
3, 194400, Note_on_c, 2, 59, 111
3, 194880, Note_off_c, 2, 62, 80
3, 194880, Note_off_c, 2, 59, 80
3, 196800, Note_on_c, 2, 62, 111
3, 196800, Note_on_c, 2, 59, 111
3, 197280, Note_off_c, 2, 62, 80
3, 197280, Note_off_c, 2, 59, 80
3, 197280, Note_on_c, 2, 62, 111
3, 197280, Note_on_c, 2, 59, 111
3, 197760, Note_off_c, 2, 62, 80
3, 197760, Note_off_c, 2, 59, 80
3, 198240, Note_on_c, 2, 62, 111
3, 198240, Note_on_c, 2, 59, 111
3, 198720, Note_off_c, 2, 62, 80
3, 198720, Note_off_c, 2, 59, 80
3, 198720, Note_on_c, 2, 62, 111
3, 198720, Note_on_c, 2, 59, 111
3, 199200, Note_off_c, 2, 62, 80
3, 199200, Note_off_c, 2, 59, 80
3, 199680, Note_on_c, 2, 68, 111
3, 199680, Note_on_c, 2, 62, 111
3, 200160, Note_off_c, 2, 68, 80
3, 200160, Note_off_c, 2, 62, 80
3, 200160, Note_on_c, 2, 68, 111
3, 200160, Note_on_c, 2, 62, 111
3, 200640, Note_off_c, 2, 68, 80
3, 200640, Note_off_c, 2, 62, 80
3, 201120, Note_on_c, 2, 68, 111
3, 201120, Note_on_c, 2, 62, 111
3, 201600, Note_off_c, 2, 68, 80
3, 201600, Note_off_c, 2, 62, 80
3, 201600, Note_on_c, 2, 68, 111
3, 201600, Note_on_c, 2, 62, 111
3, 202080, Note_off_c, 2, 68, 80
3, 202080, Note_off_c, 2, 62, 80
3, 202080, Note_on_c, 2, 40, 111
3, 203520, Note_off_c, 2, 40, 80
3, 203520, Note_on_c, 2, 40, 111
3, 204960, Note_off_c, 2, 40, 80
3, 204960, Note_on_c, 2, 45, 127
3, 206400, Note_off_c, 2, 45, 80
3, 207360, Note_on_c, 2, 61, 111
3, 207420, Note_off_c, 2, 61, 80
3, 207420, Note_on_c, 2, 64, 89
3, 207840, Note_off_c, 2, 64, 80
3, 208320, Note_on_c, 2, 61, 111
3, 208320, Note_on_c, 2, 57, 111
3, 208800, Note_off_c, 2, 61, 80
3, 208800, Note_off_c, 2, 57, 80
3, 208800, Note_on_c, 2, 61, 111
3, 208800, Note_on_c, 2, 57, 111
3, 209280, Note_off_c, 2, 61, 80
3, 209280, Note_off_c, 2, 57, 80
3, 209760, Note_on_c, 2, 61, 111
3, 209760, Note_on_c, 2, 57, 111
3, 210240, Note_off_c, 2, 61, 80
3, 210240, Note_off_c, 2, 57, 80
3, 210240, Note_on_c, 2, 61, 111
3, 210240, Note_on_c, 2, 57, 111
3, 210720, Note_off_c, 2, 61, 80
3, 210720, Note_off_c, 2, 57, 80
3, 211200, Note_on_c, 2, 61, 111
3, 211200, Note_on_c, 2, 57, 111
3, 211680, Note_off_c, 2, 61, 80
3, 211680, Note_off_c, 2, 57, 80
3, 211680, Note_on_c, 2, 61, 111
3, 211680, Note_on_c, 2, 57, 111
3, 212160, Note_off_c, 2, 61, 80
3, 212160, Note_off_c, 2, 57, 80
3, 212640, Note_on_c, 2, 61, 111
3, 212640, Note_on_c, 2, 57, 111
3, 213120, Note_off_c, 2, 61, 80
3, 213120, Note_off_c, 2, 57, 80
3, 213120, Note_on_c, 2, 61, 111
3, 213120, Note_on_c, 2, 57, 111
3, 213600, Note_off_c, 2, 61, 80
3, 213600, Note_off_c, 2, 57, 80
3, 214080, Note_on_c, 2, 61, 111
3, 214080, Note_on_c, 2, 57, 111
3, 214560, Note_off_c, 2, 61, 80
3, 214560, Note_off_c, 2, 57, 80
3, 214560, Note_on_c, 2, 61, 111
3, 214560, Note_on_c, 2, 57, 111
3, 215040, Note_off_c, 2, 61, 80
3, 215040, Note_off_c, 2, 57, 80
3, 215520, Note_on_c, 2, 61, 111
3, 215520, Note_on_c, 2, 57, 111
3, 216000, Note_off_c, 2, 61, 80
3, 216000, Note_off_c, 2, 57, 80
3, 216000, Note_on_c, 2, 61, 111
3, 216000, Note_on_c, 2, 57, 111
3, 216480, Note_off_c, 2, 61, 80
3, 216480, Note_off_c, 2, 57, 80
3, 216960, Note_on_c, 2, 71, 111
3, 216960, Note_on_c, 2, 66, 111
3, 217440, Note_off_c, 2, 71, 80
3, 217440, Note_off_c, 2, 66, 80
3, 217440, Note_on_c, 2, 71, 111
3, 217440, Note_on_c, 2, 66, 111
3, 217920, Note_off_c, 2, 71, 80
3, 217920, Note_off_c, 2, 66, 80
3, 218400, Note_on_c, 2, 71, 111
3, 218400, Note_on_c, 2, 66, 111
3, 218880, Note_off_c, 2, 71, 80
3, 218880, Note_off_c, 2, 66, 80
3, 218880, Note_on_c, 2, 71, 111
3, 218880, Note_on_c, 2, 66, 111
3, 219360, Note_off_c, 2, 71, 80
3, 219360, Note_off_c, 2, 66, 80
3, 219840, Note_on_c, 2, 62, 111
3, 219840, Note_on_c, 2, 59, 111
3, 220320, Note_off_c, 2, 62, 80
3, 220320, Note_off_c, 2, 59, 80
3, 220320, Note_on_c, 2, 62, 111
3, 220320, Note_on_c, 2, 59, 111
3, 220800, Note_off_c, 2, 62, 80
3, 220800, Note_off_c, 2, 59, 80
3, 221280, Note_on_c, 2, 69, 111
3, 221280, Note_on_c, 2, 65, 111
3, 221760, Note_off_c, 2, 69, 80
3, 221760, Note_off_c, 2, 65, 80
3, 221760, Note_on_c, 2, 69, 111
3, 221760, Note_on_c, 2, 65, 111
3, 222240, Note_off_c, 2, 69, 80
3, 222240, Note_off_c, 2, 65, 80
3, 222720, Note_on_c, 2, 69, 111
3, 222720, Note_on_c, 2, 64, 111
3, 223200, Note_off_c, 2, 69, 80
3, 223200, Note_off_c, 2, 64, 80
3, 223200, Note_on_c, 2, 69, 111
3, 223200, Note_on_c, 2, 64, 111
3, 223680, Note_off_c, 2, 69, 80
3, 223680, Note_off_c, 2, 64, 80
3, 224160, Note_on_c, 2, 61, 111
3, 224160, Note_on_c, 2, 57, 111
3, 224640, Note_off_c, 2, 61, 80
3, 224640, Note_off_c, 2, 57, 80
3, 224640, Note_on_c, 2, 61, 111
3, 224640, Note_on_c, 2, 57, 111
3, 225120, Note_off_c, 2, 61, 80
3, 225120, Note_off_c, 2, 57, 80
3, 225600, Note_on_c, 2, 63, 111
3, 225600, Note_on_c, 2, 59, 111
3, 226080, Note_off_c, 2, 63, 80
3, 226080, Note_off_c, 2, 59, 80
3, 226080, Note_on_c, 2, 63, 111
3, 226080, Note_on_c, 2, 59, 111
3, 226560, Note_off_c, 2, 63, 80
3, 226560, Note_off_c, 2, 59, 80
3, 227040, Note_on_c, 2, 68, 111
3, 227040, Note_on_c, 2, 62, 111
3, 227520, Note_off_c, 2, 68, 80
3, 227520, Note_off_c, 2, 62, 80
3, 227520, Note_on_c, 2, 68, 111
3, 227520, Note_on_c, 2, 62, 111
3, 228000, Note_off_c, 2, 68, 80
3, 228000, Note_off_c, 2, 62, 80
3, 228000, Note_on_c, 2, 45, 127
3, 228480, Note_off_c, 2, 45, 80
3, 228480, Note_on_c, 2, 52, 111
3, 228960, Note_off_c, 2, 52, 80
3, 228960, Note_on_c, 2, 49, 111
3, 229440, Note_off_c, 2, 49, 80
3, 229440, Note_on_c, 2, 45, 127
3, 230880, Note_off_c, 2, 45, 80
3, 230880, End_track
4, 0, Start_track
4, 0, Title_t, "guitare nylon"
4, 0, Control_c, 4, 100, 0
4, 0, Control_c, 4, 101, 0
4, 0, Control_c, 4, 6, 8
4, 0, Pitch_bend_c, 4, 8192
4, 0, Control_c, 5, 100, 0
4, 0, Control_c, 5, 101, 0
4, 0, Control_c, 5, 6, 8
4, 0, Pitch_bend_c, 5, 8192
4, 0, Program_c, 4, 24
4, 0, Program_c, 5, 24
4, 0, Control_c, 4, 7, 120
4, 0, Control_c, 5, 7, 120
4, 0, Control_c, 4, 10, 64
4, 0, Control_c, 5, 10, 64
4, 0, Control_c, 4, 93, 0
4, 0, Control_c, 5, 93, 0
4, 0, Control_c, 4, 91, 127
4, 0, Control_c, 5, 91, 127
4, 0, Control_c, 4, 92, 0
4, 0, Control_c, 5, 92, 0
4, 0, Control_c, 4, 95, 0
4, 0, Control_c, 5, 95, 0
4, 6240, Note_on_c, 4, 45, 127
4, 7680, Note_off_c, 4, 45, 80
4, 7680, Note_on_c, 4, 40, 111
4, 9120, Note_off_c, 4, 40, 80
4, 9120, Note_on_c, 4, 47, 127
4, 10560, Note_off_c, 4, 47, 80
4, 13440, Note_on_c, 4, 47, 127
4, 14880, Note_off_c, 4, 47, 80
4, 190560, Note_on_c, 4, 45, 127
4, 192000, Note_off_c, 4, 45, 80
4, 192000, Note_on_c, 4, 40, 111
4, 193440, Note_off_c, 4, 40, 80
4, 193440, Note_on_c, 4, 47, 127
4, 194880, Note_off_c, 4, 47, 80
4, 197760, Note_on_c, 4, 47, 127
4, 199200, Note_off_c, 4, 47, 80
4, 199200, End_track
0, 0, End_of_file