0, 0, Header, 1, 4, 480
1, 0, Start_track
1, 0, Tempo, 731707
1, 0, Title_t, ""
1, 0, Time_signature, 3, 2, 11, 42
1, 0, End_track
2, 0, Start_track
2, 0, Title_t, ""
2, 0, Control_c, 0, 100, 0
2, 0, Control_c, 0, 101, 0
2, 0, Control_c, 0, 6, 8
2, 0, Pitch_bend_c, 0, 8192
2, 0, Control_c, 1, 100, 0
2, 0, Control_c, 1, 101, 0
2, 0, Control_c, 1, 6, 8
2, 0, Pitch_bend_c, 1, 8192
2, 0, Program_c, 0, 24
2, 0, Program_c, 1, 24
2, 0, Control_c, 0, 7, 127
2, 0, Control_c, 1, 7, 127
2, 0, Control_c, 0, 10, 64
2, 0, Control_c, 1, 10, 64
2, 0, Control_c, 0, 93, 0
2, 0, Control_c, 1, 93, 0
2, 0, Control_c, 0, 91, 127
2, 0, Control_c, 1, 91, 127
2, 0, Control_c, 0, 92, 0
2, 0, Control_c, 1, 92, 0
2, 0, Control_c, 0, 95, 0
2, 0, Control_c, 1, 95, 0
2, 0, Note_on_c, 0, 45, 111
2, 60, Note_off_c, 0, 45, 80
2, 60, Note_on_c, 0, 64, 95
2, 120, Note_off_c, 0, 64, 80
2, 120, Note_on_c, 0, 64, 95
2, 180, Note_off_c, 0, 64, 80
2, 180, Note_on_c, 0, 64, 95
2, 300, Note_off_c, 0, 64, 80
2, 300, Note_on_c, 0, 64, 95
2, 360, Note_off_c, 0, 64, 80
2, 360, Note_on_c, 0, 64, 95
2, 420, Note_off_c, 0, 64, 80
2, 420, Note_on_c, 0, 64, 95
2, 540, Note_off_c, 0, 64, 80
2, 540, Note_on_c, 0, 64, 95
2, 600, Note_off_c, 0, 64, 80
2, 600, Note_on_c, 0, 64, 95
2, 660, Note_off_c, 0, 64, 80
2, 660, Note_on_c, 0, 64, 95
2, 780, Note_off_c, 0, 64, 80
2, 780, Note_on_c, 0, 64, 95
2, 840, Note_off_c, 0, 64, 80
2, 840, Note_on_c, 0, 64, 95
2, 900, Note_off_c, 0, 64, 80
2, 900, Note_on_c, 0, 64, 95
2, 1020, Note_off_c, 0, 64, 80
2, 1020, Note_on_c, 0, 62, 95
2, 1080, Note_off_c, 0, 62, 80
2, 1080, Note_on_c, 0, 62, 95
2, 1140, Note_off_c, 0, 62, 80
2, 1140, Note_on_c, 0, 62, 95
2, 1260, Note_off_c, 0, 62, 80
2, 1260, Note_on_c, 0, 62, 95
2, 1320, Note_off_c, 0, 62, 80
2, 1320, Note_on_c, 0, 62, 95
2, 1380, Note_off_c, 0, 62, 80
2, 1380, Note_on_c, 0, 62, 95
2, 1500, Note_off_c, 0, 62, 80
2, 1500, Note_on_c, 0, 60, 95
2, 1560, Note_off_c, 0, 60, 80
2, 1560, Note_on_c, 0, 60, 95
2, 1620, Note_off_c, 0, 60, 80
2, 1620, Note_on_c, 0, 60, 95
2, 1740, Note_off_c, 0, 60, 80
2, 1740, Note_on_c, 0, 60, 95
2, 1800, Note_off_c, 0, 60, 80
2, 1800, Note_on_c, 0, 60, 95
2, 1860, Note_off_c, 0, 60, 80
2, 1860, Note_on_c, 0, 60, 95
2, 1980, Note_off_c, 0, 60, 80
2, 1980, Note_on_c, 0, 60, 95
2, 2040, Note_off_c, 0, 60, 80
2, 2040, Note_on_c, 0, 60, 95
2, 2100, Note_off_c, 0, 60, 80
2, 2100, Note_on_c, 0, 60, 95
2, 2220, Note_off_c, 0, 60, 80
2, 2220, Note_on_c, 0, 60, 95
2, 2280, Note_off_c, 0, 60, 80
2, 2280, Note_on_c, 0, 60, 95
2, 2340, Note_off_c, 0, 60, 80
2, 2340, Note_on_c, 0, 60, 95
2, 2460, Note_off_c, 0, 60, 80
2, 2460, Note_on_c, 0, 62, 95
2, 2520, Note_off_c, 0, 62, 80
2, 2520, Note_on_c, 0, 62, 95
2, 2580, Note_off_c, 0, 62, 80
2, 2580, Note_on_c, 0, 62, 95
2, 2700, Note_off_c, 0, 62, 80
2, 2700, Note_on_c, 0, 62, 95
2, 2760, Note_off_c, 0, 62, 80
2, 2760, Note_on_c, 0, 62, 95
2, 2820, Note_off_c, 0, 62, 80
2, 2820, Note_on_c, 0, 62, 95
2, 2940, Note_off_c, 0, 62, 80
2, 2940, Note_on_c, 0, 64, 95
2, 3000, Note_off_c, 0, 64, 80
2, 3000, Note_on_c, 0, 64, 95
2, 3060, Note_off_c, 0, 64, 80
2, 3060, Note_on_c, 0, 64, 95
2, 3180, Note_off_c, 0, 64, 80
2, 3180, Note_on_c, 0, 64, 95
2, 3240, Note_off_c, 0, 64, 80
2, 3240, Note_on_c, 0, 64, 95
2, 3300, Note_off_c, 0, 64, 80
2, 3300, Note_on_c, 0, 64, 95
2, 3420, Note_off_c, 0, 64, 80
2, 3420, Note_on_c, 0, 64, 95
2, 3480, Note_off_c, 0, 64, 80
2, 3480, Note_on_c, 0, 64, 95
2, 3540, Note_off_c, 0, 64, 80
2, 3540, Note_on_c, 0, 64, 95
2, 3660, Note_off_c, 0, 64, 80
2, 3660, Note_on_c, 0, 64, 95
2, 3720, Note_off_c, 0, 64, 80
2, 3720, Note_on_c, 0, 64, 95
2, 3780, Note_off_c, 0, 64, 80
2, 3780, Note_on_c, 0, 64, 95
2, 3900, Note_off_c, 0, 64, 80
2, 3900, Note_on_c, 0, 64, 95
2, 3960, Note_off_c, 0, 64, 80
2, 3960, Note_on_c, 0, 64, 95
2, 4020, Note_off_c, 0, 64, 80
2, 4020, Note_on_c, 0, 64, 95
2, 4140, Note_off_c, 0, 64, 80
2, 4140, Note_on_c, 0, 64, 95
2, 4200, Note_off_c, 0, 64, 80
2, 4200, Note_on_c, 0, 64, 95
2, 4260, Note_off_c, 0, 64, 80
2, 4260, Note_on_c, 0, 64, 95
2, 4380, Note_off_c, 0, 64, 80
2, 4380, Note_on_c, 0, 64, 95
2, 4440, Note_off_c, 0, 64, 80
2, 4440, Note_on_c, 0, 64, 95
2, 4500, Note_off_c, 0, 64, 80
2, 4500, Note_on_c, 0, 64, 95
2, 4620, Note_off_c, 0, 64, 80
2, 4620, Note_on_c, 0, 64, 95
2, 4680, Note_off_c, 0, 64, 80
2, 4680, Note_on_c, 0, 64, 95
2, 4740, Note_off_c, 0, 64, 80
2, 4740, Note_on_c, 0, 64, 95
2, 4860, Note_off_c, 0, 64, 80
2, 4860, Note_on_c, 0, 64, 95
2, 4920, Note_off_c, 0, 64, 80
2, 4920, Note_on_c, 0, 64, 95
2, 4980, Note_off_c, 0, 64, 80
2, 4980, Note_on_c, 0, 64, 95
2, 5100, Note_off_c, 0, 64, 80
2, 5100, Note_on_c, 0, 64, 95
2, 5160, Note_off_c, 0, 64, 80
2, 5160, Note_on_c, 0, 64, 95
2, 5220, Note_off_c, 0, 64, 80
2, 5220, Note_on_c, 0, 64, 95
2, 5340, Note_off_c, 0, 64, 80
2, 5340, Note_on_c, 0, 65, 95
2, 5400, Note_off_c, 0, 65, 80
2, 5400, Note_on_c, 0, 65, 95
2, 5460, Note_off_c, 0, 65, 80
2, 5460, Note_on_c, 0, 65, 95
2, 5580, Note_off_c, 0, 65, 80
2, 5580, Note_on_c, 0, 65, 95
2, 5640, Note_off_c, 0, 65, 80
2, 5640, Note_on_c, 0, 65, 95
2, 5700, Note_off_c, 0, 65, 80
2, 5700, Note_on_c, 0, 65, 95
2, 5820, Note_off_c, 0, 65, 80
2, 5820, Note_on_c, 0, 67, 95
2, 5880, Note_off_c, 0, 67, 80
2, 5880, Note_on_c, 0, 67, 95
2, 5940, Note_off_c, 0, 67, 80
2, 5940, Note_on_c, 0, 67, 95
2, 6060, Note_off_c, 0, 67, 80
2, 6060, Note_on_c, 0, 67, 95
2, 6120, Note_off_c, 0, 67, 80
2, 6120, Note_on_c, 0, 67, 95
2, 6180, Note_off_c, 0, 67, 80
2, 6180, Note_on_c, 0, 67, 95
2, 6300, Note_off_c, 0, 67, 80
2, 6300, Note_on_c, 0, 67, 95
2, 6360, Note_off_c, 0, 67, 80
2, 6360, Note_on_c, 0, 67, 95
2, 6420, Note_off_c, 0, 67, 80
2, 6420, Note_on_c, 0, 67, 95
2, 6540, Note_off_c, 0, 67, 80
2, 6540, Note_on_c, 0, 67, 95
2, 6600, Note_off_c, 0, 67, 80
2, 6600, Note_on_c, 0, 67, 95
2, 6660, Note_off_c, 0, 67, 80
2, 6660, Note_on_c, 0, 67, 95
2, 6780, Note_off_c, 0, 67, 80
2, 6780, Note_on_c, 0, 65, 95
2, 6840, Note_off_c, 0, 65, 80
2, 6840, Note_on_c, 0, 65, 95
2, 6900, Note_off_c, 0, 65, 80
2, 6900, Note_on_c, 0, 65, 95
2, 7020, Note_off_c, 0, 65, 80
2, 7020, Note_on_c, 0, 65, 95
2, 7080, Note_off_c, 0, 65, 80
2, 7080, Note_on_c, 0, 65, 95
2, 7140, Note_off_c, 0, 65, 80
2, 7140, Note_on_c, 0, 65, 95
2, 7260, Note_off_c, 0, 65, 80
2, 7260, Note_on_c, 0, 64, 95
2, 7320, Note_off_c, 0, 64, 80
2, 7320, Note_on_c, 0, 64, 95
2, 7380, Note_off_c, 0, 64, 80
2, 7380, Note_on_c, 0, 64, 95
2, 7500, Note_off_c, 0, 64, 80
2, 7500, Note_on_c, 0, 64, 95
2, 7560, Note_off_c, 0, 64, 80
2, 7560, Note_on_c, 0, 64, 95
2, 7620, Note_off_c, 0, 64, 80
2, 7620, Note_on_c, 0, 64, 95
2, 7740, Note_off_c, 0, 64, 80
2, 7740, Note_on_c, 0, 64, 95
2, 7800, Note_off_c, 0, 64, 80
2, 7800, Note_on_c, 0, 64, 95
2, 7860, Note_off_c, 0, 64, 80
2, 7860, Note_on_c, 0, 64, 95
2, 7980, Note_off_c, 0, 64, 80
2, 7980, Note_on_c, 0, 64, 95
2, 8040, Note_off_c, 0, 64, 80
2, 8040, Note_on_c, 0, 64, 95
2, 8100, Note_off_c, 0, 64, 80
2, 8100, Note_on_c, 0, 64, 95
2, 8220, Note_off_c, 0, 64, 80
2, 8220, Note_on_c, 0, 65, 95
2, 8280, Note_off_c, 0, 65, 80
2, 8280, Note_on_c, 0, 65, 95
2, 8340, Note_off_c, 0, 65, 80
2, 8340, Note_on_c, 0, 65, 95
2, 8460, Note_off_c, 0, 65, 80
2, 8460, Note_on_c, 0, 65, 95
2, 8520, Note_off_c, 0, 65, 80
2, 8520, Note_on_c, 0, 65, 95
2, 8580, Note_off_c, 0, 65, 80
2, 8580, Note_on_c, 0, 65, 95
2, 8700, Note_off_c, 0, 65, 80
2, 8700, Note_on_c, 0, 67, 95
2, 8760, Note_off_c, 0, 67, 80
2, 8760, Note_on_c, 0, 67, 95
2, 8820, Note_off_c, 0, 67, 80
2, 8820, Note_on_c, 0, 67, 95
2, 8940, Note_off_c, 0, 67, 80
2, 8940, Note_on_c, 0, 67, 95
2, 9000, Note_off_c, 0, 67, 80
2, 9000, Note_on_c, 0, 67, 95
2, 9060, Note_off_c, 0, 67, 80
2, 9060, Note_on_c, 0, 67, 95
2, 9180, Note_off_c, 0, 67, 80
2, 9180, Note_on_c, 0, 67, 95
2, 9240, Note_off_c, 0, 67, 80
2, 9240, Note_on_c, 0, 67, 95
2, 9300, Note_off_c, 0, 67, 80
2, 9300, Note_on_c, 0, 67, 95
2, 9420, Note_off_c, 0, 67, 80
2, 9420, Note_on_c, 0, 67, 95
2, 9480, Note_off_c, 0, 67, 80
2, 9480, Note_on_c, 0, 67, 95
2, 9540, Note_off_c, 0, 67, 80
2, 9540, Note_on_c, 0, 67, 95
2, 9660, Note_off_c, 0, 67, 80
2, 9660, Note_on_c, 0, 67, 95
2, 9720, Note_off_c, 0, 67, 80
2, 9720, Note_on_c, 0, 67, 95
2, 9780, Note_off_c, 0, 67, 80
2, 9780, Note_on_c, 0, 67, 95
2, 9900, Note_off_c, 0, 67, 80
2, 9900, Note_on_c, 0, 67, 95
2, 9960, Note_off_c, 0, 67, 80
2, 9960, Note_on_c, 0, 67, 95
2, 10020, Note_off_c, 0, 67, 80
2, 10020, Note_on_c, 0, 67, 95
2, 10140, Note_off_c, 0, 67, 80
2, 10140, Note_on_c, 0, 67, 95
2, 10200, Note_off_c, 0, 67, 80
2, 10200, Note_on_c, 0, 67, 95
2, 10260, Note_off_c, 0, 67, 80
2, 10260, Note_on_c, 0, 67, 95
2, 10380, Note_off_c, 0, 67, 80
2, 10380, Note_on_c, 0, 67, 95
2, 10440, Note_off_c, 0, 67, 80
2, 10440, Note_on_c, 0, 67, 95
2, 10500, Note_off_c, 0, 67, 80
2, 10500, Note_on_c, 0, 67, 95
2, 10620, Note_off_c, 0, 67, 80
2, 10620, Note_on_c, 0, 67, 95
2, 10680, Note_off_c, 0, 67, 80
2, 10680, Note_on_c, 0, 67, 95
2, 10740, Note_off_c, 0, 67, 80
2, 10740, Note_on_c, 0, 67, 95
2, 10860, Note_off_c, 0, 67, 80
2, 10860, Note_on_c, 0, 67, 95
2, 10920, Note_off_c, 0, 67, 80
2, 10920, Note_on_c, 0, 67, 95
2, 10980, Note_off_c, 0, 67, 80
2, 10980, Note_on_c, 0, 67, 95
2, 11100, Note_off_c, 0, 67, 80
2, 11100, Note_on_c, 0, 67, 95
2, 11160, Note_off_c, 0, 67, 80
2, 11160, Note_on_c, 0, 67, 95
2, 11220, Note_off_c, 0, 67, 80
2, 11220, Note_on_c, 0, 67, 95
2, 11340, Note_off_c, 0, 67, 80
2, 11340, Note_on_c, 0, 67, 95
2, 11400, Note_off_c, 0, 67, 80
2, 11400, Note_on_c, 0, 67, 95
2, 11460, Note_off_c, 0, 67, 80
2, 11460, Note_on_c, 0, 67, 95
2, 11580, Note_off_c, 0, 67, 80
2, 11580, Note_on_c, 0, 72, 95
2, 11640, Note_off_c, 0, 72, 80
2, 11640, Note_on_c, 0, 72, 95
2, 11700, Note_off_c, 0, 72, 80
2, 11700, Note_on_c, 0, 72, 95
2, 11820, Note_off_c, 0, 72, 80
2, 11820, Note_on_c, 0, 72, 95
2, 11880, Note_off_c, 0, 72, 80
2, 11880, Note_on_c, 0, 72, 95
2, 11940, Note_off_c, 0, 72, 80
2, 11940, Note_on_c, 0, 72, 95
2, 12060, Note_off_c, 0, 72, 80
2, 12060, Note_on_c, 0, 72, 95
2, 12120, Note_off_c, 0, 72, 80
2, 12120, Note_on_c, 0, 72, 95
2, 12180, Note_off_c, 0, 72, 80
2, 12180, Note_on_c, 0, 72, 95
2, 12300, Note_off_c, 0, 72, 80
2, 12300, Note_on_c, 0, 72, 95
2, 12360, Note_off_c, 0, 72, 80
2, 12360, Note_on_c, 0, 72, 95
2, 12420, Note_off_c, 0, 72, 80
2, 12420, Note_on_c, 0, 72, 95
2, 12540, Note_off_c, 0, 72, 80
2, 12540, Note_on_c, 0, 71, 95
2, 12600, Note_off_c, 0, 71, 80
2, 12600, Note_on_c, 0, 71, 95
2, 12660, Note_off_c, 0, 71, 80
2, 12660, Note_on_c, 0, 71, 95
2, 12780, Note_off_c, 0, 71, 80
2, 12780, Note_on_c, 0, 71, 95
2, 12840, Note_off_c, 0, 71, 80
2, 12840, Note_on_c, 0, 71, 95
2, 12900, Note_off_c, 0, 71, 80
2, 12900, Note_on_c, 0, 71, 95
2, 13020, Note_off_c, 0, 71, 80
2, 13020, Note_on_c, 0, 69, 95
2, 13080, Note_off_c, 0, 69, 80
2, 13080, Note_on_c, 0, 69, 95
2, 13140, Note_off_c, 0, 69, 80
2, 13140, Note_on_c, 0, 69, 95
2, 13260, Note_off_c, 0, 69, 80
2, 13260, Note_on_c, 0, 69, 95
2, 13320, Note_off_c, 0, 69, 80
2, 13320, Note_on_c, 0, 69, 95
2, 13380, Note_off_c, 0, 69, 80
2, 13380, Note_on_c, 0, 69, 95
2, 13500, Note_off_c, 0, 69, 80
2, 13500, Note_on_c, 0, 69, 95
2, 13560, Note_off_c, 0, 69, 80
2, 13560, Note_on_c, 0, 69, 95
2, 13620, Note_off_c, 0, 69, 80
2, 13620, Note_on_c, 0, 69, 95
2, 13740, Note_off_c, 0, 69, 80
2, 13740, Note_on_c, 0, 69, 95
2, 13800, Note_off_c, 0, 69, 80
2, 13800, Note_on_c, 0, 69, 95
2, 13860, Note_off_c, 0, 69, 80
2, 13860, Note_on_c, 0, 69, 95
2, 13980, Note_off_c, 0, 69, 80
2, 13980, Note_on_c, 0, 71, 95
2, 14040, Note_off_c, 0, 71, 80
2, 14040, Note_on_c, 0, 71, 95
2, 14100, Note_off_c, 0, 71, 80
2, 14100, Note_on_c, 0, 71, 95
2, 14220, Note_off_c, 0, 71, 80
2, 14220, Note_on_c, 0, 71, 95
2, 14280, Note_off_c, 0, 71, 80
2, 14280, Note_on_c, 0, 71, 95
2, 14340, Note_off_c, 0, 71, 80
2, 14340, Note_on_c, 0, 71, 95
2, 14460, Note_off_c, 0, 71, 80
2, 14460, Note_on_c, 0, 69, 95
2, 14520, Note_off_c, 0, 69, 80
2, 14520, Note_on_c, 0, 69, 95
2, 14580, Note_off_c, 0, 69, 80
2, 14580, Note_on_c, 0, 69, 95
2, 14700, Note_off_c, 0, 69, 80
2, 14700, Note_on_c, 0, 69, 95
2, 14760, Note_off_c, 0, 69, 80
2, 14760, Note_on_c, 0, 69, 95
2, 14800, Note_off_c, 0, 69, 80
2, 14800, Note_on_c, 0, 71, 76
2, 14840, Note_off_c, 0, 71, 80
2, 14840, Note_on_c, 0, 69, 76
2, 14940, Note_off_c, 0, 69, 80
2, 14940, Note_on_c, 0, 68, 95
2, 15000, Note_off_c, 0, 68, 80
2, 15000, Note_on_c, 0, 68, 95
2, 15060, Note_off_c, 0, 68, 80
2, 15060, Note_on_c, 0, 68, 95
2, 15180, Note_off_c, 0, 68, 80
2, 15180, Note_on_c, 0, 68, 95
2, 15240, Note_off_c, 0, 68, 80
2, 15240, Note_on_c, 0, 68, 95
2, 15300, Note_off_c, 0, 68, 80
2, 15300, Note_on_c, 0, 68, 95
2, 15420, Note_off_c, 0, 68, 80
2, 15420, Note_on_c, 0, 68, 95
2, 15480, Note_off_c, 0, 68, 80
2, 15480, Note_on_c, 0, 68, 95
2, 15540, Note_off_c, 0, 68, 80
2, 15540, Note_on_c, 0, 68, 95
2, 15660, Note_off_c, 0, 68, 80
2, 15660, Note_on_c, 0, 68, 95
2, 15720, Note_off_c, 0, 68, 80
2, 15720, Note_on_c, 0, 68, 95
2, 15780, Note_off_c, 0, 68, 80
2, 15780, Note_on_c, 0, 68, 95
2, 15900, Note_off_c, 0, 68, 80
2, 15900, Note_on_c, 0, 68, 95
2, 15960, Note_off_c, 0, 68, 80
2, 15960, Note_on_c, 0, 68, 95
2, 16020, Note_off_c, 0, 68, 80
2, 16020, Note_on_c, 0, 68, 95
2, 16140, Note_off_c, 0, 68, 80
2, 16140, Note_on_c, 0, 68, 95
2, 16200, Note_off_c, 0, 68, 80
2, 16200, Note_on_c, 0, 68, 95
2, 16260, Note_off_c, 0, 68, 80
2, 16260, Note_on_c, 0, 68, 95
2, 16380, Note_off_c, 0, 68, 80
2, 16380, Note_on_c, 0, 68, 95
2, 16440, Note_off_c, 0, 68, 80
2, 16440, Note_on_c, 0, 68, 95
2, 16500, Note_off_c, 0, 68, 80
2, 16500, Note_on_c, 0, 68, 95
2, 16620, Note_off_c, 0, 68, 80
2, 16620, Note_on_c, 0, 68, 95
2, 16680, Note_off_c, 0, 68, 80
2, 16680, Note_on_c, 0, 68, 95
2, 16740, Note_off_c, 0, 68, 80
2, 16740, Note_on_c, 0, 68, 95
2, 16860, Note_off_c, 0, 68, 80
2, 16860, Note_on_c, 0, 68, 95
2, 16920, Note_off_c, 0, 68, 80
2, 16920, Note_on_c, 0, 68, 95
2, 16980, Note_off_c, 0, 68, 80
2, 16980, Note_on_c, 0, 68, 95
2, 17100, Note_off_c, 0, 68, 80
2, 17100, Note_on_c, 0, 68, 95
2, 17160, Note_off_c, 0, 68, 80
2, 17160, Note_on_c, 0, 68, 95
2, 17220, Note_off_c, 0, 68, 80
2, 17220, Note_on_c, 0, 68, 95
2, 17340, Note_off_c, 0, 68, 80
2, 17340, Note_on_c, 0, 70, 95
2, 17400, Note_off_c, 0, 70, 80
2, 17400, Note_on_c, 0, 70, 95
2, 17460, Note_off_c, 0, 70, 80
2, 17460, Note_on_c, 0, 70, 95
2, 17580, Note_off_c, 0, 70, 80
2, 17580, Note_on_c, 0, 70, 95
2, 17640, Note_off_c, 0, 70, 80
2, 17640, Note_on_c, 0, 70, 95
2, 17700, Note_off_c, 0, 70, 80
2, 17700, Note_on_c, 0, 70, 95
2, 17820, Note_off_c, 0, 70, 80
2, 17820, Note_on_c, 0, 70, 95
2, 17880, Note_off_c, 0, 70, 80
2, 17880, Note_on_c, 0, 70, 95
2, 17940, Note_off_c, 0, 70, 80
2, 17940, Note_on_c, 0, 70, 95
2, 18060, Note_off_c, 0, 70, 80
2, 18060, Note_on_c, 0, 70, 95
2, 18120, Note_off_c, 0, 70, 80
2, 18120, Note_on_c, 0, 70, 95
2, 18180, Note_off_c, 0, 70, 80
2, 18180, Note_on_c, 0, 70, 95
2, 18300, Note_off_c, 0, 70, 80
2, 18300, Note_on_c, 0, 69, 95
2, 18360, Note_off_c, 0, 69, 80
2, 18360, Note_on_c, 0, 69, 95
2, 18420, Note_off_c, 0, 69, 80
2, 18420, Note_on_c, 0, 69, 95
2, 18540, Note_off_c, 0, 69, 80
2, 18540, Note_on_c, 0, 69, 95
2, 18600, Note_off_c, 0, 69, 80
2, 18600, Note_on_c, 0, 69, 95
2, 18660, Note_off_c, 0, 69, 80
2, 18660, Note_on_c, 0, 69, 95
2, 18780, Note_off_c, 0, 69, 80
2, 18780, Note_on_c, 0, 67, 95
2, 18840, Note_off_c, 0, 67, 80
2, 18840, Note_on_c, 0, 67, 95
2, 18900, Note_off_c, 0, 67, 80
2, 18900, Note_on_c, 0, 67, 95
2, 19020, Note_off_c, 0, 67, 80
2, 19020, Note_on_c, 0, 67, 95
2, 19080, Note_off_c, 0, 67, 80
2, 19080, Note_on_c, 0, 67, 95
2, 19140, Note_off_c, 0, 67, 80
2, 19140, Note_on_c, 0, 67, 95
2, 19260, Note_off_c, 0, 67, 80
2, 19260, Note_on_c, 0, 67, 95
2, 19320, Note_off_c, 0, 67, 80
2, 19320, Note_on_c, 0, 67, 95
2, 19380, Note_off_c, 0, 67, 80
2, 19380, Note_on_c, 0, 67, 95
2, 19500, Note_off_c, 0, 67, 80
2, 19500, Note_on_c, 0, 67, 95
2, 19560, Note_off_c, 0, 67, 80
2, 19560, Note_on_c, 0, 67, 95
2, 19620, Note_off_c, 0, 67, 80
2, 19620, Note_on_c, 0, 67, 95
2, 19740, Note_off_c, 0, 67, 80
2, 19740, Note_on_c, 0, 69, 95
2, 19800, Note_off_c, 0, 69, 80
2, 19800, Note_on_c, 0, 69, 95
2, 19860, Note_off_c, 0, 69, 80
2, 19860, Note_on_c, 0, 69, 95
2, 19980, Note_off_c, 0, 69, 80
2, 19980, Note_on_c, 0, 69, 95
2, 20040, Note_off_c, 0, 69, 80
2, 20040, Note_on_c, 0, 69, 95
2, 20100, Note_off_c, 0, 69, 80
2, 20100, Note_on_c, 0, 69, 95
2, 20220, Note_off_c, 0, 69, 80
2, 20220, Note_on_c, 0, 67, 95
2, 20280, Note_off_c, 0, 67, 80
2, 20280, Note_on_c, 0, 67, 95
2, 20340, Note_off_c, 0, 67, 80
2, 20340, Note_on_c, 0, 67, 95
2, 20460, Note_off_c, 0, 67, 80
2, 20460, Note_on_c, 0, 67, 95
2, 20520, Note_off_c, 0, 67, 80
2, 20520, Note_on_c, 0, 67, 95
2, 20560, Note_off_c, 0, 67, 80
2, 20560, Note_on_c, 0, 69, 76
2, 20600, Note_off_c, 0, 69, 80
2, 20600, Note_on_c, 0, 67, 76
2, 20700, Note_off_c, 0, 67, 80
2, 20700, Note_on_c, 0, 65, 95
2, 20760, Note_off_c, 0, 65, 80
2, 20760, Note_on_c, 0, 65, 95
2, 20820, Note_off_c, 0, 65, 80
2, 20820, Note_on_c, 0, 65, 95
2, 20940, Note_off_c, 0, 65, 80
2, 20940, Note_on_c, 0, 65, 95
2, 21000, Note_off_c, 0, 65, 80
2, 21000, Note_on_c, 0, 65, 95
2, 21060, Note_off_c, 0, 65, 80
2, 21060, Note_on_c, 0, 65, 95
2, 21180, Note_off_c, 0, 65, 80
2, 21180, Note_on_c, 0, 65, 95
2, 21240, Note_off_c, 0, 65, 80
2, 21240, Note_on_c, 0, 65, 95
2, 21300, Note_off_c, 0, 65, 80
2, 21300, Note_on_c, 0, 65, 95
2, 21420, Note_off_c, 0, 65, 80
2, 21420, Note_on_c, 0, 65, 95
2, 21480, Note_off_c, 0, 65, 80
2, 21480, Note_on_c, 0, 65, 95
2, 21540, Note_off_c, 0, 65, 80
2, 21540, Note_on_c, 0, 65, 95
2, 21660, Note_off_c, 0, 65, 80
2, 21660, Note_on_c, 0, 65, 95
2, 21720, Note_off_c, 0, 65, 80
2, 21720, Note_on_c, 0, 65, 95
2, 21780, Note_off_c, 0, 65, 80
2, 21780, Note_on_c, 0, 65, 95
2, 21900, Note_off_c, 0, 65, 80
2, 21900, Note_on_c, 0, 65, 95
2, 21960, Note_off_c, 0, 65, 80
2, 21960, Note_on_c, 0, 65, 95
2, 22020, Note_off_c, 0, 65, 80
2, 22020, Note_on_c, 0, 65, 95
2, 22140, Note_off_c, 0, 65, 80
2, 22140, Note_on_c, 0, 65, 95
2, 22200, Note_off_c, 0, 65, 80
2, 22200, Note_on_c, 0, 65, 95
2, 22260, Note_off_c, 0, 65, 80
2, 22260, Note_on_c, 0, 65, 95
2, 22380, Note_off_c, 0, 65, 80
2, 22380, Note_on_c, 0, 65, 95
2, 22440, Note_off_c, 0, 65, 80
2, 22440, Note_on_c, 0, 65, 95
2, 22500, Note_off_c, 0, 65, 80
2, 22500, Note_on_c, 0, 65, 95
2, 22620, Note_off_c, 0, 65, 80
2, 22620, Note_on_c, 0, 65, 95
2, 22680, Note_off_c, 0, 65, 80
2, 22680, Note_on_c, 0, 65, 95
2, 22740, Note_off_c, 0, 65, 80
2, 22740, Note_on_c, 0, 65, 95
2, 22860, Note_off_c, 0, 65, 80
2, 22860, Note_on_c, 0, 65, 95
2, 22920, Note_off_c, 0, 65, 80
2, 22920, Note_on_c, 0, 65, 95
2, 22980, Note_off_c, 0, 65, 80
2, 22980, Note_on_c, 0, 65, 95
2, 23100, Note_off_c, 0, 65, 80
2, 23100, Note_on_c, 0, 64, 95
2, 23160, Note_off_c, 0, 64, 80
2, 23160, Note_on_c, 0, 64, 95
2, 23220, Note_off_c, 0, 64, 80
2, 23220, Note_on_c, 0, 64, 95
2, 23340, Note_off_c, 0, 64, 80
2, 23340, Note_on_c, 0, 64, 95
2, 23400, Note_off_c, 0, 64, 80
2, 23400, Note_on_c, 0, 64, 95
2, 23460, Note_off_c, 0, 64, 80
2, 23460, Note_on_c, 0, 64, 95
2, 23580, Note_off_c, 0, 64, 80
2, 23580, Note_on_c, 0, 64, 95
2, 23640, Note_off_c, 0, 64, 80
2, 23640, Note_on_c, 0, 64, 95
2, 23700, Note_off_c, 0, 64, 80
2, 23700, Note_on_c, 0, 64, 95
2, 23820, Note_off_c, 0, 64, 80
2, 23820, Note_on_c, 0, 64, 95
2, 23880, Note_off_c, 0, 64, 80
2, 23880, Note_on_c, 0, 64, 95
2, 23940, Note_off_c, 0, 64, 80
2, 23940, Note_on_c, 0, 64, 95
2, 24060, Note_off_c, 0, 64, 80
2, 24060, Note_on_c, 0, 62, 95
2, 24120, Note_off_c, 0, 62, 80
2, 24120, Note_on_c, 0, 62, 95
2, 24180, Note_off_c, 0, 62, 80
2, 24180, Note_on_c, 0, 62, 95
2, 24300, Note_off_c, 0, 62, 80
2, 24300, Note_on_c, 0, 62, 95
2, 24360, Note_off_c, 0, 62, 80
2, 24360, Note_on_c, 0, 62, 95
2, 24420, Note_off_c, 0, 62, 80
2, 24420, Note_on_c, 0, 62, 95
2, 24540, Note_off_c, 0, 62, 80
2, 24540, Note_on_c, 0, 60, 95
2, 24600, Note_off_c, 0, 60, 80
2, 24600, Note_on_c, 0, 60, 95
2, 24660, Note_off_c, 0, 60, 80
2, 24660, Note_on_c, 0, 60, 95
2, 24780, Note_off_c, 0, 60, 80
2, 24780, Note_on_c, 0, 60, 95
2, 24840, Note_off_c, 0, 60, 80
2, 24840, Note_on_c, 0, 60, 95
2, 24900, Note_off_c, 0, 60, 80
2, 24900, Note_on_c, 0, 60, 95
2, 25020, Note_off_c, 0, 60, 80
2, 25020, Note_on_c, 0, 60, 95
2, 25080, Note_off_c, 0, 60, 80
2, 25080, Note_on_c, 0, 60, 95
2, 25140, Note_off_c, 0, 60, 80
2, 25140, Note_on_c, 0, 60, 95
2, 25260, Note_off_c, 0, 60, 80
2, 25260, Note_on_c, 0, 60, 95
2, 25320, Note_off_c, 0, 60, 80
2, 25320, Note_on_c, 0, 60, 95
2, 25380, Note_off_c, 0, 60, 80
2, 25380, Note_on_c, 0, 60, 95
2, 25500, Note_off_c, 0, 60, 80
2, 25500, Note_on_c, 0, 62, 95
2, 25560, Note_off_c, 0, 62, 80
2, 25560, Note_on_c, 0, 62, 95
2, 25620, Note_off_c, 0, 62, 80
2, 25620, Note_on_c, 0, 62, 95
2, 25740, Note_off_c, 0, 62, 80
2, 25740, Note_on_c, 0, 62, 95
2, 25800, Note_off_c, 0, 62, 80
2, 25800, Note_on_c, 0, 62, 95
2, 25860, Note_off_c, 0, 62, 80
2, 25860, Note_on_c, 0, 62, 95
2, 25980, Note_off_c, 0, 62, 80
2, 25980, Note_on_c, 0, 60, 95
2, 26040, Note_off_c, 0, 60, 80
2, 26040, Note_on_c, 0, 60, 95
2, 26100, Note_off_c, 0, 60, 80
2, 26100, Note_on_c, 0, 60, 95
2, 26220, Note_off_c, 0, 60, 80
2, 26220, Note_on_c, 0, 60, 95
2, 26280, Note_off_c, 0, 60, 80
2, 26280, Note_on_c, 0, 60, 95
2, 26320, Note_off_c, 0, 60, 80
2, 26320, Note_on_c, 0, 62, 76
2, 26360, Note_off_c, 0, 62, 80
2, 26360, Note_on_c, 0, 60, 76
2, 26460, Note_off_c, 0, 60, 80
2, 26460, Note_on_c, 0, 59, 95
2, 26520, Note_off_c, 0, 59, 80
2, 26520, Note_on_c, 0, 59, 95
2, 26580, Note_off_c, 0, 59, 80
2, 26580, Note_on_c, 0, 59, 95
2, 26700, Note_off_c, 0, 59, 80
2, 26700, Note_on_c, 0, 59, 95
2, 26760, Note_off_c, 0, 59, 80
2, 26760, Note_on_c, 0, 59, 95
2, 26820, Note_off_c, 0, 59, 80
2, 26820, Note_on_c, 0, 59, 95
2, 26940, Note_off_c, 0, 59, 80
2, 26940, Note_on_c, 0, 59, 95
2, 27000, Note_off_c, 0, 59, 80
2, 27000, Note_on_c, 0, 59, 95
2, 27060, Note_off_c, 0, 59, 80
2, 27060, Note_on_c, 0, 59, 95
2, 27180, Note_off_c, 0, 59, 80
2, 27180, Note_on_c, 0, 59, 95
2, 27240, Note_off_c, 0, 59, 80
2, 27240, Note_on_c, 0, 59, 95
2, 27300, Note_off_c, 0, 59, 80
2, 27300, Note_on_c, 0, 59, 95
2, 27420, Note_off_c, 0, 59, 80
2, 27420, Note_on_c, 0, 59, 95
2, 27480, Note_off_c, 0, 59, 80
2, 27480, Note_on_c, 0, 59, 95
2, 27540, Note_off_c, 0, 59, 80
2, 27540, Note_on_c, 0, 59, 95
2, 27660, Note_off_c, 0, 59, 80
2, 27660, Note_on_c, 0, 59, 95
2, 27720, Note_off_c, 0, 59, 80
2, 27720, Note_on_c, 0, 59, 95
2, 27780, Note_off_c, 0, 59, 80
2, 27780, Note_on_c, 0, 59, 95
2, 27900, Note_off_c, 0, 59, 80
2, 27900, Note_on_c, 0, 59, 95
2, 27960, Note_off_c, 0, 59, 80
2, 27960, Note_on_c, 0, 59, 95
2, 28020, Note_off_c, 0, 59, 80
2, 28020, Note_on_c, 0, 59, 95
2, 28140, Note_off_c, 0, 59, 80
2, 28140, Note_on_c, 0, 59, 95
2, 28200, Note_off_c, 0, 59, 80
2, 28200, Note_on_c, 0, 59, 95
2, 28260, Note_off_c, 0, 59, 80
2, 28260, Note_on_c, 0, 59, 95
2, 28380, Note_off_c, 0, 59, 80
2, 28380, Note_on_c, 0, 59, 95
2, 28440, Note_off_c, 0, 59, 80
2, 28440, Note_on_c, 0, 59, 95
2, 28500, Note_off_c, 0, 59, 80
2, 28500, Note_on_c, 0, 59, 95
2, 28620, Note_off_c, 0, 59, 80
2, 28620, Note_on_c, 0, 59, 95
2, 28680, Note_off_c, 0, 59, 80
2, 28680, Note_on_c, 0, 59, 95
2, 28740, Note_off_c, 0, 59, 80
2, 28740, Note_on_c, 0, 59, 95
2, 28800, Note_on_c, 0, 45, 111
2, 28860, Note_off_c, 0, 59, 80
2, 28860, Note_off_c, 0, 45, 80
2, 28860, Note_on_c, 0, 64, 95
2, 28920, Note_off_c, 0, 64, 80
2, 28920, Note_on_c, 0, 64, 95
2, 28980, Note_off_c, 0, 64, 80
2, 28980, Note_on_c, 0, 64, 95
2, 29100, Note_off_c, 0, 64, 80
2, 29100, Note_on_c, 0, 64, 95
2, 29160, Note_off_c, 0, 64, 80
2, 29160, Note_on_c, 0, 64, 95
2, 29220, Note_off_c, 0, 64, 80
2, 29220, Note_on_c, 0, 64, 95
2, 29340, Note_off_c, 0, 64, 80
2, 29340, Note_on_c, 0, 64, 95
2, 29400, Note_off_c, 0, 64, 80
2, 29400, Note_on_c, 0, 64, 95
2, 29460, Note_off_c, 0, 64, 80
2, 29460, Note_on_c, 0, 64, 95
2, 29580, Note_off_c, 0, 64, 80
2, 29580, Note_on_c, 0, 64, 95
2, 29640, Note_off_c, 0, 64, 80
2, 29640, Note_on_c, 0, 64, 95
2, 29700, Note_off_c, 0, 64, 80
2, 29700, Note_on_c, 0, 64, 95
2, 29820, Note_off_c, 0, 64, 80
2, 29820, Note_on_c, 0, 62, 95
2, 29880, Note_off_c, 0, 62, 80
2, 29880, Note_on_c, 0, 62, 95
2, 29940, Note_off_c, 0, 62, 80
2, 29940, Note_on_c, 0, 62, 95
2, 30060, Note_off_c, 0, 62, 80
2, 30060, Note_on_c, 0, 62, 95
2, 30120, Note_off_c, 0, 62, 80
2, 30120, Note_on_c, 0, 62, 95
2, 30180, Note_off_c, 0, 62, 80
2, 30180, Note_on_c, 0, 62, 95
2, 30300, Note_off_c, 0, 62, 80
2, 30300, Note_on_c, 0, 60, 95
2, 30360, Note_off_c, 0, 60, 80
2, 30360, Note_on_c, 0, 60, 95
2, 30420, Note_off_c, 0, 60, 80
2, 30420, Note_on_c, 0, 60, 95
2, 30540, Note_off_c, 0, 60, 80
2, 30540, Note_on_c, 0, 60, 95
2, 30600, Note_off_c, 0, 60, 80
2, 30600, Note_on_c, 0, 60, 95
2, 30660, Note_off_c, 0, 60, 80
2, 30660, Note_on_c, 0, 60, 95
2, 30780, Note_off_c, 0, 60, 80
2, 30780, Note_on_c, 0, 60, 95
2, 30840, Note_off_c, 0, 60, 80
2, 30840, Note_on_c, 0, 60, 95
2, 30900, Note_off_c, 0, 60, 80
2, 30900, Note_on_c, 0, 60, 95
2, 31020, Note_off_c, 0, 60, 80
2, 31020, Note_on_c, 0, 60, 95
2, 31080, Note_off_c, 0, 60, 80
2, 31080, Note_on_c, 0, 60, 95
2, 31140, Note_off_c, 0, 60, 80
2, 31140, Note_on_c, 0, 60, 95
2, 31260, Note_off_c, 0, 60, 80
2, 31260, Note_on_c, 0, 62, 95
2, 31320, Note_off_c, 0, 62, 80
2, 31320, Note_on_c, 0, 62, 95
2, 31380, Note_off_c, 0, 62, 80
2, 31380, Note_on_c, 0, 62, 95
2, 31500, Note_off_c, 0, 62, 80
2, 31500, Note_on_c, 0, 62, 95
2, 31560, Note_off_c, 0, 62, 80
2, 31560, Note_on_c, 0, 62, 95
2, 31620, Note_off_c, 0, 62, 80
2, 31620, Note_on_c, 0, 62, 95
2, 31740, Note_off_c, 0, 62, 80
2, 31740, Note_on_c, 0, 64, 95
2, 31800, Note_off_c, 0, 64, 80
2, 31800, Note_on_c, 0, 64, 95
2, 31860, Note_off_c, 0, 64, 80
2, 31860, Note_on_c, 0, 64, 95
2, 31980, Note_off_c, 0, 64, 80
2, 31980, Note_on_c, 0, 64, 95
2, 32040, Note_off_c, 0, 64, 80
2, 32040, Note_on_c, 0, 64, 95
2, 32100, Note_off_c, 0, 64, 80
2, 32100, Note_on_c, 0, 64, 95
2, 32220, Note_off_c, 0, 64, 80
2, 32220, Note_on_c, 0, 64, 95
2, 32280, Note_off_c, 0, 64, 80
2, 32280, Note_on_c, 0, 64, 95
2, 32340, Note_off_c, 0, 64, 80
2, 32340, Note_on_c, 0, 64, 95
2, 32460, Note_off_c, 0, 64, 80
2, 32460, Note_on_c, 0, 64, 95
2, 32520, Note_off_c, 0, 64, 80
2, 32520, Note_on_c, 0, 64, 95
2, 32580, Note_off_c, 0, 64, 80
2, 32580, Note_on_c, 0, 64, 95
2, 32700, Note_off_c, 0, 64, 80
2, 32700, Note_on_c, 0, 64, 95
2, 32760, Note_off_c, 0, 64, 80
2, 32760, Note_on_c, 0, 64, 95
2, 32820, Note_off_c, 0, 64, 80
2, 32820, Note_on_c, 0, 64, 95
2, 32940, Note_off_c, 0, 64, 80
2, 32940, Note_on_c, 0, 64, 95
2, 33000, Note_off_c, 0, 64, 80
2, 33000, Note_on_c, 0, 64, 95
2, 33060, Note_off_c, 0, 64, 80
2, 33060, Note_on_c, 0, 64, 95
2, 33180, Note_off_c, 0, 64, 80
2, 33180, Note_on_c, 0, 64, 95
2, 33240, Note_off_c, 0, 64, 80
2, 33240, Note_on_c, 0, 64, 95
2, 33300, Note_off_c, 0, 64, 80
2, 33300, Note_on_c, 0, 64, 95
2, 33420, Note_off_c, 0, 64, 80
2, 33420, Note_on_c, 0, 64, 95
2, 33480, Note_off_c, 0, 64, 80
2, 33480, Note_on_c, 0, 64, 95
2, 33540, Note_off_c, 0, 64, 80
2, 33540, Note_on_c, 0, 64, 95
2, 33660, Note_off_c, 0, 64, 80
2, 33660, Note_on_c, 0, 64, 95
2, 33720, Note_off_c, 0, 64, 80
2, 33720, Note_on_c, 0, 64, 95
2, 33780, Note_off_c, 0, 64, 80
2, 33780, Note_on_c, 0, 64, 95
2, 33900, Note_off_c, 0, 64, 80
2, 33900, Note_on_c, 0, 64, 95
2, 33960, Note_off_c, 0, 64, 80
2, 33960, Note_on_c, 0, 64, 95
2, 34020, Note_off_c, 0, 64, 80
2, 34020, Note_on_c, 0, 64, 95
2, 34140, Note_off_c, 0, 64, 80
2, 34140, Note_on_c, 0, 65, 95
2, 34200, Note_off_c, 0, 65, 80
2, 34200, Note_on_c, 0, 65, 95
2, 34260, Note_off_c, 0, 65, 80
2, 34260, Note_on_c, 0, 65, 95
2, 34380, Note_off_c, 0, 65, 80
2, 34380, Note_on_c, 0, 65, 95
2, 34440, Note_off_c, 0, 65, 80
2, 34440, Note_on_c, 0, 65, 95
2, 34500, Note_off_c, 0, 65, 80
2, 34500, Note_on_c, 0, 65, 95
2, 34620, Note_off_c, 0, 65, 80
2, 34620, Note_on_c, 0, 67, 95
2, 34680, Note_off_c, 0, 67, 80
2, 34680, Note_on_c, 0, 67, 95
2, 34740, Note_off_c, 0, 67, 80
2, 34740, Note_on_c, 0, 67, 95
2, 34860, Note_off_c, 0, 67, 80
2, 34860, Note_on_c, 0, 67, 95
2, 34920, Note_off_c, 0, 67, 80
2, 34920, Note_on_c, 0, 67, 95
2, 34980, Note_off_c, 0, 67, 80
2, 34980, Note_on_c, 0, 67, 95
2, 35100, Note_off_c, 0, 67, 80
2, 35100, Note_on_c, 0, 67, 95
2, 35160, Note_off_c, 0, 67, 80
2, 35160, Note_on_c, 0, 67, 95
2, 35220, Note_off_c, 0, 67, 80
2, 35220, Note_on_c, 0, 67, 95
2, 35340, Note_off_c, 0, 67, 80
2, 35340, Note_on_c, 0, 67, 95
2, 35400, Note_off_c, 0, 67, 80
2, 35400, Note_on_c, 0, 67, 95
2, 35460, Note_off_c, 0, 67, 80
2, 35460, Note_on_c, 0, 67, 95
2, 35580, Note_off_c, 0, 67, 80
2, 35580, Note_on_c, 0, 65, 95
2, 35640, Note_off_c, 0, 65, 80
2, 35640, Note_on_c, 0, 65, 95
2, 35700, Note_off_c, 0, 65, 80
2, 35700, Note_on_c, 0, 65, 95
2, 35820, Note_off_c, 0, 65, 80
2, 35820, Note_on_c, 0, 65, 95
2, 35880, Note_off_c, 0, 65, 80
2, 35880, Note_on_c, 0, 65, 95
2, 35940, Note_off_c, 0, 65, 80
2, 35940, Note_on_c, 0, 65, 95
2, 36060, Note_off_c, 0, 65, 80
2, 36060, Note_on_c, 0, 64, 95
2, 36120, Note_off_c, 0, 64, 80
2, 36120, Note_on_c, 0, 64, 95
2, 36180, Note_off_c, 0, 64, 80
2, 36180, Note_on_c, 0, 64, 95
2, 36300, Note_off_c, 0, 64, 80
2, 36300, Note_on_c, 0, 64, 95
2, 36360, Note_off_c, 0, 64, 80
2, 36360, Note_on_c, 0, 64, 95
2, 36420, Note_off_c, 0, 64, 80
2, 36420, Note_on_c, 0, 64, 95
2, 36540, Note_off_c, 0, 64, 80
2, 36540, Note_on_c, 0, 64, 95
2, 36600, Note_off_c, 0, 64, 80
2, 36600, Note_on_c, 0, 64, 95
2, 36660, Note_off_c, 0, 64, 80
2, 36660, Note_on_c, 0, 64, 95
2, 36780, Note_off_c, 0, 64, 80
2, 36780, Note_on_c, 0, 64, 95
2, 36840, Note_off_c, 0, 64, 80
2, 36840, Note_on_c, 0, 64, 95
2, 36900, Note_off_c, 0, 64, 80
2, 36900, Note_on_c, 0, 64, 95
2, 37020, Note_off_c, 0, 64, 80
2, 37020, Note_on_c, 0, 65, 95
2, 37080, Note_off_c, 0, 65, 80
2, 37080, Note_on_c, 0, 65, 95
2, 37140, Note_off_c, 0, 65, 80
2, 37140, Note_on_c, 0, 65, 95
2, 37260, Note_off_c, 0, 65, 80
2, 37260, Note_on_c, 0, 65, 95
2, 37320, Note_off_c, 0, 65, 80
2, 37320, Note_on_c, 0, 65, 95
2, 37380, Note_off_c, 0, 65, 80
2, 37380, Note_on_c, 0, 65, 95
2, 37500, Note_off_c, 0, 65, 80
2, 37500, Note_on_c, 0, 67, 95
2, 37560, Note_off_c, 0, 67, 80
2, 37560, Note_on_c, 0, 67, 95
2, 37620, Note_off_c, 0, 67, 80
2, 37620, Note_on_c, 0, 67, 95
2, 37740, Note_off_c, 0, 67, 80
2, 37740, Note_on_c, 0, 67, 95
2, 37800, Note_off_c, 0, 67, 80
2, 37800, Note_on_c, 0, 67, 95
2, 37860, Note_off_c, 0, 67, 80
2, 37860, Note_on_c, 0, 67, 95
2, 37980, Note_off_c, 0, 67, 80
2, 37980, Note_on_c, 0, 67, 95
2, 38040, Note_off_c, 0, 67, 80
2, 38040, Note_on_c, 0, 67, 95
2, 38100, Note_off_c, 0, 67, 80
2, 38100, Note_on_c, 0, 67, 95
2, 38220, Note_off_c, 0, 67, 80
2, 38220, Note_on_c, 0, 67, 95
2, 38280, Note_off_c, 0, 67, 80
2, 38280, Note_on_c, 0, 67, 95
2, 38340, Note_off_c, 0, 67, 80
2, 38340, Note_on_c, 0, 67, 95
2, 38460, Note_off_c, 0, 67, 80
2, 38460, Note_on_c, 0, 67, 95
2, 38520, Note_off_c, 0, 67, 80
2, 38520, Note_on_c, 0, 67, 95
2, 38580, Note_off_c, 0, 67, 80
2, 38580, Note_on_c, 0, 67, 95
2, 38700, Note_off_c, 0, 67, 80
2, 38700, Note_on_c, 0, 67, 95
2, 38760, Note_off_c, 0, 67, 80
2, 38760, Note_on_c, 0, 67, 95
2, 38820, Note_off_c, 0, 67, 80
2, 38820, Note_on_c, 0, 67, 95
2, 38940, Note_off_c, 0, 67, 80
2, 38940, Note_on_c, 0, 67, 95
2, 39000, Note_off_c, 0, 67, 80
2, 39000, Note_on_c, 0, 67, 95
2, 39060, Note_off_c, 0, 67, 80
2, 39060, Note_on_c, 0, 67, 95
2, 39180, Note_off_c, 0, 67, 80
2, 39180, Note_on_c, 0, 67, 95
2, 39240, Note_off_c, 0, 67, 80
2, 39240, Note_on_c, 0, 67, 95
2, 39300, Note_off_c, 0, 67, 80
2, 39300, Note_on_c, 0, 67, 95
2, 39420, Note_off_c, 0, 67, 80
2, 39420, Note_on_c, 0, 67, 95
2, 39480, Note_off_c, 0, 67, 80
2, 39480, Note_on_c, 0, 67, 95
2, 39540, Note_off_c, 0, 67, 80
2, 39540, Note_on_c, 0, 67, 95
2, 39660, Note_off_c, 0, 67, 80
2, 39660, Note_on_c, 0, 67, 95
2, 39720, Note_off_c, 0, 67, 80
2, 39720, Note_on_c, 0, 67, 95
2, 39780, Note_off_c, 0, 67, 80
2, 39780, Note_on_c, 0, 67, 95
2, 39900, Note_off_c, 0, 67, 80
2, 39900, Note_on_c, 0, 67, 95
2, 39960, Note_off_c, 0, 67, 80
2, 39960, Note_on_c, 0, 67, 95
2, 40020, Note_off_c, 0, 67, 80
2, 40020, Note_on_c, 0, 67, 95
2, 40140, Note_off_c, 0, 67, 80
2, 40140, Note_on_c, 0, 67, 95
2, 40200, Note_off_c, 0, 67, 80
2, 40200, Note_on_c, 0, 67, 95
2, 40260, Note_off_c, 0, 67, 80
2, 40260, Note_on_c, 0, 67, 95
2, 40380, Note_off_c, 0, 67, 80
2, 40380, Note_on_c, 0, 72, 95
2, 40440, Note_off_c, 0, 72, 80
2, 40440, Note_on_c, 0, 72, 95
2, 40500, Note_off_c, 0, 72, 80
2, 40500, Note_on_c, 0, 72, 95
2, 40620, Note_off_c, 0, 72, 80
2, 40620, Note_on_c, 0, 72, 95
2, 40680, Note_off_c, 0, 72, 80
2, 40680, Note_on_c, 0, 72, 95
2, 40740, Note_off_c, 0, 72, 80
2, 40740, Note_on_c, 0, 72, 95
2, 40860, Note_off_c, 0, 72, 80
2, 40860, Note_on_c, 0, 72, 95
2, 40920, Note_off_c, 0, 72, 80
2, 40920, Note_on_c, 0, 72, 95
2, 40980, Note_off_c, 0, 72, 80
2, 40980, Note_on_c, 0, 72, 95
2, 41100, Note_off_c, 0, 72, 80
2, 41100, Note_on_c, 0, 72, 95
2, 41160, Note_off_c, 0, 72, 80
2, 41160, Note_on_c, 0, 72, 95
2, 41220, Note_off_c, 0, 72, 80
2, 41220, Note_on_c, 0, 72, 95
2, 41340, Note_off_c, 0, 72, 80
2, 41340, Note_on_c, 0, 71, 95
2, 41400, Note_off_c, 0, 71, 80
2, 41400, Note_on_c, 0, 71, 95
2, 41460, Note_off_c, 0, 71, 80
2, 41460, Note_on_c, 0, 71, 95
2, 41580, Note_off_c, 0, 71, 80
2, 41580, Note_on_c, 0, 71, 95
2, 41640, Note_off_c, 0, 71, 80
2, 41640, Note_on_c, 0, 71, 95
2, 41700, Note_off_c, 0, 71, 80
2, 41700, Note_on_c, 0, 71, 95
2, 41820, Note_off_c, 0, 71, 80
2, 41820, Note_on_c, 0, 69, 95
2, 41880, Note_off_c, 0, 69, 80
2, 41880, Note_on_c, 0, 69, 95
2, 41940, Note_off_c, 0, 69, 80
2, 41940, Note_on_c, 0, 69, 95
2, 42060, Note_off_c, 0, 69, 80
2, 42060, Note_on_c, 0, 69, 95
2, 42120, Note_off_c, 0, 69, 80
2, 42120, Note_on_c, 0, 69, 95
2, 42180, Note_off_c, 0, 69, 80
2, 42180, Note_on_c, 0, 69, 95
2, 42300, Note_off_c, 0, 69, 80
2, 42300, Note_on_c, 0, 69, 95
2, 42360, Note_off_c, 0, 69, 80
2, 42360, Note_on_c, 0, 69, 95
2, 42420, Note_off_c, 0, 69, 80
2, 42420, Note_on_c, 0, 69, 95
2, 42540, Note_off_c, 0, 69, 80
2, 42540, Note_on_c, 0, 69, 95
2, 42600, Note_off_c, 0, 69, 80
2, 42600, Note_on_c, 0, 69, 95
2, 42660, Note_off_c, 0, 69, 80
2, 42660, Note_on_c, 0, 69, 95
2, 42780, Note_off_c, 0, 69, 80
2, 42780, Note_on_c, 0, 71, 95
2, 42840, Note_off_c, 0, 71, 80
2, 42840, Note_on_c, 0, 71, 95
2, 42900, Note_off_c, 0, 71, 80
2, 42900, Note_on_c, 0, 71, 95
2, 43020, Note_off_c, 0, 71, 80
2, 43020, Note_on_c, 0, 71, 95
2, 43080, Note_off_c, 0, 71, 80
2, 43080, Note_on_c, 0, 71, 95
2, 43140, Note_off_c, 0, 71, 80
2, 43140, Note_on_c, 0, 71, 95
2, 43260, Note_off_c, 0, 71, 80
2, 43260, Note_on_c, 0, 69, 95
2, 43320, Note_off_c, 0, 69, 80
2, 43320, Note_on_c, 0, 69, 95
2, 43380, Note_off_c, 0, 69, 80
2, 43380, Note_on_c, 0, 69, 95
2, 43500, Note_off_c, 0, 69, 80
2, 43500, Note_on_c, 0, 69, 95
2, 43560, Note_off_c, 0, 69, 80
2, 43560, Note_on_c, 0, 69, 95
2, 43600, Note_off_c, 0, 69, 80
2, 43600, Note_on_c, 0, 71, 76
2, 43640, Note_off_c, 0, 71, 80
2, 43640, Note_on_c, 0, 69, 76
2, 43740, Note_off_c, 0, 69, 80
2, 43740, Note_on_c, 0, 68, 95
2, 43800, Note_off_c, 0, 68, 80
2, 43800, Note_on_c, 0, 68, 95
2, 43860, Note_off_c, 0, 68, 80
2, 43860, Note_on_c, 0, 68, 95
2, 43980, Note_off_c, 0, 68, 80
2, 43980, Note_on_c, 0, 68, 95
2, 44040, Note_off_c, 0, 68, 80
2, 44040, Note_on_c, 0, 68, 95
2, 44100, Note_off_c, 0, 68, 80
2, 44100, Note_on_c, 0, 68, 95
2, 44220, Note_off_c, 0, 68, 80
2, 44220, Note_on_c, 0, 68, 95
2, 44280, Note_off_c, 0, 68, 80
2, 44280, Note_on_c, 0, 68, 95
2, 44340, Note_off_c, 0, 68, 80
2, 44340, Note_on_c, 0, 68, 95
2, 44460, Note_off_c, 0, 68, 80
2, 44460, Note_on_c, 0, 68, 95
2, 44520, Note_off_c, 0, 68, 80
2, 44520, Note_on_c, 0, 68, 95
2, 44580, Note_off_c, 0, 68, 80
2, 44580, Note_on_c, 0, 68, 95
2, 44700, Note_off_c, 0, 68, 80
2, 44700, Note_on_c, 0, 68, 95
2, 44760, Note_off_c, 0, 68, 80
2, 44760, Note_on_c, 0, 68, 95
2, 44820, Note_off_c, 0, 68, 80
2, 44820, Note_on_c, 0, 68, 95
2, 44940, Note_off_c, 0, 68, 80
2, 44940, Note_on_c, 0, 68, 95
2, 45000, Note_off_c, 0, 68, 80
2, 45000, Note_on_c, 0, 68, 95
2, 45060, Note_off_c, 0, 68, 80
2, 45060, Note_on_c, 0, 68, 95
2, 45180, Note_off_c, 0, 68, 80
2, 45180, Note_on_c, 0, 68, 95
2, 45240, Note_off_c, 0, 68, 80
2, 45240, Note_on_c, 0, 68, 95
2, 45300, Note_off_c, 0, 68, 80
2, 45300, Note_on_c, 0, 68, 95
2, 45420, Note_off_c, 0, 68, 80
2, 45420, Note_on_c, 0, 68, 95
2, 45480, Note_off_c, 0, 68, 80
2, 45480, Note_on_c, 0, 68, 95
2, 45540, Note_off_c, 0, 68, 80
2, 45540, Note_on_c, 0, 68, 95
2, 45660, Note_off_c, 0, 68, 80
2, 45660, Note_on_c, 0, 68, 95
2, 45720, Note_off_c, 0, 68, 80
2, 45720, Note_on_c, 0, 68, 95
2, 45780, Note_off_c, 0, 68, 80
2, 45780, Note_on_c, 0, 68, 95
2, 45900, Note_off_c, 0, 68, 80
2, 45900, Note_on_c, 0, 68, 95
2, 45960, Note_off_c, 0, 68, 80
2, 45960, Note_on_c, 0, 68, 95
2, 46020, Note_off_c, 0, 68, 80
2, 46020, Note_on_c, 0, 68, 95
2, 46140, Note_off_c, 0, 68, 80
2, 46140, Note_on_c, 0, 70, 95
2, 46200, Note_off_c, 0, 70, 80
2, 46200, Note_on_c, 0, 70, 95
2, 46260, Note_off_c, 0, 70, 80
2, 46260, Note_on_c, 0, 70, 95
2, 46380, Note_off_c, 0, 70, 80
2, 46380, Note_on_c, 0, 70, 95
2, 46440, Note_off_c, 0, 70, 80
2, 46440, Note_on_c, 0, 70, 95
2, 46500, Note_off_c, 0, 70, 80
2, 46500, Note_on_c, 0, 70, 95
2, 46620, Note_off_c, 0, 70, 80
2, 46620, Note_on_c, 0, 70, 95
2, 46680, Note_off_c, 0, 70, 80
2, 46680, Note_on_c, 0, 70, 95
2, 46740, Note_off_c, 0, 70, 80
2, 46740, Note_on_c, 0, 70, 95
2, 46860, Note_off_c, 0, 70, 80
2, 46860, Note_on_c, 0, 70, 95
2, 46920, Note_off_c, 0, 70, 80
2, 46920, Note_on_c, 0, 70, 95
2, 46980, Note_off_c, 0, 70, 80
2, 46980, Note_on_c, 0, 70, 95
2, 47100, Note_off_c, 0, 70, 80
2, 47100, Note_on_c, 0, 69, 95
2, 47160, Note_off_c, 0, 69, 80
2, 47160, Note_on_c, 0, 69, 95
2, 47220, Note_off_c, 0, 69, 80
2, 47220, Note_on_c, 0, 69, 95
2, 47340, Note_off_c, 0, 69, 80
2, 47340, Note_on_c, 0, 69, 95
2, 47400, Note_off_c, 0, 69, 80
2, 47400, Note_on_c, 0, 69, 95
2, 47460, Note_off_c, 0, 69, 80
2, 47460, Note_on_c, 0, 69, 95
2, 47580, Note_off_c, 0, 69, 80
2, 47580, Note_on_c, 0, 67, 95
2, 47640, Note_off_c, 0, 67, 80
2, 47640, Note_on_c, 0, 67, 95
2, 47700, Note_off_c, 0, 67, 80
2, 47700, Note_on_c, 0, 67, 95
2, 47820, Note_off_c, 0, 67, 80
2, 47820, Note_on_c, 0, 67, 95
2, 47880, Note_off_c, 0, 67, 80
2, 47880, Note_on_c, 0, 67, 95
2, 47940, Note_off_c, 0, 67, 80
2, 47940, Note_on_c, 0, 67, 95
2, 48060, Note_off_c, 0, 67, 80
2, 48060, Note_on_c, 0, 67, 95
2, 48120, Note_off_c, 0, 67, 80
2, 48120, Note_on_c, 0, 67, 95
2, 48180, Note_off_c, 0, 67, 80
2, 48180, Note_on_c, 0, 67, 95
2, 48300, Note_off_c, 0, 67, 80
2, 48300, Note_on_c, 0, 67, 95
2, 48360, Note_off_c, 0, 67, 80
2, 48360, Note_on_c, 0, 67, 95
2, 48420, Note_off_c, 0, 67, 80
2, 48420, Note_on_c, 0, 67, 95
2, 48540, Note_off_c, 0, 67, 80
2, 48540, Note_on_c, 0, 69, 95
2, 48600, Note_off_c, 0, 69, 80
2, 48600, Note_on_c, 0, 69, 95
2, 48660, Note_off_c, 0, 69, 80
2, 48660, Note_on_c, 0, 69, 95
2, 48780, Note_off_c, 0, 69, 80
2, 48780, Note_on_c, 0, 69, 95
2, 48840, Note_off_c, 0, 69, 80
2, 48840, Note_on_c, 0, 69, 95
2, 48900, Note_off_c, 0, 69, 80
2, 48900, Note_on_c, 0, 69, 95
2, 49020, Note_off_c, 0, 69, 80
2, 49020, Note_on_c, 0, 67, 95
2, 49080, Note_off_c, 0, 67, 80
2, 49080, Note_on_c, 0, 67, 95
2, 49140, Note_off_c, 0, 67, 80
2, 49140, Note_on_c, 0, 67, 95
2, 49260, Note_off_c, 0, 67, 80
2, 49260, Note_on_c, 0, 67, 95
2, 49320, Note_off_c, 0, 67, 80
2, 49320, Note_on_c, 0, 67, 95
2, 49360, Note_off_c, 0, 67, 80
2, 49360, Note_on_c, 0, 69, 76
2, 49400, Note_off_c, 0, 69, 80
2, 49400, Note_on_c, 0, 67, 76
2, 49500, Note_off_c, 0, 67, 80
2, 49500, Note_on_c, 0, 65, 95
2, 49560, Note_off_c, 0, 65, 80
2, 49560, Note_on_c, 0, 65, 95
2, 49620, Note_off_c, 0, 65, 80
2, 49620, Note_on_c, 0, 65, 95
2, 49740, Note_off_c, 0, 65, 80
2, 49740, Note_on_c, 0, 65, 95
2, 49800, Note_off_c, 0, 65, 80
2, 49800, Note_on_c, 0, 65, 95
2, 49860, Note_off_c, 0, 65, 80
2, 49860, Note_on_c, 0, 65, 95
2, 49980, Note_off_c, 0, 65, 80
2, 49980, Note_on_c, 0, 65, 95
2, 50040, Note_off_c, 0, 65, 80
2, 50040, Note_on_c, 0, 65, 95
2, 50100, Note_off_c, 0, 65, 80
2, 50100, Note_on_c, 0, 65, 95
2, 50220, Note_off_c, 0, 65, 80
2, 50220, Note_on_c, 0, 65, 95
2, 50280, Note_off_c, 0, 65, 80
2, 50280, Note_on_c, 0, 65, 95
2, 50340, Note_off_c, 0, 65, 80
2, 50340, Note_on_c, 0, 65, 95
2, 50460, Note_off_c, 0, 65, 80
2, 50460, Note_on_c, 0, 65, 95
2, 50520, Note_off_c, 0, 65, 80
2, 50520, Note_on_c, 0, 65, 95
2, 50580, Note_off_c, 0, 65, 80
2, 50580, Note_on_c, 0, 65, 95
2, 50700, Note_off_c, 0, 65, 80
2, 50700, Note_on_c, 0, 65, 95
2, 50760, Note_off_c, 0, 65, 80
2, 50760, Note_on_c, 0, 65, 95
2, 50820, Note_off_c, 0, 65, 80
2, 50820, Note_on_c, 0, 65, 95
2, 50940, Note_off_c, 0, 65, 80
2, 50940, Note_on_c, 0, 65, 95
2, 51000, Note_off_c, 0, 65, 80
2, 51000, Note_on_c, 0, 65, 95
2, 51060, Note_off_c, 0, 65, 80
2, 51060, Note_on_c, 0, 65, 95
2, 51180, Note_off_c, 0, 65, 80
2, 51180, Note_on_c, 0, 65, 95
2, 51240, Note_off_c, 0, 65, 80
2, 51240, Note_on_c, 0, 65, 95
2, 51300, Note_off_c, 0, 65, 80
2, 51300, Note_on_c, 0, 65, 95
2, 51420, Note_off_c, 0, 65, 80
2, 51420, Note_on_c, 0, 65, 95
2, 51480, Note_off_c, 0, 65, 80
2, 51480, Note_on_c, 0, 65, 95
2, 51540, Note_off_c, 0, 65, 80
2, 51540, Note_on_c, 0, 65, 95
2, 51660, Note_off_c, 0, 65, 80
2, 51660, Note_on_c, 0, 65, 95
2, 51720, Note_off_c, 0, 65, 80
2, 51720, Note_on_c, 0, 65, 95
2, 51780, Note_off_c, 0, 65, 80
2, 51780, Note_on_c, 0, 65, 95
2, 51900, Note_off_c, 0, 65, 80
2, 51900, Note_on_c, 0, 64, 95
2, 51960, Note_off_c, 0, 64, 80
2, 51960, Note_on_c, 0, 64, 95
2, 52020, Note_off_c, 0, 64, 80
2, 52020, Note_on_c, 0, 64, 95
2, 52140, Note_off_c, 0, 64, 80
2, 52140, Note_on_c, 0, 64, 95
2, 52200, Note_off_c, 0, 64, 80
2, 52200, Note_on_c, 0, 64, 95
2, 52260, Note_off_c, 0, 64, 80
2, 52260, Note_on_c, 0, 64, 95
2, 52380, Note_off_c, 0, 64, 80
2, 52380, Note_on_c, 0, 64, 95
2, 52440, Note_off_c, 0, 64, 80
2, 52440, Note_on_c, 0, 64, 95
2, 52500, Note_off_c, 0, 64, 80
2, 52500, Note_on_c, 0, 64, 95
2, 52620, Note_off_c, 0, 64, 80
2, 52620, Note_on_c, 0, 64, 95
2, 52680, Note_off_c, 0, 64, 80
2, 52680, Note_on_c, 0, 64, 95
2, 52740, Note_off_c, 0, 64, 80
2, 52740, Note_on_c, 0, 64, 95
2, 52860, Note_off_c, 0, 64, 80
2, 52860, Note_on_c, 0, 62, 95
2, 52920, Note_off_c, 0, 62, 80
2, 52920, Note_on_c, 0, 62, 95
2, 52980, Note_off_c, 0, 62, 80
2, 52980, Note_on_c, 0, 62, 95
2, 53100, Note_off_c, 0, 62, 80
2, 53100, Note_on_c, 0, 62, 95
2, 53160, Note_off_c, 0, 62, 80
2, 53160, Note_on_c, 0, 62, 95
2, 53220, Note_off_c, 0, 62, 80
2, 53220, Note_on_c, 0, 62, 95
2, 53340, Note_off_c, 0, 62, 80
2, 53340, Note_on_c, 0, 60, 95
2, 53400, Note_off_c, 0, 60, 80
2, 53400, Note_on_c, 0, 60, 95
2, 53460, Note_off_c, 0, 60, 80
2, 53460, Note_on_c, 0, 60, 95
2, 53580, Note_off_c, 0, 60, 80
2, 53580, Note_on_c, 0, 60, 95
2, 53640, Note_off_c, 0, 60, 80
2, 53640, Note_on_c, 0, 60, 95
2, 53700, Note_off_c, 0, 60, 80
2, 53700, Note_on_c, 0, 60, 95
2, 53820, Note_off_c, 0, 60, 80
2, 53820, Note_on_c, 0, 60, 95
2, 53880, Note_off_c, 0, 60, 80
2, 53880, Note_on_c, 0, 60, 95
2, 53940, Note_off_c, 0, 60, 80
2, 53940, Note_on_c, 0, 60, 95
2, 54060, Note_off_c, 0, 60, 80
2, 54060, Note_on_c, 0, 60, 95
2, 54120, Note_off_c, 0, 60, 80
2, 54120, Note_on_c, 0, 60, 95
2, 54180, Note_off_c, 0, 60, 80
2, 54180, Note_on_c, 0, 60, 95
2, 54300, Note_off_c, 0, 60, 80
2, 54300, Note_on_c, 0, 62, 95
2, 54360, Note_off_c, 0, 62, 80
2, 54360, Note_on_c, 0, 62, 95
2, 54420, Note_off_c, 0, 62, 80
2, 54420, Note_on_c, 0, 62, 95
2, 54540, Note_off_c, 0, 62, 80
2, 54540, Note_on_c, 0, 62, 95
2, 54600, Note_off_c, 0, 62, 80
2, 54600, Note_on_c, 0, 62, 95
2, 54660, Note_off_c, 0, 62, 80
2, 54660, Note_on_c, 0, 62, 95
2, 54780, Note_off_c, 0, 62, 80
2, 54780, Note_on_c, 0, 60, 95
2, 54840, Note_off_c, 0, 60, 80
2, 54840, Note_on_c, 0, 60, 95
2, 54900, Note_off_c, 0, 60, 80
2, 54900, Note_on_c, 0, 60, 95
2, 55020, Note_off_c, 0, 60, 80
2, 55020, Note_on_c, 0, 60, 95
2, 55080, Note_off_c, 0, 60, 80
2, 55080, Note_on_c, 0, 60, 95
2, 55120, Note_off_c, 0, 60, 80
2, 55120, Note_on_c, 0, 62, 76
2, 55160, Note_off_c, 0, 62, 80
2, 55160, Note_on_c, 0, 60, 76
2, 55260, Note_off_c, 0, 60, 80
2, 55260, Note_on_c, 0, 59, 95
2, 55320, Note_off_c, 0, 59, 80
2, 55320, Note_on_c, 0, 59, 95
2, 55380, Note_off_c, 0, 59, 80
2, 55380, Note_on_c, 0, 59, 95
2, 55500, Note_off_c, 0, 59, 80
2, 55500, Note_on_c, 0, 59, 95
2, 55560, Note_off_c, 0, 59, 80
2, 55560, Note_on_c, 0, 59, 95
2, 55620, Note_off_c, 0, 59, 80
2, 55620, Note_on_c, 0, 59, 95
2, 55740, Note_off_c, 0, 59, 80
2, 55740, Note_on_c, 0, 59, 95
2, 55800, Note_off_c, 0, 59, 80
2, 55800, Note_on_c, 0, 59, 95
2, 55860, Note_off_c, 0, 59, 80
2, 55860, Note_on_c, 0, 59, 95
2, 55980, Note_off_c, 0, 59, 80
2, 55980, Note_on_c, 0, 59, 95
2, 56040, Note_off_c, 0, 59, 80
2, 56040, Note_on_c, 0, 59, 95
2, 56100, Note_off_c, 0, 59, 80
2, 56100, Note_on_c, 0, 59, 95
2, 56220, Note_off_c, 0, 59, 80
2, 56220, Note_on_c, 0, 59, 95
2, 56280, Note_off_c, 0, 59, 80
2, 56280, Note_on_c, 0, 59, 95
2, 56340, Note_off_c, 0, 59, 80
2, 56340, Note_on_c, 0, 59, 95
2, 56460, Note_off_c, 0, 59, 80
2, 56460, Note_on_c, 0, 59, 95
2, 56520, Note_off_c, 0, 59, 80
2, 56520, Note_on_c, 0, 59, 95
2, 56580, Note_off_c, 0, 59, 80
2, 56580, Note_on_c, 0, 59, 95
2, 56700, Note_off_c, 0, 59, 80
2, 56700, Note_on_c, 0, 59, 95
2, 56760, Note_off_c, 0, 59, 80
2, 56760, Note_on_c, 0, 59, 95
2, 56820, Note_off_c, 0, 59, 80
2, 56820, Note_on_c, 0, 59, 95
2, 56940, Note_off_c, 0, 59, 80
2, 56940, Note_on_c, 0, 59, 95
2, 57000, Note_off_c, 0, 59, 80
2, 57000, Note_on_c, 0, 59, 95
2, 57060, Note_off_c, 0, 59, 80
2, 57060, Note_on_c, 0, 59, 95
2, 57180, Note_off_c, 0, 59, 80
2, 57180, Note_on_c, 0, 59, 95
2, 57240, Note_off_c, 0, 59, 80
2, 57240, Note_on_c, 0, 59, 95
2, 57300, Note_off_c, 0, 59, 80
2, 57300, Note_on_c, 0, 59, 95
2, 57420, Note_off_c, 0, 59, 80
2, 57420, Note_on_c, 0, 59, 95
2, 57480, Note_off_c, 0, 59, 80
2, 57480, Note_on_c, 0, 59, 95
2, 57540, Note_off_c, 0, 59, 80
2, 57540, Note_on_c, 0, 59, 95
2, 57660, Note_off_c, 0, 59, 80
2, 57660, Note_on_c, 0, 64, 95
2, 57720, Note_off_c, 0, 64, 80
2, 57720, Note_on_c, 0, 64, 95
2, 57780, Note_off_c, 0, 64, 80
2, 57780, Note_on_c, 0, 64, 95
2, 57900, Note_off_c, 0, 64, 80
2, 57900, Note_on_c, 0, 64, 95
2, 57960, Note_off_c, 0, 64, 80
2, 57960, Note_on_c, 0, 64, 95
2, 58020, Note_off_c, 0, 64, 80
2, 58020, Note_on_c, 0, 64, 95
2, 58140, Note_off_c, 0, 64, 80
2, 58140, Note_on_c, 0, 64, 95
2, 58200, Note_off_c, 0, 64, 80
2, 58200, Note_on_c, 0, 64, 95
2, 58260, Note_off_c, 0, 64, 80
2, 58260, Note_on_c, 0, 64, 95
2, 58380, Note_off_c, 0, 64, 80
2, 58380, Note_on_c, 0, 64, 95
2, 58440, Note_off_c, 0, 64, 80
2, 58440, Note_on_c, 0, 64, 95
2, 58500, Note_off_c, 0, 64, 80
2, 58500, Note_on_c, 0, 64, 95
2, 58620, Note_off_c, 0, 64, 80
2, 58620, Note_on_c, 0, 62, 95
2, 58680, Note_off_c, 0, 62, 80
2, 58680, Note_on_c, 0, 62, 95
2, 58740, Note_off_c, 0, 62, 80
2, 58740, Note_on_c, 0, 62, 95
2, 58860, Note_off_c, 0, 62, 80
2, 58860, Note_on_c, 0, 62, 95
2, 58920, Note_off_c, 0, 62, 80
2, 58920, Note_on_c, 0, 62, 95
2, 58980, Note_off_c, 0, 62, 80
2, 58980, Note_on_c, 0, 62, 95
2, 59100, Note_off_c, 0, 62, 80
2, 59100, Note_on_c, 0, 61, 95
2, 59160, Note_off_c, 0, 61, 80
2, 59160, Note_on_c, 0, 61, 95
2, 59220, Note_off_c, 0, 61, 80
2, 59220, Note_on_c, 0, 61, 95
2, 59340, Note_off_c, 0, 61, 80
2, 59340, Note_on_c, 0, 61, 95
2, 59400, Note_off_c, 0, 61, 80
2, 59400, Note_on_c, 0, 61, 95
2, 59460, Note_off_c, 0, 61, 80
2, 59460, Note_on_c, 0, 61, 95
2, 59580, Note_off_c, 0, 61, 80
2, 59580, Note_on_c, 0, 61, 95
2, 59640, Note_off_c, 0, 61, 80
2, 59640, Note_on_c, 0, 61, 95
2, 59700, Note_off_c, 0, 61, 80
2, 59700, Note_on_c, 0, 61, 95
2, 59820, Note_off_c, 0, 61, 80
2, 59820, Note_on_c, 0, 61, 95
2, 59880, Note_off_c, 0, 61, 80
2, 59880, Note_on_c, 0, 61, 95
2, 59940, Note_off_c, 0, 61, 80
2, 59940, Note_on_c, 0, 61, 95
2, 60060, Note_off_c, 0, 61, 80
2, 60060, Note_on_c, 0, 62, 95
2, 60120, Note_off_c, 0, 62, 80
2, 60120, Note_on_c, 0, 62, 95
2, 60180, Note_off_c, 0, 62, 80
2, 60180, Note_on_c, 0, 62, 95
2, 60300, Note_off_c, 0, 62, 80
2, 60300, Note_on_c, 0, 62, 95
2, 60360, Note_off_c, 0, 62, 80
2, 60360, Note_on_c, 0, 62, 95
2, 60420, Note_off_c, 0, 62, 80
2, 60420, Note_on_c, 0, 62, 95
2, 60540, Note_off_c, 0, 62, 80
2, 60540, Note_on_c, 0, 64, 95
2, 60600, Note_off_c, 0, 64, 80
2, 60600, Note_on_c, 0, 64, 95
2, 60660, Note_off_c, 0, 64, 80
2, 60660, Note_on_c, 0, 64, 95
2, 60780, Note_off_c, 0, 64, 80
2, 60780, Note_on_c, 0, 64, 95
2, 60840, Note_off_c, 0, 64, 80
2, 60840, Note_on_c, 0, 64, 95
2, 60900, Note_off_c, 0, 64, 80
2, 60900, Note_on_c, 0, 64, 95
2, 61020, Note_off_c, 0, 64, 80
2, 61020, Note_on_c, 0, 64, 95
2, 61080, Note_off_c, 0, 64, 80
2, 61080, Note_on_c, 0, 64, 95
2, 61140, Note_off_c, 0, 64, 80
2, 61140, Note_on_c, 0, 64, 95
2, 61260, Note_off_c, 0, 64, 80
2, 61260, Note_on_c, 0, 64, 95
2, 61320, Note_off_c, 0, 64, 80
2, 61320, Note_on_c, 0, 64, 95
2, 61380, Note_off_c, 0, 64, 80
2, 61380, Note_on_c, 0, 64, 95
2, 61500, Note_off_c, 0, 64, 80
2, 61500, Note_on_c, 0, 64, 95
2, 61560, Note_off_c, 0, 64, 80
2, 61560, Note_on_c, 0, 64, 95
2, 61620, Note_off_c, 0, 64, 80
2, 61620, Note_on_c, 0, 64, 95
2, 61740, Note_off_c, 0, 64, 80
2, 61740, Note_on_c, 0, 64, 95
2, 61800, Note_off_c, 0, 64, 80
2, 61800, Note_on_c, 0, 64, 95
2, 61860, Note_off_c, 0, 64, 80
2, 61860, Note_on_c, 0, 64, 95
2, 61980, Note_off_c, 0, 64, 80
2, 61980, Note_on_c, 0, 64, 95
2, 62040, Note_off_c, 0, 64, 80
2, 62040, Note_on_c, 0, 64, 95
2, 62100, Note_off_c, 0, 64, 80
2, 62100, Note_on_c, 0, 64, 95
2, 62220, Note_off_c, 0, 64, 80
2, 62220, Note_on_c, 0, 64, 95
2, 62280, Note_off_c, 0, 64, 80
2, 62280, Note_on_c, 0, 64, 95
2, 62340, Note_off_c, 0, 64, 80
2, 62340, Note_on_c, 0, 64, 95
2, 62460, Note_off_c, 0, 64, 80
2, 62460, Note_on_c, 0, 64, 95
2, 62520, Note_off_c, 0, 64, 80
2, 62520, Note_on_c, 0, 64, 95
2, 62580, Note_off_c, 0, 64, 80
2, 62580, Note_on_c, 0, 64, 95
2, 62700, Note_off_c, 0, 64, 80
2, 62700, Note_on_c, 0, 64, 95
2, 62760, Note_off_c, 0, 64, 80
2, 62760, Note_on_c, 0, 64, 95
2, 62820, Note_off_c, 0, 64, 80
2, 62820, Note_on_c, 0, 64, 95
2, 62940, Note_off_c, 0, 64, 80
2, 62940, Note_on_c, 0, 64, 95
2, 63000, Note_off_c, 0, 64, 80
2, 63000, Note_on_c, 0, 64, 95
2, 63060, Note_off_c, 0, 64, 80
2, 63060, Note_on_c, 0, 64, 95
2, 63180, Note_off_c, 0, 64, 80
2, 63180, Note_on_c, 0, 64, 95
2, 63240, Note_off_c, 0, 64, 80
2, 63240, Note_on_c, 0, 64, 95
2, 63300, Note_off_c, 0, 64, 80
2, 63300, Note_on_c, 0, 64, 95
2, 63420, Note_off_c, 0, 64, 80
2, 63420, Note_on_c, 0, 66, 95
2, 63480, Note_off_c, 0, 66, 80
2, 63480, Note_on_c, 0, 66, 95
2, 63540, Note_off_c, 0, 66, 80
2, 63540, Note_on_c, 0, 66, 95
2, 63660, Note_off_c, 0, 66, 80
2, 63660, Note_on_c, 0, 66, 95
2, 63720, Note_off_c, 0, 66, 80
2, 63720, Note_on_c, 0, 66, 95
2, 63780, Note_off_c, 0, 66, 80
2, 63780, Note_on_c, 0, 66, 95
2, 63900, Note_off_c, 0, 66, 80
2, 63900, Note_on_c, 0, 66, 95
2, 63960, Note_off_c, 0, 66, 80
2, 63960, Note_on_c, 0, 66, 95
2, 64020, Note_off_c, 0, 66, 80
2, 64020, Note_on_c, 0, 66, 95
2, 64140, Note_off_c, 0, 66, 80
2, 64140, Note_on_c, 0, 66, 95
2, 64200, Note_off_c, 0, 66, 80
2, 64200, Note_on_c, 0, 66, 95
2, 64260, Note_off_c, 0, 66, 80
2, 64260, Note_on_c, 0, 66, 95
2, 64380, Note_off_c, 0, 66, 80
2, 64380, Note_on_c, 0, 66, 95
2, 64440, Note_off_c, 0, 66, 80
2, 64440, Note_on_c, 0, 66, 95
2, 64500, Note_off_c, 0, 66, 80
2, 64500, Note_on_c, 0, 66, 95
2, 64620, Note_off_c, 0, 66, 80
2, 64620, Note_on_c, 0, 66, 95
2, 64680, Note_off_c, 0, 66, 80
2, 64680, Note_on_c, 0, 66, 95
2, 64740, Note_off_c, 0, 66, 80
2, 64740, Note_on_c, 1, 66, 95
2, 64800, Pitch_bend_c, 1, 9216
2, 64809, Pitch_bend_c, 1, 10240
2, 64817, Pitch_bend_c, 1, 11264
2, 64826, Pitch_bend_c, 1, 12288
2, 64834, Pitch_bend_c, 1, 13312
2, 64843, Pitch_bend_c, 1, 14336
2, 64851, Pitch_bend_c, 1, 15360
2, 64860, Note_off_c, 1, 66, 80
2, 64860, Pitch_bend_c, 1, 16256
2, 64860, Note_on_c, 0, 74, 76
2, 64869, Pitch_bend_c, 1, 8192
2, 64920, Note_off_c, 0, 74, 80
2, 64920, Note_on_c, 0, 74, 95
2, 64980, Note_off_c, 0, 74, 80
2, 64980, Note_on_c, 0, 74, 95
2, 65100, Note_off_c, 0, 74, 80
2, 65100, Note_on_c, 0, 74, 95
2, 65160, Note_off_c, 0, 74, 80
2, 65160, Note_on_c, 0, 74, 95
2, 65220, Note_off_c, 0, 74, 80
2, 65220, Note_on_c, 0, 74, 95
2, 65340, Note_off_c, 0, 74, 80
2, 65340, Note_on_c, 0, 74, 95
2, 65400, Note_off_c, 0, 74, 80
2, 65400, Note_on_c, 0, 74, 95
2, 65460, Note_off_c, 0, 74, 80
2, 65460, Note_on_c, 0, 74, 95
2, 65580, Note_off_c, 0, 74, 80
2, 65580, Note_on_c, 0, 74, 95
2, 65640, Note_off_c, 0, 74, 80
2, 65640, Note_on_c, 0, 74, 95
2, 65700, Note_off_c, 0, 74, 80
2, 65700, Note_on_c, 0, 74, 95
2, 65820, Note_off_c, 0, 74, 80
2, 65820, Note_on_c, 0, 66, 95
2, 65880, Note_off_c, 0, 66, 80
2, 65880, Note_on_c, 0, 66, 95
2, 65940, Note_off_c, 0, 66, 80
2, 65940, Note_on_c, 0, 66, 95
2, 66060, Note_off_c, 0, 66, 80
2, 66060, Note_on_c, 0, 66, 95
2, 66120, Note_off_c, 0, 66, 80
2, 66120, Note_on_c, 0, 66, 95
2, 66180, Note_off_c, 0, 66, 80
2, 66180, Note_on_c, 0, 66, 95
2, 66300, Note_off_c, 0, 66, 80
2, 66300, Note_on_c, 0, 66, 95
2, 66360, Note_off_c, 0, 66, 80
2, 66360, Note_on_c, 0, 66, 95
2, 66420, Note_off_c, 0, 66, 80
2, 66420, Note_on_c, 0, 66, 95
2, 66540, Note_off_c, 0, 66, 80
2, 66540, Note_on_c, 0, 66, 95
2, 66600, Note_off_c, 0, 66, 80
2, 66600, Note_on_c, 0, 66, 95
2, 66640, Note_off_c, 0, 66, 80
2, 66640, Note_on_c, 0, 68, 76
2, 66680, Note_off_c, 0, 68, 80
2, 66680, Note_on_c, 0, 66, 76
2, 66780, Note_off_c, 0, 66, 80
2, 66780, Note_on_c, 0, 64, 95
2, 66840, Note_off_c, 0, 64, 80
2, 66840, Note_on_c, 0, 64, 95
2, 66900, Note_off_c, 0, 64, 80
2, 66900, Note_on_c, 0, 64, 95
2, 67020, Note_off_c, 0, 64, 80
2, 67020, Note_on_c, 0, 64, 95
2, 67080, Note_off_c, 0, 64, 80
2, 67080, Note_on_c, 0, 64, 95
2, 67140, Note_off_c, 0, 64, 80
2, 67140, Note_on_c, 0, 64, 95
2, 67260, Note_off_c, 0, 64, 80
2, 67260, Note_on_c, 0, 64, 95
2, 67320, Note_off_c, 0, 64, 80
2, 67320, Note_on_c, 0, 64, 95
2, 67380, Note_off_c, 0, 64, 80
2, 67380, Note_on_c, 0, 64, 95
2, 67500, Note_off_c, 0, 64, 80
2, 67500, Note_on_c, 0, 64, 95
2, 67560, Note_off_c, 0, 64, 80
2, 67560, Note_on_c, 0, 64, 95
2, 67620, Note_off_c, 0, 64, 80
2, 67620, Note_on_c, 0, 64, 95
2, 67740, Note_off_c, 0, 64, 80
2, 67740, Note_on_c, 0, 64, 95
2, 67800, Note_off_c, 0, 64, 80
2, 67800, Note_on_c, 0, 64, 95
2, 67860, Note_off_c, 0, 64, 80
2, 67860, Note_on_c, 0, 64, 95
2, 67980, Note_off_c, 0, 64, 80
2, 67980, Note_on_c, 0, 64, 95
2, 68040, Note_off_c, 0, 64, 80
2, 68040, Note_on_c, 0, 64, 95
2, 68100, Note_off_c, 0, 64, 80
2, 68100, Note_on_c, 0, 64, 95
2, 68220, Note_off_c, 0, 64, 80
2, 68220, Note_on_c, 0, 64, 95
2, 68280, Note_off_c, 0, 64, 80
2, 68280, Note_on_c, 0, 64, 95
2, 68340, Note_off_c, 0, 64, 80
2, 68340, Note_on_c, 0, 64, 95
2, 68460, Note_off_c, 0, 64, 80
2, 68460, Note_on_c, 0, 64, 95
2, 68520, Note_off_c, 0, 64, 80
2, 68520, Note_on_c, 0, 64, 95
2, 68580, Note_off_c, 0, 64, 80
2, 68580, Note_on_c, 0, 64, 95
2, 68700, Note_off_c, 0, 64, 80
2, 68700, Note_on_c, 0, 64, 95
2, 68760, Note_off_c, 0, 64, 80
2, 68760, Note_on_c, 0, 64, 95
2, 68820, Note_off_c, 0, 64, 80
2, 68820, Note_on_c, 0, 64, 95
2, 68940, Note_off_c, 0, 64, 80
2, 68940, Note_on_c, 0, 64, 95
2, 69000, Note_off_c, 0, 64, 80
2, 69000, Note_on_c, 0, 64, 95
2, 69060, Note_off_c, 0, 64, 80
2, 69060, Note_on_c, 0, 64, 95
2, 69180, Note_off_c, 0, 64, 80
2, 69180, Note_on_c, 0, 69, 95
2, 69240, Note_off_c, 0, 69, 80
2, 69240, Note_on_c, 0, 69, 95
2, 69300, Note_off_c, 0, 69, 80
2, 69300, Note_on_c, 0, 69, 95
2, 69420, Note_off_c, 0, 69, 80
2, 69420, Note_on_c, 0, 69, 95
2, 69480, Note_off_c, 0, 69, 80
2, 69480, Note_on_c, 0, 69, 95
2, 69540, Note_off_c, 0, 69, 80
2, 69540, Note_on_c, 0, 69, 95
2, 69660, Note_off_c, 0, 69, 80
2, 69660, Note_on_c, 0, 69, 95
2, 69720, Note_off_c, 0, 69, 80
2, 69720, Note_on_c, 0, 69, 95
2, 69780, Note_off_c, 0, 69, 80
2, 69780, Note_on_c, 0, 69, 95
2, 69900, Note_off_c, 0, 69, 80
2, 69900, Note_on_c, 0, 69, 95
2, 69960, Note_off_c, 0, 69, 80
2, 69960, Note_on_c, 0, 69, 95
2, 70020, Note_off_c, 0, 69, 80
2, 70020, Note_on_c, 0, 69, 95
2, 70140, Note_off_c, 0, 69, 80
2, 70140, Note_on_c, 0, 69, 95
2, 70200, Note_off_c, 0, 69, 80
2, 70200, Note_on_c, 0, 69, 95
2, 70260, Note_off_c, 0, 69, 80
2, 70260, Note_on_c, 0, 69, 95
2, 70380, Note_off_c, 0, 69, 80
2, 70380, Note_on_c, 0, 69, 95
2, 70440, Note_off_c, 0, 69, 80
2, 70440, Note_on_c, 0, 69, 95
2, 70500, Note_off_c, 0, 69, 80
2, 70500, Note_on_c, 0, 69, 95
2, 70620, Note_off_c, 0, 69, 80
2, 70620, Note_on_c, 0, 68, 95
2, 70680, Note_off_c, 0, 68, 80
2, 70680, Note_on_c, 0, 68, 95
2, 70740, Note_off_c, 0, 68, 80
2, 70740, Note_on_c, 0, 68, 95
2, 70860, Note_off_c, 0, 68, 80
2, 70860, Note_on_c, 0, 68, 95
2, 70920, Note_off_c, 0, 68, 80
2, 70920, Note_on_c, 0, 68, 95
2, 70980, Note_off_c, 0, 68, 80
2, 70980, Note_on_c, 0, 68, 95
2, 71100, Note_off_c, 0, 68, 80
2, 71100, Note_on_c, 0, 68, 95
2, 71160, Note_off_c, 0, 68, 80
2, 71160, Note_on_c, 0, 68, 95
2, 71220, Note_off_c, 0, 68, 80
2, 71220, Note_on_c, 0, 68, 95
2, 71340, Note_off_c, 0, 68, 80
2, 71340, Note_on_c, 0, 68, 95
2, 71400, Note_off_c, 0, 68, 80
2, 71400, Note_on_c, 0, 68, 95
2, 71460, Note_off_c, 0, 68, 80
2, 71460, Note_on_c, 0, 68, 95
2, 71580, Note_off_c, 0, 68, 80
2, 71580, Note_on_c, 0, 63, 95
2, 71640, Note_off_c, 0, 63, 80
2, 71640, Note_on_c, 0, 63, 95
2, 71700, Note_off_c, 0, 63, 80
2, 71700, Note_on_c, 0, 63, 95
2, 71820, Note_off_c, 0, 63, 80
2, 71820, Note_on_c, 0, 63, 95
2, 71880, Note_off_c, 0, 63, 80
2, 71880, Note_on_c, 0, 63, 95
2, 71940, Note_off_c, 0, 63, 80
2, 71940, Note_on_c, 0, 63, 95
2, 72060, Note_off_c, 0, 63, 80
2, 72060, Note_on_c, 0, 66, 95
2, 72120, Note_off_c, 0, 66, 80
2, 72120, Note_on_c, 0, 66, 95
2, 72180, Note_off_c, 0, 66, 80
2, 72180, Note_on_c, 0, 66, 95
2, 72300, Note_off_c, 0, 66, 80
2, 72300, Note_on_c, 0, 66, 95
2, 72360, Note_off_c, 0, 66, 80
2, 72360, Note_on_c, 0, 66, 95
2, 72420, Note_off_c, 0, 66, 80
2, 72420, Note_on_c, 0, 66, 95
2, 72540, Note_off_c, 0, 66, 80
2, 72540, Note_on_c, 0, 64, 95
2, 72600, Note_off_c, 0, 64, 80
2, 72600, Note_on_c, 0, 64, 95
2, 72660, Note_off_c, 0, 64, 80
2, 72660, Note_on_c, 0, 64, 95
2, 72780, Note_off_c, 0, 64, 80
2, 72780, Note_on_c, 0, 64, 95
2, 72840, Note_off_c, 0, 64, 80
2, 72840, Note_on_c, 0, 64, 95
2, 72900, Note_off_c, 0, 64, 80
2, 72900, Note_on_c, 0, 64, 95
2, 73020, Note_off_c, 0, 64, 80
2, 73020, Note_on_c, 0, 64, 95
2, 73080, Note_off_c, 0, 64, 80
2, 73080, Note_on_c, 0, 64, 95
2, 73140, Note_off_c, 0, 64, 80
2, 73140, Note_on_c, 0, 64, 95
2, 73260, Note_off_c, 0, 64, 80
2, 73260, Note_on_c, 0, 64, 95
2, 73320, Note_off_c, 0, 64, 80
2, 73320, Note_on_c, 0, 64, 95
2, 73380, Note_off_c, 0, 64, 80
2, 73380, Note_on_c, 0, 64, 95
2, 73500, Note_off_c, 0, 64, 80
2, 73500, Note_on_c, 0, 64, 95
2, 73560, Note_off_c, 0, 64, 80
2, 73560, Note_on_c, 0, 64, 95
2, 73620, Note_off_c, 0, 64, 80
2, 73620, Note_on_c, 0, 64, 95
2, 73740, Note_off_c, 0, 64, 80
2, 73740, Note_on_c, 0, 64, 95
2, 73800, Note_off_c, 0, 64, 80
2, 73800, Note_on_c, 0, 64, 95
2, 73860, Note_off_c, 0, 64, 80
2, 73860, Note_on_c, 0, 64, 95
2, 73980, Note_off_c, 0, 64, 80
2, 73980, Note_on_c, 0, 64, 95
2, 74040, Note_off_c, 0, 64, 80
2, 74040, Note_on_c, 0, 64, 95
2, 74100, Note_off_c, 0, 64, 80
2, 74100, Note_on_c, 0, 64, 95
2, 74220, Note_off_c, 0, 64, 80
2, 74220, Note_on_c, 0, 64, 95
2, 74280, Note_off_c, 0, 64, 80
2, 74280, Note_on_c, 0, 64, 95
2, 74340, Note_off_c, 0, 64, 80
2, 74340, Note_on_c, 0, 64, 95
2, 74460, Note_off_c, 0, 64, 80
2, 74460, Note_on_c, 0, 64, 95
2, 74520, Note_off_c, 0, 64, 80
2, 74520, Note_on_c, 0, 64, 95
2, 74580, Note_off_c, 0, 64, 80
2, 74580, Note_on_c, 0, 64, 95
2, 74700, Note_off_c, 0, 64, 80
2, 74700, Note_on_c, 0, 64, 95
2, 74760, Note_off_c, 0, 64, 80
2, 74760, Note_on_c, 0, 64, 95
2, 74820, Note_off_c, 0, 64, 80
2, 74820, Note_on_c, 0, 64, 95
2, 74940, Note_off_c, 0, 64, 80
2, 74940, Note_on_c, 0, 62, 95
2, 75000, Note_off_c, 0, 62, 80
2, 75000, Note_on_c, 0, 62, 95
2, 75060, Note_off_c, 0, 62, 80
2, 75060, Note_on_c, 0, 62, 95
2, 75180, Note_off_c, 0, 62, 80
2, 75180, Note_on_c, 0, 62, 95
2, 75240, Note_off_c, 0, 62, 80
2, 75240, Note_on_c, 0, 62, 95
2, 75300, Note_off_c, 0, 62, 80
2, 75300, Note_on_c, 0, 62, 95
2, 75420, Note_off_c, 0, 62, 80
2, 75420, Note_on_c, 0, 62, 95
2, 75480, Note_off_c, 0, 62, 80
2, 75480, Note_on_c, 0, 62, 95
2, 75540, Note_off_c, 0, 62, 80
2, 75540, Note_on_c, 0, 62, 95
2, 75660, Note_off_c, 0, 62, 80
2, 75660, Note_on_c, 0, 62, 95
2, 75720, Note_off_c, 0, 62, 80
2, 75720, Note_on_c, 0, 62, 95
2, 75780, Note_off_c, 0, 62, 80
2, 75780, Note_on_c, 0, 62, 95
2, 75900, Note_off_c, 0, 62, 80
2, 75900, Note_on_c, 0, 62, 95
2, 75960, Note_off_c, 0, 62, 80
2, 75960, Note_on_c, 0, 62, 95
2, 76020, Note_off_c, 0, 62, 80
2, 76020, Note_on_c, 0, 62, 95
2, 76140, Note_off_c, 0, 62, 80
2, 76140, Note_on_c, 0, 62, 95
2, 76200, Note_off_c, 0, 62, 80
2, 76200, Note_on_c, 0, 62, 95
2, 76260, Note_off_c, 0, 62, 80
2, 76260, Note_on_c, 0, 62, 95
2, 76380, Note_off_c, 0, 62, 80
2, 76380, Note_on_c, 0, 61, 95
2, 76440, Note_off_c, 0, 61, 80
2, 76440, Note_on_c, 0, 61, 95
2, 76500, Note_off_c, 0, 61, 80
2, 76500, Note_on_c, 0, 61, 95
2, 76620, Note_off_c, 0, 61, 80
2, 76620, Note_on_c, 0, 61, 95
2, 76680, Note_off_c, 0, 61, 80
2, 76680, Note_on_c, 0, 61, 95
2, 76740, Note_off_c, 0, 61, 80
2, 76740, Note_on_c, 0, 61, 95
2, 76860, Note_off_c, 0, 61, 80
2, 76860, Note_on_c, 0, 61, 95
2, 76920, Note_off_c, 0, 61, 80
2, 76920, Note_on_c, 0, 61, 95
2, 76980, Note_off_c, 0, 61, 80
2, 76980, Note_on_c, 0, 61, 95
2, 77100, Note_off_c, 0, 61, 80
2, 77100, Note_on_c, 0, 61, 95
2, 77160, Note_off_c, 0, 61, 80
2, 77160, Note_on_c, 0, 61, 95
2, 77220, Note_off_c, 0, 61, 80
2, 77220, Note_on_c, 0, 61, 95
2, 77340, Note_off_c, 0, 61, 80
2, 77340, Note_on_c, 0, 59, 95
2, 77400, Note_off_c, 0, 59, 80
2, 77400, Note_on_c, 0, 59, 95
2, 77460, Note_off_c, 0, 59, 80
2, 77460, Note_on_c, 0, 59, 95
2, 77580, Note_off_c, 0, 59, 80
2, 77580, Note_on_c, 0, 59, 95
2, 77640, Note_off_c, 0, 59, 80
2, 77640, Note_on_c, 0, 59, 95
2, 77700, Note_off_c, 0, 59, 80
2, 77700, Note_on_c, 0, 59, 95
2, 77820, Note_off_c, 0, 59, 80
2, 77820, Note_on_c, 0, 59, 95
2, 77880, Note_off_c, 0, 59, 80
2, 77880, Note_on_c, 0, 59, 95
2, 77940, Note_off_c, 0, 59, 80
2, 77940, Note_on_c, 0, 59, 95
2, 78060, Note_off_c, 0, 59, 80
2, 78060, Note_on_c, 0, 59, 95
2, 78120, Note_off_c, 0, 59, 80
2, 78120, Note_on_c, 0, 59, 95
2, 78160, Note_off_c, 0, 59, 80
2, 78160, Note_on_c, 0, 61, 76
2, 78200, Note_off_c, 0, 61, 80
2, 78200, Note_on_c, 0, 59, 76
2, 78300, Note_off_c, 0, 59, 80
2, 78300, Note_on_c, 0, 57, 95
2, 78360, Note_off_c, 0, 57, 80
2, 78360, Note_on_c, 0, 57, 95
2, 78420, Note_off_c, 0, 57, 80
2, 78420, Note_on_c, 0, 57, 95
2, 78540, Note_off_c, 0, 57, 80
2, 78540, Note_on_c, 0, 57, 95
2, 78600, Note_off_c, 0, 57, 80
2, 78600, Note_on_c, 0, 57, 95
2, 78660, Note_off_c, 0, 57, 80
2, 78660, Note_on_c, 0, 57, 95
2, 78780, Note_off_c, 0, 57, 80
2, 78780, Note_on_c, 0, 57, 95
2, 78840, Note_off_c, 0, 57, 80
2, 78840, Note_on_c, 0, 57, 95
2, 78900, Note_off_c, 0, 57, 80
2, 78900, Note_on_c, 0, 57, 95
2, 79020, Note_off_c, 0, 57, 80
2, 79020, Note_on_c, 0, 57, 95
2, 79080, Note_off_c, 0, 57, 80
2, 79080, Note_on_c, 0, 57, 95
2, 79140, Note_off_c, 0, 57, 80
2, 79140, Note_on_c, 0, 57, 95
2, 79260, Note_off_c, 0, 57, 80
2, 79260, Note_on_c, 0, 57, 95
2, 79320, Note_off_c, 0, 57, 80
2, 79320, Note_on_c, 0, 57, 95
2, 79380, Note_off_c, 0, 57, 80
2, 79380, Note_on_c, 0, 57, 95
2, 79500, Note_off_c, 0, 57, 80
2, 79500, Note_on_c, 0, 57, 95
2, 79560, Note_off_c, 0, 57, 80
2, 79560, Note_on_c, 0, 57, 95
2, 79620, Note_off_c, 0, 57, 80
2, 79620, Note_on_c, 0, 57, 95
2, 79740, Note_off_c, 0, 57, 80
2, 79740, Note_on_c, 0, 57, 95
2, 79800, Note_off_c, 0, 57, 80
2, 79800, Note_on_c, 0, 57, 95
2, 79860, Note_off_c, 0, 57, 80
2, 79860, Note_on_c, 0, 57, 95
2, 79980, Note_off_c, 0, 57, 80
2, 79980, Note_on_c, 0, 59, 95
2, 80040, Note_off_c, 0, 59, 80
2, 80040, Note_on_c, 0, 59, 95
2, 80100, Note_off_c, 0, 59, 80
2, 80100, Note_on_c, 0, 59, 95
2, 80220, Note_on_c, 0, 61, 95
2, 80280, Note_off_c, 0, 61, 80
2, 80280, Note_on_c, 0, 61, 95
2, 80340, Note_off_c, 0, 61, 80
2, 80340, Note_on_c, 0, 61, 95
2, 80460, Note_off_c, 0, 61, 80
2, 80460, Note_on_c, 0, 62, 95
2, 80520, Note_off_c, 0, 62, 80
2, 80520, Note_on_c, 0, 62, 95
2, 80580, Note_off_c, 0, 62, 80
2, 80580, Note_on_c, 0, 62, 95
2, 80640, Note_off_c, 0, 62, 80
2, 80700, Note_off_c, 0, 59, 80
2, 80700, Note_on_c, 0, 64, 95
2, 80760, Note_off_c, 0, 64, 80
2, 80760, Note_on_c, 0, 64, 95
2, 80820, Note_off_c, 0, 64, 80
2, 80820, Note_on_c, 0, 64, 95
2, 80940, Note_off_c, 0, 64, 80
2, 80940, Note_on_c, 0, 64, 95
2, 81000, Note_off_c, 0, 64, 80
2, 81000, Note_on_c, 0, 64, 95
2, 81060, Note_off_c, 0, 64, 80
2, 81060, Note_on_c, 0, 64, 95
2, 81180, Note_off_c, 0, 64, 80
2, 81180, Note_on_c, 0, 64, 95
2, 81240, Note_off_c, 0, 64, 80
2, 81240, Note_on_c, 0, 64, 95
2, 81300, Note_off_c, 0, 64, 80
2, 81300, Note_on_c, 0, 64, 95
2, 81420, Note_off_c, 0, 64, 80
2, 81420, Note_on_c, 0, 64, 95
2, 81480, Note_off_c, 0, 64, 80
2, 81480, Note_on_c, 0, 64, 95
2, 81540, Note_off_c, 0, 64, 80
2, 81540, Note_on_c, 0, 64, 95
2, 81660, Note_off_c, 0, 64, 80
2, 81660, Note_on_c, 0, 62, 95
2, 81720, Note_off_c, 0, 62, 80
2, 81720, Note_on_c, 0, 62, 95
2, 81780, Note_off_c, 0, 62, 80
2, 81780, Note_on_c, 0, 62, 95
2, 81900, Note_off_c, 0, 62, 80
2, 81900, Note_on_c, 0, 62, 95
2, 81960, Note_off_c, 0, 62, 80
2, 81960, Note_on_c, 0, 62, 95
2, 82020, Note_off_c, 0, 62, 80
2, 82020, Note_on_c, 0, 62, 95
2, 82140, Note_off_c, 0, 62, 80
2, 82140, Note_on_c, 0, 61, 95
2, 82200, Note_off_c, 0, 61, 80
2, 82200, Note_on_c, 0, 61, 95
2, 82260, Note_off_c, 0, 61, 80
2, 82260, Note_on_c, 0, 61, 95
2, 82380, Note_off_c, 0, 61, 80
2, 82380, Note_on_c, 0, 61, 95
2, 82440, Note_off_c, 0, 61, 80
2, 82440, Note_on_c, 0, 61, 95
2, 82500, Note_off_c, 0, 61, 80
2, 82500, Note_on_c, 0, 61, 95
2, 82620, Note_off_c, 0, 61, 80
2, 82620, Note_on_c, 0, 61, 95
2, 82680, Note_off_c, 0, 61, 80
2, 82680, Note_on_c, 0, 61, 95
2, 82740, Note_off_c, 0, 61, 80
2, 82740, Note_on_c, 0, 61, 95
2, 82860, Note_off_c, 0, 61, 80
2, 82860, Note_on_c, 0, 61, 95
2, 82920, Note_off_c, 0, 61, 80
2, 82920, Note_on_c, 0, 61, 95
2, 82980, Note_off_c, 0, 61, 80
2, 82980, Note_on_c, 0, 61, 95
2, 83100, Note_off_c, 0, 61, 80
2, 83100, Note_on_c, 0, 62, 95
2, 83160, Note_off_c, 0, 62, 80
2, 83160, Note_on_c, 0, 62, 95
2, 83220, Note_off_c, 0, 62, 80
2, 83220, Note_on_c, 0, 62, 95
2, 83340, Note_off_c, 0, 62, 80
2, 83340, Note_on_c, 0, 62, 95
2, 83400, Note_off_c, 0, 62, 80
2, 83400, Note_on_c, 0, 62, 95
2, 83460, Note_off_c, 0, 62, 80
2, 83460, Note_on_c, 0, 62, 95
2, 83580, Note_off_c, 0, 62, 80
2, 83580, Note_on_c, 0, 64, 95
2, 83640, Note_off_c, 0, 64, 80
2, 83640, Note_on_c, 0, 64, 95
2, 83700, Note_off_c, 0, 64, 80
2, 83700, Note_on_c, 0, 64, 95
2, 83820, Note_off_c, 0, 64, 80
2, 83820, Note_on_c, 0, 64, 95
2, 83880, Note_off_c, 0, 64, 80
2, 83880, Note_on_c, 0, 64, 95
2, 83940, Note_off_c, 0, 64, 80
2, 83940, Note_on_c, 0, 64, 95
2, 84060, Note_off_c, 0, 64, 80
2, 84060, Note_on_c, 0, 64, 95
2, 84120, Note_off_c, 0, 64, 80
2, 84120, Note_on_c, 0, 64, 95
2, 84180, Note_off_c, 0, 64, 80
2, 84180, Note_on_c, 0, 64, 95
2, 84300, Note_off_c, 0, 64, 80
2, 84300, Note_on_c, 0, 64, 95
2, 84360, Note_off_c, 0, 64, 80
2, 84360, Note_on_c, 0, 64, 95
2, 84420, Note_off_c, 0, 64, 80
2, 84420, Note_on_c, 0, 64, 95
2, 84540, Note_off_c, 0, 64, 80
2, 84540, Note_on_c, 0, 64, 95
2, 84600, Note_off_c, 0, 64, 80
2, 84600, Note_on_c, 0, 64, 95
2, 84660, Note_off_c, 0, 64, 80
2, 84660, Note_on_c, 0, 64, 95
2, 84780, Note_off_c, 0, 64, 80
2, 84780, Note_on_c, 0, 64, 95
2, 84840, Note_off_c, 0, 64, 80
2, 84840, Note_on_c, 0, 64, 95
2, 84900, Note_off_c, 0, 64, 80
2, 84900, Note_on_c, 0, 64, 95
2, 85020, Note_off_c, 0, 64, 80
2, 85020, Note_on_c, 0, 64, 95
2, 85080, Note_off_c, 0, 64, 80
2, 85080, Note_on_c, 0, 64, 95
2, 85140, Note_off_c, 0, 64, 80
2, 85140, Note_on_c, 0, 64, 95
2, 85260, Note_off_c, 0, 64, 80
2, 85260, Note_on_c, 0, 64, 95
2, 85320, Note_off_c, 0, 64, 80
2, 85320, Note_on_c, 0, 64, 95
2, 85380, Note_off_c, 0, 64, 80
2, 85380, Note_on_c, 0, 64, 95
2, 85500, Note_off_c, 0, 64, 80
2, 85500, Note_on_c, 0, 64, 95
2, 85560, Note_off_c, 0, 64, 80
2, 85560, Note_on_c, 0, 64, 95
2, 85620, Note_off_c, 0, 64, 80
2, 85620, Note_on_c, 0, 64, 95
2, 85740, Note_off_c, 0, 64, 80
2, 85740, Note_on_c, 0, 64, 95
2, 85800, Note_off_c, 0, 64, 80
2, 85800, Note_on_c, 0, 64, 95
2, 85860, Note_off_c, 0, 64, 80
2, 85860, Note_on_c, 0, 64, 95
2, 85980, Note_off_c, 0, 64, 80
2, 85980, Note_on_c, 0, 64, 95
2, 86040, Note_off_c, 0, 64, 80
2, 86040, Note_on_c, 0, 64, 95
2, 86100, Note_off_c, 0, 64, 80
2, 86100, Note_on_c, 0, 64, 95
2, 86220, Note_off_c, 0, 64, 80
2, 86220, Note_on_c, 0, 64, 95
2, 86280, Note_off_c, 0, 64, 80
2, 86280, Note_on_c, 0, 64, 95
2, 86340, Note_off_c, 0, 64, 80
2, 86340, Note_on_c, 0, 64, 95
2, 86460, Note_off_c, 0, 64, 80
2, 86460, Note_on_c, 0, 66, 95
2, 86520, Note_off_c, 0, 66, 80
2, 86520, Note_on_c, 0, 66, 95
2, 86580, Note_off_c, 0, 66, 80
2, 86580, Note_on_c, 0, 66, 95
2, 86700, Note_off_c, 0, 66, 80
2, 86700, Note_on_c, 0, 66, 95
2, 86760, Note_off_c, 0, 66, 80
2, 86760, Note_on_c, 0, 66, 95
2, 86820, Note_off_c, 0, 66, 80
2, 86820, Note_on_c, 0, 66, 95
2, 86940, Note_off_c, 0, 66, 80
2, 86940, Note_on_c, 0, 66, 95
2, 87000, Note_off_c, 0, 66, 80
2, 87000, Note_on_c, 0, 66, 95
2, 87060, Note_off_c, 0, 66, 80
2, 87060, Note_on_c, 0, 66, 95
2, 87180, Note_off_c, 0, 66, 80
2, 87180, Note_on_c, 0, 66, 95
2, 87240, Note_off_c, 0, 66, 80
2, 87240, Note_on_c, 0, 66, 95
2, 87300, Note_off_c, 0, 66, 80
2, 87300, Note_on_c, 0, 66, 95
2, 87420, Note_off_c, 0, 66, 80
2, 87420, Note_on_c, 0, 66, 95
2, 87480, Note_off_c, 0, 66, 80
2, 87480, Note_on_c, 0, 66, 95
2, 87540, Note_off_c, 0, 66, 80
2, 87540, Note_on_c, 0, 66, 95
2, 87660, Note_off_c, 0, 66, 80
2, 87660, Note_on_c, 0, 66, 95
2, 87720, Note_off_c, 0, 66, 80
2, 87720, Note_on_c, 0, 66, 95
2, 87780, Note_off_c, 0, 66, 80
2, 87780, Note_on_c, 1, 66, 95
2, 87840, Pitch_bend_c, 1, 9216
2, 87849, Pitch_bend_c, 1, 10240
2, 87857, Pitch_bend_c, 1, 11264
2, 87866, Pitch_bend_c, 1, 12288
2, 87874, Pitch_bend_c, 1, 13312
2, 87883, Pitch_bend_c, 1, 14336
2, 87891, Pitch_bend_c, 1, 15360
2, 87900, Note_off_c, 1, 66, 80
2, 87900, Pitch_bend_c, 1, 16256
2, 87900, Note_on_c, 0, 74, 76
2, 87909, Pitch_bend_c, 1, 8192
2, 87960, Note_off_c, 0, 74, 80
2, 87960, Note_on_c, 0, 74, 95
2, 88020, Note_off_c, 0, 74, 80
2, 88020, Note_on_c, 0, 74, 95
2, 88140, Note_off_c, 0, 74, 80
2, 88140, Note_on_c, 0, 74, 95
2, 88200, Note_off_c, 0, 74, 80
2, 88200, Note_on_c, 0, 74, 95
2, 88260, Note_off_c, 0, 74, 80
2, 88260, Note_on_c, 0, 74, 95
2, 88380, Note_off_c, 0, 74, 80
2, 88380, Note_on_c, 0, 74, 95
2, 88440, Note_off_c, 0, 74, 80
2, 88440, Note_on_c, 0, 74, 95
2, 88500, Note_off_c, 0, 74, 80
2, 88500, Note_on_c, 0, 74, 95
2, 88620, Note_off_c, 0, 74, 80
2, 88620, Note_on_c, 0, 74, 95
2, 88680, Note_off_c, 0, 74, 80
2, 88680, Note_on_c, 0, 74, 95
2, 88740, Note_off_c, 0, 74, 80
2, 88740, Note_on_c, 0, 74, 95
2, 88860, Note_off_c, 0, 74, 80
2, 88860, Note_on_c, 0, 66, 95
2, 88920, Note_off_c, 0, 66, 80
2, 88920, Note_on_c, 0, 66, 95
2, 88980, Note_off_c, 0, 66, 80
2, 88980, Note_on_c, 0, 66, 95
2, 89100, Note_off_c, 0, 66, 80
2, 89100, Note_on_c, 0, 66, 95
2, 89160, Note_off_c, 0, 66, 80
2, 89160, Note_on_c, 0, 66, 95
2, 89220, Note_off_c, 0, 66, 80
2, 89220, Note_on_c, 0, 66, 95
2, 89340, Note_off_c, 0, 66, 80
2, 89340, Note_on_c, 0, 66, 95
2, 89400, Note_off_c, 0, 66, 80
2, 89400, Note_on_c, 0, 66, 95
2, 89460, Note_off_c, 0, 66, 80
2, 89460, Note_on_c, 0, 66, 95
2, 89580, Note_off_c, 0, 66, 80
2, 89580, Note_on_c, 0, 66, 95
2, 89640, Note_off_c, 0, 66, 80
2, 89640, Note_on_c, 0, 66, 95
2, 89680, Note_off_c, 0, 66, 80
2, 89680, Note_on_c, 0, 68, 76
2, 89720, Note_off_c, 0, 68, 80
2, 89720, Note_on_c, 0, 66, 76
2, 89820, Note_off_c, 0, 66, 80
2, 89820, Note_on_c, 0, 64, 95
2, 89880, Note_off_c, 0, 64, 80
2, 89880, Note_on_c, 0, 64, 95
2, 89940, Note_off_c, 0, 64, 80
2, 89940, Note_on_c, 0, 64, 95
2, 90060, Note_off_c, 0, 64, 80
2, 90060, Note_on_c, 0, 64, 95
2, 90120, Note_off_c, 0, 64, 80
2, 90120, Note_on_c, 0, 64, 95
2, 90180, Note_off_c, 0, 64, 80
2, 90180, Note_on_c, 0, 64, 95
2, 90300, Note_off_c, 0, 64, 80
2, 90300, Note_on_c, 0, 64, 95
2, 90360, Note_off_c, 0, 64, 80
2, 90360, Note_on_c, 0, 64, 95
2, 90420, Note_off_c, 0, 64, 80
2, 90420, Note_on_c, 0, 64, 95
2, 90540, Note_off_c, 0, 64, 80
2, 90540, Note_on_c, 0, 64, 95
2, 90600, Note_off_c, 0, 64, 80
2, 90600, Note_on_c, 0, 64, 95
2, 90660, Note_off_c, 0, 64, 80
2, 90660, Note_on_c, 0, 64, 95
2, 90780, Note_off_c, 0, 64, 80
2, 90780, Note_on_c, 0, 64, 95
2, 90840, Note_off_c, 0, 64, 80
2, 90840, Note_on_c, 0, 64, 95
2, 90900, Note_off_c, 0, 64, 80
2, 90900, Note_on_c, 0, 64, 95
2, 91020, Note_off_c, 0, 64, 80
2, 91020, Note_on_c, 0, 64, 95
2, 91080, Note_off_c, 0, 64, 80
2, 91080, Note_on_c, 0, 64, 95
2, 91140, Note_off_c, 0, 64, 80
2, 91140, Note_on_c, 0, 64, 95
2, 91260, Note_off_c, 0, 64, 80
2, 91260, Note_on_c, 0, 64, 95
2, 91320, Note_off_c, 0, 64, 80
2, 91320, Note_on_c, 0, 64, 95
2, 91380, Note_off_c, 0, 64, 80
2, 91380, Note_on_c, 0, 64, 95
2, 91500, Note_off_c, 0, 64, 80
2, 91500, Note_on_c, 0, 64, 95
2, 91560, Note_off_c, 0, 64, 80
2, 91560, Note_on_c, 0, 64, 95
2, 91620, Note_off_c, 0, 64, 80
2, 91620, Note_on_c, 0, 64, 95
2, 91740, Note_off_c, 0, 64, 80
2, 91740, Note_on_c, 0, 64, 95
2, 91800, Note_off_c, 0, 64, 80
2, 91800, Note_on_c, 0, 64, 95
2, 91860, Note_off_c, 0, 64, 80
2, 91860, Note_on_c, 0, 64, 95
2, 91980, Note_off_c, 0, 64, 80
2, 91980, Note_on_c, 0, 64, 95
2, 92040, Note_off_c, 0, 64, 80
2, 92040, Note_on_c, 0, 64, 95
2, 92100, Note_off_c, 0, 64, 80
2, 92100, Note_on_c, 0, 64, 95
2, 92220, Note_off_c, 0, 64, 80
2, 92220, Note_on_c, 0, 69, 95
2, 92280, Note_off_c, 0, 69, 80
2, 92280, Note_on_c, 0, 69, 95
2, 92340, Note_off_c, 0, 69, 80
2, 92340, Note_on_c, 0, 69, 95
2, 92460, Note_off_c, 0, 69, 80
2, 92460, Note_on_c, 0, 69, 95
2, 92520, Note_off_c, 0, 69, 80
2, 92520, Note_on_c, 0, 69, 95
2, 92580, Note_off_c, 0, 69, 80
2, 92580, Note_on_c, 0, 69, 95
2, 92700, Note_off_c, 0, 69, 80
2, 92700, Note_on_c, 0, 69, 95
2, 92760, Note_off_c, 0, 69, 80
2, 92760, Note_on_c, 0, 69, 95
2, 92820, Note_off_c, 0, 69, 80
2, 92820, Note_on_c, 0, 69, 95
2, 92940, Note_off_c, 0, 69, 80
2, 92940, Note_on_c, 0, 69, 95
2, 93000, Note_off_c, 0, 69, 80
2, 93000, Note_on_c, 0, 69, 95
2, 93060, Note_off_c, 0, 69, 80
2, 93060, Note_on_c, 0, 69, 95
2, 93180, Note_off_c, 0, 69, 80
2, 93180, Note_on_c, 0, 69, 95
2, 93240, Note_off_c, 0, 69, 80
2, 93240, Note_on_c, 0, 69, 95
2, 93300, Note_off_c, 0, 69, 80
2, 93300, Note_on_c, 0, 69, 95
2, 93420, Note_off_c, 0, 69, 80
2, 93420, Note_on_c, 0, 69, 95
2, 93480, Note_off_c, 0, 69, 80
2, 93480, Note_on_c, 0, 69, 95
2, 93540, Note_off_c, 0, 69, 80
2, 93540, Note_on_c, 0, 69, 95
2, 93660, Note_off_c, 0, 69, 80
2, 93660, Note_on_c, 0, 68, 95
2, 93720, Note_off_c, 0, 68, 80
2, 93720, Note_on_c, 0, 68, 95
2, 93780, Note_off_c, 0, 68, 80
2, 93780, Note_on_c, 0, 68, 95
2, 93900, Note_off_c, 0, 68, 80
2, 93900, Note_on_c, 0, 68, 95
2, 93960, Note_off_c, 0, 68, 80
2, 93960, Note_on_c, 0, 68, 95
2, 94020, Note_off_c, 0, 68, 80
2, 94020, Note_on_c, 0, 68, 95
2, 94140, Note_off_c, 0, 68, 80
2, 94140, Note_on_c, 0, 68, 95
2, 94200, Note_off_c, 0, 68, 80
2, 94200, Note_on_c, 0, 68, 95
2, 94260, Note_off_c, 0, 68, 80
2, 94260, Note_on_c, 0, 68, 95
2, 94380, Note_off_c, 0, 68, 80
2, 94380, Note_on_c, 0, 68, 95
2, 94440, Note_off_c, 0, 68, 80
2, 94440, Note_on_c, 0, 68, 95
2, 94500, Note_off_c, 0, 68, 80
2, 94500, Note_on_c, 0, 68, 95
2, 94620, Note_off_c, 0, 68, 80
2, 94620, Note_on_c, 0, 63, 95
2, 94680, Note_off_c, 0, 63, 80
2, 94680, Note_on_c, 0, 63, 95
2, 94740, Note_off_c, 0, 63, 80
2, 94740, Note_on_c, 0, 63, 95
2, 94860, Note_off_c, 0, 63, 80
2, 94860, Note_on_c, 0, 63, 95
2, 94920, Note_off_c, 0, 63, 80
2, 94920, Note_on_c, 0, 63, 95
2, 94980, Note_off_c, 0, 63, 80
2, 94980, Note_on_c, 0, 63, 95
2, 95100, Note_off_c, 0, 63, 80
2, 95100, Note_on_c, 0, 66, 95
2, 95160, Note_off_c, 0, 66, 80
2, 95160, Note_on_c, 0, 66, 95
2, 95220, Note_off_c, 0, 66, 80
2, 95220, Note_on_c, 0, 66, 95
2, 95340, Note_off_c, 0, 66, 80
2, 95340, Note_on_c, 0, 66, 95
2, 95400, Note_off_c, 0, 66, 80
2, 95400, Note_on_c, 0, 66, 95
2, 95460, Note_off_c, 0, 66, 80
2, 95460, Note_on_c, 0, 66, 95
2, 95580, Note_off_c, 0, 66, 80
2, 95580, Note_on_c, 0, 64, 95
2, 95640, Note_off_c, 0, 64, 80
2, 95640, Note_on_c, 0, 64, 95
2, 95700, Note_off_c, 0, 64, 80
2, 95700, Note_on_c, 0, 64, 95
2, 95820, Note_off_c, 0, 64, 80
2, 95820, Note_on_c, 0, 64, 95
2, 95880, Note_off_c, 0, 64, 80
2, 95880, Note_on_c, 0, 64, 95
2, 95940, Note_off_c, 0, 64, 80
2, 95940, Note_on_c, 0, 64, 95
2, 96060, Note_off_c, 0, 64, 80
2, 96060, Note_on_c, 0, 64, 95
2, 96120, Note_off_c, 0, 64, 80
2, 96120, Note_on_c, 0, 64, 95
2, 96180, Note_off_c, 0, 64, 80
2, 96180, Note_on_c, 0, 64, 95
2, 96300, Note_off_c, 0, 64, 80
2, 96300, Note_on_c, 0, 64, 95
2, 96360, Note_off_c, 0, 64, 80
2, 96360, Note_on_c, 0, 64, 95
2, 96420, Note_off_c, 0, 64, 80
2, 96420, Note_on_c, 0, 64, 95
2, 96540, Note_off_c, 0, 64, 80
2, 96540, Note_on_c, 0, 64, 95
2, 96600, Note_off_c, 0, 64, 80
2, 96600, Note_on_c, 0, 64, 95
2, 96660, Note_off_c, 0, 64, 80
2, 96660, Note_on_c, 0, 64, 95
2, 96780, Note_off_c, 0, 64, 80
2, 96780, Note_on_c, 0, 64, 95
2, 96840, Note_off_c, 0, 64, 80
2, 96840, Note_on_c, 0, 64, 95
2, 96900, Note_off_c, 0, 64, 80
2, 96900, Note_on_c, 0, 64, 95
2, 97020, Note_off_c, 0, 64, 80
2, 97020, Note_on_c, 0, 64, 95
2, 97080, Note_off_c, 0, 64, 80
2, 97080, Note_on_c, 0, 64, 95
2, 97140, Note_off_c, 0, 64, 80
2, 97140, Note_on_c, 0, 64, 95
2, 97260, Note_off_c, 0, 64, 80
2, 97260, Note_on_c, 0, 64, 95
2, 97320, Note_off_c, 0, 64, 80
2, 97320, Note_on_c, 0, 64, 95
2, 97380, Note_off_c, 0, 64, 80
2, 97380, Note_on_c, 0, 64, 95
2, 97500, Note_off_c, 0, 64, 80
2, 97500, Note_on_c, 0, 64, 95
2, 97560, Note_off_c, 0, 64, 80
2, 97560, Note_on_c, 0, 64, 95
2, 97620, Note_off_c, 0, 64, 80
2, 97620, Note_on_c, 0, 64, 95
2, 97740, Note_off_c, 0, 64, 80
2, 97740, Note_on_c, 0, 64, 95
2, 97800, Note_off_c, 0, 64, 80
2, 97800, Note_on_c, 0, 64, 95
2, 97860, Note_off_c, 0, 64, 80
2, 97860, Note_on_c, 0, 64, 95
2, 97980, Note_off_c, 0, 64, 80
2, 97980, Note_on_c, 0, 62, 95
2, 98040, Note_off_c, 0, 62, 80
2, 98040, Note_on_c, 0, 62, 95
2, 98100, Note_off_c, 0, 62, 80
2, 98100, Note_on_c, 0, 62, 95
2, 98220, Note_off_c, 0, 62, 80
2, 98220, Note_on_c, 0, 62, 95
2, 98280, Note_off_c, 0, 62, 80
2, 98280, Note_on_c, 0, 62, 95
2, 98340, Note_off_c, 0, 62, 80
2, 98340, Note_on_c, 0, 62, 95
2, 98460, Note_off_c, 0, 62, 80
2, 98460, Note_on_c, 0, 62, 95
2, 98520, Note_off_c, 0, 62, 80
2, 98520, Note_on_c, 0, 62, 95
2, 98580, Note_off_c, 0, 62, 80
2, 98580, Note_on_c, 0, 62, 95
2, 98700, Note_off_c, 0, 62, 80
2, 98700, Note_on_c, 0, 62, 95
2, 98760, Note_off_c, 0, 62, 80
2, 98760, Note_on_c, 0, 62, 95
2, 98820, Note_off_c, 0, 62, 80
2, 98820, Note_on_c, 0, 62, 95
2, 98940, Note_off_c, 0, 62, 80
2, 98940, Note_on_c, 0, 62, 95
2, 99000, Note_off_c, 0, 62, 80
2, 99000, Note_on_c, 0, 62, 95
2, 99060, Note_off_c, 0, 62, 80
2, 99060, Note_on_c, 0, 62, 95
2, 99180, Note_off_c, 0, 62, 80
2, 99180, Note_on_c, 0, 62, 95
2, 99240, Note_off_c, 0, 62, 80
2, 99240, Note_on_c, 0, 62, 95
2, 99300, Note_off_c, 0, 62, 80
2, 99300, Note_on_c, 0, 62, 95
2, 99420, Note_off_c, 0, 62, 80
2, 99420, Note_on_c, 0, 61, 95
2, 99480, Note_off_c, 0, 61, 80
2, 99480, Note_on_c, 0, 61, 95
2, 99540, Note_off_c, 0, 61, 80
2, 99540, Note_on_c, 0, 61, 95
2, 99660, Note_off_c, 0, 61, 80
2, 99660, Note_on_c, 0, 61, 95
2, 99720, Note_off_c, 0, 61, 80
2, 99720, Note_on_c, 0, 61, 95
2, 99780, Note_off_c, 0, 61, 80
2, 99780, Note_on_c, 0, 61, 95
2, 99900, Note_off_c, 0, 61, 80
2, 99900, Note_on_c, 0, 61, 95
2, 99960, Note_off_c, 0, 61, 80
2, 99960, Note_on_c, 0, 61, 95
2, 100020, Note_off_c, 0, 61, 80
2, 100020, Note_on_c, 0, 61, 95
2, 100140, Note_off_c, 0, 61, 80
2, 100140, Note_on_c, 0, 61, 95
2, 100200, Note_off_c, 0, 61, 80
2, 100200, Note_on_c, 0, 61, 95
2, 100260, Note_off_c, 0, 61, 80
2, 100260, Note_on_c, 0, 61, 95
2, 100380, Note_off_c, 0, 61, 80
2, 100380, Note_on_c, 0, 59, 95
2, 100440, Note_off_c, 0, 59, 80
2, 100440, Note_on_c, 0, 59, 95
2, 100500, Note_off_c, 0, 59, 80
2, 100500, Note_on_c, 0, 59, 95
2, 100620, Note_off_c, 0, 59, 80
2, 100620, Note_on_c, 0, 59, 95
2, 100680, Note_off_c, 0, 59, 80
2, 100680, Note_on_c, 0, 59, 95
2, 100740, Note_off_c, 0, 59, 80
2, 100740, Note_on_c, 0, 59, 95
2, 100860, Note_off_c, 0, 59, 80
2, 100860, Note_on_c, 0, 59, 95
2, 100920, Note_off_c, 0, 59, 80
2, 100920, Note_on_c, 0, 59, 95
2, 100980, Note_off_c, 0, 59, 80
2, 100980, Note_on_c, 0, 59, 95
2, 101100, Note_off_c, 0, 59, 80
2, 101100, Note_on_c, 0, 59, 95
2, 101160, Note_off_c, 0, 59, 80
2, 101160, Note_on_c, 0, 59, 95
2, 101200, Note_off_c, 0, 59, 80
2, 101200, Note_on_c, 0, 61, 76
2, 101240, Note_off_c, 0, 61, 80
2, 101240, Note_on_c, 0, 59, 76
2, 101340, Note_off_c, 0, 59, 80
2, 101340, Note_on_c, 0, 57, 95
2, 101400, Note_off_c, 0, 57, 80
2, 101400, Note_on_c, 0, 57, 95
2, 101460, Note_off_c, 0, 57, 80
2, 101460, Note_on_c, 0, 57, 95
2, 101580, Note_off_c, 0, 57, 80
2, 101580, Note_on_c, 0, 57, 95
2, 101640, Note_off_c, 0, 57, 80
2, 101640, Note_on_c, 0, 57, 95
2, 101700, Note_off_c, 0, 57, 80
2, 101700, Note_on_c, 0, 57, 95
2, 101820, Note_off_c, 0, 57, 80
2, 101820, Note_on_c, 0, 57, 95
2, 101880, Note_off_c, 0, 57, 80
2, 101880, Note_on_c, 0, 57, 95
2, 101940, Note_off_c, 0, 57, 80
2, 101940, Note_on_c, 0, 57, 95
2, 102060, Note_off_c, 0, 57, 80
2, 102060, Note_on_c, 0, 57, 95
2, 102120, Note_off_c, 0, 57, 80
2, 102120, Note_on_c, 0, 57, 95
2, 102180, Note_off_c, 0, 57, 80
2, 102180, Note_on_c, 0, 57, 95
2, 102300, Note_off_c, 0, 57, 80
2, 102300, Note_on_c, 0, 57, 95
2, 102360, Note_off_c, 0, 57, 80
2, 102360, Note_on_c, 0, 57, 95
2, 102420, Note_off_c, 0, 57, 80
2, 102420, Note_on_c, 0, 57, 95
2, 102540, Note_off_c, 0, 57, 80
2, 102540, Note_on_c, 0, 57, 95
2, 102600, Note_off_c, 0, 57, 80
2, 102600, Note_on_c, 0, 57, 95
2, 102660, Note_off_c, 0, 57, 80
2, 102660, Note_on_c, 0, 57, 95
2, 102780, Note_off_c, 0, 57, 80
2, 102780, Note_on_c, 0, 57, 95
2, 102840, Note_off_c, 0, 57, 80
2, 102840, Note_on_c, 0, 57, 95
2, 102900, Note_off_c, 0, 57, 80
2, 102900, Note_on_c, 0, 57, 95
2, 103020, Note_off_c, 0, 57, 80
2, 103020, Note_on_c, 0, 59, 95
2, 103080, Note_off_c, 0, 59, 80
2, 103080, Note_on_c, 0, 59, 95
2, 103140, Note_off_c, 0, 59, 80
2, 103140, Note_on_c, 0, 59, 95
2, 103260, Note_off_c, 0, 59, 80
2, 103260, Note_on_c, 0, 60, 95
2, 103320, Note_off_c, 0, 60, 80
2, 103320, Note_on_c, 0, 60, 95
2, 103380, Note_off_c, 0, 60, 80
2, 103380, Note_on_c, 0, 60, 95
2, 103500, Note_off_c, 0, 60, 80
2, 103500, Note_on_c, 0, 62, 95
2, 103560, Note_off_c, 0, 62, 80
2, 103560, Note_on_c, 0, 62, 95
2, 103620, Note_off_c, 0, 62, 80
2, 103620, Note_on_c, 0, 62, 95
2, 103740, Note_off_c, 0, 62, 80
2, 103740, Note_on_c, 0, 57, 95
2, 103800, Note_off_c, 0, 57, 80
2, 103800, Note_on_c, 0, 57, 95
2, 103860, Note_off_c, 0, 57, 80
2, 103860, Note_on_c, 0, 57, 95
2, 103980, Note_off_c, 0, 57, 80
2, 103980, Note_on_c, 0, 57, 95
2, 104040, Note_off_c, 0, 57, 80
2, 104040, Note_on_c, 0, 57, 95
2, 104100, Note_off_c, 0, 57, 80
2, 104100, Note_on_c, 0, 57, 95
2, 104220, Note_off_c, 0, 57, 80
2, 104220, Note_on_c, 0, 57, 95
2, 104280, Note_off_c, 0, 57, 80
2, 104280, Note_on_c, 0, 57, 95
2, 104340, Note_off_c, 0, 57, 80
2, 104340, Note_on_c, 0, 57, 95
2, 104460, Note_off_c, 0, 57, 80
2, 104460, Note_on_c, 0, 57, 95
2, 104520, Note_off_c, 0, 57, 80
2, 104520, Note_on_c, 0, 57, 95
2, 104580, Note_off_c, 0, 57, 80
2, 104580, Note_on_c, 0, 57, 95
2, 104700, Note_off_c, 0, 57, 80
2, 104700, Note_on_c, 0, 57, 95
2, 104760, Note_off_c, 0, 57, 80
2, 104760, Note_on_c, 0, 57, 95
2, 104820, Note_off_c, 0, 57, 80
2, 104820, Note_on_c, 0, 57, 95
2, 104940, Note_off_c, 0, 57, 80
2, 104940, Note_on_c, 0, 57, 95
2, 105000, Note_off_c, 0, 57, 80
2, 105000, Note_on_c, 0, 57, 95
2, 105060, Note_off_c, 0, 57, 80
2, 105060, Note_on_c, 0, 57, 95
2, 105180, Note_off_c, 0, 57, 80
2, 105180, Note_on_c, 0, 57, 95
2, 105240, Note_off_c, 0, 57, 80
2, 105240, Note_on_c, 0, 57, 95
2, 105300, Note_off_c, 0, 57, 80
2, 105300, Note_on_c, 0, 57, 95
2, 105420, Note_off_c, 0, 57, 80
2, 105420, Note_on_c, 0, 57, 95
2, 105480, Note_off_c, 0, 57, 80
2, 105480, Note_on_c, 0, 57, 95
2, 105540, Note_off_c, 0, 57, 80
2, 105540, Note_on_c, 0, 57, 95
2, 105660, Note_off_c, 0, 57, 80
2, 105660, Note_on_c, 0, 57, 95
2, 105720, Note_off_c, 0, 57, 80
2, 105720, Note_on_c, 0, 57, 95
2, 105780, Note_off_c, 0, 57, 80
2, 105780, Note_on_c, 0, 57, 95
2, 105900, Note_off_c, 0, 57, 80
2, 105900, Note_on_c, 0, 57, 95
2, 105960, Note_off_c, 0, 57, 80
2, 105960, Note_on_c, 0, 57, 95
2, 106020, Note_off_c, 0, 57, 80
2, 106020, Note_on_c, 0, 57, 95
2, 106140, Note_off_c, 0, 57, 80
2, 106140, Note_on_c, 0, 57, 95
2, 106200, Note_off_c, 0, 57, 80
2, 106200, Note_on_c, 0, 57, 95
2, 106260, Note_off_c, 0, 57, 80
2, 106260, Note_on_c, 0, 57, 95
2, 106380, Note_off_c, 0, 57, 80
2, 106380, Note_on_c, 0, 57, 95
2, 106440, Note_off_c, 0, 57, 80
2, 106440, Note_on_c, 0, 57, 95
2, 106500, Note_off_c, 0, 57, 80
2, 106500, Note_on_c, 0, 57, 95
2, 106620, Note_off_c, 0, 57, 80
2, 106620, Note_on_c, 0, 59, 95
2, 106680, Note_off_c, 0, 59, 80
2, 106680, Note_on_c, 0, 59, 95
2, 106740, Note_off_c, 0, 59, 80
2, 106740, Note_on_c, 0, 59, 95
2, 106860, Note_off_c, 0, 59, 80
2, 106860, Note_on_c, 0, 59, 95
2, 106920, Note_off_c, 0, 59, 80
2, 106920, Note_on_c, 0, 59, 95
2, 106980, Note_off_c, 0, 59, 80
2, 106980, Note_on_c, 0, 59, 95
2, 107100, Note_off_c, 0, 59, 80
2, 107100, Note_on_c, 0, 60, 95
2, 107160, Note_off_c, 0, 60, 80
2, 107160, Note_on_c, 0, 60, 95
2, 107220, Note_off_c, 0, 60, 80
2, 107220, Note_on_c, 0, 60, 95
2, 107340, Note_off_c, 0, 60, 80
2, 107340, Note_on_c, 0, 60, 95
2, 107400, Note_off_c, 0, 60, 80
2, 107400, Note_on_c, 0, 60, 95
2, 107460, Note_off_c, 0, 60, 80
2, 107460, Note_on_c, 0, 60, 95
2, 107580, Note_off_c, 0, 60, 80
2, 107580, Note_on_c, 0, 62, 95
2, 107640, Note_off_c, 0, 62, 80
2, 107640, Note_on_c, 0, 62, 95
2, 107700, Note_off_c, 0, 62, 80
2, 107700, Note_on_c, 0, 62, 95
2, 107820, Note_off_c, 0, 62, 80
2, 107820, Note_on_c, 0, 62, 95
2, 107880, Note_off_c, 0, 62, 80
2, 107880, Note_on_c, 0, 62, 95
2, 107940, Note_off_c, 0, 62, 80
2, 107940, Note_on_c, 0, 62, 95
2, 108060, Note_off_c, 0, 62, 80
2, 108060, Note_on_c, 0, 64, 95
2, 108120, Note_off_c, 0, 64, 80
2, 108120, Note_on_c, 0, 64, 95
2, 108180, Note_off_c, 0, 64, 80
2, 108180, Note_on_c, 0, 64, 95
2, 108300, Note_off_c, 0, 64, 80
2, 108300, Note_on_c, 0, 64, 95
2, 108360, Note_off_c, 0, 64, 80
2, 108360, Note_on_c, 0, 64, 95
2, 108420, Note_off_c, 0, 64, 80
2, 108420, Note_on_c, 0, 64, 95
2, 108540, Note_off_c, 0, 64, 80
2, 108540, Note_on_c, 0, 64, 95
2, 108600, Note_off_c, 0, 64, 80
2, 108600, Note_on_c, 0, 64, 95
2, 108660, Note_off_c, 0, 64, 80
2, 108660, Note_on_c, 0, 64, 95
2, 108780, Note_off_c, 0, 64, 80
2, 108780, Note_on_c, 0, 64, 95
2, 108840, Note_off_c, 0, 64, 80
2, 108840, Note_on_c, 0, 64, 95
2, 108900, Note_off_c, 0, 64, 80
2, 108900, Note_on_c, 0, 64, 95
2, 109020, Note_off_c, 0, 64, 80
2, 109020, Note_on_c, 0, 64, 95
2, 109080, Note_off_c, 0, 64, 80
2, 109080, Note_on_c, 0, 64, 95
2, 109140, Note_off_c, 0, 64, 80
2, 109140, Note_on_c, 0, 64, 95
2, 109260, Note_off_c, 0, 64, 80
2, 109260, Note_on_c, 0, 64, 95
2, 109320, Note_off_c, 0, 64, 80
2, 109320, Note_on_c, 0, 64, 95
2, 109380, Note_off_c, 0, 64, 80
2, 109380, Note_on_c, 0, 64, 95
2, 109500, Note_off_c, 0, 64, 80
2, 109500, Note_on_c, 0, 64, 95
2, 109560, Note_off_c, 0, 64, 80
2, 109560, Note_on_c, 0, 64, 95
2, 109620, Note_off_c, 0, 64, 80
2, 109620, Note_on_c, 0, 64, 95
2, 109740, Note_off_c, 0, 64, 80
2, 109740, Note_on_c, 0, 64, 95
2, 109800, Note_off_c, 0, 64, 80
2, 109800, Note_on_c, 0, 64, 95
2, 109860, Note_off_c, 0, 64, 80
2, 109860, Note_on_c, 0, 64, 95
2, 109980, Note_off_c, 0, 64, 80
2, 109980, Note_on_c, 0, 64, 95
2, 110040, Note_off_c, 0, 64, 80
2, 110040, Note_on_c, 0, 64, 95
2, 110100, Note_off_c, 0, 64, 80
2, 110100, Note_on_c, 0, 64, 95
2, 110220, Note_off_c, 0, 64, 80
2, 110220, Note_on_c, 0, 64, 95
2, 110280, Note_off_c, 0, 64, 80
2, 110280, Note_on_c, 0, 64, 95
2, 110340, Note_off_c, 0, 64, 80
2, 110340, Note_on_c, 0, 64, 95
2, 110460, Note_off_c, 0, 64, 80
2, 110460, Note_on_c, 0, 64, 95
2, 110520, Note_off_c, 0, 64, 80
2, 110520, Note_on_c, 0, 64, 95
2, 110580, Note_off_c, 0, 64, 80
2, 110580, Note_on_c, 0, 64, 95
2, 110700, Note_off_c, 0, 64, 80
2, 110700, Note_on_c, 0, 64, 95
2, 110760, Note_off_c, 0, 64, 80
2, 110760, Note_on_c, 0, 64, 95
2, 110820, Note_off_c, 0, 64, 80
2, 110820, Note_on_c, 0, 64, 95
2, 110940, Note_off_c, 0, 64, 80
2, 110940, Note_on_c, 0, 64, 95
2, 111000, Note_off_c, 0, 64, 80
2, 111000, Note_on_c, 0, 64, 95
2, 111060, Note_off_c, 0, 64, 80
2, 111060, Note_on_c, 0, 64, 95
2, 111180, Note_off_c, 0, 64, 80
2, 111180, Note_on_c, 0, 64, 95
2, 111240, Note_off_c, 0, 64, 80
2, 111240, Note_on_c, 0, 64, 95
2, 111300, Note_off_c, 0, 64, 80
2, 111300, Note_on_c, 0, 64, 95
2, 111420, Note_off_c, 0, 64, 80
2, 111420, Note_on_c, 0, 64, 95
2, 111480, Note_off_c, 0, 64, 80
2, 111480, Note_on_c, 0, 64, 95
2, 111540, Note_off_c, 0, 64, 80
2, 111540, Note_on_c, 0, 64, 95
2, 111660, Note_off_c, 0, 64, 80
2, 111660, Note_on_c, 0, 64, 95
2, 111720, Note_off_c, 0, 64, 80
2, 111720, Note_on_c, 0, 64, 95
2, 111780, Note_off_c, 0, 64, 80
2, 111780, Note_on_c, 0, 64, 95
2, 111900, Note_off_c, 0, 64, 80
2, 111900, Note_on_c, 0, 64, 95
2, 111960, Note_off_c, 0, 64, 80
2, 111960, Note_on_c, 0, 64, 95
2, 112020, Note_off_c, 0, 64, 80
2, 112020, Note_on_c, 0, 64, 95
2, 112140, Note_off_c, 0, 64, 80
2, 112140, Note_on_c, 0, 64, 95
2, 112200, Note_off_c, 0, 64, 80
2, 112200, Note_on_c, 0, 64, 95
2, 112260, Note_off_c, 0, 64, 80
2, 112260, Note_on_c, 0, 64, 95
2, 112380, Note_off_c, 0, 64, 80
2, 112380, Note_on_c, 0, 62, 95
2, 112440, Note_off_c, 0, 62, 80
2, 112440, Note_on_c, 0, 62, 95
2, 112500, Note_off_c, 0, 62, 80
2, 112500, Note_on_c, 0, 62, 95
2, 112620, Note_off_c, 0, 62, 80
2, 112620, Note_on_c, 0, 62, 95
2, 112680, Note_off_c, 0, 62, 80
2, 112680, Note_on_c, 0, 62, 95
2, 112740, Note_off_c, 0, 62, 80
2, 112740, Note_on_c, 0, 62, 95
2, 112860, Note_off_c, 0, 62, 80
2, 112860, Note_on_c, 0, 61, 95
2, 112920, Note_off_c, 0, 61, 80
2, 112920, Note_on_c, 0, 61, 95
2, 112980, Note_off_c, 0, 61, 80
2, 112980, Note_on_c, 0, 61, 95
2, 113100, Note_off_c, 0, 61, 80
2, 113100, Note_on_c, 0, 61, 95
2, 113160, Note_off_c, 0, 61, 80
2, 113160, Note_on_c, 0, 61, 95
2, 113220, Note_off_c, 0, 61, 80
2, 113220, Note_on_c, 0, 61, 95
2, 113340, Note_off_c, 0, 61, 80
2, 113340, Note_on_c, 0, 59, 95
2, 113400, Note_off_c, 0, 59, 80
2, 113400, Note_on_c, 0, 59, 95
2, 113460, Note_off_c, 0, 59, 80
2, 113460, Note_on_c, 0, 59, 95
2, 113580, Note_off_c, 0, 59, 80
2, 113580, Note_on_c, 0, 59, 95
2, 113640, Note_off_c, 0, 59, 80
2, 113640, Note_on_c, 0, 59, 95
2, 113700, Note_off_c, 0, 59, 80
2, 113700, Note_on_c, 0, 59, 95
2, 113820, Note_off_c, 0, 59, 80
2, 113820, Note_on_c, 0, 57, 95
2, 113880, Note_off_c, 0, 57, 80
2, 113880, Note_on_c, 0, 57, 95
2, 113940, Note_off_c, 0, 57, 80
2, 113940, Note_on_c, 0, 57, 95
2, 114060, Note_off_c, 0, 57, 80
2, 114060, Note_on_c, 0, 57, 95
2, 114120, Note_off_c, 0, 57, 80
2, 114120, Note_on_c, 0, 57, 95
2, 114180, Note_off_c, 0, 57, 80
2, 114180, Note_on_c, 0, 57, 95
2, 114300, Note_off_c, 0, 57, 80
2, 114300, Note_on_c, 0, 57, 95
2, 114360, Note_off_c, 0, 57, 80
2, 114360, Note_on_c, 0, 57, 95
2, 114420, Note_off_c, 0, 57, 80
2, 114420, Note_on_c, 0, 57, 95
2, 114540, Note_off_c, 0, 57, 80
2, 114540, Note_on_c, 0, 57, 95
2, 114600, Note_off_c, 0, 57, 80
2, 114600, Note_on_c, 0, 57, 95
2, 114660, Note_off_c, 0, 57, 80
2, 114660, Note_on_c, 0, 57, 95
2, 114780, Note_off_c, 0, 57, 80
2, 114780, Note_on_c, 0, 57, 95
2, 114840, Note_off_c, 0, 57, 80
2, 114840, Note_on_c, 0, 57, 95
2, 114900, Note_off_c, 0, 57, 80
2, 114900, Note_on_c, 0, 57, 95
2, 115020, Note_off_c, 0, 57, 80
2, 115020, Note_on_c, 0, 57, 95
2, 115080, Note_off_c, 0, 57, 80
2, 115080, Note_on_c, 0, 57, 95
2, 115140, Note_off_c, 0, 57, 80
2, 115140, Note_on_c, 0, 57, 95
2, 115260, Note_off_c, 0, 57, 80
2, 115260, Note_on_c, 0, 57, 95
2, 115320, Note_off_c, 0, 57, 80
2, 115320, Note_on_c, 0, 57, 95
2, 115380, Note_off_c, 0, 57, 80
2, 115380, Note_on_c, 0, 57, 95
2, 115500, Note_off_c, 0, 57, 80
2, 115500, Note_on_c, 0, 57, 95
2, 115560, Note_off_c, 0, 57, 80
2, 115560, Note_on_c, 0, 57, 95
2, 115620, Note_off_c, 0, 57, 80
2, 115620, Note_on_c, 0, 57, 95
2, 115740, Note_off_c, 0, 57, 80
2, 115740, Note_on_c, 0, 57, 95
2, 115800, Note_off_c, 0, 57, 80
2, 115800, Note_on_c, 0, 57, 95
2, 115860, Note_off_c, 0, 57, 80
2, 115860, Note_on_c, 0, 57, 95
2, 115980, Note_off_c, 0, 57, 80
2, 115980, Note_on_c, 0, 57, 95
2, 116040, Note_off_c, 0, 57, 80
2, 116040, Note_on_c, 0, 57, 95
2, 116100, Note_off_c, 0, 57, 80
2, 116100, Note_on_c, 0, 57, 95
2, 116220, Note_off_c, 0, 57, 80
2, 116220, Note_on_c, 0, 57, 95
2, 116280, Note_off_c, 0, 57, 80
2, 116280, Note_on_c, 0, 57, 95
2, 116340, Note_off_c, 0, 57, 80
2, 116340, Note_on_c, 0, 57, 95
2, 116460, Note_off_c, 0, 57, 80
2, 116460, Note_on_c, 0, 57, 95
2, 116520, Note_off_c, 0, 57, 80
2, 116520, Note_on_c, 0, 57, 95
2, 116580, Note_off_c, 0, 57, 80
2, 116580, Note_on_c, 0, 57, 95
2, 116700, Note_off_c, 0, 57, 80
2, 116700, Note_on_c, 0, 57, 95
2, 116760, Note_off_c, 0, 57, 80
2, 116760, Note_on_c, 0, 57, 95
2, 116820, Note_off_c, 0, 57, 80
2, 116820, Note_on_c, 0, 57, 95
2, 116940, Note_off_c, 0, 57, 80
2, 116940, Note_on_c, 0, 57, 95
2, 117000, Note_off_c, 0, 57, 80
2, 117000, Note_on_c, 0, 57, 95
2, 117060, Note_off_c, 0, 57, 80
2, 117060, Note_on_c, 0, 57, 95
2, 117180, Note_off_c, 0, 57, 80
2, 117180, Note_on_c, 0, 57, 95
2, 117240, Note_off_c, 0, 57, 80
2, 117240, Note_on_c, 0, 57, 95
2, 117300, Note_off_c, 0, 57, 80
2, 117300, Note_on_c, 0, 57, 95
2, 117420, Note_off_c, 0, 57, 80
2, 117420, Note_on_c, 0, 57, 95
2, 117480, Note_off_c, 0, 57, 80
2, 117480, Note_on_c, 0, 57, 95
2, 117540, Note_off_c, 0, 57, 80
2, 117540, Note_on_c, 0, 57, 95
2, 117660, Note_off_c, 0, 57, 80
2, 117660, Note_on_c, 0, 57, 95
2, 117720, Note_off_c, 0, 57, 80
2, 117720, Note_on_c, 0, 57, 95
2, 117780, Note_off_c, 0, 57, 80
2, 117780, Note_on_c, 0, 57, 95
2, 117900, Note_off_c, 0, 57, 80
2, 117900, Note_on_c, 0, 57, 95
2, 117960, Note_off_c, 0, 57, 80
2, 117960, Note_on_c, 0, 57, 95
2, 118020, Note_off_c, 0, 57, 80
2, 118020, Note_on_c, 0, 57, 95
2, 118140, Note_off_c, 0, 57, 80
2, 118140, Note_on_c, 0, 59, 95
2, 118200, Note_off_c, 0, 59, 80
2, 118200, Note_on_c, 0, 59, 95
2, 118260, Note_off_c, 0, 59, 80
2, 118260, Note_on_c, 0, 59, 95
2, 118380, Note_off_c, 0, 59, 80
2, 118380, Note_on_c, 0, 59, 95
2, 118440, Note_off_c, 0, 59, 80
2, 118440, Note_on_c, 0, 59, 95
2, 118500, Note_off_c, 0, 59, 80
2, 118500, Note_on_c, 0, 59, 95
2, 118620, Note_off_c, 0, 59, 80
2, 118620, Note_on_c, 0, 60, 95
2, 118680, Note_off_c, 0, 60, 80
2, 118680, Note_on_c, 0, 60, 95
2, 118740, Note_off_c, 0, 60, 80
2, 118740, Note_on_c, 0, 60, 95
2, 118860, Note_off_c, 0, 60, 80
2, 118860, Note_on_c, 0, 60, 95
2, 118920, Note_off_c, 0, 60, 80
2, 118920, Note_on_c, 0, 60, 95
2, 118980, Note_off_c, 0, 60, 80
2, 118980, Note_on_c, 0, 60, 95
2, 119100, Note_off_c, 0, 60, 80
2, 119100, Note_on_c, 0, 62, 95
2, 119160, Note_off_c, 0, 62, 80
2, 119160, Note_on_c, 0, 62, 95
2, 119220, Note_off_c, 0, 62, 80
2, 119220, Note_on_c, 0, 62, 95
2, 119340, Note_off_c, 0, 62, 80
2, 119340, Note_on_c, 0, 62, 95
2, 119400, Note_off_c, 0, 62, 80
2, 119400, Note_on_c, 0, 62, 95
2, 119460, Note_off_c, 0, 62, 80
2, 119460, Note_on_c, 0, 62, 95
2, 119580, Note_off_c, 0, 62, 80
2, 119580, Note_on_c, 0, 64, 95
2, 119640, Note_off_c, 0, 64, 80
2, 119640, Note_on_c, 0, 64, 95
2, 119700, Note_off_c, 0, 64, 80
2, 119700, Note_on_c, 0, 64, 95
2, 119820, Note_off_c, 0, 64, 80
2, 119820, Note_on_c, 0, 64, 95
2, 119880, Note_off_c, 0, 64, 80
2, 119880, Note_on_c, 0, 64, 95
2, 119940, Note_off_c, 0, 64, 80
2, 119940, Note_on_c, 0, 64, 95
2, 120060, Note_off_c, 0, 64, 80
2, 120060, Note_on_c, 0, 64, 95
2, 120120, Note_off_c, 0, 64, 80
2, 120120, Note_on_c, 0, 64, 95
2, 120180, Note_off_c, 0, 64, 80
2, 120180, Note_on_c, 0, 64, 95
2, 120300, Note_off_c, 0, 64, 80
2, 120300, Note_on_c, 0, 64, 95
2, 120360, Note_off_c, 0, 64, 80
2, 120360, Note_on_c, 0, 64, 95
2, 120420, Note_off_c, 0, 64, 80
2, 120420, Note_on_c, 0, 64, 95
2, 120540, Note_off_c, 0, 64, 80
2, 120540, Note_on_c, 0, 64, 95
2, 120600, Note_off_c, 0, 64, 80
2, 120600, Note_on_c, 0, 64, 95
2, 120660, Note_off_c, 0, 64, 80
2, 120660, Note_on_c, 0, 64, 95
2, 120780, Note_off_c, 0, 64, 80
2, 120780, Note_on_c, 0, 64, 95
2, 120840, Note_off_c, 0, 64, 80
2, 120840, Note_on_c, 0, 64, 95
2, 120900, Note_off_c, 0, 64, 80
2, 120900, Note_on_c, 0, 64, 95
2, 121020, Note_off_c, 0, 64, 80
2, 121020, Note_on_c, 0, 64, 95
2, 121080, Note_off_c, 0, 64, 80
2, 121080, Note_on_c, 0, 64, 95
2, 121140, Note_off_c, 0, 64, 80
2, 121140, Note_on_c, 0, 64, 95
2, 121260, Note_off_c, 0, 64, 80
2, 121260, Note_on_c, 0, 64, 95
2, 121320, Note_off_c, 0, 64, 80
2, 121320, Note_on_c, 0, 64, 95
2, 121380, Note_off_c, 0, 64, 80
2, 121380, Note_on_c, 0, 64, 95
2, 121500, Note_off_c, 0, 64, 80
2, 121500, Note_on_c, 0, 64, 95
2, 121560, Note_off_c, 0, 64, 80
2, 121560, Note_on_c, 0, 64, 95
2, 121620, Note_off_c, 0, 64, 80
2, 121620, Note_on_c, 0, 64, 95
2, 121740, Note_off_c, 0, 64, 80
2, 121740, Note_on_c, 0, 64, 95
2, 121800, Note_off_c, 0, 64, 80
2, 121800, Note_on_c, 0, 64, 95
2, 121860, Note_off_c, 0, 64, 80
2, 121860, Note_on_c, 0, 64, 95
2, 121980, Note_off_c, 0, 64, 80
2, 121980, Note_on_c, 0, 64, 95
2, 122040, Note_off_c, 0, 64, 80
2, 122040, Note_on_c, 0, 64, 95
2, 122100, Note_off_c, 0, 64, 80
2, 122100, Note_on_c, 0, 64, 95
2, 122220, Note_off_c, 0, 64, 80
2, 122220, Note_on_c, 0, 64, 95
2, 122280, Note_off_c, 0, 64, 80
2, 122280, Note_on_c, 0, 64, 95
2, 122340, Note_off_c, 0, 64, 80
2, 122340, Note_on_c, 0, 64, 95
2, 122460, Note_off_c, 0, 64, 80
2, 122460, Note_on_c, 0, 68, 95
2, 122520, Note_off_c, 0, 68, 80
2, 122520, Note_on_c, 0, 68, 95
2, 122580, Note_off_c, 0, 68, 80
2, 122580, Note_on_c, 0, 68, 95
2, 122700, Note_off_c, 0, 68, 80
2, 122700, Note_on_c, 0, 68, 95
2, 122760, Note_off_c, 0, 68, 80
2, 122760, Note_on_c, 0, 68, 95
2, 122820, Note_off_c, 0, 68, 80
2, 122820, Note_on_c, 0, 68, 95
2, 122940, Note_off_c, 0, 68, 80
2, 122940, Note_on_c, 0, 68, 95
2, 123000, Note_off_c, 0, 68, 80
2, 123000, Note_on_c, 0, 68, 95
2, 123060, Note_off_c, 0, 68, 80
2, 123060, Note_on_c, 0, 68, 95
2, 123180, Note_off_c, 0, 68, 80
2, 123180, Note_on_c, 0, 68, 95
2, 123240, Note_off_c, 0, 68, 80
2, 123240, Note_on_c, 0, 68, 95
2, 123300, Note_off_c, 0, 68, 80
2, 123300, Note_on_c, 0, 68, 95
2, 123420, Note_off_c, 0, 68, 80
2, 123420, Note_on_c, 0, 68, 95
2, 123480, Note_off_c, 0, 68, 80
2, 123480, Note_on_c, 0, 68, 95
2, 123540, Note_off_c, 0, 68, 80
2, 123540, Note_on_c, 0, 68, 95
2, 123660, Note_off_c, 0, 68, 80
2, 123660, Note_on_c, 0, 68, 95
2, 123720, Note_off_c, 0, 68, 80
2, 123720, Note_on_c, 0, 68, 95
2, 123780, Note_off_c, 0, 68, 80
2, 123780, Note_on_c, 0, 68, 95
2, 123900, Note_off_c, 0, 68, 80
2, 123900, Note_on_c, 0, 66, 95
2, 123960, Note_off_c, 0, 66, 80
2, 123960, Note_on_c, 0, 66, 95
2, 124020, Note_off_c, 0, 66, 80
2, 124020, Note_on_c, 0, 66, 95
2, 124140, Note_off_c, 0, 66, 80
2, 124140, Note_on_c, 0, 66, 95
2, 124200, Note_off_c, 0, 66, 80
2, 124200, Note_on_c, 0, 66, 95
2, 124260, Note_off_c, 0, 66, 80
2, 124260, Note_on_c, 0, 66, 95
2, 124380, Note_off_c, 0, 66, 80
2, 124380, Note_on_c, 0, 64, 95
2, 124440, Note_off_c, 0, 64, 80
2, 124440, Note_on_c, 0, 64, 95
2, 124500, Note_off_c, 0, 64, 80
2, 124500, Note_on_c, 0, 64, 95
2, 124620, Note_off_c, 0, 64, 80
2, 124620, Note_on_c, 0, 64, 95
2, 124680, Note_off_c, 0, 64, 80
2, 124680, Note_on_c, 0, 64, 95
2, 124740, Note_off_c, 0, 64, 80
2, 124740, Note_on_c, 0, 64, 95
2, 124860, Note_off_c, 0, 64, 80
2, 124860, Note_on_c, 0, 62, 95
2, 124920, Note_off_c, 0, 62, 80
2, 124920, Note_on_c, 0, 62, 95
2, 124980, Note_off_c, 0, 62, 80
2, 124980, Note_on_c, 0, 62, 95
2, 125100, Note_off_c, 0, 62, 80
2, 125100, Note_on_c, 0, 62, 95
2, 125160, Note_off_c, 0, 62, 80
2, 125160, Note_on_c, 0, 62, 95
2, 125220, Note_off_c, 0, 62, 80
2, 125220, Note_on_c, 0, 62, 95
2, 125340, Note_off_c, 0, 62, 80
2, 125340, Note_on_c, 0, 61, 95
2, 125400, Note_off_c, 0, 61, 80
2, 125400, Note_on_c, 0, 61, 95
2, 125460, Note_off_c, 0, 61, 80
2, 125460, Note_on_c, 0, 61, 95
2, 125580, Note_off_c, 0, 61, 80
2, 125580, Note_on_c, 0, 61, 95
2, 125640, Note_off_c, 0, 61, 80
2, 125640, Note_on_c, 0, 61, 95
2, 125700, Note_off_c, 0, 61, 80
2, 125700, Note_on_c, 0, 61, 95
2, 125820, Note_off_c, 0, 61, 80
2, 125820, Note_on_c, 0, 61, 95
2, 125880, Note_off_c, 0, 61, 80
2, 125880, Note_on_c, 0, 61, 95
2, 125940, Note_off_c, 0, 61, 80
2, 125940, Note_on_c, 0, 61, 95
2, 126060, Note_off_c, 0, 61, 80
2, 126060, Note_on_c, 0, 61, 95
2, 126120, Note_off_c, 0, 61, 80
2, 126120, Note_on_c, 0, 61, 95
2, 126180, Note_off_c, 0, 61, 80
2, 126180, Note_on_c, 0, 61, 95
2, 126300, Note_off_c, 0, 61, 80
2, 126300, Note_on_c, 0, 61, 95
2, 126360, Note_off_c, 0, 61, 80
2, 126360, Note_on_c, 0, 61, 95
2, 126420, Note_off_c, 0, 61, 80
2, 126420, Note_on_c, 0, 61, 95
2, 126540, Note_off_c, 0, 61, 80
2, 126540, Note_on_c, 0, 61, 95
2, 126600, Note_off_c, 0, 61, 80
2, 126600, Note_on_c, 0, 61, 95
2, 126660, Note_off_c, 0, 61, 80
2, 126660, Note_on_c, 0, 61, 95
2, 126780, Note_off_c, 0, 61, 80
2, 126780, Note_on_c, 0, 61, 95
2, 126840, Note_off_c, 0, 61, 80
2, 126840, Note_on_c, 0, 61, 95
2, 126900, Note_off_c, 0, 61, 80
2, 126900, Note_on_c, 0, 61, 95
2, 127020, Note_off_c, 0, 61, 80
2, 127020, Note_on_c, 0, 61, 95
2, 127080, Note_off_c, 0, 61, 80
2, 127080, Note_on_c, 0, 61, 95
2, 127140, Note_off_c, 0, 61, 80
2, 127140, Note_on_c, 0, 61, 95
2, 127260, Note_off_c, 0, 61, 80
2, 127260, Note_on_c, 0, 61, 95
2, 127320, Note_off_c, 0, 61, 80
2, 127320, Note_on_c, 0, 61, 95
2, 127380, Note_off_c, 0, 61, 80
2, 127380, Note_on_c, 0, 61, 95
2, 127500, Note_off_c, 0, 61, 80
2, 127500, Note_on_c, 0, 61, 95
2, 127560, Note_off_c, 0, 61, 80
2, 127560, Note_on_c, 0, 61, 95
2, 127620, Note_off_c, 0, 61, 80
2, 127620, Note_on_c, 0, 61, 95
2, 127740, Note_off_c, 0, 61, 80
2, 127740, Note_on_c, 0, 61, 95
2, 127800, Note_off_c, 0, 61, 80
2, 127800, Note_on_c, 0, 61, 95
2, 127860, Note_off_c, 0, 61, 80
2, 127860, Note_on_c, 0, 61, 95
2, 127980, Note_off_c, 0, 61, 80
2, 127980, Note_on_c, 0, 61, 95
2, 128040, Note_off_c, 0, 61, 80
2, 128040, Note_on_c, 0, 61, 95
2, 128100, Note_off_c, 0, 61, 80
2, 128100, Note_on_c, 0, 61, 95
2, 128220, Note_off_c, 0, 61, 80
2, 128220, Note_on_c, 0, 61, 95
2, 128280, Note_off_c, 0, 61, 80
2, 128280, Note_on_c, 0, 61, 95
2, 128340, Note_off_c, 0, 61, 80
2, 128340, Note_on_c, 0, 61, 95
2, 128460, Note_off_c, 0, 61, 80
2, 128460, Note_on_c, 0, 61, 95
2, 128520, Note_off_c, 0, 61, 80
2, 128520, Note_on_c, 0, 61, 95
2, 128580, Note_off_c, 0, 61, 80
2, 128580, Note_on_c, 0, 61, 95
2, 128700, Note_off_c, 0, 61, 80
2, 128700, Note_on_c, 0, 61, 95
2, 128760, Note_off_c, 0, 61, 80
2, 128760, Note_on_c, 0, 61, 95
2, 128820, Note_off_c, 0, 61, 80
2, 128820, Note_on_c, 0, 61, 95
2, 128940, Note_off_c, 0, 61, 80
2, 128940, Note_on_c, 0, 61, 95
2, 129000, Note_off_c, 0, 61, 80
2, 129000, Note_on_c, 0, 61, 95
2, 129060, Note_off_c, 0, 61, 80
2, 129060, Note_on_c, 0, 61, 95
2, 129180, Note_off_c, 0, 61, 80
2, 129180, Note_on_c, 0, 61, 95
2, 129240, Note_off_c, 0, 61, 80
2, 129240, Note_on_c, 0, 61, 95
2, 129300, Note_off_c, 0, 61, 80
2, 129300, Note_on_c, 0, 61, 95
2, 129420, Note_off_c, 0, 61, 80
2, 129420, Note_on_c, 0, 61, 95
2, 129480, Note_off_c, 0, 61, 80
2, 129480, Note_on_c, 0, 61, 95
2, 129540, Note_off_c, 0, 61, 80
2, 129540, Note_on_c, 0, 61, 95
2, 129600, Note_off_c, 0, 61, 80
2, 129840, Note_on_c, 0, 52, 95
2, 130080, Note_off_c, 0, 52, 80
2, 130080, Note_on_c, 0, 57, 95
2, 130320, Note_off_c, 0, 57, 80
2, 130320, Note_on_c, 0, 61, 95
2, 130560, Note_off_c, 0, 61, 80
2, 130560, Note_on_c, 0, 64, 95
2, 130800, Note_off_c, 0, 64, 80
2, 130800, Note_on_c, 0, 69, 95
2, 131040, Note_off_c, 0, 69, 80
2, 131040, Note_on_c, 0, 45, 95
2, 131080, Note_on_c, 0, 61, 95
2, 131120, Note_on_c, 0, 69, 95
2, 131160, Note_on_c, 0, 76, 95
2, 132480, Note_off_c, 0, 45, 80
2, 132480, Note_off_c, 0, 61, 80
2, 132480, Note_off_c, 0, 69, 80
2, 132480, Note_off_c, 0, 76, 80
2, 132480, Note_on_c, 0, 45, 95
2, 132520, Note_on_c, 0, 49, 95
2, 132560, Note_on_c, 0, 52, 95
2, 132600, Note_on_c, 0, 57, 95
2, 133920, Note_off_c, 0, 45, 80
2, 133920, Note_off_c, 0, 49, 80
2, 133920, Note_off_c, 0, 52, 80
2, 133920, Note_off_c, 0, 57, 80
2, 133920, End_track
3, 0, Start_track
3, 0, Title_t, ""
3, 0, Control_c, 2, 100, 0
3, 0, Control_c, 2, 101, 0
3, 0, Control_c, 2, 6, 8
3, 0, Pitch_bend_c, 2, 8192
3, 0, Control_c, 3, 100, 0
3, 0, Control_c, 3, 101, 0
3, 0, Control_c, 3, 6, 8
3, 0, Pitch_bend_c, 3, 8192
3, 0, Program_c, 2, 24
3, 0, Program_c, 3, 24
3, 0, Control_c, 2, 7, 127
3, 0, Control_c, 3, 7, 127
3, 0, Control_c, 2, 10, 64
3, 0, Control_c, 3, 10, 64
3, 0, Control_c, 2, 93, 0
3, 0, Control_c, 3, 93, 0
3, 0, Control_c, 2, 91, 127
3, 0, Control_c, 3, 91, 127
3, 0, Control_c, 2, 92, 0
3, 0, Control_c, 3, 92, 0
3, 0, Control_c, 2, 95, 0
3, 0, Control_c, 3, 95, 0
3, 0, Note_on_c, 2, 45, 127
3, 1440, Note_off_c, 2, 45, 80
3, 1440, Note_on_c, 2, 45, 127
3, 2880, Note_off_c, 2, 45, 80
3, 2880, Note_on_c, 2, 45, 127
3, 4320, Note_off_c, 2, 45, 80
3, 4320, Note_on_c, 2, 45, 127
3, 5760, Note_off_c, 2, 45, 80
3, 5760, Note_on_c, 2, 48, 127
3, 7200, Note_off_c, 2, 48, 80
3, 7200, Note_on_c, 2, 48, 127
3, 8640, Note_off_c, 2, 48, 80
3, 8640, Note_on_c, 2, 48, 127
3, 10080, Note_off_c, 2, 48, 80
3, 10080, Note_on_c, 2, 48, 127
3, 11520, Note_off_c, 2, 48, 80
3, 11520, Note_on_c, 2, 53, 127
3, 12960, Note_off_c, 2, 53, 80
3, 12960, Note_on_c, 2, 53, 127
3, 14400, Note_off_c, 2, 53, 80
3, 14400, Note_on_c, 2, 40, 127
3, 15840, Note_off_c, 2, 40, 80
3, 15840, Note_on_c, 2, 40, 127
3, 17280, Note_off_c, 2, 40, 80
3, 17280, Note_on_c, 2, 45, 127
3, 18720, Note_off_c, 2, 45, 80
3, 18720, Note_on_c, 2, 49, 127
3, 20160, Note_off_c, 2, 49, 80
3, 20160, Note_on_c, 2, 50, 127
3, 21600, Note_off_c, 2, 50, 80
3, 21600, Note_on_c, 2, 50, 127
3, 23040, Note_off_c, 2, 50, 80
3, 23040, Note_on_c, 2, 50, 127
3, 24480, Note_off_c, 2, 50, 80
3, 24480, Note_on_c, 2, 41, 127
3, 25920, Note_off_c, 2, 41, 80
3, 25920, Note_on_c, 2, 40, 127
3, 27360, Note_off_c, 2, 40, 80
3, 27360, Note_on_c, 2, 40, 127
3, 28800, Note_off_c, 2, 40, 80
3, 28800, Note_on_c, 2, 45, 127
3, 30240, Note_off_c, 2, 45, 80
3, 30240, Note_on_c, 2, 45, 127
3, 31680, Note_off_c, 2, 45, 80
3, 31680, Note_on_c, 2, 45, 127
3, 33120, Note_off_c, 2, 45, 80
3, 33120, Note_on_c, 2, 45, 127
3, 34560, Note_off_c, 2, 45, 80
3, 34560, Note_on_c, 2, 48, 127
3, 36000, Note_off_c, 2, 48, 80
3, 36000, Note_on_c, 2, 48, 127
3, 37440, Note_off_c, 2, 48, 80
3, 37440, Note_on_c, 2, 48, 127
3, 38880, Note_off_c, 2, 48, 80
3, 38880, Note_on_c, 2, 48, 127
3, 40320, Note_off_c, 2, 48, 80
3, 40320, Note_on_c, 2, 53, 127
3, 41760, Note_off_c, 2, 53, 80
3, 41760, Note_on_c, 2, 53, 127
3, 43200, Note_off_c, 2, 53, 80
3, 43200, Note_on_c, 2, 40, 127
3, 44640, Note_off_c, 2, 40, 80
3, 44640, Note_on_c, 2, 40, 127
3, 46080, Note_off_c, 2, 40, 80
3, 46080, Note_on_c, 2, 45, 127
3, 47520, Note_off_c, 2, 45, 80
3, 47520, Note_on_c, 2, 49, 127
3, 48960, Note_off_c, 2, 49, 80
3, 48960, Note_on_c, 2, 50, 127
3, 50400, Note_off_c, 2, 50, 80
3, 50400, Note_on_c, 2, 50, 127
3, 51840, Note_off_c, 2, 50, 80
3, 51840, Note_on_c, 2, 50, 127
3, 53280, Note_off_c, 2, 50, 80
3, 53280, Note_on_c, 2, 41, 127
3, 54720, Note_off_c, 2, 41, 80
3, 54720, Note_on_c, 2, 40, 127
3, 56160, Note_off_c, 2, 40, 80
3, 56160, Note_on_c, 2, 40, 127
3, 57600, Note_off_c, 2, 40, 80
3, 57600, Note_on_c, 2, 45, 127
3, 59040, Note_off_c, 2, 45, 80
3, 59040, Note_on_c, 2, 45, 127
3, 60480, Note_off_c, 2, 45, 80
3, 60480, Note_on_c, 2, 45, 127
3, 61920, Note_off_c, 2, 45, 80
3, 61920, Note_on_c, 2, 45, 127
3, 63360, Note_off_c, 2, 45, 80
3, 63360, Note_on_c, 2, 45, 127
3, 64800, Note_off_c, 2, 45, 80
3, 64800, Note_on_c, 2, 45, 127
3, 66240, Note_off_c, 2, 45, 80
3, 66240, Note_on_c, 2, 45, 127
3, 67680, Note_off_c, 2, 45, 80
3, 67680, Note_on_c, 2, 45, 127
3, 69120, Note_off_c, 2, 45, 80
3, 69120, Note_on_c, 2, 42, 95
3, 70560, Note_off_c, 2, 42, 80
3, 70560, Note_on_c, 2, 44, 127
3, 72000, Note_off_c, 2, 44, 80
3, 72000, Note_on_c, 2, 49, 127
3, 73440, Note_off_c, 2, 49, 80
3, 73440, Note_on_c, 2, 49, 127
3, 74880, Note_off_c, 2, 49, 80
3, 74880, Note_on_c, 2, 47, 127
3, 76320, Note_off_c, 2, 47, 80
3, 76320, Note_on_c, 2, 40, 127
3, 77760, Note_off_c, 2, 40, 80
3, 77760, Note_on_c, 2, 45, 127
3, 79200, Note_off_c, 2, 45, 80
3, 79200, Note_on_c, 2, 45, 127
3, 80640, Note_off_c, 2, 45, 80
3, 80640, Note_on_c, 2, 45, 127
3, 82080, Note_off_c, 2, 45, 80
3, 82080, Note_on_c, 2, 45, 127
3, 83520, Note_off_c, 2, 45, 80
3, 83520, Note_on_c, 2, 45, 127
3, 84960, Note_off_c, 2, 45, 80
3, 84960, Note_on_c, 2, 45, 127
3, 86400, Note_off_c, 2, 45, 80
3, 86400, Note_on_c, 2, 45, 127
3, 87840, Note_off_c, 2, 45, 80
3, 87840, Note_on_c, 2, 45, 127
3, 89280, Note_off_c, 2, 45, 80
3, 89280, Note_on_c, 2, 45, 127
3, 90720, Note_off_c, 2, 45, 80
3, 90720, Note_on_c, 2, 45, 127
3, 92160, Note_off_c, 2, 45, 80
3, 92160, Note_on_c, 2, 42, 95
3, 93600, Note_off_c, 2, 42, 80
3, 93600, Note_on_c, 2, 44, 127
3, 95040, Note_off_c, 2, 44, 80
3, 95040, Note_on_c, 2, 49, 127
3, 96480, Note_off_c, 2, 49, 80
3, 96480, Note_on_c, 2, 49, 127
3, 97920, Note_off_c, 2, 49, 80
3, 97920, Note_on_c, 2, 47, 127
3, 99360, Note_off_c, 2, 47, 80
3, 99360, Note_on_c, 2, 40, 127
3, 100800, Note_off_c, 2, 40, 80
3, 100800, Note_on_c, 2, 45, 127
3, 102240, Note_off_c, 2, 45, 80
3, 102240, Note_on_c, 2, 45, 127
3, 103680, Note_off_c, 2, 45, 80
3, 103680, Note_on_c, 2, 45, 127
3, 105120, Note_off_c, 2, 45, 80
3, 105120, Note_on_c, 2, 45, 127
3, 106560, Note_off_c, 2, 45, 80
3, 106560, Note_on_c, 2, 45, 127
3, 108000, Note_off_c, 2, 45, 80
3, 108000, Note_on_c, 2, 45, 127
3, 109440, Note_off_c, 2, 45, 80
3, 109440, Note_on_c, 2, 45, 127
3, 110880, Note_off_c, 2, 45, 80
3, 110880, Note_on_c, 2, 40, 127
3, 112320, Note_off_c, 2, 40, 80
3, 112320, Note_on_c, 2, 40, 127
3, 113760, Note_off_c, 2, 40, 80
3, 113760, Note_on_c, 2, 45, 127
3, 115200, Note_off_c, 2, 45, 80
3, 115200, Note_on_c, 2, 45, 127
3, 116640, Note_off_c, 2, 45, 80
3, 116640, Note_on_c, 2, 45, 127
3, 118080, Note_off_c, 2, 45, 80
3, 118080, Note_on_c, 2, 45, 127
3, 119520, Note_off_c, 2, 45, 80
3, 119520, Note_on_c, 2, 45, 127
3, 120960, Note_off_c, 2, 45, 80
3, 120960, Note_on_c, 2, 45, 127
3, 122400, Note_off_c, 2, 45, 80
3, 122400, Note_on_c, 2, 40, 127
3, 123840, Note_off_c, 2, 40, 80
3, 123840, Note_on_c, 2, 40, 127
3, 125280, Note_off_c, 2, 40, 80
3, 125280, Note_on_c, 2, 45, 127
3, 126720, Note_off_c, 2, 45, 80
3, 126720, Note_on_c, 2, 45, 127
3, 127200, Note_off_c, 2, 45, 80
3, 128160, Note_on_c, 2, 45, 127
3, 128880, Note_off_c, 2, 45, 80
3, 129600, Note_on_c, 2, 45, 95
3, 131040, Note_off_c, 2, 45, 80
3, 131040, End_track
4, 0, Start_track
4, 0, Title_t, ""
4, 0, Control_c, 4, 100, 0
4, 0, Control_c, 4, 101, 0
4, 0, Control_c, 4, 6, 8
4, 0, Pitch_bend_c, 4, 8192
4, 0, Control_c, 5, 100, 0
4, 0, Control_c, 5, 101, 0
4, 0, Control_c, 5, 6, 8
4, 0, Pitch_bend_c, 5, 8192
4, 0, Program_c, 4, 24
4, 0, Program_c, 5, 24
4, 0, Control_c, 4, 7, 127
4, 0, Control_c, 5, 7, 127
4, 0, Control_c, 4, 10, 64
4, 0, Control_c, 5, 10, 64
4, 0, Control_c, 4, 93, 0
4, 0, Control_c, 5, 93, 0
4, 0, Control_c, 4, 91, 127
4, 0, Control_c, 5, 91, 127
4, 0, Control_c, 4, 92, 0
4, 0, Control_c, 5, 92, 0
4, 0, Control_c, 4, 95, 0
4, 0, Control_c, 5, 95, 0
4, 240, Note_on_c, 4, 52, 95
4, 480, Note_off_c, 4, 52, 80
4, 480, Note_on_c, 4, 60, 95
4, 720, Note_off_c, 4, 60, 80
4, 720, Note_on_c, 4, 52, 95
4, 960, Note_off_c, 4, 52, 80
4, 960, Note_on_c, 4, 59, 95
4, 1200, Note_on_c, 4, 52, 95
4, 1440, Note_off_c, 4, 52, 80
4, 1680, Note_off_c, 4, 59, 80
4, 1680, Note_on_c, 4, 52, 95
4, 1920, Note_off_c, 4, 52, 80
4, 1920, Note_on_c, 4, 57, 95
4, 2160, Note_off_c, 4, 57, 80
4, 2160, Note_on_c, 4, 52, 95
4, 2400, Note_off_c, 4, 52, 80
4, 2400, Note_on_c, 4, 59, 95
4, 2640, Note_on_c, 4, 52, 95
4, 2880, Note_off_c, 4, 52, 80
4, 3120, Note_off_c, 4, 59, 80
4, 3120, Note_on_c, 4, 52, 95
4, 3360, Note_off_c, 4, 52, 80
4, 3360, Note_on_c, 4, 60, 95
4, 3600, Note_off_c, 4, 60, 80
4, 3600, Note_on_c, 4, 52, 95
4, 3840, Note_off_c, 4, 52, 80
4, 3840, Note_on_c, 4, 60, 95
4, 4080, Note_on_c, 4, 52, 95
4, 4320, Note_off_c, 4, 52, 80
4, 4560, Note_off_c, 4, 60, 80
4, 4560, Note_on_c, 4, 52, 95
4, 4800, Note_off_c, 4, 52, 80
4, 4800, Note_on_c, 4, 60, 95
4, 5040, Note_off_c, 4, 60, 80
4, 5040, Note_on_c, 4, 52, 95
4, 5280, Note_off_c, 4, 52, 80
4, 5280, Note_on_c, 4, 62, 95
4, 5520, Note_off_c, 4, 62, 80
4, 5520, Note_on_c, 4, 55, 95
4, 6000, Note_off_c, 4, 55, 80
4, 6000, Note_on_c, 4, 55, 95
4, 6240, Note_off_c, 4, 55, 80
4, 6240, Note_on_c, 4, 64, 95
4, 6480, Note_off_c, 4, 64, 80
4, 6480, Note_on_c, 4, 55, 95
4, 6720, Note_off_c, 4, 55, 80
4, 6720, Note_on_c, 4, 62, 95
4, 6960, Note_off_c, 4, 62, 80
4, 6960, Note_on_c, 4, 55, 95
4, 7440, Note_off_c, 4, 55, 80
4, 7440, Note_on_c, 4, 55, 95
4, 7680, Note_off_c, 4, 55, 80
4, 7680, Note_on_c, 4, 60, 95
4, 7920, Note_off_c, 4, 60, 80
4, 7920, Note_on_c, 4, 55, 95
4, 8160, Note_off_c, 4, 55, 80
4, 8160, Note_on_c, 4, 62, 95
4, 8400, Note_off_c, 4, 62, 80
4, 8400, Note_on_c, 4, 55, 95
4, 8880, Note_off_c, 4, 55, 80
4, 8880, Note_on_c, 4, 55, 95
4, 9120, Note_off_c, 4, 55, 80
4, 9120, Note_on_c, 4, 64, 95
4, 9360, Note_off_c, 4, 64, 80
4, 9360, Note_on_c, 4, 55, 95
4, 9600, Note_off_c, 4, 55, 80
4, 9600, Note_on_c, 4, 64, 95
4, 9840, Note_off_c, 4, 64, 80
4, 9840, Note_on_c, 4, 55, 95
4, 10320, Note_off_c, 4, 55, 80
4, 10320, Note_on_c, 4, 55, 95
4, 10560, Note_off_c, 4, 55, 80
4, 10560, Note_on_c, 4, 64, 95
4, 10800, Note_off_c, 4, 64, 80
4, 10800, Note_on_c, 4, 55, 95
4, 11040, Note_off_c, 4, 55, 80
4, 11040, Note_on_c, 4, 64, 95
4, 11280, Note_off_c, 4, 64, 80
4, 11280, Note_on_c, 4, 55, 95
4, 11760, Note_off_c, 4, 55, 80
4, 11760, Note_on_c, 4, 60, 95
4, 12000, Note_off_c, 4, 60, 80
4, 12000, Note_on_c, 4, 69, 95
4, 12240, Note_off_c, 4, 69, 80
4, 12240, Note_on_c, 4, 60, 95
4, 12480, Note_off_c, 4, 60, 80
4, 12480, Note_on_c, 4, 67, 95
4, 12720, Note_off_c, 4, 67, 80
4, 12720, Note_on_c, 4, 60, 95
4, 13200, Note_off_c, 4, 60, 80
4, 13200, Note_on_c, 4, 60, 95
4, 13440, Note_off_c, 4, 60, 80
4, 13440, Note_on_c, 4, 65, 95
4, 13680, Note_off_c, 4, 65, 80
4, 13680, Note_on_c, 4, 60, 95
4, 13920, Note_off_c, 4, 60, 80
4, 13920, Note_on_c, 4, 50, 95
4, 14160, Note_off_c, 4, 50, 80
4, 14160, Note_on_c, 4, 65, 95
4, 14640, Note_off_c, 4, 65, 80
4, 14640, Note_on_c, 4, 59, 95
4, 14880, Note_off_c, 4, 59, 80
4, 14880, Note_on_c, 4, 64, 95
4, 15120, Note_off_c, 4, 64, 80
4, 15120, Note_on_c, 4, 59, 95
4, 15360, Note_off_c, 4, 59, 80
4, 15360, Note_on_c, 4, 64, 95
4, 15600, Note_off_c, 4, 64, 80
4, 15600, Note_on_c, 4, 59, 95
4, 16080, Note_off_c, 4, 59, 80
4, 16080, Note_on_c, 4, 62, 95
4, 16320, Note_off_c, 4, 62, 80
4, 16320, Note_on_c, 4, 64, 95
4, 16560, Note_off_c, 4, 64, 80
4, 16560, Note_on_c, 4, 62, 95
4, 16800, Note_off_c, 4, 62, 80
4, 16800, Note_on_c, 4, 64, 95
4, 17040, Note_off_c, 4, 64, 80
4, 17040, Note_on_c, 4, 62, 95
4, 17520, Note_off_c, 4, 62, 80
4, 17520, Note_on_c, 4, 61, 95
4, 17760, Note_off_c, 4, 61, 80
4, 17760, Note_on_c, 4, 64, 95
4, 18000, Note_off_c, 4, 64, 80
4, 18000, Note_on_c, 4, 61, 95
4, 18240, Note_off_c, 4, 61, 80
4, 18240, Note_on_c, 4, 64, 95
4, 18480, Note_off_c, 4, 64, 80
4, 18480, Note_on_c, 4, 61, 95
4, 18960, Note_off_c, 4, 61, 80
4, 18960, Note_on_c, 4, 57, 95
4, 19200, Note_off_c, 4, 57, 80
4, 19200, Note_on_c, 4, 64, 95
4, 19440, Note_off_c, 4, 64, 80
4, 19440, Note_on_c, 4, 57, 95
4, 19680, Note_off_c, 4, 57, 80
4, 19680, Note_on_c, 4, 65, 95
4, 19920, Note_off_c, 4, 65, 80
4, 19920, Note_on_c, 4, 57, 95
4, 20400, Note_off_c, 4, 57, 80
4, 20400, Note_on_c, 4, 64, 95
4, 20640, Note_off_c, 4, 64, 80
4, 20640, Note_on_c, 4, 62, 95
4, 20880, Note_off_c, 4, 62, 80
4, 20880, Note_on_c, 4, 57, 95
4, 21120, Note_off_c, 4, 57, 80
4, 21120, Note_on_c, 4, 62, 95
4, 21360, Note_off_c, 4, 62, 80
4, 21360, Note_on_c, 4, 57, 95
4, 21840, Note_off_c, 4, 57, 80
4, 21840, Note_on_c, 4, 57, 95
4, 22080, Note_off_c, 4, 57, 80
4, 22080, Note_on_c, 4, 62, 95
4, 22320, Note_off_c, 4, 62, 80
4, 22320, Note_on_c, 4, 57, 95
4, 22560, Note_off_c, 4, 57, 80
4, 22560, Note_on_c, 4, 62, 95
4, 22800, Note_off_c, 4, 62, 80
4, 22800, Note_on_c, 4, 57, 95
4, 23280, Note_off_c, 4, 57, 80
4, 23280, Note_on_c, 4, 57, 95
4, 23520, Note_off_c, 4, 57, 80
4, 23520, Note_on_c, 4, 59, 95
4, 23760, Note_off_c, 4, 59, 80
4, 23760, Note_on_c, 4, 57, 95
4, 24000, Note_off_c, 4, 57, 80
4, 24000, Note_on_c, 4, 59, 95
4, 24240, Note_off_c, 4, 59, 80
4, 24240, Note_on_c, 4, 57, 95
4, 24720, Note_off_c, 4, 57, 80
4, 24720, Note_on_c, 4, 51, 95
4, 24960, Note_off_c, 4, 51, 80
4, 24960, Note_on_c, 4, 57, 95
4, 25200, Note_off_c, 4, 57, 80
4, 25200, Note_on_c, 4, 51, 95
4, 25440, Note_off_c, 4, 51, 80
4, 25440, Note_on_c, 4, 57, 95
4, 25680, Note_off_c, 4, 57, 80
4, 25680, Note_on_c, 4, 51, 95
4, 26160, Note_off_c, 4, 51, 80
4, 26160, Note_on_c, 4, 52, 95
4, 26400, Note_off_c, 4, 52, 80
4, 26400, Note_on_c, 4, 56, 95
4, 26640, Note_off_c, 4, 56, 80
4, 26640, Note_on_c, 4, 52, 95
4, 26880, Note_off_c, 4, 52, 80
4, 26880, Note_on_c, 4, 56, 95
4, 27120, Note_off_c, 4, 56, 80
4, 27120, Note_on_c, 4, 52, 95
4, 27600, Note_off_c, 4, 52, 80
4, 27600, Note_on_c, 4, 52, 95
4, 27840, Note_off_c, 4, 52, 80
4, 27840, Note_on_c, 4, 56, 95
4, 28080, Note_off_c, 4, 56, 80
4, 28080, Note_on_c, 4, 52, 95
4, 28320, Note_off_c, 4, 52, 80
4, 28320, Note_on_c, 4, 56, 95
4, 28560, Note_off_c, 4, 56, 80
4, 28560, Note_on_c, 4, 52, 95
4, 29040, Note_off_c, 4, 52, 80
4, 29040, Note_on_c, 4, 52, 95
4, 29280, Note_off_c, 4, 52, 80
4, 29280, Note_on_c, 4, 60, 95
4, 29520, Note_off_c, 4, 60, 80
4, 29520, Note_on_c, 4, 52, 95
4, 29760, Note_off_c, 4, 52, 80
4, 29760, Note_on_c, 4, 59, 95
4, 30000, Note_on_c, 4, 52, 95
4, 30240, Note_off_c, 4, 52, 80
4, 30480, Note_off_c, 4, 59, 80
4, 30480, Note_on_c, 4, 52, 95
4, 30720, Note_off_c, 4, 52, 80
4, 30720, Note_on_c, 4, 57, 95
4, 30960, Note_off_c, 4, 57, 80
4, 30960, Note_on_c, 4, 52, 95
4, 31200, Note_off_c, 4, 52, 80
4, 31200, Note_on_c, 4, 59, 95
4, 31440, Note_on_c, 4, 52, 95
4, 31680, Note_off_c, 4, 52, 80
4, 31920, Note_off_c, 4, 59, 80
4, 31920, Note_on_c, 4, 52, 95
4, 32160, Note_off_c, 4, 52, 80
4, 32160, Note_on_c, 4, 60, 95
4, 32400, Note_off_c, 4, 60, 80
4, 32400, Note_on_c, 4, 52, 95
4, 32640, Note_off_c, 4, 52, 80
4, 32640, Note_on_c, 4, 60, 95
4, 32880, Note_on_c, 4, 52, 95
4, 33120, Note_off_c, 4, 52, 80
4, 33360, Note_off_c, 4, 60, 80
4, 33360, Note_on_c, 4, 52, 95
4, 33600, Note_off_c, 4, 52, 80
4, 33600, Note_on_c, 4, 60, 95
4, 33840, Note_off_c, 4, 60, 80
4, 33840, Note_on_c, 4, 52, 95
4, 34080, Note_off_c, 4, 52, 80
4, 34080, Note_on_c, 4, 62, 95
4, 34320, Note_off_c, 4, 62, 80
4, 34320, Note_on_c, 4, 55, 95
4, 34800, Note_off_c, 4, 55, 80
4, 34800, Note_on_c, 4, 55, 95
4, 35040, Note_off_c, 4, 55, 80
4, 35040, Note_on_c, 4, 64, 95
4, 35280, Note_off_c, 4, 64, 80
4, 35280, Note_on_c, 4, 55, 95
4, 35520, Note_off_c, 4, 55, 80
4, 35520, Note_on_c, 4, 62, 95
4, 35760, Note_off_c, 4, 62, 80
4, 35760, Note_on_c, 4, 55, 95
4, 36240, Note_off_c, 4, 55, 80
4, 36240, Note_on_c, 4, 55, 95
4, 36480, Note_off_c, 4, 55, 80
4, 36480, Note_on_c, 4, 60, 95
4, 36720, Note_off_c, 4, 60, 80
4, 36720, Note_on_c, 4, 55, 95
4, 36960, Note_off_c, 4, 55, 80
4, 36960, Note_on_c, 4, 62, 95
4, 37200, Note_off_c, 4, 62, 80
4, 37200, Note_on_c, 4, 55, 95
4, 37680, Note_off_c, 4, 55, 80
4, 37680, Note_on_c, 4, 55, 95
4, 37920, Note_off_c, 4, 55, 80
4, 37920, Note_on_c, 4, 64, 95
4, 38160, Note_off_c, 4, 64, 80
4, 38160, Note_on_c, 4, 55, 95
4, 38400, Note_off_c, 4, 55, 80
4, 38400, Note_on_c, 4, 64, 95
4, 38640, Note_off_c, 4, 64, 80
4, 38640, Note_on_c, 4, 55, 95
4, 39120, Note_off_c, 4, 55, 80
4, 39120, Note_on_c, 4, 55, 95
4, 39360, Note_off_c, 4, 55, 80
4, 39360, Note_on_c, 4, 64, 95
4, 39600, Note_off_c, 4, 64, 80
4, 39600, Note_on_c, 4, 55, 95
4, 39840, Note_off_c, 4, 55, 80
4, 39840, Note_on_c, 4, 64, 95
4, 40080, Note_off_c, 4, 64, 80
4, 40080, Note_on_c, 4, 55, 95
4, 40560, Note_off_c, 4, 55, 80
4, 40560, Note_on_c, 4, 60, 95
4, 40800, Note_off_c, 4, 60, 80
4, 40800, Note_on_c, 4, 69, 95
4, 41040, Note_off_c, 4, 69, 80
4, 41040, Note_on_c, 4, 60, 95
4, 41280, Note_off_c, 4, 60, 80
4, 41280, Note_on_c, 4, 67, 95
4, 41520, Note_off_c, 4, 67, 80
4, 41520, Note_on_c, 4, 60, 95
4, 42000, Note_off_c, 4, 60, 80
4, 42000, Note_on_c, 4, 60, 95
4, 42240, Note_off_c, 4, 60, 80
4, 42240, Note_on_c, 4, 65, 95
4, 42480, Note_off_c, 4, 65, 80
4, 42480, Note_on_c, 4, 60, 95
4, 42720, Note_off_c, 4, 60, 80
4, 42720, Note_on_c, 4, 50, 95
4, 42960, Note_off_c, 4, 50, 80
4, 42960, Note_on_c, 4, 65, 95
4, 43440, Note_off_c, 4, 65, 80
4, 43440, Note_on_c, 4, 59, 95
4, 43680, Note_off_c, 4, 59, 80
4, 43680, Note_on_c, 4, 64, 95
4, 43920, Note_off_c, 4, 64, 80
4, 43920, Note_on_c, 4, 59, 95
4, 44160, Note_off_c, 4, 59, 80
4, 44160, Note_on_c, 4, 64, 95
4, 44400, Note_off_c, 4, 64, 80
4, 44400, Note_on_c, 4, 59, 95
4, 44880, Note_off_c, 4, 59, 80
4, 44880, Note_on_c, 4, 62, 95
4, 45120, Note_off_c, 4, 62, 80
4, 45120, Note_on_c, 4, 64, 95
4, 45360, Note_off_c, 4, 64, 80
4, 45360, Note_on_c, 4, 62, 95
4, 45600, Note_off_c, 4, 62, 80
4, 45600, Note_on_c, 4, 64, 95
4, 45840, Note_off_c, 4, 64, 80
4, 45840, Note_on_c, 4, 62, 95
4, 46320, Note_off_c, 4, 62, 80
4, 46320, Note_on_c, 4, 61, 95
4, 46560, Note_off_c, 4, 61, 80
4, 46560, Note_on_c, 4, 64, 95
4, 46800, Note_off_c, 4, 64, 80
4, 46800, Note_on_c, 4, 61, 95
4, 47040, Note_off_c, 4, 61, 80
4, 47040, Note_on_c, 4, 64, 95
4, 47280, Note_off_c, 4, 64, 80
4, 47280, Note_on_c, 4, 61, 95
4, 47760, Note_off_c, 4, 61, 80
4, 47760, Note_on_c, 4, 57, 95
4, 48000, Note_off_c, 4, 57, 80
4, 48000, Note_on_c, 4, 64, 95
4, 48240, Note_off_c, 4, 64, 80
4, 48240, Note_on_c, 4, 57, 95
4, 48480, Note_off_c, 4, 57, 80
4, 48480, Note_on_c, 4, 65, 95
4, 48720, Note_off_c, 4, 65, 80
4, 48720, Note_on_c, 4, 57, 95
4, 49200, Note_off_c, 4, 57, 80
4, 49200, Note_on_c, 4, 64, 95
4, 49440, Note_off_c, 4, 64, 80
4, 49440, Note_on_c, 4, 62, 95
4, 49680, Note_off_c, 4, 62, 80
4, 49680, Note_on_c, 4, 57, 95
4, 49920, Note_off_c, 4, 57, 80
4, 49920, Note_on_c, 4, 62, 95
4, 50160, Note_off_c, 4, 62, 80
4, 50160, Note_on_c, 4, 57, 95
4, 50640, Note_off_c, 4, 57, 80
4, 50640, Note_on_c, 4, 57, 95
4, 50880, Note_off_c, 4, 57, 80
4, 50880, Note_on_c, 4, 62, 95
4, 51120, Note_off_c, 4, 62, 80
4, 51120, Note_on_c, 4, 57, 95
4, 51360, Note_off_c, 4, 57, 80
4, 51360, Note_on_c, 4, 62, 95
4, 51600, Note_off_c, 4, 62, 80
4, 51600, Note_on_c, 4, 57, 95
4, 52080, Note_off_c, 4, 57, 80
4, 52080, Note_on_c, 4, 57, 95
4, 52320, Note_off_c, 4, 57, 80
4, 52320, Note_on_c, 4, 59, 95
4, 52560, Note_off_c, 4, 59, 80
4, 52560, Note_on_c, 4, 57, 95
4, 52800, Note_off_c, 4, 57, 80
4, 52800, Note_on_c, 4, 59, 95
4, 53040, Note_off_c, 4, 59, 80
4, 53040, Note_on_c, 4, 57, 95
4, 53520, Note_off_c, 4, 57, 80
4, 53520, Note_on_c, 4, 51, 95
4, 53760, Note_off_c, 4, 51, 80
4, 53760, Note_on_c, 4, 57, 95
4, 54000, Note_off_c, 4, 57, 80
4, 54000, Note_on_c, 4, 51, 95
4, 54240, Note_off_c, 4, 51, 80
4, 54240, Note_on_c, 4, 57, 95
4, 54480, Note_off_c, 4, 57, 80
4, 54480, Note_on_c, 4, 51, 95
4, 54960, Note_off_c, 4, 51, 80
4, 54960, Note_on_c, 4, 52, 95
4, 55200, Note_off_c, 4, 52, 80
4, 55200, Note_on_c, 4, 56, 95
4, 55440, Note_off_c, 4, 56, 80
4, 55440, Note_on_c, 4, 52, 95
4, 55680, Note_off_c, 4, 52, 80
4, 55680, Note_on_c, 4, 56, 95
4, 55920, Note_off_c, 4, 56, 80
4, 55920, Note_on_c, 4, 52, 95
4, 56400, Note_off_c, 4, 52, 80
4, 56400, Note_on_c, 4, 52, 95
4, 56640, Note_off_c, 4, 52, 80
4, 56640, Note_on_c, 4, 56, 95
4, 56880, Note_off_c, 4, 56, 80
4, 56880, Note_on_c, 4, 52, 95
4, 57120, Note_off_c, 4, 52, 80
4, 57120, Note_on_c, 4, 56, 95
4, 57360, Note_off_c, 4, 56, 80
4, 57360, Note_on_c, 4, 52, 95
4, 57840, Note_off_c, 4, 52, 80
4, 57840, Note_on_c, 4, 52, 95
4, 58080, Note_off_c, 4, 52, 80
4, 58080, Note_on_c, 4, 61, 95
4, 58320, Note_off_c, 4, 61, 80
4, 58320, Note_on_c, 4, 52, 95
4, 58560, Note_off_c, 4, 52, 80
4, 58560, Note_on_c, 4, 59, 95
4, 58800, Note_off_c, 4, 59, 80
4, 58800, Note_on_c, 4, 52, 95
4, 59280, Note_off_c, 4, 52, 80
4, 59280, Note_on_c, 4, 52, 95
4, 59520, Note_off_c, 4, 52, 80
4, 59520, Note_on_c, 4, 57, 95
4, 59760, Note_off_c, 4, 57, 80
4, 59760, Note_on_c, 4, 52, 95
4, 60000, Note_off_c, 4, 52, 80
4, 60000, Note_on_c, 4, 59, 95
4, 60240, Note_off_c, 4, 59, 80
4, 60240, Note_on_c, 4, 52, 95
4, 60720, Note_off_c, 4, 52, 80
4, 60720, Note_on_c, 4, 52, 95
4, 60960, Note_off_c, 4, 52, 80
4, 60960, Note_on_c, 4, 61, 95
4, 61200, Note_off_c, 4, 61, 80
4, 61200, Note_on_c, 4, 52, 95
4, 61440, Note_off_c, 4, 52, 80
4, 61440, Note_on_c, 4, 61, 95
4, 61680, Note_off_c, 4, 61, 80
4, 61680, Note_on_c, 4, 52, 95
4, 62160, Note_off_c, 4, 52, 80
4, 62160, Note_on_c, 4, 52, 95
4, 62400, Note_off_c, 4, 52, 80
4, 62400, Note_on_c, 4, 61, 95
4, 62640, Note_off_c, 4, 61, 80
4, 62640, Note_on_c, 4, 52, 95
4, 62880, Note_off_c, 4, 52, 80
4, 62880, Note_on_c, 4, 61, 95
4, 63120, Note_off_c, 4, 61, 80
4, 63120, Note_on_c, 4, 52, 95
4, 63600, Note_off_c, 4, 52, 80
4, 63600, Note_on_c, 4, 54, 95
4, 63840, Note_off_c, 4, 54, 80
4, 63840, Note_on_c, 4, 62, 95
4, 64080, Note_off_c, 4, 62, 80
4, 64080, Note_on_c, 4, 54, 95
4, 64320, Note_off_c, 4, 54, 80
4, 64320, Note_on_c, 4, 62, 95
4, 64560, Note_off_c, 4, 62, 80
4, 64560, Note_on_c, 5, 54, 95
4, 64800, Pitch_bend_c, 5, 9216
4, 64834, Pitch_bend_c, 5, 10240
4, 64869, Pitch_bend_c, 5, 11264
4, 64903, Pitch_bend_c, 5, 12288
4, 64937, Pitch_bend_c, 5, 13312
4, 64971, Pitch_bend_c, 5, 14336
4, 65006, Pitch_bend_c, 5, 15360
4, 65040, Note_off_c, 5, 54, 80
4, 65040, Pitch_bend_c, 5, 16256
4, 65040, Note_on_c, 4, 62, 76
4, 65074, Pitch_bend_c, 5, 8192
4, 65280, Note_off_c, 4, 62, 80
4, 65280, Note_on_c, 4, 71, 95
4, 65520, Note_off_c, 4, 71, 80
4, 65520, Note_on_c, 4, 62, 95
4, 65760, Note_off_c, 4, 62, 80
4, 65760, Note_on_c, 4, 62, 95
4, 66000, Note_off_c, 4, 62, 80
4, 66000, Note_on_c, 4, 54, 95
4, 66480, Note_off_c, 4, 54, 80
4, 66480, Note_on_c, 4, 62, 95
4, 66720, Note_off_c, 4, 62, 80
4, 66720, Note_on_c, 4, 61, 95
4, 66960, Note_off_c, 4, 61, 80
4, 66960, Note_on_c, 4, 52, 95
4, 67200, Note_off_c, 4, 52, 80
4, 67200, Note_on_c, 4, 61, 95
4, 67440, Note_off_c, 4, 61, 80
4, 67440, Note_on_c, 4, 52, 95
4, 67920, Note_off_c, 4, 52, 80
4, 67920, Note_on_c, 4, 52, 95
4, 68160, Note_off_c, 4, 52, 80
4, 68160, Note_on_c, 4, 61, 95
4, 68400, Note_off_c, 4, 61, 80
4, 68400, Note_on_c, 4, 52, 95
4, 68640, Note_off_c, 4, 52, 80
4, 68640, Note_on_c, 4, 61, 95
4, 68880, Note_off_c, 4, 61, 80
4, 68880, Note_on_c, 4, 52, 95
4, 69360, Note_off_c, 4, 52, 80
4, 69360, Note_on_c, 4, 54, 95
4, 69600, Note_off_c, 4, 54, 80
4, 69600, Note_on_c, 4, 57, 95
4, 69840, Note_off_c, 4, 57, 80
4, 69840, Note_on_c, 4, 61, 95
4, 70080, Note_off_c, 4, 61, 80
4, 70080, Note_on_c, 4, 57, 95
4, 70320, Note_off_c, 4, 57, 80
4, 70320, Note_on_c, 4, 54, 95
4, 70800, Note_off_c, 4, 54, 80
4, 70800, Note_on_c, 4, 56, 95
4, 71040, Note_off_c, 4, 56, 80
4, 71040, Note_on_c, 4, 60, 95
4, 71280, Note_off_c, 4, 60, 80
4, 71280, Note_on_c, 4, 63, 95
4, 71520, Note_off_c, 4, 63, 80
4, 71520, Note_on_c, 4, 60, 95
4, 71760, Note_off_c, 4, 60, 80
4, 71760, Note_on_c, 4, 56, 95
4, 72240, Note_off_c, 4, 56, 80
4, 72240, Note_on_c, 4, 56, 95
4, 72480, Note_off_c, 4, 56, 80
4, 72480, Note_on_c, 4, 61, 95
4, 72720, Note_off_c, 4, 61, 80
4, 72720, Note_on_c, 4, 56, 95
4, 72960, Note_off_c, 4, 56, 80
4, 72960, Note_on_c, 4, 61, 95
4, 73200, Note_off_c, 4, 61, 80
4, 73200, Note_on_c, 4, 56, 95
4, 73680, Note_off_c, 4, 56, 80
4, 73680, Note_on_c, 4, 56, 95
4, 73920, Note_off_c, 4, 56, 80
4, 73920, Note_on_c, 4, 61, 95
4, 74160, Note_off_c, 4, 61, 80
4, 74160, Note_on_c, 4, 56, 95
4, 74400, Note_off_c, 4, 56, 80
4, 74400, Note_on_c, 4, 61, 95
4, 74640, Note_off_c, 4, 61, 80
4, 74640, Note_on_c, 4, 56, 95
4, 75120, Note_off_c, 4, 56, 80
4, 75120, Note_on_c, 4, 53, 95
4, 75360, Note_off_c, 4, 53, 80
4, 75360, Note_on_c, 4, 53, 95
4, 75600, Note_off_c, 4, 53, 80
4, 75600, Note_on_c, 4, 50, 95
4, 75840, Note_off_c, 4, 50, 80
4, 75840, Note_on_c, 4, 52, 95
4, 76080, Note_off_c, 4, 52, 80
4, 76080, Note_on_c, 4, 53, 95
4, 76560, Note_off_c, 4, 53, 80
4, 76560, Note_on_c, 4, 52, 95
4, 76800, Note_off_c, 4, 52, 80
4, 76800, Note_on_c, 4, 52, 95
4, 77040, Note_off_c, 4, 52, 80
4, 77040, Note_on_c, 4, 52, 95
4, 77280, Note_off_c, 4, 52, 80
4, 77280, Note_on_c, 4, 40, 95
4, 77520, Note_off_c, 4, 40, 80
4, 77520, Note_on_c, 4, 50, 95
4, 78000, Note_off_c, 4, 50, 80
4, 78000, Note_on_c, 4, 52, 95
4, 78240, Note_off_c, 4, 52, 80
4, 78240, Note_on_c, 4, 52, 95
4, 78480, Note_off_c, 4, 52, 80
4, 78480, Note_on_c, 4, 52, 95
4, 78720, Note_off_c, 4, 52, 80
4, 78720, Note_on_c, 4, 54, 95
4, 78960, Note_off_c, 4, 54, 80
4, 78960, Note_on_c, 4, 56, 95
4, 79440, Note_off_c, 4, 56, 80
4, 79440, Note_on_c, 4, 52, 95
4, 79680, Note_off_c, 4, 52, 80
4, 79680, Note_on_c, 4, 49, 95
4, 79920, Note_off_c, 4, 49, 80
4, 79920, Note_on_c, 4, 52, 95
4, 80160, Note_off_c, 4, 52, 80
4, 80160, Note_on_c, 4, 57, 95
4, 80400, Note_off_c, 4, 57, 80
4, 80400, Note_on_c, 4, 59, 95
4, 80640, Note_off_c, 4, 59, 80
4, 80880, Note_on_c, 4, 52, 95
4, 81120, Note_off_c, 4, 52, 80
4, 81120, Note_on_c, 4, 61, 95
4, 81360, Note_off_c, 4, 61, 80
4, 81360, Note_on_c, 4, 52, 95
4, 81600, Note_off_c, 4, 52, 80
4, 81600, Note_on_c, 4, 59, 95
4, 81840, Note_off_c, 4, 59, 80
4, 81840, Note_on_c, 4, 52, 95
4, 82320, Note_off_c, 4, 52, 80
4, 82320, Note_on_c, 4, 52, 95
4, 82560, Note_off_c, 4, 52, 80
4, 82560, Note_on_c, 4, 57, 95
4, 82800, Note_off_c, 4, 57, 80
4, 82800, Note_on_c, 4, 52, 95
4, 83040, Note_off_c, 4, 52, 80
4, 83040, Note_on_c, 4, 59, 95
4, 83280, Note_off_c, 4, 59, 80
4, 83280, Note_on_c, 4, 52, 95
4, 83760, Note_off_c, 4, 52, 80
4, 83760, Note_on_c, 4, 52, 95
4, 84000, Note_off_c, 4, 52, 80
4, 84000, Note_on_c, 4, 61, 95
4, 84240, Note_off_c, 4, 61, 80
4, 84240, Note_on_c, 4, 52, 95
4, 84480, Note_off_c, 4, 52, 80
4, 84480, Note_on_c, 4, 61, 95
4, 84720, Note_off_c, 4, 61, 80
4, 84720, Note_on_c, 4, 52, 95
4, 85200, Note_off_c, 4, 52, 80
4, 85200, Note_on_c, 4, 52, 95
4, 85440, Note_off_c, 4, 52, 80
4, 85440, Note_on_c, 4, 61, 95
4, 85680, Note_off_c, 4, 61, 80
4, 85680, Note_on_c, 4, 52, 95
4, 85920, Note_off_c, 4, 52, 80
4, 85920, Note_on_c, 4, 61, 95
4, 86160, Note_off_c, 4, 61, 80
4, 86160, Note_on_c, 4, 52, 95
4, 86640, Note_off_c, 4, 52, 80
4, 86640, Note_on_c, 4, 54, 95
4, 86880, Note_off_c, 4, 54, 80
4, 86880, Note_on_c, 4, 62, 95
4, 87120, Note_off_c, 4, 62, 80
4, 87120, Note_on_c, 4, 54, 95
4, 87360, Note_off_c, 4, 54, 80
4, 87360, Note_on_c, 4, 62, 95
4, 87600, Note_off_c, 4, 62, 80
4, 87600, Note_on_c, 5, 54, 95
4, 87840, Pitch_bend_c, 5, 9216
4, 87874, Pitch_bend_c, 5, 10240
4, 87909, Pitch_bend_c, 5, 11264
4, 87943, Pitch_bend_c, 5, 12288
4, 87977, Pitch_bend_c, 5, 13312
4, 88011, Pitch_bend_c, 5, 14336
4, 88046, Pitch_bend_c, 5, 15360
4, 88080, Note_off_c, 5, 54, 80
4, 88080, Pitch_bend_c, 5, 16256
4, 88080, Note_on_c, 4, 62, 76
4, 88114, Pitch_bend_c, 5, 8192
4, 88320, Note_off_c, 4, 62, 80
4, 88320, Note_on_c, 4, 71, 95
4, 88560, Note_off_c, 4, 71, 80
4, 88560, Note_on_c, 4, 62, 95
4, 88800, Note_off_c, 4, 62, 80
4, 88800, Note_on_c, 4, 62, 95
4, 89040, Note_off_c, 4, 62, 80
4, 89040, Note_on_c, 4, 54, 95
4, 89520, Note_off_c, 4, 54, 80
4, 89520, Note_on_c, 4, 62, 95
4, 89760, Note_off_c, 4, 62, 80
4, 89760, Note_on_c, 4, 61, 95
4, 90000, Note_off_c, 4, 61, 80
4, 90000, Note_on_c, 4, 52, 95
4, 90240, Note_off_c, 4, 52, 80
4, 90240, Note_on_c, 4, 61, 95
4, 90480, Note_off_c, 4, 61, 80
4, 90480, Note_on_c, 4, 52, 95
4, 90960, Note_off_c, 4, 52, 80
4, 90960, Note_on_c, 4, 52, 95
4, 91200, Note_off_c, 4, 52, 80
4, 91200, Note_on_c, 4, 61, 95
4, 91440, Note_off_c, 4, 61, 80
4, 91440, Note_on_c, 4, 52, 95
4, 91680, Note_off_c, 4, 52, 80
4, 91680, Note_on_c, 4, 61, 95
4, 91920, Note_off_c, 4, 61, 80
4, 91920, Note_on_c, 4, 52, 95
4, 92400, Note_off_c, 4, 52, 80
4, 92400, Note_on_c, 4, 54, 95
4, 92640, Note_off_c, 4, 54, 80
4, 92640, Note_on_c, 4, 57, 95
4, 92880, Note_off_c, 4, 57, 80
4, 92880, Note_on_c, 4, 61, 95
4, 93120, Note_off_c, 4, 61, 80
4, 93120, Note_on_c, 4, 57, 95
4, 93360, Note_off_c, 4, 57, 80
4, 93360, Note_on_c, 4, 54, 95
4, 93840, Note_off_c, 4, 54, 80
4, 93840, Note_on_c, 4, 56, 95
4, 94080, Note_off_c, 4, 56, 80
4, 94080, Note_on_c, 4, 60, 95
4, 94320, Note_off_c, 4, 60, 80
4, 94320, Note_on_c, 4, 63, 95
4, 94560, Note_off_c, 4, 63, 80
4, 94560, Note_on_c, 4, 60, 95
4, 94800, Note_off_c, 4, 60, 80
4, 94800, Note_on_c, 4, 56, 95
4, 95280, Note_off_c, 4, 56, 80
4, 95280, Note_on_c, 4, 56, 95
4, 95520, Note_off_c, 4, 56, 80
4, 95520, Note_on_c, 4, 61, 95
4, 95760, Note_off_c, 4, 61, 80
4, 95760, Note_on_c, 4, 56, 95
4, 96000, Note_off_c, 4, 56, 80
4, 96000, Note_on_c, 4, 61, 95
4, 96240, Note_off_c, 4, 61, 80
4, 96240, Note_on_c, 4, 56, 95
4, 96720, Note_off_c, 4, 56, 80
4, 96720, Note_on_c, 4, 56, 95
4, 96960, Note_off_c, 4, 56, 80
4, 96960, Note_on_c, 4, 61, 95
4, 97200, Note_off_c, 4, 61, 80
4, 97200, Note_on_c, 4, 56, 95
4, 97440, Note_off_c, 4, 56, 80
4, 97440, Note_on_c, 4, 61, 95
4, 97680, Note_off_c, 4, 61, 80
4, 97680, Note_on_c, 4, 56, 95
4, 98160, Note_off_c, 4, 56, 80
4, 98160, Note_on_c, 4, 53, 95
4, 98400, Note_off_c, 4, 53, 80
4, 98400, Note_on_c, 4, 53, 95
4, 98640, Note_off_c, 4, 53, 80
4, 98640, Note_on_c, 4, 50, 95
4, 98880, Note_off_c, 4, 50, 80
4, 98880, Note_on_c, 4, 52, 95
4, 99120, Note_off_c, 4, 52, 80
4, 99120, Note_on_c, 4, 53, 95
4, 99600, Note_off_c, 4, 53, 80
4, 99600, Note_on_c, 4, 52, 95
4, 99840, Note_off_c, 4, 52, 80
4, 99840, Note_on_c, 4, 52, 95
4, 100080, Note_off_c, 4, 52, 80
4, 100080, Note_on_c, 4, 52, 95
4, 100320, Note_off_c, 4, 52, 80
4, 100320, Note_on_c, 4, 40, 95
4, 100560, Note_off_c, 4, 40, 80
4, 100560, Note_on_c, 4, 50, 95
4, 101040, Note_off_c, 4, 50, 80
4, 101040, Note_on_c, 4, 52, 95
4, 101280, Note_off_c, 4, 52, 80
4, 101280, Note_on_c, 4, 52, 95
4, 101520, Note_off_c, 4, 52, 80
4, 101520, Note_on_c, 4, 52, 95
4, 101760, Note_off_c, 4, 52, 80
4, 101760, Note_on_c, 4, 54, 95
4, 102000, Note_off_c, 4, 54, 80
4, 102000, Note_on_c, 4, 56, 95
4, 102480, Note_off_c, 4, 56, 80
4, 102480, Note_on_c, 4, 52, 95
4, 102720, Note_off_c, 4, 52, 80
4, 102720, Note_on_c, 4, 52, 95
4, 102960, Note_off_c, 4, 52, 80
4, 102960, Note_on_c, 4, 56, 95
4, 103200, Note_off_c, 4, 56, 80
4, 103200, Note_on_c, 4, 57, 95
4, 103440, Note_off_c, 4, 57, 80
4, 103440, Note_on_c, 4, 59, 95
4, 103920, Note_off_c, 4, 59, 80
4, 103920, Note_on_c, 4, 52, 95
4, 104160, Note_off_c, 4, 52, 80
4, 104160, Note_on_c, 4, 52, 95
4, 104400, Note_off_c, 4, 52, 80
4, 104400, Note_on_c, 4, 52, 95
4, 104640, Note_off_c, 4, 52, 80
4, 104640, Note_on_c, 4, 52, 95
4, 104880, Note_off_c, 4, 52, 80
4, 104880, Note_on_c, 4, 52, 95
4, 105360, Note_off_c, 4, 52, 80
4, 105360, Note_on_c, 4, 53, 95
4, 105600, Note_off_c, 4, 53, 80
4, 105600, Note_on_c, 4, 53, 95
4, 105840, Note_off_c, 4, 53, 80
4, 105840, Note_on_c, 4, 53, 95
4, 106080, Note_off_c, 4, 53, 80
4, 106080, Note_on_c, 4, 53, 95
4, 106320, Note_off_c, 4, 53, 80
4, 106320, Note_on_c, 4, 53, 95
4, 106800, Note_off_c, 4, 53, 80
4, 106800, Note_on_c, 4, 53, 95
4, 107040, Note_off_c, 4, 53, 80
4, 107040, Note_on_c, 4, 57, 95
4, 107280, Note_off_c, 4, 57, 80
4, 107280, Note_on_c, 4, 53, 95
4, 107520, Note_off_c, 4, 53, 80
4, 107520, Note_on_c, 4, 57, 95
4, 107760, Note_off_c, 4, 57, 80
4, 107760, Note_on_c, 4, 53, 95
4, 108240, Note_off_c, 4, 53, 80
4, 108240, Note_on_c, 4, 52, 95
4, 108480, Note_off_c, 4, 52, 80
4, 108480, Note_on_c, 4, 61, 95
4, 108720, Note_off_c, 4, 61, 80
4, 108720, Note_on_c, 4, 52, 95
4, 108960, Note_off_c, 4, 52, 80
4, 108960, Note_on_c, 4, 61, 95
4, 109200, Note_off_c, 4, 61, 80
4, 109200, Note_on_c, 4, 52, 95
4, 109680, Note_off_c, 4, 52, 80
4, 109680, Note_on_c, 4, 52, 95
4, 109920, Note_off_c, 4, 52, 80
4, 109920, Note_on_c, 4, 61, 95
4, 110160, Note_off_c, 4, 61, 80
4, 110160, Note_on_c, 4, 52, 95
4, 110400, Note_off_c, 4, 52, 80
4, 110400, Note_on_c, 4, 61, 95
4, 110640, Note_off_c, 4, 61, 80
4, 110640, Note_on_c, 4, 52, 95
4, 111120, Note_off_c, 4, 52, 80
4, 111120, Note_on_c, 4, 56, 95
4, 111360, Note_off_c, 4, 56, 80
4, 111360, Note_on_c, 4, 56, 95
4, 111600, Note_off_c, 4, 56, 80
4, 111600, Note_on_c, 4, 56, 95
4, 111840, Note_off_c, 4, 56, 80
4, 111840, Note_on_c, 4, 56, 95
4, 112080, Note_off_c, 4, 56, 80
4, 112080, Note_on_c, 4, 56, 95
4, 112560, Note_off_c, 4, 56, 80
4, 112560, Note_on_c, 4, 54, 95
4, 112800, Note_off_c, 4, 54, 80
4, 112800, Note_on_c, 4, 52, 95
4, 113040, Note_off_c, 4, 52, 80
4, 113040, Note_on_c, 4, 52, 95
4, 113280, Note_off_c, 4, 52, 80
4, 113280, Note_on_c, 4, 40, 95
4, 113520, Note_off_c, 4, 40, 80
4, 113520, Note_on_c, 4, 50, 95
4, 114000, Note_off_c, 4, 50, 80
4, 114000, Note_on_c, 4, 52, 95
4, 114240, Note_off_c, 4, 52, 80
4, 114240, Note_on_c, 4, 52, 95
4, 114480, Note_off_c, 4, 52, 80
4, 114480, Note_on_c, 4, 53, 95
4, 114720, Note_off_c, 4, 53, 80
4, 114720, Note_on_c, 4, 54, 95
4, 114960, Note_off_c, 4, 54, 80
4, 114960, Note_on_c, 4, 53, 95
4, 115440, Note_off_c, 4, 53, 80
4, 115440, Note_on_c, 4, 52, 95
4, 115680, Note_off_c, 4, 52, 80
4, 115680, Note_on_c, 4, 52, 95
4, 115920, Note_off_c, 4, 52, 80
4, 115920, Note_on_c, 4, 52, 95
4, 116160, Note_off_c, 4, 52, 80
4, 116160, Note_on_c, 4, 52, 95
4, 116400, Note_off_c, 4, 52, 80
4, 116400, Note_on_c, 4, 52, 95
4, 116880, Note_off_c, 4, 52, 80
4, 116880, Note_on_c, 4, 53, 95
4, 117120, Note_off_c, 4, 53, 80
4, 117120, Note_on_c, 4, 53, 95
4, 117360, Note_off_c, 4, 53, 80
4, 117360, Note_on_c, 4, 53, 95
4, 117600, Note_off_c, 4, 53, 80
4, 117600, Note_on_c, 4, 53, 95
4, 117840, Note_off_c, 4, 53, 80
4, 117840, Note_on_c, 4, 53, 95
4, 118320, Note_off_c, 4, 53, 80
4, 118320, Note_on_c, 4, 53, 95
4, 118560, Note_off_c, 4, 53, 80
4, 118560, Note_on_c, 4, 57, 95
4, 118800, Note_off_c, 4, 57, 80
4, 118800, Note_on_c, 4, 53, 95
4, 119040, Note_off_c, 4, 53, 80
4, 119040, Note_on_c, 4, 57, 95
4, 119280, Note_off_c, 4, 57, 80
4, 119280, Note_on_c, 4, 53, 95
4, 119760, Note_off_c, 4, 53, 80
4, 119760, Note_on_c, 4, 52, 95
4, 120000, Note_off_c, 4, 52, 80
4, 120000, Note_on_c, 4, 61, 95
4, 120240, Note_off_c, 4, 61, 80
4, 120240, Note_on_c, 4, 52, 95
4, 120480, Note_off_c, 4, 52, 80
4, 120480, Note_on_c, 4, 61, 95
4, 120720, Note_off_c, 4, 61, 80
4, 120720, Note_on_c, 4, 52, 95
4, 121200, Note_off_c, 4, 52, 80
4, 121200, Note_on_c, 4, 52, 95
4, 121440, Note_off_c, 4, 52, 80
4, 121440, Note_on_c, 4, 61, 95
4, 121680, Note_off_c, 4, 61, 80
4, 121680, Note_on_c, 4, 52, 95
4, 121920, Note_off_c, 4, 52, 80
4, 121920, Note_on_c, 4, 61, 95
4, 122160, Note_off_c, 4, 61, 80
4, 122160, Note_on_c, 4, 52, 95
4, 122640, Note_off_c, 4, 52, 80
4, 122640, Note_on_c, 4, 52, 95
4, 122880, Note_off_c, 4, 52, 80
4, 122880, Note_on_c, 4, 64, 95
4, 123120, Note_off_c, 4, 64, 80
4, 123120, Note_on_c, 4, 52, 95
4, 123360, Note_off_c, 4, 52, 80
4, 123360, Note_on_c, 4, 64, 95
4, 123600, Note_off_c, 4, 64, 80
4, 123600, Note_on_c, 4, 52, 95
4, 124080, Note_off_c, 4, 52, 80
4, 124080, Note_on_c, 4, 52, 95
4, 124320, Note_off_c, 4, 52, 80
4, 124320, Note_on_c, 4, 61, 95
4, 124560, Note_off_c, 4, 61, 80
4, 124560, Note_on_c, 4, 52, 95
4, 124800, Note_off_c, 4, 52, 80
4, 124800, Note_on_c, 4, 59, 95
4, 125040, Note_off_c, 4, 59, 80
4, 125040, Note_on_c, 4, 52, 95
4, 125520, Note_off_c, 4, 52, 80
4, 125520, Note_on_c, 4, 52, 95
4, 125760, Note_off_c, 4, 52, 80
4, 125760, Note_on_c, 4, 57, 95
4, 126000, Note_off_c, 4, 57, 80
4, 126000, Note_on_c, 4, 52, 95
4, 126240, Note_off_c, 4, 52, 80
4, 126240, Note_on_c, 4, 54, 95
4, 126480, Note_off_c, 4, 54, 80
4, 126480, Note_on_c, 4, 57, 95
4, 126960, Note_off_c, 4, 57, 80
4, 126960, Note_on_c, 4, 52, 95
4, 127200, Note_off_c, 4, 52, 80
4, 127200, Note_on_c, 4, 57, 95
4, 127440, Note_off_c, 4, 57, 80
4, 127440, Note_on_c, 4, 40, 95
4, 127680, Note_off_c, 4, 40, 80
4, 127680, Note_on_c, 4, 48, 95
4, 127920, Note_off_c, 4, 48, 80
4, 127920, Note_on_c, 4, 49, 95
4, 128400, Note_off_c, 4, 49, 80
4, 128400, Note_on_c, 4, 52, 95
4, 128640, Note_off_c, 4, 52, 80
4, 128640, Note_on_c, 4, 57, 95
4, 128880, Note_off_c, 4, 57, 80
4, 128880, Note_on_c, 4, 40, 95
4, 129120, Note_off_c, 4, 40, 80
4, 129120, Note_on_c, 4, 48, 95
4, 129360, Note_off_c, 4, 48, 80
4, 129360, Note_on_c, 4, 49, 95
4, 129600, Note_off_c, 4, 49, 80
4, 129600, End_track
0, 0, End_of_file